<?xml version="1.0" encoding="UTF-8"?>
<svg id="Layer_2" data-name="Layer 2" xmlns="http://www.w3.org/2000/svg" viewBox="0 0 1508.97 125.13">
  <g id="Layer_1-2" data-name="Layer 1">
    <g>
      <path d="M100.33.26v55.01l9.26,9.17-9.26,9.26v51.43h-27.59L37.9,59.81v65.32H9.61v-51.43L0,64.09l9.61-9.61V.26h28.47l33.97,63.66V.26h28.29Z"/>
      <path d="M163.72,0v53.7l9.43,9.43-9.43,9.34v52.65h-28.47v-52.74l-9.26-9.26,9.26-9.34V0h28.47Z"/>
      <path d="M290.6.26v55.01l9.26,9.17-9.26,9.26v51.43h-27.59l-34.84-65.32v65.32h-28.29v-51.43l-9.61-9.61,9.61-9.61V.26h28.47l33.97,63.66V.26h28.29Z"/>
      <path d="M404.64,0v27.94h-50.12v20.52h35.28v27.94h-35.28v20.78h50.12v27.94h-78.67v-52.48l-9.52-9.52,9.52-9.61V0h78.67Z"/>
      <path d="M509.77,0v27.94h-28.82v26.46l9.69,9.69-9.69,9.69v51.34h-28.47v-51.69l-9.69-9.69,9.69-9.69v-26.11h-29.6V0h86.88Z"/>
      <path d="M563.74,0v53.7l9.43,9.43-9.43,9.34v52.65h-28.47v-52.74l-9.26-9.26,9.26-9.34V0h28.47Z"/>
      <path d="M679.61,0v27.94h-50.12v20.52h35.28v27.94h-35.28v20.78h50.12v27.94h-78.67v-52.48l-9.52-9.52,9.52-9.61V0h78.67Z"/>
      <path d="M787.19,99.11c-.06,17.23-8.94,25.91-26.63,26.02h-26.46c-17.29-.12-26.2-8.38-26.72-24.8v-17.9h28.82v9.26c.12,3.38,2.15,5.06,6.11,5.06h9.87c4.19,0,6.23-1.98,6.11-5.94v-8.82c-.12-3.43-2.15-5.15-6.11-5.15h-18.16c-17.29-.06-26.2-8.32-26.72-24.8v-6.55l-9.34-9.34,9.34-9.34v-.52c0-17.41,8.91-26.17,26.72-26.28h26.46c17.81.12,26.72,8.88,26.72,26.28v16.24h-28.9v-9.17c-.12-3.38-2.15-5.06-6.11-5.06h-9.87c-4.19,0-6.23,2.01-6.11,6.02v9.26c.12,3.32,2.12,4.95,6.02,4.89h18.25c17.7.17,26.6,8.47,26.72,24.89v6.81l9.52,9.43-9.52,9.52Z"/>
      <path d="M948.47,99.11c-.06,17.23-8.94,25.91-26.63,26.02h-26.46c-17.29-.12-26.2-8.38-26.72-24.8v-17.9h28.82v9.26c.12,3.38,2.15,5.06,6.11,5.06h9.87c4.19,0,6.23-1.98,6.11-5.94v-8.82c-.12-3.43-2.15-5.15-6.11-5.15h-18.16c-17.29-.06-26.2-8.32-26.72-24.8v-6.55l-9.34-9.34,9.34-9.34v-.52c0-17.41,8.91-26.17,26.72-26.28h26.46c17.81.12,26.72,8.88,26.72,26.28v16.24h-28.9v-9.17c-.12-3.38-2.15-5.06-6.11-5.06h-9.87c-4.19,0-6.23,2.01-6.11,6.02v9.26c.12,3.32,2.12,4.95,6.02,4.89h18.25c17.7.17,26.6,8.47,26.72,24.89v6.81l9.52,9.43-9.52,9.52Z"/>
      <path d="M1066.18,73.17v25.58c0,17.46-8.94,26.25-26.81,26.37h-26.46c-17.87-.12-26.81-8.91-26.81-26.37v-25.67l-9.43-9.43,9.43-9.43V0h28.99v90.73c-.12,4.02,1.92,6.03,6.11,6.03h9.95c4.19,0,6.23-2.01,6.11-6.03V0h28.9v54.92l9.17,9.08-9.17,9.17Z"/>
      <path d="M1155.5,0c17.81.12,26.72,8.88,26.72,26.28v31.87c0,17.41-8.88,26.17-26.63,26.28h-24.45v40.69h-28.73v-52.04l-9.34-9.34,9.34-9.26V0h53.09ZM1153.41,34.32c.12-3.96-1.92-5.94-6.11-5.94h-15.98v31.09h15.98c4.19,0,6.23-3.11,6.11-9.34v-15.8Z"/>
      <path d="M1262.38,0c17.81.12,26.72,8.88,26.72,26.28v31.87c0,17.41-8.88,26.17-26.63,26.28h-24.45v40.69h-28.73v-52.04l-9.34-9.34,9.34-9.26V0h53.09ZM1260.29,34.32c.12-3.96-1.92-5.94-6.11-5.94h-15.98v31.09h15.98c4.19,0,6.23-3.11,6.11-9.34v-15.8Z"/>
      <path d="M1345.42.26v53.88l8.99,9.08-8.99,9.08v24.97h45.06l.09,27.85h-73.61v-52.39l-9.52-9.52,9.52-9.52V.26h28.47Z"/>
      <path d="M1508.97,0l-36.76,68.28v13.8l9.69,9.69-9.69,9.61v23.75h-28.47v-24.1l-9.34-9.26,9.34-9.34v-13.97L1407.42,0h33.62l17.03,35.28,17.2-35.28h33.71Z"/>
    </g>
  </g>
</svg>