<?xml version="1.0" encoding="UTF-8"?>
<svg id="Layer_2" data-name="Layer 2" xmlns="http://www.w3.org/2000/svg" viewBox="0 0 753.14 301.17">
  <g id="Layer_1-2" data-name="Layer 1">
    <g>
      <g>
        <path d="M66.21,301.17C23.56,300.88,1.29,280.16,0,239.58v-44.09c0-1.83,1.48-3.32,3.32-3.32h67.83c1.83,0,3.32,1.49,3.32,3.32v23.64c.15,4.2,1.58,8.6,11.07,8.6h23.22c4.12,0,7.08-.9,8.82-2.69,1.6-1.65,2.36-4.3,2.26-7.88v-28.84h-53.62C22.27,188.04,0,166.11,0,123.15v-57.96C0,22.22,22.27.29,66.19,0h62.3c43.94.29,66.21,22.22,66.21,65.18v42.02l19.41,20c1.25,1.29,1.25,3.33,0,4.62l-19.41,20v84.16c0,42.97-22.27,64.9-66.19,65.18h-62.3ZM6.63,198.81v40.67c1.17,36.75,20.67,54.79,59.6,55.06h62.26c40.08-.26,59.58-19.41,59.58-58.55v-85.5c0-.86.34-1.69.94-2.31l18.11-18.65-18.11-18.65c-.6-.62-.94-1.45-.94-2.31v-43.37c0-39.13-19.5-58.28-59.6-58.55h-62.26C26.13,6.9,6.63,26.05,6.63,65.18v57.96c0,39.14,19.5,58.29,59.6,58.55h56.91c1.83,0,3.32,1.49,3.32,3.32v32.06c.16,5.34-1.23,9.61-4.13,12.6-3.03,3.12-7.6,4.7-13.58,4.7h-23.22c-14.95,0-17.51-9.48-17.7-15.13v-20.43H6.63ZM123.15,121.73h-37.61c-14.95,0-17.51-9.48-17.7-15.13v-24.78c.19-5.76,2.75-15.24,17.7-15.24h23.22c5.94,0,10.49,1.58,13.53,4.7,2.92,3.01,4.33,7.33,4.18,12.84v34.28c0,1.83-1.49,3.32-3.32,3.32ZM85.53,73.23c-9.49,0-10.93,4.41-11.07,8.72v24.55c.15,4.2,1.58,8.6,11.07,8.6h34.3v-31.01s0-.06,0-.1c.11-3.68-.67-6.39-2.31-8.08-1.73-1.78-4.68-2.69-8.77-2.69h-23.22Z"/>
        <path d="M333.82,301.17c-43.94-.29-66.21-22.22-66.21-65.18v-58.23l-20.61-20.61c-1.3-1.3-1.3-3.4,0-4.69l20.61-20.61v-66.66C267.61,22.22,289.88.29,333.8,0h62.3c43.94.29,66.21,22.22,66.21,65.18v66.67l20.42,20.61c1.28,1.3,1.28,3.39-.01,4.68l-20.41,20.4v58.44c0,42.97-22.27,64.9-66.19,65.18h-62.3ZM254.04,154.8l19.23,19.23c.62.62.97,1.47.97,2.35v59.61c0,39.14,19.5,58.29,59.6,58.55h62.25c40.08-.26,59.58-19.41,59.58-58.55v-59.81c0-.88.35-1.72.97-2.35l19.04-19.04-19.05-19.24c-.62-.62-.96-1.46-.96-2.33v-68.03c0-39.13-19.5-58.28-59.6-58.55h-62.25c-40.08.26-59.58,19.41-59.58,58.55v68.03c0,.88-.35,1.72-.97,2.35l-19.23,19.24ZM376.57,234.57h-23.23c-5.94,0-10.5-1.58-13.53-4.7-2.93-3.02-4.34-7.36-4.17-12.89v-41.01c0-.89.35-1.73.98-2.36l19.01-18.82-19.02-19.02c-.62-.62-.97-1.47-.97-2.35v-49.33c-.16-5.33,1.23-9.6,4.12-12.59,3.03-3.12,7.6-4.7,13.58-4.7h23.23c5.98,0,10.55,1.58,13.58,4.7,2.9,2.99,4.29,7.25,4.13,12.69v49.03c0,.87-.34,1.71-.96,2.33l-19.05,19.24,19.04,19.04c.62.62.97,1.47.97,2.35v40.9c.16,5.44-1.25,9.78-4.18,12.8-3.03,3.12-7.58,4.7-13.53,4.7ZM342.28,177.35v39.72c-.11,3.77.66,6.49,2.3,8.17,1.73,1.79,4.68,2.69,8.77,2.69h23.23c4.08,0,7.03-.91,8.77-2.69,1.64-1.68,2.41-4.4,2.3-8.08v-39.62s-20.4-20.4-20.4-20.4c-1.29-1.29-1.3-3.38-.01-4.68l20.41-20.61v-47.76c.11-3.67-.65-6.32-2.25-7.97-1.73-1.78-4.7-2.69-8.82-2.69h-23.23c-4.12,0-7.09.91-8.82,2.69-1.6,1.65-2.36,4.3-2.25,7.87v48.06s20.4,20.4,20.4,20.4c.62.62.97,1.47.97,2.35s-.36,1.73-.98,2.35l-20.39,20.2Z"/>
        <path d="M602.45,301.17c-42.65-.29-64.92-21.01-66.21-61.59v-42.24c0-1.83,1.48-3.32,3.32-3.32h67.83c1.83,0,3.32,1.49,3.32,3.32v21.79c.15,4.2,1.58,8.6,11.07,8.6h23.22c4.12,0,7.08-.9,8.81-2.69,1.6-1.65,2.36-4.3,2.26-7.88v-20.86c-.15-4.3-1.59-8.81-11.07-8.81h-42.75c-42.64-.14-64.92-20.86-66.21-61.59v-14.15s-21.02-21.02-21.02-21.02c-1.3-1.3-1.3-3.4,0-4.69l21.02-21.02c.05-42.87,22.32-64.75,66.19-65.04h62.3c43.94.29,66.21,22.22,66.21,65.18v38.23c0,1.83-1.49,3.32-3.32,3.32h-68.03c-1.83,0-3.32-1.49-3.32-3.32v-21.58c-.15-4.2-1.58-8.6-11.07-8.6h-23.22c-4.08,0-7.03.91-8.77,2.69-1.64,1.68-2.41,4.4-2.3,8.08v21.88c.14,4.01,1.5,8.2,10.37,8.2.15,0,.29,0,.44,0h43.01c43.66.43,65.92,21.25,66.21,61.87v14.67l21.42,21.23c.63.62.98,1.47.98,2.35,0,.88-.35,1.73-.97,2.35l-21.45,21.44c-.61,41.64-22.8,62.9-65.97,63.18h-62.3ZM542.88,200.66v38.82c1.17,36.75,20.67,54.79,59.6,55.06h62.26c39.81-.26,59.24-19.22,59.37-57.94,0-.88.35-1.72.97-2.33l20.05-20.05-20.04-19.85c-.63-.62-.98-1.47-.98-2.36v-16.03c-.26-36.78-19.76-54.87-59.61-55.26h-42.93c-.17,0-.35,0-.52,0-14.3,0-16.79-9.19-16.98-14.71v-21.9c-.16-5.44,1.25-9.78,4.18-12.8,3.03-3.12,7.58-4.7,13.53-4.7h23.22c14.94,0,17.5,9.47,17.7,15.12v18.38h61.4v-34.91c0-39.13-19.5-58.28-59.6-58.55h-62.26c-40.08.26-59.58,19.41-59.58,58.55v1.23c0,.88-.35,1.72-.97,2.35l-19.65,19.65,19.65,19.65c.62.62.97,1.47.97,2.35v15.41c1.17,36.88,20.67,54.93,59.59,55.06h42.74c14.94,0,17.51,9.6,17.7,15.33v20.88c.16,5.34-1.23,9.61-4.13,12.6-3.03,3.12-7.6,4.7-13.57,4.7h-23.22c-14.95,0-17.51-9.48-17.71-15.12v-18.58h-61.19Z"/>
      </g>
      <path d="M21.69,64.75c-5.18-25.2,18.47-47.69,43.38-41.95-5.81.04-11.45,1.03-16.71,2.97-16.3,5.65-26.53,21.96-26.67,38.99h0Z"/>
      <path d="M170.68,239.31c5.13,25.76-18.11,47.12-43.38,41.95,5.79-.19,11.46-1.2,16.73-3.1,16.7-5.68,26.37-21.51,26.65-38.86h0Z"/>
      <path d="M440.75,239.31c5.13,25.76-18.11,47.12-43.38,41.95,5.79-.19,11.46-1.2,16.73-3.1,16.7-5.68,26.37-21.51,26.65-38.86h0Z"/>
      <path d="M288.4,64.75c-5.13-25.76,18.11-47.12,43.38-41.95-5.79.19-11.46,1.2-16.73,3.1-16.7,5.68-26.37,21.51-26.65,38.86h0Z"/>
      <path d="M560.13,64.75c-5.13-25.76,18.11-47.12,43.38-41.95-5.79.19-11.46,1.2-16.73,3.1-16.7,5.68-26.37,21.51-26.65,38.86h0Z"/>
      <path d="M708.33,239.31c5.13,25.76-18.11,47.12-43.38,41.95,5.79-.19,11.46-1.2,16.73-3.1,16.7-5.68,26.37-21.51,26.65-38.86h0Z"/>
      <g>
        <path d="M190.71,130.19c-13.25,2.27-26.85,2.29-40.1,0,13.24-2.29,26.85-2.27,40.1,0h0Z"/>
        <path d="M170.66,110.14c2.27,13.25,2.29,26.85,0,40.1-2.29-13.24-2.28-26.85,0-40.1h0Z"/>
      </g>
      <g>
        <path d="M461.02,154.04c-13.25,2.27-26.85,2.29-40.1,0,13.24-2.29,26.85-2.28,40.1,0h0Z"/>
        <path d="M440.97,134c2.27,13.25,2.29,26.85,0,40.1-2.29-13.24-2.28-26.85,0-40.1h0Z"/>
      </g>
      <g>
        <path d="M308.29,154.1c-13.25,2.27-26.85,2.29-40.1,0,13.24-2.29,26.85-2.27,40.1,0h0Z"/>
        <path d="M288.24,134.05c2.27,13.25,2.29,26.85,0,40.1-2.29-13.24-2.27-26.85,0-40.1h0Z"/>
      </g>
      <g>
        <path d="M728.54,215.14c-13.25,2.27-26.85,2.29-40.1,0,13.24-2.29,26.85-2.28,40.1,0h0Z"/>
        <path d="M708.49,195.09c2.27,13.25,2.29,26.85,0,40.1-2.29-13.24-2.28-26.85,0-40.1h0Z"/>
      </g>
      <g>
        <path d="M580.02,89.96c-13.25,2.27-26.85,2.29-40.1,0,13.24-2.29,26.85-2.27,40.1,0h0Z"/>
        <path d="M559.97,69.91c2.27,13.25,2.29,26.85,0,40.1-2.29-13.24-2.28-26.85,0-40.1h0Z"/>
      </g>
      <path d="M109.52,281.44c-10.1-1.04-20.22-1.51-30.18-.46-22.54,3.05-41.75,2.14-55.35-18.76-5.6-8.78-8.24-19.26-7.63-29.41.69,10.13,4.13,19.88,9.78,27.97,13.9,19.41,31.35,19.42,53,17.63,10.22-.6,20.46.7,30.38,3.03h0Z"/>
      <path d="M85.31,267.62c-12.88,3.32-26.98,4.75-39.67-.55-12.51-5.13-22.44-18.2-21.09-31.97,1.48,13.1,10.48,23.97,22.39,28.92,11.98,5.13,25.48,4.23,38.36,3.59h0Z"/>
      <path d="M354.13,267.62c-12.88,3.32-26.99,4.75-39.67-.55-12.52-5.12-22.44-18.2-21.08-31.97,1.47,13.1,10.48,23.97,22.39,28.92,11.98,5.14,25.48,4.23,38.36,3.6h0Z"/>
      <path d="M623.89,267.7c-12.88,3.19-27.17,4.69-39.74-.65-12.78-5.06-22.57-17.95-21.02-31.95,1.27,13.27,10.19,24.07,22.31,28.89,12.02,5.22,25.53,4.19,38.45,3.7h0Z"/>
      <path d="M371.91,281.44c-9.63-1.08-19.27-1.62-28.74-.47-9.68,1.13-19.8,2.54-29.39-.58-9.62-3.11-17.51-10.46-22.26-19.23-4.81-8.69-6.92-18.68-6.31-28.35.69,9.65,3.62,19.01,8.55,27.05,12.5,19.65,27.98,20.59,49.2,18.54,9.75-.71,19.55.67,28.96,3.04h0Z"/>
      <path d="M641.29,281.51c-14.31-3.76-28.7.78-43.2.72-15.4.49-29.87-7.4-37.17-21.1-4.86-8.66-6.93-18.66-6.31-28.32.68,9.65,3.58,19.01,8.54,27,7.38,12.35,20.75,19.49,34.99,19.28,14.24.41,29.5-3.28,43.16,2.41h0Z"/>
      <path d="M176.23,91.96c.82-10.32,1.82-20.71.33-30.76-2.9-22.21-20.9-33.59-41.86-36.46-10.16-1.55-20.52-1.49-30.78-.58,10.12-2.21,20.65-3.12,31.11-1.99,22.35,1.96,42.05,14.91,44.09,38.71,1.1,10.59-.81,20.96-2.89,31.08h0Z"/>
      <path d="M442.17,92c.58-12.92,1.88-25.92-1.62-38.34-4.95-18.1-22.85-26.79-40.27-29.02-10.15-1.43-20.56-1.43-30.91-.47,10.16-2.23,20.72-3.13,31.23-2.1,15.75,1.34,32.69,8.27,39.93,23.24,7.09,14.61,4.23,31.49,1.65,46.69h0Z"/>
      <path d="M667.38,22.08c25.76-5.13,47.12,18.11,41.95,43.38-.19-5.79-1.2-11.46-3.1-16.73-5.68-16.7-21.51-26.37-38.86-26.65h0Z"/>
      <path d="M125.62,170.44c-23.82-.58-47.67,5.42-71.32-.57-17.81-4.15-33.34-18.29-37.01-36.49-1.22-5.9-1.4-12-.31-17.85-.85,11.87,2.66,23.7,9.62,32.91,23.58,30.6,65.88,17.54,99.02,22h0Z"/>
      <path d="M555.22,130.72c4.97,22.42,14.14,36.59,38.95,36.35,16.82.24,33.72-.34,50.52,1.15,22.81,1.25,29.72,13.8,25.84,35.26,1.59-20.58-3.99-31.75-26.06-32.36-16.77-1.03-33.56-.43-50.37-.92-25.72-.34-35.98-15.46-38.87-39.48h0Z"/>
    </g>
  </g>
</svg>