<?xml version="1.0" encoding="UTF-8" standalone="no"?>
<!DOCTYPE svg PUBLIC "-//W3C//DTD SVG 1.1//EN" "http://www.w3.org/Graphics/SVG/1.1/DTD/svg11.dtd">
<svg width="100%" height="100%" viewBox="0 0 847 245" version="1.1" xmlns="http://www.w3.org/2000/svg" xmlns:xlink="http://www.w3.org/1999/xlink" xml:space="preserve" xmlns:serif="http://www.serif.com/" style="fill-rule:evenodd;clip-rule:evenodd;stroke-linejoin:round;stroke-miterlimit:2;">
    <g transform="matrix(1,0,0,1,-524.442266,-9139.976094)">
        <g transform="matrix(1,0,0,1,4050,4147)">
            <g transform="matrix(4.014804,0,0,4.014804,-3009.145506,5023.412325)">
                <path d="M0,45.787C0.127,45.236 0.254,44.685 0.404,44.144C1.217,41.209 2.188,38.699 3.314,36.603C4.44,34.506 5.792,32.509 7.382,30.613C8.971,28.717 10.411,27.209 11.712,26.082C13.014,24.962 14.447,23.892 16.012,22.878C17.576,21.864 18.678,21.188 19.323,20.863C19.961,20.531 20.612,20.212 21.269,19.899C21.357,19.855 21.425,19.836 21.469,19.836L21.469,6.938L-16.043,6.938C-16.237,6.006 -16.481,5.117 -16.775,4.285C-17.453,2.355 -18.286,0.732 -19.27,-0.59C39.831,-0.085 79.245,11.787 79.245,22.894C79.245,32.744 48.242,43.196 0,45.787M-23.184,46.396C-84.454,46.396 -125.613,34.244 -125.613,22.894C-125.613,14.596 -103.61,5.87 -67.837,1.777L-67.837,34.149L-39.042,34.149C-36.777,34.149 -34.58,33.949 -32.452,33.555C-30.331,33.154 -28.215,32.453 -26.106,31.439C-23.997,30.426 -22.17,29.155 -20.618,27.622C-19.072,26.095 -17.82,24.098 -16.863,21.633C-16.637,21.051 -16.443,20.456 -16.268,19.836L-2.475,19.836C-4.102,21.464 -5.56,23.053 -6.837,24.599C-8.12,26.139 -9.441,27.991 -10.805,30.15C-12.176,32.316 -13.321,34.506 -14.247,36.734C-15.173,38.962 -15.943,41.509 -16.562,44.375C-16.702,45.026 -16.824,45.687 -16.937,46.352C-18.996,46.38 -21.076,46.396 -23.184,46.396M-29.924,13.347C-29.924,15.13 -30.281,16.72 -30.994,18.115C-31.707,19.505 -32.84,20.625 -34.392,21.483C-35.944,22.334 -37.809,22.765 -39.994,22.765L-53.949,22.765L-53.949,3.865L-39.994,3.865C-36.501,3.865 -33.948,4.729 -32.333,6.456C-30.725,8.19 -29.924,10.48 -29.924,13.347M82.259,22.894C82.259,6.373 29.142,-3.529 -22.465,-3.621C-23.418,-4.281 -24.467,-4.862 -25.631,-5.347C-27.777,-6.242 -29.899,-6.836 -32.008,-7.137C-34.117,-7.431 -36.52,-7.581 -39.224,-7.581L-67.837,-7.581L-67.837,-1.145C-101.843,2.769 -128.627,11.162 -128.627,22.894C-128.627,39.492 -75.015,49.41 -23.184,49.41C-21.239,49.41 -19.292,49.394 -17.345,49.366C-17.484,50.677 -17.582,52.009 -17.62,53.368L-1.017,53.368C-0.953,51.808 -0.805,50.281 -0.58,48.787C43.135,46.375 82.259,37.072 82.259,22.894" style="fill:white;fill-rule:nonzero;"/>
            </g>
        </g>
    </g>
</svg>
