<?xml version="1.0" encoding="UTF-8" standalone="no"?>
<!DOCTYPE svg PUBLIC "-//W3C//DTD SVG 1.1//EN" "http://www.w3.org/Graphics/SVG/1.1/DTD/svg11.dtd">
<svg width="100%" height="100%" viewBox="0 0 546 454" version="1.1" xmlns="http://www.w3.org/2000/svg" xmlns:xlink="http://www.w3.org/1999/xlink" xml:space="preserve" xmlns:serif="http://www.serif.com/" style="fill-rule:evenodd;clip-rule:evenodd;stroke-linejoin:round;stroke-miterlimit:2;">
    <g transform="matrix(1,0,0,1,-1098.204936,-8455.762682)">
        <g transform="matrix(1,0,0,1,4050,4147)">
            <g transform="matrix(1.015462,0,0,1.015462,-8203.510049,-591.651456)">
                <g transform="matrix(0.940187,0,0,0.940187,4932.798795,4527.198795)">
                    <g transform="matrix(1,0,0,1,535.4366,490.5549)">
                        <path d="M0,-67.951L29.926,-67.951L29.926,-54.352L17.67,-54.352L17.67,-41.467L28.582,-41.467L28.582,-28.54L17.67,-28.54L17.67,0L0,0L0,-67.951Z" style="fill:white;fill-rule:nonzero;"/>
                    </g>
                    <g transform="matrix(1,0,0,1,607.963,491.5627)">
                        <path d="M0,-56.703L0,-1.007L-17.25,-1.007L-16.957,-5.635C-18.132,-3.756 -19.58,-2.348 -21.301,-1.409C-23.021,-0.47 -25.001,0 -27.24,0C-29.786,0 -31.898,-0.448 -33.577,-1.343C-35.256,-2.238 -36.494,-3.427 -37.292,-4.911C-38.089,-6.393 -38.586,-7.939 -38.781,-9.549C-38.978,-11.157 -39.075,-14.354 -39.075,-19.139L-39.075,-56.703L-22.119,-56.703L-22.119,-18.803C-22.119,-14.466 -21.987,-11.891 -21.72,-11.081C-21.455,-10.269 -20.734,-9.864 -19.559,-9.864C-18.299,-9.864 -17.551,-10.283 -17.313,-11.122C-17.076,-11.962 -16.957,-14.662 -16.957,-19.223L-16.957,-56.703L0,-56.703Z" style="fill:white;fill-rule:nonzero;"/>
                    </g>
                    <g transform="matrix(1,0,0,1,640.4486,490.5557)">
                        <path d="M0,-55.696L0,-43.357L-12.508,-11.165L0,-11.165L0,0L-28.918,0L-28.918,-11.668L-16.148,-44.532L-27.616,-44.532L-27.616,-55.696L0,-55.696Z" style="fill:white;fill-rule:nonzero;"/>
                    </g>
                    <g transform="matrix(1,0,0,1,672.1781,490.5557)">
                        <path d="M0,-55.696L0,-43.357L-12.508,-11.165L0,-11.165L0,0L-28.918,0L-28.918,-11.668L-16.149,-44.532L-27.617,-44.532L-27.617,-55.696L0,-55.696Z" style="fill:white;fill-rule:nonzero;"/>
                    </g>
                    <g transform="matrix(1,0,0,1,465.0093,530.6746)">
                        <path d="M0,-8.772L-17.67,-8.772L-17.67,-20.582C-17.67,-24.016 -17.859,-26.159 -18.237,-27.011C-18.614,-27.862 -19.447,-28.288 -20.734,-28.288C-22.189,-28.288 -23.112,-27.77 -23.504,-26.736C-23.896,-25.7 -24.091,-23.462 -24.091,-20.02L-24.091,11.542C-24.091,14.844 -23.896,16.998 -23.504,18.006C-23.112,19.013 -22.231,19.517 -20.86,19.517C-19.545,19.517 -18.684,19.012 -18.278,18.003C-17.873,16.993 -17.67,14.623 -17.67,10.891L-17.67,2.35L0,2.35L0,4.999C0,12.032 -0.497,17.02 -1.49,19.962C-2.484,22.905 -4.68,25.483 -8.079,27.696C-11.479,29.909 -15.67,31.017 -20.65,31.017C-25.827,31.017 -30.093,30.078 -33.451,28.205C-36.809,26.331 -39.033,23.734 -40.124,20.419C-41.216,17.103 -41.761,12.116 -41.761,5.457L-41.761,-14.396C-41.761,-19.292 -41.593,-22.965 -41.258,-25.414C-40.922,-27.862 -39.922,-30.219 -38.257,-32.486C-36.592,-34.752 -34.284,-36.536 -31.332,-37.837C-28.38,-39.138 -24.987,-39.789 -21.154,-39.789C-15.949,-39.789 -11.654,-38.783 -8.268,-36.771C-4.883,-34.758 -2.658,-32.25 -1.595,-29.247C-0.532,-26.243 0,-21.57 0,-15.227L0,-8.772Z" style="fill:white;fill-rule:nonzero;"/>
                    </g>
                    <g transform="matrix(1,0,0,1,487.7996,560.264)">
                        <path d="M0,-67.951L0,-52.663C1.455,-54.009 3.029,-55.019 4.722,-55.693C6.414,-56.365 8.226,-56.703 10.157,-56.703C13.122,-56.703 15.648,-55.947 17.733,-54.436C19.817,-52.925 21.09,-51.184 21.552,-49.211C22.014,-47.238 22.244,-43.635 22.244,-38.403L22.244,0L5.288,0L5.288,-39.201C5.288,-42.446 5.127,-44.531 4.805,-45.454C4.484,-46.378 3.763,-46.84 2.644,-46.84C1.609,-46.84 0.909,-46.363 0.545,-45.412C0.181,-44.461 0,-42.572 0,-39.746L0,0L-16.957,0L-16.957,-67.951L0,-67.951Z" style="fill:white;fill-rule:nonzero;"/>
                    </g>
                    <g transform="matrix(1,0,0,1,537.2836,544.9039)">
                        <path d="M0,-24.974C0,-27.828 -0.154,-29.625 -0.461,-30.367C-0.77,-31.108 -1.427,-31.479 -2.434,-31.479C-3.441,-31.479 -4.113,-31.108 -4.449,-30.367C-4.784,-29.625 -4.952,-27.828 -4.952,-24.974L-4.952,0.167C-4.952,2.797 -4.784,4.511 -4.449,5.308C-4.113,6.106 -3.456,6.504 -2.476,6.504C-1.469,6.504 -0.805,6.141 -0.482,5.414C-0.161,4.686 0,3.12 0,0.712L0,-24.974ZM16.957,-20.777L16.957,-7.136C16.957,-2.127 16.705,1.546 16.201,3.881C15.697,6.218 14.62,8.401 12.969,10.429C11.318,12.458 9.198,13.955 6.611,14.92C4.022,15.885 1.049,16.368 -2.308,16.368C-6.058,16.368 -9.233,15.955 -11.836,15.13C-14.438,14.304 -16.46,13.059 -17.9,11.394C-19.342,9.73 -20.37,7.715 -20.986,5.35C-21.601,2.986 -21.909,-0.56 -21.909,-5.289L-21.909,-19.559C-21.909,-24.736 -21.35,-28.779 -20.23,-31.689C-19.111,-34.599 -17.097,-36.935 -14.186,-38.698C-11.276,-40.461 -7.555,-41.342 -3.022,-41.342C0.783,-41.342 4.05,-40.776 6.779,-39.643C9.507,-38.509 11.612,-37.033 13.095,-35.215C14.578,-33.396 15.593,-31.521 16.138,-29.591C16.684,-27.66 16.957,-24.722 16.957,-20.777" style="fill:white;fill-rule:nonzero;"/>
                    </g>
                    <g transform="matrix(1,0,0,1,576.7784,559.2577)">
                        <path d="M0,-54.689L-0.672,-47.365C1.79,-52.61 5.358,-55.388 10.031,-55.696L10.031,-36.096C6.925,-36.096 4.644,-35.676 3.19,-34.837C1.735,-33.997 0.839,-32.829 0.504,-31.332C0.168,-29.835 0,-26.386 0,-20.986L0,1.007L-16.957,1.007L-16.957,-54.689L0,-54.689Z" style="fill:white;fill-rule:nonzero;"/>
                    </g>
                    <g transform="matrix(1,0,0,1,629.4099,561.2717)">
                        <path d="M0,-56.703L0,-1.007L-17.25,-1.007L-16.956,-5.635C-18.131,-3.756 -19.579,-2.348 -21.3,-1.409C-23.021,-0.47 -25.001,0 -27.239,0C-29.786,0 -31.898,-0.448 -33.576,-1.343C-35.255,-2.238 -36.494,-3.427 -37.291,-4.911C-38.089,-6.393 -38.585,-7.939 -38.781,-9.549C-38.977,-11.157 -39.075,-14.354 -39.075,-19.139L-39.075,-56.703L-22.119,-56.703L-22.119,-18.803C-22.119,-14.466 -21.986,-11.891 -21.72,-11.08C-21.454,-10.269 -20.734,-9.863 -19.558,-9.863C-18.299,-9.863 -17.551,-10.283 -17.313,-11.122C-17.076,-11.962 -16.956,-14.662 -16.956,-19.223L-16.956,-56.703L0,-56.703Z" style="fill:white;fill-rule:nonzero;"/>
                    </g>
                    <g transform="matrix(1,0,0,1,670.1223,542.4685)">
                        <path d="M0,-20.104L-15.026,-20.104L-15.026,-23.126C-15.026,-25.7 -15.172,-27.33 -15.466,-28.016C-15.76,-28.701 -16.495,-29.044 -17.67,-29.044C-18.622,-29.044 -19.335,-28.729 -19.81,-28.1C-20.287,-27.47 -20.524,-26.525 -20.524,-25.267C-20.524,-23.559 -20.406,-22.308 -20.168,-21.51C-19.93,-20.713 -19.216,-19.838 -18.027,-18.887C-16.837,-17.935 -14.397,-16.55 -10.703,-14.732C-5.779,-12.325 -2.547,-10.059 -1.007,-7.932C0.531,-5.806 1.301,-2.713 1.301,1.343C1.301,5.876 0.713,9.297 -0.462,11.605C-1.637,13.914 -3.603,15.691 -6.359,16.935C-9.115,18.18 -12.438,18.803 -16.327,18.803C-20.636,18.803 -24.322,18.132 -27.386,16.789C-30.451,15.445 -32.556,13.627 -33.703,11.333C-34.85,9.039 -35.423,5.568 -35.423,0.924L-35.423,-1.763L-20.398,-1.763L-20.398,1.763C-20.398,4.757 -20.21,6.701 -19.831,7.596C-19.454,8.492 -18.705,8.94 -17.586,8.94C-16.383,8.94 -15.544,8.639 -15.068,8.037C-14.592,7.436 -14.354,6.169 -14.354,4.24C-14.354,1.582 -14.663,-0.083 -15.278,-0.756C-15.921,-1.427 -19.209,-3.413 -25.141,-6.715C-30.122,-9.513 -33.157,-12.052 -34.248,-14.333C-35.34,-16.613 -35.885,-19.32 -35.885,-22.455C-35.885,-26.903 -35.298,-30.184 -34.122,-32.297C-32.947,-34.409 -30.954,-36.039 -28.142,-37.186C-25.33,-38.333 -22.063,-38.907 -18.341,-38.907C-14.648,-38.907 -11.507,-38.438 -8.919,-37.501C-6.332,-36.563 -4.344,-35.325 -2.959,-33.787C-1.574,-32.247 -0.735,-30.821 -0.441,-29.506C-0.147,-28.19 0,-26.134 0,-23.336L0,-20.104Z" style="fill:white;fill-rule:nonzero;"/>
                    </g>
                    <g transform="matrix(1,0,0,1,365.6635,629.9735)">
                        <path d="M0,-67.951L0,0L-15.446,0L-15.466,-45.875L-21.616,0L-32.57,0L-39.054,-44.825L-39.075,0L-54.521,0L-54.521,-67.951L-31.657,-67.951C-30.979,-63.866 -30.28,-59.051 -29.559,-53.505L-27.05,-36.221L-22.99,-67.951L0,-67.951Z" style="fill:white;fill-rule:nonzero;"/>
                    </g>
                    <g transform="matrix(1,0,0,1,411.0761,630.9808)">
                        <path d="M0,-56.703L0,-1.007L-17.25,-1.007L-16.957,-5.635C-18.132,-3.756 -19.58,-2.348 -21.301,-1.409C-23.021,-0.47 -25.001,0 -27.24,0C-29.786,0 -31.898,-0.448 -33.577,-1.343C-35.256,-2.238 -36.494,-3.427 -37.292,-4.911C-38.089,-6.393 -38.586,-7.939 -38.781,-9.549C-38.978,-11.157 -39.075,-14.354 -39.075,-19.139L-39.075,-56.703L-22.119,-56.703L-22.119,-18.803C-22.119,-14.466 -21.987,-11.891 -21.72,-11.08C-21.455,-10.269 -20.734,-9.863 -19.559,-9.863C-18.299,-9.863 -17.551,-10.283 -17.313,-11.122C-17.076,-11.962 -16.957,-14.662 -16.957,-19.223L-16.957,-56.703L0,-56.703Z" style="fill:white;fill-rule:nonzero;"/>
                    </g>
                    <g transform="matrix(1,0,0,1,451.7885,612.1776)">
                        <path d="M0,-20.104L-15.026,-20.104L-15.026,-23.126C-15.026,-25.7 -15.173,-27.33 -15.467,-28.015C-15.761,-28.701 -16.495,-29.044 -17.67,-29.044C-18.622,-29.044 -19.335,-28.729 -19.811,-28.1C-20.287,-27.47 -20.524,-26.526 -20.524,-25.266C-20.524,-23.56 -20.405,-22.308 -20.168,-21.51C-19.93,-20.713 -19.216,-19.838 -18.027,-18.887C-16.838,-17.936 -14.396,-16.55 -10.703,-14.732C-5.779,-12.325 -2.547,-10.058 -1.007,-7.932C0.531,-5.805 1.301,-2.713 1.301,1.343C1.301,5.876 0.713,9.297 -0.462,11.605C-1.637,13.914 -3.603,15.691 -6.359,16.936C-9.115,18.18 -12.438,18.803 -16.327,18.803C-20.636,18.803 -24.322,18.132 -27.386,16.789C-30.45,15.445 -32.556,13.627 -33.703,11.333C-34.851,9.039 -35.424,5.568 -35.424,0.924L-35.424,-1.763L-20.398,-1.763L-20.398,1.763C-20.398,4.757 -20.209,6.701 -19.831,7.596C-19.454,8.492 -18.706,8.94 -17.586,8.94C-16.383,8.94 -15.544,8.639 -15.068,8.037C-14.592,7.436 -14.354,6.17 -14.354,4.239C-14.354,1.582 -14.663,-0.083 -15.278,-0.756C-15.922,-1.427 -19.209,-3.413 -25.141,-6.716C-30.122,-9.513 -33.157,-12.053 -34.249,-14.333C-35.34,-16.614 -35.885,-19.32 -35.885,-22.455C-35.885,-26.903 -35.298,-30.183 -34.123,-32.297C-32.948,-34.409 -30.954,-36.039 -28.142,-37.186C-25.33,-38.334 -22.063,-38.907 -18.342,-38.907C-14.648,-38.907 -11.507,-38.438 -8.919,-37.501C-6.331,-36.563 -4.344,-35.325 -2.959,-33.787C-1.574,-32.248 -0.735,-30.82 -0.441,-29.506C-0.147,-28.19 0,-26.133 0,-23.336L0,-20.104Z" style="fill:white;fill-rule:nonzero;"/>
                    </g>
                    <g transform="matrix(1,0,0,1,0,111.996)">
                        <path d="M475.082,517.977L457.622,517.977L457.622,462.281L475.082,462.281L475.082,517.977ZM475.082,458.882L457.622,458.882L457.622,450.027L475.082,450.027L475.082,458.882Z" style="fill:white;fill-rule:nonzero;"/>
                    </g>
                    <g transform="matrix(1,0,0,1,518.6481,608.9457)">
                        <path d="M0,-13.64L-15.991,-13.64L-15.991,-20.062C-15.991,-22.3 -16.173,-23.818 -16.536,-24.616C-16.9,-25.413 -17.572,-25.812 -18.551,-25.812C-19.531,-25.812 -20.188,-25.462 -20.524,-24.763C-20.859,-24.063 -21.027,-22.496 -21.027,-20.062L-21.027,6.212C-21.027,8.199 -20.776,9.689 -20.272,10.681C-19.769,11.675 -19.027,12.172 -18.047,12.172C-16.9,12.172 -16.124,11.654 -15.718,10.619C-15.313,9.584 -15.11,7.625 -15.11,4.743L-15.11,-1.889L0,-1.889C-0.028,2.561 -0.189,5.898 -0.483,8.121C-0.776,10.346 -1.714,12.627 -3.295,14.963C-4.876,17.299 -6.94,19.062 -9.486,20.251C-12.032,21.441 -15.18,22.035 -18.929,22.035C-23.714,22.035 -27.506,21.217 -30.303,19.58C-33.101,17.943 -35.081,15.649 -36.242,12.697C-37.403,9.745 -37.984,5.555 -37.984,0.126L-37.984,-15.697C-37.984,-20.425 -37.509,-23.993 -36.557,-26.399C-35.606,-28.806 -33.577,-30.954 -30.471,-32.842C-27.365,-34.731 -23.588,-35.675 -19.139,-35.675C-14.718,-35.675 -10.941,-34.738 -7.807,-32.864C-4.673,-30.988 -2.588,-28.624 -1.553,-25.77C-0.518,-22.916 0,-18.872 0,-13.64" style="fill:white;fill-rule:nonzero;"/>
                    </g>
                    <g transform="matrix(1,0,0,1,0,111.996)">
                        <path d="M541.145,517.977L523.685,517.977L523.685,462.281L541.145,462.281L541.145,517.977ZM541.145,458.882L523.685,458.882L523.685,450.027L541.145,450.027L541.145,458.882Z" style="fill:white;fill-rule:nonzero;"/>
                    </g>
                    <g transform="matrix(1,0,0,1,567.7547,600.7616)">
                        <path d="M0,2.728C-2.715,4.715 -4.288,6.38 -4.722,7.722C-5.156,9.065 -5.372,10.996 -5.372,13.514C-5.372,16.397 -5.184,18.258 -4.806,19.097C-4.428,19.936 -3.68,20.356 -2.56,20.356C-1.497,20.356 -0.805,20.027 -0.483,19.37C-0.161,18.713 0,16.984 0,14.186L0,2.728ZM-5.372,-4.911L-21.279,-4.911L-21.279,-8.646C-21.279,-12.954 -20.783,-16.278 -19.79,-18.615C-18.797,-20.95 -16.803,-23.015 -13.809,-24.805C-10.815,-26.595 -6.926,-27.491 -2.141,-27.491C3.595,-27.491 7.918,-26.477 10.828,-24.448C13.738,-22.419 15.487,-19.929 16.075,-16.978C16.662,-14.025 16.956,-7.947 16.956,1.259L16.956,29.212L0.461,29.212L0.461,24.248C-0.574,26.239 -1.91,27.732 -3.547,28.727C-5.184,29.722 -7.135,30.219 -9.401,30.219C-12.368,30.219 -15.089,29.387 -17.565,27.722C-20.041,26.057 -21.279,22.413 -21.279,16.788L-21.279,12.213C-21.279,8.045 -20.623,5.204 -19.307,3.693C-17.992,2.183 -14.732,0.42 -9.528,-1.595C-3.96,-3.777 -0.98,-5.247 -0.588,-6.002C-0.196,-6.757 0,-8.296 0,-10.619C0,-13.529 -0.217,-15.425 -0.651,-16.305C-1.085,-17.187 -1.805,-17.628 -2.813,-17.628C-3.96,-17.628 -4.673,-17.257 -4.953,-16.516C-5.233,-15.774 -5.372,-13.85 -5.372,-10.745L-5.372,-4.911Z" style="fill:white;fill-rule:nonzero;"/>
                    </g>
                    <g transform="matrix(1,0,0,1,607.7949,628.9668)">
                        <path d="M0,-54.689L-0.294,-49.559C0.937,-51.604 2.441,-53.139 4.218,-54.162C5.995,-55.184 8.044,-55.696 10.367,-55.696C13.277,-55.696 15.655,-55.011 17.502,-53.639C19.348,-52.268 20.537,-50.541 21.069,-48.456C21.601,-46.372 21.867,-42.896 21.867,-38.026L21.867,1.007L4.911,1.007L4.911,-37.564C4.911,-41.398 4.785,-43.735 4.533,-44.574C4.281,-45.413 3.581,-45.833 2.434,-45.833C1.231,-45.833 0.475,-45.351 0.168,-44.385C-0.14,-43.42 -0.294,-40.839 -0.294,-36.642L-0.294,1.007L-17.25,1.007L-17.25,-54.689L0,-54.689Z" style="fill:white;fill-rule:nonzero;"/>
                    </g>
                    <g transform="matrix(1,0,0,1,670.1223,612.1776)">
                        <path d="M0,-20.104L-15.026,-20.104L-15.026,-23.126C-15.026,-25.7 -15.172,-27.33 -15.466,-28.015C-15.76,-28.701 -16.495,-29.044 -17.67,-29.044C-18.622,-29.044 -19.335,-28.729 -19.81,-28.1C-20.287,-27.47 -20.524,-26.526 -20.524,-25.266C-20.524,-23.56 -20.406,-22.308 -20.168,-21.51C-19.93,-20.713 -19.216,-19.838 -18.027,-18.887C-16.837,-17.936 -14.397,-16.55 -10.703,-14.732C-5.779,-12.325 -2.547,-10.058 -1.007,-7.932C0.531,-5.805 1.301,-2.713 1.301,1.343C1.301,5.876 0.713,9.297 -0.462,11.605C-1.637,13.914 -3.603,15.691 -6.359,16.936C-9.115,18.18 -12.438,18.803 -16.327,18.803C-20.636,18.803 -24.322,18.132 -27.386,16.789C-30.451,15.445 -32.556,13.627 -33.703,11.333C-34.85,9.039 -35.423,5.568 -35.423,0.924L-35.423,-1.763L-20.398,-1.763L-20.398,1.763C-20.398,4.757 -20.21,6.701 -19.831,7.596C-19.454,8.492 -18.705,8.94 -17.586,8.94C-16.383,8.94 -15.544,8.639 -15.068,8.037C-14.592,7.436 -14.354,6.17 -14.354,4.239C-14.354,1.582 -14.663,-0.083 -15.278,-0.756C-15.921,-1.427 -19.209,-3.413 -25.141,-6.716C-30.122,-9.513 -33.157,-12.053 -34.248,-14.333C-35.34,-16.614 -35.885,-19.32 -35.885,-22.455C-35.885,-26.903 -35.298,-30.183 -34.122,-32.297C-32.947,-34.409 -30.954,-36.039 -28.142,-37.186C-25.33,-38.334 -22.063,-38.907 -18.341,-38.907C-14.648,-38.907 -11.507,-38.438 -8.919,-37.501C-6.332,-36.563 -4.344,-35.325 -2.959,-33.787C-1.574,-32.248 -0.735,-30.82 -0.441,-29.506C-0.147,-28.19 0,-26.133 0,-23.336L0,-20.104Z" style="fill:white;fill-rule:nonzero;"/>
                    </g>
                    <g transform="matrix(1,0,0,1,449.06,679.1157)">
                        <path d="M0,-26.82L-16.411,-26.82L-16.411,-31.856C-16.411,-34.207 -16.62,-35.703 -17.041,-36.347C-17.46,-36.991 -18.16,-37.312 -19.139,-37.312C-20.203,-37.312 -21.007,-36.878 -21.552,-36.01C-22.098,-35.141 -22.371,-33.826 -22.371,-32.062C-22.371,-29.794 -22.064,-28.086 -21.451,-26.938C-20.865,-25.79 -19.201,-24.405 -16.457,-22.784C-8.592,-18.116 -3.638,-14.284 -1.595,-11.29C0.447,-8.295 1.469,-3.469 1.469,3.19C1.469,8.031 0.902,11.598 -0.231,13.892C-1.364,16.187 -3.554,18.111 -6.799,19.663C-10.046,21.217 -13.823,21.993 -18.132,21.993C-22.86,21.993 -26.897,21.097 -30.24,19.307C-33.584,17.516 -35.774,15.236 -36.809,12.465C-37.844,9.695 -38.362,5.764 -38.362,0.671L-38.362,-3.778L-21.951,-3.778L-21.951,4.491C-21.951,7.037 -21.72,8.675 -21.258,9.401C-20.797,10.129 -19.978,10.493 -18.803,10.493C-17.628,10.493 -16.754,10.031 -16.18,9.108C-15.607,8.185 -15.319,6.814 -15.319,4.995C-15.319,0.994 -15.865,-1.623 -16.957,-2.854C-18.076,-4.085 -20.832,-6.142 -25.225,-9.024C-29.618,-11.934 -32.528,-14.046 -33.955,-15.362C-35.382,-16.676 -36.564,-18.495 -37.501,-20.818C-38.439,-23.139 -38.907,-26.106 -38.907,-29.716C-38.907,-34.92 -38.243,-38.725 -36.914,-41.132C-35.585,-43.537 -33.437,-45.419 -30.471,-46.777C-27.505,-48.134 -23.924,-48.813 -19.727,-48.813C-15.138,-48.813 -11.227,-48.071 -7.996,-46.588C-4.764,-45.105 -2.623,-43.237 -1.574,-40.985C-0.525,-38.733 0,-34.906 0,-29.506L0,-26.82Z" style="fill:white;fill-rule:nonzero;"/>
                    </g>
                    <g transform="matrix(1,0,0,1,476.9707,684.3195)">
                        <path d="M0,-24.972C0,-27.827 -0.154,-29.624 -0.461,-30.366C-0.77,-31.107 -1.427,-31.477 -2.434,-31.477C-3.441,-31.477 -4.113,-31.107 -4.449,-30.366C-4.784,-29.624 -4.952,-27.827 -4.952,-24.972L-4.952,0.168C-4.952,2.799 -4.784,4.512 -4.449,5.309C-4.113,6.107 -3.456,6.506 -2.476,6.506C-1.469,6.506 -0.805,6.143 -0.483,5.415C-0.161,4.687 0,3.121 0,0.714L0,-24.972ZM16.957,-20.775L16.957,-7.135C16.957,-2.126 16.705,1.547 16.201,3.883C15.697,6.22 14.62,8.402 12.969,10.43C11.318,12.459 9.198,13.956 6.611,14.921C4.022,15.886 1.049,16.369 -2.308,16.369C-6.058,16.369 -9.233,15.956 -11.836,15.132C-14.438,14.306 -16.46,13.06 -17.9,11.395C-19.342,9.731 -20.37,7.717 -20.986,5.352C-21.601,2.988 -21.909,-0.558 -21.909,-5.287L-21.909,-19.558C-21.909,-24.734 -21.35,-28.777 -20.23,-31.688C-19.111,-34.597 -17.097,-36.934 -14.186,-38.696C-11.276,-40.459 -7.555,-41.341 -3.022,-41.341C0.783,-41.341 4.05,-40.774 6.779,-39.641C9.507,-38.508 11.612,-37.031 13.095,-35.214C14.578,-33.394 15.593,-31.52 16.138,-29.589C16.684,-27.659 16.957,-24.72 16.957,-20.775" style="fill:white;fill-rule:nonzero;"/>
                    </g>
                    <g transform="matrix(1,0,0,1,536.9893,678.6538)">
                        <path d="M0,-13.64L-15.991,-13.64L-15.991,-20.062C-15.991,-22.3 -16.173,-23.818 -16.536,-24.616C-16.9,-25.413 -17.572,-25.812 -18.551,-25.812C-19.531,-25.812 -20.188,-25.462 -20.524,-24.763C-20.859,-24.063 -21.027,-22.496 -21.027,-20.062L-21.027,6.212C-21.027,8.199 -20.776,9.689 -20.272,10.681C-19.768,11.675 -19.027,12.172 -18.047,12.172C-16.9,12.172 -16.124,11.654 -15.718,10.619C-15.313,9.584 -15.11,7.625 -15.11,4.743L-15.11,-1.889L0,-1.889C-0.028,2.561 -0.189,5.898 -0.482,8.121C-0.776,10.346 -1.714,12.627 -3.294,14.963C-4.876,17.299 -6.94,19.062 -9.486,20.251C-12.032,21.441 -15.18,22.035 -18.929,22.035C-23.714,22.035 -27.505,21.217 -30.303,19.58C-33.101,17.943 -35.081,15.649 -36.242,12.697C-37.403,9.745 -37.984,5.555 -37.984,0.126L-37.984,-15.697C-37.984,-20.425 -37.509,-23.993 -36.557,-26.399C-35.606,-28.806 -33.577,-30.954 -30.471,-32.842C-27.365,-34.731 -23.588,-35.675 -19.139,-35.675C-14.718,-35.675 -10.941,-34.738 -7.807,-32.864C-4.673,-30.988 -2.588,-28.624 -1.553,-25.77C-0.518,-22.916 0,-18.872 0,-13.64" style="fill:white;fill-rule:nonzero;"/>
                    </g>
                    <g transform="matrix(1,0,0,1,0,251.413)">
                        <path d="M559.486,448.269L542.026,448.269L542.026,392.573L559.486,392.573L559.486,448.269ZM559.486,389.173L542.026,389.173L542.026,380.318L559.486,380.318L559.486,389.173Z" style="fill:white;fill-rule:nonzero;"/>
                    </g>
                    <g transform="matrix(1,0,0,1,586.9769,679.914)">
                        <path d="M0,-16.16L0,-20.231C0,-23.113 -0.154,-24.974 -0.461,-25.813C-0.77,-26.652 -1.4,-27.072 -2.35,-27.072C-3.525,-27.072 -4.253,-26.716 -4.533,-26.002C-4.813,-25.289 -4.952,-23.365 -4.952,-20.231L-4.952,-16.16L0,-16.16ZM16.998,-7.094L-4.952,-7.094L-4.952,4.951C-4.952,7.47 -4.771,9.093 -4.407,9.821C-4.044,10.549 -3.344,10.911 -2.308,10.911C-1.022,10.911 -0.161,10.429 0.273,9.463C0.707,8.498 0.924,6.631 0.924,3.861L0.924,-3.484L16.998,-3.484L16.998,0.628C16.998,4.07 16.781,6.714 16.348,8.561C15.914,10.408 14.9,12.381 13.305,14.48C11.71,16.578 9.688,18.152 7.24,19.201C4.792,20.251 1.721,20.775 -1.972,20.775C-5.554,20.775 -8.716,20.256 -11.458,19.222C-14.201,18.187 -16.334,16.767 -17.859,14.962C-19.384,13.157 -20.44,11.171 -21.027,9.002C-21.615,6.834 -21.909,3.679 -21.909,-0.462L-21.909,-16.705C-21.909,-21.574 -21.252,-25.415 -19.936,-28.226C-18.621,-31.039 -16.467,-33.192 -13.472,-34.69C-10.479,-36.186 -7.037,-36.935 -3.148,-36.935C1.609,-36.935 5.533,-36.033 8.625,-34.228C11.717,-32.423 13.885,-30.031 15.131,-27.051C16.376,-24.071 16.998,-19.881 16.998,-14.481L16.998,-7.094Z" style="fill:white;fill-rule:nonzero;"/>
                    </g>
                    <g transform="matrix(1,0,0,1,627.3954,699.6817)">
                        <path d="M0,-63.125L0,-54.352L4.575,-54.352L4.575,-45.539L0,-45.539L0,-15.739C0,-12.073 0.188,-10.032 0.567,-9.612C0.944,-9.191 2.518,-8.982 5.288,-8.982L5.288,0L-1.554,0C-5.414,0 -8.171,-0.16 -9.822,-0.483C-11.472,-0.804 -12.927,-1.546 -14.187,-2.707C-15.445,-3.868 -16.229,-5.198 -16.536,-6.695C-16.845,-8.191 -16.998,-11.71 -16.998,-17.25L-16.998,-45.539L-20.65,-45.539L-20.65,-54.352L-16.998,-54.352L-16.998,-63.125L0,-63.125Z" style="fill:white;fill-rule:nonzero;"/>
                    </g>
                    <g transform="matrix(1,0,0,1,672.9233,707.4879)">
                        <path d="M0,-63.502L-4.845,-23.208C-5.612,-16.83 -6.254,-12.479 -6.771,-10.157C-7.289,-7.834 -8.149,-5.918 -9.353,-4.406C-10.556,-2.896 -12.227,-1.784 -14.368,-1.07C-16.508,-0.356 -19.928,0 -24.628,0L-34.91,0L-34.91,-8.897C-32.275,-8.897 -30.579,-9.03 -29.823,-9.297C-29.066,-9.562 -28.688,-10.157 -28.688,-11.08C-28.688,-11.527 -29.038,-13.473 -29.738,-16.914L-39.023,-63.502L-23.63,-63.502L-18.058,-25.896L-15.341,-63.502L0,-63.502Z" style="fill:white;fill-rule:nonzero;"/>
                    </g>
                    <g transform="matrix(1,0,0,1,711.6246,383.8833)">
                        <path d="M0,55.579C32.779,56.545 76.867,31.441 99.983,-0.966L-23.882,-0.966C-41.42,29.877 -31.565,54.649 0,55.579" style="fill:white;fill-rule:nonzero;"/>
                    </g>
                    <g transform="matrix(1,0,0,1,793.3455,373.2035)">
                        <path d="M0,-55.579C-32.779,-56.545 -76.867,-31.441 -99.983,0.966L23.882,0.966C41.42,-29.877 31.565,-54.649 0,-55.579" style="fill:white;fill-rule:nonzero;"/>
                    </g>
                    <g transform="matrix(1,0,0,1,793.3455,480.8413)">
                        <path d="M0,-55.579C-32.779,-56.545 -76.866,-31.441 -99.983,0.966L23.882,0.966C41.42,-29.877 31.565,-54.649 0,-55.579" style="fill:white;fill-rule:nonzero;"/>
                    </g>
                    <g transform="matrix(1,0,0,1,711.6246,491.521)">
                        <path d="M0,55.579C32.779,56.545 76.867,31.441 99.983,-0.966L-23.882,-0.966C-41.42,29.876 -31.565,54.649 0,55.579" style="fill:white;fill-rule:nonzero;"/>
                    </g>
                    <g transform="matrix(1,0,0,1,793.3455,588.479)">
                        <path d="M0,-55.579C-32.779,-56.545 -76.866,-31.441 -99.983,0.966L23.882,0.966C41.42,-29.877 31.565,-54.649 0,-55.579" style="fill:white;fill-rule:nonzero;"/>
                    </g>
                    <g transform="matrix(1,0,0,1,711.6246,599.1588)">
                        <path d="M0,55.579C32.779,56.545 76.867,31.441 99.983,-0.966L-23.882,-0.966C-41.42,29.876 -31.565,54.649 0,55.579" style="fill:white;fill-rule:nonzero;"/>
                    </g>
                    <g transform="matrix(1,0,0,1,793.3455,696.1167)">
                        <path d="M0,-55.579C-32.779,-56.545 -76.866,-31.441 -99.983,0.966L23.882,0.966C41.42,-29.877 31.565,-54.649 0,-55.579" style="fill:white;fill-rule:nonzero;"/>
                    </g>
                    <g transform="matrix(1,0,0,1,711.6246,706.7965)">
                        <path d="M0,55.579C32.779,56.545 76.867,31.441 99.983,-0.966L-23.882,-0.966C-41.42,29.876 -31.565,54.649 0,55.579" style="fill:white;fill-rule:nonzero;"/>
                    </g>
                    <g transform="matrix(1,0,0,1,368.3754,696.1162)">
                        <path d="M0,-55.579C-32.779,-56.545 -76.867,-31.44 -99.983,0.966L23.882,0.966C41.42,-29.876 31.565,-54.649 0,-55.579" style="fill:white;fill-rule:nonzero;"/>
                    </g>
                    <g transform="matrix(1,0,0,1,286.6545,706.797)">
                        <path d="M0,55.578C32.779,56.544 76.866,31.44 99.983,-0.966L-23.882,-0.966C-41.42,29.876 -31.565,54.648 0,55.578" style="fill:white;fill-rule:nonzero;"/>
                    </g>
                    <g transform="matrix(1,0,0,1,420.0156,731.8575)">
                        <path d="M0,1.945L0,-1.022L8.509,-1.022L8.509,-6.728L1.715,-6.728L1.715,-9.629L8.509,-9.629L8.509,-14.115L11.708,-14.115L11.708,-9.629L20.249,-9.629L20.249,-6.728L11.708,-6.728L11.708,-1.022L21.436,-1.022L21.436,1.945L11.345,1.945C10.003,5.485 8.531,8.553 6.926,11.147C7.563,11.081 8.091,11.036 8.509,11.015C11.696,10.751 14.159,10.432 15.896,10.058L14.544,7.684L12.895,4.947L15.632,3.826C17.391,6.2 19.271,9.421 21.272,13.488C21.403,13.773 21.579,14.125 21.799,14.544L18.633,16.06L17.94,14.478C17.677,13.817 17.413,13.267 17.149,12.828C12.642,13.664 7.002,14.302 0.231,14.741L-0.56,11.278L1.583,11.311L2.935,11.245C4.936,8.123 6.574,5.024 7.85,1.945L0,1.945ZM-1.286,-7.386L-4.188,-9.432C-4.936,-9.937 -5.892,-10.532 -7.057,-11.213L-5.144,-13.818L-2.242,-12.269C-1.781,-12.025 -1.011,-11.552 0.067,-10.849C0.22,-10.739 0.44,-10.598 0.726,-10.421L-1.286,-7.386ZM0.1,5.342C-0.275,6.156 -0.571,6.816 -0.791,7.321C-2.484,10.97 -4.177,13.872 -5.869,16.027L-8.377,13.324C-6.662,11.191 -4.991,8.41 -3.363,4.98C-3.143,4.496 -2.847,3.88 -2.473,3.132L0.1,5.342ZM-2.835,1.385L-5.738,-0.627C-6.09,-0.869 -6.705,-1.253 -7.584,-1.781C-7.827,-1.913 -8.157,-2.111 -8.574,-2.374L-6.629,-4.913L-3.825,-3.462C-3.078,-3.044 -2.099,-2.419 -0.89,-1.584L-2.835,1.385Z" style="fill:white;fill-rule:nonzero;"/>
                    </g>
                    <g transform="matrix(1,0,0,1,482.0465,742.9685)">
                        <path d="M0,-20.38L-0.891,-22.294C-1.111,-22.754 -1.485,-23.38 -2.012,-24.172L1.022,-25.195C1.901,-23.765 2.583,-22.294 3.067,-20.775C3.11,-20.665 3.166,-20.533 3.232,-20.38L7.321,-20.38C7.87,-21.478 8.377,-22.875 8.837,-24.567C8.882,-24.767 8.948,-25.019 9.036,-25.327L12.268,-24.469L11.542,-22.359C11.322,-21.765 11.103,-21.215 10.883,-20.709L10.718,-20.38L16.819,-20.38L16.819,-17.545L-5.837,-17.545L-5.837,-20.38L0,-20.38ZM5.376,3.332L5.573,4.322L2.539,4.914L2.342,3.661L2.143,2.474C1.154,2.716 -0.275,2.947 -2.144,3.167L-7.123,3.727L-7.618,0.76L-6.464,0.793L-5.507,0.727C-4.408,-0.637 -3.518,-1.857 -2.836,-2.934L-0.792,-6.199L-3.331,-5.936L-5.739,-5.705L-6.398,-8.508L-5.441,-8.508L-5.046,-9.3C-3.595,-12.048 -2.506,-14.74 -1.781,-17.378L1.22,-16.719C0.604,-14.63 -0.441,-12.147 -1.913,-9.267L-2.243,-8.606L-0.659,-8.705L0.428,-8.837C0.824,-9.519 1.154,-10.222 1.418,-10.948L2.176,-12.993L5.21,-11.971C3.232,-7.485 0.802,-3.298 -2.078,0.595C-1.792,0.572 -1.358,0.551 -0.776,0.529C-0.193,0.506 0.615,0.353 1.648,0.067C1.582,-0.284 1.494,-0.648 1.385,-1.022L0.923,-2.374L3.693,-2.934C3.935,-2.451 4.155,-1.812 4.353,-1.022L4.782,0.694L5.441,0.661C5.793,0.221 6.079,-0.131 6.298,-0.394C7.75,-2.153 9.069,-4.001 10.256,-5.936L7.123,-5.639L4.583,-5.473L4.122,-8.31L5.144,-8.31C6.771,-10.685 8.112,-13.696 9.168,-17.345L12.235,-16.555C12.015,-16.005 11.839,-15.554 11.707,-15.203C10.805,-12.96 9.728,-10.694 8.475,-8.409L10.157,-8.475L11.542,-8.573C11.674,-8.837 11.784,-9.046 11.872,-9.201C12.202,-9.838 12.411,-10.266 12.499,-10.487L13.488,-12.894L16.357,-11.674C13.851,-6.133 11.366,-2.054 8.904,0.562C9.893,0.495 10.651,0.429 11.179,0.363L12.927,0.099L12.664,-0.956C12.553,-1.438 12.444,-1.802 12.333,-2.045L12.235,-2.242L15.005,-2.868C15.686,-1.198 16.236,0.814 16.653,3.167C16.72,3.475 16.797,3.87 16.885,4.355L13.884,4.947L13.686,3.76L13.488,2.54L9.728,2.97L5.376,3.332ZM-7.321,-19.028C-7.651,-19.27 -7.915,-19.468 -8.113,-19.621C-9.982,-21.006 -11.509,-21.995 -12.697,-22.59L-10.85,-25.129L-7.981,-23.514C-7.321,-23.182 -6.464,-22.656 -5.408,-21.929L-7.321,-19.028ZM-7.783,-10.717C-8.992,-11.641 -10.521,-12.662 -12.367,-13.783C-12.609,-13.917 -12.928,-14.115 -13.323,-14.378L-11.509,-16.851C-9.728,-16.014 -7.882,-14.928 -5.969,-13.586L-7.783,-10.717ZM-6.497,-6.1C-6.651,-5.661 -6.772,-5.298 -6.86,-5.012C-8.201,-0.989 -9.564,2.309 -10.95,4.881L-13.522,2.474C-12.004,-0.011 -10.598,-3.439 -9.3,-7.814L-6.497,-6.1Z" style="fill:white;fill-rule:nonzero;"/>
                    </g>
                    <g transform="matrix(1,0,0,1,0,385.525)">
                        <path d="M552.384,336.998L545.92,336.998L545.92,355.829L552.384,355.829L552.384,336.998ZM542.919,361.568L542.919,334.162L555.385,334.162L555.385,361.171L552.384,361.171L552.384,358.566L545.92,358.566L545.92,361.568L542.919,361.568ZM536.159,340.724L541.633,340.724L541.633,343.461L536.159,343.461L536.159,344.154L539.193,346.891L541.995,349.531L540.248,352.465L538.17,349.992C537.686,349.441 537.016,348.771 536.159,347.979L536.159,362.391L533.191,362.391L533.191,348.804C531.629,351.684 529.695,354.223 527.386,356.422L525.638,353.422C528.716,350.784 531.168,347.464 532.992,343.461L526.166,343.461L526.166,340.724L533.191,340.724L533.191,336.504C532.333,336.657 531.53,336.767 530.784,336.833L527.75,337.064L527.057,334.36C532.663,334.007 536.961,333.25 539.951,332.084L541.204,334.623C539.82,335.218 538.137,335.712 536.159,336.107L536.159,340.724Z" style="fill:white;fill-rule:nonzero;"/>
                    </g>
                    <g transform="matrix(1,0,0,1,608.6756,744.3889)">
                        <path d="M0,-23.282C0,-22.732 0.274,-22.457 0.824,-22.457L3.264,-22.457L3.264,-20.447L-0.33,-20.447C-1.825,-20.447 -2.573,-21.138 -2.573,-22.523L-2.573,-23.844L-6.695,-23.844C-6.695,-22.567 -6.926,-21.622 -7.388,-21.006C-7.85,-20.39 -8.608,-19.852 -9.664,-19.391L-11.18,-21.105C-10.389,-21.436 -9.834,-21.814 -9.514,-22.244C-9.197,-22.672 -9.037,-23.59 -9.037,-24.998L-9.037,-25.722C-9.037,-25.788 -9.048,-25.875 -9.07,-25.986L0,-25.986L0,-23.282ZM-14.016,-16.951L-16.852,-16.951L-16.852,-15.005L-14.016,-15.005L-14.016,-16.951ZM-11.081,-0.724C-8.443,-0.724 -6.102,-0.79 -4.057,-0.922L-4.057,-2.309L-18.172,-2.309L-18.172,-0.659L-11.081,-0.724ZM-18.172,-4.154L-4.057,-4.154L-4.057,-5.605L-18.172,-5.605L-18.172,-4.154ZM-4.057,-8.805L-18.172,-8.805L-18.172,-7.42L-4.057,-7.42L-4.057,-8.805ZM-19.359,-16.951L-22.03,-16.951L-22.03,-15.005L-19.359,-15.005L-19.359,-16.951ZM-16.621,-26.811L-16.621,-25.294L-10.685,-25.294L-10.685,-23.315L-16.621,-23.315L-16.621,-21.963L-11.576,-21.963L-11.576,-20.082L-25.064,-20.082L-25.064,-21.963L-19.293,-21.963L-19.293,-23.315L-26.119,-23.315L-26.119,-25.294L-19.293,-25.294L-19.293,-26.811L-16.621,-26.811ZM-11.378,-13.488C-11.093,-13.509 -10.559,-13.542 -9.779,-13.587C-8.998,-13.631 -8.047,-13.817 -6.926,-14.146L-8.41,-15.103C-8.871,-15.39 -9.29,-15.686 -9.664,-15.994C-9.729,-16.06 -9.828,-16.147 -9.96,-16.257L-8.179,-17.445C-7.454,-16.873 -6.761,-16.422 -6.102,-16.093L-4.288,-15.202C-3.321,-15.686 -2.474,-16.344 -1.748,-17.181C-1.704,-17.247 -1.628,-17.334 -1.517,-17.445L-10.95,-17.445L-10.95,-19.391L1.945,-19.391L1.945,-17.875C0.999,-16.466 -0.176,-15.268 -1.583,-14.28C-1.254,-14.214 -0.99,-14.158 -0.792,-14.113C0.527,-13.829 1.78,-13.641 2.967,-13.554C3.166,-13.554 3.418,-13.532 3.726,-13.488L2.77,-11.245C-0.067,-11.574 -2.374,-12.08 -4.155,-12.761C-5.673,-12.103 -7.443,-11.663 -9.465,-11.442C-9.773,-11.421 -10.18,-11.377 -10.685,-11.311L-11.51,-13.126L-22.161,-13.126L-22.36,-12.07C-22.405,-11.762 -22.459,-11.508 -22.525,-11.311C-22.525,-11.266 -22.558,-11.2 -22.623,-11.113L2.967,-11.113L2.967,-8.805L-1.088,-8.805L-1.088,-0.99L0.857,-1.056L3.561,-1.154L3.561,1.121L1.286,1.22L-1.088,1.319L-1.088,3.529L-4.057,3.529L-4.057,1.385C-8.674,1.54 -11.993,1.617 -14.016,1.617L-25.856,1.749L-26.284,-0.691L-23.646,-0.659L-21.14,-0.659L-21.14,-8.805L-23.679,-8.805L-23.909,-8.475L-24.437,-7.848L-26.581,-9.498C-25.306,-11.191 -24.669,-13.488 -24.669,-16.389L-24.669,-18.829L-11.378,-18.829L-11.378,-13.488Z" style="fill:white;fill-rule:nonzero;"/>
                    </g>
                    <g transform="matrix(1,0,0,1,651.0832,718.6992)">
                        <path d="M0,28.13L0,25.097L8.278,25.097L8.278,9.926L2.045,9.926L2.045,6.893L8.278,6.893L8.278,-0.693L11.476,-0.693L11.476,6.893L17.842,6.893L17.842,9.926L11.476,9.926L11.476,25.097L18.402,25.097L18.402,28.13L0,28.13ZM-6.068,3.891L-6.959,1.714L-8.046,-0.627L-5.045,-1.088C-4.672,-0.406 -4.32,0.419 -3.991,1.385L-3.1,3.891L1.187,3.891L1.187,6.762C0.99,7.135 0.824,7.443 0.692,7.683C-0.078,9.179 -0.935,10.575 -1.88,11.873C-2.077,12.136 -2.331,12.477 -2.638,12.895C-2.265,13.203 -1.968,13.445 -1.748,13.62C-0.253,14.851 1.033,15.961 2.111,16.951C2.33,17.172 2.627,17.445 3.001,17.776L1.088,20.118L0.758,19.786C0.165,19.194 -0.429,18.632 -1.023,18.105L-3.264,16.126L-3.264,29.218L-6.398,29.218L-6.398,17.247L-6.992,17.842C-7.98,18.787 -8.982,19.622 -9.993,20.348C-10.19,20.48 -10.454,20.668 -10.784,20.908L-11.971,17.842C-10.036,16.434 -8.393,15.022 -7.041,13.604C-5.688,12.186 -4.067,9.926 -2.177,6.827L-11.707,6.827L-11.707,3.891L-6.068,3.891Z" style="fill:white;fill-rule:nonzero;"/>
                    </g>
                </g>
                <g transform="matrix(0.947537,0,0,0.5,271.328066,2645.451303)">
                    <g transform="matrix(-0.560616,0,0,0.560616,5285.398849,4941.267679)">
                        <rect x="34.077" y="523.772" width="168.641" height="32.455" style="fill:rgb(43,84,165);"/>
                    </g>
                    <g transform="matrix(-0.560616,0,0,0.560616,5474.48451,4941.267679)">
                        <rect x="202.718" y="523.772" width="168.641" height="32.455" style="fill:rgb(144,202,238);"/>
                    </g>
                    <g transform="matrix(-0.560616,0,0,0.560616,5663.570172,4941.267679)">
                        <rect x="371.359" y="523.772" width="168.641" height="32.455" style="fill:rgb(249,220,22);"/>
                    </g>
                    <g transform="matrix(-0.560616,0,0,0.560616,5852.655834,4941.267679)">
                        <rect x="540" y="523.772" width="168.641" height="32.455" style="fill:rgb(230,30,37);"/>
                    </g>
                    <g transform="matrix(-0.560616,0,0,0.560616,6041.741496,4941.267679)">
                        <rect x="708.641" y="523.772" width="168.641" height="32.455" style="fill:rgb(10,130,64);"/>
                    </g>
                    <g transform="matrix(-0.560616,0,0,0.560616,6230.826036,4941.267679)">
                        <rect x="877.281" y="523.772" width="168.641" height="32.455" style="fill:rgb(244,153,190);"/>
                    </g>
                </g>
            </g>
        </g>
    </g>
</svg>
