<?xml version="1.0" encoding="UTF-8" standalone="no"?>
<!DOCTYPE svg PUBLIC "-//W3C//DTD SVG 1.1//EN" "http://www.w3.org/Graphics/SVG/1.1/DTD/svg11.dtd">
<svg width="100%" height="100%" viewBox="0 0 632 404" version="1.1" xmlns="http://www.w3.org/2000/svg" xmlns:xlink="http://www.w3.org/1999/xlink" xml:space="preserve" xmlns:serif="http://www.serif.com/" style="fill-rule:evenodd;clip-rule:evenodd;stroke-linejoin:round;stroke-miterlimit:2;">
    <g transform="matrix(1,0,0,1,-902.824272,-9656.614414)">
        <g transform="matrix(1,0,0,1,4050,4147)">
            <g transform="matrix(0.43513,0,0,0.43513,-3277.029794,5265.906007)">
                <path d="M1387.625,1286.214L1347.284,1286.214L1347.284,1245.873L1468.307,1245.873L1468.307,1286.214L1548.988,1286.214L1548.988,1326.555L1589.329,1326.555L1589.329,1366.896L1468.307,1366.896L1468.307,1407.236L1427.966,1407.236L1427.966,1366.895L1468.306,1366.895L1468.306,1286.214L1427.966,1286.214L1427.966,1326.555L1387.625,1326.555L1387.625,1286.214ZM1629.669,1245.874L1629.669,1165.192L1670.01,1165.192L1670.01,1245.874L1629.669,1245.874ZM1670.01,1044.17L1670.01,1003.829L1710.351,1003.829L1710.351,1044.17L1670.01,1044.17ZM1670.01,1084.511L1589.328,1084.511L1589.328,1044.17L1670.01,1044.17L1670.01,1084.511ZM1710.35,963.489L1710.35,842.467L1750.691,842.467L1750.691,963.489L1710.35,963.489ZM1629.669,681.104L1629.669,640.763L1670.01,640.763L1670.01,681.104L1629.669,681.104ZM1508.647,1044.17L1508.647,1084.511L1468.306,1084.511L1468.306,1044.17L1508.647,1044.17ZM1427.966,923.148L1589.329,923.148L1589.329,963.489L1508.647,963.489L1508.647,1003.829L1548.988,1003.829L1548.988,1044.17L1508.647,1044.17L1508.647,1003.83L1468.306,1003.83L1468.306,963.489L1427.966,963.489L1427.966,923.148ZM1266.603,1407.236L1306.944,1407.236L1306.944,1447.577L1266.603,1447.577L1266.603,1407.236ZM1226.262,1487.918L298.426,1487.918L298.426,560.082L1226.263,560.082L1226.263,681.104L1266.603,681.104L1266.603,842.467L1226.262,842.467L1226.262,923.148L1226.263,923.148L1226.263,963.489L1306.944,963.489L1306.944,1003.83L1226.262,1003.83L1226.262,1044.17L1226.263,1044.17L1226.263,1084.511L1266.603,1084.511L1266.603,1124.851L1306.944,1124.851L1306.944,1044.17L1347.284,1044.17L1347.284,1003.829L1427.966,1003.829L1427.966,1044.17L1387.625,1044.17L1387.625,1084.511L1427.966,1084.511L1427.966,1124.851L1468.307,1124.851L1468.307,1165.192L1508.647,1165.192L1508.647,1124.851L1548.988,1124.851L1548.988,1205.533L1468.306,1205.533L1468.306,1165.192L1347.285,1165.192L1347.285,1205.533L1306.944,1205.533L1306.944,1245.874L1266.603,1245.874L1266.603,1286.214L1226.262,1286.214L1226.262,1326.555L1347.285,1326.555L1347.285,1366.895L1387.625,1366.895L1387.625,1407.236L1347.284,1407.236L1347.284,1366.896L1266.603,1366.896L1266.603,1407.236L1226.262,1407.236L1226.262,1487.918ZM1266.603,842.467L1347.284,842.467L1347.284,802.126L1427.966,802.126L1427.966,761.786L1347.284,761.786L1347.284,721.445L1306.944,721.445L1306.944,681.104L1427.966,681.104L1427.966,761.785L1468.307,761.785L1468.307,802.126L1508.647,802.126L1508.647,842.467L1427.966,842.467L1427.966,923.148L1387.625,923.148L1387.625,963.489L1306.944,963.489L1306.944,923.148L1266.603,923.148L1266.603,842.467ZM1427.966,681.104L1427.966,640.763L1508.647,640.763L1508.647,721.445L1468.306,721.445L1468.306,681.104L1427.966,681.104ZM1508.647,721.445L1589.328,721.445L1589.328,681.104L1629.669,681.104L1629.669,721.445L1589.329,721.445L1589.329,802.126L1508.647,802.126L1508.647,721.445ZM1105.24,600.423L338.768,600.423L338.768,1447.577L1185.922,1447.577L1185.922,1407.236L1145.581,1407.236L1145.581,1366.895L1185.922,1366.895L1185.922,1326.555L1105.241,1326.555L1105.241,1366.896L1064.9,1366.896L1064.9,1286.214L1185.922,1286.214L1185.922,1205.533L1145.581,1205.533L1145.581,1165.192L1064.9,1165.192L1064.9,1124.852L1024.559,1124.852L1024.559,1084.511L1064.9,1084.511L1064.9,1044.17L1105.24,1044.17L1105.24,1003.83L1064.9,1003.83L1064.9,1044.17L1024.559,1044.17L1024.559,963.489L984.218,963.489L984.218,923.148L1064.9,923.148L1064.9,963.489L1105.24,963.489L1105.24,923.148L1145.581,923.148L1145.581,842.467L1185.922,842.467L1185.922,761.786L1145.581,761.786L1145.581,721.445L1105.24,721.445L1105.24,681.104L1185.922,681.104L1185.922,600.423L1145.581,600.423L1145.581,640.764L1105.24,640.764L1105.24,600.423ZM1185.922,1084.511L1185.922,1003.83L1145.581,1003.83L1145.581,1044.17L1105.241,1044.17L1105.241,1084.511L1185.922,1084.511ZM1266.603,1124.852L1226.263,1124.852L1226.263,1205.533L1266.603,1205.533L1266.603,1124.852ZM1064.9,1165.192L1064.9,1205.533L1105.241,1205.533L1105.241,1245.874L1024.559,1245.874L1024.559,1286.214L984.219,1286.214L984.219,1326.555L943.878,1326.555L943.878,1286.214L863.196,1286.214L863.196,1245.873L1024.559,1245.873L1024.559,1165.192L1064.9,1165.192ZM1024.559,1084.511L984.218,1084.511L984.218,1044.17L1024.559,1044.17L1024.559,1084.511ZM1064.9,802.126L1024.559,802.126L1024.559,761.785L1105.241,761.785L1105.241,842.467L1064.9,842.467L1064.9,802.126ZM903.537,1044.17L903.537,1003.829L943.878,1003.829L943.878,1044.17L903.537,1044.17ZM822.855,1044.17L782.515,1044.17L782.515,1003.829L822.856,1003.829L822.856,1044.17L903.537,1044.17L903.537,1124.852L822.855,1124.852L822.855,1044.17ZM984.219,1165.192L984.219,1205.533L943.878,1205.533L943.878,1165.192L984.219,1165.192ZM1064.9,681.104L1064.9,721.445L1024.559,721.445L1024.559,681.104L1064.9,681.104ZM1024.559,1366.895L1024.559,1407.236L984.218,1407.236L984.218,1366.895L1024.559,1366.895ZM903.537,802.126L903.537,842.467L863.196,842.467L863.196,802.126L903.537,802.126ZM1548.988,1407.236L1548.988,1447.577L1508.647,1447.577L1508.647,1407.236L1548.988,1407.236ZM1750.691,1084.511L1750.691,1124.852L1710.35,1124.852L1710.35,1084.511L1750.691,1084.511ZM1710.351,761.785L1710.351,802.126L1670.01,802.126L1670.01,761.785L1710.351,761.785ZM1306.944,560.082L1306.944,600.423L1266.603,600.423L1266.603,560.082L1306.944,560.082Z" style="fill:white;"/>
            </g>
        </g>
    </g>
</svg>
