<?xml version="1.0" encoding="UTF-8" standalone="no"?>
<!DOCTYPE svg PUBLIC "-//W3C//DTD SVG 1.1//EN" "http://www.w3.org/Graphics/SVG/1.1/DTD/svg11.dtd">
<svg width="100%" height="100%" viewBox="0 0 796 558" version="1.1" xmlns="http://www.w3.org/2000/svg" xmlns:xlink="http://www.w3.org/1999/xlink" xml:space="preserve" xmlns:serif="http://www.serif.com/" style="fill-rule:evenodd;clip-rule:evenodd;stroke-linejoin:round;stroke-miterlimit:2;">
    <g transform="matrix(1,0,0,1,-1594.475496,-9943.255632)">
        <g transform="matrix(1,0,0,1,4050,4147)">
            <g transform="matrix(0.481666,0,0,0.481666,-5311.02259,3447.346535)">
                <g transform="matrix(-4.166667,0,0,4.166667,8251.971143,4031.519495)">
                    <rect x="334.301" y="358.91" width="15.251" height="23.808" style="fill:rgb(35,31,32);"/>
                </g>
                <g transform="matrix(-4.166667,0,0,4.166667,8604.004477,4325.977828)">
                    <rect x="359.406" y="321.229" width="49.529" height="28.5" style="fill:rgb(35,31,32);"/>
                </g>
                <g transform="matrix(-4.166667,0,0,4.166667,7817.716977,4334.861162)">
                    <rect x="270.032" y="316.979" width="39.568" height="34.868" style="fill:rgb(35,31,32);"/>
                </g>
                <g transform="matrix(-4.166667,0,0,4.166667,6940.321143,4648.365328)">
                    <rect x="164.744" y="283.875" width="39.569" height="25.835" style="fill:rgb(35,31,32);"/>
                </g>
                <g transform="matrix(4.166667,0,0,4.166667,6180.111143,5522.762828)">
                    <path d="M0,22.878C0.184,23.117 0.329,23.392 0.422,23.697C1.887,28.511 0.982,33.762 0.325,36.597L7.53,20.531C7.479,20.553 7.425,20.576 7.368,20.601C6.312,21.052 4.347,21.891 1.678,22.857C1.393,22.96 1.1,23.01 0.81,23.01C0.533,23.01 0.259,22.965 0,22.878M-14.761,57.176C-24.924,57.176 -33.725,55.186 -39.542,51.571C-44.045,48.771 -46.707,44.949 -47.243,40.518C-47.884,35.201 -45.386,29.161 -40.379,23.88C-40.441,23.856 -40.503,23.829 -40.564,23.8C-42.978,22.634 -45.358,21.13 -47.642,19.329C-47.66,19.314 -47.679,19.298 -47.697,19.283C-61.956,7.362 -59.65,-11.356 -50.242,-22.916C-44.239,-30.057 -35.972,-34.194 -27.532,-34.298L-27.186,-34.298C-18.848,-34.298 -12.445,-31.845 -8.155,-27.007C-3.121,-21.33 -1.874,-13.467 -1.885,-6.384C-1.211,-9.949 -0.221,-13.767 1.278,-17.352C5.553,-27.569 12.896,-32.969 22.514,-32.969L23.614,-32.969C23.668,-32.969 23.722,-32.968 23.775,-32.964C27.436,-32.732 30.176,-31.692 32.152,-29.785C42.023,-19.934 26.216,6.687 20.969,14.863C23.303,14.866 29.084,15.193 33.007,18.124C36.21,20.56 39.327,25.381 36.09,34.589C33.712,41.417 26.847,47.256 16.241,51.467C7.103,55.095 -4.196,57.176 -14.761,57.176" style="fill:rgb(225,91,53);fill-rule:nonzero;stroke:black;stroke-width:0.5px;"/>
                </g>
                <g transform="matrix(4.166667,0,0,4.166667,6066.838643,5771.638662)">
                    <path d="M0,-96.583L-0.378,-96.583C-9.562,-96.47 -18.531,-92.001 -24.986,-84.322C-25.003,-84.301 -25.021,-84.28 -25.038,-84.259C-35.217,-71.751 -37.665,-51.459 -22.151,-38.487C-22.114,-38.456 -22.076,-38.426 -22.039,-38.396C-20.472,-37.16 -18.858,-36.053 -17.217,-35.089C-21.286,-29.872 -23.224,-24.126 -22.593,-18.906C-22.153,-15.261 -20.254,-10.062 -13.708,-5.99C-7.489,-2.127 1.791,0 12.424,0C23.299,0 34.943,-2.146 44.369,-5.889C55.686,-10.382 63.058,-16.751 65.69,-24.308C69.63,-35.513 64.918,-41.222 61.758,-43.626C61.746,-43.635 61.734,-43.644 61.722,-43.653C58.939,-45.732 55.505,-46.689 52.549,-47.112C55.584,-52.193 58.871,-58.418 61.286,-64.48C63.381,-69.737 64.621,-74.385 64.971,-78.294C65.474,-83.903 64.196,-88.276 61.172,-91.294C61.152,-91.314 61.132,-91.334 61.112,-91.353C58.682,-93.699 55.415,-94.972 51.123,-95.244C51.015,-95.251 50.907,-95.254 50.8,-95.254L49.699,-95.254C42.291,-95.254 32.253,-92.333 26.287,-78.492C25.233,-82.072 23.548,-85.493 20.942,-88.432C16.145,-93.841 9.099,-96.583 0,-96.583M10.24,-44.106C11.144,-44.106 12.032,-44.047 12.896,-43.926C18.244,-43.166 21.861,-41.173 23.906,-37.947C18.715,-36.523 11.638,-34.91 4.246,-34.91C-0.472,-34.91 -4.719,-35.479 -8.493,-36.713C-2.87,-41.348 4.07,-44.106 10.24,-44.106M0,-91.474C27.68,-91.474 22.805,-63.002 21.703,-53.226C21.703,-52.467 22.647,-51.898 23.906,-51.803C25.164,-51.803 26.107,-52.277 26.264,-53.037C27.051,-60.819 28.152,-90.145 49.699,-90.145L50.8,-90.145C53.787,-89.955 55.99,-89.196 57.563,-87.677C65.74,-79.516 50.957,-53.511 44.665,-44.21C44.351,-43.736 44.351,-43.261 44.824,-42.882C45.369,-42.552 46.034,-42.294 46.715,-42.294C46.818,-42.294 46.922,-42.3 47.025,-42.312L48.126,-42.312C50.17,-42.312 55.361,-42.028 58.664,-39.56C62.281,-36.808 63.067,-32.252 60.865,-25.988C56.304,-12.891 32.555,-5.109 12.424,-5.109C2.674,-5.109 -5.663,-7.007 -11.009,-10.329C-21.233,-16.688 -18.244,-27.032 -11.009,-34.435C-6.448,-32.917 -1.259,-32.157 4.246,-32.157C12.11,-32.157 19.502,-33.676 25.164,-35.289C26.579,-30.639 25.478,-25.419 24.692,-22.382C24.534,-21.433 24.377,-20.674 24.377,-20.199C24.22,-19.44 25.164,-18.87 26.264,-18.776C26.377,-18.766 26.489,-18.761 26.601,-18.761C27.582,-18.761 28.499,-19.128 28.781,-19.725L38.06,-40.414C38.217,-40.984 37.903,-41.553 37.117,-41.933C36.679,-42.065 36.241,-42.136 35.819,-42.136C35.331,-42.136 34.864,-42.041 34.443,-41.838C34.286,-41.838 31.926,-40.699 27.994,-39.275C25.321,-43.166 20.603,-45.634 13.997,-46.583C12.739,-46.773 11.481,-46.868 10.066,-46.868C2.359,-46.868 -5.82,-43.641 -12.268,-38.231C-14.627,-39.37 -16.829,-40.794 -18.873,-42.407C-31.927,-53.321 -29.726,-70.405 -21.075,-81.034C-15.57,-87.583 -8.021,-91.379 -0.315,-91.474L0,-91.474Z" style="fill-rule:nonzero;"/>
                </g>
                <g transform="matrix(4.166667,0,0,4.166667,6140.186977,5716.134078)">
                    <path d="M0,68.285C-9.695,68.285 -17.684,66.127 -21.37,62.513C-28.831,55.404 -25.694,43.351 -19.797,33.557C-22.568,34.026 -25.075,34.255 -27.413,34.255C-31.437,34.255 -34.408,33.551 -36.759,32.037C-42.662,28.186 -42.62,20.371 -41.699,12.498C-40.324,1.295 -15.751,0 2.611,0C13.404,0 23.714,0.561 30.463,1.031C38.413,1.664 43.768,4.072 46.404,8.188C48.652,11.58 48.947,15.969 47.21,20.512C45.736,24.365 42.883,28.07 39.381,30.677C35.722,33.416 30.596,34.807 24.15,34.807C21.594,34.807 17.699,34.574 12.819,33.561C16.94,38.393 21.244,44.663 25.196,51.63C27.41,55.746 26.673,59.565 23.152,62.433C18.889,65.981 9.793,68.285 0,68.285" style="fill:rgb(225,91,53);fill-rule:nonzero;stroke:black;stroke-width:0.5px;"/>
                </g>
                <g transform="matrix(4.166667,0,0,4.166667,6151.06656,6011.299495)">
                    <path d="M0,-73.394C-11.685,-73.394 -21.236,-72.715 -28.386,-71.377C-32.664,-70.576 -45.681,-68.139 -46.843,-58.667C-47.483,-53.208 -48.806,-41.908 -40.779,-36.672C-40.77,-36.666 -40.761,-36.66 -40.752,-36.654C-38.008,-34.888 -34.499,-34.03 -30.024,-34.03C-29.043,-34.03 -28.037,-34.067 -26.998,-34.143C-27.801,-32.482 -28.579,-30.656 -29.231,-28.728C-33.225,-16.926 -29.547,-10.117 -25.743,-6.477C-21.581,-2.421 -12.938,0 -2.611,0C7.887,0 17.38,-2.468 22.174,-6.442C26.601,-10.061 27.606,-15.265 24.864,-20.368C24.845,-20.403 24.827,-20.437 24.807,-20.471C22.067,-25.3 19.155,-29.809 16.242,-33.759C18.353,-33.545 20.137,-33.478 21.538,-33.478C28.549,-33.478 34.19,-35.04 38.307,-38.12C46.456,-44.189 51.531,-55.55 45.922,-64.063C42.826,-68.867 36.823,-71.657 28.08,-72.354C28.063,-72.355 28.045,-72.356 28.029,-72.358C21.237,-72.83 10.862,-73.394 0,-73.394M0,-68.285C10.573,-68.285 20.886,-67.733 27.674,-67.261C34.592,-66.709 39.422,-64.74 41.641,-61.274C45.557,-55.366 41.38,-46.78 35.245,-42.211C31.982,-39.769 27.282,-38.588 21.538,-38.588C14.358,-38.588 7.832,-40.478 7.702,-40.478C7.408,-40.567 7.096,-40.611 6.793,-40.611C6.288,-40.611 5.808,-40.488 5.483,-40.242C4.83,-39.848 4.83,-39.296 5.352,-38.824C5.352,-38.745 12.139,-32.443 20.363,-17.949C21.93,-15.035 21.538,-12.514 18.927,-10.387C15.142,-7.236 6.657,-5.11 -2.611,-5.11C-11.488,-5.11 -19.059,-7.079 -22.192,-10.151C-32.113,-19.604 -18.667,-38.351 -18.537,-38.588C-18.276,-38.981 -18.407,-39.454 -18.928,-39.769C-19.19,-40.005 -19.711,-40.163 -20.234,-40.163L-20.886,-40.163C-24.411,-39.454 -27.414,-39.139 -30.024,-39.139C-33.418,-39.139 -36.029,-39.69 -37.987,-40.951C-42.817,-44.102 -42.556,-51.349 -41.772,-58.044C-40.728,-66.552 -18.537,-68.285 0,-68.285" style="fill-rule:nonzero;"/>
                </g>
                <g transform="matrix(4.166667,0,0,4.166667,6357.066977,5383.533245)">
                    <path d="M0,85.741C-4.537,85.741 -9.265,84.599 -14.054,82.346C-27.184,76.052 -31.608,63.907 -26.53,48.137C-19.343,25.284 5.542,0.984 22.774,0.004C22.822,0.002 22.87,0 22.919,0L23.443,0C27.236,0 39.952,1.189 44.364,16.489C48.312,30.938 40.34,58.991 23.775,74.959C16.376,82.113 8.377,85.741 0,85.741" style="fill:rgb(225,91,53);fill-rule:nonzero;stroke:black;stroke-width:0.5px;"/>
                </g>
                <g transform="matrix(4.166667,0,0,4.166667,6454.747393,5751.431578)">
                    <path d="M0,-90.85L-0.524,-90.85C-0.621,-90.85 -0.718,-90.847 -0.814,-90.842C-9.713,-90.336 -20.754,-84.188 -31.108,-73.973C-41.155,-64.061 -48.919,-52.016 -52.411,-40.923C-54.695,-33.821 -55.171,-27.304 -53.827,-21.55C-52.001,-13.736 -46.742,-7.548 -38.618,-3.654C-38.607,-3.649 -38.596,-3.643 -38.584,-3.638C-33.453,-1.224 -28.359,0 -23.444,0C-14.382,0 -5.784,-3.87 2.111,-11.502C19.294,-28.067 27.522,-57.341 23.395,-72.445C23.388,-72.469 23.382,-72.492 23.376,-72.514C19.477,-86.033 8.744,-90.85 0,-90.85M-15.062,-32.766L-14.799,-32.766C-13.883,-32.766 -12.966,-33.274 -12.835,-34.088L-10.347,-50.865C-10.215,-51.678 -11.001,-52.492 -12.049,-52.593C-12.126,-52.601 -12.202,-52.604 -12.278,-52.604C-13.227,-52.604 -14.023,-52.025 -14.145,-51.271L-16.633,-34.393C-16.764,-33.579 -16.109,-32.868 -15.062,-32.766M0,-85.741C3.274,-85.741 14.537,-84.724 18.466,-71.099C22.133,-57.677 14.275,-30.326 -1.441,-15.175C-8.382,-8.465 -15.717,-5.109 -23.444,-5.109C-27.765,-5.109 -32.087,-6.228 -36.409,-8.261C-51.471,-15.48 -50.816,-29.207 -47.541,-39.375C-40.731,-61.033 -16.633,-84.825 -0.524,-85.741L0,-85.741Z" style="fill-rule:nonzero;"/>
                </g>
                <g transform="matrix(4.166667,0,0,4.166667,6305.113227,5873.558245)">
                    <path d="M0,-13.228C1.846,-14.019 4.301,-14.92 7.437,-15.777C7.66,-15.838 7.886,-15.867 8.111,-15.867C8.298,-15.867 8.483,-15.847 8.664,-15.807C8.605,-15.953 8.56,-16.106 8.528,-16.262C8.054,-18.645 8.691,-21.147 9.645,-23.316L0,-13.228ZM19.484,31.68C9.21,31.68 -0.051,30.123 -6.592,27.295C-12.138,24.928 -15.524,21.773 -16.644,17.924C-17.628,14.541 -16.787,10.874 -14.145,7.022C-12.184,4.146 -9.607,1.689 -6.445,-0.331C-8.23,-0.172 -10.146,-0.07 -12.07,-0.07C-16.57,-0.07 -20.408,-0.6 -23.476,-1.645C-29.175,-3.654 -32.472,-7.655 -33.039,-13.222C-33.871,-21.814 -26.898,-28.037 -20.901,-31.747C-14.278,-35.843 -4.831,-39.41 5.702,-41.789C14.627,-43.829 23.654,-44.908 31.801,-44.908C38.262,-44.908 47.1,-44.21 52.517,-40.886C57.569,-37.873 59.098,-34.388 59.486,-31.999C59.864,-29.675 59.551,-26.019 55.923,-21.781C54.962,-20.565 53.743,-19.372 52.323,-18.253C65.899,-16.925 74.463,-12.569 77.101,-5.645C78.457,-2.095 78.179,1.942 76.296,6.028C72.446,14.384 62.15,22.395 49.424,26.935C40.912,29.994 30.277,31.68 19.484,31.68" style="fill:rgb(225,91,53);fill-rule:nonzero;stroke:black;stroke-width:0.5px;"/>
                </g>
                <g transform="matrix(4.166667,0,0,4.166667,6437.61781,6016.202412)">
                    <path d="M0,-81.697C-8.335,-81.697 -17.559,-80.596 -26.674,-78.513C-34.304,-76.789 -45.258,-73.59 -54.046,-68.154C-66.028,-60.742 -67.913,-52.68 -67.384,-47.223C-66.718,-40.671 -62.73,-35.799 -56.153,-33.479C-56.135,-33.472 -56.117,-33.466 -56.1,-33.46C-53.168,-32.462 -49.634,-31.897 -45.572,-31.775C-46.48,-30.79 -47.311,-29.747 -48.061,-28.646C-51.149,-24.144 -52.106,-19.75 -50.898,-15.597C-49.554,-10.977 -45.681,-7.272 -39.385,-4.586C-32.552,-1.632 -22.931,0 -12.317,0C-1.236,0 9.705,-1.739 18.493,-4.897C32.033,-9.728 42.625,-18.043 46.815,-27.137C48.992,-31.862 49.293,-36.584 47.687,-40.792C45.018,-47.795 37.749,-52.338 26.047,-54.332C26.063,-54.352 26.079,-54.372 26.095,-54.392C30.329,-59.359 30.671,-63.792 30.207,-66.643C29.732,-69.564 27.926,-73.785 22.023,-77.316C16.096,-80.936 6.778,-81.697 0,-81.697M3.953,-50.809C6.635,-50.809 9.469,-50.736 12.457,-50.575C6.268,-47.513 -1.333,-45.687 -8.453,-45.687C-8.765,-45.687 -9.075,-45.69 -9.385,-45.697C-14.307,-45.781 -17.537,-46.622 -19.23,-48.304C-19.383,-48.388 -19.537,-48.472 -19.537,-48.556C-13.73,-49.813 -5.925,-50.809 3.953,-50.809M0,-76.588C8.452,-76.588 15.433,-75.365 19.38,-72.943C26.147,-68.907 27.07,-63.357 22.148,-57.638C20.764,-55.872 18.764,-54.191 16.456,-52.761C11.861,-53.09 7.6,-53.235 3.66,-53.235C-6.513,-53.235 -14.559,-52.268 -20.767,-50.995C-21.536,-54.863 -18.152,-59.909 -16.46,-61.843C-15.999,-62.516 -16.46,-63.188 -17.537,-63.525C-17.861,-63.6 -18.197,-63.638 -18.527,-63.638C-19.297,-63.638 -20.029,-63.432 -20.46,-63.02L-38.149,-44.52C-38.764,-44.015 -38.303,-43.258 -37.38,-42.922C-37.024,-42.793 -36.669,-42.725 -36.304,-42.725C-35.723,-42.725 -35.119,-42.897 -34.457,-43.258C-34.303,-43.343 -31.073,-45.529 -23.69,-47.547C-23.536,-47.379 -23.382,-47.211 -23.228,-47.043C-20.614,-44.688 -15.999,-43.427 -9.539,-43.258C-9.12,-43.248 -8.7,-43.242 -8.279,-43.242C1.038,-43.242 10.791,-45.89 18.148,-50.154C18.764,-50.07 19.38,-50.07 19.84,-49.986C32.607,-48.809 40.606,-45.025 42.913,-38.97C46.605,-29.299 34.915,-16.181 16.765,-9.705C8.249,-6.645 -2.287,-5.109 -12.317,-5.109C-21.854,-5.109 -30.932,-6.498 -37.38,-9.285C-43.686,-11.976 -49.839,-17.022 -43.84,-25.767C-40.456,-30.729 -35.226,-34.008 -29.074,-36.027L-27.073,-36.615C-20.122,-38.633 -12.405,-39.252 -5.571,-39.252C4.681,-39.252 12.95,-37.86 13.688,-37.708C13.899,-37.68 14.11,-37.666 14.317,-37.666C15.314,-37.666 16.202,-37.992 16.456,-38.549C16.918,-39.222 16.303,-39.895 15.073,-40.063C14.893,-40.112 6.067,-41.507 -5.162,-41.507C-13.176,-41.508 -22.412,-40.797 -30.611,-38.381C-32.506,-37.812 -38.015,-36.86 -43.872,-36.86C-47.529,-36.86 -51.32,-37.231 -54.453,-38.297C-59.222,-39.979 -61.836,-43.174 -62.298,-47.715C-63.529,-60.413 -44.147,-69.327 -25.536,-73.532C-16.596,-75.575 -7.689,-76.588 0,-76.588" style="fill-rule:nonzero;"/>
                </g>
                <g transform="matrix(4.166667,0,0,4.166667,6726.384477,5719.514078)">
                    <path d="M0,67.853C-2.33,67.743 -4.202,66.95 -5.767,65.427C-5.803,65.392 -5.837,65.356 -5.871,65.319C-7.793,63.215 -8.512,60.293 -8.75,57.896C-9.672,58.984 -10.511,59.833 -10.589,59.911C-13.956,63.304 -17.74,65.578 -21.533,66.486C-23.513,66.995 -25.479,67.258 -27.336,67.258L-27.338,67.258C-36.522,67.258 -43.071,60.792 -44.428,50.383C-45.212,44.131 -44.504,34.99 -42.581,26.516C-41.266,20.718 -38.174,10.1 -32.244,4.133C-29.472,1.383 -26.462,-0.004 -23.286,-0.004C-22.865,-0.004 -22.437,0.021 -22.013,0.071C-19.472,0.417 -17.381,1.703 -15.745,3.9C-12.925,7.686 -11.506,14.34 -11.527,23.678C-11.527,23.858 -11.528,24.038 -11.529,24.218C-10.165,19.694 -8.519,15.406 -6.597,12.356C-3.392,7.173 2.883,3.54 8.652,3.54C12.645,3.54 22.134,5.486 24.01,23.511C25.725,41.235 18.779,54.976 11.707,61.93C7.985,65.637 3.694,67.857 0.241,67.857C0.16,67.857 0.08,67.856 0,67.853" style="fill:rgb(225,91,53);fill-rule:nonzero;"/>
                </g>
                <g transform="matrix(4.166667,0,0,4.166667,6629.36156,6012.891578)">
                    <path d="M0,-72.969C-3.874,-72.969 -7.489,-71.333 -10.744,-68.106C-10.753,-68.097 -10.762,-68.088 -10.771,-68.079C-16.831,-61.98 -20.106,-51.869 -21.787,-44.461C-23.771,-35.716 -24.496,-26.236 -23.68,-19.723C-22.964,-14.235 -20.903,-9.584 -17.717,-6.246C-14.19,-2.551 -9.464,-0.598 -4.051,-0.598C-1.992,-0.598 0.175,-0.885 2.39,-1.45C6.1,-2.347 9.772,-4.378 13.104,-7.363C13.652,-5.947 14.431,-4.57 15.528,-3.369C15.596,-3.295 15.665,-3.223 15.737,-3.153C17.74,-1.203 20.225,-0.144 23.121,-0.008C23.15,-0.006 23.179,-0.005 23.209,-0.004C23.314,-0.001 23.42,0 23.527,0C27.702,0 32.542,-2.435 36.806,-6.681C44.276,-14.027 51.64,-28.528 49.84,-47.127C49.839,-47.14 49.838,-47.152 49.837,-47.164C48.386,-61.103 41.695,-69.425 31.938,-69.425C25.337,-69.425 18.176,-65.303 14.515,-59.397C14.176,-58.858 13.845,-58.284 13.523,-57.68C12.766,-62.098 11.461,-65.524 9.59,-68.037C7.557,-70.765 4.818,-72.435 1.669,-72.865C1.634,-72.87 1.6,-72.874 1.566,-72.878C1.045,-72.938 0.518,-72.969 0,-72.969M0,-67.86C0.325,-67.86 0.65,-67.841 0.977,-67.803C12.26,-66.262 9.101,-37.552 7.747,-28.874C7.205,-25.63 6.844,-23.521 6.844,-23.521C6.754,-22.872 7.205,-22.305 7.927,-22.143C7.981,-22.137 8.034,-22.134 8.086,-22.134C8.74,-22.134 9.295,-22.59 9.462,-23.116C9.462,-23.197 9.732,-25.305 10.274,-28.469C11.628,-36.092 14.607,-49.96 18.849,-56.692C21.557,-61.071 27.063,-64.315 31.938,-64.315C38.888,-64.315 43.581,-57.908 44.755,-46.635C46.379,-29.847 39.88,-16.871 33.201,-10.302C29.929,-7.043 26.222,-5.109 23.527,-5.109C23.471,-5.109 23.417,-5.11 23.362,-5.111C21.647,-5.192 20.384,-5.76 19.301,-6.814C16.412,-9.977 17.044,-16.06 17.044,-16.141C17.044,-16.709 16.683,-17.195 16.142,-17.357C15.961,-17.439 15.871,-17.439 15.69,-17.439C15.239,-17.439 14.788,-17.195 14.517,-16.79C14.517,-16.709 9.281,-8.355 1.158,-6.409C-0.695,-5.933 -2.434,-5.707 -4.051,-5.707C-12.36,-5.707 -17.476,-11.668 -18.61,-20.358C-20.054,-31.875 -16.172,-55.394 -7.146,-64.477C-4.835,-66.769 -2.453,-67.86 0,-67.86" style="fill-rule:nonzero;stroke:black;stroke-width:0.5px;"/>
                </g>
                <g transform="matrix(4.166667,0,0,4.166667,6881.388643,5716.139912)">
                    <path d="M0,63.498C-7.723,63.499 -13.409,55.029 -15.211,40.842C-17.049,26.058 -13.718,9.331 -5.834,7.93C-5.235,7.814 -4.633,7.814 -4.102,7.814C1.115,7.814 6.835,11.735 12.052,18.656C11.079,13.359 11.401,8.056 14.301,4.424C16.36,1.81 19.519,0.36 23.947,0.007C24.015,0.002 24.082,-0.001 24.15,-0.001L25.234,-0.001C34.389,-0.001 42.217,7.474 46.174,19.993C48.549,27.556 49.127,36.042 47.76,43.28C46.18,51.641 42.113,57.693 36.305,60.319C33.87,61.358 31.529,61.873 29.296,61.873C21.085,61.873 15.006,55.238 11.194,49.257C11.542,53.944 10.59,57.746 8.354,60.22C6.438,62.275 3.909,63.305 0.365,63.491C0.203,63.497 0.101,63.498 0,63.498" style="fill:rgb(225,91,53);fill-rule:nonzero;"/>
                </g>
                <g transform="matrix(4.166667,0,0,4.166667,6986.528227,5991.361995)">
                    <path d="M0,-68.609L-1.083,-68.609C-1.219,-68.609 -1.354,-68.604 -1.489,-68.593C-6.661,-68.181 -10.407,-66.419 -12.941,-63.208C-14.751,-60.934 -15.83,-58.013 -16.145,-54.6C-20.458,-58.632 -24.964,-60.795 -29.335,-60.795C-29.946,-60.795 -30.702,-60.795 -31.534,-60.635C-42.253,-58.71 -44.684,-38.603 -42.981,-24.903C-41,-9.305 -34.366,0 -25.234,0C-25.108,0 -24.98,-0.002 -24.854,-0.006C-24.814,-0.007 -24.774,-0.009 -24.734,-0.011C-20.545,-0.231 -17.374,-1.556 -15.038,-4.061C-15.02,-4.081 -15.002,-4.1 -14.984,-4.12C-13.586,-5.667 -12.599,-7.612 -12.026,-9.878C-7.639,-5.02 -2.193,-1.626 4.062,-1.626C6.641,-1.626 9.319,-2.21 12.022,-3.361C12.056,-3.376 12.09,-3.391 12.124,-3.406C25.767,-9.576 28.56,-30.326 23.378,-46.822C19.067,-60.467 10.328,-68.609 0,-68.609M0,-63.5C8.033,-63.5 14.893,-56.717 18.504,-45.291C22.927,-31.21 20.941,-13.001 10.019,-8.062C7.943,-7.177 5.957,-6.735 4.062,-6.735C-5.957,-6.735 -13.178,-18.972 -16.157,-26.492C-17.691,-30.178 -18.594,-32.906 -18.684,-32.979C-18.908,-33.405 -19.439,-33.681 -19.973,-33.681C-20.086,-33.681 -20.199,-33.668 -20.309,-33.643C-20.941,-33.495 -21.392,-32.906 -21.212,-32.316C-21.121,-32.242 -20.038,-29.588 -18.684,-25.828C-15.616,-17.203 -15.976,-10.642 -18.775,-7.546C-20.218,-5.998 -22.205,-5.26 -25.003,-5.113C-25.079,-5.111 -25.157,-5.11 -25.234,-5.11C-32.668,-5.11 -36.659,-15.682 -37.91,-25.534C-39.716,-40.056 -36.195,-54.653 -30.599,-55.612C-30.238,-55.685 -29.787,-55.685 -29.335,-55.685C-23.559,-55.685 -16.067,-49.271 -9.748,-37.034C-6.589,-30.768 -4.062,-25.534 -3.972,-25.312C-3.771,-24.931 -3.276,-24.711 -2.776,-24.711C-2.599,-24.711 -2.422,-24.738 -2.257,-24.796C-1.625,-25.017 -1.354,-25.607 -1.535,-26.123C-1.535,-26.197 -4.242,-31.431 -7.311,-37.845C-10.832,-45.07 -12.998,-54.948 -8.936,-60.035C-7.311,-62.099 -4.784,-63.205 -1.083,-63.5L0,-63.5Z" style="fill-rule:nonzero;stroke:black;stroke-width:0.5px;"/>
                </g>
                <g transform="matrix(4.166667,0,0,4.166667,7094.59156,5650.233245)">
                    <path d="M0,89.382C-7.008,89.382 -15.191,82.625 -15.191,63.583C-15.191,51.689 -10.575,35.886 -3.143,22.34C4.676,8.142 13.158,0 20.128,0C34.215,0 47.578,16.866 50.55,38.398C52.787,54.078 51.063,67.669 45.935,74.741C43.238,78.548 39.489,80.572 35.112,80.572C26.018,80.572 22.079,70.842 20.751,62.412C18.452,69.644 14.665,79.425 9.724,84.745C6.962,87.734 3.508,89.382 0,89.382" style="fill:rgb(225,91,53);fill-rule:nonzero;stroke:black;stroke-width:0.5px;"/>
                </g>
                <g transform="matrix(4.166667,0,0,4.166667,7178.459477,6033.300745)">
                    <path d="M0,-94.491C-4.32,-94.491 -8.915,-92.086 -13.656,-87.342C-17.676,-83.319 -21.774,-77.61 -25.507,-70.831C-33.137,-56.925 -37.875,-40.651 -37.875,-28.353C-37.875,-7.425 -28.315,0 -20.129,0C-15.901,0 -11.779,-1.939 -8.524,-5.462C-6.516,-7.623 -3.214,-12.122 0.259,-20.804C4.162,-10.448 11.034,-8.809 14.984,-8.809C20.217,-8.809 24.68,-11.199 27.892,-15.719C33.469,-23.435 35.312,-37.353 32.949,-53.911C31.48,-64.558 27.501,-74.544 21.75,-82.006C15.544,-90.057 7.82,-94.491 0,-94.491M2.257,-46.715L2.437,-46.715C3.069,-46.715 3.61,-47.352 3.701,-48.094L5.506,-65.713C5.596,-66.562 5.055,-67.305 4.332,-67.411C4.279,-67.419 4.227,-67.423 4.175,-67.423C3.52,-67.423 2.972,-66.818 2.889,-66.031L1.083,-48.519C0.993,-47.67 1.534,-46.821 2.257,-46.715M0,-89.382C12.817,-89.382 25.093,-73.461 27.891,-53.189C30.057,-38.012 28.432,-25.169 23.739,-18.695C21.482,-15.511 18.504,-13.918 14.984,-13.918C2.798,-13.918 2.617,-36.207 2.617,-36.419C2.617,-37.162 2.166,-37.799 1.534,-37.905C1.46,-37.916 1.389,-37.921 1.319,-37.921C0.705,-37.921 0.253,-37.511 0.09,-36.844C0,-36.632 -4.784,-16.996 -12.276,-8.93C-14.532,-6.489 -17.331,-5.109 -20.129,-5.109C-25.995,-5.109 -32.765,-11.265 -32.765,-28.353C-32.765,-39.922 -28.253,-55.206 -21.031,-68.367C-13.9,-81.315 -5.867,-89.382 0,-89.382" style="fill-rule:nonzero;"/>
                </g>
                <g transform="matrix(4.166667,0,0,4.166667,6290.46281,5883.524912)">
                    <path d="M0,-227.044C5.518,-224.4 7.851,-217.934 5.254,-212.5C2.632,-207.014 -3.823,-204.76 -9.329,-207.413C-14.786,-210.05 -17.109,-216.582 -14.512,-221.987C-11.954,-227.298 -5.345,-229.605 0,-227.044M307.517,-130.026C307.004,-130.155 306.466,-130.217 305.94,-130.231C300.457,-130.388 295.223,-129.274 290.393,-126.742C277.784,-120.121 265.201,-113.439 252.674,-106.665C243.794,-101.861 235.002,-96.887 226.204,-91.93C224.592,-91.024 223.255,-91.311 221.958,-92.367C221.381,-92.832 220.909,-93.423 220.38,-93.943C218.638,-95.648 217.104,-97.679 215.098,-98.972C212.56,-100.617 210.551,-102.622 208.927,-105.08C207.092,-107.881 205.271,-110.696 203.559,-113.573C201.203,-117.522 198.279,-120.873 194.228,-123.175C193.124,-123.796 191.996,-124.514 191.163,-125.445C190.318,-126.395 189.49,-127.585 189.233,-128.796C188.85,-130.594 188.025,-131.804 186.394,-132.539C184.697,-133.3 183.841,-134.724 183.404,-136.441C183.117,-137.575 182.887,-138.723 182.677,-139.869C182.085,-143.11 180.568,-145.586 177.385,-146.941C176.731,-147.216 176.054,-148.219 175.994,-148.93C175.852,-150.611 175.234,-151.926 173.924,-152.882C172.679,-153.785 171.398,-154.655 170.044,-155.377C167.133,-156.926 166.963,-157.087 167.314,-160.324C167.5,-162.052 166.982,-163.354 165.413,-164.173C163.143,-165.361 161.639,-167.234 160.638,-169.545C159.163,-172.953 158.501,-176.533 158.273,-180.229C158.119,-182.704 158.869,-184.789 160.656,-186.392C163.373,-188.829 166.087,-191.33 169.082,-193.404C172.743,-195.943 176.704,-198.045 180.493,-200.394C181.021,-200.72 181.774,-201.525 181.661,-201.864C181.469,-202.447 180.768,-203.079 180.14,-203.277C175.306,-204.816 170.403,-205.933 165.253,-205.24C156.169,-204.022 147.582,-201.078 139.073,-197.841C136.974,-197.043 134.902,-196.182 132.747,-195.326C132.101,-202.328 129.075,-206.595 124.198,-210.47C120.831,-213.142 117.757,-216.169 114.46,-218.927C111.916,-221.057 111.695,-223.7 112.835,-226.426C114.071,-229.397 115.595,-232.271 117.24,-235.043C118.549,-237.255 120.225,-239.245 121.867,-241.501C121.23,-241.576 120.877,-241.669 120.52,-241.651C110.41,-241.08 100.356,-239.971 90.755,-236.562C86.519,-235.062 82.567,-232.757 78.367,-231.126C73.717,-229.316 69.05,-228.58 63.92,-230.035C56.684,-232.094 49.26,-233.591 41.85,-234.954C30.165,-237.094 18.369,-238.229 6.47,-237.938C-12.762,-237.46 -31.812,-235.253 -50.768,-232.114C-51.346,-232.018 -51.909,-231.781 -52.906,-231.483C-51.907,-230.572 -51.312,-229.794 -50.525,-229.354C-48.955,-228.478 -47.32,-227.663 -45.634,-227.057C-42.585,-225.952 -39.461,-225.06 -36.401,-224.006C-35.366,-223.653 -34.417,-223.064 -33.423,-222.581C-33.467,-222.418 -33.51,-222.254 -33.56,-222.094C-33.845,-222.048 -34.136,-222.004 -34.438,-221.967C-34.644,-221.939 -34.852,-221.919 -35.063,-221.894C-41.434,-221.232 -49.62,-222.489 -55.694,-222.876C-57.723,-220.908 -57.063,-218.685 -56.25,-216.735C-53.738,-210.708 -51.235,-204.664 -48.3,-198.836C-40.625,-183.62 -31.797,-169.094 -21.452,-155.513C-12.488,-143.74 -2.907,-132.504 7.692,-122.166C9.032,-120.861 9.639,-119.495 9.849,-117.617C11.274,-104.997 12.804,-92.389 14.417,-79.791C14.631,-78.097 15.299,-76.388 16.087,-74.855C17.014,-73.049 18.59,-73.092 19.615,-74.881C20.349,-76.158 21.033,-77.536 21.37,-78.963C22.931,-85.582 26.174,-91.426 29.558,-97.209C30.525,-98.863 31.589,-100.455 32.541,-102.108C33.09,-103.063 33.692,-103.161 34.635,-102.66C40.379,-99.65 46.121,-96.648 51.904,-93.704C62.682,-88.221 74.164,-84.731 85.879,-81.966C90.02,-80.991 94.216,-80.288 98.36,-79.319C99.025,-79.167 99.748,-78.404 100.066,-77.745C103.472,-70.709 106.724,-63.605 110.161,-56.589C113.212,-50.372 116.64,-44.361 121.618,-39.422C123.161,-37.892 124.842,-36.5 126.555,-35.157C127.007,-34.803 127.797,-34.88 128.436,-34.762C128.38,-35.364 128.475,-36.042 128.238,-36.562C123.319,-47.308 122.202,-58.721 122.214,-70.338C122.211,-71.398 122.43,-72.449 122.526,-73.51C122.841,-76.978 124.621,-79.372 127.858,-80.598C132.644,-82.412 137.488,-82.693 142.573,-81.701C144.963,-81.228 147.585,-81.964 150.099,-82.184C150.567,-82.227 151.048,-82.384 151.477,-82.58C155.097,-84.258 158.338,-83.153 161.391,-81.151C162.413,-80.478 163.077,-80.617 164.084,-81.199C166.794,-82.759 169.559,-84.256 172.409,-85.534C174.575,-86.499 176.698,-86.397 178.917,-85C180.027,-84.305 181.849,-84.606 183.333,-84.68C184.863,-84.76 186.363,-85.232 187.893,-85.326C190.194,-85.473 191.684,-84.273 192.506,-82.149C193.189,-80.397 193.754,-80.158 195.555,-80.781C196.004,-80.932 196.433,-81.157 196.871,-81.342C198.449,-82.003 199.652,-83.165 201.846,-82.39C203.696,-81.74 206.035,-82.493 208.154,-82.6C210.437,-82.712 212.723,-82.901 215,-82.867C217.154,-82.829 217.662,-82.426 217.926,-80.295C218.42,-76.342 218.885,-72.374 219.071,-68.4C219.645,-55.71 220.025,-43.015 220.605,-30.322C221.044,-20.716 221.423,-11.088 223.896,-1.708C225.099,2.832 226.607,7.27 229.652,10.971C230.419,11.905 231.329,12.766 232.328,13.443C234.075,14.625 234.717,14.312 234.719,12.219C234.72,8.605 234.61,4.987 234.429,1.385C233.657,-13.794 232.395,-28.955 233.106,-44.174C233.667,-56.277 237.276,-67.29 244.87,-76.872C244.872,-76.877 244.884,-76.886 244.887,-76.892L244.852,-76.88C244.855,-76.886 244.867,-76.895 244.869,-76.9C245.554,-77.768 246.186,-78.675 246.93,-79.492C250.922,-83.908 255.014,-88.24 258.93,-92.721C267.041,-101.994 276.622,-109.397 287.493,-115.129C293.135,-118.104 298.934,-120.776 304.587,-123.717C306.069,-124.488 307.419,-125.615 308.596,-126.811C309.855,-128.102 309.281,-129.581 307.517,-130.026" style="fill-rule:nonzero;"/>
                </g>
                <g transform="matrix(4.166667,0,0,4.166667,6297.403643,4957.353245)">
                    <path d="M0,10.197C-0.175,10.396 -0.353,10.587 -0.548,10.769C-0.74,10.945 -0.938,11.119 -1.142,11.276C-1.45,11.516 -1.776,11.734 -2.117,11.924C-4.393,13.204 -7.264,13.4 -9.772,12.175C-10.145,11.993 -10.499,11.786 -10.833,11.553C-11.055,11.395 -11.265,11.229 -11.467,11.06C-12.384,10.274 -13.098,9.302 -13.596,8.237C-14.586,6.094 -14.661,3.544 -13.573,1.332C-13.316,0.818 -13.016,0.346 -12.672,-0.083C-12.526,-0.268 -12.368,-0.447 -12.207,-0.617C-12.032,-0.802 -11.845,-0.981 -11.644,-1.146C-10.858,-1.815 -9.953,-2.32 -8.982,-2.636C-7.975,-2.971 -6.897,-3.1 -5.816,-3.016C-5.587,-3.004 -5.364,-2.981 -5.141,-2.943C-4.984,-2.917 -4.826,-2.89 -4.674,-2.852C-4.044,-2.716 -3.422,-2.506 -2.81,-2.216C-2.288,-1.962 -1.799,-1.668 -1.355,-1.324C-0.813,-0.919 -0.331,-0.451 0.089,0.059C0.254,0.26 0.408,0.469 0.548,0.679L0.551,0.687C0.992,1.342 1.323,2.05 1.549,2.784C1.623,3.026 1.686,3.277 1.737,3.522C1.819,3.895 1.869,4.274 1.887,4.66C1.887,4.66 1.884,4.665 1.888,4.674C1.908,4.925 1.905,5.179 1.893,5.436L1.891,5.442C1.885,5.702 1.857,5.965 1.817,6.223C1.703,6.998 1.469,7.772 1.106,8.519C0.928,8.887 0.72,9.24 0.49,9.569C0.335,9.785 0.175,9.998 0,10.197M-1.666,-4.763C-7.011,-7.324 -13.62,-5.017 -16.178,0.294C-18.775,5.7 -16.452,12.231 -10.995,14.868C-5.489,17.521 0.967,15.267 3.589,9.782C6.185,4.347 3.852,-2.118 -1.666,-4.763" style="fill:white;fill-rule:nonzero;"/>
                </g>
                <g transform="matrix(-3.750964,-1.814217,-1.814217,3.750964,6245.571249,4998.946923)">
                    <path d="M-3.354,-15.17C-7.933,-15.177 -11.567,-11.654 -11.557,-7.216C-11.546,-2.821 -7.817,0.83 -3.354,0.813C1.089,0.797 4.821,-2.92 4.788,-7.297C4.756,-11.656 1.13,-15.161 -3.354,-15.17" style="fill:rgb(35,31,32);fill-rule:nonzero;"/>
                </g>
                <g transform="matrix(4.166667,0,0,4.166667,6405.92406,5314.941162)">
                    <path d="M0,-71.942C31.001,-86.127 100.049,-22.653 100.049,-22.653C110.126,-13.389 123.221,-1.004 138.243,14.185C55.351,-37.844 21.896,-55.398 9.606,-59.084C7.088,-59.839 -6.016,-63.454 -4.826,-67.966C-4.296,-69.976 -1.124,-71.428 0,-71.942" style="fill:white;fill-rule:nonzero;"/>
                </g>
                <g transform="matrix(4.166667,0,0,4.166667,6690.407393,5613.103245)">
                    <path d="M0,-14.651C0.059,-14.651 0.112,-14.655 0.159,-14.66L3.546,-33.914L3.53,-33.914C3.461,-33.914 3.399,-33.908 3.347,-33.899L-0.059,-14.651L0,-14.651ZM38.497,46.333C32.765,46.333 27.764,45.514 23.634,43.897C5.22,36.825 -3.369,17.918 -6.206,10.117L-6.212,10.1C-6.276,9.957 -6.329,9.82 -6.374,9.688C-6.384,9.687 -6.393,9.685 -6.403,9.684C-6.448,9.698 -6.493,9.71 -6.539,9.721C-5.419,13.443 -1.266,29.719 -10.727,38.495C-14.194,41.61 -18.609,43.259 -24.247,43.559C-25.005,43.697 -25.8,43.697 -26.397,43.697C-32.782,43.697 -38.303,41.564 -42.807,37.359C-55.768,25.388 -57.365,-1.94 -46.512,-26.198C-36.357,-49.033 1.543,-60.984 33.731,-60.984C46.842,-60.984 57.649,-58.899 64.163,-55.113C73.972,-49.514 77.854,-39.977 74.036,-30.826C69.393,-19.238 53.9,-10.252 31.615,-5.858C31.95,-5.861 32.29,-5.862 32.632,-5.862C59.645,-5.862 76.198,0.544 80.503,12.663C83.326,20.741 81.048,28.337 73.921,34.643C65.696,41.752 51.8,46.333 38.497,46.333" style="fill:rgb(225,91,53);fill-rule:nonzero;stroke:black;stroke-width:0.5px;"/>
                </g>
                <g transform="matrix(4.166667,0,0,4.166667,6830.954893,5816.801995)">
                    <path d="M0,-112.426C-16.991,-112.426 -34.365,-109.303 -48.922,-103.633C-65.872,-97.031 -77.511,-87.516 -82.579,-76.119C-87.94,-64.136 -90.546,-50.909 -89.911,-38.883C-89.249,-26.354 -85.112,-15.97 -78.261,-9.643C-73.29,-5 -67.182,-2.637 -60.128,-2.637C-59.507,-2.637 -58.619,-2.637 -57.693,-2.787C-51.519,-3.139 -46.638,-4.999 -42.781,-8.466C-42.761,-8.484 -42.741,-8.502 -42.722,-8.52C-38.643,-12.304 -36.318,-17.82 -35.908,-24.609C-35.385,-23.758 -34.888,-22.989 -34.431,-22.308C-28.009,-12.739 -20.129,-6.11 -11.01,-2.604C-6.586,-0.876 -1.278,0 4.766,0C18.646,0 33.198,-4.825 41.838,-12.293C41.853,-12.306 41.868,-12.319 41.883,-12.332C49.736,-19.28 52.33,-28.061 49.187,-37.055C47.653,-41.375 44.796,-45.056 40.688,-48.021C37.311,-50.459 33.02,-52.442 27.935,-53.916C23.915,-55.081 19.355,-55.949 14.291,-56.514C17.076,-57.497 19.697,-58.57 22.132,-59.73C32.56,-64.693 39.663,-71.276 42.677,-78.766C46.996,-89.166 42.689,-99.938 31.696,-106.22C24.698,-110.28 13.738,-112.426 0,-112.426M-34.098,-60.984L-33.731,-60.984C-32.448,-60.984 -31.347,-61.612 -31.164,-62.491L-27.498,-83.334C-27.315,-84.339 -28.415,-85.218 -29.881,-85.343C-29.989,-85.352 -30.096,-85.357 -30.201,-85.357C-31.53,-85.357 -32.645,-84.642 -32.814,-83.711L-36.48,-62.993C-36.663,-61.988 -35.564,-61.11 -34.098,-60.984M0,-107.317C12.833,-107.317 23.099,-105.307 29.148,-101.792C37.947,-96.769 41.247,-88.608 37.947,-80.697C32.815,-67.89 12.833,-58.347 -15.399,-55.334C-18.515,-55.083 -20.348,-54.832 -20.348,-54.832C-21.816,-54.58 -22.731,-53.702 -22.548,-52.697C-22.38,-51.778 -21.292,-51.174 -19.985,-51.174C-19.863,-51.174 -19.74,-51.18 -19.615,-51.19C-17.965,-51.316 -16.315,-51.442 -14.666,-51.567C-11.549,-51.818 -6.782,-52.195 -1.1,-52.195C16.866,-52.195 39.414,-49.307 44.364,-35.37C47.479,-26.455 42.897,-20.051 38.497,-16.159C30.798,-9.504 17.598,-5.109 4.766,-5.109C-0.55,-5.109 -5.316,-5.863 -9.166,-7.369C-28.781,-14.903 -36.663,-37.253 -37.58,-39.764C-37.763,-40.141 -37.763,-40.392 -37.763,-40.392C-37.948,-41.145 -39.047,-41.773 -40.33,-41.773C-40.513,-41.773 -40.697,-41.773 -40.88,-41.648C-42.347,-41.522 -43.264,-40.518 -42.897,-39.513L-42.897,-39.011C-42.164,-37.127 -37.397,-20.428 -46.196,-12.266C-49.13,-9.629 -52.98,-8.123 -58.296,-7.871C-58.846,-7.746 -59.579,-7.746 -60.128,-7.746C-65.812,-7.746 -70.761,-9.629 -74.794,-13.396C-86.894,-24.571 -88.36,-50.688 -77.911,-74.042C-68.195,-95.89 -31.347,-107.317 0,-107.317" style="fill-rule:nonzero;"/>
                </g>
                <g transform="matrix(4.166667,0,0,4.166667,7154.510727,5371.917828)">
                    <path d="M0,82.936C-2.852,82.812 -5.157,81.907 -7.089,80.169C-7.126,80.135 -7.162,80.101 -7.197,80.066C-10.28,76.946 -10.963,72.265 -11.036,69.159C-11.052,69.179 -11.069,69.199 -11.085,69.22C-11.883,70.205 -13.2,71.719 -14.937,73.337C-18.007,76.196 -22.971,79.893 -29.178,81.267C-31.768,81.882 -34.318,82.198 -36.722,82.198C-48.562,82.199 -57.019,74.394 -58.793,61.828C-60.804,47.004 -55.376,16.741 -42.617,4.875C-39.079,1.633 -35.271,-0.004 -31.285,-0.004C-30.762,-0.004 -30.229,0.025 -29.701,0.081C-26.392,0.498 -23.671,2.144 -21.565,4.979C-18.058,9.699 -16.313,17.818 -16.378,29.113C-16.392,31.542 -16.49,33.941 -16.636,36.221C-14.513,28.391 -11.659,20.188 -8.097,14.964C-4.004,8.846 4.276,4.393 11.58,4.393C16.696,4.393 28.862,6.75 31.321,28.591C33.607,50.412 24.385,67.3 14.994,75.835C10.164,80.28 4.664,82.94 0.293,82.94C0.194,82.94 0.097,82.938 0,82.936" style="fill:rgb(225,91,53);fill-rule:nonzero;stroke:black;stroke-width:0.5px;"/>
                </g>
                <g transform="matrix(4.166667,0,0,4.166667,7024.15531,5728.144078)">
                    <path d="M0,-88.053C-4.645,-88.053 -9.033,-86.19 -13.043,-82.516C-13.053,-82.507 -13.062,-82.498 -13.071,-82.49C-26.619,-69.89 -32.171,-39.04 -30.04,-23.337C-28.072,-9.389 -18.646,-0.742 -5.437,-0.742C-2.847,-0.742 -0.11,-1.078 2.698,-1.742C8.043,-2.934 13.365,-5.888 18.089,-10.288C18.218,-10.407 18.344,-10.526 18.468,-10.645C19.115,-8.191 20.266,-5.661 22.271,-3.633C22.341,-3.562 22.413,-3.493 22.488,-3.426C24.878,-1.275 27.706,-0.157 31.133,-0.007C31.16,-0.006 31.187,-0.005 31.214,-0.005C31.334,-0.001 31.455,0 31.577,0C36.573,0 42.72,-2.912 48.022,-7.79C57.852,-16.725 67.532,-34.4 65.15,-57.15C65.148,-57.163 65.147,-57.176 65.145,-57.189C63.279,-73.762 54.951,-83.657 42.866,-83.657C34.648,-83.657 25.688,-78.845 21.066,-71.952C19.648,-69.87 18.342,-67.354 17.147,-64.594C16.532,-71.366 14.975,-77.727 11.771,-82.039C9.269,-85.406 5.874,-87.447 1.952,-87.942C1.92,-87.946 1.888,-87.95 1.856,-87.953C1.238,-88.019 0.614,-88.053 0,-88.053M0,-82.944C0.436,-82.944 0.873,-82.92 1.312,-82.873C16.455,-80.962 12.215,-45.35 10.398,-34.587C9.671,-30.563 9.186,-27.947 9.186,-27.947C9.065,-27.143 9.671,-26.438 10.64,-26.237C10.712,-26.23 10.783,-26.226 10.853,-26.226C11.731,-26.226 12.475,-26.792 12.7,-27.444C12.7,-27.545 13.063,-30.16 13.79,-34.084C15.607,-43.54 19.605,-60.742 25.299,-69.091C28.934,-74.524 36.323,-78.547 42.866,-78.547C52.194,-78.547 58.494,-70.6 60.068,-56.617C62.249,-35.794 53.527,-19.698 44.562,-11.55C40.17,-7.508 35.195,-5.109 31.577,-5.109C31.503,-5.109 31.429,-5.11 31.356,-5.112C29.055,-5.212 27.359,-5.916 25.905,-7.224C22.028,-11.148 22.876,-18.692 22.876,-18.793C22.876,-19.497 22.392,-20.101 21.665,-20.302C21.422,-20.403 21.301,-20.403 21.059,-20.403C20.453,-20.403 19.847,-20.101 19.484,-19.598C19.484,-19.497 12.457,-9.136 1.554,-6.721C-0.933,-6.131 -3.267,-5.851 -5.437,-5.851C-16.589,-5.851 -23.456,-13.245 -24.978,-24.024C-26.915,-38.309 -21.706,-67.482 -9.592,-78.748C-6.489,-81.591 -3.292,-82.944 0,-82.944" style="fill-rule:nonzero;"/>
                </g>
            </g>
        </g>
    </g>
</svg>
