<?xml version="1.0" encoding="UTF-8"?>
<svg id="Layer_2" data-name="Layer 2" xmlns="http://www.w3.org/2000/svg" viewBox="0 0 336.64 336.64">
  <defs>
    <style>
      .cls-1 {
        fill: #fff;
      }
    </style>
  </defs>
  <g id="Layer_1-2" data-name="Layer 1">
    <path class="cls-1" d="M266.91,168.32c.79-30.4,1.16-60.91.63-91.4,23.07-.52,46.13-1.56,69.1-3.41v-.84c-7.01-.64-14.03-.99-21.04-1.5,0,0-21.04-1.01-21.04-1.01-9.06-.45-18.12-.75-27.18-.97-.52-23.11-1.56-46.19-3.41-69.2h-.84c-.64,7.01-.99,14.03-1.49,21.04l-1.01,21.04c-.45,8.98-.75,17.97-.96,26.95-30.44-.54-60.89,0-91.35.7-41.99.53-126.32,2.01-168.32,2.94v.84c41.9.93,126.42,2.4,168.32,2.94,30.33.79,60.76,1.15,91.17.63-.53,30.41.01,60.82.7,91.24.53,41.99,2.01,126.32,2.94,168.32h.84c.93-41.9,2.4-126.42,2.94-168.32Z"/>
  </g>
</svg>