<?xml version="1.0" encoding="UTF-8"?>
<svg id="Layer_2" data-name="Layer 2" xmlns="http://www.w3.org/2000/svg" viewBox="0 0 648.82 316.88">
  <defs>
    <style>
      .cls-1 {
        fill: #fff;
      }
    </style>
  </defs>
  <g id="Layer_1-2" data-name="Layer 1">
    <g>
      <path class="cls-1" d="M268.94,75.78c-1.01-4.84-2.28-9.46-3.8-13.78-4.65-13.23-10.69-23.69-18.1-31.42-7.44-7.73-16.74-13.94-27.88-18.59-11.15-4.65-22.16-7.73-33.11-9.29-10.95-1.53-23.43-2.31-37.47-2.31H0v216.69h149.52c11.76,0,23.17-1.04,34.22-3.09,11.02-2.08,22-5.72,32.95-10.98,10.95-5.26,20.44-11.86,28.5-19.82,8.03-7.93,14.53-18.3,19.5-31.1,1.17-3.02,2.18-6.11,3.09-9.33h71.62c-8.45,8.45-16.02,16.7-22.65,24.73-6.66,7.99-13.52,17.61-20.6,28.82-7.12,11.24-13.06,22.62-17.87,34.19-4.81,11.57-8.81,24.8-12.02,39.68-3.18,14.85-5.04,30.45-5.49,46.7h86.21c.68-16.7,3.15-32.69,7.38-47.9,4.22-15.24,9.26-28.27,15.11-39.16,5.85-10.89,12.87-21.25,21.12-31.1,8.25-9.85,15.73-17.68,22.49-23.53,6.76-5.82,14.2-11.37,22.33-16.64,8.12-5.26,13.84-8.77,17.19-10.46,3.31-1.72,6.69-3.38,10.11-5,.46-.23.81-.32,1.04-.32v-66.98h-194.79ZM173.66,151.31c-8.06,4.42-17.74,6.66-29.08,6.66h-72.47V59.83h72.47c18.13,0,31.39,4.48,39.78,13.45,8.35,9,12.51,20.9,12.51,35.78,0,9.26-1.85,17.52-5.56,24.76-3.7,7.21-9.59,13.03-17.65,17.48Z"/>
      <g>
        <path class="cls-1" d="M320.97,39.45h-12.56c-.15-.22-.34-.53-.58-.91-.24-.39-.67-1.25-1.3-2.6-.63-1.35-1.17-2.74-1.63-4.18-.46-1.44-.89-3.27-1.3-5.51-.41-2.23-.61-4.49-.61-6.78s.19-4.49.58-6.61c.39-2.12.84-3.89,1.36-5.31.52-1.42,1.04-2.66,1.58-3.74.53-1.07.99-1.86,1.36-2.38l.55-.72h12.56c-.19.15-.42.4-.69.75-.28.35-.77,1.13-1.49,2.35-.72,1.22-1.35,2.51-1.88,3.87-.54,1.37-1.02,3.14-1.47,5.31-.44,2.18-.66,4.42-.66,6.72s.21,4.56.64,6.75c.42,2.19.94,4.04,1.55,5.53.61,1.49,1.22,2.83,1.83,4.01.61,1.18,1.12,2.05,1.52,2.6l.66.83Z"/>
        <path class="cls-1" d="M323.96.61h51.29v12.84h-19.2v26.01h-12.84V13.45h-19.26V.61Z"/>
        <path class="cls-1" d="M404.75.72l17.43,38.73h-14.94l-2.93-6.53h-19.2l-2.93,6.53h-14.83L384.72.72h20.03ZM389.7,21.75h10.01l-5.04-10.18-4.98,10.18Z"/>
        <path class="cls-1" d="M412.44.61h51.29v12.84h-19.2v26.01h-12.84V13.45h-19.26V.61Z"/>
        <path class="cls-1" d="M466.77.61h51.29v12.84h-19.2v26.01h-12.84V13.45h-19.26V.61Z"/>
        <path class="cls-1" d="M545.68,0c3.5,0,6.6.19,9.3.58,2.69.39,5.18,1.04,7.47,1.96,2.29.92,4.16,2.13,5.62,3.62,1.46,1.49,2.59,3.38,3.4,5.64.81,2.27,1.22,4.93,1.22,8s-.36,5.64-1.08,7.86c-.72,2.21-1.75,4.09-3.1,5.62-1.35,1.53-3.12,2.77-5.31,3.71-2.19.94-4.68,1.61-7.44,2.02-2.77.41-5.99.61-9.68.61-9.15,0-15.8-1.67-19.95-5.01-4.15-3.34-6.22-8.51-6.22-15.52,0-6.49,2.12-11.3,6.36-14.41,4.24-3.12,10.72-4.68,19.42-4.68ZM546.18,29.44c3.91,0,6.93-.79,9.07-2.38,2.14-1.59,3.21-4,3.21-7.25s-1.13-5.52-3.38-7.17c-2.25-1.64-5.28-2.46-9.07-2.46-1.99,0-3.74.21-5.26.64-1.51.42-2.76,1.06-3.73,1.91-.98.85-1.71,1.86-2.19,3.04-.48,1.18-.72,2.53-.72,4.04,0,2.91,1.01,5.25,3.04,7,2.03,1.75,5.04,2.63,9.02,2.63Z"/>
        <path class="cls-1" d="M600.84,0c3.5,0,6.6.19,9.3.58,2.69.39,5.18,1.04,7.47,1.96,2.29.92,4.16,2.13,5.62,3.62,1.46,1.49,2.59,3.38,3.4,5.64.81,2.27,1.22,4.93,1.22,8s-.36,5.64-1.08,7.86c-.72,2.21-1.75,4.09-3.1,5.62-1.35,1.53-3.12,2.77-5.31,3.71-2.19.94-4.68,1.61-7.44,2.02-2.77.41-5.99.61-9.68.61-9.15,0-15.8-1.67-19.95-5.01-4.15-3.34-6.22-8.51-6.22-15.52,0-6.49,2.12-11.3,6.36-14.41,4.24-3.12,10.72-4.68,19.42-4.68ZM601.34,29.44c3.91,0,6.93-.79,9.07-2.38,2.14-1.59,3.21-4,3.21-7.25s-1.13-5.52-3.38-7.17c-2.25-1.64-5.28-2.46-9.07-2.46-1.99,0-3.74.21-5.26.64-1.51.42-2.76,1.06-3.73,1.91-.98.85-1.71,1.86-2.19,3.04-.48,1.18-.72,2.53-.72,4.04,0,2.91,1.01,5.25,3.04,7,2.03,1.75,5.04,2.63,9.02,2.63Z"/>
        <path class="cls-1" d="M643.39,39.45h-12.56c.07-.07.16-.17.25-.28.09-.11.28-.38.55-.8.28-.42.55-.86.83-1.3.28-.44.6-1.03.97-1.77.37-.74.72-1.49,1.05-2.27.33-.77.65-1.68.97-2.71.31-1.03.59-2.08.83-3.15.24-1.07.42-2.25.55-3.54.13-1.29.19-2.6.19-3.93,0-2.29-.21-4.51-.64-6.67-.42-2.16-.94-3.95-1.55-5.37-.61-1.42-1.21-2.68-1.8-3.79-.59-1.11-1.11-1.92-1.55-2.43l-.66-.72h12.56c.15.15.34.4.58.75.24.35.67,1.13,1.3,2.32.63,1.2,1.18,2.47,1.66,3.82.48,1.35.91,3.09,1.3,5.23.39,2.14.58,4.35.58,6.64s-.19,4.54-.55,6.75c-.37,2.21-.82,4.08-1.36,5.59-.54,1.51-1.07,2.87-1.6,4.07-.54,1.2-.99,2.09-1.36,2.68l-.55.89Z"/>
      </g>
    </g>
  </g>
</svg>