<?xml version="1.0" encoding="UTF-8"?>
<svg id="Layer_2" data-name="Layer 2" xmlns="http://www.w3.org/2000/svg" viewBox="0 0 336.64 336.64">
  <defs>
    <style>
      .cls-1 {
        fill: #fff;
      }
    </style>
  </defs>
  <g id="Layer_1-2" data-name="Layer 1">
    <path class="cls-1" d="M168.32,266.91c30.4.79,60.91,1.16,91.4.63.52,23.07,1.56,46.13,3.41,69.1h.84c.64-7.01.99-14.03,1.5-21.04,0,0,1.01-21.04,1.01-21.04.45-9.06.75-18.12.97-27.18,23.11-.52,46.19-1.56,69.2-3.41v-.84c-7.01-.64-14.03-.99-21.04-1.49l-21.04-1.01c-8.98-.45-17.97-.75-26.95-.96.54-30.44,0-60.89-.7-91.35-.53-41.99-2.01-126.32-2.94-168.32h-.84c-.93,41.9-2.4,126.42-2.94,168.32-.79,30.33-1.15,60.76-.63,91.17-30.41-.53-60.82.01-91.24.7-41.99.53-126.32,2.01-168.32,2.94v.84c41.9.93,126.42,2.4,168.32,2.94Z"/>
  </g>
</svg>