<?xml version="1.0" encoding="UTF-8"?>
<svg id="Layer_2" data-name="Layer 2" xmlns="http://www.w3.org/2000/svg" viewBox="0 0 2203.91 318.08">
  <defs>
    <style>
      .cls-1 {
        fill: #fff;
      }
    </style>
  </defs>
  <g id="Layer_1-2" data-name="Layer 1">
    <g>
      <g>
        <path class="cls-1" d="M606.12,75.77h269.69v67.49h-100.95v136.74h-67.5v-136.74h-101.24v-67.49Z"/>
        <path class="cls-1" d="M1030.87,76.35l91.65,203.65h-78.55l-15.42-34.33h-100.95l-15.42,34.33h-77.97l91.35-203.65h105.31ZM951.74,186.91h52.66l-26.47-53.53-26.18,53.53Z"/>
        <path class="cls-1" d="M1071.31,75.77h269.69v67.49h-100.95v136.74h-67.49v-136.74h-101.24v-67.49Z"/>
        <path class="cls-1" d="M1357,75.77h269.69v67.49h-100.95v136.74h-67.49v-136.74h-101.24v-67.49Z"/>
        <path class="cls-1" d="M1771.87,72.57c18.42,0,34.71,1.02,48.88,3.05,14.15,2.04,27.25,5.48,39.27,10.33,12.02,4.85,21.87,11.2,29.53,19.06,7.66,7.85,13.63,17.75,17.89,29.68,4.27,11.93,6.4,25.94,6.4,42.04s-1.89,29.67-5.67,41.31c-3.78,11.63-9.21,21.48-16.29,29.53-7.08,8.05-16.39,14.55-27.93,19.49-11.54,4.94-24.58,8.49-39.13,10.62-14.55,2.14-31.52,3.2-50.91,3.2-48.1,0-83.06-8.78-104.88-26.33-21.82-17.55-32.73-44.75-32.73-81.61,0-34.14,11.15-59.4,33.46-75.79,22.3-16.39,56.34-24.58,102.12-24.58ZM1774.49,227.35c20.56,0,36.46-4.17,47.71-12.51,11.24-8.34,16.87-21.04,16.87-38.11s-5.92-29.04-17.74-37.68c-11.83-8.63-27.74-12.95-47.71-12.95-10.47,0-19.69,1.12-27.64,3.35-7.96,2.23-14.5,5.58-19.64,10.04-5.14,4.46-8.97,9.8-11.49,16-2.52,6.21-3.78,13.29-3.78,21.24,0,15.32,5.33,27.59,16,36.8,10.66,9.21,26.47,13.82,47.42,13.82Z"/>
        <path class="cls-1" d="M2061.93,72.57c18.42,0,34.71,1.02,48.88,3.05,14.15,2.04,27.25,5.48,39.27,10.33,12.02,4.85,21.87,11.2,29.53,19.06,7.66,7.85,13.63,17.75,17.89,29.68,4.27,11.93,6.4,25.94,6.4,42.04s-1.89,29.67-5.67,41.31c-3.78,11.63-9.21,21.48-16.29,29.53-7.08,8.05-16.39,14.55-27.93,19.49-11.54,4.94-24.58,8.49-39.13,10.62-14.55,2.14-31.52,3.2-50.91,3.2-48.1,0-83.06-8.78-104.88-26.33-21.82-17.55-32.73-44.75-32.73-81.61,0-34.14,11.15-59.4,33.46-75.79,22.3-16.39,56.34-24.58,102.12-24.58ZM2064.55,227.35c20.56,0,36.46-4.17,47.71-12.51,11.24-8.34,16.87-21.04,16.87-38.11s-5.92-29.04-17.74-37.68c-11.83-8.63-27.74-12.95-47.71-12.95-10.47,0-19.69,1.12-27.64,3.35-7.96,2.23-14.5,5.58-19.64,10.04-5.14,4.46-8.97,9.8-11.49,16-2.52,6.21-3.78,13.29-3.78,21.24,0,15.32,5.33,27.59,16,36.8,10.66,9.21,26.47,13.82,47.42,13.82Z"/>
      </g>
      <path class="cls-1" d="M270.3,75.77c-1.01-4.87-2.29-9.5-3.82-13.85-4.67-13.29-10.75-23.81-18.19-31.58-7.48-7.77-16.82-14.01-28.02-18.68-11.2-4.67-22.27-7.77-33.28-9.34-11.01-1.53-23.55-2.32-37.66-2.32H0v217.78h150.27c11.82,0,23.29-1.05,34.39-3.1,11.07-2.09,22.11-5.75,33.12-11.04,11.01-5.29,20.54-11.92,28.64-19.92,8.07-7.97,14.6-18.39,19.6-31.26,1.18-3.04,2.19-6.14,3.1-9.37h71.98c-8.49,8.49-16.1,16.79-22.76,24.85-6.7,8.03-13.59,17.7-20.71,28.97-7.15,11.3-13.13,22.73-17.96,34.36-4.83,11.63-8.85,24.92-12.08,39.88-3.2,14.93-5.06,30.6-5.52,46.93h86.65c.69-16.79,3.17-32.86,7.41-48.14,4.25-15.32,9.31-28.41,15.19-39.36,5.88-10.94,12.93-21.36,21.23-31.26,8.3-9.9,15.81-17.77,22.6-23.65,6.79-5.85,14.27-11.43,22.44-16.72,8.17-5.29,13.91-8.82,17.28-10.52,3.33-1.73,6.73-3.4,10.16-5.03.46-.23.82-.33,1.05-.33v-67.31h-195.77ZM174.54,151.67c-8.1,4.44-17.83,6.7-29.23,6.7h-72.83V59.74h72.83c18.22,0,31.55,4.51,39.98,13.52,8.39,9.05,12.57,21,12.57,35.96,0,9.31-1.86,17.6-5.59,24.89-3.72,7.25-9.63,13.1-17.73,17.57Z"/>
    </g>
  </g>
</svg>