<?xml version="1.0" encoding="UTF-8"?>
<svg id="Layer_2" data-name="Layer 2" xmlns="http://www.w3.org/2000/svg" viewBox="0 0 1101.39 318.32">
  <defs>
    <style>
      .cls-1 {
        fill: #fff;
      }
    </style>
  </defs>
  <g id="Layer_1-2" data-name="Layer 1">
    <path class="cls-1" d="M1101.39,159.16c0-86.28-277.41-138-546.94-138.48-4.98-3.45-10.46-6.48-16.54-9.01-11.21-4.68-22.29-7.78-33.3-9.35-11.02-1.54-23.57-2.32-37.69-2.32h-149.44v33.61C139.88,54.05,0,97.89,0,159.16c0,86.69,280,138.49,550.7,138.49,10.16,0,20.33-.08,30.49-.23-.72,6.85-1.24,13.8-1.44,20.9h86.71c.33-8.15,1.11-16.12,2.28-23.93,228.31-12.59,432.64-61.18,432.64-135.23ZM515.49,109.3c0,9.31-1.86,17.62-5.59,24.91-3.72,7.26-9.64,13.11-17.75,17.59-8.11,4.44-17.85,6.7-29.25,6.7h-72.89V59.78h72.89c18.24,0,31.57,4.51,40.01,13.53,8.4,9.05,12.58,21.02,12.58,35.99ZM550.7,281.9C230.7,281.9,15.74,218.44,15.74,159.16c0-43.34,114.91-88.91,301.75-110.29v169.07h150.38c11.83,0,23.3-1.05,34.42-3.11,11.08-2.09,22.13-5.75,33.14-11.05,11.02-5.29,20.56-11.93,28.66-19.94,8.07-7.98,14.61-18.4,19.61-31.28,1.18-3.04,2.19-6.15,3.11-9.38h72.04c-8.5,8.5-16.12,16.8-22.78,24.87-6.7,8.04-13.6,17.71-20.72,28.99-7.16,11.31-13.14,22.75-17.98,34.38-4.84,11.64-8.86,24.94-12.09,39.91-.73,3.4-1.37,6.85-1.96,10.32-10.75.15-21.62.23-32.62.23ZM671.78,278.72c.66-2.88,1.32-5.76,2.11-8.58,4.25-15.33,9.32-28.44,15.2-39.39,5.88-10.95,12.94-21.38,21.25-31.28,8.3-9.9,15.82-17.78,22.62-23.66,6.8-5.85,14.28-11.44,22.46-16.73,8.17-5.3,13.92-8.83,17.29-10.53,3.33-1.73,6.73-3.4,10.16-5.03.46-.23.82-.33,1.05-.33v-67.36h-195.91c-1.01-4.87-2.29-9.51-3.83-13.86-3.54-10.08-7.89-18.56-13.03-25.46,308.67,2.63,514.51,64.64,514.51,122.65,0,51.44-161.92,106.03-413.87,119.56Z"/>
  </g>
</svg>