<?xml version="1.0" encoding="UTF-8"?>
<svg id="Layer_2" data-name="Layer 2" xmlns="http://www.w3.org/2000/svg" viewBox="0 0 464.3 316.88">
  <defs>
    <style>
      .cls-1 {
        fill: #fff;
      }
    </style>
  </defs>
  <g id="Layer_1-2" data-name="Layer 1">
    <path class="cls-1" d="M269.28,75.49c-1.01-4.85-2.28-9.47-3.81-13.8-4.65-13.24-10.7-23.72-18.12-31.46-7.45-7.74-16.76-13.96-27.92-18.61-11.16-4.65-22.19-7.74-33.16-9.31-10.97-1.53-23.46-2.31-37.52-2.31H0v216.96h149.7c11.78,0,23.2-1.04,34.26-3.09,11.03-2.08,22.03-5.73,32.99-11,10.96-5.27,20.47-11.88,28.54-19.85,8.04-7.94,14.54-18.32,19.52-31.14,1.17-3.03,2.18-6.12,3.09-9.34h71.71c-8.46,8.46-16.04,16.72-22.68,24.76-6.67,8-13.54,17.64-20.63,28.86-7.13,11.26-13.08,22.65-17.9,34.23-4.82,11.58-8.82,24.83-12.04,39.73-3.19,14.87-5.04,30.49-5.5,46.76h86.32c.68-16.72,3.16-32.73,7.39-47.96,4.23-15.26,9.27-28.31,15.13-39.21,5.86-10.9,12.88-21.28,21.15-31.14,8.26-9.86,15.75-17.7,22.52-23.56,6.77-5.82,14.22-11.39,22.35-16.66,8.13-5.27,13.86-8.79,17.21-10.48,3.32-1.72,6.7-3.38,10.12-5.01.46-.23.81-.33,1.04-.33v-67.06h-195.03ZM173.88,151.1c-8.07,4.42-17.77,6.67-29.12,6.67h-72.56V59.51h72.56c18.16,0,31.43,4.49,39.83,13.47,8.36,9.01,12.53,20.92,12.53,35.82,0,9.27-1.85,17.54-5.56,24.79-3.71,7.22-9.6,13.05-17.67,17.5Z"/>
  </g>
</svg>