<?xml version="1.0" encoding="UTF-8"?>
<svg id="Layer_2" data-name="Layer 2" xmlns="http://www.w3.org/2000/svg" viewBox="0 0 463.98 430.73">
  <defs>
    <style>
      .cls-1 {
        fill: #fff;
      }
    </style>
  </defs>
  <g id="Layer_1-2" data-name="Layer 1">
    <g>
      <path class="cls-1" d="M348.37,318.32h-90.49l.07-2.69c.45-16.08,2.3-31.78,5.49-46.67,3.21-14.87,7.26-28.23,12.04-39.71,4.78-11.51,10.8-23.02,17.89-34.21,7.1-11.23,14.02-20.92,20.58-28.79,5.37-6.51,11.47-13.28,18.17-20.18h-62.64c-.8,2.68-1.65,5.17-2.58,7.56-5.03,12.95-11.72,23.61-19.89,31.68-8.13,8.03-17.85,14.8-28.9,20.11-10.92,5.25-22.1,8.97-33.25,11.08-11.11,2.06-22.66,3.1-34.34,3.1H0V0h149.59c13.85,0,26.45.78,37.43,2.31,11.02,1.57,22.25,4.72,33.41,9.37,11.29,4.71,20.87,11.1,28.46,18.99,7.58,7.91,13.8,18.69,18.49,32.03,1.31,3.72,2.45,7.71,3.4,11.88h193.2v71.49h-2.36c-3.95,1.88-7.17,3.47-10.07,4.98-3.13,1.58-8.45,4.82-16.79,10.23-7.85,5.09-15.19,10.55-21.8,16.25-6.5,5.62-13.88,13.35-21.95,22.97-7.95,9.49-14.88,19.69-20.6,30.32-5.68,10.58-10.64,23.43-14.73,38.2-4.12,14.83-6.54,30.57-7.21,46.79l-.1,2.51ZM263.27,313.09h80.09c.82-15.74,3.26-31.03,7.28-45.47,4.2-15.14,9.3-28.36,15.17-39.28,5.88-10.95,13.01-21.45,21.19-31.21,8.36-9.97,15.73-17.68,22.54-23.57,6.8-5.85,14.33-11.46,22.37-16.68,8.5-5.51,13.98-8.84,17.25-10.49,2.82-1.47,5.97-3.03,9.59-4.76v-61.82h-192.21l-.43-2.08c-.98-4.71-2.22-9.18-3.67-13.29-4.44-12.64-10.27-22.78-17.33-30.15-7.09-7.37-16.08-13.35-26.7-17.78-10.74-4.48-21.55-7.51-32.12-9.02-10.74-1.5-23.09-2.26-36.7-2.26H5.23v209.13h145.3c11.36,0,22.59-1.01,33.37-3.01,10.69-2.02,21.44-5.6,31.94-10.65,10.53-5.06,19.77-11.49,27.49-19.11,7.64-7.55,13.93-17.59,18.69-29.85,1.08-2.78,2.06-5.73,2.98-8.99l.54-1.9h79.15l-4.47,4.46c-8.33,8.33-15.81,16.5-22.24,24.28-6.42,7.7-13.21,17.2-20.19,28.25-6.93,10.94-12.81,22.19-17.48,33.43-4.65,11.19-8.61,24.24-11.75,38.8-2.95,13.75-4.73,28.21-5.29,43.03ZM145.64,161.11h-74.31V58.8h74.31c18.61,0,32.49,4.76,41.26,14.14,8.68,9.36,13.08,21.86,13.08,37.18,0,9.54-1.95,18.18-5.78,25.69-3.88,7.56-10.11,13.75-18.52,18.39h0c-8.36,4.59-18.46,6.92-30.03,6.92ZM76.57,155.89h69.08c10.67,0,19.93-2.11,27.51-6.27,7.48-4.13,12.99-9.58,16.39-16.2,3.45-6.76,5.21-14.6,5.21-23.3,0-14.15-3.82-25.15-11.68-33.62-7.73-8.27-20.33-12.47-37.43-12.47h-69.08v91.86Z"/>
      <g>
        <path class="cls-1" d="M91.36,373.64l-21.13,56.3h-2.21l21.13-56.3h2.21Z"/>
        <path class="cls-1" d="M114.7,430.73c-5.99,0-10.44-1.79-13.33-5.36-2.89-3.57-4.34-8.73-4.34-15.46,0-7.2,1.58-12.73,4.73-16.6,3.15-3.86,7.67-5.8,13.56-5.8,2.52,0,4.72.43,6.58,1.3,1.87.87,3.42,2.04,4.65,3.51,1.23,1.47,2.14,3.13,2.72,4.97h.16c-.05-1.79-.09-3.52-.12-5.2-.03-1.68-.04-3.34-.04-4.97v-17.11h2.05v59.93h-1.73l-.16-8.91h-.16c-.63,1.73-1.56,3.34-2.8,4.81-1.24,1.47-2.81,2.66-4.73,3.55-1.92.89-4.27,1.34-7.06,1.34ZM114.7,428.76c5.26,0,9-1.72,11.24-5.16,2.23-3.44,3.35-8.24,3.35-14.39v-.24c0-6.31-1.16-11.13-3.47-14.47-2.31-3.34-5.81-5.01-10.49-5.01-5.2,0-9.2,1.7-11.99,5.09-2.79,3.39-4.18,8.5-4.18,15.34,0,6.31,1.27,11.03,3.82,14.15,2.55,3.13,6.45,4.69,11.71,4.69Z"/>
        <path class="cls-1" d="M146.48,373.09c.95,0,1.54.25,1.77.75.24.5.35,1.06.35,1.7,0,.68-.12,1.26-.35,1.73-.24.47-.83.71-1.77.71-.79,0-1.31-.24-1.58-.71-.26-.47-.39-1.05-.39-1.73,0-.63.13-1.2.39-1.7.26-.5.79-.75,1.58-.75ZM147.5,388.31v41.63h-2.05v-41.63h2.05Z"/>
        <path class="cls-1" d="M168.4,398.64l-7.02-10.96h14.04l-7.02,10.96ZM161.38,429.94l7.02-10.96,7.02,10.96h-14.04Z"/>
        <path class="cls-1" d="M207.98,369.54c.79,1.1,1.81,2.41,3.08,3.9s2.6,2.98,4.02,4.46c1.42,1.47,2.71,2.73,3.86,3.79v.47h-1.66c-1.05-.89-2.12-1.85-3.19-2.88-1.08-1.03-2.13-2.08-3.15-3.15-1.03-1.08-2-2.13-2.92-3.15-.92-1.03-1.72-1.98-2.4-2.88v-.55h2.37Z"/>
        <path class="cls-1" d="M254.5,419.37c0,2.31-.58,4.32-1.73,6.03-1.16,1.71-2.89,3.02-5.2,3.94-2.31.92-5.2,1.38-8.67,1.38-2.89,0-5.52-.28-7.89-.83-2.37-.55-4.31-1.17-5.84-1.85v-2.37c2.1,1,4.31,1.76,6.62,2.29,2.31.53,4.68.79,7.1.79,4.78,0,8.23-.84,10.33-2.52,2.1-1.68,3.15-3.97,3.15-6.86,0-2.05-.57-3.69-1.7-4.93-1.13-1.23-2.66-2.23-4.57-3-1.92-.76-4.04-1.48-6.35-2.17-2.42-.74-4.64-1.48-6.66-2.25-2.02-.76-3.63-1.84-4.81-3.23-1.18-1.39-1.77-3.38-1.77-5.95,0-3.26,1.29-5.8,3.86-7.61,2.57-1.81,6.07-2.72,10.49-2.72,2.47,0,4.78.22,6.94.67,2.15.45,4.05,1.01,5.68,1.7l-.87,1.97c-1.47-.74-3.27-1.31-5.4-1.73-2.13-.42-4.25-.63-6.35-.63-3.79,0-6.77.7-8.95,2.09-2.18,1.39-3.27,3.48-3.27,6.27,0,2.16.54,3.8,1.62,4.93,1.08,1.13,2.52,2.01,4.34,2.64,1.81.63,3.77,1.29,5.87,1.97,2.31.74,4.55,1.53,6.7,2.37,2.15.84,3.92,1.98,5.28,3.43,1.37,1.45,2.05,3.51,2.05,6.19Z"/>
        <path class="cls-1" d="M283.12,406.76v1.97h-4.73c-3,0-5.57.35-7.73,1.06-2.16.71-3.8,1.83-4.93,3.35-1.13,1.53-1.7,3.5-1.7,5.91,0,1.84.46,3.5,1.38,4.97.92,1.47,2.34,2.63,4.26,3.47,1.92.84,4.35,1.26,7.29,1.26,2.37,0,4.56-.21,6.58-.63,2.02-.42,4.01-1,5.95-1.73v1.97c-1.37.58-3.14,1.12-5.32,1.62-2.18.5-4.59.75-7.22.75-5.1,0-8.88-1.08-11.35-3.23-2.47-2.15-3.71-4.97-3.71-8.44,0-1.89.33-3.59.99-5.09.66-1.5,1.67-2.77,3.04-3.82,1.37-1.05,3.1-1.84,5.2-2.37v-.16c-3-.89-5.05-2.14-6.15-3.75-1.1-1.6-1.66-3.46-1.66-5.56,0-2.63.66-4.73,1.97-6.31,1.31-1.58,3.04-2.72,5.17-3.43,2.13-.71,4.4-1.06,6.82-1.06,2.57,0,4.77.21,6.58.63,1.81.42,3.67,1,5.56,1.73l-.71,1.89c-1.53-.68-3.27-1.23-5.24-1.66-1.97-.42-4.01-.63-6.11-.63-3.89,0-6.85.76-8.87,2.29-2.02,1.53-3.04,3.71-3.04,6.54s1.09,4.82,3.27,6.27c2.18,1.45,5.56,2.17,10.13,2.17h4.26Z"/>
        <path class="cls-1" d="M308.59,429.94l-16.09-41.63h2.13l11.83,30.75c.47,1.1.87,2.1,1.18,3,.32.89.62,1.73.91,2.52.29.79.56,1.63.83,2.52h.16c.32-.89.6-1.73.87-2.52.26-.79.56-1.63.91-2.52.34-.89.72-1.89,1.14-3l11.83-30.75h2.13l-16.09,41.63h-1.73Z"/>
        <path class="cls-1" d="M350.78,387.52c4.52,0,8.02,1.24,10.49,3.71,2.47,2.47,3.71,6.28,3.71,11.43v27.28h-2.05v-27.2c0-4.63-1.06-7.99-3.19-10.09-2.13-2.1-5.11-3.15-8.95-3.15-4.52,0-8.19,1.35-11,4.06-2.81,2.71-4.22,6.9-4.22,12.58v23.81h-2.05v-41.63h1.66l.32,8.75h.16c.63-1.63,1.56-3.17,2.8-4.61,1.23-1.45,2.86-2.63,4.89-3.55,2.02-.92,4.51-1.38,7.45-1.38Z"/>
        <path class="cls-1" d="M395.96,373.64l-21.13,56.3h-2.21l21.13-56.3h2.21Z"/>
      </g>
    </g>
  </g>
</svg>