<?xml version="1.0" encoding="UTF-8"?>
<svg id="Layer_2" data-name="Layer 2" xmlns="http://www.w3.org/2000/svg" viewBox="0 0 636.51 636.51">
  <defs>
    <style>
      .cls-1 {
        fill: #fff;
      }
    </style>
  </defs>
  <g id="Layer_1-2" data-name="Layer 1">
    <g>
      <path class="cls-1" d="M160.62,478.88C72.06,478.88,0,406.82,0,318.26s72.06-160.62,160.62-160.62,160.62,72.05,160.62,160.62-72.06,160.62-160.62,160.62ZM160.62,163.61c-85.27,0-154.65,69.38-154.65,154.65s69.37,154.65,154.65,154.65,154.65-69.37,154.65-154.65-69.37-154.65-154.65-154.65Z"/>
      <path class="cls-1" d="M318.26,636.51c-88.57,0-160.62-72.05-160.62-160.62s72.06-160.62,160.62-160.62,160.62,72.05,160.62,160.62-72.06,160.62-160.62,160.62ZM318.26,321.24c-85.27,0-154.65,69.37-154.65,154.65s69.37,154.65,154.65,154.65,154.65-69.37,154.65-154.65-69.37-154.65-154.65-154.65Z"/>
      <path class="cls-1" d="M318.26,321.24c-88.57,0-160.62-72.05-160.62-160.62S229.69,0,318.26,0s160.62,72.05,160.62,160.62-72.06,160.62-160.62,160.62ZM318.26,5.97c-85.27,0-154.65,69.37-154.65,154.65s69.37,154.65,154.65,154.65,154.65-69.38,154.65-154.65S403.53,5.97,318.26,5.97Z"/>
      <path class="cls-1" d="M475.89,478.88c-88.57,0-160.62-72.05-160.62-160.62s72.06-160.62,160.62-160.62,160.62,72.05,160.62,160.62-72.06,160.62-160.62,160.62ZM475.89,163.61c-85.27,0-154.65,69.38-154.65,154.65s69.37,154.65,154.65,154.65,154.65-69.37,154.65-154.65-69.37-154.65-154.65-154.65Z"/>
    </g>
  </g>
</svg>