<?xml version="1.0" encoding="UTF-8"?>
<svg id="Layer_2" data-name="Layer 2" xmlns="http://www.w3.org/2000/svg" viewBox="0 0 1623.19 567.98">
  <defs>
    <style>
      .cls-1 {
        fill: #fff;
      }
    </style>
  </defs>
  <g id="Layer_1-2" data-name="Layer 1">
    <g>
      <g>
        <path d="M116.68,422.7c8.28,0,16.04.59,23.28,1.76,7.24,1.17,14.66,3.41,22.25,6.73,7.59,3.31,14.04,7.59,19.35,12.83,5.31,5.24,9.66,12.28,13.04,21.11,3.38,8.83,5.07,19.04,5.07,30.63,0,23.32-7.35,41.18-22.04,53.6s-35.77,18.63-63.22,18.63c-10.76,0-20.66-1.35-29.7-4.04-9.04-2.69-16.66-6.31-22.87-10.86-6.21-4.55-11.49-9.9-15.83-16.04-4.35-6.14-7.52-12.59-9.52-19.35-2-6.76-3-13.79-3-21.11,0-22.76,7.45-40.77,22.35-54.01,14.9-13.24,35.18-19.87,60.84-19.87ZM116.68,530.52h5.38c1.38,0,3.34-.24,5.9-.72,2.55-.48,4.69-1.14,6.42-1.97,1.72-.83,3.65-2.07,5.79-3.73,2.14-1.66,3.83-3.69,5.07-6.1,1.24-2.41,2.31-5.52,3.21-9.31.9-3.79,1.35-8.1,1.35-12.93s-.45-9.21-1.35-13.14c-.9-3.93-1.97-7.1-3.21-9.52-1.24-2.41-2.93-4.52-5.07-6.31-2.14-1.79-4.07-3.1-5.79-3.93-1.73-.83-3.86-1.45-6.42-1.86-2.55-.41-4.52-.65-5.9-.72-1.38-.07-3.17-.1-5.38-.1h-3c-.76,0-1.97.07-3.62.21-1.66.14-3.07.38-4.24.72-1.17.35-2.62.8-4.35,1.35-1.73.55-3.21,1.31-4.45,2.28-1.24.97-2.62,2.07-4.14,3.31-1.52,1.24-2.76,2.79-3.73,4.66-.97,1.86-1.9,3.9-2.79,6.1-.9,2.21-1.59,4.83-2.07,7.86-.48,3.04-.72,6.35-.72,9.93,0,4.69.41,8.87,1.24,12.52.83,3.66,1.86,6.66,3.1,9,1.24,2.35,2.9,4.38,4.97,6.1,2.07,1.73,3.93,2.97,5.59,3.73,1.66.76,3.79,1.38,6.42,1.86,2.62.49,4.62.72,6,.72h5.79Z"/>
        <path d="M302.1,520.17c-4.14.55-8.76,1.17-13.87,1.86-5.11.69-8.69,1.17-10.76,1.45-2.07.28-4.17.72-6.31,1.35-2.14.62-3.83,1.34-5.07,2.17h103.68v40.98h-158.73v-17.59h.21c0-7.04,1.03-13.48,3.1-19.35,2.07-5.86,4.55-10.83,7.45-14.9,2.9-4.07,6.9-7.76,12-11.07,5.1-3.31,9.66-5.9,13.66-7.76,4-1.86,9.28-3.65,15.83-5.38,6.55-1.72,11.59-2.9,15.11-3.52,3.52-.62,8.38-1.48,14.59-2.59.55,0,.96-.07,1.24-.21,7.45-1.1,13.35-2.41,17.69-3.93,4.35-1.52,7.38-3.21,9.11-5.07,1.72-1.86,2.59-4.1,2.59-6.73,0-1.24-.38-2.41-1.14-3.52-.76-1.1-2.11-2.24-4.04-3.41-1.93-1.17-4.9-2.1-8.9-2.79-4-.69-8.9-1.03-14.69-1.03-4.55,0-8.62.31-12.21.93-3.59.62-6.52,1.38-8.79,2.28-2.28.9-4.21,2.14-5.79,3.73-1.59,1.59-2.76,2.9-3.52,3.93-.76,1.03-1.38,2.48-1.86,4.35-.49,1.86-.72,3.1-.72,3.73s-.07,1.62-.21,3l-29.18-.21h-21.32c0-1.52.1-3.31.31-5.38.21-2.07,1.24-5.59,3.1-10.55,1.86-4.97,4.38-9.59,7.55-13.87,14.49-19.17,38.7-28.77,72.64-28.77,9.38,0,17.97.59,25.76,1.76,7.79,1.17,14.31,2.69,19.56,4.55,5.24,1.86,9.9,4.14,13.97,6.83,4.07,2.69,7.28,5.42,9.62,8.17,2.34,2.76,4.24,5.79,5.69,9.11,1.45,3.31,2.41,6.31,2.9,9,.48,2.69.72,5.42.72,8.17,0,4.28-.55,8.28-1.66,12-1.11,3.73-2.45,6.97-4.04,9.73-1.59,2.76-3.8,5.38-6.62,7.86-2.83,2.48-5.45,4.55-7.86,6.21-2.42,1.66-5.62,3.21-9.62,4.66-4,1.45-7.35,2.62-10.04,3.52-2.69.9-6.28,1.79-10.76,2.69-4.49.9-7.9,1.55-10.24,1.97-2.35.41-5.73.97-10.14,1.66Z"/>
        <path d="M433.1,484.16h-41.6v-36.22h41.6v36.22ZM433.1,567.98h-41.6v-36.01h41.6v36.01Z"/>
        <path d="M603.62,511.69h20.28v40.98h-20.28v15.31h-47.8v-15.31h-104.09v-48.22c.14-.14,6.79-5.24,19.97-15.31,13.17-10.07,28.73-21.97,46.67-35.7,17.93-13.73,31.46-24.04,40.56-30.94h44.7v89.19ZM508.43,511.89h47.39v-38.91l-47.39,38.91Z"/>
        <path d="M762.97,475.68c7.17,2.35,13.24,5.59,18.21,9.73s8.72,8.97,11.28,14.49c2.55,5.52,3.83,11.66,3.83,18.42,0,5.38-.72,10.31-2.17,14.8-1.45,4.48-3.31,8.35-5.59,11.59-2.28,3.24-5.28,6.14-9,8.69-3.73,2.55-7.28,4.62-10.66,6.21-3.38,1.59-7.45,2.97-12.21,4.14-4.76,1.17-8.83,2-12.21,2.48-3.38.49-7.49.9-12.31,1.24-4.83.35-8.42.52-10.76.52h-10.97c-6.62,0-12.9-.21-18.83-.62-5.93-.41-11.11-.93-15.52-1.55-4.42-.62-8.56-1.38-12.42-2.28-3.86-.9-7.11-1.79-9.73-2.69-2.62-.9-5-1.89-7.14-3-2.14-1.1-3.86-2.1-5.17-3-1.31-.9-2.45-1.83-3.42-2.79-.97-.96-1.62-1.72-1.97-2.28-.35-.55-.66-1.03-.93-1.45l31.46-26.49c.28.28.45.48.52.62.07.14.58.55,1.55,1.24.96.69,2.07,1.28,3.31,1.76,1.24.48,3.07,1.11,5.48,1.86,2.41.76,5.07,1.38,7.97,1.86,2.9.49,6.62.9,11.18,1.24,4.55.35,9.52.52,14.9.52,14.49,0,24.38-.83,29.7-2.48,5.31-1.66,7.97-4.69,7.97-9.11,0-2.21-.66-4.1-1.97-5.69-1.31-1.58-3.41-2.9-6.31-3.93s-6.66-1.79-11.28-2.28c-4.62-.48-10.24-.72-16.87-.72-18.21,0-29.94,2.83-35.18,8.48l-41.8-10.35,10.14-63.74,3.31-18.42h138.24l-1.03,38.7h-99.13l-3.31,20.07c1.66-3.45,6.28-6.24,13.87-8.38,7.59-2.14,14.83-3.21,21.73-3.21,17.66,0,32.08,1.93,43.25,5.79Z"/>
        <path d="M905.96,422.7h102.02c2.76,0,5.38.07,7.86.21,2.48.14,5.97.59,10.45,1.34,4.48.76,8.55,1.86,12.21,3.31,3.65,1.45,7.55,3.55,11.69,6.31,4.14,2.76,7.62,6.04,10.45,9.83,2.83,3.8,5.17,8.69,7.04,14.69,1.86,6,2.79,12.69,2.79,20.07s-.86,14.11-2.59,20.18c-1.73,6.07-3.97,11.14-6.73,15.21-2.76,4.07-6.07,7.66-9.93,10.76-3.86,3.1-7.66,5.52-11.38,7.24-3.72,1.73-7.62,3.1-11.69,4.14-4.07,1.03-7.55,1.73-10.45,2.07-2.9.35-5.59.52-8.07.52h-55.46v29.39h-48.22v-145.28ZM1006.54,495.75c12.69,0,19.04-5.24,19.04-15.73,0-2.34-.31-4.35-.93-6-.62-1.66-1.55-3-2.79-4.04-1.24-1.03-2.48-1.89-3.73-2.59-1.24-.69-2.73-1.14-4.45-1.35-1.73-.21-3.14-.38-4.24-.52-1.11-.14-2.35-.21-3.72-.21h-51.53v30.42h52.36Z"/>
        <path d="M1205.62,567.98h-39.73l-35.8-63.74v63.74h-48.22v-145.28h57.53l46.98,80.5,46.98-80.5h57.74v145.28h-48.22v-64.15l-37.25,64.15Z"/>
      </g>
      <g>
        <rect width="1315.93" height="339.58"/>
        <g>
          <path class="cls-1" d="M138.32,76.12c16.86,0,31.31.4,43.33,1.21,12.02.81,22.7,2.29,32.03,4.44,9.33,2.15,16.82,4.8,22.47,7.94,5.65,3.14,10.32,7.4,14,12.78,3.68,5.38,6.23,11.35,7.67,17.9,1.43,6.55,2.15,14.58,2.15,24.09h-66.75c0-2.87-.5-5.11-1.48-6.73-.99-1.61-3.19-3.18-6.59-4.71-3.41-1.52-8.79-2.6-16.15-3.23-7.36-.63-17.05-.94-29.07-.94-15.97,0-27.63.36-34.99,1.08-7.36.72-12.02,1.61-14,2.69-1.98,1.08-2.96,2.96-2.96,5.65.18,2.33,2.64,3.9,7.4,4.71,4.75.81,19.06,2.2,42.93,4.17.36,0,.63.09.81.27,47.37,3.77,77.42,7.18,90.17,10.23,16.69,3.95,27.45,10.68,32.3,20.19,3.23,6.46,4.84,15.79,4.84,27.99,0,8.61-.58,15.7-1.75,21.26-1.17,5.56-3.5,10.68-7,15.34-3.5,4.67-8.03,8.3-13.59,10.9-5.56,2.6-13.28,4.8-23.15,6.59-9.87,1.8-21.13,3.01-33.78,3.63-12.65.63-28.4.94-47.24.94-12.92,0-24.09-.18-33.51-.54-9.42-.36-18.21-.98-26.38-1.88-8.17-.9-14.94-2.06-20.32-3.5-5.38-1.43-10.23-3.41-14.53-5.92-4.31-2.51-7.67-5.25-10.09-8.21s-4.44-6.77-6.06-11.44c-1.62-4.66-2.69-9.6-3.23-14.8-.54-5.2-.81-11.39-.81-18.57h64.87c0,3.05.49,5.38,1.48,7,.98,1.61,3.36,2.96,7.13,4.04,3.77,1.08,9.02,1.8,15.75,2.15,6.73.36,16.28.54,28.66.54h6.46c20.46,0,32.88-.36,37.28-1.08,4.39-.71,6.59-3.05,6.59-7,0-2.33-1.53-3.86-4.58-4.58-3.05-.71-11.49-1.52-25.3-2.42-10.05-.71-18.4-1.35-25.03-1.88-10.59-.9-18.71-1.61-24.36-2.15-5.65-.54-12.65-1.3-20.99-2.29-8.34-.98-14.67-1.97-18.97-2.96-4.31-.98-9.42-2.24-15.34-3.77-5.92-1.52-10.36-3.27-13.32-5.25-2.96-1.97-6.19-4.31-9.69-7-3.5-2.69-6.01-5.74-7.54-9.15-1.53-3.41-2.87-7.31-4.04-11.71-1.17-4.39-1.75-9.19-1.75-14.4,0-6.28.45-11.93,1.35-16.96.9-5.02,2.15-9.51,3.77-13.46,1.62-3.94,3.86-7.44,6.73-10.5,2.87-3.05,5.92-5.69,9.15-7.94,3.23-2.24,7.4-4.13,12.52-5.65,5.11-1.52,10.23-2.73,15.34-3.63,5.11-.9,11.44-1.61,18.97-2.15s14.94-.9,22.21-1.08c7.27-.18,15.92-.27,25.97-.27Z"/>
          <path class="cls-1" d="M280.44,75.59h208.59v52.48h-145.88v16.69h136.73v50.33h-136.73v16.96h145.88v52.48h-208.59V75.59Z"/>
          <path class="cls-1" d="M505.98,75.59h132.69c3.59,0,7,.09,10.23.27,3.23.18,7.76.77,13.59,1.75,5.83.99,11.12,2.42,15.88,4.31,4.75,1.88,9.82,4.62,15.21,8.21,5.38,3.59,9.91,7.85,13.59,12.78,3.67,4.94,6.73,11.3,9.15,19.11,2.42,7.81,3.63,16.51,3.63,26.11s-1.12,18.35-3.36,26.24c-2.25,7.9-5.16,14.49-8.75,19.78-3.59,5.29-7.9,9.96-12.92,14-5.03,4.04-9.96,7.18-14.8,9.42-4.84,2.25-9.92,4.04-15.21,5.38-5.29,1.35-9.82,2.25-13.59,2.69-3.77.45-7.27.67-10.5.67h-72.13v38.22h-62.71V75.59ZM636.79,170.6c16.51,0,24.76-6.82,24.76-20.46,0-3.05-.4-5.65-1.21-7.81-.81-2.15-2.02-3.9-3.63-5.25-1.62-1.35-3.23-2.46-4.84-3.36-1.62-.9-3.55-1.48-5.79-1.75-2.25-.27-4.08-.49-5.52-.67-1.44-.18-3.05-.27-4.84-.27h-67.02v39.57h68.09Z"/>
          <path class="cls-1" d="M981.03,202.36c-5.38.72-11.4,1.53-18.03,2.42-6.64.9-11.3,1.53-14,1.88-2.69.36-5.43.94-8.21,1.75-2.78.81-4.98,1.75-6.59,2.83h134.84v53.29h-206.44v-22.88h.27c0-9.15,1.35-17.54,4.04-25.17,2.69-7.62,5.92-14.08,9.69-19.38,3.77-5.29,8.97-10.09,15.61-14.4,6.64-4.31,12.56-7.67,17.76-10.09,5.2-2.42,12.07-4.75,20.59-7,8.52-2.24,15.07-3.77,19.65-4.58,4.58-.81,10.9-1.93,18.97-3.36.71,0,1.25-.09,1.62-.27,9.69-1.43,17.36-3.14,23.01-5.11,5.65-1.97,9.6-4.17,11.84-6.59,2.24-2.42,3.36-5.34,3.36-8.75,0-1.61-.5-3.14-1.48-4.58-.99-1.43-2.74-2.91-5.25-4.44-2.51-1.52-6.37-2.73-11.57-3.63-5.21-.9-11.57-1.35-19.11-1.35-5.92,0-11.22.4-15.88,1.21-4.67.81-8.48,1.8-11.44,2.96-2.96,1.17-5.48,2.78-7.54,4.84-2.06,2.06-3.59,3.77-4.58,5.11-.99,1.35-1.8,3.23-2.42,5.65-.63,2.42-.94,4.04-.94,4.84s-.09,2.11-.27,3.9l-37.95-.27h-27.72c0-1.97.13-4.31.4-7,.27-2.69,1.61-7.27,4.04-13.73,2.42-6.46,5.69-12.47,9.82-18.03,18.84-24.94,50.33-37.41,94.47-37.41,12.2,0,23.37.77,33.51,2.29,10.14,1.53,18.61,3.5,25.44,5.92,6.82,2.42,12.87,5.38,18.17,8.88,5.29,3.5,9.46,7.04,12.52,10.63,3.05,3.59,5.52,7.54,7.4,11.84,1.88,4.31,3.14,8.21,3.77,11.71.63,3.5.94,7.04.94,10.63,0,5.56-.72,10.77-2.15,15.61-1.44,4.84-3.19,9.06-5.25,12.65-2.06,3.59-4.94,7-8.61,10.23-3.68,3.23-7.09,5.92-10.23,8.07-3.14,2.15-7.31,4.17-12.52,6.06-5.21,1.88-9.55,3.41-13.05,4.58-3.5,1.17-8.17,2.33-14,3.5-5.83,1.17-10.27,2.02-13.32,2.56-3.05.54-7.45,1.26-13.19,2.15Z"/>
          <path class="cls-1" d="M1081.96,75.59h209.13v52.48c-.18,0-.45.09-.81.27-2.69,1.26-5.34,2.56-7.94,3.9-2.6,1.35-7.09,4.08-13.46,8.21-6.37,4.13-12.2,8.48-17.5,13.05-5.29,4.58-11.17,10.72-17.63,18.44-6.46,7.72-11.98,15.84-16.55,24.36-4.58,8.52-8.52,18.75-11.84,30.68-3.32,11.94-5.25,24.45-5.79,37.55h-67.56c.36-12.74,1.79-24.94,4.31-36.6,2.51-11.66,5.65-22.02,9.42-31.09,3.77-9.06,8.43-17.99,14-26.78,5.56-8.79,10.94-16.33,16.15-22.61,5.2-6.28,11.12-12.74,17.76-19.38h-111.7v-52.48Z"/>
        </g>
        <g>
          <path d="M1408.6,131.05h-15.63c-.18-.28-.42-.65-.72-1.14-.3-.48-.84-1.56-1.62-3.24-.78-1.67-1.46-3.41-2.03-5.2-.58-1.79-1.11-4.07-1.62-6.85-.51-2.78-.76-5.59-.76-8.43s.24-5.59.72-8.23c.48-2.64,1.04-4.84,1.69-6.61.64-1.77,1.3-3.32,1.96-4.65.67-1.33,1.23-2.32,1.69-2.96l.69-.89h15.63c-.23.18-.52.49-.86.93-.34.44-.96,1.41-1.86,2.93-.89,1.51-1.68,3.12-2.34,4.82-.67,1.7-1.27,3.9-1.82,6.61-.55,2.71-.83,5.5-.83,8.36s.26,5.67.79,8.4c.53,2.73,1.17,5.03,1.93,6.88.76,1.86,1.51,3.52,2.27,4.99.76,1.47,1.39,2.55,1.89,3.24l.83,1.03Z"/>
          <path d="M1412.32,82.72h63.82v15.97h-23.89v32.36h-15.97v-32.36h-23.96v-15.97Z"/>
          <path d="M1533.76,98.97c1.01,2.52,1.66,5.9,1.96,10.12.3,4.22.45,10.49.45,18.79v3.17h-16.04v-15.73c0-.48-.02-1.18-.07-2.1-.05-.92-.13-1.64-.24-2.17-.12-.53-.29-1.19-.52-2-.23-.8-.5-1.45-.83-1.93s-.73-1.01-1.24-1.58c-.5-.57-1.08-1.01-1.72-1.31-.64-.3-1.41-.55-2.31-.76-.89-.21-1.87-.31-2.93-.31-6.52,0-11.29,1.42-14.32,4.27v23.61h-16.04v-48.19h16.04v13.98c5.14-3.95,11.36-5.92,18.66-5.92,1.7,0,3.18.03,4.44.1,1.26.07,2.72.26,4.37.59,1.65.32,3.09.76,4.3,1.31,1.22.55,2.38,1.34,3.48,2.38s1.95,2.26,2.55,3.68Z"/>
          <path d="M1581.26,91.12h15.83v39.93h-15.83v-6.13c-4.04,4.04-9.89,6.06-17.56,6.06-6.2,0-11.05-.68-14.56-2.03-3.51-1.35-6.12-3.84-7.81-7.47-1.24-2.62-2.07-5.85-2.48-9.71s-.62-9.68-.62-17.49l.07-3.17h15.83v13.36c0,1.15.01,2.02.03,2.62.02.6.11,1.45.28,2.55.16,1.1.38,1.96.65,2.58s.7,1.33,1.27,2.13c.57.8,1.26,1.41,2.07,1.82.8.41,1.83.78,3.1,1.1,1.26.32,2.7.48,4.3.48,5.65,0,10.79-2.09,15.42-6.26v-20.38Z"/>
          <path d="M1616.44,131.05h-15.63c.09-.09.2-.21.31-.34.11-.14.34-.47.69-1,.34-.53.69-1.07,1.03-1.62.34-.55.75-1.28,1.21-2.2.46-.92.89-1.86,1.31-2.82s.81-2.09,1.21-3.37c.39-1.28.73-2.59,1.03-3.92.3-1.33.53-2.8.69-4.41.16-1.61.24-3.24.24-4.89,0-2.85-.26-5.61-.79-8.3-.53-2.68-1.17-4.91-1.93-6.68-.76-1.77-1.5-3.34-2.24-4.72-.73-1.38-1.38-2.39-1.93-3.03l-.83-.89h15.63c.18.18.42.49.72.93.3.44.84,1.4,1.62,2.89.78,1.49,1.47,3.08,2.07,4.75.6,1.68,1.14,3.84,1.62,6.51.48,2.66.72,5.42.72,8.26s-.23,5.65-.69,8.4c-.46,2.75-1.02,5.07-1.69,6.95-.67,1.88-1.33,3.57-2,5.06-.67,1.49-1.23,2.61-1.69,3.34l-.69,1.1Z"/>
        </g>
      </g>
    </g>
  </g>
</svg>