<?xml version="1.0" encoding="UTF-8"?>
<svg id="Layer_2" data-name="Layer 2" xmlns="http://www.w3.org/2000/svg" viewBox="0 0 332.78 332.78">
  <defs>
    <style>
      .cls-1 {
        fill-rule: evenodd;
      }

      .cls-1, .cls-2 {
        fill: #fff;
      }
    </style>
  </defs>
  <g id="Layer_1-2" data-name="Layer 1">
    <g>
      <path class="cls-1" d="M130.21,250.97l-4.97,8.6c-1.37,2.37-4.41,3.19-6.79,1.82l-8.6-4.97c-2.37-1.37-3.19-4.41-1.82-6.78l4.97-8.6c1.37-2.37,4.41-3.19,6.78-1.82l8.6,4.97c2.37,1.37,3.19,4.41,1.82,6.78Z"/>
      <path class="cls-1" d="M166.7,269.82l-8.36-12.81c-.46-.7-.49-1.59-.09-2.32.4-.73,1.17-1.19,2.01-1.19h16.72c.84,0,1.61.46,2.01,1.19.4.73.37,1.62-.09,2.32l-8.36,12.81c-.42.64-1.14,1.03-1.91,1.03s-1.49-.39-1.91-1.03Z"/>
      <path class="cls-1" d="M215.36,241.47l6.96.73c1.86.2,3.38,1.57,3.77,3.4l1.46,6.85c.39,1.83-.44,3.7-2.06,4.64l-6.06,3.5c-1.62.93-3.66.72-5.05-.53l-5.2-4.68c-1.39-1.25-1.82-3.26-1.06-4.96l2.85-6.39c.76-1.71,2.53-2.73,4.39-2.54Z"/>
      <path class="cls-1" d="M108.45,221.01l-.35-1.07c-.1-.3.06-.61.36-.71l2.14-.7c.3-.1.61.06.71.36l.35,1.07c.08.24.77,2.82,1.87,4.86.3.57.64,1.09,1.01,1.47.08.08.16.16.24.22.04.03.08.07.13.08.12,0,.2-.07.29-.15.18-.17.34-.41.51-.67.91-1.39,1.63-3.6,2.37-5.8.84-2.5,1.71-4.98,2.75-6.58,1.03-1.58,2.31-2.39,3.7-2.37,1.36.02,2.63.84,3.65,2.4,1.04,1.59,1.91,4.06,2.75,6.54.74,2.18,1.47,4.37,2.38,5.77.17.27.34.51.52.69.1.09.2.17.32.17.12,0,.21-.07.3-.16.18-.17.34-.41.52-.68.91-1.4,1.64-3.59,2.38-5.78.85-2.48,1.72-4.96,2.76-6.55,1.03-1.57,2.3-2.39,3.66-2.39,1.38,0,2.66.81,3.69,2.38,1.04,1.59,1.9,4.07,2.74,6.56.74,2.19,1.45,4.39,2.36,5.78.17.26.34.51.52.68.1.09.19.16.31.16.13,0,.24-.08.34-.17.19-.17.35-.42.53-.69.91-1.4,1.63-3.58,2.36-5.76.84-2.48,1.7-4.95,2.74-6.54,1.02-1.56,2.28-2.39,3.66-2.4,1.61-.02,2.96.93,3.98,2.58,1.05,1.71,1.78,4.27,2.47,6.36.61,1.86,1.17,4.11,2.1,5.62.18.3.37.57.59.77.16.14.34.24.56.24.11,0,.2-.07.29-.15.18-.17.34-.41.51-.67.91-1.39,1.63-3.6,2.37-5.8.84-2.5,1.71-4.98,2.75-6.58,1.03-1.58,2.32-2.39,3.7-2.37,1.36.02,2.63.84,3.65,2.4,1.04,1.59,1.91,4.06,2.75,6.54.74,2.18,1.47,4.37,2.38,5.77.18.27.34.51.52.69.1.09.2.17.32.17.12,0,.21-.07.3-.16.18-.17.34-.41.52-.68.91-1.4,1.64-3.59,2.38-5.78.85-2.48,1.72-4.96,2.76-6.55,1.03-1.57,2.3-2.39,3.66-2.39,1.38,0,2.66.81,3.69,2.38,1.04,1.59,1.9,4.07,2.74,6.56.74,2.19,1.45,4.39,2.36,5.78.17.26.34.51.52.68.1.09.19.16.31.16.13,0,.24-.08.34-.17.19-.17.35-.42.53-.69.91-1.4,1.62-3.58,2.36-5.76.84-2.48,1.7-4.95,2.74-6.54,1.02-1.56,2.28-2.39,3.66-2.4,1.27-.02,2.47.68,3.45,1.93,1.54,1.98,2.57,5.52,3.02,7.07l.31,1.08c.09.3-.09.61-.39.7l-2.17.62c-.3.09-.61-.09-.7-.39l-.31-1.08c-.33-1.13-.98-3.53-1.99-5.26-.26-.44-.54-.84-.85-1.11-.11-.09-.2-.19-.32-.19-.13,0-.24.08-.35.18-.19.18-.36.42-.53.69-.92,1.4-1.63,3.59-2.36,5.77-.84,2.48-1.69,4.94-2.74,6.53-1.02,1.56-2.29,2.38-3.67,2.4-1.39.01-2.66-.8-3.69-2.37-1.04-1.59-1.9-4.07-2.74-6.56-.74-2.19-1.45-4.39-2.37-5.79-.17-.27-.34-.51-.52-.69-.1-.09-.2-.17-.33-.17s-.22.08-.32.17c-.18.17-.35.42-.52.69-.92,1.4-1.64,3.61-2.39,5.79-.85,2.48-1.72,4.96-2.75,6.54-1.03,1.57-2.3,2.38-3.67,2.37-1.36,0-2.63-.82-3.65-2.39-1.04-1.59-1.9-4.05-2.75-6.53-.74-2.18-1.47-4.38-2.38-5.78-.18-.27-.34-.52-.53-.7-.1-.1-.2-.17-.33-.17-.12,0-.21.07-.31.16-.18.17-.34.41-.52.68-.92,1.4-1.63,3.61-2.37,5.81-.84,2.5-1.71,4.98-2.75,6.57-1.04,1.58-2.32,2.38-3.7,2.35-1.65-.03-2.97-1-3.96-2.62-1.04-1.7-1.73-4.23-2.43-6.32-.61-1.86-1.21-4.14-2.14-5.65-.18-.3-.36-.57-.57-.76-.14-.13-.29-.21-.48-.21-.14,0-.24.08-.35.18-.19.18-.35.42-.53.69-.92,1.4-1.63,3.59-2.36,5.77-.84,2.48-1.69,4.94-2.73,6.53-1.02,1.56-2.29,2.38-3.67,2.4-1.38.01-2.66-.8-3.69-2.37-1.04-1.59-1.9-4.07-2.74-6.56-.74-2.19-1.45-4.39-2.37-5.79-.17-.27-.34-.51-.52-.69-.1-.09-.2-.17-.32-.17s-.22.08-.32.17c-.18.17-.35.42-.52.69-.92,1.4-1.64,3.61-2.39,5.79-.85,2.48-1.72,4.96-2.75,6.54-1.03,1.57-2.3,2.38-3.67,2.37-1.36,0-2.63-.82-3.65-2.39-1.04-1.59-1.91-4.05-2.75-6.53-.74-2.18-1.47-4.38-2.39-5.78-.18-.27-.34-.52-.53-.7-.1-.1-.2-.17-.33-.17-.12,0-.21.07-.31.16-.18.17-.34.41-.52.68-.92,1.4-1.63,3.61-2.38,5.81-.84,2.5-1.71,4.98-2.75,6.57-1.04,1.58-2.32,2.38-3.7,2.35-1.27-.03-2.56-.89-3.57-2.36-1.63-2.35-2.72-6.28-2.82-6.59Z"/>
      <path class="cls-1" d="M194.81,190.51l-56.88.27c10.01-8.88,13.98-18.67,11.64-22.28-3.89-5.99-28.34,2.93-33.32-7.97-1.77-3.89,1.29-7.98,2.79-8.83,3.95-2.23,28.97-4.7,33.04-10.02,4.08-5.32-34.22-7.79-41.35-9.05-7.12-1.27-41.86-9.22-38.79-21.7,2.89-11.76,25.08-.93,26.32-.34,1.72.81,11.71,7.13,26.91,6.41,7.77-.37,6.17-3.27,2.35-10.07-8.3-14.77-8.98-15.33-9.36-17.95-1.05-7.37,11.22-18.99,20.32-3.07,2.67,4.67,11.73,24.33,16.39,23.86,3.64-.37,2.51-3.06,5.96-17.78,2.15-9.16,19.84-9.66,17.07,6.27-.09.53-6.3,19.41.97,26.34,8.67,8.27,49.09,2.59,55.93,11.07,3.94,4.89,3.44,17.01-5.11,20.59-12.54,5.24-14.89,4.29-21.39,9.86-10.28,8.81-13.05,22.21-13.5,24.39Z"/>
      <path class="cls-1" d="M128.56,114.22c0-.08,0-.21-.03-.3-.06-.33-.18-.69-.34-1.09-.53-1.31-1.43-2.91-2.52-4.85-8.62-15.34-9.22-15.97-9.61-18.69-.45-3.15.99-6.97,3.67-9.73,2.7-2.78,6.56-4.45,10.67-3.47,3.27.78,6.83,3.3,9.96,8.77,1.85,3.23,6.77,13.73,11.15,19.57.83,1.11,1.63,2.04,2.39,2.67.29.24.76.49.85.54.2-.02.37-.02.49-.11.13-.1.17-.27.25-.48.13-.35.25-.77.37-1.27.6-2.56,1.19-6.91,2.91-14.26.94-4.01,4.22-6.75,7.99-7.69,3.76-.93,7.94-.07,10.67,2.89,2.22,2.4,3.58,6.28,2.59,11.93-.05.31-2.29,7.09-2.51,13.93-.13,4.02.34,8.1,2.85,10.49,1.85,1.77,5.38,2.69,9.69,3.37,7.2,1.14,16.47,1.35,24.77,1.94,5.75.41,11.06,1,15,2.16,3.05.9,5.34,2.18,6.66,3.8,2.29,2.84,3.39,7.75,2.57,12.49-.82,4.78-3.52,9.32-8.52,11.41-12.19,5.1-14.5,4.09-20.82,9.51-9.77,8.37-12.37,21.13-12.8,23.2-.2.99-1.07,1.7-2.08,1.7l-56.88.27c-.89,0-1.69-.54-2.01-1.37-.32-.83-.09-1.77.58-2.36,5.67-5.04,9.33-10.35,10.84-14.56.45-1.24.7-2.37.73-3.34.02-.65-.04-1.22-.31-1.63-.17-.27-.47-.44-.81-.59-.6-.26-1.33-.42-2.16-.54-3.07-.41-7.23-.11-11.45-.04-4.63.08-9.3-.14-12.88-1.53-2.77-1.08-4.94-2.84-6.17-5.54-1.17-2.56-.8-5.19.17-7.32.96-2.12,2.53-3.69,3.52-4.25.81-.46,2.4-.97,4.5-1.46,4.27-1.01,10.92-2.14,16.83-3.59,3.24-.79,6.25-1.68,8.47-2.7.71-.33,1.33-.65,1.82-.99-.9-.4-2.42-1.04-3.84-1.4-10.27-2.62-30.44-4.07-35.41-4.96-5.12-.91-24.1-5.23-33.96-12.1-4.98-3.47-7.65-7.69-6.54-12.21,1.43-5.84,6.52-7.51,12.42-6.99,7.45.66,16.11,4.86,16.89,5.22,1.65.78,11.26,6.9,25.9,6.2,1.08-.05,1.94-.15,2.63-.32.23-.06.44-.12.62-.2.07-.03.17-.09.23-.13Z"/>
      <circle class="cls-2" cx="218.58" cy="92.79" r="9.64" transform="translate(24.74 229.95) rotate(-58.28)"/>
      <polygon class="cls-1" points="218.58 83.15 220.52 83.34 222.34 83.91 223.98 84.8 225.4 85.97 226.57 87.39 227.46 89.03 228.03 90.85 228.23 92.79 228.03 94.73 227.46 96.54 226.57 98.19 225.4 99.61 223.98 100.78 222.34 101.67 220.52 102.24 218.58 102.43 216.64 102.24 214.83 101.67 213.19 100.78 211.76 99.61 210.59 98.19 209.7 96.54 209.14 94.73 208.94 92.79 209.14 90.85 209.7 89.03 210.59 87.39 211.76 85.97 213.19 84.8 214.83 83.91 216.64 83.34 218.58 83.15"/>
      <path class="cls-1" d="M56.16,82.33l-13.21-11.14,8.49-10.06,2.92,2.46-5.32,6.31,2.21,1.87,5.13-6.08,2.9,2.45-5.13,6.08,2.25,1.9,5.45-6.46,2.92,2.47-8.62,10.21ZM49.64,91.88l-11.21-7.45-2.87,4.31-3.18-2.12,8.46-12.73,3.18,2.12-2.87,4.31,11.21,7.45-2.73,4.1ZM39.08,111.31l-15.44-7.76,2.22-4.43,11.36-.93-8.7-4.37,2.2-4.38,15.44,7.75-2.22,4.43-10.93,1.15,8.27,4.15-2.2,4.38ZM33.72,126.17l-16.28-5.79,4.41-12.4,3.6,1.28-2.77,7.78,2.73.97,2.67-7.5,3.58,1.27-2.67,7.5,2.78.99,2.83-7.97,3.6,1.28-4.48,12.59ZM31.67,136.15c-.36,1.61-1.03,2.97-2.01,4.08-.98,1.11-2.2,1.87-3.67,2.31-1.47.43-3.13.44-4.98.03-1.77-.39-3.24-1.08-4.41-2.06-1.17-.98-1.98-2.18-2.43-3.62-.45-1.43-.49-3.02-.1-4.76.53-2.38,1.51-4.1,2.93-5.18,1.42-1.08,3.25-1.56,5.49-1.45l-.94,4.99c-1-.05-1.83.14-2.48.57-.65.43-1.07,1.07-1.26,1.9-.18.8-.11,1.51.21,2.14.32.63.83,1.15,1.54,1.59.71.43,1.56.76,2.56.98,1.03.23,1.96.29,2.78.18s1.5-.38,2.03-.82c.53-.44.88-1.02,1.04-1.76.21-.94.09-1.74-.35-2.39-.45-.65-1.17-1.16-2.16-1.53l1.28-4.94c1.42.57,2.55,1.32,3.4,2.25.85.92,1.41,2.01,1.68,3.26s.23,2.66-.12,4.24ZM23.75,159c-.06,1.06-.33,2-.83,2.81-.5.81-1.16,1.44-1.98,1.87-.82.44-1.74.63-2.75.58-1.03-.05-1.92-.34-2.69-.86-.76-.52-1.35-1.21-1.76-2.07-.41-.86-.59-1.82-.53-2.88.06-1.06.33-2,.83-2.81s1.16-1.44,1.97-1.88c.81-.44,1.73-.63,2.76-.58,1,.05,1.88.34,2.66.86.78.52,1.37,1.21,1.78,2.07.41.86.59,1.82.53,2.88ZM34.17,208.27l-16.74,4.29-1.23-4.8,7.96-8.16-9.43,2.42-1.22-4.75,16.74-4.29,1.23,4.8-7.49,8.04,8.96-2.3,1.22,4.75ZM36.9,215.46l-16.26,5.86-1.66-4.61,16.26-5.86,1.66,4.61ZM44.45,232.39l-15.63,7.36-2.11-4.48,6.28-9.51-8.81,4.15-2.09-4.43,15.63-7.36,2.11,4.48-5.84,9.3,8.37-3.94,2.09,4.43ZM56.66,261.16l-2.46-2.93-2.97,4.98,5.43-2.05ZM66.36,262.53l-17.35,6.21-3.59-4.27,9.11-16.02,3.22,3.83-1.54,2.6,4.12,4.9,2.82-1.07,3.2,3.81ZM77.24,272.53l-11.75,12.67-9.65-8.95,2.6-2.8,6.05,5.61,1.97-2.12-5.83-5.41,2.58-2.78,5.83,5.41,2-2.16-6.2-5.75,2.6-2.8,9.79,9.09ZM99.77,292.75c.94.5,1.67,1.14,2.2,1.93.53.8.82,1.66.87,2.59.05.93-.16,1.84-.63,2.74-.48.91-1.12,1.6-1.91,2.08-.79.47-1.67.72-2.62.73-.95.01-1.9-.23-2.84-.72-.94-.5-1.67-1.14-2.2-1.93-.53-.79-.82-1.65-.88-2.58-.06-.92.16-1.84.64-2.75.47-.88,1.1-1.57,1.9-2.06.8-.49,1.68-.74,2.63-.75.95-.01,1.9.23,2.84.72ZM136.83,305.16c-.82-.17-1.56-.12-2.23.15-.66.28-1.23.76-1.7,1.44-.47.69-.82,1.57-1.05,2.65-.23,1.08-.27,2.03-.12,2.86.15.83.47,1.5.97,2.03.5.53,1.15.88,1.97,1.06.81.17,1.55.12,2.21-.17.67-.28,1.24-.77,1.71-1.47.47-.69.82-1.58,1.05-2.66.23-1.08.27-2.03.12-2.85-.15-.82-.47-1.49-.97-2.01-.5-.52-1.15-.87-1.96-1.04ZM137.62,301.43c1.83.39,3.33,1.08,4.5,2.07,1.17,1,1.96,2.23,2.39,3.69.42,1.47.44,3.11.06,4.91-.39,1.81-1.07,3.3-2.05,4.48-.98,1.18-2.21,1.99-3.68,2.43-1.47.44-3.12.47-4.96.08-1.85-.39-3.35-1.09-4.51-2.09-1.16-1-1.95-2.24-2.37-3.71-.42-1.48-.44-3.12-.05-4.93.38-1.81,1.07-3.3,2.05-4.47.98-1.17,2.2-1.97,3.67-2.41,1.46-.44,3.12-.46,4.96-.07ZM157.14,307.98c-.84-.05-1.56.1-2.18.47-.62.37-1.11.93-1.48,1.67-.37.74-.59,1.67-.66,2.77-.07,1.1.02,2.05.29,2.85.26.8.68,1.42,1.24,1.87.56.46,1.27.71,2.1.76.82.05,1.55-.11,2.17-.48.62-.37,1.11-.94,1.48-1.69.37-.75.59-1.68.66-2.78.07-1.1-.02-2.04-.29-2.83-.27-.79-.68-1.4-1.25-1.85-.56-.45-1.26-.7-2.09-.75ZM157.39,304.17c1.87.12,3.45.59,4.75,1.41,1.3.82,2.26,1.92,2.89,3.31.63,1.39.88,3.01.76,4.86-.12,1.85-.59,3.42-1.39,4.73-.8,1.3-1.9,2.28-3.3,2.93-1.39.65-3.02.91-4.9.78-1.88-.13-3.47-.6-4.76-1.43-1.29-.83-2.25-1.94-2.87-3.34-.63-1.4-.88-3.02-.76-4.87.12-1.85.59-3.42,1.39-4.71.8-1.3,1.9-2.26,3.29-2.9,1.39-.64,3.02-.9,4.9-.77ZM193.37,301.82c1.62-.32,3.13-.26,4.54.18,1.41.45,2.61,1.25,3.6,2.42.99,1.17,1.67,2.68,2.05,4.54.36,1.78.33,3.41-.1,4.87-.42,1.47-1.19,2.7-2.32,3.69-1.13,1-2.57,1.67-4.32,2.02-2.39.48-4.36.29-5.92-.58-1.56-.86-2.74-2.34-3.55-4.43l4.95-1.16c.36.94.87,1.62,1.53,2.04.66.42,1.41.55,2.24.38.8-.16,1.42-.51,1.87-1.06.44-.54.72-1.23.82-2.05.11-.82.06-1.74-.14-2.74-.21-1.03-.53-1.91-.96-2.61s-.95-1.22-1.57-1.52c-.61-.31-1.29-.39-2.02-.24-.95.19-1.63.62-2.04,1.29-.41.67-.59,1.54-.52,2.6l-5.04.84c-.05-1.53.17-2.87.67-4.02.5-1.15,1.27-2.1,2.3-2.86,1.03-.75,2.34-1.29,3.93-1.61ZM210.8,297.12c1.55-.53,2.95-.75,4.2-.64,1.25.1,2.33.49,3.23,1.16.9.67,1.59,1.59,2.09,2.76l-4.54,1.79c-.26-.51-.58-.91-.94-1.21-.37-.3-.78-.47-1.25-.52-.47-.05-1,.02-1.6.23-.47.16-.86.35-1.15.56-.3.21-.5.46-.6.73-.1.28-.09.57.02.9.1.29.26.52.49.69.23.17.59.27,1.08.3.49.03,1.2-.02,2.11-.14,1.64-.22,3-.29,4.08-.21,1.09.08,1.96.37,2.61.87.66.5,1.15,1.24,1.5,2.24.35,1.01.39,2,.11,2.95-.27.95-.84,1.82-1.7,2.59-.86.78-2,1.41-3.42,1.9-1.5.52-2.84.7-4.02.56-1.18-.14-2.19-.55-3.05-1.22-.86-.67-1.53-1.55-2.03-2.65l4.5-1.75c.21.5.48.88.82,1.16.34.28.73.45,1.17.51.44.06.92,0,1.44-.17.66-.23,1.13-.53,1.4-.92.27-.39.34-.79.19-1.22-.12-.34-.3-.59-.56-.76-.26-.17-.63-.26-1.1-.27-.47,0-1.09.05-1.86.17-1.75.29-3.19.37-4.32.22-1.13-.14-2-.48-2.63-1-.63-.52-1.09-1.21-1.39-2.07-.36-1.06-.41-2.07-.13-3.03.28-.96.86-1.83,1.75-2.6.89-.77,2.06-1.4,3.51-1.9ZM234.06,292.14c.93-.5,1.88-.75,2.83-.75.95,0,1.83.24,2.63.72.8.48,1.44,1.16,1.92,2.05.49.91.71,1.82.66,2.74-.05.92-.33,1.78-.85,2.58-.52.8-1.25,1.45-2.18,1.96-.93.5-1.88.75-2.83.75-.95,0-1.83-.24-2.63-.71-.8-.47-1.44-1.15-1.93-2.06-.47-.88-.69-1.79-.65-2.72.04-.94.32-1.8.84-2.6.52-.8,1.25-1.45,2.18-1.96ZM251.07,275.4c1.3-1.01,2.69-1.63,4.14-1.87,1.46-.23,2.89-.04,4.3.56,1.41.6,2.69,1.65,3.86,3.15,1.11,1.43,1.81,2.9,2.09,4.4s.14,2.95-.43,4.34c-.56,1.39-1.55,2.64-2.96,3.74-1.92,1.49-3.77,2.2-5.55,2.13-1.78-.07-3.5-.87-5.16-2.37l3.91-3.25c.74.68,1.5,1.06,2.28,1.14.78.08,1.51-.14,2.18-.66.65-.5,1.04-1.09,1.2-1.78.15-.69.09-1.42-.18-2.21-.27-.78-.72-1.58-1.35-2.39-.65-.83-1.32-1.47-2.02-1.91-.7-.44-1.4-.66-2.08-.66-.69,0-1.33.23-1.92.69-.76.59-1.18,1.28-1.25,2.06-.07.78.16,1.64.69,2.56l-4.13,3c-.73-1.35-1.13-2.65-1.19-3.9-.07-1.25.19-2.45.78-3.58.59-1.13,1.52-2.2,2.8-3.19ZM262.99,265.59l11.82,12.6-3.58,3.36-11.82-12.6,3.58-3.35ZM269.73,257.94c1.08-1.23,2.19-2.1,3.33-2.63,1.14-.53,2.26-.72,3.38-.59,1.11.14,2.17.59,3.17,1.37l-3.07,3.8c-.48-.31-.95-.51-1.42-.58-.46-.08-.91-.02-1.35.16-.43.18-.86.51-1.28.99-.33.37-.57.73-.73,1.06s-.2.64-.16.93c.05.29.2.54.46.77.23.2.49.33.77.36.28.04.64-.06,1.09-.28.44-.22,1.03-.61,1.76-1.16,1.31-1,2.46-1.73,3.45-2.19.99-.46,1.89-.64,2.7-.54.81.11,1.62.51,2.41,1.21.8.71,1.32,1.55,1.55,2.51.23.96.16,1.99-.2,3.09-.37,1.1-1.05,2.21-2.04,3.34-1.05,1.19-2.12,2.01-3.22,2.46-1.1.46-2.18.6-3.25.45s-2.1-.59-3.08-1.3l3.05-3.75c.42.33.85.53,1.29.6.43.07.86.03,1.27-.13.41-.16.8-.44,1.16-.86.46-.52.72-1.02.77-1.49.05-.47-.1-.85-.44-1.16-.27-.24-.56-.36-.87-.38-.31-.02-.67.09-1.09.31-.41.22-.92.58-1.53,1.07-1.38,1.12-2.59,1.89-3.64,2.32-1.05.43-1.98.57-2.78.43-.8-.14-1.55-.52-2.23-1.12-.84-.74-1.37-1.6-1.61-2.57-.23-.97-.15-2.02.24-3.12.39-1.11,1.1-2.24,2.12-3.39ZM280.81,243.68c.88-1.3,1.87-2.28,2.98-2.93,1.11-.65,2.26-.95,3.45-.91,1.2.04,2.36.45,3.51,1.23l9.03,6.11-2.75,4.06-9.03-6.11c-.78-.52-1.51-.73-2.21-.62-.69.11-1.3.55-1.82,1.31-.52.77-.71,1.5-.55,2.19.15.69.62,1.29,1.39,1.82l9.03,6.11-2.75,4.06-9.03-6.11c-1.14-.77-1.96-1.71-2.44-2.8-.48-1.09-.63-2.27-.44-3.54.19-1.27.73-2.56,1.62-3.87ZM295.96,216.32l15.63,7.38-2.76,5.84-11.53-1.3,8.32,8.08-2.76,5.84-15.63-7.38,2.09-4.43,8.8,4.16-7.21-7.36,1.49-3.14,10.25.91-8.8-4.16,2.09-4.43ZM304.54,202.67c.27-1.03.73-1.89,1.38-2.58.65-.7,1.43-1.17,2.32-1.44.89-.26,1.83-.27,2.81,0,1,.26,1.82.72,2.46,1.39.64.66,1.08,1.46,1.31,2.39.23.93.21,1.9-.06,2.93-.27,1.03-.73,1.89-1.38,2.58s-1.42,1.17-2.31,1.44c-.89.26-1.83.27-2.82,0-.97-.25-1.78-.71-2.43-1.38s-1.1-1.47-1.33-2.39c-.23-.93-.21-1.9.06-2.93ZM305.01,170.84l17.21,1.55-.44,4.93-10.23,5.03,9.7.87-.44,4.88-17.21-1.55.45-4.93,9.74-5.08-9.21-.83.44-4.88ZM308.1,158.94c.04.84.28,1.54.72,2.11.44.57,1.05.99,1.83,1.27.78.28,1.73.39,2.83.33,1.1-.06,2.03-.26,2.79-.62.76-.36,1.33-.84,1.72-1.46.38-.61.55-1.34.51-2.18-.04-.83-.29-1.52-.73-2.09-.45-.57-1.06-.99-1.86-1.27-.79-.28-1.74-.39-2.84-.33-1.1.06-2.03.26-2.78.62-.75.36-1.32.84-1.69,1.46-.38.61-.54,1.33-.5,2.16ZM304.29,159.15c-.1-1.87.18-3.49.84-4.88.66-1.39,1.64-2.47,2.95-3.26,1.31-.79,2.89-1.23,4.73-1.32,1.85-.1,3.47.18,4.86.83s2.49,1.62,3.3,2.93c.81,1.31,1.26,2.9,1.36,4.77.1,1.89-.19,3.52-.86,4.89-.67,1.38-1.66,2.46-2.98,3.25s-2.9,1.23-4.75,1.32c-1.85.1-3.46-.18-4.84-.83-1.38-.65-2.47-1.62-3.27-2.92-.8-1.3-1.25-2.89-1.35-4.78ZM302.96,143.36l17.09-2.57.73,4.85-17.09,2.57-.73-4.85ZM300.55,132.01l13.09-3.12-1.2-5.04,3.72-.89,3.54,14.87-3.72.89-1.2-5.04-13.09,3.12-1.14-4.79ZM302.72,116.94l1.26,3.61,4.54-3.6h-5.8ZM294.14,112.23l18.43.35,1.84,5.27-14.2,11.74-1.65-4.72,2.36-1.88-2.11-6.05h-3.02s-1.64-4.71-1.64-4.71ZM289.86,104.64c-.74-1.48-1.08-2.95-1.02-4.43.06-1.48.52-2.85,1.38-4.11.86-1.26,2.14-2.32,3.84-3.17,1.63-.82,3.2-1.22,4.72-1.2,1.52.02,2.92.44,4.17,1.26,1.26.82,2.29,2.03,3.09,3.63,1.09,2.17,1.43,4.13,1.01,5.86-.42,1.73-1.53,3.26-3.33,4.6l-2.43-4.46c.81-.59,1.33-1.27,1.56-2.02.23-.75.16-1.51-.23-2.27-.37-.73-.87-1.24-1.51-1.52-.64-.28-1.37-.37-2.2-.25-.82.11-1.69.4-2.61.86-.94.47-1.7,1.01-2.27,1.61-.57.6-.92,1.24-1.05,1.91-.13.67-.03,1.35.3,2.02.43.86,1.03,1.41,1.78,1.62.75.22,1.64.16,2.65-.18l2.14,4.64c-1.46.45-2.81.59-4.06.41-1.24-.18-2.36-.67-3.36-1.46s-1.86-1.92-2.59-3.36ZM280.5,88.71c-.88-1.3-1.42-2.58-1.62-3.85-.2-1.27-.05-2.45.43-3.54.48-1.09,1.29-2.03,2.43-2.81l9.01-6.14,2.76,4.05-9.01,6.14c-.78.53-1.24,1.14-1.39,1.82-.15.69.03,1.41.55,2.17.52.77,1.14,1.21,1.83,1.32.7.11,1.43-.1,2.21-.63l9.01-6.14,2.76,4.05-9.01,6.14c-1.14.78-2.31,1.19-3.5,1.24-1.2.05-2.35-.25-3.45-.9-1.11-.65-2.11-1.63-3-2.93ZM270.83,69.75l1.08,1.22c.98,1.11,1.99,1.66,3.02,1.65,1.03-.01,2.17-.56,3.41-1.66,1.24-1.1,1.93-2.16,2.06-3.18.13-1.02-.29-2.09-1.27-3.2l-1.08-1.22-7.22,6.39ZM264.72,68.62l12.94-11.46,4.33,4.89c1.98,2.24,2.94,4.45,2.88,6.64-.06,2.19-1.13,4.21-3.21,6.05-2.06,1.83-4.18,2.65-6.34,2.46-2.16-.19-4.22-1.38-6.16-3.58l-4.43-5ZM252.8,58l11.43-12.96,9.87,8.7-2.53,2.87-6.19-5.46-1.91,2.17,5.97,5.26-2.51,2.85-5.97-5.26-1.95,2.21,6.34,5.59-2.53,2.87-10.02-8.83ZM242.55,45.54c-.9-.57-1.58-1.27-2.04-2.1-.46-.83-.69-1.72-.67-2.65.02-.93.3-1.83.84-2.68.55-.87,1.24-1.51,2.07-1.92.83-.41,1.72-.59,2.67-.52.95.06,1.88.37,2.78.94.9.57,1.58,1.27,2.04,2.1.46.83.69,1.71.67,2.64-.01.92-.3,1.82-.85,2.69-.53.85-1.22,1.48-2.05,1.9-.84.42-1.73.61-2.68.54-.95-.06-1.88-.37-2.78-.94ZM197.94,31.41l4.72-16.62,12.66,3.6-1.04,3.68-7.94-2.26-.79,2.79,7.65,2.17-1.04,3.65-7.65-2.17-.8,2.83,8.13,2.31-1.04,3.68-12.85-3.65ZM182.25,28.68l2.8-17.05,12.99,2.13-.62,3.77-8.15-1.34-.47,2.86,7.85,1.29-.61,3.75-7.85-1.29-.48,2.91,8.34,1.37-.62,3.77-13.18-2.17ZM168.96,24.09l1.63.07c1.48.06,2.58-.29,3.28-1.04.71-.75,1.09-1.96,1.16-3.61.07-1.65-.22-2.88-.87-3.69-.64-.8-1.71-1.24-3.19-1.3l-1.63-.06-.39,9.63ZM163.9,27.71l.69-17.27,6.52.26c2.98.12,5.24.96,6.78,2.53,1.54,1.56,2.25,3.73,2.14,6.5-.11,2.76-.98,4.85-2.62,6.28-1.63,1.43-3.92,2.08-6.85,1.97l-6.67-.27ZM145.39,29.28l-1.63-17.2,4.93-.47,6.82,9.13-.92-9.69,4.88-.46,1.63,17.2-4.93.47-6.78-8.65.87,9.21-4.88.46ZM137.83,30.86l-3.27-16.97,4.81-.93,3.27,16.97-4.81.93ZM122.43,34.92l-4.7-16.63,12.66-3.58,1.04,3.68-7.95,2.25.79,2.79,7.66-2.16,1.03,3.65-7.66,2.16.8,2.83,8.14-2.3,1.04,3.68-12.86,3.63ZM90.25,45.58c-.9.57-1.82.88-2.77.94-.95.06-1.85-.12-2.68-.54-.83-.42-1.52-1.06-2.06-1.91-.55-.87-.83-1.77-.85-2.69-.02-.92.21-1.8.67-2.64.47-.83,1.15-1.53,2.04-2.1.9-.56,1.82-.88,2.77-.94.95-.06,1.84.11,2.67.52.83.41,1.52,1.05,2.06,1.93.53.84.81,1.74.83,2.67.02.94-.2,1.82-.66,2.65-.47.83-1.15,1.53-2.04,2.1ZM63.51,59.75l1.96-1.82c.6-.56.94-1.1,1.03-1.63.09-.53-.08-1.02-.48-1.46-.42-.45-.89-.65-1.41-.58-.52.06-1.08.37-1.68.93l-1.96,1.82,2.55,2.75ZM69.91,56.37c.67-.49,1.3-.75,1.9-.78.8-.05,1.56.27,2.28.95l3.61,3.3-3.67,3.4-2.93-2.79c-.46-.44-.9-.66-1.34-.67-.44,0-.95.27-1.54.81l-2.11,1.96,4.01,4.32-3.59,3.34-11.76-12.66,6.21-5.77c.98-.91,1.97-1.54,2.99-1.91,1.01-.37,1.98-.45,2.9-.26.92.19,1.73.67,2.43,1.43.55.59.93,1.23,1.12,1.9.19.67.21,1.36.04,2.07-.11.46-.29.92-.56,1.38ZM26.03,177.37c.3.13.58.3.85.51.63.49,1.15,1.14,1.57,1.96.41.82.68,1.75.8,2.79.2,1.72,0,3.25-.6,4.58-.6,1.33-1.53,2.41-2.79,3.24-1.26.83-2.78,1.35-4.57,1.56-1.72.2-3.3.04-4.74-.49-1.43-.53-2.62-1.39-3.55-2.59-.93-1.2-1.51-2.71-1.72-4.53-.19-1.61-.1-2.99.26-4.15.36-1.16.97-2.13,1.83-2.91.86-.78,1.93-1.39,3.22-1.83l.79,5.02c-.84.25-1.46.64-1.86,1.17-.4.53-.55,1.26-.44,2.19.09.79.39,1.44.89,1.95.5.5,1.15.86,1.96,1.05.81.2,1.74.24,2.78.11,1.03-.12,1.92-.36,2.66-.73.74-.36,1.29-.85,1.65-1.47.36-.61.49-1.36.39-2.24-.07-.61-.23-1.13-.49-1.54-.25-.41-.59-.74-1-.97-.41-.23-.89-.35-1.43-.37l.39,3.3-3.14.37-.96-8.17,9.09-1.07.33,2.83-2.16.41ZM43.15,248.64l-1.45-2.25c-.44-.69-.92-1.12-1.43-1.3-.51-.18-1.02-.11-1.52.22-.52.33-.79.76-.82,1.29-.03.52.18,1.13.62,1.82l1.45,2.25,3.15-2.02ZM40.96,241.75c-.36-.74-.51-1.41-.43-2.01.1-.8.54-1.49,1.34-2.08l3.88-2.97,2.7,4.21-3.27,2.39c-.51.37-.81.77-.89,1.2-.08.43.09.98.53,1.65l1.55,2.42,4.96-3.18,2.65,4.13-14.54,9.33-4.58-7.14c-.72-1.12-1.17-2.22-1.35-3.28-.18-1.06-.1-2.03.25-2.9.35-.87.96-1.58,1.83-2.14.68-.44,1.37-.69,2.07-.76.7-.07,1.38.04,2.04.32.44.19.86.45,1.26.79ZM82.37,281.23l-6.19-4.63,2.29-3.06,10.11,7.57-10.36,13.83-3.93-2.94,8.07-10.77ZM120.98,301.25l-7.3-2.53,1.25-3.61,11.94,4.14-5.66,16.33-4.63-1.61,4.41-12.72ZM173.94,315.31l.45,6.65-4.89.33-1.17-17.24,4.89-.33.46,6.78,5.27-.36-.46-6.78,4.89-.33,1.17,17.24-4.89.33-.45-6.65-5.27.36ZM221.55,28.82l2.47,1.04c.75.32,1.39.41,1.91.26.52-.14.9-.49,1.13-1.04.24-.57.22-1.08-.05-1.53-.27-.45-.78-.83-1.54-1.15l-2.47-1.04-1.46,3.45ZM227.26,33.26c.72.41,1.22.88,1.49,1.41.37.71.39,1.54.07,2.47l-1.52,4.64-4.61-1.95,1.34-3.82c.22-.6.24-1.09.06-1.49-.17-.4-.63-.76-1.37-1.07l-2.65-1.12-2.29,5.43-4.52-1.91,6.72-15.92,7.81,3.3c1.23.52,2.22,1.17,2.97,1.94.75.77,1.23,1.62,1.43,2.53.2.91.1,1.85-.3,2.8-.32.75-.74,1.35-1.28,1.8-.54.45-1.16.75-1.87.89-.47.09-.96.11-1.49.06ZM106.65,30.78l2.47-1.04c.75-.32,1.26-.71,1.52-1.18.26-.47.28-.98.05-1.54-.24-.57-.61-.91-1.13-1.03-.51-.12-1.14-.02-1.9.3l-2.47,1.04,1.45,3.46ZM113.81,29.8c.79-.23,1.48-.26,2.05-.08.77.23,1.37.79,1.82,1.68l2.26,4.33-4.61,1.94-1.8-3.63c-.28-.57-.62-.93-1.03-1.09-.41-.15-.98-.08-1.72.23l-2.65,1.11,2.28,5.43-4.52,1.9-6.69-15.93,7.82-3.29c1.23-.52,2.38-.77,3.46-.77,1.08,0,2.01.25,2.81.75.8.49,1.39,1.22,1.8,2.18.31.75.45,1.47.4,2.17-.05.7-.27,1.35-.67,1.96-.26.4-.59.77-1,1.11Z"/>
      <path class="cls-1" d="M166.39,37.88c-70.93,0-128.51,57.58-128.51,128.51s57.58,128.51,128.51,128.51,128.51-57.58,128.51-128.51S237.31,37.88,166.39,37.88ZM166.39,33.56c73.31,0,132.82,59.52,132.82,132.82s-59.52,132.82-132.82,132.82S33.56,239.7,33.56,166.39,93.08,33.56,166.39,33.56Z"/>
      <path class="cls-1" d="M166.39,4.32C76.94,4.32,4.32,76.94,4.32,166.39s72.62,162.07,162.07,162.07,162.07-72.62,162.07-162.07S255.84,4.32,166.39,4.32ZM166.39,0c91.83,0,166.39,74.56,166.39,166.39s-74.56,166.39-166.39,166.39S0,258.22,0,166.39,74.56,0,166.39,0Z"/>
    </g>
  </g>
</svg>