<?xml version="1.0" encoding="UTF-8"?>
<svg id="Layer_2" data-name="Layer 2" xmlns="http://www.w3.org/2000/svg" viewBox="0 0 187.6 33.25">
  <defs>
    <style>
      .cls-1 {
        fill: #fff;
      }
    </style>
  </defs>
  <g id="Layer_1-2" data-name="Layer 1">
    <g>
      <path class="cls-1" d="M0,33.25V0h16.27c2.56,0,4.79.41,6.69,1.22s3.38,1.95,4.42,3.42c1.04,1.47,1.56,3.2,1.56,5.2,0,1.56-.3,2.94-.91,4.14-.61,1.2-1.49,2.19-2.64,2.97-1.15.78-2.54,1.31-4.18,1.59l-.1-.47c2.4,0,4.19.49,5.38,1.47,1.18.98,1.84,2.43,1.97,4.33l.77,9.36h-9.6l-.48-7.77c-.06-1.22-.4-2.11-1.01-2.69s-1.68-.87-3.22-.87h-5.52v11.33H0ZM9.41,14.56h5.13c1.57,0,2.76-.32,3.57-.96.82-.64,1.22-1.54,1.22-2.69s-.41-2.08-1.22-2.67c-.81-.59-2.01-.89-3.57-.89h-5.13v7.21Z"/>
      <g>
        <path class="cls-1" d="M33.51,33.25V8.43h18.85v5.49h-11.82v4.16h11.39v5.45h-11.39v4.23h12.11v5.49h-19.13Z"/>
        <path class="cls-1" d="M56.3,33.25V8.43h7.02v24.82h-7.02Z"/>
        <path class="cls-1" d="M67.3,33.25V8.43h7.09l8.49,13.98v-13.98h7.02v24.82h-7.09l-8.49-13.28v13.28h-7.02Z"/>
        <path class="cls-1" d="M93.88,33.25V8.43h9.35c4.28,0,7.56,1.08,9.85,3.23,2.29,2.16,3.44,5.23,3.44,9.21s-1.13,7.02-3.39,9.16-5.49,3.22-9.69,3.22h-9.57ZM100.9,27.76h2.33c2.13,0,3.67-.56,4.64-1.68s1.45-2.87,1.45-5.24-.48-4.12-1.45-5.24-2.51-1.68-4.64-1.68h-2.33v13.84Z"/>
        <path class="cls-1" d="M120.21,33.25V8.43h18.85v5.49h-11.82v4.16h11.39v5.45h-11.39v4.23h12.11v5.49h-19.13Z"/>
        <path class="cls-1" d="M143,33.25V8.43h18.85v5.49h-11.82v4.16h11.39v5.45h-11.39v4.23h12.11v5.49h-19.13Z"/>
        <path class="cls-1" d="M165.78,33.25V8.43h12.15c1.91,0,3.58.3,5,.91s2.52,1.46,3.3,2.55c.78,1.09,1.16,2.39,1.16,3.88,0,1.17-.23,2.2-.68,3.09s-1.11,1.64-1.97,2.22c-.86.58-1.9.98-3.12,1.19l-.07-.35c1.79,0,3.13.37,4.01,1.1.88.73,1.37,1.81,1.47,3.23l.57,6.99h-7.17l-.36-5.8c-.05-.91-.3-1.58-.75-2.01s-1.25-.65-2.4-.65h-4.12v8.46h-7.02ZM172.81,19.3h3.83c1.17,0,2.06-.24,2.67-.72s.91-1.15.91-2.01-.3-1.55-.91-1.99c-.61-.44-1.5-.66-2.67-.66h-3.83v5.38Z"/>
      </g>
    </g>
  </g>
</svg>