<?xml version="1.0" encoding="UTF-8"?>
<svg id="Layer_2" data-name="Layer 2" xmlns="http://www.w3.org/2000/svg" viewBox="0 0 240.2 239.87">
  <defs>
    <style>
      .cls-1 {
        fill-rule: evenodd;
      }

      .cls-1, .cls-2 {
        fill: #fff;
      }
    </style>
  </defs>
  <g id="Layer_1-2" data-name="Layer 1">
    <g>
      <path class="cls-1" d="M163.34,149.42l-75.5.36c13.28-11.79,18.56-24.78,15.45-29.58-5.16-7.95-37.62,3.89-44.23-10.58-2.36-5.16,1.71-10.59,3.71-11.72,5.24-2.96,38.45-6.24,43.86-13.3,5.41-7.06-45.43-10.33-54.89-12.02-9.45-1.68-55.56-12.24-51.49-28.8,3.84-15.61,33.28-1.23,34.93-.45,2.28,1.08,15.54,9.46,35.73,8.5,10.31-.49,8.19-4.34,3.12-13.37-11.02-19.6-11.92-20.35-12.42-23.82-1.4-9.79,14.89-25.21,26.97-4.07,3.54,6.19,15.57,32.3,21.75,31.67,4.83-.49,3.33-4.07,7.92-23.6,2.86-12.16,26.33-12.82,22.66,8.33-.12.7-8.36,25.76,1.29,34.96,11.51,10.97,65.16,3.44,74.24,14.69,5.24,6.49,4.57,22.58-6.78,27.33-16.64,6.96-19.76,5.69-28.39,13.09-13.64,11.69-17.33,29.48-17.93,32.38Z"/>
      <polygon class="cls-1" points="194.91 3.56 197.51 11.56 202.52 9.09 201.71 14.62 210.13 14.62 203.32 19.56 207.22 23.56 201.71 24.5 204.31 32.5 197.51 27.56 194.91 32.5 192.31 27.56 185.5 32.5 188.1 24.5 182.6 23.56 186.5 19.56 179.69 14.62 188.1 14.62 187.3 9.09 192.31 11.56 194.91 3.56"/>
      <path class="cls-2" d="M0,192.23v-42.45h20.83c3.28,0,6.13.52,8.57,1.55,2.44,1.04,4.32,2.49,5.65,4.36,1.33,1.87,2,4.09,2,6.64,0,1.99-.39,3.76-1.17,5.29-.78,1.53-1.9,2.8-3.38,3.8-1.47,1-3.26,1.67-5.35,2.03l-.12-.6c3.07,0,5.37.63,6.88,1.88,1.52,1.26,2.36,3.1,2.52,5.53l.98,11.96h-12.29l-.61-9.92c-.08-1.55-.51-2.7-1.29-3.44-.78-.74-2.15-1.11-4.12-1.11h-7.07v14.47H0ZM12.05,168.38h6.58c2.01,0,3.53-.41,4.58-1.23,1.04-.82,1.57-1.96,1.57-3.44s-.52-2.65-1.57-3.41c-1.04-.76-2.57-1.14-4.58-1.14h-6.58v9.21Z"/>
      <g>
        <path class="cls-2" d="M42.91,192.23v-31.69h24.13v7.01h-15.14v5.31h14.59v6.96h-14.59v5.4h15.5v7.01h-24.5Z"/>
        <path class="cls-2" d="M72.08,192.23v-31.69h8.99v31.69h-8.99Z"/>
        <path class="cls-2" d="M86.17,192.23v-31.69h9.08l10.87,17.85v-17.85h8.99v31.69h-9.08l-10.87-16.96v16.96h-8.99Z"/>
        <path class="cls-2" d="M120.2,192.23v-31.69h11.97c5.47,0,9.68,1.38,12.61,4.13,2.94,2.75,4.4,6.67,4.4,11.76s-1.44,8.96-4.33,11.69c-2.89,2.74-7.03,4.11-12.41,4.11h-12.25ZM129.19,185.23h2.98c2.72,0,4.7-.71,5.94-2.14,1.24-1.43,1.86-3.66,1.86-6.69s-.62-5.27-1.86-6.69-3.22-2.14-5.94-2.14h-2.98v17.67Z"/>
        <path class="cls-2" d="M153.92,192.23v-31.69h24.13v7.01h-15.14v5.31h14.59v6.96h-14.59v5.4h15.5v7.01h-24.5Z"/>
        <path class="cls-2" d="M183.09,192.23v-31.69h24.13v7.01h-15.14v5.31h14.59v6.96h-14.59v5.4h15.5v7.01h-24.5Z"/>
        <path class="cls-2" d="M212.27,192.23v-31.69h15.55c2.45,0,4.58.39,6.4,1.16,1.82.77,3.23,1.86,4.22,3.26.99,1.4,1.49,3.05,1.49,4.95,0,1.49-.29,2.8-.87,3.95-.58,1.15-1.42,2.09-2.52,2.83-1.1.74-2.43,1.25-3.99,1.52l-.09-.45c2.29,0,4.01.47,5.14,1.41,1.13.94,1.76,2.31,1.88,4.13l.73,8.93h-9.17l-.46-7.41c-.06-1.16-.38-2.02-.96-2.57-.58-.55-1.61-.83-3.07-.83h-5.28v10.8h-8.99ZM221.26,174.43h4.91c1.5,0,2.64-.3,3.42-.91.78-.61,1.17-1.46,1.17-2.57s-.39-1.98-1.17-2.54c-.78-.56-1.92-.85-3.42-.85h-4.91v6.87Z"/>
      </g>
      <g>
        <path class="cls-2" d="M43.5,239.16v-31.69h11.83l6.88,20.13,6.88-20.13h11.84v31.69h-8.99v-17.85l-6.56,17.72h-6.38l-6.51-17.72v17.85h-8.99Z"/>
        <path class="cls-2" d="M100.98,239.87c-2.87,0-5.38-.51-7.5-1.52-2.13-1.01-3.77-2.45-4.93-4.31-1.16-1.86-1.74-4.05-1.74-6.58v-19.99h8.99v19.99c0,1.73.44,3.06,1.33,3.99.89.94,2.17,1.41,3.85,1.41s3.01-.47,3.9-1.41c.89-.94,1.33-2.27,1.33-3.99v-19.99h8.99v19.99c0,2.53-.58,4.72-1.74,6.58-1.16,1.86-2.81,3.3-4.93,4.31-2.13,1.01-4.64,1.52-7.55,1.52Z"/>
        <path class="cls-2" d="M134.19,239.87c-3,0-5.55-.46-7.66-1.38-2.11-.92-3.75-2.23-4.91-3.93-1.16-1.7-1.82-3.7-1.97-6.02l8.94-.4c.15,1.04.46,1.93.92,2.66.46.73,1.08,1.28,1.86,1.65.78.37,1.75.56,2.91.56.92,0,1.7-.1,2.34-.29.64-.19,1.13-.5,1.47-.91.34-.42.5-.94.5-1.56,0-.56-.15-1.06-.44-1.5-.29-.43-.86-.82-1.7-1.16-.84-.34-2.09-.68-3.74-1-2.97-.59-5.37-1.29-7.2-2.08-1.83-.79-3.17-1.81-4.01-3.06-.84-1.25-1.26-2.84-1.26-4.78s.52-3.69,1.56-5.18c1.04-1.49,2.54-2.65,4.5-3.48,1.96-.83,4.31-1.25,7.06-1.25,2.9,0,5.34.48,7.29,1.43,1.96.95,3.48,2.26,4.56,3.93,1.09,1.67,1.74,3.6,1.95,5.8l-8.85.36c-.06-.98-.31-1.81-.73-2.5-.43-.68-1-1.21-1.72-1.58-.72-.37-1.58-.56-2.59-.56-1.28,0-2.28.25-2.98.76-.7.51-1.05,1.18-1.05,2.01,0,.65.18,1.2.53,1.65.35.45.93.82,1.74,1.12.81.3,1.92.57,3.33.8,3.21.54,5.75,1.26,7.61,2.19,1.86.92,3.19,2.02,3.97,3.3.78,1.28,1.17,2.75,1.17,4.42,0,2.05-.53,3.83-1.58,5.33-1.06,1.5-2.58,2.66-4.59,3.46-2,.8-4.41,1.21-7.22,1.21Z"/>
        <path class="cls-2" d="M152.95,239.16v-31.69h8.99v31.69h-8.99Z"/>
        <path class="cls-2" d="M181.3,239.87c-3.03,0-5.73-.66-8.1-1.96-2.37-1.31-4.24-3.19-5.6-5.65-1.36-2.45-2.04-5.42-2.04-8.9s.64-6.24,1.93-8.73c1.28-2.48,3.12-4.42,5.5-5.8,2.39-1.38,5.21-2.08,8.49-2.08,4.46,0,7.94,1.06,10.44,3.17,2.49,2.11,4.09,5.19,4.79,9.24l-9.31.31c-.31-1.81-.98-3.22-2.02-4.22-1.04-1-2.34-1.49-3.9-1.49s-2.75.41-3.74,1.23c-.99.82-1.74,1.95-2.22,3.39-.49,1.44-.73,3.1-.73,4.98s.26,3.61.78,5.04c.52,1.43,1.28,2.53,2.27,3.3.99.77,2.18,1.16,3.56,1.16,1.77,0,3.15-.53,4.13-1.58.98-1.06,1.61-2.55,1.88-4.49l9.36.31c-.46,2.77-1.35,5.1-2.66,6.98-1.32,1.89-3.04,3.33-5.16,4.31-2.13.98-4.67,1.47-7.64,1.47Z"/>
      </g>
    </g>
  </g>
</svg>