<?xml version="1.0" encoding="UTF-8"?>
<svg id="Layer_2" data-name="Layer 2" xmlns="http://www.w3.org/2000/svg" viewBox="0 0 239.4 81.39">
  <defs>
    <style>
      .cls-1 {
        fill: #fff;
      }
    </style>
  </defs>
  <g id="Layer_1-2" data-name="Layer 1">
    <g>
      <path class="cls-1" d="M22.32,38.35V0h18.82c2.96,0,5.54.47,7.74,1.4,2.2.94,3.9,2.25,5.11,3.94,1.2,1.69,1.8,3.69,1.8,6,0,1.8-.35,3.4-1.05,4.78-.7,1.39-1.72,2.53-3.05,3.43-1.33.9-2.94,1.51-4.83,1.84l-.11-.54c2.78,0,4.85.57,6.22,1.7,1.37,1.13,2.13,2.8,2.28,5l.89,10.8h-11.1l-.56-8.97c-.07-1.4-.46-2.44-1.17-3.11-.7-.67-1.94-1-3.72-1h-6.38v13.07h-10.88ZM33.2,16.8h5.94c1.81,0,3.19-.37,4.14-1.11s1.42-1.77,1.42-3.11-.47-2.39-1.42-3.08c-.94-.68-2.32-1.02-4.14-1.02h-5.94v8.32Z"/>
      <g>
        <path class="cls-1" d="M61.08,38.35V9.72h21.8v6.33h-13.68v4.8h13.18v6.29h-13.18v4.88h14.01v6.33h-22.13Z"/>
        <path class="cls-1" d="M87.44,38.35V9.72h8.12v28.63h-8.12Z"/>
        <path class="cls-1" d="M100.16,38.35V9.72h8.21l9.82,16.13V9.72h8.12v28.63h-8.21l-9.82-15.32v15.32h-8.12Z"/>
        <path class="cls-1" d="M130.91,38.35V9.72h10.82c4.95,0,8.74,1.24,11.4,3.73,2.65,2.49,3.98,6.03,3.98,10.62s-1.31,8.09-3.92,10.56c-2.61,2.47-6.35,3.71-11.21,3.71h-11.07ZM139.03,32.02h2.69c2.46,0,4.25-.64,5.37-1.93,1.12-1.29,1.68-3.31,1.68-6.05s-.56-4.76-1.68-6.05c-1.12-1.29-2.91-1.93-5.37-1.93h-2.69v15.97Z"/>
        <path class="cls-1" d="M161.37,38.35V9.72h21.8v6.33h-13.68v4.8h13.18v6.29h-13.18v4.88h14.01v6.33h-22.13Z"/>
        <path class="cls-1" d="M187.72,38.35V9.72h21.8v6.33h-13.68v4.8h13.18v6.29h-13.18v4.88h14.01v6.33h-22.13Z"/>
        <path class="cls-1" d="M214.08,38.35V9.72h14.05c2.21,0,4.14.35,5.78,1.05,1.64.7,2.91,1.68,3.81,2.94.9,1.26,1.35,2.76,1.35,4.48,0,1.34-.26,2.53-.79,3.57-.53,1.04-1.28,1.89-2.28,2.56-.99.67-2.2,1.13-3.61,1.37l-.08-.4c2.07,0,3.62.42,4.64,1.27,1.02.85,1.59,2.09,1.7,3.73l.66,8.06h-8.29l-.41-6.69c-.06-1.05-.35-1.82-.87-2.32-.53-.5-1.45-.75-2.78-.75h-4.77v9.76h-8.12ZM222.2,22.26h4.43c1.35,0,2.38-.28,3.09-.83s1.06-1.32,1.06-2.32-.35-1.79-1.06-2.3-1.73-.77-3.09-.77h-4.43v6.21Z"/>
      </g>
      <g>
        <path class="cls-1" d="M0,80.74v-28.63h21.8v6.33h-13.68v4.8h13.18v6.29h-13.18v4.88h14.01v6.33H0Z"/>
        <path class="cls-1" d="M26.36,80.74v-28.63h10.82c4.95,0,8.74,1.24,11.4,3.73,2.65,2.49,3.98,6.03,3.98,10.62s-1.31,8.09-3.92,10.56c-2.61,2.47-6.35,3.71-11.21,3.71h-11.07ZM34.48,74.41h2.69c2.46,0,4.25-.64,5.37-1.93,1.12-1.29,1.68-3.31,1.68-6.05s-.56-4.76-1.68-6.05c-1.12-1.29-2.91-1.93-5.37-1.93h-2.69v15.97Z"/>
        <path class="cls-1" d="M68.79,81.39c-2.6,0-4.86-.46-6.78-1.37-1.92-.91-3.41-2.21-4.45-3.89-1.05-1.68-1.58-3.66-1.58-5.95v-18.06h8.12v18.06c0,1.56.4,2.76,1.2,3.61.8.85,1.96,1.27,3.48,1.27s2.72-.42,3.52-1.27c.8-.85,1.2-2.05,1.2-3.61v-18.06h8.12v18.06c0,2.28-.53,4.27-1.58,5.95s-2.53,2.98-4.45,3.89c-1.92.91-4.19,1.37-6.82,1.37Z"/>
        <path class="cls-1" d="M99.46,81.39c-2.74,0-5.17-.59-7.31-1.77s-3.83-2.88-5.06-5.1c-1.23-2.22-1.84-4.9-1.84-8.04s.58-5.64,1.74-7.88c1.16-2.24,2.82-3.99,4.97-5.24s4.71-1.87,7.67-1.87c4.03,0,7.18.95,9.43,2.86,2.25,1.91,3.7,4.69,4.33,8.35l-8.41.28c-.28-1.64-.88-2.91-1.82-3.81-.94-.9-2.11-1.35-3.52-1.35s-2.48.37-3.38,1.11c-.9.74-1.57,1.76-2.01,3.06-.44,1.3-.66,2.8-.66,4.5s.23,3.27.7,4.56c.47,1.29,1.15,2.28,2.05,2.98.9.7,1.97,1.05,3.21,1.05,1.6,0,2.84-.48,3.73-1.43.88-.95,1.45-2.3,1.7-4.05l8.45.28c-.41,2.5-1.22,4.6-2.4,6.31-1.19,1.71-2.74,3-4.66,3.89-1.92.89-4.22,1.33-6.9,1.33Z"/>
        <path class="cls-1" d="M113.92,80.74l10.61-28.63h9.24l10.61,28.63h-8.29l-1.66-4.72h-10.61l-1.66,4.72h-8.25ZM125.98,69.9h6.34l-3.15-9.07-3.19,9.07Z"/>
        <path class="cls-1" d="M148.4,80.74v-22.3h-8.58v-6.33h25.32v6.33h-8.58v22.3h-8.16Z"/>
        <path class="cls-1" d="M167.59,80.74v-28.63h8.12v28.63h-8.12Z"/>
        <path class="cls-1" d="M193.9,81.39c-3.09,0-5.76-.6-8-1.82-2.24-1.21-3.95-2.93-5.14-5.16-1.19-2.23-1.78-4.88-1.78-7.94s.59-5.72,1.78-7.96c1.19-2.24,2.9-3.98,5.14-5.2,2.24-1.22,4.9-1.83,8-1.83s5.79.61,8.02,1.83c2.22,1.22,3.93,2.96,5.12,5.2,1.19,2.24,1.78,4.9,1.78,7.96s-.59,5.71-1.78,7.94c-1.19,2.23-2.89,3.95-5.12,5.16-2.22,1.21-4.9,1.82-8.02,1.82ZM193.9,75.06c1.38,0,2.56-.34,3.54-1.01.98-.67,1.73-1.65,2.26-2.92.52-1.28.79-2.83.79-4.66s-.26-3.39-.79-4.68c-.53-1.29-1.28-2.28-2.26-2.96-.98-.68-2.16-1.03-3.54-1.03s-2.56.34-3.54,1.03c-.98.69-1.73,1.67-2.26,2.96-.53,1.29-.79,2.85-.79,4.68s.26,3.38.79,4.66c.52,1.28,1.28,2.25,2.26,2.92.98.67,2.16,1.01,3.54,1.01Z"/>
        <path class="cls-1" d="M213.25,80.74v-28.63h8.21l9.82,16.13v-16.13h8.12v28.63h-8.21l-9.82-15.32v15.32h-8.12Z"/>
      </g>
    </g>
  </g>
</svg>