<?xml version="1.0" encoding="UTF-8"?>
<svg id="Layer_2" data-name="Layer 2" xmlns="http://www.w3.org/2000/svg" viewBox="0 0 441.91 150.92">
  <defs>
    <style>
      .cls-1 {
        fill-rule: evenodd;
      }

      .cls-1, .cls-2 {
        fill: #fff;
      }
    </style>
  </defs>
  <g id="Layer_1-2" data-name="Layer 1">
    <g>
      <path class="cls-2" d="M235.82,110.07v-36.4h17.86c2.81,0,5.26.44,7.35,1.33,2.09.89,3.71,2.14,4.85,3.74,1.14,1.61,1.71,3.5,1.71,5.69,0,1.71-.33,3.22-1,4.54-.67,1.32-1.63,2.4-2.9,3.26-1.27.85-2.79,1.44-4.59,1.74l-.1-.51c2.63,0,4.6.54,5.9,1.62s2.02,2.66,2.16,4.74l.84,10.25h-10.54l-.53-8.51c-.07-1.33-.44-2.32-1.11-2.95-.67-.63-1.84-.95-3.53-.95h-6.06v12.41h-10.33ZM246.15,89.61h5.64c1.72,0,3.03-.35,3.93-1.05.89-.7,1.34-1.68,1.34-2.95s-.45-2.27-1.34-2.92c-.9-.65-2.21-.97-3.93-.97h-5.64v7.9Z"/>
      <g>
        <path class="cls-2" d="M272.62,110.07v-27.18h20.69v6.01h-12.98v4.55h12.51v5.97h-12.51v4.63h13.3v6.01h-21.01Z"/>
        <path class="cls-2" d="M297.64,110.07v-27.18h7.71v27.18h-7.71Z"/>
        <path class="cls-2" d="M309.72,110.07v-27.18h7.79l9.32,15.31v-15.31h7.71v27.18h-7.79l-9.32-14.54v14.54h-7.71Z"/>
        <path class="cls-2" d="M338.91,110.07v-27.18h10.27c4.7,0,8.3,1.18,10.82,3.54,2.52,2.36,3.78,5.72,3.78,10.09s-1.24,7.68-3.72,10.03c-2.48,2.35-6.03,3.52-10.64,3.52h-10.5ZM346.62,104.06h2.56c2.33,0,4.03-.61,5.09-1.84,1.06-1.23,1.59-3.14,1.59-5.74s-.53-4.52-1.59-5.74c-1.06-1.22-2.76-1.84-5.09-1.84h-2.56v15.16Z"/>
        <path class="cls-2" d="M367.83,110.07v-27.18h20.69v6.01h-12.98v4.55h12.51v5.97h-12.51v4.63h13.3v6.01h-21.01Z"/>
        <path class="cls-2" d="M392.85,110.07v-27.18h20.69v6.01h-12.98v4.55h12.51v5.97h-12.51v4.63h13.3v6.01h-21.01Z"/>
        <path class="cls-2" d="M417.87,110.07v-27.18h13.34c2.1,0,3.93.33,5.49,1,1.56.66,2.77,1.59,3.62,2.79.85,1.2,1.28,2.62,1.28,4.25,0,1.28-.25,2.4-.75,3.39-.5.98-1.22,1.79-2.16,2.43-.94.64-2.08,1.07-3.42,1.3l-.08-.38c1.97,0,3.43.4,4.4,1.21.97.8,1.51,1.98,1.61,3.54l.63,7.65h-7.87l-.39-6.35c-.05-1-.33-1.73-.83-2.2-.5-.47-1.38-.71-2.64-.71h-4.52v9.26h-7.71ZM425.57,94.79h4.21c1.28,0,2.26-.26,2.93-.78.67-.52,1-1.26,1-2.2s-.34-1.7-1-2.18-1.65-.73-2.93-.73h-4.21v5.89Z"/>
      </g>
      <path class="cls-1" d="M164.16,150.16l-75.88.36c13.35-11.85,18.65-24.9,15.53-29.72-5.18-7.99-37.81,3.91-44.45-10.63-2.37-5.18,1.72-10.64,3.73-11.77,5.27-2.98,38.64-6.27,44.08-13.37,5.43-7.09-45.66-10.38-55.16-12.08-9.5-1.69-55.84-12.3-51.75-28.94,3.86-15.68,33.45-1.24,35.1-.46,2.29,1.08,15.62,9.51,35.91,8.54,10.36-.49,8.23-4.36,3.14-13.43-11.07-19.7-11.98-20.45-12.48-23.94-1.4-9.84,14.97-25.33,27.11-4.09,3.56,6.22,15.65,32.46,21.87,31.83,4.84-.49,3.34-4.09,7.96-23.71,2.86-12.22,26.45-12.88,22.77,8.37-.12.71-8.41,25.89,1.28,35.14,11.56,11.03,65.49,3.46,74.61,14.76,5.26,6.52,4.58,22.69-6.83,27.46-16.72,6.99-19.84,5.72-28.53,13.15-13.7,11.75-17.4,29.62-18,32.54Z"/>
      <path class="cls-1" d="M195.87,6.94c7.09,0,12.86,5.76,12.86,12.86s-5.77,12.86-12.86,12.86-12.86-5.76-12.86-12.86,5.76-12.86,12.86-12.86Z"/>
      <g>
        <path class="cls-2" d="M214.64,150.31v-27.18h20.69v6.01h-12.98v4.55h12.51v5.97h-12.51v4.63h13.3v6.01h-21.01Z"/>
        <path class="cls-2" d="M239.66,150.31v-27.18h10.27c4.7,0,8.3,1.18,10.82,3.54,2.52,2.36,3.78,5.72,3.78,10.09s-1.24,7.68-3.72,10.03c-2.48,2.35-6.03,3.52-10.64,3.52h-10.5ZM247.37,144.3h2.56c2.33,0,4.03-.61,5.09-1.84,1.06-1.23,1.59-3.14,1.59-5.74s-.53-4.52-1.59-5.74c-1.06-1.22-2.76-1.84-5.09-1.84h-2.56v15.16Z"/>
        <path class="cls-2" d="M279.94,150.92c-2.47,0-4.61-.43-6.43-1.3-1.82-.87-3.23-2.1-4.23-3.69s-1.49-3.48-1.49-5.65v-17.15h7.71v17.15c0,1.48.38,2.62,1.14,3.43.76.8,1.86,1.21,3.3,1.21s2.58-.4,3.34-1.21c.76-.8,1.14-1.95,1.14-3.43v-17.15h7.71v17.15c0,2.17-.5,4.05-1.49,5.65-1,1.59-2.41,2.83-4.23,3.69-1.82.87-3.98,1.3-6.47,1.3Z"/>
        <path class="cls-2" d="M309.06,150.92c-2.6,0-4.91-.56-6.94-1.68s-3.63-2.74-4.8-4.84-1.75-4.65-1.75-7.64.55-5.35,1.65-7.48,2.68-3.79,4.72-4.98c2.05-1.19,4.47-1.78,7.28-1.78,3.83,0,6.81.91,8.95,2.72,2.14,1.81,3.51,4.45,4.11,7.92l-7.99.27c-.26-1.56-.84-2.76-1.73-3.62-.89-.85-2.01-1.28-3.34-1.28s-2.36.35-3.21,1.05c-.85.7-1.49,1.67-1.91,2.91-.42,1.24-.63,2.66-.63,4.27s.22,3.1.67,4.33c.45,1.22,1.1,2.17,1.95,2.83.85.66,1.87,1,3.05,1,1.52,0,2.7-.45,3.54-1.36.84-.91,1.38-2.19,1.61-3.85l8.03.27c-.39,2.37-1.15,4.37-2.28,5.99-1.13,1.62-2.6,2.85-4.43,3.69-1.82.84-4.01,1.26-6.55,1.26Z"/>
        <path class="cls-2" d="M322.78,150.31l10.07-27.18h8.77l10.07,27.18h-7.87l-1.57-4.48h-10.07l-1.57,4.48h-7.83ZM334.23,140.02h6.02l-2.99-8.61-3.03,8.61Z"/>
        <path class="cls-2" d="M355.52,150.31v-21.17h-8.14v-6.01h24.04v6.01h-8.14v21.17h-7.75Z"/>
        <path class="cls-2" d="M373.73,150.31v-27.18h7.71v27.18h-7.71Z"/>
        <path class="cls-2" d="M398.71,150.92c-2.94,0-5.47-.57-7.59-1.72-2.12-1.15-3.75-2.78-4.88-4.9-1.13-2.12-1.69-4.63-1.69-7.54s.56-5.43,1.69-7.56,2.75-3.78,4.88-4.94c2.13-1.16,4.66-1.74,7.59-1.74s5.5.58,7.61,1.74c2.11,1.16,3.73,2.81,4.86,4.94s1.69,4.65,1.69,7.56-.56,5.42-1.69,7.54c-1.13,2.12-2.75,3.75-4.86,4.9-2.11,1.15-4.65,1.72-7.61,1.72ZM398.71,144.91c1.31,0,2.43-.32,3.36-.96s1.65-1.56,2.14-2.78c.5-1.21.75-2.69.75-4.42s-.25-3.22-.75-4.44c-.5-1.23-1.21-2.16-2.14-2.81s-2.05-.98-3.36-.98-2.43.33-3.36.98-1.65,1.59-2.14,2.81c-.5,1.22-.75,2.71-.75,4.44s.25,3.21.75,4.42c.5,1.21,1.21,2.14,2.14,2.78s2.05.96,3.36.96Z"/>
        <path class="cls-2" d="M417.08,150.31v-27.18h7.79l9.32,15.31v-15.31h7.71v27.18h-7.79l-9.32-14.54v14.54h-7.71Z"/>
      </g>
    </g>
  </g>
</svg>