<?xml version="1.0" encoding="UTF-8"?>
<svg id="Layer_2" data-name="Layer 2" xmlns="http://www.w3.org/2000/svg" viewBox="0 0 168.86 152.84">
  <defs>
    <style>
      .cls-1 {
        fill-rule: evenodd;
      }

      .cls-1, .cls-2 {
        fill: #fff;
      }
    </style>
  </defs>
  <g id="Layer_1-2" data-name="Layer 1">
    <g>
      <path class="cls-1" d="M119.81,95.21l-48.11.23c8.46-7.51,11.83-15.79,9.84-18.85-3.29-5.07-23.97,2.48-28.18-6.74-1.5-3.28,1.09-6.75,2.36-7.46,3.34-1.89,24.5-3.98,27.95-8.47,3.45-4.5-28.95-6.58-34.97-7.66-6.02-1.07-35.41-7.8-32.81-18.35,2.45-9.94,21.21-.79,22.26-.29,1.45.69,9.9,6.03,22.77,5.42,6.57-.31,5.22-2.77,1.99-8.52-7.02-12.49-7.6-12.97-7.91-15.18-.89-6.24,9.49-16.06,17.19-2.6,2.26,3.95,9.92,20.58,13.86,20.18,3.08-.31,2.12-2.59,5.04-15.03,1.82-7.75,16.78-8.17,14.44,5.3-.08.45-5.33,16.42.82,22.28,7.33,6.99,41.52,2.19,47.3,9.36,3.34,4.13,2.91,14.39-4.32,17.41-10.6,4.43-12.59,3.63-18.09,8.34-8.69,7.45-11.04,18.78-11.42,20.63Z"/>
      <path class="cls-2" d="M15.73,122.49v-27.05h13.27c2.09,0,3.91.33,5.46.99,1.55.66,2.75,1.59,3.6,2.78.85,1.19,1.27,2.6,1.27,4.23,0,1.27-.25,2.39-.74,3.37s-1.21,1.78-2.15,2.42c-.94.63-2.07,1.07-3.41,1.3l-.08-.38c1.96,0,3.42.4,4.39,1.2.97.8,1.5,1.97,1.61,3.52l.63,7.62h-7.83l-.39-6.32c-.05-.99-.33-1.72-.82-2.19s-1.37-.71-2.62-.71h-4.5v9.22h-7.67ZM23.41,107.29h4.19c1.28,0,2.25-.26,2.92-.78.67-.52,1-1.25,1-2.19s-.33-1.69-1-2.17-1.64-.72-2.92-.72h-4.19v5.87Z"/>
      <g>
        <path class="cls-2" d="M43.08,122.49v-20.19h15.37v4.47h-9.64v3.38h9.29v4.44h-9.29v3.44h9.88v4.47h-15.61Z"/>
        <path class="cls-2" d="M61.66,122.49v-20.19h5.73v20.19h-5.73Z"/>
        <path class="cls-2" d="M70.64,122.49v-20.19h5.79l6.93,11.37v-11.37h5.73v20.19h-5.79l-6.93-10.81v10.81h-5.73Z"/>
        <path class="cls-2" d="M92.32,122.49v-20.19h7.63c3.49,0,6.17.88,8.04,2.63,1.87,1.75,2.81,4.25,2.81,7.49s-.92,5.71-2.76,7.45c-1.84,1.74-4.48,2.62-7.91,2.62h-7.8ZM98.05,118.02h1.9c1.74,0,3-.45,3.79-1.36.79-.91,1.18-2.33,1.18-4.27s-.39-3.36-1.18-4.27-2.05-1.36-3.79-1.36h-1.9v11.26Z"/>
        <path class="cls-2" d="M113.81,122.49v-20.19h15.37v4.47h-9.64v3.38h9.29v4.44h-9.29v3.44h9.88v4.47h-15.61Z"/>
        <path class="cls-2" d="M132.4,122.49v-20.19h15.37v4.47h-9.64v3.38h9.29v4.44h-9.29v3.44h9.88v4.47h-15.61Z"/>
        <path class="cls-2" d="M150.98,122.49v-20.19h9.91c1.56,0,2.92.25,4.08.74,1.16.49,2.06,1.19,2.69,2.08.63.89.95,1.94.95,3.16,0,.95-.18,1.79-.55,2.52s-.91,1.33-1.61,1.8c-.7.47-1.55.8-2.54.97l-.06-.28c1.46,0,2.55.3,3.27.89s1.12,1.48,1.2,2.63l.47,5.69h-5.85l-.29-4.72c-.04-.74-.24-1.28-.61-1.64-.37-.35-1.02-.53-1.96-.53h-3.36v6.88h-5.73ZM156.71,111.14h3.13c.95,0,1.68-.19,2.18-.58s.75-.93.75-1.63-.25-1.26-.75-1.62c-.5-.36-1.22-.54-2.18-.54h-3.13v4.38Z"/>
      </g>
      <g>
        <path class="cls-2" d="M0,152.39l3.38-20.19h3.25l1.85,16.58,7.51-16.58h3.41l-3.38,20.19h-2.44l2.46-14.79-6.68,14.76h-2.71l-1.74-14.76-2.48,14.79H0Z"/>
        <path class="cls-2" d="M26.16,152.84c-1.64,0-2.91-.49-3.8-1.46-.89-.98-1.34-2.34-1.34-4.08,0-.3.02-.67.07-1.11.05-.44.1-.88.17-1.32.07-.44.12-.81.17-1.09l1.98-11.57h2.44l-2.03,11.89c-.11.57-.18,1.09-.24,1.58s-.08.89-.08,1.21c0,.99.25,1.76.76,2.32.5.56,1.26.84,2.27.84,1.19,0,2.19-.38,3.02-1.15s1.39-2.06,1.69-3.88l2.16-12.8h2.44l-2.19,13.08c-.42,2.48-1.27,4.37-2.56,5.64-1.28,1.28-2.93,1.92-4.93,1.92Z"/>
        <path class="cls-2" d="M41.54,152.84c-1.71,0-3.02-.48-3.93-1.45-.91-.97-1.36-2.29-1.36-3.95,0-.27.02-.55.05-.84.03-.29.06-.54.09-.73l2.53-.2c-.03.13-.06.33-.09.6-.03.27-.04.54-.04.83,0,.95.24,1.68.73,2.19.49.51,1.29.77,2.4.77.72,0,1.37-.12,1.94-.36.57-.24,1.03-.62,1.36-1.15.34-.53.51-1.22.51-2.08,0-.36-.04-.69-.12-.98-.08-.29-.24-.56-.49-.81s-.59-.48-1.06-.71c-.47-.23-1.08-.45-1.85-.68-1.01-.3-1.82-.66-2.45-1.08-.62-.42-1.07-.94-1.35-1.58-.28-.63-.42-1.42-.42-2.35,0-1.27.24-2.4.71-3.38.47-.99,1.19-1.76,2.13-2.32.95-.56,2.11-.84,3.49-.84,1.71,0,2.98.49,3.79,1.46s1.22,2.27,1.22,3.88c0,.23,0,.45-.02.67s-.04.4-.07.55l-2.5.17c.03-.11.05-.27.07-.47.02-.2.02-.4.02-.61,0-.81-.21-1.5-.63-2.05-.42-.55-1.15-.83-2.19-.83-.83,0-1.5.15-2.02.45s-.9.72-1.14,1.25-.36,1.12-.36,1.76c0,.51.08.92.25,1.24.17.31.48.59.95.83s1.15.5,2.05.78c1.16.34,2.06.76,2.72,1.27.65.5,1.12,1.08,1.39,1.74s.41,1.42.41,2.29c0,1.56-.3,2.83-.89,3.83-.59.99-1.4,1.72-2.41,2.19-1.02.46-2.15.7-3.4.7Z"/>
        <path class="cls-2" d="M50.08,152.39l3.38-20.19h2.44l-3.38,20.19h-2.44Z"/>
        <path class="cls-2" d="M62.22,152.84c-1.73,0-3.1-.6-4.1-1.79s-1.51-3.07-1.51-5.63c0-1.4.13-2.78.39-4.12.26-1.35.65-2.6,1.15-3.75.5-1.16,1.12-2.17,1.86-3.03.74-.86,1.58-1.54,2.54-2.03.95-.49,2.03-.74,3.21-.74,1.31,0,2.36.3,3.15.9.79.6,1.36,1.43,1.73,2.49.36,1.06.54,2.29.54,3.7l-2.53.17c0-1.52-.25-2.63-.74-3.35-.5-.72-1.35-1.08-2.57-1.08-.78,0-1.49.19-2.13.58-.64.39-1.21.92-1.71,1.58s-.93,1.44-1.28,2.32-.62,1.82-.79,2.81c-.17,1-.26,2-.26,3,0,1.92.29,3.26.86,4.02s1.46,1.15,2.66,1.15c1.28,0,2.34-.43,3.2-1.29.86-.86,1.49-2.05,1.89-3.57l2.55.17c-.44,1.53-1.03,2.86-1.78,3.98s-1.65,1.99-2.71,2.6c-1.05.62-2.26.92-3.61.92Z"/>
      </g>
      <g>
        <path class="cls-2" d="M84.79,152.84c-1.71,0-3.02-.48-3.93-1.45-.91-.97-1.36-2.29-1.36-3.95,0-.27.02-.55.05-.84.03-.29.06-.54.09-.73l2.53-.2c-.03.13-.06.33-.09.6-.03.27-.04.54-.04.83,0,.95.24,1.68.73,2.19.49.51,1.29.77,2.4.77.72,0,1.37-.12,1.94-.36.57-.24,1.03-.62,1.36-1.15.34-.53.51-1.22.51-2.08,0-.36-.04-.69-.12-.98-.08-.29-.24-.56-.49-.81s-.59-.48-1.06-.71c-.47-.23-1.08-.45-1.85-.68-1.01-.3-1.82-.66-2.45-1.08-.62-.42-1.07-.94-1.35-1.58-.28-.63-.42-1.42-.42-2.35,0-1.27.24-2.4.71-3.38.47-.99,1.19-1.76,2.13-2.32.95-.56,2.11-.84,3.49-.84,1.71,0,2.98.49,3.79,1.46s1.22,2.27,1.22,3.88c0,.23,0,.45-.02.67s-.04.4-.07.55l-2.5.17c.03-.11.05-.27.07-.47.02-.2.02-.4.02-.61,0-.81-.21-1.5-.63-2.05-.42-.55-1.15-.83-2.19-.83-.83,0-1.5.15-2.02.45s-.9.72-1.14,1.25-.36,1.12-.36,1.76c0,.51.08.92.25,1.24.17.31.48.59.95.83s1.15.5,2.05.78c1.16.34,2.06.76,2.72,1.27.65.5,1.12,1.08,1.39,1.74s.41,1.42.41,2.29c0,1.56-.3,2.83-.89,3.83-.59.99-1.4,1.72-2.41,2.19-1.02.46-2.15.7-3.4.7Z"/>
        <path class="cls-2" d="M99.87,152.84c-1.73,0-3.1-.6-4.1-1.79s-1.51-3.07-1.51-5.63c0-1.4.13-2.78.39-4.12.26-1.35.65-2.6,1.15-3.75.5-1.16,1.12-2.17,1.86-3.03.74-.86,1.58-1.54,2.54-2.03.95-.49,2.03-.74,3.21-.74,1.31,0,2.36.3,3.15.9.79.6,1.36,1.43,1.73,2.49.36,1.06.54,2.29.54,3.7l-2.53.17c0-1.52-.25-2.63-.74-3.35-.5-.72-1.35-1.08-2.57-1.08-.78,0-1.49.19-2.13.58-.64.39-1.21.92-1.71,1.58s-.93,1.44-1.28,2.32-.62,1.82-.79,2.81c-.17,1-.26,2-.26,3,0,1.92.29,3.26.86,4.02s1.46,1.15,2.66,1.15c1.28,0,2.34-.43,3.2-1.29.86-.86,1.49-2.05,1.89-3.57l2.55.17c-.44,1.53-1.03,2.86-1.78,3.98s-1.65,1.99-2.71,2.6c-1.05.62-2.26.92-3.61.92Z"/>
        <path class="cls-2" d="M109.57,152.39l3.38-20.19h2.44l-1.65,9.73-.97-1.08h9.45l-1.35,1.08,1.65-9.73h2.44l-3.38,20.19h-2.44l1.65-9.84.97,1.08h-9.45l1.35-1.08-1.65,9.84h-2.44Z"/>
        <path class="cls-2" d="M131.38,152.84c-1.84,0-3.25-.63-4.24-1.88-.99-1.25-1.49-3.07-1.49-5.46,0-1.91.22-3.7.65-5.37.44-1.67,1.06-3.13,1.86-4.38s1.78-2.23,2.92-2.94,2.43-1.07,3.86-1.07c1.83,0,3.26.64,4.28,1.92,1.02,1.28,1.53,3.1,1.53,5.48,0,1.91-.22,3.7-.67,5.36-.44,1.66-1.08,3.11-1.91,4.36-.83,1.25-1.82,2.23-2.97,2.93-1.15.7-2.43,1.05-3.84,1.05ZM131.8,150.03c.9,0,1.74-.26,2.52-.78.77-.52,1.45-1.25,2.03-2.19s1.03-2.03,1.35-3.28.49-2.6.49-4.04c0-1.84-.31-3.16-.93-3.97-.62-.81-1.55-1.21-2.79-1.21-.9,0-1.73.27-2.49.8s-1.42,1.27-1.98,2.22-1,2.05-1.31,3.3-.46,2.59-.46,4.01c0,1.86.29,3.18.87,3.97.58.79,1.48,1.18,2.72,1.18Z"/>
        <path class="cls-2" d="M148.04,152.84c-1.84,0-3.25-.63-4.24-1.88-.99-1.25-1.49-3.07-1.49-5.46,0-1.91.22-3.7.65-5.37.44-1.67,1.06-3.13,1.86-4.38s1.78-2.23,2.92-2.94,2.43-1.07,3.86-1.07c1.83,0,3.26.64,4.28,1.92,1.02,1.28,1.53,3.1,1.53,5.48,0,1.91-.22,3.7-.67,5.36-.44,1.66-1.08,3.11-1.91,4.36-.83,1.25-1.82,2.23-2.97,2.93-1.15.7-2.43,1.05-3.84,1.05ZM148.47,150.03c.9,0,1.74-.26,2.52-.78.77-.52,1.45-1.25,2.03-2.19s1.03-2.03,1.35-3.28.49-2.6.49-4.04c0-1.84-.31-3.16-.93-3.97-.62-.81-1.55-1.21-2.79-1.21-.9,0-1.73.27-2.49.8s-1.42,1.27-1.98,2.22-1,2.05-1.31,3.3-.46,2.59-.46,4.01c0,1.86.29,3.18.87,3.97.58.79,1.48,1.18,2.72,1.18Z"/>
        <path class="cls-2" d="M158.17,152.39l3.38-20.19h2.44l-3.2,19.05-1.01-1.68h9.09l-.45,2.81h-10.24Z"/>
      </g>
    </g>
  </g>
</svg>