<?xml version="1.0" encoding="UTF-8"?>
<svg id="Layer_2" data-name="Layer 2" xmlns="http://www.w3.org/2000/svg" viewBox="0 0 534.47 183.76">
  <defs>
    <style>
      .cls-1 {
        fill-rule: evenodd;
      }

      .cls-1, .cls-2 {
        fill: #fff;
      }
    </style>
  </defs>
  <g id="Layer_1-2" data-name="Layer 1">
    <g>
      <path class="cls-2" d="M289.2,133.06v-43.32h21.26c3.35,0,6.26.53,8.75,1.59,2.49,1.06,4.41,2.54,5.77,4.45,1.36,1.91,2.04,4.17,2.04,6.77,0,2.03-.4,3.83-1.19,5.4-.8,1.57-1.94,2.86-3.45,3.87-1.5,1.02-3.32,1.71-5.46,2.08l-.13-.61c3.14,0,5.48.64,7.02,1.92,1.55,1.28,2.4,3.16,2.57,5.64l1,12.2h-12.54l-.63-10.13c-.08-1.59-.52-2.75-1.32-3.51-.79-.75-2.19-1.13-4.2-1.13h-7.21v14.76h-12.29ZM301.49,108.71h6.71c2.05,0,3.61-.42,4.67-1.25,1.07-.83,1.6-2,1.6-3.51s-.53-2.7-1.6-3.48c-1.07-.77-2.62-1.16-4.67-1.16h-6.71v9.4Z"/>
      <g>
        <path class="cls-2" d="M332.99,133.06v-32.34h24.62v7.15h-15.45v5.42h14.88v7.1h-14.88v5.51h15.82v7.15h-25Z"/>
        <path class="cls-2" d="M362.76,133.06v-32.34h9.18v32.34h-9.18Z"/>
        <path class="cls-2" d="M377.13,133.06v-32.34h9.27l11.09,18.22v-18.22h9.18v32.34h-9.27l-11.09-17.31v17.31h-9.18Z"/>
        <path class="cls-2" d="M411.86,133.06v-32.34h12.22c5.59,0,9.88,1.4,12.87,4.21s4.49,6.81,4.49,12-1.47,9.14-4.42,11.93c-2.95,2.79-7.17,4.19-12.66,4.19h-12.5ZM421.04,125.91h3.04c2.78,0,4.8-.73,6.06-2.19s1.9-3.74,1.9-6.83-.63-5.37-1.9-6.83c-1.26-1.46-3.28-2.19-6.06-2.19h-3.04v18.04Z"/>
        <path class="cls-2" d="M446.27,133.06v-32.34h24.62v7.15h-15.45v5.42h14.88v7.1h-14.88v5.51h15.82v7.15h-25Z"/>
        <path class="cls-2" d="M476.04,133.06v-32.34h24.62v7.15h-15.45v5.42h14.88v7.1h-14.88v5.51h15.82v7.15h-25Z"/>
        <path class="cls-2" d="M505.81,133.06v-32.34h15.87c2.5,0,4.67.39,6.53,1.18,1.86.79,3.29,1.9,4.31,3.32,1.01,1.43,1.52,3.11,1.52,5.06,0,1.52-.3,2.86-.89,4.03-.59,1.17-1.45,2.13-2.57,2.89-1.12.76-2.48,1.28-4.07,1.55l-.09-.46c2.34,0,4.09.48,5.24,1.43,1.15.96,1.79,2.36,1.92,4.21l.75,9.11h-9.36l-.47-7.56c-.06-1.19-.39-2.06-.98-2.62-.59-.56-1.64-.84-3.14-.84h-5.38v11.02h-9.18ZM514.99,114.89h5.01c1.53,0,2.69-.31,3.49-.93.8-.62,1.19-1.49,1.19-2.62s-.4-2.02-1.19-2.6c-.8-.58-1.96-.87-3.49-.87h-5.01v7.01Z"/>
      </g>
      <g>
        <path class="cls-2" d="M264,180.94l4.54-32.34h3.27l-4.3,30.51-1.36-2.69h12.2l-.6,4.51h-13.74Z"/>
        <path class="cls-2" d="M279.95,180.94l4.54-32.34h13.98l-.61,4.51h-10.71l-1.36,9.43h10.35l-.63,4.37h-10.35l-1.33,9.52h10.95l-.6,4.51h-14.22Z"/>
        <path class="cls-2" d="M296.35,180.94l12.11-32.34h4.18l3.09,32.34h-3.39l-2.3-27.64-10.05,27.64h-3.63ZM302.28,172.52l1.66-4.46h7.72l.36,4.46h-9.75Z"/>
        <path class="cls-2" d="M318.08,180.94l4.54-32.34h8.29c2.12,0,3.68.7,4.69,2.1s1.51,3.35,1.51,5.87c0,2.06-.29,3.8-.86,5.19-.57,1.4-1.32,2.46-2.22,3.19s-1.85,1.15-2.81,1.28l-.12-.5c1.21,0,2.14.38,2.78,1.14.65.76.97,1.85.97,3.28,0,.67-.04,1.44-.12,2.32-.08.88-.14,1.66-.18,2.32l-.51,6.15h-3.3l.48-5.92c.06-.64.12-1.33.18-2.07s.09-1.45.09-2.12c0-.76-.23-1.37-.68-1.82-.45-.45-1.2-.68-2.23-.68h-5.48l-1.75,12.61h-3.27ZM323.74,163.82h4.96c1.09,0,2.01-.27,2.75-.82.75-.55,1.31-1.32,1.68-2.32s.56-2.2.56-3.6c0-1.28-.27-2.26-.82-2.94-.54-.68-1.47-1.02-2.78-1.02h-4.81l-1.54,10.7Z"/>
        <path class="cls-2" d="M338.45,180.94l4.54-32.34h4.14l5.99,26.37,3.69-26.37h3.27l-4.54,32.34h-4.3l-5.9-25.78-3.63,25.78h-3.27Z"/>
        <path class="cls-2" d="M360.57,180.94l4.54-32.34h3.27l-4.54,32.34h-3.27Z"/>
        <path class="cls-2" d="M368.86,180.94l4.54-32.34h4.14l5.99,26.37,3.69-26.37h3.27l-4.54,32.34h-4.3l-5.9-25.78-3.63,25.78h-3.27Z"/>
        <path class="cls-2" d="M398.61,181.67c-2.26,0-4-1.03-5.22-3.1-1.22-2.06-1.83-5.01-1.83-8.84,0-3.28.27-6.26.82-8.93.54-2.67,1.34-4.97,2.37-6.9,1.04-1.93,2.31-3.42,3.8-4.46,1.49-1.05,3.19-1.57,5.08-1.57,1.67,0,3.03.45,4.06,1.36,1.03.91,1.79,2.19,2.27,3.83.48,1.64.73,3.54.73,5.69l-3.45.27c0-2.19-.29-3.84-.88-4.96s-1.66-1.69-3.21-1.69c-1.29,0-2.44.41-3.45,1.23-1.01.82-1.87,1.99-2.57,3.51-.71,1.52-1.25,3.29-1.62,5.33-.37,2.03-.56,4.25-.56,6.65,0,3.01.37,5.1,1.12,6.29.75,1.18,1.85,1.78,3.3,1.78,1.25,0,2.35-.37,3.3-1.12.95-.74,1.72-1.77,2.33-3.07.6-1.31,1.03-2.76,1.27-4.37h-5.51l.61-4.14h8.56l-2.3,16.49h-2.27l.79-7.29.54.45c-.42,1.4-1.03,2.66-1.83,3.8-.8,1.14-1.73,2.05-2.8,2.73-1.07.68-2.22,1.02-3.45,1.02Z"/>
      </g>
      <g>
        <path class="cls-2" d="M429.7,181.67c-2.32,0-4.16-.96-5.51-2.87-1.35-1.91-2.03-4.92-2.03-9.02,0-2.25.18-4.45.53-6.6.35-2.16.87-4.16,1.54-6.01s1.51-3.47,2.5-4.85,2.12-2.47,3.4-3.26c1.28-.79,2.72-1.18,4.31-1.18,1.75,0,3.16.48,4.22,1.43,1.06.96,1.83,2.28,2.31,3.98.49,1.7.73,3.67.73,5.92l-3.39.27c0-2.43-.33-4.22-1-5.37-.67-1.15-1.82-1.73-3.45-1.73-1.05,0-2,.31-2.86.93-.86.62-1.62,1.46-2.3,2.53s-1.25,2.3-1.72,3.71-.83,2.91-1.06,4.51c-.23,1.59-.35,3.2-.35,4.81,0,3.07.38,5.22,1.15,6.44.77,1.23,1.96,1.85,3.57,1.85,1.72,0,3.15-.69,4.3-2.07s2-3.29,2.54-5.72l3.42.27c-.58,2.46-1.38,4.58-2.39,6.38-1.01,1.79-2.22,3.18-3.63,4.17-1.41.99-3.03,1.48-4.84,1.48Z"/>
        <path class="cls-2" d="M442.71,180.94l4.54-32.34h13.98l-.61,4.51h-10.71l-1.36,9.43h10.35l-.63,4.37h-10.35l-1.33,9.52h10.95l-.6,4.51h-14.22Z"/>
        <path class="cls-2" d="M460.84,180.94l4.54-32.34h4.14l5.99,26.37,3.69-26.37h3.27l-4.54,32.34h-4.3l-5.9-25.78-3.63,25.78h-3.27Z"/>
        <path class="cls-2" d="M485.95,180.94l3.93-27.83h-6.45l.6-4.51h16.16l-.61,4.51h-6.45l-3.93,27.83h-3.27Z"/>
        <path class="cls-2" d="M497.27,180.94l4.54-32.34h13.98l-.61,4.51h-10.71l-1.36,9.43h10.35l-.63,4.37h-10.35l-1.33,9.52h10.95l-.6,4.51h-14.22Z"/>
        <path class="cls-2" d="M515.43,180.94l4.54-32.34h8.29c2.12,0,3.68.7,4.69,2.1s1.51,3.35,1.51,5.87c0,2.06-.29,3.8-.86,5.19-.57,1.4-1.32,2.46-2.22,3.19s-1.85,1.15-2.81,1.28l-.12-.5c1.21,0,2.14.38,2.78,1.14.65.76.97,1.85.97,3.28,0,.67-.04,1.44-.12,2.32-.08.88-.14,1.66-.18,2.32l-.51,6.15h-3.3l.48-5.92c.06-.64.12-1.33.18-2.07s.09-1.45.09-2.12c0-.76-.23-1.37-.68-1.82-.45-.45-1.2-.68-2.23-.68h-5.48l-1.75,12.61h-3.27ZM521.09,163.82h4.96c1.09,0,2.01-.27,2.75-.82.75-.55,1.31-1.32,1.68-2.32s.56-2.2.56-3.6c0-1.28-.27-2.26-.82-2.94-.54-.68-1.47-1.02-2.78-1.02h-4.81l-1.54,10.7Z"/>
      </g>
      <path class="cls-1" d="M195.77,178.69c1.52-6.54,6.81-25.32,21.79-38.17,10.53-9.01,14.29-7.54,34.56-16.03,6.01-2.51,9.12-8.07,10.11-13.81.99-5.78-.12-11.81-2.91-15.27-1.92-2.38-5.8-3.81-10.77-4.92-8.31-1.85-19.5-2.49-30.83-3.12-11.59-.65-23.31-1.29-32.34-3.13-6.49-1.32-11.62-3.31-14.63-6.17-5.05-4.81-6.55-12.89-6.28-20.98.37-11.24,3.98-22.39,4.07-22.9,1.15-6.64-.08-11.25-2.69-14.08-2.89-3.13-7.37-3.91-11.36-2.91-3.96.99-7.5,3.75-8.49,7.96-3.32,14.15-4.02,21.35-5.29,24.99-.6,1.71-1.36,2.82-2.31,3.59-.98.78-2.2,1.24-3.89,1.42-1.35.14-2.89-.3-4.49-1.41-1.75-1.21-3.69-3.3-5.68-5.95-7.09-9.46-15.1-26.44-18.09-31.66-3.9-6.82-8.09-10.23-12.17-11.2-4.45-1.06-8.58.91-11.5,3.93-2.95,3.04-4.76,7.18-4.26,10.66.58,4.05,1.75,4.85,14.58,27.68,2.29,4.07,4.07,7.31,4.84,9.8.72,2.33.62,4.2-.17,5.66-.57,1.05-1.52,1.96-3.01,2.63-1.59.72-3.96,1.19-7.31,1.35-24.76,1.18-41.03-9.07-43.83-10.39-1.15-.54-13.89-6.79-24.87-7.76-6.31-.56-12.12.52-13.66,6.76-1.25,5.1,2.48,9.43,8.09,13.33,14.98,10.44,43.86,16.88,51.64,18.27,9.12,1.62,50.16,4.54,62.88,9.98,5.14,2.19,6.3,5.34,4.19,8.09-1.21,1.58-3.37,3.09-6.26,4.42-3.81,1.76-8.95,3.29-14.48,4.65-9.41,2.31-19.98,4.11-26.77,5.71-2.62.62-4.62,1.16-5.64,1.74-.94.53-2.28,2.13-3.19,4.14-.91,2-1.37,4.48-.27,6.89,2.05,4.49,6.62,6.36,12.01,7.24,6.08.99,13.21.66,19.7.48,5.53-.15,10.62-.18,14.37.66,3.1.69,5.38,2.01,6.65,3.98,1.38,2.13,1.81,5.32.98,9.25-1.43,6.72-6.61,15.97-15.54,25.03l82.55-.4ZM127.78,102.33c-.31-.24-.85-.64-1.35-.88-1.56-.77-3.75-1.48-6.37-2.14-16.32-4.16-48.39-6.48-56.28-7.89-8.06-1.43-37.95-8.21-53.48-19.03C2.84,67.19-1.3,60.93.37,54.14c2.14-8.69,9.79-11.06,18.58-10.28,11.66,1.04,25.22,7.62,26.44,8.19,2.65,1.26,18.1,11.06,41.62,9.95,2.19-.11,3.87-.33,5.08-.74.67-.22,1.16-.42,1.38-.83.13-.24.12-.53.09-.85-.07-.67-.31-1.42-.65-2.28-.85-2.11-2.31-4.7-4.07-7.83-13.52-24.06-14.52-25.03-15.12-29.3-.67-4.72,1.53-10.42,5.53-14.55,4.03-4.15,9.78-6.67,15.91-5.22,4.99,1.18,10.36,5.07,15.13,13.41,2.94,5.14,10.8,21.87,17.78,31.18,1.38,1.84,2.71,3.38,3.97,4.43.77.64,1.39,1.17,2.02,1.11.62-.06,1.1-.13,1.46-.42.71-.57.95-1.65,1.36-3.38.96-4.06,1.88-10.97,4.63-22.64,1.4-5.96,6.3-10.01,11.9-11.41,5.59-1.39,11.83-.13,15.9,4.27,3.34,3.63,5.32,9.49,3.84,18.03-.08.5-3.64,11.33-3.99,22.26-.22,6.69.67,13.48,4.84,17.47,3.06,2.91,8.85,4.5,15.94,5.63,11.45,1.82,26.21,2.15,39.43,3.09,9.04.64,17.4,1.57,23.59,3.39,4.58,1.35,8.05,3.24,10.03,5.68,3.47,4.3,5.09,11.77,3.85,18.97-1.24,7.24-5.31,14.14-12.88,17.31-19.52,8.16-23.22,6.6-33.33,15.27-15.77,13.51-19.98,34.08-20.68,37.43-.22,1.07-1.16,1.85-2.26,1.85l-90.28.43c-.97,0-1.83-.59-2.18-1.49-.35-.9-.1-1.93.63-2.57,9.17-8.14,15.06-16.75,17.51-23.55.75-2.09,1.17-3.99,1.22-5.63.04-1.29-.14-2.39-.66-3.19-.93-1.44-2.95-1.93-5.47-2.27-4.91-.66-11.59-.19-18.34-.08-5.95.1-11.95-.08-16.99-1.38-5.57-1.44-9.99-4.25-12.26-9.22-1.72-3.76-1.15-7.61.26-10.73,1.41-3.12,3.69-5.44,5.14-6.26,1.24-.7,3.66-1.46,6.86-2.21,6.78-1.6,17.33-3.4,26.73-5.7,5.21-1.28,10.06-2.7,13.65-4.36,1.89-.87,3.42-1.76,4.31-2.78Z"/>
      <path class="cls-1" d="M235.38,12.9c-7.17,0-12.99,5.82-12.99,12.99s5.82,12.99,12.99,12.99,12.99-5.82,12.99-12.99-5.82-12.99-12.99-12.99ZM235.38,8.26c9.74,0,17.63,7.9,17.63,17.63s-7.89,17.63-17.63,17.63-17.63-7.9-17.63-17.63,7.91-17.63,17.63-17.63Z"/>
    </g>
  </g>
</svg>