<?xml version="1.0" encoding="UTF-8"?>
<svg id="Layer_2" data-name="Layer 2" xmlns="http://www.w3.org/2000/svg" viewBox="0 0 584.64 198.42">
  <defs>
    <style>
      .cls-1 {
        fill-rule: evenodd;
      }

      .cls-1, .cls-2 {
        fill: #fff;
      }
    </style>
  </defs>
  <g id="Layer_1-2" data-name="Layer 1">
    <g>
      <path class="cls-1" d="M13.62,135.74h5.95c1.82,0,3.2-.37,4.14-1.1.95-.74,1.42-1.77,1.42-3.1s-.47-2.39-1.42-3.07c-.94-.68-2.32-1.02-4.14-1.02h-5.95v8.29ZM29.14,139.89c1.82.21,3.24.74,4.27,1.59,1.37,1.13,2.13,2.79,2.28,4.98l.89,10.77h-11.12l-.56-8.94c-.07-1.4-.46-2.43-1.17-3.09-.7-.66-1.95-1-3.72-1h-6.39v13.03H2.73v-38.23h18.85c2.96,0,5.55.47,7.75,1.4,2.2.93,3.91,2.24,5.11,3.93,1.2,1.69,1.81,3.68,1.81,5.97,0,1.8-.35,3.38-1.06,4.77-.7,1.38-1.72,2.52-3.06,3.42-.88.59-1.88,1.06-2.99,1.4Z"/>
      <polygon class="cls-1" points="42.42 157.22 42.42 119 71.66 119 71.66 127.45 53.32 127.45 53.32 133.86 71 133.86 71 142.26 53.32 142.26 53.32 148.77 72.11 148.77 72.11 157.22 42.42 157.22"/>
      <g>
        <path class="cls-1" d="M308.53,100.51l-50.79.24c8.93-7.93,12.49-16.67,10.39-19.9-3.47-5.35-25.31,2.62-29.75-7.12-1.59-3.47,1.15-7.12,2.49-7.88,3.53-1.99,25.87-4.2,29.5-8.95,3.64-4.75-30.56-6.95-36.92-8.08-6.36-1.13-37.38-8.23-34.64-19.37,2.58-10.5,22.39-.83,23.5-.3,1.53.72,10.46,6.36,24.03,5.72,6.94-.33,5.51-2.92,2.1-8.99-7.41-13.19-8.02-13.69-8.35-16.03-.94-6.58,10.02-16.95,18.14-2.74,2.38,4.17,10.47,21.73,14.63,21.3,3.25-.33,2.24-2.74,5.33-15.87,1.92-8.18,17.71-8.62,15.24,5.6-.08.47-5.62,17.33.87,23.52,7.74,7.38,43.84,2.31,49.94,9.88,3.52,4.36,3.07,15.19-4.56,18.38-11.19,4.68-13.29,3.83-19.09,8.8-9.18,7.86-11.65,19.83-12.06,21.78Z"/>
        <path class="cls-1" d="M329.76,4.64c4.75,0,8.61,3.86,8.61,8.61s-3.86,8.61-8.61,8.61-8.61-3.86-8.61-8.61,3.86-8.61,8.61-8.61Z"/>
        <path class="cls-1" d="M217.43,135.74h5.95c1.82,0,3.2-.37,4.14-1.1.95-.74,1.42-1.77,1.42-3.1s-.47-2.39-1.42-3.07c-.94-.68-2.32-1.02-4.14-1.02h-5.95v8.29ZM232.95,139.89c1.82.21,3.24.74,4.27,1.59,1.37,1.13,2.13,2.79,2.28,4.98l.89,10.77h-11.12l-.56-8.94c-.07-1.4-.46-2.43-1.17-3.09-.7-.66-1.95-1-3.72-1h-6.39v13.03h-10.9v-38.23h18.85c2.97,0,5.55.47,7.75,1.4,2.21.93,3.91,2.24,5.12,3.93,1.2,1.69,1.81,3.68,1.81,5.97,0,1.8-.35,3.38-1.06,4.77-.7,1.38-1.72,2.52-3.06,3.42-.88.59-1.88,1.06-2.99,1.4Z"/>
        <rect class="cls-2" x="77.78" y="119" width="10.9" height="38.23"/>
        <path class="cls-1" d="M105.91,148.77h3.61c3.3,0,5.7-.86,7.2-2.59,1.5-1.72,2.25-4.41,2.25-8.08s-.75-6.35-2.25-8.08c-1.5-1.72-3.9-2.59-7.2-2.59h-3.61v21.32ZM95.01,157.22v-38.23h14.51c6.63,0,11.73,1.66,15.29,4.98,3.56,3.32,5.34,8.05,5.34,14.19s-1.75,10.8-5.25,14.1c-3.5,3.3-8.52,4.95-15.04,4.95h-14.84Z"/>
        <polygon class="cls-1" points="135.82 157.22 135.82 119 165.06 119 165.06 127.45 146.71 127.45 146.71 133.86 164.39 133.86 164.39 142.26 146.71 142.26 146.71 148.77 165.5 148.77 165.5 157.22 135.82 157.22"/>
        <polygon class="cls-1" points="171.17 157.22 171.17 119 200.42 119 200.42 127.45 182.07 127.45 182.07 133.86 199.75 133.86 199.75 142.26 182.07 142.26 182.07 148.77 200.86 148.77 200.86 157.22 171.17 157.22"/>
        <polygon class="cls-1" points="258.12 157.22 258.12 119 287.36 119 287.36 127.45 269.02 127.45 269.02 133.86 286.7 133.86 286.7 142.26 269.02 142.26 269.02 148.77 287.81 148.77 287.81 157.22 258.12 157.22"/>
        <path class="cls-1" d="M304.37,148.77h3.61c3.3,0,5.7-.86,7.2-2.59,1.5-1.72,2.25-4.41,2.25-8.08s-.75-6.35-2.25-8.08c-1.5-1.72-3.9-2.59-7.2-2.59h-3.61v21.32ZM293.48,157.22v-38.23h14.51c6.63,0,11.73,1.66,15.29,4.98,3.56,3.32,5.34,8.05,5.34,14.19s-1.75,10.8-5.25,14.1c-3.5,3.3-8.52,4.95-15.04,4.95h-14.84Z"/>
        <path class="cls-1" d="M350.41,158.08c-3.49,0-6.52-.61-9.09-1.83-2.57-1.22-4.56-2.95-5.97-5.19-1.41-2.24-2.11-4.89-2.11-7.94v-24.12h10.9v24.12c0,2.08.54,3.68,1.61,4.81,1.07,1.13,2.63,1.7,4.67,1.7s3.65-.57,4.73-1.7c1.07-1.13,1.61-2.74,1.61-4.81v-24.12h10.9v24.12c0,3.05-.7,5.7-2.11,7.94-1.41,2.24-3.4,3.97-5.98,5.19-2.58,1.22-5.63,1.83-9.15,1.83Z"/>
        <path class="cls-1" d="M391.54,158.08c-3.67,0-6.94-.79-9.81-2.37-2.87-1.58-5.13-3.85-6.78-6.81-1.65-2.96-2.47-6.54-2.47-10.74s.78-7.53,2.33-10.53c1.56-3,3.78-5.33,6.67-7,2.89-1.67,6.32-2.5,10.29-2.5,5.41,0,9.63,1.27,12.65,3.82,3.02,2.55,4.96,6.26,5.81,11.14l-11.28.38c-.37-2.19-1.19-3.89-2.45-5.09-1.26-1.2-2.83-1.8-4.72-1.8s-3.33.49-4.53,1.48c-1.2.99-2.1,2.35-2.69,4.09-.59,1.74-.89,3.74-.89,6s.31,4.36.94,6.08c.63,1.72,1.55,3.05,2.75,3.98,1.2.93,2.64,1.4,4.31,1.4,2.15,0,3.82-.64,5-1.91s1.95-3.08,2.28-5.41l11.34.38c-.56,3.34-1.63,6.15-3.22,8.43-1.59,2.28-3.68,4.01-6.25,5.19s-5.66,1.78-9.26,1.78Z"/>
        <path class="cls-1" d="M427.62,142.74h8.51l-4.23-12.11-4.28,12.11ZM411.45,157.22l14.23-38.23h12.4l14.23,38.23h-11.12l-2.22-6.3h-14.23l-2.22,6.3h-11.06Z"/>
        <polygon class="cls-1" points="459.48 157.22 459.48 127.45 447.97 127.45 447.97 119 481.94 119 481.94 127.45 470.43 127.45 470.43 157.22 459.48 157.22"/>
        <rect class="cls-2" x="485.38" y="119" width="10.9" height="38.23"/>
        <path class="cls-1" d="M520.95,149.63c1.86,0,3.45-.45,4.77-1.35,1.32-.9,2.33-2.2,3.03-3.9.7-1.7,1.05-3.77,1.05-6.21s-.35-4.52-1.06-6.24c-.7-1.72-1.72-3.04-3.04-3.96-1.32-.92-2.91-1.38-4.77-1.38s-3.41.46-4.73,1.38-2.33,2.24-3.03,3.96c-.7,1.72-1.05,3.8-1.05,6.24s.35,4.51,1.06,6.21c.7,1.7,1.72,3,3.04,3.9,1.32.9,2.9,1.35,4.74,1.35ZM520.97,158.08c-4.15,0-7.73-.81-10.73-2.42-3-1.62-5.3-3.91-6.89-6.89-1.59-2.98-2.39-6.52-2.39-10.61s.8-7.64,2.39-10.63c1.59-3,3.89-5.31,6.88-6.95,2.99-1.63,6.57-2.45,10.74-2.45s7.78.82,10.76,2.45c2.98,1.63,5.27,3.95,6.86,6.95,1.59,3,2.39,6.54,2.39,10.63s-.8,7.63-2.39,10.61c-1.59,2.98-3.88,5.28-6.86,6.89-2.98,1.61-6.57,2.42-10.76,2.42Z"/>
        <polygon class="cls-1" points="546.87 157.22 546.87 119 557.88 119 571.05 140.53 571.05 119 581.95 119 581.95 157.22 570.94 157.22 557.77 136.76 557.77 157.22 546.87 157.22"/>
        <polygon class="cls-1" points="332.36 187.6 332.36 195.64 326.53 195.64 326.53 175.18 332.36 175.18 332.36 183.08 338.64 183.08 338.64 175.18 344.47 175.18 344.47 195.64 338.64 195.64 338.64 187.6 332.36 187.6"/>
        <polygon class="cls-1" points="400.54 191.11 409.74 191.11 409.74 195.64 394.71 195.64 394.71 175.18 400.54 175.18 400.54 191.11"/>
        <polygon class="cls-1" points="174.94 195.64 174.94 175.18 182.62 175.18 187.08 188.17 191.54 175.18 199.22 175.18 199.22 195.64 193.38 195.64 193.38 184.11 189.13 195.55 184.99 195.55 180.77 184.11 180.77 195.64 174.94 195.64"/>
        <path class="cls-1" d="M212.1,196.1c-1.87,0-3.49-.33-4.87-.98-1.38-.65-2.44-1.58-3.2-2.78-.75-1.2-1.13-2.62-1.13-4.25v-12.91h5.83v12.91c0,1.11.29,1.97.86,2.58.57.61,1.41.91,2.5.91s1.95-.3,2.53-.91c.58-.61.86-1.47.86-2.58v-12.91h5.83v12.91c0,1.63-.38,3.05-1.13,4.25-.75,1.2-1.82,2.13-3.2,2.78s-3.01.98-4.89.98Z"/>
        <path class="cls-1" d="M233.63,196.1c-1.94,0-3.6-.3-4.97-.89-1.37-.6-2.43-1.44-3.18-2.54-.75-1.09-1.18-2.39-1.28-3.89l5.8-.26c.1.67.3,1.24.59,1.71.3.47.7.83,1.21,1.07.5.24,1.13.36,1.89.36.59,0,1.1-.06,1.52-.19.42-.12.73-.32.95-.59.22-.27.33-.61.33-1.01,0-.37-.09-.69-.28-.97-.19-.28-.56-.53-1.1-.75-.55-.22-1.35-.44-2.42-.65-1.92-.38-3.48-.83-4.67-1.34-1.19-.51-2.06-1.17-2.6-1.97-.55-.81-.82-1.83-.82-3.08s.34-2.38,1.01-3.34c.67-.96,1.65-1.71,2.91-2.25,1.27-.54,2.8-.81,4.58-.81,1.88,0,3.46.31,4.73.92,1.27.61,2.26,1.46,2.96,2.53.7,1.08,1.13,2.32,1.26,3.75l-5.74.23c-.04-.63-.2-1.17-.48-1.61-.28-.44-.65-.78-1.12-1.02-.47-.24-1.03-.36-1.68-.36-.83,0-1.48.16-1.93.49-.46.32-.68.76-.68,1.3,0,.42.11.78.34,1.07.23.29.61.53,1.13.72.53.19,1.24.37,2.16.52,2.08.35,3.73.82,4.94,1.41,1.21.59,2.07,1.31,2.57,2.13.51.83.76,1.78.76,2.85,0,1.33-.34,2.47-1.03,3.44-.68.97-1.68,1.71-2.98,2.23-1.3.52-2.86.78-4.68.78Z"/>
        <rect class="cls-2" x="245.77" y="175.18" width="5.83" height="20.45"/>
        <path class="cls-1" d="M264.3,196.1c-1.96,0-3.71-.42-5.25-1.27-1.54-.85-2.75-2.06-3.63-3.65-.88-1.58-1.32-3.5-1.32-5.75s.42-4.03,1.25-5.63c.83-1.6,2.02-2.85,3.57-3.75,1.55-.89,3.38-1.34,5.5-1.34,2.89,0,5.15.68,6.77,2.04,1.62,1.36,2.65,3.35,3.11,5.96l-6.04.2c-.2-1.17-.63-2.08-1.31-2.72-.67-.64-1.52-.96-2.53-.96s-1.78.26-2.42.79c-.65.53-1.13,1.26-1.44,2.19-.32.93-.48,2-.48,3.21s.17,2.33.51,3.26c.34.92.83,1.63,1.47,2.13.64.5,1.41.75,2.3.75,1.15,0,2.04-.34,2.68-1.02.63-.68,1.04-1.65,1.22-2.9l6.07.2c-.3,1.79-.87,3.29-1.72,4.51-.85,1.22-1.97,2.15-3.35,2.78-1.38.63-3.03.95-4.95.95Z"/>
        <path class="cls-1" d="M292.65,196.1c-1.94,0-3.6-.3-4.97-.89-1.37-.6-2.43-1.44-3.18-2.54-.75-1.09-1.18-2.39-1.28-3.89l5.8-.26c.1.67.3,1.24.59,1.71.3.47.7.83,1.21,1.07.5.24,1.13.36,1.89.36.59,0,1.1-.06,1.52-.19.42-.12.73-.32.95-.59.22-.27.33-.61.33-1.01,0-.37-.09-.69-.28-.97s-.56-.53-1.1-.75-1.35-.44-2.42-.65c-1.92-.38-3.48-.83-4.67-1.34-1.19-.51-2.06-1.17-2.6-1.97-.54-.81-.82-1.83-.82-3.08s.34-2.38,1.01-3.34c.67-.96,1.65-1.71,2.91-2.25,1.27-.54,2.8-.81,4.58-.81,1.88,0,3.46.31,4.73.92,1.27.61,2.26,1.46,2.96,2.53.7,1.08,1.13,2.32,1.26,3.75l-5.74.23c-.04-.63-.2-1.17-.48-1.61-.28-.44-.65-.78-1.12-1.02-.47-.24-1.03-.36-1.68-.36-.83,0-1.48.16-1.93.49-.46.32-.68.76-.68,1.3,0,.42.11.78.34,1.07.23.29.61.53,1.13.72.53.19,1.24.37,2.16.52,2.08.35,3.73.82,4.94,1.41,1.21.59,2.07,1.31,2.57,2.13.51.83.76,1.78.76,2.85,0,1.33-.34,2.47-1.03,3.44-.68.97-1.67,1.71-2.98,2.23-1.3.52-2.86.78-4.68.78Z"/>
        <path class="cls-1" d="M314.22,196.1c-1.96,0-3.71-.42-5.25-1.27-1.54-.85-2.75-2.06-3.63-3.65-.88-1.58-1.32-3.5-1.32-5.75s.42-4.03,1.25-5.63,2.02-2.85,3.57-3.75c1.55-.89,3.38-1.34,5.5-1.34,2.9,0,5.15.68,6.77,2.04,1.62,1.36,2.65,3.35,3.11,5.96l-6.04.2c-.2-1.17-.63-2.08-1.31-2.72-.67-.64-1.52-.96-2.53-.96s-1.78.26-2.42.79c-.64.53-1.13,1.26-1.44,2.19s-.48,2-.48,3.21.17,2.33.5,3.26c.34.92.83,1.63,1.47,2.13.64.5,1.41.75,2.3.75,1.15,0,2.04-.34,2.68-1.02.63-.68,1.04-1.65,1.22-2.9l6.07.2c-.3,1.79-.87,3.29-1.73,4.51-.85,1.22-1.97,2.15-3.35,2.78-1.38.63-3.03.95-4.95.95Z"/>
        <path class="cls-1" d="M357.67,191.57c1,0,1.85-.24,2.55-.73.7-.48,1.24-1.18,1.62-2.09.38-.91.56-2.02.56-3.32s-.19-2.42-.56-3.34c-.38-.92-.92-1.63-1.63-2.12-.71-.49-1.56-.74-2.55-.74s-1.83.25-2.53.74c-.71.49-1.25,1.2-1.62,2.12-.38.92-.56,2.03-.56,3.34s.19,2.41.57,3.32c.38.91.92,1.61,1.63,2.09.71.48,1.55.73,2.53.73ZM357.68,196.1c-2.22,0-4.14-.43-5.74-1.3-1.61-.86-2.84-2.09-3.69-3.69-.85-1.59-1.28-3.49-1.28-5.68s.43-4.08,1.28-5.69c.85-1.6,2.08-2.84,3.68-3.72,1.6-.87,3.52-1.31,5.75-1.31s4.16.44,5.76,1.31c1.59.87,2.82,2.11,3.67,3.72.85,1.6,1.28,3.5,1.28,5.69s-.43,4.08-1.28,5.68c-.85,1.59-2.08,2.82-3.67,3.69-1.59.86-3.51,1.3-5.76,1.3Z"/>
        <path class="cls-1" d="M381.47,191.57c1,0,1.85-.24,2.55-.73.7-.48,1.24-1.18,1.62-2.09.38-.91.56-2.02.56-3.32s-.19-2.42-.57-3.34c-.38-.92-.92-1.63-1.62-2.12-.71-.49-1.56-.74-2.55-.74s-1.83.25-2.53.74c-.71.49-1.25,1.2-1.62,2.12-.37.92-.56,2.03-.56,3.34s.19,2.41.57,3.32c.38.91.92,1.61,1.63,2.09.71.48,1.55.73,2.53.73ZM381.48,196.1c-2.22,0-4.13-.43-5.74-1.3-1.61-.86-2.84-2.09-3.69-3.69-.85-1.59-1.28-3.49-1.28-5.68s.43-4.08,1.28-5.69c.85-1.6,2.08-2.84,3.68-3.72,1.6-.87,3.52-1.31,5.75-1.31s4.16.44,5.76,1.31c1.59.87,2.82,2.11,3.67,3.72.85,1.6,1.28,3.5,1.28,5.69s-.43,4.08-1.28,5.68c-.85,1.59-2.08,2.82-3.67,3.69-1.59.86-3.51,1.3-5.76,1.3Z"/>
        <path class="cls-1" d="M421.01,186.13l-.48-1.47c-.13-.41.09-.84.49-.98l2.94-.96c.41-.13.84.09.98.49l.48,1.47c.11.33,1.05,3.88,2.57,6.68.42.78.88,1.5,1.39,2.01.11.11.21.21.32.3.06.05.11.1.18.1.16,0,.28-.09.4-.21.24-.23.46-.56.7-.92,1.25-1.92,2.24-4.94,3.26-7.96,1.16-3.43,2.35-6.84,3.78-9.03,1.42-2.17,3.18-3.28,5.08-3.26,1.87.02,3.61,1.15,5.01,3.3,1.43,2.19,2.62,5.57,3.78,8.97,1.02,3,2.01,6,3.27,7.92.24.37.47.7.72.94.13.13.27.23.44.23.16,0,.29-.1.41-.22.25-.24.47-.57.71-.93,1.25-1.92,2.25-4.93,3.27-7.94,1.16-3.41,2.36-6.81,3.78-8.99,1.41-2.16,3.16-3.28,5.03-3.28,1.9,0,3.65,1.11,5.06,3.27,1.43,2.19,2.61,5.59,3.77,9.01,1.01,3.01,1.99,6.02,3.25,7.94.24.36.46.7.71.93.13.12.26.22.43.22.18,0,.33-.11.47-.24.26-.24.48-.58.73-.95,1.26-1.92,2.23-4.92,3.24-7.91,1.15-3.4,2.33-6.79,3.76-8.98,1.4-2.14,3.14-3.27,5.03-3.3,2.22-.03,4.07,1.27,5.46,3.54,1.44,2.35,2.44,5.86,3.39,8.74.84,2.55,1.61,5.64,2.88,7.71.25.41.51.79.82,1.05.22.19.46.33.76.33.16,0,.28-.09.4-.21.24-.23.46-.56.7-.92,1.25-1.92,2.24-4.94,3.25-7.96,1.16-3.43,2.35-6.84,3.78-9.03,1.42-2.17,3.18-3.28,5.08-3.26,1.87.02,3.61,1.15,5.01,3.3,1.43,2.19,2.62,5.57,3.78,8.97,1.02,3,2.01,6,3.27,7.92.24.37.47.7.72.94.13.13.27.23.44.23.16,0,.29-.1.41-.22.25-.24.47-.57.71-.93,1.26-1.92,2.25-4.93,3.27-7.94,1.16-3.41,2.36-6.81,3.78-8.99,1.41-2.16,3.15-3.28,5.03-3.28,1.9,0,3.65,1.11,5.06,3.27,1.43,2.19,2.61,5.59,3.76,9.01,1.01,3.01,1.99,6.02,3.25,7.94.24.36.46.7.71.93.13.12.26.22.43.22.18,0,.32-.11.47-.24.26-.24.48-.58.73-.95,1.25-1.92,2.23-4.92,3.24-7.91,1.15-3.4,2.33-6.79,3.76-8.98,1.4-2.14,3.14-3.27,5.03-3.3,1.74-.02,3.39.93,4.73,2.66,2.11,2.72,3.53,7.58,4.15,9.71l.43,1.49c.12.41-.12.84-.53.96l-2.98.86c-.41.12-.84-.12-.96-.53l-.43-1.49c-.45-1.56-1.35-4.85-2.74-7.22-.36-.61-.74-1.15-1.17-1.53-.15-.13-.27-.26-.44-.26-.19,0-.33.11-.48.25-.26.24-.49.58-.73.95-1.26,1.92-2.24,4.93-3.24,7.92-1.15,3.4-2.33,6.79-3.75,8.97-1.4,2.14-3.14,3.27-5.03,3.29-1.9.02-3.65-1.09-5.07-3.25-1.43-2.18-2.61-5.58-3.76-9-1.01-3.01-1.99-6.03-3.25-7.95-.24-.37-.47-.7-.72-.94-.14-.13-.27-.23-.45-.23s-.3.11-.43.23c-.25.24-.48.58-.72.95-1.26,1.93-2.25,4.95-3.28,7.95-1.16,3.41-2.35,6.81-3.78,8.98-1.41,2.16-3.16,3.27-5.04,3.26-1.87-.01-3.61-1.13-5.02-3.28-1.42-2.18-2.61-5.56-3.78-8.96-1.02-3-2.02-6.01-3.27-7.93-.24-.37-.47-.71-.73-.96-.14-.13-.28-.24-.45-.24-.17,0-.29.1-.42.22-.25.24-.47.57-.71.93-1.26,1.92-2.24,4.96-3.26,7.97-1.16,3.43-2.34,6.84-3.77,9.02-1.42,2.17-3.18,3.27-5.08,3.23-2.26-.05-4.08-1.37-5.44-3.6-1.43-2.34-2.38-5.8-3.33-8.68-.84-2.55-1.66-5.68-2.93-7.76-.25-.41-.5-.78-.79-1.04-.19-.17-.39-.29-.65-.29-.19,0-.33.11-.48.25-.26.24-.49.58-.73.95-1.26,1.92-2.23,4.93-3.24,7.92-1.15,3.4-2.32,6.79-3.75,8.97-1.4,2.14-3.14,3.27-5.03,3.29-1.9.02-3.65-1.09-5.07-3.25-1.43-2.18-2.61-5.58-3.76-9-1.01-3.01-1.99-6.03-3.25-7.95-.24-.37-.47-.7-.72-.94-.14-.13-.27-.23-.44-.23s-.3.11-.44.23c-.25.24-.48.58-.72.95-1.26,1.93-2.25,4.95-3.28,7.95-1.16,3.41-2.36,6.81-3.78,8.98-1.41,2.16-3.16,3.27-5.04,3.26-1.87-.01-3.61-1.13-5.01-3.28-1.43-2.18-2.62-5.56-3.78-8.96-1.02-3-2.01-6.01-3.27-7.93-.24-.37-.47-.71-.73-.96-.14-.13-.28-.24-.45-.24-.17,0-.29.1-.42.22-.25.24-.47.57-.71.93-1.26,1.92-2.24,4.96-3.26,7.97-1.15,3.43-2.34,6.84-3.77,9.02-1.42,2.17-3.18,3.27-5.08,3.23-1.74-.04-3.51-1.22-4.9-3.24-2.24-3.23-3.73-8.62-3.87-9.05Z"/>
        <path class="cls-1" d="M.52,186.13l-.48-1.47c-.13-.41.09-.84.5-.98l2.94-.96c.41-.13.84.09.98.49l.48,1.47c.11.33,1.05,3.88,2.56,6.68.42.78.88,1.5,1.39,2.01.11.11.21.21.32.3.06.05.11.1.18.1.16,0,.28-.09.4-.21.24-.23.46-.56.7-.92,1.26-1.92,2.24-4.94,3.26-7.96,1.16-3.43,2.35-6.84,3.78-9.03,1.42-2.17,3.18-3.28,5.08-3.26,1.87.02,3.6,1.15,5.01,3.3,1.43,2.19,2.62,5.57,3.78,8.97,1.02,3,2.01,6,3.27,7.92.24.37.47.7.72.94.13.13.27.23.44.23.16,0,.29-.1.41-.22.25-.24.47-.57.71-.93,1.25-1.92,2.25-4.93,3.27-7.94,1.16-3.41,2.36-6.81,3.78-8.99,1.41-2.16,3.16-3.28,5.03-3.28,1.9,0,3.65,1.11,5.06,3.27,1.43,2.19,2.61,5.59,3.77,9.01,1.01,3.01,1.99,6.02,3.25,7.94.24.36.46.7.71.93.13.12.26.22.43.22.18,0,.33-.11.47-.24.25-.24.48-.58.72-.95,1.26-1.92,2.23-4.92,3.24-7.91,1.15-3.4,2.33-6.79,3.76-8.98,1.4-2.14,3.14-3.27,5.03-3.3,2.22-.03,4.07,1.27,5.46,3.54,1.44,2.35,2.44,5.86,3.39,8.74.84,2.55,1.61,5.64,2.88,7.71.25.41.51.79.82,1.05.22.19.46.33.76.33.16,0,.28-.09.4-.21.24-.23.46-.56.7-.92,1.25-1.92,2.24-4.94,3.25-7.96,1.16-3.43,2.35-6.84,3.78-9.03,1.42-2.17,3.18-3.28,5.08-3.26,1.87.02,3.61,1.15,5.01,3.3,1.43,2.19,2.62,5.57,3.78,8.97,1.02,3,2.01,6,3.27,7.92.24.37.47.7.72.94.13.13.27.23.44.23.16,0,.29-.1.41-.22.25-.24.47-.57.71-.93,1.26-1.92,2.25-4.93,3.27-7.94,1.16-3.41,2.36-6.81,3.78-8.99,1.41-2.16,3.15-3.28,5.03-3.28,1.9,0,3.65,1.11,5.06,3.27,1.43,2.19,2.61,5.59,3.76,9.01,1.01,3.01,1.99,6.02,3.25,7.94.24.36.46.7.71.93.13.12.26.22.43.22.18,0,.32-.11.47-.24.26-.24.48-.58.73-.95,1.25-1.92,2.23-4.92,3.24-7.91,1.15-3.4,2.33-6.79,3.76-8.98,1.4-2.14,3.14-3.27,5.03-3.3,1.74-.02,3.39.93,4.73,2.66,2.11,2.72,3.53,7.58,4.15,9.71l.43,1.49c.12.41-.12.84-.53.96l-2.98.86c-.41.12-.84-.12-.96-.53l-.43-1.49c-.45-1.56-1.35-4.85-2.74-7.22-.36-.61-.74-1.15-1.17-1.53-.15-.13-.27-.26-.44-.26-.19,0-.33.11-.48.25-.26.24-.49.58-.73.95-1.26,1.92-2.24,4.93-3.24,7.92-1.15,3.4-2.33,6.79-3.75,8.97-1.4,2.14-3.14,3.27-5.03,3.29-1.9.02-3.65-1.09-5.07-3.25-1.43-2.18-2.61-5.58-3.76-9-1.01-3.01-1.99-6.03-3.25-7.95-.24-.37-.47-.7-.72-.94-.14-.13-.27-.23-.45-.23s-.3.11-.43.23c-.25.24-.48.58-.72.95-1.26,1.93-2.25,4.95-3.28,7.95-1.16,3.41-2.35,6.81-3.78,8.98-1.41,2.16-3.16,3.27-5.04,3.26-1.87-.01-3.61-1.13-5.02-3.28-1.42-2.18-2.61-5.56-3.78-8.96-1.02-3-2.02-6.01-3.27-7.93-.24-.37-.47-.71-.73-.96-.14-.13-.28-.24-.45-.24-.17,0-.29.1-.42.22-.25.24-.47.57-.71.93-1.26,1.92-2.24,4.96-3.26,7.97-1.16,3.43-2.34,6.84-3.77,9.02-1.42,2.17-3.18,3.27-5.08,3.23-2.26-.05-4.08-1.37-5.44-3.6-1.43-2.34-2.38-5.8-3.33-8.68-.84-2.55-1.66-5.68-2.93-7.76-.25-.41-.5-.78-.79-1.04-.19-.17-.4-.29-.65-.29-.19,0-.33.11-.48.25-.26.24-.49.58-.73.95-1.26,1.92-2.23,4.93-3.24,7.92-1.15,3.4-2.32,6.79-3.75,8.97-1.4,2.14-3.14,3.27-5.03,3.29-1.9.02-3.65-1.09-5.07-3.25-1.43-2.18-2.61-5.58-3.76-9-1.01-3.01-1.99-6.03-3.25-7.95-.24-.37-.47-.7-.72-.94-.14-.13-.27-.23-.44-.23s-.3.11-.43.23c-.25.24-.48.58-.72.95-1.26,1.93-2.25,4.95-3.28,7.95-1.16,3.41-2.36,6.81-3.78,8.98-1.41,2.16-3.16,3.27-5.04,3.26-1.87-.01-3.61-1.13-5.01-3.28-1.42-2.18-2.62-5.56-3.78-8.96-1.02-3-2.01-6.01-3.27-7.93-.24-.37-.47-.71-.73-.96-.14-.13-.28-.24-.45-.24-.17,0-.29.1-.42.22-.25.24-.47.57-.71.93-1.26,1.92-2.24,4.96-3.26,7.97-1.16,3.43-2.35,6.84-3.77,9.02-1.42,2.17-3.18,3.27-5.08,3.23-1.74-.04-3.51-1.22-4.9-3.24-2.24-3.23-3.73-8.62-3.87-9.05Z"/>
      </g>
    </g>
  </g>
</svg>