<?xml version="1.0" encoding="UTF-8"?>
<svg id="Layer_2" data-name="Layer 2" xmlns="http://www.w3.org/2000/svg" viewBox="0 0 394.77 62.57">
  <defs>
    <style>
      .cls-1 {
        fill: #fff;
        fill-rule: evenodd;
      }
    </style>
  </defs>
  <g id="Layer_1-2" data-name="Layer 1">
    <path class="cls-1" d="M1.26,33.03L.1,29.49c-.32-.98.2-2.03,1.19-2.35l7.07-2.32c.98-.32,2.03.21,2.34,1.19l1.16,3.54c.26.78,2.54,9.32,6.18,16.06,1.01,1.87,2.11,3.6,3.34,4.84.26.26.51.51.77.72.14.11.26.24.43.25.37,0,.67-.23.96-.51.59-.56,1.11-1.35,1.69-2.22,3.02-4.61,5.37-11.88,7.82-19.14,2.79-8.24,5.65-16.46,9.09-21.71C45.54,2.62,49.78-.06,54.35,0c4.49.06,8.67,2.77,12.04,7.94,3.44,5.26,6.3,13.4,9.09,21.58,2.46,7.2,4.84,14.44,7.86,19.05.57.89,1.13,1.69,1.73,2.27.31.31.63.56,1.05.56.39,0,.68-.24.99-.54.59-.57,1.13-1.37,1.7-2.25,3.02-4.61,5.4-11.86,7.86-19.09,2.8-8.2,5.67-16.38,9.1-21.63C109.18,2.71,113.37.01,117.89,0c4.57-.01,8.78,2.68,12.17,7.87,3.44,5.26,6.28,13.45,9.06,21.67,2.43,7.23,4.78,14.48,7.8,19.09.57.87,1.11,1.67,1.72,2.24.31.3.62.54,1.02.54.43,0,.79-.26,1.13-.58.6-.58,1.16-1.38,1.73-2.27,3.02-4.61,5.37-11.84,7.8-19.03,2.76-8.18,5.59-16.33,9.02-21.59C172.72,2.79,176.9.07,181.45,0c5.32-.07,9.77,3.06,13.13,8.53,3.47,5.65,5.87,14.09,8.16,21.01,2.03,6.13,3.87,13.56,6.92,18.54.62.99,1.24,1.89,1.97,2.54.53.46,1.11.78,1.83.79.39,0,.68-.23.98-.51.59-.56,1.11-1.35,1.69-2.22,3-4.61,5.37-11.88,7.82-19.14,2.79-8.24,5.65-16.46,9.09-21.71C236.41,2.62,240.66-.06,245.22,0c4.49.06,8.67,2.77,12.04,7.94,3.44,5.26,6.3,13.4,9.09,21.58,2.46,7.2,4.84,14.44,7.86,19.05.57.89,1.11,1.69,1.72,2.27.32.31.65.56,1.05.56.4,0,.7-.24,1.01-.54.59-.57,1.13-1.37,1.7-2.25,3.02-4.61,5.4-11.86,7.86-19.09,2.79-8.2,5.67-16.38,9.1-21.63C300.05,2.71,304.24.01,308.75,0c4.57-.01,8.78,2.68,12.18,7.87,3.44,5.26,6.28,13.45,9.06,21.67,2.43,7.23,4.78,14.48,7.8,19.09.57.87,1.11,1.67,1.7,2.24.32.3.63.54,1.04.54.43,0,.77-.26,1.11-.58.62-.58,1.18-1.38,1.75-2.27,3.02-4.61,5.37-11.84,7.79-19.03,2.77-8.18,5.6-16.33,9.04-21.59C363.59,2.79,367.75.07,372.31,0c4.19-.06,8.16,2.24,11.38,6.39,5.08,6.54,8.5,18.23,9.98,23.35l1.02,3.58c.29.99-.28,2.02-1.27,2.3l-7.15,2.06c-.99.28-2.01-.29-2.31-1.27l-1.04-3.58c-1.07-3.74-3.24-11.67-6.58-17.36-.85-1.46-1.76-2.77-2.82-3.67-.34-.3-.65-.63-1.05-.63-.45,0-.8.27-1.16.59-.6.58-1.16,1.39-1.75,2.29-3.02,4.63-5.37,11.85-7.8,19.05-2.76,8.18-5.59,16.32-9.02,21.57-3.37,5.16-7.55,7.86-12.1,7.91-4.57.04-8.79-2.63-12.2-7.82-3.42-5.24-6.27-13.42-9.04-21.64-2.43-7.23-4.8-14.5-7.82-19.12-.57-.89-1.11-1.69-1.73-2.26-.32-.31-.65-.56-1.07-.55-.4,0-.73.25-1.04.56-.6.58-1.16,1.39-1.73,2.28-3.03,4.63-5.42,11.9-7.88,19.13-2.8,8.2-5.67,16.37-9.09,21.6-3.41,5.2-7.6,7.86-12.12,7.84-4.5-.03-8.68-2.72-12.06-7.89-3.42-5.24-6.28-13.38-9.09-21.56-2.46-7.21-4.84-14.45-7.86-19.08-.59-.9-1.15-1.71-1.75-2.3-.34-.32-.67-.58-1.1-.58-.39,0-.7.24-1.01.53-.6.57-1.13,1.37-1.7,2.25-3.03,4.63-5.4,11.92-7.85,19.17-2.79,8.24-5.63,16.45-9.07,21.68-3.42,5.22-7.65,7.87-12.23,7.77-5.43-.11-9.8-3.3-13.08-8.66-3.44-5.62-5.73-13.95-8-20.87-2.03-6.13-3.99-13.67-7.06-18.67-.6-.98-1.21-1.87-1.9-2.51-.45-.41-.94-.7-1.56-.7-.45,0-.8.27-1.15.59-.62.58-1.18,1.39-1.76,2.29-3.02,4.63-5.37,11.85-7.8,19.05-2.76,8.18-5.59,16.32-9.02,21.57-3.37,5.16-7.55,7.86-12.1,7.91-4.57.04-8.79-2.63-12.18-7.82-3.44-5.24-6.28-13.42-9.06-21.64-2.43-7.23-4.78-14.5-7.82-19.12-.57-.89-1.11-1.69-1.72-2.26-.34-.31-.67-.56-1.08-.55-.4,0-.71.25-1.04.56-.6.58-1.15,1.39-1.73,2.28-3.02,4.63-5.42,11.9-7.88,19.13-2.8,8.2-5.67,16.37-9.09,21.6-3.41,5.2-7.6,7.86-12.12,7.84-4.49-.03-8.67-2.72-12.06-7.89-3.42-5.24-6.28-13.38-9.09-21.56-2.45-7.21-4.84-14.45-7.86-19.08-.59-.9-1.13-1.71-1.75-2.3-.32-.32-.67-.58-1.08-.58-.4,0-.71.24-1.02.53-.59.57-1.13,1.37-1.7,2.25-3.03,4.63-5.4,11.92-7.85,19.17-2.79,8.24-5.63,16.45-9.06,21.68-3.42,5.22-7.66,7.87-12.23,7.77-4.19-.09-8.45-2.94-11.8-7.78C5.19,47.02,1.6,34.07,1.26,33.03Z"/>
  </g>
</svg>