<?xml version="1.0" encoding="UTF-8"?>
<svg id="Layer_2" data-name="Layer 2" xmlns="http://www.w3.org/2000/svg" viewBox="0 0 246.2 216.71">
  <defs>
    <style>
      .cls-1 {
        fill: #fff;
        fill-rule: evenodd;
      }
    </style>
  </defs>
  <g id="Layer_1-2" data-name="Layer 1">
    <path class="cls-1" d="M197.65,6.2c5.05,0,9.15,4.1,9.15,9.15s-4.1,9.15-9.15,9.15-9.15-4.1-9.15-9.15,4.1-9.15,9.15-9.15ZM203.02,190.2h6.49v-12.25l7.85,12.25h6.56v-22.88h-6.49v12.89l-7.85-12.89h-6.56v22.88ZM151.19,190.2h6.53v-17.82h6.86v-5.06h-20.24v5.06h6.86v17.82ZM32.58,190.2h17.69v-5.06h-11.2v-3.9h10.53v-5.03h-10.53v-3.83h10.93v-5.06h-17.42v22.88ZM112.65,156.31h6.49v-12.25l7.85,12.25h6.56v-22.88h-6.49v12.89l-7.85-12.89h-6.56v22.88ZM133.28,181.53l2.55-7.25,2.52,7.25h-5.07ZM123.64,190.2h6.59l1.33-3.77h8.48l1.33,3.77h6.62l-8.48-22.88h-7.39l-8.48,22.88ZM87.59,190.71c2.1,0,3.91-.37,5.45-1.1,1.53-.73,2.72-1.77,3.56-3.11.84-1.34,1.26-2.93,1.26-4.76v-14.44h-6.49v14.44c0,1.24-.32,2.2-.96,2.88-.64.68-1.58,1.02-2.82,1.02s-2.14-.34-2.78-1.02c-.64-.68-.96-1.64-.96-2.88v-14.44h-6.49v14.44c0,1.83.42,3.41,1.26,4.76.84,1.34,2.03,2.38,3.56,3.11,1.53.73,3.34,1.1,5.42,1.1ZM161.57,156.31h17.69v-5.06h-11.2v-3.9h10.53v-5.03h-10.53v-3.84h10.93v-5.06h-17.42v22.88ZM143.71,151.25v-12.76h2.15c1.97,0,3.4.52,4.29,1.55.89,1.03,1.34,2.64,1.34,4.83s-.45,3.8-1.34,4.83c-.89,1.03-2.32,1.55-4.29,1.55h-2.15ZM137.21,156.31h8.84c3.89,0,6.87-.99,8.96-2.96,2.09-1.98,3.13-4.79,3.13-8.44s-1.06-6.51-3.18-8.49c-2.12-1.99-5.16-2.98-9.11-2.98h-8.65v22.88ZM60.16,185.14v-12.76h2.15c1.97,0,3.4.52,4.29,1.55.89,1.03,1.34,2.64,1.34,4.83s-.45,3.8-1.34,4.83c-.89,1.03-2.32,1.55-4.29,1.55h-2.15ZM53.67,190.2h8.84c3.89,0,6.87-.99,8.96-2.96,2.09-1.98,3.13-4.79,3.13-8.44s-1.06-6.5-3.18-8.49c-2.12-1.99-5.16-2.98-9.11-2.98h-8.65v22.88ZM112.1,190.71c2.14,0,3.98-.35,5.52-1.06,1.53-.71,2.78-1.75,3.73-3.11.95-1.36,1.59-3.05,1.92-5.04l-6.76-.23c-.2,1.4-.65,2.48-1.36,3.24-.71.76-1.7,1.14-2.98,1.14-.99,0-1.85-.28-2.57-.84-.72-.56-1.26-1.35-1.64-2.39-.38-1.03-.56-2.24-.56-3.64s.18-2.55.53-3.59c.35-1.04.89-1.86,1.61-2.45.72-.59,1.62-.89,2.7-.89s2.06.36,2.82,1.08c.75.72,1.24,1.74,1.46,3.04l6.72-.22c-.51-2.92-1.66-5.15-3.46-6.67-1.8-1.53-4.31-2.29-7.54-2.29-2.36,0-4.41.5-6.13,1.5-1.72,1-3.05,2.39-3.97,4.19s-1.39,3.89-1.39,6.3.49,4.66,1.47,6.43c.98,1.77,2.33,3.13,4.04,4.08s3.66,1.42,5.85,1.42ZM81.4,156.31h17.69v-5.06h-11.2v-3.9h10.53v-5.03h-10.53v-3.84h10.93v-5.06h-17.42v22.88ZM59.11,139.08v-6.65h4.75c1.45,0,2.55.27,3.31.82.75.55,1.13,1.37,1.13,2.46s-.38,1.89-1.13,2.48c-.75.59-1.86.88-3.31.88h-4.75ZM71.5,142.41c.89-.27,1.69-.65,2.39-1.12,1.06-.72,1.88-1.63,2.44-2.74.56-1.11.84-2.38.84-3.82,0-1.84-.48-3.44-1.44-4.79-.96-1.35-2.32-2.4-4.08-3.15-1.76-.75-3.82-1.12-6.19-1.12h-15.04v30.65h8.7v-10.45h5.1c1.42,0,2.41.27,2.97.8.56.53.87,1.36.93,2.48l.44,7.17h8.87l-.71-8.63c-.12-1.76-.72-3.09-1.82-3.99-.82-.68-1.96-1.11-3.41-1.28ZM182.66,156.31h17.69v-5.06h-11.2v-3.9h10.53v-5.03h-10.53v-3.84h10.93v-5.06h-17.42v22.88ZM166.53,190.2h6.49v-22.88h-6.49v22.88ZM187.54,185.65c-1.09,0-2.03-.27-2.82-.81-.79-.54-1.39-1.32-1.81-2.34-.42-1.02-.63-2.26-.63-3.72s.21-2.71.63-3.74c.42-1.03,1.02-1.82,1.81-2.37.78-.55,1.72-.83,2.82-.83s2.06.28,2.84.83c.79.55,1.39,1.34,1.81,2.37.42,1.03.63,2.27.63,3.74s-.21,2.7-.63,3.72c-.42,1.02-1.02,1.8-1.8,2.34-.78.54-1.73.81-2.84.81ZM187.55,190.71c2.5,0,4.64-.48,6.41-1.45,1.78-.97,3.14-2.34,4.09-4.13.95-1.78,1.42-3.9,1.42-6.35s-.48-4.57-1.42-6.36c-.95-1.79-2.31-3.18-4.09-4.16-1.78-.98-3.91-1.47-6.41-1.47s-4.62.49-6.4,1.47c-1.78.98-3.15,2.36-4.1,4.16-.95,1.79-1.42,3.91-1.42,6.36s.47,4.56,1.42,6.35c.95,1.78,2.32,3.16,4.11,4.13,1.79.97,3.92,1.45,6.39,1.45ZM210.24,143.45v-4.96h3.54c1.08,0,1.91.2,2.47.61.56.41.85,1.02.85,1.84s-.28,1.41-.85,1.85c-.56.44-1.39.66-2.47.66h-3.54ZM219.49,145.93c.67-.2,1.26-.48,1.78-.84.8-.54,1.4-1.22,1.82-2.05.42-.83.63-1.78.63-2.85,0-1.37-.36-2.57-1.08-3.58-.72-1.01-1.73-1.79-3.05-2.35-1.31-.56-2.85-.84-4.62-.84h-11.23v22.88h6.49v-7.8h3.81c1.06,0,1.8.2,2.22.6.42.4.65,1.02.7,1.85l.33,5.35h6.62l-.53-6.45c-.09-1.31-.54-2.3-1.36-2.98-.61-.51-1.46-.83-2.55-.95ZM102.49,156.31h6.49v-22.88h-6.49v22.88ZM191.8,82.07c-.99.65-2.03,1.43-3.21,2.45-7.12,6.1-10.48,14.49-11.96,19.47l66.32,9.45c1.87.27,3.26,1.87,3.26,3.75v95.73c0,2.09-1.7,3.79-3.79,3.79H3.79c-1.2,0-2.32-.56-3.04-1.52-.72-.96-.94-2.2-.6-3.35l32.36-108.88c.55-1.84,2.38-2.98,4.27-2.66l27.92,4.78,3.22-13.12c.46-1.89,2.29-3.12,4.21-2.85l58.04,8.27c.68-1.18,1.24-2.32,1.67-3.39,1.11-2.94,1.21-5.36.3-6.78-3.69-5.69-26.9,2.78-31.62-7.56-.09-.2-.17-.39-.23-.59-1.6-3.69,1.3-7.55,2.73-8.35,3.79-2.14,27.77-4.51,31.67-9.6.05-.06.09-.12.12-.19-.49-4.47-33.15-6.61-39.52-7.75-5.79-1.03-30.79-6.71-36.03-15.75-1.32-1.79-1.89-3.72-1.39-5.78,2.77-11.27,24.03-.89,25.23-.33,1.64.78,11.22,6.83,25.8,6.14,3.62-.17,5.12-.92,5.28-2.38-.27-1.5-1.42-3.56-2.95-6.28-7.88-14.02-8.52-14.55-8.88-17.03-.02-.16-.04-.32-.05-.49-.04-.21-.08-.43-.11-.67-1.01-7.07,10.75-18.2,19.48-2.94,2.56,4.47,11.24,23.32,15.71,22.87,1.77-.18,2.36-.94,2.95-3.49.41-2.02.88-4.93,1.78-9.11.28-1.33.6-2.81.99-4.44,2.06-8.78,19.02-9.26,16.36,6.01-.09.51-6.04,18.6.93,25.25,8.31,7.92,47.05,2.49,53.61,10.61,3.65,4.52,3.33,15.51-4.07,19.35-.53.34-1.1.65-1.72.91-9.08,3.8-12.53,4.17-16.4,6.48Z"/>
  </g>
</svg>