<?xml version="1.0" encoding="UTF-8"?>
<svg id="Layer_2" data-name="Layer 2" xmlns="http://www.w3.org/2000/svg" viewBox="0 0 250 239.87">
  <defs>
    <style>
      .cls-1 {
        fill-rule: evenodd;
      }

      .cls-1, .cls-2 {
        fill: #fff;
      }
    </style>
  </defs>
  <g id="Layer_1-2" data-name="Layer 1">
    <g>
      <path class="cls-1" d="M165.37,149.42l-75.5.36c13.28-11.79,18.56-24.78,15.45-29.58-5.15-7.95-37.62,3.89-44.23-10.58-2.36-5.16,1.71-10.59,3.71-11.72,5.25-2.96,38.45-6.24,43.86-13.3,5.41-7.06-45.43-10.33-54.89-12.02-9.45-1.68-55.57-12.24-51.49-28.8,3.84-15.61,33.28-1.23,34.93-.45,2.27,1.08,15.54,9.46,35.73,8.5,10.31-.49,8.2-4.34,3.12-13.37-11.02-19.6-11.92-20.35-12.42-23.82-1.39-9.79,14.9-25.21,26.97-4.07,3.54,6.19,15.57,32.3,21.76,31.67,4.83-.49,3.33-4.07,7.92-23.6,2.86-12.16,26.34-12.82,22.65,8.33-.12.7-8.36,25.76,1.29,34.96,11.5,10.97,65.16,3.44,74.24,14.69,5.24,6.49,4.57,22.58-6.78,27.33-16.64,6.96-19.76,5.69-28.39,13.09-13.64,11.69-17.32,29.48-17.92,32.38Z"/>
      <path class="cls-1" d="M203.25,8.64l4.43,6.96c1.18,1.86,1.03,4.27-.37,5.97l-5.25,6.36c-1.4,1.7-3.74,2.3-5.8,1.5l-7.67-3.03c-2.05-.81-3.34-2.85-3.21-5.05l.51-8.23c.14-2.2,1.67-4.06,3.81-4.61l7.99-2.06c2.14-.55,4.38.34,5.56,2.19Z"/>
      <path class="cls-2" d="M2.02,192.23v-42.45h20.83c3.28,0,6.13.52,8.57,1.55,2.44,1.04,4.32,2.49,5.65,4.36,1.33,1.87,2,4.09,2,6.64,0,1.99-.39,3.76-1.17,5.29-.78,1.53-1.9,2.8-3.38,3.8-1.48,1-3.26,1.67-5.35,2.03l-.12-.6c3.07,0,5.37.63,6.88,1.88,1.52,1.26,2.36,3.1,2.52,5.53l.98,11.96h-12.29l-.61-9.92c-.08-1.55-.51-2.7-1.29-3.44-.78-.74-2.15-1.11-4.12-1.11h-7.07v14.47H2.02ZM14.07,168.38h6.58c2.01,0,3.53-.41,4.58-1.23,1.04-.82,1.57-1.96,1.57-3.44s-.52-2.65-1.57-3.41c-1.05-.76-2.57-1.14-4.58-1.14h-6.58v9.21Z"/>
      <g>
        <path class="cls-2" d="M44.93,192.23v-31.69h24.13v7.01h-15.14v5.31h14.59v6.96h-14.59v5.4h15.5v7.01h-24.5Z"/>
        <path class="cls-2" d="M74.11,192.23v-31.69h8.99v31.69h-8.99Z"/>
        <path class="cls-2" d="M88.19,192.23v-31.69h9.08l10.87,17.85v-17.85h8.99v31.69h-9.08l-10.87-16.96v16.96h-8.99Z"/>
        <path class="cls-2" d="M122.22,192.23v-31.69h11.97c5.47,0,9.68,1.38,12.61,4.13,2.94,2.75,4.4,6.67,4.4,11.76s-1.45,8.96-4.34,11.69c-2.89,2.74-7.03,4.11-12.41,4.11h-12.25ZM131.22,185.23h2.98c2.72,0,4.7-.71,5.94-2.14,1.24-1.43,1.86-3.66,1.86-6.69s-.62-5.27-1.86-6.69c-1.24-1.43-3.22-2.14-5.94-2.14h-2.98v17.67Z"/>
        <path class="cls-2" d="M155.94,192.23v-31.69h24.13v7.01h-15.14v5.31h14.59v6.96h-14.59v5.4h15.5v7.01h-24.5Z"/>
        <path class="cls-2" d="M185.11,192.23v-31.69h24.13v7.01h-15.14v5.31h14.59v6.96h-14.59v5.4h15.5v7.01h-24.5Z"/>
        <path class="cls-2" d="M214.29,192.23v-31.69h15.55c2.45,0,4.58.39,6.4,1.16,1.82.77,3.23,1.86,4.22,3.26.99,1.4,1.49,3.05,1.49,4.95,0,1.49-.29,2.8-.87,3.95-.58,1.15-1.42,2.09-2.52,2.83-1.1.74-2.43,1.25-3.99,1.52l-.09-.45c2.29,0,4.01.47,5.14,1.41,1.13.94,1.76,2.31,1.88,4.13l.73,8.93h-9.17l-.46-7.41c-.06-1.16-.38-2.02-.96-2.57-.58-.55-1.61-.83-3.07-.83h-5.28v10.8h-8.99ZM223.28,174.43h4.91c1.5,0,2.64-.3,3.42-.91.78-.61,1.17-1.46,1.17-2.57s-.39-1.98-1.17-2.54c-.78-.56-1.92-.85-3.42-.85h-4.91v6.87Z"/>
      </g>
      <g>
        <path class="cls-2" d="M0,239.16l11.74-31.69h10.23l11.74,31.69h-9.17l-1.83-5.22h-11.74l-1.83,5.22H0ZM13.35,227.15h7.02l-3.49-10.04-3.53,10.04Z"/>
        <path class="cls-2" d="M49.13,239.87c-3.03,0-5.73-.66-8.1-1.96-2.37-1.31-4.24-3.19-5.6-5.65-1.36-2.45-2.04-5.42-2.04-8.9s.64-6.24,1.93-8.73c1.28-2.48,3.12-4.42,5.5-5.8,2.39-1.38,5.21-2.08,8.49-2.08,4.46,0,7.94,1.06,10.44,3.17,2.49,2.11,4.09,5.19,4.79,9.24l-9.31.31c-.31-1.81-.98-3.22-2.02-4.22-1.04-1-2.34-1.49-3.9-1.49s-2.75.41-3.74,1.23c-.99.82-1.74,1.95-2.22,3.39-.49,1.44-.73,3.1-.73,4.98s.26,3.61.78,5.04c.52,1.43,1.28,2.53,2.27,3.3.99.77,2.18,1.16,3.56,1.16,1.77,0,3.15-.53,4.13-1.58.98-1.06,1.61-2.55,1.88-4.49l9.36.31c-.46,2.77-1.35,5.1-2.66,6.98-1.32,1.89-3.04,3.33-5.16,4.31-2.13.98-4.67,1.47-7.64,1.47Z"/>
        <path class="cls-2" d="M65.14,239.16l11.74-31.69h10.23l11.74,31.69h-9.17l-1.83-5.22h-11.74l-1.83,5.22h-9.13ZM78.49,227.15h7.02l-3.49-10.04-3.53,10.04Z"/>
        <path class="cls-2" d="M100.73,239.16v-31.69h11.97c5.47,0,9.68,1.38,12.61,4.13,2.94,2.75,4.4,6.67,4.4,11.76s-1.45,8.96-4.34,11.69c-2.89,2.74-7.03,4.11-12.41,4.11h-12.25ZM109.73,232.15h2.98c2.72,0,4.7-.71,5.94-2.14,1.24-1.43,1.86-3.66,1.86-6.69s-.62-5.27-1.86-6.69c-1.24-1.43-3.22-2.14-5.94-2.14h-2.98v17.67Z"/>
        <path class="cls-2" d="M134.45,239.16v-31.69h24.13v7.01h-15.14v5.31h14.59v6.96h-14.59v5.4h15.5v7.01h-24.5Z"/>
        <path class="cls-2" d="M163.62,239.16v-31.69h11.84l6.88,20.13,6.88-20.13h11.83v31.69h-8.99v-17.85l-6.56,17.72h-6.38l-6.51-17.72v17.85h-8.99Z"/>
        <path class="cls-2" d="M206.19,239.16v-31.69h8.99v31.69h-8.99Z"/>
        <path class="cls-2" d="M234.54,239.87c-3.03,0-5.73-.66-8.1-1.96-2.37-1.31-4.24-3.19-5.6-5.65-1.36-2.45-2.04-5.42-2.04-8.9s.64-6.24,1.93-8.73c1.28-2.48,3.12-4.42,5.5-5.8,2.39-1.38,5.21-2.08,8.49-2.08,4.46,0,7.94,1.06,10.44,3.17,2.49,2.11,4.09,5.19,4.79,9.24l-9.31.31c-.31-1.81-.98-3.22-2.02-4.22-1.04-1-2.34-1.49-3.9-1.49s-2.75.41-3.74,1.23c-.99.82-1.74,1.95-2.22,3.39-.49,1.44-.73,3.1-.73,4.98s.26,3.61.78,5.04c.52,1.43,1.28,2.53,2.27,3.3.99.77,2.18,1.16,3.56,1.16,1.77,0,3.15-.53,4.13-1.58.98-1.06,1.61-2.55,1.88-4.49l9.36.31c-.46,2.77-1.35,5.1-2.66,6.98-1.32,1.89-3.04,3.33-5.16,4.31-2.13.98-4.67,1.47-7.64,1.47Z"/>
      </g>
    </g>
  </g>
</svg>