<?xml version="1.0" encoding="UTF-8"?>
<svg id="Layer_2" data-name="Layer 2" xmlns="http://www.w3.org/2000/svg" viewBox="0 0 136.32 136.32">
  <defs>
    <style>
      .cls-1 {
        fill-rule: evenodd;
      }

      .cls-1, .cls-2 {
        fill: #fff;
      }
    </style>
  </defs>
  <g id="Layer_1-2" data-name="Layer 1">
    <g>
      <path class="cls-2" d="M101.85,136.32H34.47C15.46,136.32,0,120.86,0,101.85V34.47C0,15.46,15.46,0,34.47,0h67.38c19.01,0,34.47,15.46,34.47,34.47v67.39c0,19-15.46,34.47-34.47,34.47ZM34.47,1.55C16.32,1.55,1.55,16.32,1.55,34.47v67.39c0,18.15,14.77,32.92,32.92,32.92h67.38c18.15,0,32.92-14.77,32.92-32.92V34.47c0-18.15-14.77-32.92-32.92-32.92H34.47Z"/>
      <path class="cls-1" d="M92.72,102.34l-34.63.17c6.1-5.41,8.51-11.36,7.09-13.56-2.37-3.65-17.26,1.78-20.28-4.85-1.08-2.36.77-4.86,1.7-5.37,2.4-1.36,17.63-2.86,20.11-6.1s-20.83-4.74-25.17-5.51c-4.33-.77-25.48-5.61-23.62-13.21,1.76-7.16,15.28-.57,16.02-.21,1.05.5,7.14,4.34,16.39,3.9,4.72-.22,3.76-1.99,1.42-6.13-5.05-8.99-5.46-9.33-5.7-10.92-.63-4.49,6.84-11.56,12.37-1.87,1.63,2.84,7.15,14.81,9.98,14.52,2.21-.22,1.53-1.87,3.64-10.82,1.3-5.58,12.07-5.88,10.39,3.82-.06.32-3.84,11.82.59,16.03,5.28,5.03,29.87,1.58,34.04,6.74,2.4,2.98,2.11,10.35-3.11,12.53-7.63,3.19-9.06,2.61-13.02,6-6.25,5.36-7.94,13.52-8.22,14.85Z"/>
      <circle class="cls-2" cx="107.19" cy="42.85" r="5.87"/>
    </g>
  </g>
</svg>