<?xml version="1.0" encoding="UTF-8"?>
<svg id="Layer_2" data-name="Layer 2" xmlns="http://www.w3.org/2000/svg" viewBox="0 0 586.27 201.37">
  <defs>
    <style>
      .cls-1 {
        fill-rule: evenodd;
      }

      .cls-1, .cls-2, .cls-3 {
        fill: #fff;
      }

      .cls-2 {
        font-family: Geist-Black, Geist;
        font-size: 53.84px;
        font-variation-settings: 'wght' 900;
        font-weight: 800;
      }

      .cls-4 {
        letter-spacing: 0em;
      }

      .cls-5 {
        letter-spacing: 0em;
      }

      .cls-6 {
        letter-spacing: 0em;
      }

      .cls-7 {
        letter-spacing: -.11em;
      }

      .cls-8 {
        letter-spacing: -.02em;
      }

      .cls-9 {
        letter-spacing: -.03em;
      }

      .cls-10 {
        letter-spacing: 0em;
      }

      .cls-11 {
        letter-spacing: 0em;
      }
    </style>
  </defs>
  <g id="Layer_1-2" data-name="Layer 1">
    <g>
      <rect class="cls-3" x="3.45" y="183.63" width="14.1" height="14.1" rx="3.52" ry="3.52"/>
      <rect class="cls-3" x="568.57" y="183.63" width="14.1" height="14.1" rx="3.52" ry="3.52"/>
      <path class="cls-1" d="M51.25,184.58l6.68,10.24c.37.56.39,1.27.07,1.85-.32.59-.93.95-1.6.95h-13.37c-.67,0-1.28-.36-1.6-.95-.32-.59-.29-1.3.07-1.85l6.68-10.24c.34-.52.91-.83,1.53-.83s1.19.31,1.53.83Z"/>
      <path class="cls-1" d="M534.87,184.58l-6.69,10.24c-.36.56-.39,1.27-.07,1.85s.93.95,1.6.95h13.37c.67,0,1.28-.36,1.6-.95.32-.59.29-1.3-.07-1.85l-6.68-10.24c-.34-.52-.91-.83-1.53-.83s-1.19.31-1.53.83Z"/>
      <path class="cls-1" d="M497.3,183.75c-3.83,0-6.93,3.11-6.93,6.94s3.11,6.93,6.93,6.93,6.94-3.11,6.94-6.93-3.11-6.94-6.94-6.94Z"/>
      <g>
        <path class="cls-1" d="M312.37,100.51l-50.79.24c8.93-7.93,12.49-16.67,10.39-19.9-3.47-5.35-25.31,2.62-29.75-7.12-1.59-3.47,1.15-7.12,2.49-7.88,3.53-1.99,25.87-4.2,29.5-8.95,3.64-4.75-30.56-6.95-36.92-8.08-6.36-1.13-37.38-8.23-34.64-19.37,2.58-10.5,22.39-.83,23.5-.3,1.53.72,10.46,6.36,24.03,5.72,6.94-.33,5.51-2.92,2.1-8.99-7.41-13.19-8.02-13.69-8.35-16.03-.94-6.58,10.02-16.95,18.14-2.74,2.38,4.17,10.47,21.73,14.63,21.3,3.25-.33,2.24-2.74,5.33-15.87,1.92-8.18,17.71-8.62,15.24,5.6-.08.47-5.62,17.33.87,23.52,7.74,7.38,43.84,2.31,49.94,9.88,3.52,4.36,3.07,15.19-4.56,18.38-11.19,4.68-13.29,3.83-19.09,8.8-9.18,7.86-11.65,19.83-12.06,21.78Z"/>
        <path class="cls-1" d="M333.6,4.64c4.75,0,8.61,3.86,8.61,8.61s-3.86,8.61-8.61,8.61-8.61-3.86-8.61-8.61,3.86-8.61,8.61-8.61Z"/>
        <text class="cls-2" transform="translate(0 159.7) scale(1.03 1)"><tspan x="0" y="0">R</tspan><tspan class="cls-6" x="38.44" y="0">E</tspan><tspan class="cls-10" x="72.68" y="0">I</tspan><tspan class="cls-4" x="89.42" y="0">D</tspan><tspan class="cls-6" x="128.89" y="0">EE</tspan><tspan x="197.37" y="0">R </tspan><tspan class="cls-5" x="247.33" y="0">E</tspan><tspan x="281.57" y="0">DU</tspan><tspan class="cls-9" x="359.26" y="0">C</tspan><tspan class="cls-7" x="398.24" y="0">A</tspan><tspan class="cls-10" x="434.04" y="0">T</tspan><tspan class="cls-8" x="467.53" y="0">I</tspan><tspan class="cls-11" x="483.84" y="0">O</tspan><tspan x="527.12" y="0">N</tspan></text>
        <g>
          <path class="cls-3" d="M153.23,200.91v-20.45h5.83v19.27l-3.33-3.34h12.52v4.52h-15.02Z"/>
          <path class="cls-3" d="M170.37,200.91v-20.45h15.65v4.52h-9.82v3.43h9.46v4.49h-9.46v3.49h10.05v4.52h-15.88Z"/>
          <path class="cls-3" d="M187.92,200.91l7.62-20.45h6.63l7.62,20.45h-5.95l-1.19-3.37h-7.62l-1.19,3.37h-5.92ZM196.57,193.16h4.55l-2.26-6.48-2.29,6.48Z"/>
          <path class="cls-3" d="M211.3,200.91v-20.45h10.08c1.59,0,2.97.25,4.15.75,1.18.5,2.09,1.2,2.74,2.1.64.9.97,1.97.97,3.2,0,.96-.19,1.81-.57,2.55s-.92,1.35-1.64,1.83c-.71.48-1.58.81-2.59.98l-.06-.29c1.49,0,2.6.3,3.33.91.73.6,1.14,1.49,1.22,2.66l.48,5.76h-5.95l-.3-4.78c-.04-.75-.25-1.3-.62-1.66-.38-.36-1.04-.53-1.99-.53h-3.42v6.97h-5.83ZM217.13,189.42h3.18c.97,0,1.71-.2,2.22-.59.51-.39.76-.94.76-1.66s-.25-1.28-.76-1.64c-.51-.36-1.24-.55-2.22-.55h-3.18v4.44Z"/>
          <path class="cls-3" d="M232.54,200.91v-20.45h5.89l7.05,11.52v-11.52h5.83v20.45h-5.89l-7.05-10.95v10.95h-5.83Z"/>
          <path class="cls-3" d="M254.73,200.91v-20.45h5.83v20.45h-5.83Z"/>
          <path class="cls-3" d="M263.98,200.91v-20.45h5.89l7.05,11.52v-11.52h5.83v20.45h-5.89l-7.05-10.95v10.95h-5.83Z"/>
          <path class="cls-3" d="M295.24,201.37c-2.06,0-3.84-.45-5.33-1.34-1.49-.89-2.63-2.14-3.44-3.73-.8-1.59-1.2-3.46-1.2-5.59s.41-3.89,1.23-5.5c.82-1.61,2.01-2.89,3.55-3.82,1.55-.93,3.41-1.4,5.59-1.4,1.93,0,3.55.29,4.86.88,1.32.59,2.38,1.44,3.18,2.55s1.37,2.46,1.71,4.03l-6.04.23c-.18-1.02-.55-1.8-1.13-2.35-.57-.55-1.42-.82-2.53-.82-.95,0-1.76.26-2.42.78s-1.17,1.24-1.52,2.16-.52,2.01-.52,3.26.16,2.3.49,3.23c.33.92.83,1.64,1.5,2.15.67.51,1.54.76,2.59.76.73,0,1.36-.12,1.89-.36s.95-.59,1.28-1.04c.33-.45.54-.99.64-1.63h-3.96v-3.75h9.79v10.83h-3.39l-.3-4.15.66.11c-.18.9-.6,1.69-1.26,2.36-.67.67-1.51,1.2-2.53,1.57-1.02.37-2.16.56-3.4.56Z"/>
          <path class="cls-3" d="M324.57,201.37c-1.96,0-3.71-.42-5.25-1.27-1.54-.84-2.75-2.06-3.63-3.64-.88-1.58-1.32-3.5-1.32-5.75s.42-4.03,1.25-5.63,2.02-2.85,3.57-3.75c1.55-.89,3.38-1.34,5.5-1.34,2.89,0,5.15.68,6.77,2.05,1.62,1.36,2.65,3.35,3.11,5.96l-6.04.2c-.2-1.17-.63-2.08-1.31-2.72s-1.52-.97-2.53-.97-1.78.26-2.42.79c-.65.53-1.13,1.26-1.44,2.19-.32.93-.48,2-.48,3.21s.17,2.33.5,3.25.83,1.63,1.47,2.13c.64.5,1.41.75,2.31.75,1.15,0,2.04-.34,2.68-1.02.63-.68,1.04-1.65,1.22-2.9l6.07.2c-.3,1.79-.87,3.29-1.72,4.51-.85,1.22-1.97,2.15-3.35,2.78-1.38.63-3.03.95-4.95.95Z"/>
          <path class="cls-3" d="M336.92,200.91v-20.45h15.65v4.52h-9.82v3.43h9.46v4.49h-9.46v3.49h10.06v4.52h-15.89Z"/>
          <path class="cls-3" d="M355.72,200.91v-20.45h5.89l7.05,11.52v-11.52h5.83v20.45h-5.89l-7.05-10.95v10.95h-5.83Z"/>
          <path class="cls-3" d="M382.22,200.91v-15.93h-6.16v-4.52h18.18v4.52h-6.16v15.93h-5.86Z"/>
          <path class="cls-3" d="M396.12,200.91v-20.45h15.65v4.52h-9.82v3.43h9.46v4.49h-9.46v3.49h10.06v4.52h-15.89Z"/>
          <path class="cls-3" d="M415.03,200.91v-20.45h10.08c1.59,0,2.97.25,4.15.75,1.18.5,2.09,1.2,2.74,2.1.64.9.97,1.97.97,3.2,0,.96-.19,1.81-.57,2.55-.38.74-.92,1.35-1.64,1.83-.71.48-1.58.81-2.59.98l-.06-.29c1.49,0,2.6.3,3.33.91.73.6,1.14,1.49,1.22,2.66l.48,5.76h-5.95l-.3-4.78c-.04-.75-.25-1.3-.62-1.66-.38-.36-1.04-.53-1.99-.53h-3.42v6.97h-5.83ZM420.86,189.42h3.18c.97,0,1.71-.2,2.22-.59.5-.39.76-.94.76-1.66s-.25-1.28-.76-1.64c-.51-.36-1.25-.55-2.22-.55h-3.18v4.44Z"/>
        </g>
        <path class="cls-1" d="M88.82,183.75c3.83,0,6.93,3.11,6.93,6.94s-3.11,6.93-6.93,6.93-6.93-3.11-6.93-6.93,3.11-6.94,6.93-6.94Z"/>
        <path class="cls-1" d="M128.33,184.51l4.03,2.93c1.08.78,1.53,2.17,1.12,3.43l-1.54,4.74c-.41,1.27-1.59,2.12-2.92,2.12h-4.98c-1.33,0-2.51-.86-2.92-2.12l-1.54-4.74c-.41-1.26.04-2.65,1.12-3.43l4.03-2.93c1.08-.78,2.54-.78,3.61,0Z"/>
        <path class="cls-1" d="M457.79,184.51l-4.03,2.93c-1.08.78-1.53,2.17-1.12,3.43l1.54,4.74c.41,1.27,1.59,2.12,2.92,2.12h4.98c1.33,0,2.51-.86,2.92-2.12l1.54-4.74c.41-1.26-.04-2.65-1.12-3.43l-4.03-2.93c-1.08-.78-2.54-.78-3.61,0Z"/>
      </g>
    </g>
  </g>
</svg>