<?xml version="1.0" encoding="UTF-8"?>
<svg id="Layer_2" data-name="Layer 2" xmlns="http://www.w3.org/2000/svg" viewBox="0 0 209.16 170.72">
  <defs>
    <style>
      .cls-1 {
        fill-rule: evenodd;
      }

      .cls-1, .cls-2 {
        fill: #fff;
      }
    </style>
  </defs>
  <g id="Layer_1-2" data-name="Layer 1">
    <g>
      <path class="cls-2" d="M21.56,170.72v-33.25h16.27c2.56,0,4.79.41,6.69,1.22,1.9.81,3.38,1.95,4.42,3.42s1.56,3.2,1.56,5.2c0,1.56-.3,2.94-.91,4.14-.61,1.2-1.49,2.19-2.64,2.97-1.15.78-2.54,1.31-4.18,1.59l-.1-.47c2.4,0,4.19.49,5.38,1.48,1.18.98,1.84,2.43,1.97,4.33l.77,9.37h-9.6l-.48-7.77c-.06-1.22-.4-2.11-1.01-2.69-.61-.58-1.68-.87-3.22-.87h-5.52v11.33h-9.41ZM30.96,152.03h5.13c1.57,0,2.76-.32,3.57-.96.82-.64,1.22-1.54,1.22-2.69s-.41-2.08-1.22-2.67c-.81-.59-2.01-.89-3.57-.89h-5.13v7.21Z"/>
      <g>
        <path class="cls-2" d="M55.07,170.72v-24.82h18.85v5.49h-11.82v4.16h11.39v5.45h-11.39v4.23h12.11v5.49h-19.13Z"/>
        <path class="cls-2" d="M77.86,170.72v-24.82h7.02v24.82h-7.02Z"/>
        <path class="cls-2" d="M88.86,170.72v-24.82h7.09l8.49,13.98v-13.98h7.02v24.82h-7.09l-8.49-13.28v13.28h-7.02Z"/>
        <path class="cls-2" d="M115.44,170.72v-24.82h9.35c4.28,0,7.56,1.08,9.85,3.23s3.44,5.23,3.44,9.21-1.13,7.01-3.39,9.16c-2.26,2.14-5.49,3.22-9.69,3.22h-9.57ZM122.46,165.23h2.33c2.13,0,3.67-.56,4.64-1.68.97-1.12,1.45-2.87,1.45-5.24s-.48-4.12-1.45-5.24c-.97-1.12-2.51-1.68-4.64-1.68h-2.33v13.84Z"/>
        <path class="cls-2" d="M141.77,170.72v-24.82h18.85v5.49h-11.82v4.16h11.39v5.45h-11.39v4.23h12.11v5.49h-19.13Z"/>
        <path class="cls-2" d="M164.56,170.72v-24.82h18.85v5.49h-11.82v4.16h11.39v5.45h-11.39v4.23h12.11v5.49h-19.13Z"/>
        <path class="cls-2" d="M187.34,170.72v-24.82h12.15c1.91,0,3.58.3,5,.91,1.42.61,2.52,1.46,3.3,2.55.78,1.1,1.16,2.39,1.16,3.88,0,1.17-.23,2.2-.68,3.09s-1.11,1.64-1.97,2.22c-.86.58-1.9.98-3.12,1.19l-.07-.35c1.79,0,3.13.37,4.01,1.1.88.73,1.37,1.81,1.47,3.23l.57,6.99h-7.17l-.36-5.8c-.05-.91-.3-1.58-.75-2.01-.45-.43-1.25-.65-2.4-.65h-4.12v8.46h-7.02ZM194.37,156.77h3.83c1.17,0,2.06-.24,2.67-.72s.91-1.15.91-2.01-.3-1.55-.91-1.99c-.61-.44-1.5-.66-2.67-.66h-3.83v5.38Z"/>
      </g>
      <path class="cls-1" d="M149.49,137.13l-69.1.33c12.16-10.82,16.99-22.74,14.14-27.14-4.72-7.3-34.43,3.57-40.48-9.71-2.15-4.73,1.57-9.72,3.39-10.75,4.8-2.72,35.19-5.73,40.14-12.21,4.95-6.48-41.58-9.48-50.23-11.03C38.71,65.08-3.49,55.39.23,40.19c3.51-14.32,30.46-1.13,31.97-.42,2.08.99,14.22,8.68,32.7,7.8,9.44-.45,7.5-3.98,2.86-12.27-10.08-17.99-10.91-18.67-11.36-21.86-1.28-8.99,13.63-23.13,24.68-3.74,3.24,5.68,14.25,29.64,19.91,29.07,4.42-.45,3.05-3.74,7.25-21.66,2.62-11.16,24.1-11.77,20.73,7.64-.11.65-7.65,23.64,1.18,32.09,10.53,10.07,59.64,3.16,67.94,13.48,4.79,5.95,4.18,20.72-6.21,25.08-15.23,6.39-18.08,5.22-25.98,12.01-12.49,10.73-15.86,27.05-16.41,29.72Z"/>
      <path class="cls-1" d="M178.38,6.34c6.47,0,11.72,5.26,11.72,11.75s-5.25,11.75-11.72,11.75-11.71-5.26-11.71-11.75,5.25-11.75,11.71-11.75Z"/>
    </g>
  </g>
</svg>