<?xml version="1.0" encoding="UTF-8"?>
<svg id="Layer_2" data-name="Layer 2" xmlns="http://www.w3.org/2000/svg" viewBox="0 0 527.1 179.59">
  <defs>
    <style>
      .cls-1 {
        fill-rule: evenodd;
      }

      .cls-1, .cls-2 {
        fill: #fff;
      }
    </style>
  </defs>
  <g id="Layer_1-2" data-name="Layer 1">
    <g>
      <path class="cls-2" d="M281.87,130.97v-43.32h21.26c3.35,0,6.26.53,8.75,1.59,2.49,1.06,4.41,2.54,5.77,4.45,1.36,1.91,2.04,4.17,2.04,6.77,0,2.03-.4,3.83-1.19,5.4-.8,1.57-1.94,2.86-3.45,3.87-1.5,1.02-3.32,1.71-5.46,2.07l-.13-.61c3.14,0,5.48.64,7.02,1.92,1.55,1.28,2.4,3.16,2.57,5.64l1,12.2h-12.54l-.63-10.13c-.08-1.59-.52-2.76-1.32-3.51-.79-.75-2.19-1.13-4.2-1.13h-7.21v14.76h-12.29ZM294.16,106.63h6.71c2.05,0,3.61-.42,4.67-1.25,1.07-.83,1.6-2,1.6-3.51s-.53-2.71-1.6-3.48c-1.07-.77-2.62-1.16-4.67-1.16h-6.71v9.4Z"/>
      <g>
        <path class="cls-2" d="M325.65,130.97v-32.34h24.62v7.15h-15.45v5.42h14.88v7.1h-14.88v5.51h15.82v7.15h-25Z"/>
        <path class="cls-2" d="M355.43,130.97v-32.34h9.18v32.34h-9.18Z"/>
        <path class="cls-2" d="M369.8,130.97v-32.34h9.27l11.09,18.22v-18.22h9.18v32.34h-9.27l-11.09-17.31v17.31h-9.18Z"/>
        <path class="cls-2" d="M404.53,130.97v-32.34h12.22c5.59,0,9.88,1.41,12.87,4.21,3,2.81,4.49,6.81,4.49,12s-1.47,9.14-4.42,11.93-7.17,4.19-12.66,4.19h-12.5ZM413.7,123.82h3.04c2.78,0,4.8-.73,6.06-2.19,1.26-1.46,1.9-3.74,1.9-6.83s-.63-5.37-1.9-6.83-3.28-2.19-6.06-2.19h-3.04v18.04Z"/>
        <path class="cls-2" d="M438.94,130.97v-32.34h24.62v7.15h-15.45v5.42h14.88v7.1h-14.88v5.51h15.82v7.15h-25Z"/>
        <path class="cls-2" d="M468.71,130.97v-32.34h24.62v7.15h-15.45v5.42h14.88v7.1h-14.88v5.51h15.82v7.15h-25Z"/>
        <path class="cls-2" d="M498.48,130.97v-32.34h15.87c2.5,0,4.67.4,6.53,1.19,1.86.79,3.29,1.9,4.31,3.32s1.52,3.11,1.52,5.05c0,1.52-.3,2.86-.89,4.03s-1.45,2.13-2.57,2.89-2.48,1.28-4.07,1.55l-.09-.45c2.34,0,4.09.48,5.24,1.43,1.15.96,1.79,2.36,1.92,4.21l.75,9.11h-9.36l-.47-7.56c-.06-1.19-.39-2.06-.98-2.62-.59-.56-1.64-.84-3.14-.84h-5.38v11.02h-9.18ZM507.65,112.8h5.01c1.53,0,2.69-.31,3.49-.93.8-.62,1.19-1.49,1.19-2.62s-.4-2.02-1.19-2.6c-.8-.58-1.96-.86-3.49-.86h-5.01v7.01Z"/>
      </g>
      <g>
        <path class="cls-2" d="M256.67,178.86l5.42-32.34h5.2l2.96,26.55,12.03-26.55h5.45l-5.42,32.34h-3.9l3.94-23.68-10.69,23.64h-4.33l-2.78-23.64-3.97,23.68h-3.9Z"/>
        <path class="cls-2" d="M298.56,179.59c-2.62,0-4.65-.78-6.09-2.35-1.43-1.56-2.15-3.74-2.15-6.53,0-.49.04-1.08.11-1.78s.16-1.4.27-2.12c.11-.71.2-1.3.27-1.75l3.18-18.54h3.9l-3.25,19.04c-.17.91-.29,1.75-.38,2.53-.08.78-.13,1.42-.13,1.94,0,1.58.4,2.82,1.21,3.71.81.9,2.02,1.34,3.63,1.34,1.9,0,3.52-.61,4.84-1.84,1.32-1.23,2.23-3.3,2.71-6.22l3.47-20.49h3.9l-3.5,20.95c-.67,3.98-2.04,6.99-4.1,9.04-2.06,2.05-4.69,3.07-7.89,3.07Z"/>
        <path class="cls-2" d="M323.19,179.59c-2.74,0-4.84-.77-6.3-2.32-1.46-1.55-2.18-3.66-2.18-6.33,0-.43.02-.87.07-1.34s.1-.86.15-1.16l4.05-.32c-.05.21-.1.53-.15.96-.05.43-.07.87-.07,1.32,0,1.52.39,2.69,1.17,3.51s2.06,1.23,3.85,1.23c1.15,0,2.19-.19,3.1-.57.92-.38,1.64-.99,2.19-1.84.54-.85.81-1.96.81-3.33,0-.58-.07-1.1-.2-1.57-.13-.47-.39-.9-.78-1.3s-.95-.77-1.7-1.14c-.75-.36-1.73-.73-2.96-1.09-1.61-.49-2.92-1.06-3.92-1.73s-1.72-1.51-2.17-2.53-.67-2.27-.67-3.76c0-2.03.38-3.84,1.14-5.42.76-1.58,1.9-2.82,3.41-3.71,1.52-.89,3.38-1.34,5.6-1.34,2.75,0,4.77.78,6.07,2.35,1.3,1.56,1.95,3.64,1.95,6.22,0,.36-.01.72-.04,1.07s-.06.65-.11.89l-4.01.27c.05-.18.08-.43.11-.75s.04-.65.04-.98c0-1.3-.34-2.4-1.01-3.28s-1.84-1.32-3.5-1.32c-1.33,0-2.4.24-3.23.73-.83.49-1.44,1.15-1.82,2-.39.85-.58,1.79-.58,2.82,0,.82.13,1.48.4,1.98.26.5.77.94,1.52,1.32.75.38,1.84.8,3.29,1.25,1.85.55,3.3,1.22,4.35,2.03,1.05.81,1.79,1.73,2.22,2.78.43,1.05.65,2.27.65,3.67,0,2.49-.47,4.53-1.43,6.13-.95,1.59-2.24,2.76-3.87,3.51s-3.44,1.12-5.44,1.12Z"/>
        <path class="cls-2" d="M336.88,178.86l5.42-32.34h3.9l-5.42,32.34h-3.9Z"/>
        <path class="cls-2" d="M356.31,179.59c-2.77,0-4.96-.96-6.57-2.87s-2.42-4.92-2.42-9.02c0-2.25.21-4.45.63-6.6.42-2.16,1.04-4.16,1.84-6.01.81-1.85,1.8-3.47,2.98-4.85,1.18-1.38,2.53-2.47,4.06-3.26,1.53-.79,3.24-1.19,5.15-1.19,2.09,0,3.77.48,5.04,1.43,1.26.96,2.18,2.29,2.76,3.99.58,1.7.87,3.67.87,5.92l-4.05.27c0-2.43-.4-4.22-1.19-5.37-.79-1.15-2.17-1.73-4.12-1.73-1.25,0-2.39.31-3.41.93s-1.94,1.46-2.75,2.53c-.81,1.06-1.49,2.3-2.06,3.71s-.99,2.92-1.26,4.51c-.28,1.59-.42,3.2-.42,4.81,0,3.07.46,5.22,1.37,6.44.91,1.23,2.34,1.84,4.26,1.84,2.05,0,3.76-.69,5.13-2.07,1.37-1.38,2.38-3.29,3.03-5.72l4.08.27c-.7,2.46-1.65,4.58-2.85,6.38-1.2,1.79-2.65,3.18-4.33,4.17-1.69.99-3.61,1.48-5.78,1.48Z"/>
      </g>
      <g>
        <path class="cls-2" d="M392.46,179.59c-2.74,0-4.84-.77-6.3-2.32-1.46-1.55-2.18-3.66-2.18-6.33,0-.43.02-.87.07-1.34s.1-.86.15-1.16l4.05-.32c-.05.21-.1.53-.15.96-.05.43-.07.87-.07,1.32,0,1.52.39,2.69,1.17,3.51s2.06,1.23,3.85,1.23c1.15,0,2.19-.19,3.1-.57.92-.38,1.64-.99,2.19-1.84.54-.85.81-1.96.81-3.33,0-.58-.07-1.1-.2-1.57-.13-.47-.39-.9-.78-1.3s-.95-.77-1.7-1.14c-.75-.36-1.73-.73-2.96-1.09-1.61-.49-2.92-1.06-3.92-1.73s-1.72-1.51-2.17-2.53-.67-2.27-.67-3.76c0-2.03.38-3.84,1.14-5.42.76-1.58,1.9-2.82,3.41-3.71,1.52-.89,3.38-1.34,5.6-1.34,2.75,0,4.77.78,6.07,2.35,1.3,1.56,1.95,3.64,1.95,6.22,0,.36-.01.72-.04,1.07s-.06.65-.11.89l-4.01.27c.05-.18.08-.43.11-.75s.04-.65.04-.98c0-1.3-.34-2.4-1.01-3.28s-1.84-1.32-3.5-1.32c-1.33,0-2.4.24-3.23.73-.83.49-1.44,1.15-1.82,2-.39.85-.58,1.79-.58,2.82,0,.82.13,1.48.4,1.98.26.5.77.94,1.52,1.32.75.38,1.84.8,3.29,1.25,1.85.55,3.3,1.22,4.35,2.03,1.05.81,1.79,1.73,2.22,2.78.43,1.05.65,2.27.65,3.67,0,2.49-.47,4.53-1.43,6.13-.95,1.59-2.24,2.76-3.87,3.51s-3.44,1.12-5.44,1.12Z"/>
        <path class="cls-2" d="M416.62,179.59c-2.77,0-4.96-.96-6.57-2.87s-2.42-4.92-2.42-9.02c0-2.25.21-4.45.63-6.6.42-2.16,1.04-4.16,1.84-6.01.81-1.85,1.8-3.47,2.98-4.85,1.18-1.38,2.53-2.47,4.06-3.26,1.53-.79,3.24-1.19,5.15-1.19,2.09,0,3.77.48,5.04,1.43,1.26.96,2.18,2.29,2.76,3.99.58,1.7.87,3.67.87,5.92l-4.05.27c0-2.43-.4-4.22-1.19-5.37-.79-1.15-2.17-1.73-4.12-1.73-1.25,0-2.39.31-3.41.93s-1.94,1.46-2.75,2.53c-.81,1.06-1.49,2.3-2.06,3.71s-.99,2.92-1.26,4.51c-.28,1.59-.42,3.2-.42,4.81,0,3.07.46,5.22,1.37,6.44.91,1.23,2.34,1.84,4.26,1.84,2.05,0,3.76-.69,5.13-2.07,1.37-1.38,2.38-3.29,3.03-5.72l4.08.27c-.7,2.46-1.65,4.58-2.85,6.38-1.2,1.79-2.65,3.18-4.33,4.17-1.69.99-3.61,1.48-5.78,1.48Z"/>
        <path class="cls-2" d="M432.15,178.86l5.42-32.34h3.9l-2.64,15.58-1.55-1.73h15.13l-2.17,1.73,2.64-15.58h3.9l-5.42,32.34h-3.9l2.64-15.76,1.55,1.73h-15.13l2.17-1.73-2.64,15.76h-3.9Z"/>
        <path class="cls-2" d="M467.07,179.59c-2.94,0-5.2-1-6.79-3.01-1.59-2-2.38-4.92-2.38-8.74,0-3.07.35-5.94,1.05-8.61.7-2.67,1.69-5.01,2.98-7.01,1.29-2,2.85-3.58,4.68-4.71,1.83-1.14,3.89-1.71,6.18-1.71,2.94,0,5.22,1.02,6.86,3.07s2.46,4.97,2.46,8.77c0,3.07-.36,5.93-1.07,8.58-.71,2.66-1.73,4.99-3.05,6.99s-2.91,3.57-4.75,4.69c-1.84,1.12-3.9,1.69-6.16,1.69ZM467.76,175.08c1.45,0,2.79-.42,4.03-1.25,1.24-.83,2.32-2,3.25-3.51s1.65-3.26,2.17-5.26c.52-2,.78-4.16.78-6.47,0-2.94-.49-5.06-1.48-6.35-.99-1.29-2.48-1.94-4.48-1.94-1.45,0-2.78.43-3.99,1.28s-2.27,2.03-3.18,3.55c-.9,1.52-1.6,3.28-2.1,5.28-.49,2-.74,4.14-.74,6.42,0,2.98.46,5.09,1.39,6.35.93,1.26,2.38,1.89,4.35,1.89Z"/>
        <path class="cls-2" d="M493.77,179.59c-2.94,0-5.2-1-6.79-3.01-1.59-2-2.38-4.92-2.38-8.74,0-3.07.35-5.94,1.05-8.61.7-2.67,1.69-5.01,2.98-7.01,1.29-2,2.85-3.58,4.68-4.71,1.83-1.14,3.89-1.71,6.18-1.71,2.94,0,5.22,1.02,6.86,3.07s2.46,4.97,2.46,8.77c0,3.07-.36,5.93-1.07,8.58-.71,2.66-1.73,4.99-3.05,6.99s-2.91,3.57-4.75,4.69c-1.84,1.12-3.9,1.69-6.16,1.69ZM494.45,175.08c1.45,0,2.79-.42,4.03-1.25,1.24-.83,2.32-2,3.25-3.51s1.65-3.26,2.17-5.26c.52-2,.78-4.16.78-6.47,0-2.94-.49-5.06-1.48-6.35-.99-1.29-2.48-1.94-4.48-1.94-1.45,0-2.78.43-3.99,1.28s-2.27,2.03-3.18,3.55c-.9,1.52-1.6,3.28-2.1,5.28-.49,2-.74,4.14-.74,6.42,0,2.98.46,5.09,1.39,6.35.93,1.26,2.38,1.89,4.35,1.89Z"/>
        <path class="cls-2" d="M509.98,178.86l5.42-32.34h3.9l-5.13,30.52-1.62-2.69h14.56l-.72,4.51h-16.4Z"/>
      </g>
      <path class="cls-1" d="M190.82,174.17c1.47-6.37,6.63-24.68,21.25-37.2,10.25-8.78,13.92-7.35,33.68-15.62,5.85-2.45,8.88-7.86,9.84-13.46.96-5.63-.11-11.51-2.83-14.88-1.87-2.32-5.67-3.72-10.49-4.8-8.1-1.8-19.02-2.42-30.06-3.04-11.3-.63-22.72-1.26-31.53-3.05-6.32-1.28-11.32-3.23-14.24-6.01-4.92-4.69-6.38-12.57-6.13-20.45.36-10.96,3.87-21.83,3.96-22.33,1.13-6.47-.08-10.97-2.62-13.72-2.82-3.05-7.18-3.81-11.07-2.84-3.87.96-7.32,3.65-8.29,7.76-3.24,13.79-3.92,20.82-5.16,24.36-.58,1.67-1.32,2.75-2.25,3.5-.95.77-2.15,1.21-3.79,1.38-1.31.13-2.81-.29-4.38-1.38-1.7-1.18-3.6-3.21-5.54-5.8-6.91-9.22-14.72-25.77-17.63-30.86-3.8-6.65-7.89-9.97-11.86-10.91-4.34-1.03-8.36.89-11.21,3.83-2.88,2.97-4.64,7-4.16,10.39.56,3.94,1.7,4.73,14.21,26.98,2.23,3.96,3.97,7.12,4.72,9.55.7,2.27.61,4.09-.17,5.51-.56,1.03-1.48,1.91-2.93,2.57-1.55.7-3.86,1.16-7.13,1.32-24.13,1.15-40-8.84-42.72-10.12-1.12-.53-13.54-6.62-24.24-7.57-6.15-.55-11.82.51-13.31,6.59-1.22,4.97,2.42,9.19,7.89,12.99,14.6,10.18,42.75,16.46,50.33,17.8,8.89,1.58,48.9,4.43,61.29,9.72,5.01,2.14,6.14,5.2,4.08,7.89-1.18,1.54-3.29,3.01-6.1,4.31-3.71,1.71-8.72,3.21-14.12,4.53-9.17,2.25-19.48,4-26.09,5.57-2.55.6-4.51,1.13-5.5,1.69-.91.52-2.23,2.07-3.11,4.03-.89,1.95-1.34,4.36-.26,6.71,2,4.38,6.45,6.2,11.7,7.06,5.93.97,12.88.64,19.21.47,5.39-.15,10.35-.17,14,.64,3.02.67,5.24,1.96,6.48,3.87,1.34,2.07,1.77,5.19.95,9.02-1.39,6.55-6.44,15.57-15.15,24.4l80.47-.39ZM124.55,99.75c-.3-.24-.83-.62-1.31-.86-1.52-.75-3.66-1.44-6.21-2.09-15.9-4.06-47.16-6.32-54.85-7.69-7.85-1.4-36.99-8-52.13-18.55C2.77,65.49-1.27,59.39.36,52.77c2.09-8.47,9.54-10.78,18.11-10.02,11.37,1.01,24.59,7.42,25.77,7.99,2.59,1.22,17.64,10.78,40.57,9.69,2.14-.1,3.77-.32,4.95-.72.65-.22,1.13-.41,1.34-.8.13-.23.12-.52.08-.83-.07-.65-.3-1.39-.64-2.22-.83-2.06-2.25-4.58-3.97-7.63-13.18-23.45-14.15-24.4-14.74-28.56-.66-4.6,1.49-10.16,5.39-14.18,3.93-4.05,9.54-6.5,15.51-5.08,4.86,1.15,10.1,4.94,14.75,13.07,2.87,5.01,10.53,21.32,17.33,30.39,1.35,1.8,2.65,3.3,3.87,4.31.75.63,1.36,1.14,1.97,1.08.6-.06,1.07-.13,1.42-.41.69-.56.93-1.61,1.32-3.29.93-3.96,1.84-10.69,4.51-22.07,1.37-5.81,6.13-9.75,11.6-11.12,5.45-1.36,11.53-.12,15.49,4.16,3.27,3.54,5.2,9.25,3.75,17.57-.08.48-3.54,11.04-3.89,21.7-.22,6.53.65,13.14,4.72,17.03,2.97,2.84,8.62,4.39,15.54,5.49,11.16,1.77,25.54,2.09,38.42,3.01,8.82.63,16.95,1.53,22.99,3.3,4.47,1.31,7.86,3.16,9.78,5.54,3.37,4.19,4.97,11.47,3.76,18.49-1.21,7.06-5.17,13.78-12.55,16.87-19.02,7.96-22.63,6.43-32.49,14.88-15.37,13.17-19.47,33.21-20.15,36.48-.22,1.05-1.13,1.8-2.2,1.8l-88,.42c-.94,0-1.79-.57-2.13-1.45-.34-.88-.09-1.88.61-2.5,8.94-7.93,14.68-16.33,17.07-22.95.73-2.04,1.14-3.89,1.19-5.48.04-1.26-.13-2.33-.64-3.11-.91-1.4-2.88-1.88-5.33-2.21-4.79-.64-11.29-.18-17.87-.07-5.8.1-11.65-.08-16.56-1.35-5.43-1.41-9.74-4.14-11.95-8.99-1.67-3.66-1.12-7.42.26-10.46,1.38-3.04,3.6-5.3,5.01-6.1,1.21-.68,3.57-1.42,6.68-2.16,6.61-1.56,16.9-3.31,26.06-5.56,5.08-1.25,9.81-2.64,13.3-4.25,1.85-.85,3.33-1.72,4.2-2.71Z"/>
      <path class="cls-1" d="M229.44,12.57c-7,0-12.66,5.67-12.66,12.66s5.67,12.66,12.66,12.66,12.65-5.67,12.65-12.66-5.67-12.66-12.65-12.66ZM229.44,8.05c9.47,0,17.18,7.7,17.18,17.18s-7.71,17.18-17.18,17.18-17.2-7.7-17.2-17.18,7.71-17.18,17.2-17.18Z"/>
    </g>
  </g>
</svg>