<?xml version="1.0" encoding="UTF-8"?>
<svg id="Layer_2" data-name="Layer 2" xmlns="http://www.w3.org/2000/svg" viewBox="0 0 168.88 152.84">
  <defs>
    <style>
      .cls-1 {
        fill-rule: evenodd;
      }

      .cls-1, .cls-2 {
        fill: #fff;
      }
    </style>
  </defs>
  <g id="Layer_1-2" data-name="Layer 1">
    <g>
      <path class="cls-1" d="M119.81,95.21l-48.11.23c8.46-7.51,11.83-15.79,9.84-18.85-3.29-5.07-23.97,2.48-28.18-6.74-1.5-3.28,1.09-6.75,2.36-7.46,3.34-1.89,24.5-3.98,27.95-8.47,3.45-4.5-28.95-6.58-34.97-7.66-6.02-1.07-35.41-7.8-32.81-18.35,2.44-9.94,21.21-.79,22.26-.29,1.45.69,9.9,6.03,22.77,5.42,6.57-.31,5.22-2.77,1.99-8.52-7.02-12.49-7.6-12.97-7.91-15.18-.89-6.24,9.49-16.06,17.19-2.6,2.26,3.95,9.92,20.58,13.86,20.18,3.08-.31,2.12-2.59,5.05-15.03,1.82-7.75,16.78-8.17,14.43,5.3-.08.45-5.33,16.42.82,22.28,7.33,6.99,41.52,2.19,47.3,9.36,3.33,4.13,2.91,14.39-4.32,17.41-10.6,4.43-12.59,3.63-18.09,8.34-8.69,7.45-11.04,18.78-11.42,20.63Z"/>
      <path class="cls-2" d="M15.74,122.49v-27.05h13.27c2.09,0,3.91.33,5.46.99,1.55.66,2.75,1.59,3.6,2.78.85,1.19,1.27,2.6,1.27,4.23,0,1.27-.25,2.39-.74,3.37-.5.98-1.21,1.78-2.15,2.42-.94.63-2.08,1.07-3.41,1.3l-.08-.38c1.96,0,3.42.4,4.39,1.2.97.8,1.5,1.97,1.61,3.52l.63,7.62h-7.83l-.39-6.32c-.05-.99-.33-1.72-.82-2.19s-1.37-.71-2.62-.71h-4.5v9.22h-7.67ZM23.41,107.29h4.19c1.28,0,2.25-.26,2.92-.78.67-.52,1-1.25,1-2.19s-.33-1.69-1-2.17c-.67-.48-1.64-.72-2.92-.72h-4.19v5.87Z"/>
      <g>
        <path class="cls-2" d="M43.08,122.49v-20.19h15.37v4.47h-9.65v3.38h9.29v4.44h-9.29v3.44h9.88v4.47h-15.61Z"/>
        <path class="cls-2" d="M61.67,122.49v-20.19h5.73v20.19h-5.73Z"/>
        <path class="cls-2" d="M70.64,122.49v-20.19h5.79l6.93,11.37v-11.37h5.73v20.19h-5.79l-6.93-10.81v10.81h-5.73Z"/>
        <path class="cls-2" d="M92.33,122.49v-20.19h7.63c3.49,0,6.17.88,8.04,2.63,1.87,1.75,2.81,4.25,2.81,7.49s-.92,5.71-2.76,7.45c-1.84,1.74-4.48,2.62-7.91,2.62h-7.8ZM98.05,118.02h1.9c1.73,0,3-.45,3.79-1.36.79-.91,1.18-2.33,1.18-4.27s-.39-3.36-1.18-4.27-2.05-1.36-3.79-1.36h-1.9v11.26Z"/>
        <path class="cls-2" d="M113.81,122.49v-20.19h15.37v4.47h-9.65v3.38h9.29v4.44h-9.29v3.44h9.88v4.47h-15.61Z"/>
        <path class="cls-2" d="M132.4,122.49v-20.19h15.37v4.47h-9.65v3.38h9.29v4.44h-9.29v3.44h9.88v4.47h-15.61Z"/>
        <path class="cls-2" d="M150.99,122.49v-20.19h9.91c1.56,0,2.92.25,4.08.74,1.16.49,2.06,1.19,2.69,2.08.63.89.95,1.94.95,3.16,0,.95-.19,1.79-.55,2.52-.37.73-.91,1.33-1.61,1.8-.7.47-1.55.8-2.54.97l-.06-.28c1.46,0,2.55.3,3.27.89s1.12,1.48,1.2,2.63l.47,5.69h-5.85l-.29-4.72c-.04-.74-.24-1.28-.61-1.64-.37-.35-1.02-.53-1.96-.53h-3.36v6.88h-5.73ZM156.71,111.14h3.13c.95,0,1.68-.19,2.18-.58s.75-.93.75-1.63-.25-1.26-.75-1.62c-.5-.36-1.22-.54-2.18-.54h-3.13v4.38Z"/>
      </g>
      <g>
        <path class="cls-2" d="M0,152.39l2.83-20.19h2.04l-2.68,19.05-.85-1.68h7.61l-.38,2.81H0Z"/>
        <path class="cls-2" d="M9.96,152.39l2.83-20.19h8.73l-.38,2.82h-6.69l-.85,5.89h6.46l-.4,2.73h-6.46l-.83,5.94h6.84l-.38,2.81h-8.88Z"/>
        <path class="cls-2" d="M20.2,152.39l7.56-20.19h2.61l1.93,20.19h-2.12l-1.44-17.26-6.27,17.26h-2.27ZM23.9,147.13l1.04-2.79h4.82l.23,2.79h-6.08Z"/>
        <path class="cls-2" d="M33.77,152.39l2.83-20.19h5.18c1.32,0,2.3.44,2.93,1.31.63.87.94,2.1.94,3.67,0,1.29-.18,2.37-.54,3.24s-.82,1.54-1.39,1.99-1.15.72-1.76.8l-.08-.31c.76,0,1.33.24,1.74.71.4.47.6,1.16.6,2.05,0,.42-.03.9-.08,1.45-.05.55-.09,1.03-.11,1.45l-.32,3.84h-2.06l.3-3.7c.04-.4.08-.83.11-1.29.04-.46.06-.9.06-1.32,0-.47-.14-.85-.42-1.14s-.75-.43-1.39-.43h-3.42l-1.1,7.88h-2.04ZM37.3,141.7h3.1c.68,0,1.25-.17,1.72-.51.47-.34.82-.83,1.05-1.45.23-.63.35-1.38.35-2.25,0-.8-.17-1.41-.51-1.83s-.92-.64-1.74-.64h-3l-.96,6.68Z"/>
        <path class="cls-2" d="M46.48,152.39l2.83-20.19h2.59l3.74,16.47,2.31-16.47h2.04l-2.83,20.19h-2.68l-3.68-16.1-2.27,16.1h-2.04Z"/>
        <path class="cls-2" d="M60.29,152.39l2.83-20.19h2.04l-2.83,20.19h-2.04Z"/>
        <path class="cls-2" d="M65.47,152.39l2.83-20.19h2.59l3.74,16.47,2.31-16.47h2.04l-2.83,20.19h-2.68l-3.68-16.1-2.27,16.1h-2.04Z"/>
        <path class="cls-2" d="M84.05,152.84c-1.41,0-2.5-.64-3.26-1.93-.76-1.29-1.14-3.13-1.14-5.52,0-2.05.17-3.9.51-5.57.34-1.67.83-3.1,1.48-4.31.65-1.2,1.44-2.13,2.37-2.79.93-.65,1.99-.98,3.17-.98,1.05,0,1.89.29,2.53.85s1.11,1.36,1.42,2.39.45,2.21.45,3.56l-2.15.17c0-1.36-.18-2.4-.55-3.1-.37-.7-1.03-1.05-2-1.05-.81,0-1.52.26-2.15.77-.63.51-1.17,1.24-1.61,2.19-.44.95-.78,2.06-1.01,3.33-.23,1.27-.35,2.65-.35,4.15,0,1.88.23,3.18.7,3.92.47.74,1.15,1.11,2.06,1.11.78,0,1.47-.23,2.06-.7.59-.46,1.08-1.1,1.45-1.92s.64-1.72.79-2.73h-3.44l.38-2.59h5.35l-1.44,10.29h-1.42l.49-4.55.34.28c-.26.87-.65,1.66-1.14,2.37-.5.71-1.08,1.28-1.75,1.71-.67.43-1.39.64-2.15.64Z"/>
      </g>
      <g>
        <path class="cls-2" d="M103.46,152.84c-1.45,0-2.6-.6-3.44-1.79-.84-1.19-1.27-3.07-1.27-5.63,0-1.4.11-2.78.33-4.12.22-1.35.54-2.6.96-3.75.42-1.16.94-2.17,1.56-3.03.62-.86,1.33-1.54,2.13-2.03.8-.49,1.7-.74,2.69-.74,1.1,0,1.97.3,2.64.9s1.14,1.43,1.45,2.49c.3,1.06.45,2.29.45,3.7l-2.12.17c0-1.52-.21-2.63-.62-3.35-.42-.72-1.13-1.08-2.15-1.08-.66,0-1.25.19-1.79.58-.54.39-1.01.92-1.44,1.58-.42.66-.78,1.44-1.08,2.32-.3.88-.52,1.82-.66,2.81-.15,1-.22,2-.22,3,0,1.92.24,3.26.72,4.02.48.77,1.22,1.15,2.23,1.15,1.07,0,1.97-.43,2.68-1.29.72-.86,1.25-2.05,1.59-3.57l2.14.17c-.37,1.53-.86,2.86-1.49,3.98-.63,1.12-1.39,1.99-2.27,2.6-.88.62-1.89.92-3.02.92Z"/>
        <path class="cls-2" d="M111.59,152.39l2.83-20.19h8.73l-.38,2.82h-6.69l-.85,5.89h6.46l-.4,2.73h-6.46l-.83,5.94h6.84l-.38,2.81h-8.88Z"/>
        <path class="cls-2" d="M122.9,152.39l2.83-20.19h2.59l3.74,16.47,2.31-16.47h2.04l-2.83,20.19h-2.68l-3.68-16.1-2.27,16.1h-2.04Z"/>
        <path class="cls-2" d="M138.59,152.39l2.46-17.37h-4.02l.38-2.82h10.09l-.38,2.82h-4.02l-2.46,17.37h-2.04Z"/>
        <path class="cls-2" d="M145.65,152.39l2.83-20.19h8.73l-.38,2.82h-6.69l-.85,5.89h6.46l-.4,2.73h-6.46l-.83,5.94h6.84l-.38,2.81h-8.88Z"/>
        <path class="cls-2" d="M156.99,152.39l2.83-20.19h5.18c1.32,0,2.3.44,2.93,1.31.63.87.94,2.1.94,3.67,0,1.29-.18,2.37-.54,3.24s-.82,1.54-1.39,1.99-1.15.72-1.76.8l-.08-.31c.76,0,1.33.24,1.74.71.4.47.6,1.16.6,2.05,0,.42-.03.9-.08,1.45-.05.55-.09,1.03-.11,1.45l-.32,3.84h-2.06l.3-3.7c.04-.4.08-.83.11-1.29.04-.46.06-.9.06-1.32,0-.47-.14-.85-.42-1.14s-.75-.43-1.39-.43h-3.42l-1.1,7.88h-2.04ZM160.52,141.7h3.1c.68,0,1.25-.17,1.72-.51.47-.34.82-.83,1.05-1.45.23-.63.35-1.38.35-2.25,0-.8-.17-1.41-.51-1.83s-.92-.64-1.74-.64h-3l-.96,6.68Z"/>
      </g>
    </g>
  </g>
</svg>