<?xml version="1.0" encoding="UTF-8"?>
<svg id="Layer_2" data-name="Layer 2" xmlns="http://www.w3.org/2000/svg" viewBox="0 0 276.81 234.43">
  <defs>
    <style>
      .cls-1 {
        fill-rule: evenodd;
      }

      .cls-1, .cls-2 {
        fill: #fff;
      }
    </style>
  </defs>
  <g id="Layer_1-2" data-name="Layer 1">
    <g>
      <path class="cls-1" d="M199.82,149.42l-75.5.36c13.28-11.79,18.56-24.78,15.45-29.58-5.15-7.95-37.62,3.89-44.23-10.58-2.36-5.16,1.72-10.59,3.71-11.72,5.25-2.96,38.45-6.24,43.86-13.3,5.41-7.06-45.43-10.33-54.89-12.02-9.45-1.68-55.57-12.24-51.49-28.8,3.84-15.61,33.28-1.23,34.93-.45,2.28,1.08,15.54,9.46,35.73,8.5,10.31-.49,8.19-4.34,3.12-13.37-11.02-19.6-11.92-20.35-12.42-23.82-1.39-9.79,14.9-25.2,26.97-4.07,3.54,6.19,15.57,32.3,21.76,31.67,4.83-.49,3.33-4.07,7.92-23.6,2.86-12.16,26.34-12.82,22.65,8.33-.12.7-8.36,25.76,1.29,34.96,11.51,10.97,65.16,3.44,74.24,14.69,5.24,6.49,4.57,22.58-6.78,27.33-16.64,6.96-19.76,5.69-28.39,13.09-13.64,11.69-17.32,29.48-17.92,32.38Z"/>
      <path class="cls-2" d="M226.02,6.76h11.27c3.11,0,5.64,2.53,5.64,5.64v11.27c0,3.11-2.53,5.64-5.64,5.64h-11.27c-3.11,0-5.63-2.52-5.63-5.63v-11.28c0-3.11,2.52-5.63,5.63-5.63Z"/>
      <path class="cls-2" d="M36.48,192.23v-42.45h20.83c3.28,0,6.13.52,8.57,1.55,2.44,1.04,4.32,2.49,5.65,4.36,1.33,1.87,2,4.09,2,6.64,0,1.99-.39,3.76-1.17,5.29-.78,1.53-1.9,2.8-3.38,3.8-1.48,1-3.26,1.67-5.35,2.03l-.12-.6c3.07,0,5.37.63,6.88,1.88,1.52,1.26,2.36,3.1,2.52,5.53l.98,11.96h-12.29l-.61-9.92c-.08-1.55-.51-2.7-1.29-3.44-.78-.74-2.15-1.11-4.12-1.11h-7.07v14.47h-12.04ZM48.52,168.38h6.58c2.01,0,3.53-.41,4.58-1.23,1.04-.82,1.57-1.96,1.57-3.44s-.52-2.65-1.57-3.41c-1.05-.76-2.57-1.14-4.58-1.14h-6.58v9.21Z"/>
      <g>
        <path class="cls-2" d="M79.39,192.23v-31.69h24.13v7.01h-15.14v5.31h14.59v6.96h-14.59v5.4h15.5v7.01h-24.5Z"/>
        <path class="cls-2" d="M108.56,192.23v-31.69h8.99v31.69h-8.99Z"/>
        <path class="cls-2" d="M122.64,192.23v-31.69h9.08l10.87,17.85v-17.85h8.99v31.69h-9.08l-10.87-16.96v16.96h-8.99Z"/>
        <path class="cls-2" d="M156.68,192.23v-31.69h11.97c5.47,0,9.68,1.38,12.61,4.13,2.94,2.75,4.4,6.67,4.4,11.76s-1.45,8.96-4.34,11.69c-2.89,2.74-7.03,4.11-12.41,4.11h-12.25ZM165.67,185.23h2.98c2.72,0,4.7-.71,5.94-2.14,1.24-1.43,1.86-3.66,1.86-6.69s-.62-5.27-1.86-6.69c-1.24-1.43-3.22-2.14-5.94-2.14h-2.98v17.67Z"/>
        <path class="cls-2" d="M190.4,192.23v-31.69h24.13v7.01h-15.14v5.31h14.59v6.96h-14.59v5.4h15.5v7.01h-24.5Z"/>
        <path class="cls-2" d="M219.57,192.23v-31.69h24.13v7.01h-15.14v5.31h14.59v6.96h-14.59v5.4h15.5v7.01h-24.5Z"/>
        <path class="cls-2" d="M248.74,192.23v-31.69h15.55c2.45,0,4.58.39,6.4,1.16,1.82.77,3.23,1.86,4.22,3.26.99,1.4,1.49,3.05,1.49,4.95,0,1.49-.29,2.8-.87,3.95-.58,1.15-1.42,2.09-2.52,2.83-1.1.74-2.43,1.25-3.99,1.52l-.09-.45c2.29,0,4.01.47,5.14,1.41,1.13.94,1.76,2.31,1.88,4.13l.73,8.93h-9.17l-.46-7.41c-.06-1.16-.38-2.02-.96-2.57-.58-.55-1.61-.83-3.07-.83h-5.28v10.8h-8.99ZM257.73,174.43h4.91c1.5,0,2.64-.3,3.42-.91.78-.61,1.17-1.46,1.17-2.57s-.39-1.98-1.17-2.54c-.78-.56-1.92-.85-3.42-.85h-4.91v6.87Z"/>
      </g>
      <path class="cls-2" d="M0,233.71l11.69-31.55h10.19l11.69,31.55h-9.14l-1.83-5.2h-11.69l-1.83,5.2H0ZM13.29,221.76h6.99l-3.47-10-3.52,10Z"/>
      <g>
        <path class="cls-2" d="M36.51,233.71v-23.56h17.7v5.21h-14.83l3.82-3.85v10.78l-3.82-2.69h14.22v5.18h-14.22l3.82-2.69v11.61h-6.68Z"/>
        <path class="cls-2" d="M62.74,233.71v-18.35h-7.06v-5.21h20.83v5.21h-7.06v18.35h-6.72Z"/>
        <path class="cls-2" d="M78.52,233.71v-23.56h17.94v5.21h-11.25v3.95h10.84v5.18h-10.84v4.01h11.53v5.21h-18.21Z"/>
        <path class="cls-2" d="M100.21,233.71v-23.56h11.56c1.82,0,3.4.29,4.76.86,1.35.58,2.4,1.38,3.14,2.42.74,1.04,1.11,2.27,1.11,3.68,0,1.11-.22,2.08-.65,2.94-.43.85-1.06,1.55-1.88,2.11-.82.55-1.81.93-2.97,1.13l-.07-.33c1.71,0,2.98.35,3.82,1.05.84.7,1.31,1.72,1.4,3.07l.55,6.64h-6.82l-.34-5.51c-.05-.86-.28-1.5-.72-1.91-.43-.41-1.19-.61-2.28-.61h-3.92v8.03h-6.68ZM106.89,220.48h3.65c1.11,0,1.96-.23,2.54-.68.58-.45.87-1.09.87-1.91s-.29-1.47-.87-1.89c-.58-.42-1.43-.63-2.54-.63h-3.65v5.11Z"/>
      </g>
      <path class="cls-2" d="M139.22,234.43c-2.98,0-5.53-.46-7.63-1.38s-3.73-2.22-4.89-3.91c-1.16-1.69-1.81-3.69-1.96-6l8.91-.4c.15,1.04.46,1.92.91,2.64.46.73,1.07,1.27,1.85,1.64.78.37,1.74.56,2.9.56.91,0,1.69-.1,2.33-.29.64-.19,1.13-.5,1.46-.91.33-.41.5-.93.5-1.56,0-.56-.15-1.06-.43-1.49-.29-.43-.85-.81-1.69-1.16-.84-.34-2.08-.67-3.72-1-2.95-.59-5.34-1.28-7.17-2.07-1.83-.78-3.16-1.8-4-3.04-.84-1.24-1.26-2.83-1.26-4.76s.52-3.67,1.55-5.16c1.03-1.48,2.53-2.64,4.48-3.47,1.95-.83,4.29-1.24,7.03-1.24,2.89,0,5.31.47,7.26,1.42,1.95.95,3.46,2.25,4.55,3.91,1.08,1.66,1.73,3.59,1.94,5.78l-8.82.36c-.06-.98-.3-1.81-.73-2.49-.43-.68-1-1.21-1.71-1.58-.72-.37-1.58-.56-2.58-.56-1.28,0-2.27.25-2.97.76-.7.5-1.05,1.17-1.05,2,0,.65.17,1.2.53,1.64.35.44.93.82,1.74,1.11.81.3,1.91.56,3.31.8,3.2.53,5.72,1.26,7.58,2.18,1.86.92,3.17,2.02,3.95,3.29.78,1.27,1.16,2.74,1.16,4.4,0,2.04-.53,3.81-1.58,5.31-1.05,1.5-2.57,2.64-4.57,3.44-1.99.8-4.39,1.2-7.19,1.2Z"/>
      <g>
        <path class="cls-2" d="M167.9,234.25c-2.25,0-4.26-.49-6.02-1.46-1.76-.97-3.15-2.37-4.16-4.2-1.01-1.82-1.52-4.03-1.52-6.62s.48-4.64,1.43-6.49c.96-1.85,2.32-3.28,4.09-4.31,1.77-1.03,3.88-1.54,6.31-1.54,3.32,0,5.9.79,7.76,2.36,1.85,1.57,3.04,3.86,3.56,6.87l-6.92.23c-.23-1.35-.73-2.39-1.5-3.14-.77-.74-1.74-1.11-2.9-1.11s-2.04.3-2.78.91c-.74.61-1.29,1.45-1.65,2.52-.36,1.07-.55,2.31-.55,3.7s.19,2.69.58,3.75c.39,1.06.95,1.88,1.69,2.45.74.58,1.62.86,2.64.86,1.32,0,2.34-.39,3.07-1.18.73-.78,1.19-1.9,1.4-3.33l6.96.23c-.34,2.06-1,3.79-1.98,5.19-.98,1.4-2.26,2.47-3.84,3.2-1.58.73-3.47,1.09-5.68,1.09Z"/>
        <path class="cls-2" d="M181.81,233.71v-23.56h6.68v10.98l-2.83-1.89h12.86l-2.83,1.89v-10.98h6.68v23.56h-6.68v-11.11l2.83,1.86h-12.86l2.83-1.86v11.11h-6.68Z"/>
        <path class="cls-2" d="M217.31,234.25c-2.55,0-4.74-.5-6.58-1.49-1.84-1-3.25-2.41-4.23-4.25s-1.47-4.01-1.47-6.54.49-4.71,1.47-6.55c.98-1.85,2.39-3.27,4.23-4.28,1.84-1.01,4.03-1.51,6.58-1.51s4.77.5,6.6,1.51c1.83,1.01,3.23,2.43,4.21,4.28.98,1.85,1.47,4.03,1.47,6.55s-.49,4.7-1.47,6.54-2.38,3.25-4.21,4.25c-1.83,1-4.03,1.49-6.6,1.49ZM217.31,229.04c1.14,0,2.11-.28,2.92-.83.81-.55,1.43-1.35,1.86-2.41.43-1.05.65-2.33.65-3.83s-.22-2.79-.65-3.85c-.43-1.06-1.05-1.87-1.86-2.44-.81-.56-1.78-.85-2.92-.85s-2.11.28-2.92.85c-.81.56-1.43,1.38-1.86,2.44-.43,1.06-.65,2.34-.65,3.85s.22,2.78.65,3.83c.43,1.05,1.05,1.85,1.86,2.41.81.55,1.78.83,2.92.83Z"/>
        <path class="cls-2" d="M244.59,234.25c-2.55,0-4.74-.5-6.58-1.49-1.84-1-3.25-2.41-4.23-4.25s-1.47-4.01-1.47-6.54.49-4.71,1.47-6.55c.98-1.85,2.39-3.27,4.23-4.28,1.84-1.01,4.03-1.51,6.58-1.51s4.77.5,6.6,1.51c1.83,1.01,3.23,2.43,4.21,4.28.98,1.85,1.47,4.03,1.47,6.55s-.49,4.7-1.47,6.54-2.38,3.25-4.21,4.25c-1.83,1-4.03,1.49-6.6,1.49ZM244.59,229.04c1.14,0,2.11-.28,2.92-.83.81-.55,1.43-1.35,1.86-2.41.43-1.05.65-2.33.65-3.83s-.22-2.79-.65-3.85c-.43-1.06-1.05-1.87-1.86-2.44-.81-.56-1.78-.85-2.92-.85s-2.11.28-2.92.85c-.81.56-1.43,1.38-1.86,2.44-.43,1.06-.65,2.34-.65,3.85s.22,2.78.65,3.83c.43,1.05,1.05,1.85,1.86,2.41.81.55,1.78.83,2.92.83Z"/>
        <path class="cls-2" d="M259.59,233.71v-23.56h6.68v22.19l-3.82-3.85h14.36v5.21h-17.22Z"/>
      </g>
      <path class="cls-1" d="M199.82,149.42l-75.5.36c13.28-11.79,18.56-24.78,15.45-29.58-5.15-7.95-37.62,3.89-44.23-10.58-2.36-5.16,1.72-10.59,3.71-11.72,5.25-2.96,38.45-6.24,43.86-13.3,5.41-7.06-45.43-10.33-54.89-12.02-9.45-1.68-55.57-12.24-51.49-28.8,3.84-15.61,33.28-1.23,34.93-.45,2.28,1.08,15.54,9.46,35.73,8.5,10.31-.49,8.19-4.34,3.12-13.37-11.02-19.6-11.92-20.35-12.42-23.82-1.39-9.79,14.9-25.2,26.97-4.07,3.54,6.19,15.57,32.3,21.76,31.67,4.83-.49,3.33-4.07,7.92-23.6,2.86-12.16,26.34-12.82,22.65,8.33-.12.7-8.36,25.76,1.29,34.96,11.51,10.97,65.16,3.44,74.24,14.69,5.24,6.49,4.57,22.58-6.78,27.33-16.64,6.96-19.76,5.69-28.39,13.09-13.64,11.69-17.32,29.48-17.92,32.38Z"/>
    </g>
  </g>
</svg>