<?xml version="1.0" encoding="UTF-8"?>
<svg id="Layer_2" data-name="Layer 2" xmlns="http://www.w3.org/2000/svg" viewBox="0 0 147.37 100.52">
  <defs>
    <style>
      .cls-1 {
        fill: #fff;
        fill-rule: evenodd;
      }
    </style>
  </defs>
  <g id="Layer_1-2" data-name="Layer 1">
    <g>
      <path class="cls-1" d="M109.62,100.27l-50.66.24c8.92-7.91,12.46-16.63,10.37-19.85-3.47-5.34-25.25,2.61-29.69-7.1-1.58-3.46,1.15-7.11,2.49-7.86,3.51-1.99,25.8-4.19,29.43-8.93,3.64-4.74-30.48-6.93-36.82-8.06S-2.55,40.51.17,29.39c2.58-10.47,22.34-.83,23.45-.3,1.53.72,10.43,6.35,23.98,5.71,6.92-.33,5.49-2.91,2.09-8.97-7.4-13.16-8-13.66-8.33-15.99-.94-6.57,9.98-16.92,18.09-2.74,2.38,4.16,10.45,21.68,14.6,21.25,3.25-.33,2.24-2.73,5.31-15.84,1.92-8.16,17.68-8.6,15.22,5.59-.09.47-5.62,17.29.85,23.46,7.72,7.36,43.73,2.31,49.83,9.86,3.51,4.35,3.06,15.15-4.55,18.34-11.18,4.67-13.27,3.82-19.05,8.78-9.15,7.85-11.62,19.78-12.03,21.73Z"/>
      <path class="cls-1" d="M130.8,4.63c4.75,0,8.59,3.85,8.59,8.59s-3.84,8.59-8.59,8.59-8.59-3.85-8.59-8.59,3.85-8.59,8.59-8.59Z"/>
    </g>
  </g>
</svg>