<?xml version="1.0" encoding="UTF-8"?>
<svg id="Layer_2" data-name="Layer 2" xmlns="http://www.w3.org/2000/svg" viewBox="0 0 134.78 134.77">
  <defs>
    <style>
      .cls-1 {
        fill: #fff;
        fill-rule: evenodd;
      }
    </style>
  </defs>
  <g id="Layer_1-2" data-name="Layer 1">
    <path class="cls-1" d="M91.95,101.56c.26-1.33,1.95-9.49,8.22-14.85,3.95-3.39,5.39-2.81,13.02-6,5.2-2.18,5.51-9.56,3.11-12.53-4.16-5.16-28.78-1.7-34.05-6.74-4.43-4.22-.63-15.71-.59-16.03,1.69-9.7-9.07-9.39-10.39-3.82-2.11,8.95-1.41,10.6-3.64,10.82-2.83.29-8.34-11.68-9.97-14.52-5.54-9.69-13.02-2.62-12.37,1.87.23,1.59.63,1.93,5.7,10.92,2.32,4.14,3.3,5.91-1.44,6.13-9.26.44-15.34-3.4-16.38-3.9-.76-.36-14.26-6.95-16.02.21-1.87,7.59,19.27,12.43,23.61,13.21,4.35.77,27.66,2.27,25.17,5.51-2.48,3.24-17.71,4.74-20.11,6.1-.91.52-2.79,3.01-1.7,5.37,3.03,6.64,17.92,1.21,20.29,4.85,1.42,2.2-1.01,8.16-7.09,13.56l34.63-.17ZM106.42,36.21c-3.25,0-5.88,2.63-5.88,5.87s2.63,5.87,5.88,5.87,5.87-2.63,5.87-5.87-2.63-5.87-5.87-5.87ZM134.78,33.69v67.39c0,18.6-15.11,33.69-33.7,33.69H33.68C15.09,134.77,0,119.68,0,101.08V33.69C0,15.1,15.09,0,33.68,0h67.4c18.59,0,33.7,15.1,33.7,33.69Z"/>
  </g>
</svg>