<?xml version="1.0" encoding="UTF-8"?>
<svg id="Layer_2" data-name="Layer 2" xmlns="http://www.w3.org/2000/svg" viewBox="0 0 892.32 625.25">
  <defs>
    <style>
      .cls-1 {
        fill: #231f20;
      }

      .cls-2 {
        fill: #e05b34;
      }

      .cls-3 {
        fill: #fff;
      }
    </style>
  </defs>
  <g id="Layer_1-2" data-name="Layer 1">
    <g>
      <rect class="cls-1" x="468.73" y="351.55" width="34.35" height="53.62"/>
      <rect class="cls-1" x="525.28" y="425.85" width="111.56" height="64.19"/>
      <rect class="cls-1" x="323.98" y="421.08" width="89.12" height="78.53"/>
      <rect class="cls-1" x="86.83" y="515.99" width="89.12" height="58.19"/>
      <g>
        <g>
          <path class="cls-2" d="M102.83,478.05c-22.89,0-42.71-4.48-55.82-12.62-10.14-6.31-16.14-14.92-17.34-24.9-1.45-11.98,4.18-25.58,15.46-37.47-.14-.05-.28-.12-.42-.18-5.44-2.62-10.8-6.01-15.94-10.07-.04-.03-.08-.07-.13-.1-32.11-26.85-26.92-69.01-5.73-95.05,13.52-16.08,32.14-25.4,51.15-25.64h.78c18.78,0,33.2,5.52,42.86,16.42,11.34,12.79,14.15,30.5,14.12,46.45,1.52-8.03,3.75-16.63,7.12-24.7,9.63-23.01,26.17-35.17,47.83-35.17h2.48c.12,0,.24,0,.36.01,8.25.52,14.42,2.87,18.87,7.16,22.23,22.19-13.37,82.15-25.19,100.56,5.26,0,18.28.74,27.11,7.34,7.21,5.49,14.24,16.35,6.94,37.09-5.36,15.38-20.82,28.53-44.71,38.02-20.58,8.17-46.03,12.86-69.83,12.86ZM136.08,400.8c.41.54.74,1.16.95,1.84,3.3,10.84,1.26,22.67-.22,29.06l16.23-36.19c-.12.05-.24.1-.37.16-2.38,1.02-6.8,2.91-12.81,5.08-.64.23-1.3.34-1.96.34s-1.24-.1-1.82-.3Z"/>
          <path class="cls-1" d="M74.84,277.77c62.35,0,51.36,64.13,48.88,86.15,0,1.71,2.13,2.99,4.96,3.21,2.83,0,4.96-1.07,5.31-2.78,1.77-17.53,4.25-83.58,52.78-83.58h2.48c6.73.43,11.69,2.14,15.23,5.56,18.42,18.38-14.88,76.95-29.05,97.9-.71,1.07-.71,2.14.36,2.99,1.23.74,2.73,1.32,4.26,1.32.23,0,.46-.01.7-.04h2.48c4.6,0,16.3.64,23.74,6.2,8.15,6.2,9.92,16.46,4.96,30.57-10.27,29.5-63.76,47.03-109.11,47.03-21.96,0-40.74-4.28-52.78-11.76-23.03-14.32-16.3-37.62,0-54.3,10.27,3.42,21.96,5.13,34.36,5.13,17.71,0,34.36-3.42,47.11-7.05,3.19,10.47.71,22.23-1.06,29.07-.36,2.14-.71,3.85-.71,4.92-.35,1.71,1.77,2.99,4.25,3.21.25.02.51.03.76.03,2.21,0,4.27-.83,4.91-2.17l20.9-46.6c.35-1.28-.35-2.57-2.13-3.42-.99-.3-1.97-.46-2.92-.46-1.1,0-2.15.21-3.1.67-.35,0-5.67,2.57-14.52,5.77-6.02-8.76-16.65-14.32-31.53-16.46-2.83-.43-5.67-.64-8.86-.64-17.36,0-35.78,7.27-50.3,19.45-5.31-2.57-10.27-5.77-14.88-9.41-29.4-24.58-24.44-63.06-4.96-87,12.4-14.75,29.4-23.3,46.76-23.51h.71M97.91,384.46c2.04,0,4.04.13,5.98.41,12.04,1.71,20.19,6.2,24.8,13.47-11.69,3.21-27.63,6.84-44.28,6.84-10.63,0-20.19-1.28-28.69-4.06,12.67-10.44,28.3-16.65,42.19-16.65M74.84,266.27h-.71s-.09,0-.14,0c-20.69.25-40.89,10.32-55.43,27.62-.04.05-.08.09-.12.14-22.93,28.17-28.44,73.88,6.5,103.09.08.07.17.14.25.21,3.53,2.79,7.16,5.28,10.86,7.45-9.16,11.75-13.53,24.69-12.11,36.45.99,8.21,5.27,19.92,20.01,29.09,14.01,8.7,34.91,13.49,58.86,13.49s50.72-4.83,71.95-13.26c25.49-10.12,42.09-24.47,48.02-41.49,8.87-25.24-1.74-38.1-8.86-43.51-.03-.02-.05-.04-.08-.06-6.27-4.68-14-6.84-20.66-7.79,6.84-11.44,14.24-25.46,19.68-39.12,4.72-11.84,7.51-22.31,8.3-31.11,1.13-12.63-1.75-22.48-8.56-29.28-.04-.04-.09-.09-.14-.13-5.47-5.28-12.83-8.15-22.5-8.76-.24-.02-.49-.02-.73-.02h-2.48c-16.68,0-39.29,6.58-52.73,37.75-2.37-8.06-6.17-15.77-12.04-22.39-10.8-12.18-26.67-18.36-47.17-18.36h0Z"/>
        </g>
        <g>
          <path class="cls-2" d="M114.49,607.6c-21.84,0-39.83-4.86-48.13-13-16.81-16.01-9.74-43.16,3.54-65.22-6.24,1.06-11.89,1.57-17.15,1.57-9.07,0-15.75-1.59-21.05-5-13.29-8.67-13.2-26.27-11.13-44.01,3.1-25.23,58.44-28.15,99.8-28.15,24.31,0,47.53,1.26,62.73,2.32,17.91,1.43,29.97,6.85,35.9,16.12,5.06,7.64,5.73,17.53,1.81,27.76-3.32,8.68-9.74,17.02-17.63,22.9-8.24,6.17-19.79,9.3-34.31,9.3-5.76,0-14.53-.53-25.52-2.81,9.28,10.88,18.98,25.01,27.88,40.7,4.99,9.27,3.33,17.87-4.6,24.33-9.6,7.99-30.09,13.18-52.15,13.18Z"/>
          <path class="cls-1" d="M120.38,459.55c23.81,0,47.04,1.24,62.33,2.31,15.58,1.24,26.46,5.68,31.46,13.48,8.82,13.31-.59,32.65-14.41,42.94-7.35,5.5-17.94,8.16-30.87,8.16-16.17,0-30.87-4.26-31.16-4.26-.66-.2-1.36-.3-2.05-.3-1.14,0-2.22.28-2.95.83-1.47.89-1.47,2.13-.29,3.19,0,.18,15.29,14.37,33.81,47.02,3.53,6.56,2.65,12.24-3.23,17.03-8.53,7.1-27.64,11.89-48.51,11.89s-37.05-4.44-44.1-11.35c-22.35-21.29,7.94-63.52,8.23-64.05.59-.89.29-1.95-.88-2.66-.59-.53-1.76-.89-2.94-.89h-1.47c-7.94,1.6-14.7,2.31-20.58,2.31-7.64,0-13.52-1.24-17.94-4.08-10.88-7.1-10.29-23.42-8.52-38.5,2.35-19.16,52.33-23.06,94.08-23.06M120.38,448.05c-26.32,0-47.83,1.53-63.93,4.54-9.63,1.8-38.95,7.29-41.57,28.63-1.44,12.29-4.42,37.75,13.66,49.54.02.01.04.03.06.04,6.18,3.98,14.08,5.91,24.16,5.91,2.21,0,4.48-.08,6.82-.26-1.81,3.74-3.56,7.85-5.03,12.2-9,26.58-.71,41.92,7.86,50.11,9.38,9.14,28.84,14.59,52.1,14.59s45.03-5.56,55.83-14.51c9.97-8.15,12.23-19.87,6.06-31.37-.04-.08-.08-.15-.13-.23-6.17-10.88-12.73-21.03-19.29-29.93,4.76.48,8.77.63,11.93.63,15.79,0,28.5-3.52,37.77-10.46,18.36-13.67,29.79-39.26,17.15-58.43-6.97-10.82-20.49-17.1-40.19-18.67-.04,0-.08,0-.12,0-15.3-1.06-38.67-2.33-63.13-2.33h0Z"/>
        </g>
        <g>
          <path class="cls-2" d="M231.73,467.13c-10.22,0-20.87-2.57-31.65-7.65-29.57-14.17-39.54-41.53-28.1-77.05,16.19-51.47,72.23-106.21,111.05-108.41.11,0,.22,0,.33,0h1.18c8.54,0,37.18,2.68,47.12,37.14,8.89,32.54-9.06,95.73-46.37,131.7-16.66,16.11-34.68,24.28-53.55,24.28Z"/>
          <path class="cls-1" d="M284.53,279.76c7.37,0,32.74,2.29,41.59,32.98,8.26,30.23-9.44,91.84-44.84,125.96-15.63,15.12-32.15,22.67-49.56,22.67-9.73,0-19.47-2.52-29.2-7.1-33.92-16.26-32.45-47.18-25.07-70.08,15.34-48.78,69.62-102.37,105.9-104.43h1.18M250.61,399.08h.59c2.06,0,4.13-1.15,4.42-2.98l5.6-37.79c.3-1.83-1.47-3.66-3.83-3.89-.17-.02-.34-.03-.51-.03-2.14,0-3.93,1.3-4.21,3l-5.6,38.02c-.3,1.83,1.18,3.44,3.54,3.66M284.53,268.26h-1.18c-.22,0-.44,0-.65.02-20.04,1.14-44.91,14.99-68.23,37.99-22.63,22.33-40.12,49.46-47.98,74.44-5.14,15.99-6.22,30.67-3.19,43.63,4.11,17.6,15.96,31.54,34.26,40.31.03.01.05.02.08.04,11.56,5.44,23.03,8.19,34.1,8.19,20.41,0,39.78-8.72,57.56-25.91,38.7-37.31,57.23-103.24,47.94-137.26-.01-.05-.03-.1-.04-.16-8.78-30.45-32.95-41.3-52.65-41.3h0Z"/>
        </g>
        <g>
          <path class="cls-2" d="M247.53,610.25c-23.14,0-44-3.51-58.73-9.88-12.49-5.33-20.12-12.44-22.64-21.11-2.22-7.62-.32-15.88,5.63-24.55,4.42-6.48,10.22-12.01,17.34-16.56-4.02.36-8.34.59-12.67.59-10.14,0-18.78-1.19-25.69-3.55-12.84-4.52-20.26-13.54-21.54-26.08-1.87-19.35,13.83-33.37,27.34-41.72,14.92-9.23,36.2-17.26,59.92-22.62,20.1-4.59,40.44-7.02,58.78-7.02,14.55,0,34.46,1.57,46.66,9.06,11.38,6.79,14.82,14.63,15.7,20.02.85,5.23.15,13.47-8.03,23.01-2.16,2.74-4.91,5.43-8.11,7.95,30.58,2.99,49.87,12.8,55.81,28.4,3.05,8,2.43,17.09-1.81,26.29-8.67,18.82-31.86,36.86-60.52,47.09-19.17,6.89-43.13,10.69-67.43,10.69ZM203.65,509.1c4.16-1.78,9.69-3.81,16.75-5.74.5-.14,1.01-.2,1.52-.2.42,0,.84.05,1.25.14-.13-.33-.23-.67-.3-1.03-1.07-5.37.37-11,2.52-15.89l-21.72,22.72Z"/>
          <path class="cls-1" d="M275.27,443.5c19.04,0,34.76,2.75,43.65,8.21,15.24,9.09,17.32,21.59,6.24,34.47-3.12,3.98-7.62,7.77-12.82,10.99-10.35-.74-19.95-1.07-28.82-1.07-22.91,0-41.03,2.18-55.02,5.04-1.73-8.71,5.89-20.08,9.7-24.43,1.04-1.52,0-3.03-2.43-3.79-.73-.17-1.49-.26-2.23-.26-1.73,0-3.38.46-4.35,1.39l-39.84,41.67c-1.38,1.14-.35,2.84,1.73,3.6.8.29,1.6.44,2.42.44,1.31,0,2.67-.39,4.16-1.2.35-.19,7.62-5.11,24.25-9.66.35.38.69.76,1.04,1.14,5.89,5.3,16.28,8.14,30.83,8.52.94.02,1.89.04,2.84.04,20.99,0,42.95-5.96,59.52-15.57,1.39.19,2.77.19,3.81.38,28.76,2.65,46.77,11.17,51.97,24.81,8.31,21.78-18.02,51.33-58.9,65.91-19.18,6.89-42.91,10.35-65.5,10.35s-41.93-3.13-56.45-9.41c-14.2-6.06-28.06-17.43-14.55-37.12,7.62-11.17,19.4-18.56,33.26-23.11l4.51-1.33c15.66-4.55,33.04-5.94,48.43-5.94,23.09,0,41.71,3.14,43.38,3.48.48.07.95.1,1.42.1,2.25,0,4.25-.74,4.82-1.99,1.04-1.52-.35-3.03-3.12-3.41-.41-.11-20.28-3.25-45.58-3.25-18.05,0-38.85,1.6-57.32,7.04-4.27,1.28-16.68,3.43-29.87,3.43-8.24,0-16.78-.84-23.83-3.24-10.74-3.79-16.63-10.99-17.67-21.21-2.77-28.6,40.88-48.68,82.8-58.15,20.14-4.6,40.2-6.88,57.52-6.88M284.18,501.56c6.04,0,12.42.17,19.15.53-13.94,6.9-31.06,11.01-47.1,11.01-.7,0-1.4,0-2.1-.02-11.09-.19-18.36-2.08-22.17-5.87-.35-.19-.69-.38-.69-.57,13.08-2.83,30.66-5.07,52.91-5.07M275.27,432c-18.77,0-39.55,2.48-60.08,7.17-17.18,3.88-41.86,11.09-61.65,23.33-26.99,16.69-31.23,34.85-30.04,47.14,1.5,14.76,10.48,25.73,25.3,30.96.04.01.08.03.12.04,6.6,2.25,14.56,3.52,23.71,3.79-2.05,2.22-3.92,4.57-5.61,7.05-6.96,10.14-9.11,20.04-6.39,29.39,3.03,10.41,11.75,18.75,25.93,24.8,15.39,6.65,37.06,10.33,60.97,10.33s49.6-3.92,69.39-11.03c30.5-10.88,54.35-29.61,63.79-50.09,4.9-10.64,5.58-21.28,1.96-30.76-6.01-15.77-22.38-26.01-48.74-30.5.04-.04.07-.09.11-.13,9.54-11.19,10.31-21.17,9.26-27.59-1.07-6.58-5.14-16.09-18.43-24.04-13.35-8.15-34.34-9.87-49.6-9.87h0Z"/>
        </g>
        <g>
          <path class="cls-2" d="M431.37,608.45c-5.25-.25-9.46-2.03-12.99-5.46-.08-.08-.16-.16-.24-.24-4.33-4.74-5.95-11.32-6.48-16.72-2.08,2.45-3.97,4.36-4.14,4.54-7.58,7.64-16.11,12.76-24.65,14.81-4.46,1.15-8.89,1.74-13.07,1.74h0c-20.69,0-35.44-14.56-38.49-38.01-1.76-14.08-.17-34.67,4.16-53.76,2.96-13.06,9.93-36.97,23.28-50.41,6.24-6.19,13.02-9.32,20.18-9.32.95,0,1.91.06,2.87.17,5.72.78,10.43,3.68,14.12,8.63,6.35,8.53,9.55,23.51,9.5,44.55,0,.41,0,.81,0,1.22,3.07-10.19,6.78-19.85,11.11-26.72,7.22-11.67,21.35-19.86,34.35-19.86,8.99,0,30.37,4.38,34.59,44.98,3.86,39.92-11.78,70.87-27.71,86.53-8.38,8.35-18.05,13.35-25.83,13.35-.18,0-.36,0-.54,0Z"/>
          <path class="cls-1" d="M378.92,461.37c.73,0,1.46.04,2.2.13,25.41,3.47,18.3,68.14,15.25,87.68-1.22,7.31-2.03,12.06-2.03,12.06-.2,1.46.81,2.74,2.44,3.11.12.01.24.02.36.02,1.47,0,2.72-1.03,3.1-2.21,0-.18.61-4.93,1.83-12.06,3.05-17.17,9.76-48.41,19.31-63.57,6.1-9.86,18.5-17.17,29.48-17.17,15.65,0,26.23,14.43,28.87,39.82,3.66,37.81-10.98,67.04-26.02,81.84-7.37,7.34-15.72,11.7-21.79,11.7-.13,0-.25,0-.37,0-3.86-.18-6.71-1.46-9.15-3.84-6.51-7.12-5.08-20.82-5.08-21.01,0-1.28-.81-2.37-2.03-2.74-.41-.18-.61-.18-1.02-.18-1.02,0-2.03.55-2.64,1.46,0,.18-11.79,19-30.09,23.38-4.17,1.07-8.09,1.58-11.73,1.58-18.71,0-30.24-13.43-32.79-33-3.25-25.94,5.49-78.91,25.82-99.37,5.21-5.16,10.57-7.62,16.1-7.62M378.92,449.86c-8.73,0-16.87,3.69-24.2,10.95-.02.02-.04.04-.06.06-13.65,13.74-21.03,36.51-24.81,53.2-4.47,19.7-6.1,41.05-4.26,55.72,1.61,12.36,6.25,22.84,13.43,30.35,7.94,8.32,18.59,12.72,30.78,12.72,4.64,0,9.52-.65,14.51-1.92,8.36-2.02,16.63-6.6,24.13-13.32,1.24,3.19,2.99,6.29,5.46,9,.15.17.31.33.47.48,4.51,4.39,10.11,6.78,16.63,7.09.07,0,.13,0,.2,0,.24,0,.47.01.72.01,9.4,0,20.3-5.49,29.91-15.05,16.82-16.55,33.41-49.21,29.36-91.1,0-.03,0-.06,0-.08-3.27-31.4-18.34-50.14-40.31-50.14-14.87,0-31,9.28-39.24,22.58-.76,1.21-1.51,2.51-2.23,3.87-1.71-9.95-4.65-17.67-8.86-23.33-4.58-6.15-10.75-9.91-17.84-10.88-.08-.01-.15-.02-.23-.03-1.17-.14-2.36-.21-3.53-.21h0Z"/>
        </g>
        <g>
          <path class="cls-2" d="M515.16,596.82c-17.4,0-30.2-19.08-34.26-51.03-4.14-33.3,3.36-70.97,21.12-74.13,1.35-.26,2.7-.26,3.9-.26,11.75,0,24.63,8.83,36.39,24.42-2.19-11.93-1.47-23.88,5.07-32.05,4.64-5.89,11.75-9.15,21.72-9.95.15-.01.3-.02.46-.02h2.44c20.62,0,38.25,16.84,47.16,45.03,5.35,17.03,6.65,36.15,3.57,52.45-3.56,18.83-12.72,32.46-25.8,38.38-5.49,2.34-10.76,3.5-15.79,3.5-18.49,0-32.18-14.94-40.77-28.42.78,10.56-1.36,19.12-6.39,24.69-4.32,4.63-10.01,6.95-18,7.37-.36.01-.59.02-.82.02Z"/>
          <path class="cls-1" d="M571.99,459.55c18.09,0,33.54,15.28,41.68,41.01,9.96,31.71,5.49,72.73-19.11,83.85-4.68,1.99-9.15,2.99-13.42,2.99-22.57,0-38.83-27.56-45.54-44.5-3.46-8.3-5.49-14.45-5.69-14.61-.5-.96-1.7-1.58-2.9-1.58-.25,0-.51.03-.76.09-1.42.33-2.44,1.66-2.03,2.99.2.17,2.64,6.14,5.69,14.61,6.91,19.43,6.1,34.21-.2,41.18-3.25,3.49-7.72,5.15-14.03,5.48-.17,0-.35,0-.52,0-16.74,0-25.73-23.81-28.55-46-4.07-32.71,3.86-65.59,16.47-67.75.81-.17,1.83-.17,2.85-.17,13.01,0,29.89,14.45,44.12,42.01,7.12,14.11,12.81,25.9,13.01,26.4.45.86,1.57,1.35,2.69,1.35.4,0,.8-.06,1.17-.19,1.42-.5,2.03-1.83,1.63-2.99,0-.17-6.1-11.96-13.01-26.4-7.93-16.27-12.81-38.52-3.66-49.98,3.66-4.65,9.35-7.14,17.69-7.8h2.44M571.99,448.05h-2.44c-.31,0-.61.01-.91.04-11.65.93-20.09,4.9-25.79,12.13-4.08,5.12-6.51,11.7-7.22,19.39-9.71-9.08-19.86-13.95-29.71-13.95-1.38,0-3.08,0-4.95.36-24.14,4.34-29.62,49.62-25.78,80.48,4.46,35.13,19.4,56.09,39.97,56.09.28,0,.57,0,.85-.01.09,0,.18,0,.27-.01,9.43-.5,16.58-3.48,21.84-9.12.04-.04.08-.09.12-.13,3.15-3.48,5.37-7.86,6.66-12.97,9.88,10.94,22.15,18.59,36.24,18.59,5.81,0,11.84-1.32,17.93-3.91.08-.03.15-.07.23-.1,30.73-13.9,37.02-60.63,25.35-97.79-9.71-30.73-29.39-49.07-52.66-49.07h0Z"/>
        </g>
        <g>
          <path class="cls-2" d="M630.41,619.49c-15.78,0-34.22-15.22-34.22-58.11,0-26.79,10.4-62.38,27.14-92.89,17.61-31.98,36.71-50.32,52.41-50.32,31.73,0,61.83,37.99,68.52,86.49,5.04,35.32,1.16,65.93-10.39,81.86-6.08,8.57-14.52,13.13-24.38,13.13-20.48,0-29.35-21.92-32.34-40.9-5.18,16.29-13.71,38.32-24.84,50.3-6.22,6.73-14,10.44-21.9,10.44Z"/>
          <path class="cls-1" d="M675.74,423.93c28.87,0,56.52,35.86,62.82,81.52,4.88,34.18,1.22,63.11-9.35,77.69-5.08,7.17-11.79,10.76-19.72,10.76-27.45,0-27.85-50.2-27.85-50.68,0-1.67-1.02-3.11-2.44-3.35-.17-.02-.33-.04-.49-.04-1.38,0-2.4.92-2.77,2.43-.2.48-10.98,44.7-27.85,62.87-5.08,5.5-11.39,8.61-17.69,8.61-13.21,0-28.46-13.87-28.46-52.35,0-26.06,10.16-60.48,26.43-90.12,16.06-29.16,34.16-47.33,47.37-47.33M680.83,520.03h.41c1.42,0,2.64-1.43,2.85-3.11l4.07-39.68c.2-1.91-1.02-3.59-2.64-3.83-.12-.02-.24-.03-.35-.03-1.47,0-2.71,1.36-2.9,3.13l-4.07,39.44c-.2,1.91,1.02,3.83,2.64,4.06M675.74,412.42c-9.73,0-20.08,5.42-30.76,16.1-9.05,9.06-18.28,21.92-26.69,37.19-17.19,31.32-27.86,67.98-27.86,95.68,0,47.14,21.53,63.86,39.97,63.86,9.52,0,18.81-4.37,26.14-12.3,4.52-4.87,11.96-15,19.78-34.56,8.79,23.33,24.27,27.02,33.17,27.02,11.79,0,21.84-5.38,29.07-15.56,12.56-17.38,16.71-48.73,11.39-86.02-3.31-23.98-12.27-46.47-25.22-63.28-13.98-18.13-31.37-28.12-48.99-28.12h0Z"/>
        </g>
        <g>
          <path class="cls-1" d="M888.36,251.42c-1.15-.29-2.37-.43-3.55-.46-12.35-.35-24.14,2.16-35.02,7.86-28.4,14.91-56.74,29.96-84.96,45.22-20,10.82-39.8,22.02-59.62,33.19-3.63,2.04-6.64,1.4-9.57-.98-1.3-1.05-2.36-2.38-3.55-3.55-3.92-3.84-7.38-8.41-11.9-11.33-5.72-3.7-10.24-8.22-13.9-13.76-4.13-6.31-8.23-12.65-12.09-19.13-5.31-8.89-11.89-16.44-21.02-21.63-2.49-1.4-5.03-3.02-6.9-5.11-1.9-2.14-3.77-4.82-4.35-7.55-.86-4.05-2.72-6.78-6.4-8.43-3.82-1.71-5.75-4.92-6.73-8.79-.65-2.55-1.17-5.14-1.64-7.72-1.33-7.3-4.75-12.88-11.92-15.93-1.47-.62-3-2.88-3.13-4.48-.32-3.79-1.71-6.75-4.66-8.9-2.8-2.03-5.69-3.99-8.74-5.62-6.56-3.49-6.94-3.85-6.15-11.14.42-3.89-.75-6.82-4.28-8.67-5.11-2.68-8.5-6.9-10.75-12.1-3.32-7.68-4.81-15.74-5.33-24.06-.35-5.57,1.34-10.27,5.37-13.88,6.12-5.49,12.23-11.12,18.98-15.79,8.25-5.72,17.17-10.45,25.7-15.74,1.19-.73,2.88-2.55,2.63-3.31-.43-1.31-2.01-2.74-3.43-3.18-10.89-3.46-21.93-5.98-33.53-4.42-20.46,2.74-39.8,9.37-58.97,16.66-4.73,1.8-9.4,3.74-14.25,5.66-1.45-15.77-8.27-25.38-19.26-34.11-7.58-6.02-14.51-12.84-21.93-19.05-5.73-4.8-6.23-10.75-3.66-16.89,2.79-6.69,6.22-13.16,9.92-19.41,2.95-4.98,6.72-9.46,10.42-14.54-1.44-.17-2.23-.38-3.03-.34-22.77,1.28-45.42,3.78-67.04,11.46-9.54,3.38-18.44,8.57-27.9,12.24-10.47,4.08-20.98,5.74-32.54,2.46-16.3-4.64-33.02-8.01-49.71-11.08-26.32-4.82-52.88-7.38-79.69-6.72-43.32,1.08-86.22,6.05-128.92,13.12-1.3.21-2.57.75-4.82,1.42,2.25,2.05,3.59,3.81,5.36,4.8,3.54,1.97,7.22,3.81,11.02,5.17,6.87,2.49,13.9,4.5,20.8,6.87,2.33.8,4.47,2.12,6.71,3.21-.1.37-.2.74-.31,1.1-.64.1-1.3.2-1.98.29-.46.06-.93.11-1.41.16-14.35,1.49-32.79-1.34-46.47-2.21-4.57,4.43-3.08,9.44-1.25,13.83,5.66,13.57,11.29,27.19,17.9,40.31,17.29,34.27,37.17,66.99,60.47,97.58,20.19,26.52,41.77,51.82,65.64,75.11,3.02,2.94,4.39,6.02,4.86,10.24,3.21,28.43,6.66,56.82,10.29,85.2.48,3.82,1.99,7.67,3.76,11.12,2.09,4.07,5.64,3.97,7.94-.06,1.65-2.88,3.19-5.98,3.95-9.19,3.52-14.91,10.82-28.07,18.44-41.1,2.18-3.72,4.57-7.31,6.72-11.03,1.24-2.15,2.59-2.37,4.71-1.24,12.94,6.78,25.87,13.54,38.9,20.17,24.27,12.35,50.14,20.21,76.52,26.44,9.33,2.2,18.78,3.78,28.11,5.96,1.5.34,3.12,2.06,3.84,3.55,7.67,15.85,15,31.85,22.74,47.65,6.87,14,14.59,27.54,25.81,38.67,3.48,3.45,7.26,6.58,11.12,9.61,1.02.8,2.8.62,4.24.89-.12-1.36.09-2.88-.45-4.05-11.08-24.2-13.6-49.91-13.57-76.08,0-2.39.49-4.75.7-7.14.71-7.81,4.72-13.2,12.01-15.96,10.78-4.09,21.69-4.72,33.14-2.48,5.38,1.06,11.29-.59,16.95-1.09,1.05-.1,2.14-.45,3.1-.89,8.15-3.78,15.45-1.29,22.33,3.22,2.3,1.52,3.8,1.2,6.07-.11,6.1-3.51,12.33-6.88,18.75-9.76,4.88-2.17,9.66-1.94,14.66,1.2,2.5,1.57,6.6.89,9.95.72,3.45-.18,6.82-1.24,10.27-1.46,5.18-.33,8.54,2.37,10.39,7.16,1.54,3.95,2.81,4.48,6.87,3.08,1.01-.34,1.98-.85,2.96-1.26,3.55-1.49,6.26-4.11,11.21-2.36,4.17,1.46,9.44-.23,14.21-.47,5.14-.25,10.29-.68,15.42-.6,4.85.09,5.99.99,6.59,5.79,1.11,8.9,2.16,17.84,2.58,26.79,1.29,28.58,2.15,57.18,3.46,85.76.99,21.64,1.84,43.32,7.41,64.45,2.71,10.22,6.11,20.22,12.96,28.56,1.73,2.1,3.78,4.04,6.03,5.57,3.94,2.66,5.38,1.96,5.39-2.76,0-8.14-.24-16.29-.65-24.4-1.74-34.19-4.58-68.34-2.98-102.61,1.26-27.26,9.39-52.07,26.5-73.65,0-.01.03-.03.04-.05l-.08.03s.03-.03.04-.05c1.54-1.95,2.96-4,4.64-5.84,8.99-9.95,18.21-19.7,27.03-29.8,18.27-20.89,39.85-37.56,64.33-50.47,12.71-6.7,25.77-12.72,38.5-19.34,3.34-1.74,6.38-4.27,9.03-6.97,2.84-2.91,1.54-6.24-2.43-7.24ZM195.73,32.9c12.43,5.96,17.68,20.52,11.83,32.76-5.91,12.36-20.45,17.43-32.85,11.46-12.29-5.94-17.52-20.65-11.67-32.82,5.76-11.96,20.65-17.16,32.69-11.39Z"/>
          <path class="cls-3" d="M195.73,32.9c-12.04-5.77-26.92-.57-32.69,11.39-5.85,12.18-.62,26.89,11.67,32.82,12.4,5.98,26.94.9,32.85-11.46,5.85-12.24.59-26.8-11.83-32.76ZM199.48,66.6c-.39.45-.79.88-1.23,1.29-.43.4-.88.79-1.34,1.14-.7.54-1.43,1.03-2.2,1.46-5.13,2.88-11.59,3.32-17.24.56-.84-.41-1.64-.88-2.39-1.4-.5-.35-.97-.73-1.43-1.11-2.07-1.77-3.67-3.96-4.8-6.36-2.23-4.83-2.4-10.57.05-15.55.58-1.16,1.25-2.22,2.03-3.19.33-.42.69-.82,1.05-1.2.39-.42.81-.82,1.27-1.19,1.77-1.51,3.81-2.64,6-3.36,2.27-.75,4.7-1.04,7.13-.85.51.03,1.02.08,1.52.16.35.06.71.12,1.05.21,1.42.31,2.82.78,4.2,1.43,1.18.57,2.28,1.23,3.28,2.01,1.22.91,2.31,1.97,3.25,3.12.37.45.72.92,1.03,1.4v.02c1,1.47,1.75,3.07,2.25,4.72.17.54.31,1.11.42,1.66.18.84.3,1.7.34,2.56,0,0,0,.01,0,.03.05.57.04,1.14.01,1.72h0c-.01.6-.08,1.19-.17,1.77-.26,1.75-.78,3.49-1.6,5.17-.4.83-.87,1.62-1.39,2.36-.35.49-.71.97-1.1,1.42Z"/>
          <path d="M193.14,38.65c9.29,4.47,13.2,15.18,8.83,24.17-4.33,8.9-15.47,12.64-24.51,8.24-8.99-4.39-12.91-15.59-8.56-24.43,4.34-8.81,15.13-12.36,24.23-7.98Z"/>
          <path class="cls-3" d="M258.14,74.89c69.82-31.95,225.34,111.02,225.34,111.02,22.7,20.86,52.19,48.76,86.03,82.97-186.7-117.19-262.05-156.73-289.73-165.03-5.67-1.7-35.19-9.84-32.51-20.01,1.19-4.53,8.34-7.8,10.87-8.95Z"/>
        </g>
        <g>
          <path class="cls-2" d="M498.63,502.46c-12.91,0-24.17-1.85-33.48-5.49-41.47-15.93-60.82-58.51-67.21-76.08v-.04c-.16-.32-.28-.63-.38-.93-.02,0-.04,0-.07,0-.1.03-.2.06-.3.08,2.52,8.38,11.88,45.04-9.43,64.81-7.81,7.02-17.75,10.73-30.45,11.41-1.71.31-3.5.31-4.84.31-14.38,0-26.82-4.8-36.96-14.27-29.19-26.96-32.79-88.51-8.34-143.15,22.87-51.43,108.24-78.35,180.73-78.35,29.53,0,53.87,4.7,68.54,13.22,22.09,12.61,30.84,34.09,22.24,54.7-10.46,26.1-45.35,46.34-95.55,56.24.76,0,1.52,0,2.29,0,60.84,0,98.13,14.43,107.82,41.72,6.36,18.19,1.23,35.3-14.82,49.51-18.53,16.01-49.82,26.33-79.79,26.33ZM411.92,365.11c.13,0,.25,0,.36-.02l7.63-43.37s-.02,0-.04,0c-.16,0-.3.02-.41.04l-7.67,43.35h.13Z"/>
          <path class="cls-1" d="M487.9,266.5c28.9,0,52.03,4.53,65.65,12.44,19.82,11.31,27.25,29.69,19.82,47.51-11.56,28.85-56.57,50.34-120.15,57.13-7.02.57-11.15,1.13-11.15,1.13-3.3.57-5.37,2.55-4.95,4.81.38,2.07,2.83,3.43,5.77,3.43.27,0,.55-.01.83-.04,3.71-.28,7.43-.57,11.15-.85,7.02-.57,17.76-1.41,30.55-1.41,40.46,0,91.25,6.5,102.4,37.9,7.02,20.08-3.3,34.5-13.21,43.27-17.34,14.99-47.07,24.89-75.97,24.89-11.97,0-22.71-1.7-31.38-5.09-44.18-16.97-61.93-67.31-64-72.96-.41-.85-.41-1.41-.41-1.41-.42-1.7-2.89-3.11-5.78-3.11-.41,0-.83,0-1.24.28-3.3.28-5.37,2.55-4.54,4.81v1.13c1.65,4.24,12.39,41.86-7.43,60.24-6.61,5.94-15.28,9.33-27.25,9.9-1.24.28-2.89.28-4.13.28-12.8,0-23.95-4.24-33.03-12.73-27.25-25.17-30.55-83.99-7.02-136.6,21.88-49.21,104.88-74.94,175.48-74.94M411.1,370.86h.83c2.89,0,5.37-1.41,5.78-3.39l8.26-46.95c.41-2.26-2.07-4.24-5.37-4.52-.24-.02-.48-.03-.72-.03-2.99,0-5.5,1.61-5.89,3.71l-8.26,46.66c-.41,2.26,2.07,4.24,5.37,4.52M487.9,255c-38.27,0-77.4,7.03-110.19,19.8-38.18,14.87-64.39,36.3-75.81,61.97-12.07,26.99-17.94,56.78-16.51,83.87,1.49,28.22,10.81,51.61,26.24,65.86,11.2,10.46,24.95,15.78,40.84,15.78,1.4,0,3.4,0,5.49-.34,13.91-.79,24.9-4.98,33.59-12.79.04-.04.09-.08.13-.12,9.19-8.52,14.42-20.95,15.35-36.24,1.18,1.92,2.3,3.65,3.33,5.18,14.46,21.55,32.21,36.48,52.75,44.38,9.96,3.89,21.92,5.87,35.53,5.87,31.26,0,64.04-10.87,83.5-27.69.03-.03.07-.06.1-.09,17.69-15.65,23.53-35.43,16.45-55.68-3.46-9.73-9.89-18.02-19.14-24.7-7.61-5.49-17.27-9.96-28.72-13.28-9.05-2.62-19.33-4.58-30.73-5.85,6.27-2.21,12.18-4.63,17.66-7.24,23.49-11.18,39.48-26.01,46.27-42.88,9.73-23.42.03-47.69-24.73-61.84-15.76-9.14-40.45-13.98-71.39-13.98h0Z"/>
        </g>
        <g>
          <path class="cls-2" d="M662.8,454.53c-6.42-.28-11.62-2.32-15.97-6.23-.08-.08-.16-.15-.24-.23-6.95-7.03-8.48-17.57-8.65-24.57-.04.04-.07.09-.11.14-1.8,2.22-4.76,5.63-8.68,9.27-6.92,6.44-18.09,14.77-32.08,17.86-5.83,1.38-11.58,2.1-16.99,2.1-26.67,0-45.72-17.58-49.71-45.88-4.53-33.39,7.7-101.55,36.43-128.28,7.97-7.3,16.54-10.99,25.52-10.99,1.18,0,2.38.06,3.57.19,7.45.94,13.58,4.65,18.33,11.03,7.9,10.63,11.83,28.92,11.68,54.36-.03,5.47-.25,10.88-.58,16.01,4.78-17.64,11.21-36.11,19.23-47.88,9.22-13.78,27.87-23.81,44.32-23.81,11.52,0,38.92,5.31,44.46,54.5,5.15,49.15-15.62,87.18-36.77,106.41-10.88,10.01-23.27,16-33.11,16-.22,0-.44,0-.66,0Z"/>
          <path class="cls-1" d="M592.33,273.47c.98,0,1.97.05,2.95.16,34.11,4.3,24.56,84.51,20.46,108.76-1.64,9.06-2.73,14.95-2.73,14.95-.27,1.81,1.09,3.4,3.27,3.85.16.02.32.02.48.02,1.98,0,3.65-1.27,4.16-2.74,0-.23.82-6.12,2.45-14.95,4.09-21.3,13.1-60.04,25.92-78.85,8.19-12.24,24.83-21.3,39.57-21.3,21.01,0,35.2,17.9,38.75,49.39,4.91,46.9-14.73,83.15-34.93,101.51-9.89,9.1-21.1,14.51-29.25,14.51-.17,0-.33,0-.5,0-5.18-.23-9-1.81-12.28-4.76-8.73-8.84-6.82-25.83-6.82-26.06,0-1.59-1.09-2.95-2.73-3.4-.55-.23-.82-.23-1.36-.23-1.36,0-2.73.68-3.55,1.81,0,.23-15.83,23.56-40.38,29-5.6,1.33-10.86,1.96-15.75,1.96-25.12,0-40.58-16.65-44.01-40.93-4.36-32.17,7.37-97.88,34.65-123.26,6.99-6.4,14.19-9.45,21.6-9.45M592.33,261.97c-10.46,0-20.35,4.2-29.38,12.47-.02.02-.04.04-.06.06-30.51,28.38-43.02,97.86-38.22,133.23,4.43,31.42,25.66,50.89,55.41,50.89,5.83,0,12-.76,18.32-2.25,12.04-2.69,24.03-9.34,34.67-19.25.29-.27.57-.54.85-.8,1.46,5.53,4.05,11.22,8.57,15.79.16.16.32.32.49.47,5.38,4.84,11.75,7.36,19.47,7.7.06,0,.12,0,.18,0,.27,0,.54.01.82.01,11.25,0,25.1-6.56,37.04-17.55,22.14-20.12,43.94-59.93,38.58-111.17,0-.03,0-.06,0-.09-4.2-37.33-22.96-59.61-50.18-59.61-18.51,0-38.69,10.84-49.1,26.36-3.19,4.69-6.13,10.36-8.83,16.57-1.39-15.25-4.89-29.58-12.11-39.29-5.63-7.58-13.28-12.18-22.12-13.3-.07,0-.14-.02-.21-.03-1.39-.15-2.8-.22-4.18-.22h0Z"/>
        </g>
      </g>
    </g>
  </g>
</svg>