<?xml version="1.0" encoding="UTF-8"?>
<svg id="Layer_2" data-name="Layer 2" xmlns="http://www.w3.org/2000/svg" viewBox="0 0 771.97 379.97">
  <defs>
    <style>
      .cls-1 {
        fill: #231f20;
      }

      .cls-2 {
        fill: #e05b34;
      }
    </style>
  </defs>
  <g id="Layer_1-2" data-name="Layer 1">
    <g>
      <rect class="cls-1" x="508.97" y="102.52" width="35.25" height="55.03"/>
      <rect class="cls-1" x="567" y="178.77" width="114.48" height="65.88"/>
      <rect class="cls-1" x="360.41" y="173.87" width="91.46" height="80.6"/>
      <rect class="cls-1" x="117.04" y="271.27" width="91.46" height="59.72"/>
      <g>
        <g>
          <path class="cls-2" d="M105.53,228.91c-23.49,0-43.84-4.6-57.28-12.96-10.41-6.47-16.56-15.31-17.8-25.55-1.48-12.29,4.29-26.25,15.87-38.46-.14-.06-.29-.12-.43-.19-5.58-2.69-11.08-6.17-16.36-10.33-.04-.03-.09-.07-.13-.11C-3.56,113.77,1.77,70.5,23.52,43.78c13.87-16.51,32.99-26.07,52.49-26.31h.8c19.27,0,34.07,5.67,43.99,16.85,11.64,13.12,14.52,31.3,14.49,47.67,1.56-8.24,3.84-17.07,7.31-25.35,9.88-23.62,26.85-36.1,49.09-36.1h2.54c.13,0,.25,0,.37.01,8.46.54,14.8,2.94,19.36,7.35,22.82,22.77-13.72,84.31-25.85,103.2,5.4,0,18.76.76,27.83,7.54,7.4,5.63,14.61,16.78,7.13,38.06-5.5,15.78-21.36,29.28-45.88,39.01-21.12,8.39-47.24,13.2-71.66,13.2ZM139.65,149.63c.43.55.76,1.19.97,1.89,3.39,11.13,1.3,23.27-.22,29.82l16.65-37.14c-.12.05-.24.1-.37.16-2.44,1.04-6.98,2.98-13.15,5.22-.66.24-1.34.35-2.01.35s-1.27-.1-1.87-.3Z"/>
          <path class="cls-1" d="M76.81,23.38c63.98,0,52.71,65.81,50.17,88.41,0,1.75,2.18,3.07,5.09,3.29,2.91,0,5.09-1.1,5.45-2.85,1.82-17.99,4.36-85.77,54.17-85.77h2.54c6.91.44,12,2.19,15.63,5.7,18.9,18.87-15.27,78.97-29.81,100.47-.73,1.1-.73,2.19.37,3.07,1.26.76,2.8,1.36,4.37,1.36.24,0,.48-.01.72-.04h2.54c4.73,0,16.72.66,24.36,6.36,8.36,6.36,10.18,16.89,5.09,31.37-10.54,30.27-65.44,48.26-111.97,48.26-22.54,0-41.81-4.39-54.17-12.07-23.63-14.7-16.72-38.61,0-55.72,10.54,3.51,22.54,5.26,35.26,5.26,18.18,0,35.26-3.51,48.35-7.24,3.27,10.75.73,22.81-1.09,29.83-.37,2.19-.73,3.95-.73,5.05-.36,1.76,1.82,3.07,4.36,3.29.26.02.52.03.78.03,2.27,0,4.39-.85,5.04-2.23l21.45-47.82c.36-1.32-.36-2.63-2.18-3.51-1.01-.31-2.02-.47-3-.47-1.13,0-2.21.22-3.18.69-.36,0-5.82,2.63-14.91,5.92-6.18-8.99-17.09-14.7-32.35-16.89-2.91-.44-5.82-.66-9.09-.66-17.81,0-36.72,7.46-51.62,19.96-5.45-2.63-10.54-5.92-15.27-9.65C3.01,111.56,8.1,72.08,28.1,47.51c12.72-15.14,30.17-23.91,47.99-24.13h.73M100.48,132.86c2.09,0,4.14.14,6.14.42,12.36,1.76,20.72,6.36,25.45,13.82-12,3.29-28.36,7.02-45.44,7.02-10.91,0-20.72-1.32-29.45-4.17,13-10.71,29.04-17.09,43.3-17.09M76.81,11.57h-.73s-.1,0-.14,0c-21.23.26-41.96,10.59-56.88,28.34-.04.05-.08.1-.12.14-23.53,28.91-29.19,75.82,6.67,105.8.09.07.17.14.26.21,3.62,2.86,7.35,5.42,11.14,7.64-9.4,12.06-13.88,25.34-12.43,37.41,1.02,8.42,5.41,20.44,20.54,29.85,14.37,8.93,35.82,13.85,60.4,13.85s52.05-4.96,73.84-13.61c26.16-10.39,43.2-25.11,49.28-42.58,9.11-25.9-1.79-39.1-9.09-44.65-.03-.02-.06-.04-.08-.06-6.43-4.8-14.37-7.02-21.2-7.99,7.02-11.74,14.61-26.13,20.2-40.15,4.84-12.15,7.71-22.9,8.52-31.93,1.16-12.96-1.79-23.07-8.78-30.05-.05-.05-.09-.09-.14-.14-5.62-5.42-13.17-8.36-23.09-8.99-.25-.02-.5-.02-.75-.02h-2.54c-17.12,0-40.33,6.75-54.12,38.75-2.43-8.27-6.33-16.18-12.35-22.98-11.09-12.5-27.37-18.84-48.41-18.84h0Z"/>
        </g>
        <g>
          <path class="cls-2" d="M117.5,361.86c-22.41,0-40.88-4.99-49.4-13.34-17.25-16.43-10-44.29,3.63-66.93-6.4,1.08-12.2,1.61-17.6,1.61-9.3,0-16.17-1.63-21.6-5.13-13.64-8.9-13.55-26.96-11.42-45.16,3.18-25.9,59.98-28.89,102.42-28.89,24.95,0,48.78,1.3,64.38,2.38,18.38,1.46,30.75,7.03,36.85,16.54,5.2,7.84,5.88,17.99,1.86,28.49-3.41,8.91-10,17.47-18.09,23.5-8.46,6.33-20.31,9.55-35.21,9.55-5.91,0-14.91-.54-26.19-2.88,9.53,11.17,19.47,25.66,28.61,41.76,5.12,9.51,3.41,18.34-4.72,24.97-9.85,8.2-30.88,13.53-53.52,13.53Z"/>
          <path class="cls-1" d="M123.54,209.93c24.44,0,48.28,1.27,63.97,2.37,15.99,1.27,27.16,5.83,32.29,13.84,9.05,13.66-.6,33.5-14.78,44.06-7.54,5.64-18.41,8.38-31.68,8.38-16.6,0-31.68-4.37-31.98-4.37-.68-.2-1.4-.31-2.1-.31-1.17,0-2.27.28-3.03.85-1.51.91-1.51,2.18-.3,3.28,0,.18,15.69,14.75,34.7,48.25,3.62,6.74,2.72,12.56-3.32,17.48-8.75,7.28-28.36,12.2-49.79,12.2s-38.02-4.55-45.26-11.65c-22.93-21.85,8.15-65.18,8.45-65.73.6-.91.3-2-.9-2.73-.6-.55-1.81-.91-3.02-.91h-1.51c-8.15,1.64-15.09,2.37-21.12,2.37-7.84,0-13.88-1.27-18.41-4.19-11.16-7.28-10.56-24.03-8.75-39.51,2.41-19.66,53.71-23.67,96.55-23.67M123.54,198.12c-27.01,0-49.09,1.57-65.61,4.66-9.89,1.85-39.98,7.48-42.66,29.38-1.48,12.62-4.54,38.74,14.02,50.84.02.01.04.03.06.04,6.34,4.08,14.45,6.07,24.8,6.07,2.27,0,4.59-.09,6.99-.26-1.86,3.84-3.65,8.06-5.16,12.52-9.23,27.28-.73,43.02,8.06,51.43,9.62,9.38,29.6,14.97,53.47,14.97s46.21-5.7,57.29-14.89c10.23-8.36,12.56-20.39,6.22-32.19-.04-.08-.09-.16-.13-.24-6.33-11.16-13.07-21.58-19.8-30.72,4.88.5,9,.65,12.24.65,16.2,0,29.24-3.61,38.76-10.73,18.84-14.03,30.57-40.29,17.6-59.97-7.16-11.11-21.03-17.55-41.24-19.16-.04,0-.08,0-.12,0-15.7-1.09-39.68-2.4-64.79-2.4h0Z"/>
        </g>
        <g>
          <path class="cls-2" d="M237.81,217.7c-10.49,0-21.42-2.64-32.48-7.85-30.35-14.55-40.58-42.62-28.84-79.07,16.61-52.83,74.13-108.99,113.96-111.26.11,0,.22,0,.33,0h1.21c8.77,0,38.16,2.75,48.36,38.11,9.13,33.4-9.3,98.24-47.59,135.15-17.1,16.53-35.59,24.92-54.96,24.92Z"/>
          <path class="cls-1" d="M292,25.42c7.57,0,33.6,2.35,42.68,33.84,8.48,31.02-9.69,94.25-46.01,129.27-16.04,15.51-33,23.27-50.86,23.27-9.99,0-19.98-2.59-29.97-7.29-34.81-16.69-33.3-48.42-25.73-71.92,15.74-50.06,71.44-105.06,108.68-107.17h1.21M257.19,147.87h.61c2.12,0,4.24-1.18,4.54-3.06l5.75-38.78c.3-1.88-1.51-3.76-3.94-3.99-.18-.02-.35-.03-.53-.03-2.19,0-4.03,1.34-4.32,3.08l-5.75,39.01c-.3,1.88,1.21,3.53,3.63,3.76M292,13.61h-1.21c-.22,0-.45,0-.67.02-20.57,1.17-46.09,15.38-70.02,38.99-23.22,22.91-41.17,50.75-49.24,76.4-5.28,16.41-6.38,31.48-3.27,44.78,4.22,18.06,16.38,32.37,35.15,41.37.03.01.05.02.08.04,11.86,5.58,23.64,8.41,35,8.41,20.95,0,40.82-8.95,59.07-26.59,39.72-38.29,58.74-105.96,49.2-140.87-.02-.05-.03-.11-.04-.16-9.01-31.25-33.82-42.38-54.03-42.38h0Z"/>
        </g>
        <g>
          <path class="cls-2" d="M254.03,364.58c-23.75,0-45.15-3.6-60.27-10.14-12.82-5.47-20.64-12.76-23.23-21.66-2.27-7.82-.33-16.3,5.78-25.2,4.53-6.65,10.49-12.33,17.8-17-4.13.37-8.55.6-13,.6-10.4,0-19.27-1.22-26.36-3.64-13.17-4.64-20.79-13.89-22.1-26.76-1.92-19.86,14.2-34.24,28.06-42.82,15.31-9.47,37.15-17.71,61.49-23.21,20.63-4.71,41.5-7.21,60.33-7.21,14.93,0,35.36,1.61,47.88,9.3,11.68,6.96,15.21,15.02,16.11,20.54.87,5.37.15,13.82-8.24,23.62-2.22,2.81-5.04,5.57-8.32,8.15,31.38,3.07,51.18,13.14,57.28,29.14,3.13,8.21,2.49,17.54-1.86,26.98-8.9,19.31-32.7,37.83-62.11,48.33-19.67,7.07-44.26,10.97-69.21,10.97ZM208.99,260.78c4.27-1.83,9.94-3.91,17.19-5.89.51-.14,1.04-.21,1.56-.21.43,0,.86.05,1.28.14-.14-.34-.24-.69-.31-1.05-1.1-5.51.38-11.29,2.58-16.3l-22.3,23.32Z"/>
          <path class="cls-1" d="M282.5,193.46c19.54,0,35.67,2.83,44.8,8.42,15.64,9.33,17.78,22.16,6.4,35.38-3.2,4.08-7.82,7.97-13.16,11.27-10.62-.76-20.47-1.1-29.58-1.1-23.51,0-42.11,2.24-56.46,5.18-1.78-8.94,6.04-20.6,9.96-25.07,1.07-1.56,0-3.11-2.49-3.89-.75-.17-1.53-.26-2.29-.26-1.78,0-3.47.48-4.47,1.43l-40.89,42.76c-1.42,1.17-.36,2.92,1.78,3.69.82.3,1.64.45,2.49.45,1.34,0,2.74-.4,4.27-1.23.36-.19,7.82-5.25,24.89-9.91.36.39.71.78,1.07,1.17,6.04,5.44,16.71,8.36,31.64,8.75.97.03,1.94.04,2.91.04,21.54,0,44.08-6.12,61.09-15.98,1.42.19,2.85.19,3.91.39,29.51,2.72,48,11.47,53.33,25.46,8.53,22.35-18.49,52.68-60.44,67.64-19.68,7.07-44.04,10.62-67.22,10.62s-43.03-3.21-57.93-9.65c-14.58-6.22-28.8-17.88-14.93-38.1,7.82-11.47,19.91-19.05,34.13-23.71l4.62-1.36c16.07-4.66,33.91-6.1,49.7-6.1,23.7,0,42.81,3.22,44.52,3.57.49.07.98.1,1.45.1,2.3,0,4.36-.75,4.94-2.04,1.07-1.56-.35-3.11-3.2-3.5-.42-.11-20.82-3.34-46.77-3.34-18.52,0-39.87,1.64-58.82,7.23-4.38,1.32-17.11,3.52-30.65,3.52-8.45,0-17.22-.86-24.46-3.32-11.02-3.89-17.07-11.27-18.13-21.77-2.84-29.35,41.96-49.95,84.97-59.67,20.66-4.72,41.25-7.06,59.03-7.06M291.64,253.04c6.2,0,12.75.17,19.66.54-14.31,7.08-31.88,11.3-48.33,11.3-.72,0-1.44,0-2.15-.02-11.38-.19-18.84-2.14-22.76-6.03-.36-.19-.71-.39-.71-.58,13.42-2.9,31.46-5.21,54.3-5.21M282.5,181.65c-19.27,0-40.59,2.55-61.66,7.36-17.64,3.98-42.95,11.38-63.27,23.94-27.7,17.13-32.05,35.77-30.83,48.38,1.54,15.14,10.76,26.41,25.96,31.77.04.01.08.03.12.04,6.78,2.31,14.95,3.61,24.33,3.89-2.1,2.28-4.02,4.69-5.75,7.23-7.14,10.41-9.35,20.56-6.56,30.16,3.11,10.68,12.06,19.24,26.61,25.45,15.79,6.83,38.03,10.6,62.57,10.6s50.9-4.02,71.21-11.32c31.3-11.17,55.78-30.39,65.47-51.41,5.03-10.92,5.73-21.84,2.02-31.56-6.17-16.19-22.97-26.69-50.02-31.3.04-.05.07-.09.11-.14,9.79-11.48,10.58-21.73,9.5-28.32-1.1-6.75-5.27-16.51-18.92-24.67-13.7-8.37-35.24-10.13-50.9-10.13h0Z"/>
        </g>
        <g>
          <path class="cls-2" d="M442.69,362.74c-5.39-.25-9.71-2.09-13.33-5.61-.08-.08-.16-.16-.24-.25-4.44-4.86-6.1-11.62-6.65-17.16-2.13,2.51-4.07,4.48-4.25,4.66-7.78,7.84-16.53,13.1-25.3,15.2-4.58,1.18-9.12,1.78-13.41,1.78h0c-21.23,0-36.37-14.95-39.5-39.01-1.81-14.45-.17-35.58,4.27-55.17,3.04-13.4,10.19-37.94,23.89-51.74,6.41-6.35,13.36-9.56,20.71-9.56.97,0,1.96.06,2.94.17,5.87.8,10.71,3.77,14.49,8.85,6.52,8.75,9.8,24.13,9.75,45.72,0,.42,0,.83,0,1.25,3.15-10.46,6.96-20.37,11.4-27.42,7.41-11.98,21.91-20.38,35.25-20.38,9.23,0,31.16,4.5,35.5,46.16,3.96,40.97-12.09,72.73-28.44,88.8-8.6,8.57-18.52,13.7-26.5,13.7-.19,0-.37,0-.56,0Z"/>
          <path class="cls-1" d="M388.87,211.79c.75,0,1.5.04,2.26.13,26.08,3.56,18.78,69.92,15.65,89.98-1.25,7.5-2.09,12.37-2.09,12.37-.21,1.5.83,2.81,2.5,3.19.12.01.25.02.37.02,1.51,0,2.79-1.05,3.18-2.27,0-.19.62-5.06,1.88-12.37,3.13-17.62,10.02-49.68,19.82-65.24,6.26-10.12,18.99-17.62,30.25-17.62,16.06,0,26.91,14.81,29.63,40.87,3.76,38.81-11.27,68.8-26.71,83.98-7.56,7.53-16.13,12-22.36,12-.13,0-.25,0-.38,0-3.96-.19-6.88-1.5-9.39-3.94-6.68-7.31-5.22-21.37-5.22-21.56,0-1.31-.83-2.44-2.09-2.81-.42-.19-.63-.19-1.04-.19-1.04,0-2.09.56-2.71,1.5,0,.19-12.1,19.5-30.88,24-4.28,1.1-8.3,1.62-12.04,1.62-19.21,0-31.03-13.78-33.65-33.87-3.34-26.62,5.63-80.98,26.5-101.98,5.34-5.3,10.85-7.82,16.52-7.82M388.87,199.98c-8.96,0-17.31,3.78-24.83,11.24-.02.02-.04.04-.06.06-14.01,14.1-21.58,37.47-25.46,54.59-4.59,20.21-6.26,42.12-4.37,57.18,1.65,12.68,6.42,23.44,13.78,31.15,8.15,8.54,19.08,13.06,31.59,13.06,4.76,0,9.77-.66,14.89-1.97,8.58-2.07,17.06-6.77,24.76-13.67,1.27,3.27,3.07,6.45,5.6,9.23.16.17.32.34.48.5,4.63,4.51,10.37,6.96,17.07,7.27.07,0,.13,0,.2,0,.24,0,.49.01.74.01,9.65,0,20.84-5.63,30.7-15.44,17.27-16.98,34.29-50.5,30.13-93.49,0-.03,0-.06,0-.08-3.35-32.22-18.82-51.45-41.37-51.45-15.26,0-31.81,9.53-40.27,23.18-.78,1.25-1.55,2.57-2.29,3.97-1.75-10.21-4.77-18.13-9.09-23.94-4.7-6.31-11.03-10.17-18.31-11.16-.08-.01-.16-.02-.24-.03-1.2-.14-2.42-.21-3.62-.21h0Z"/>
        </g>
        <g>
          <path class="cls-2" d="M528.68,350.8c-17.85,0-31-19.58-35.16-52.37-4.25-34.17,3.45-72.84,21.67-76.07,1.39-.27,2.78-.27,4-.27,12.06,0,25.28,9.06,37.34,25.06-2.25-12.24-1.51-24.5,5.2-32.9,4.76-6.04,12.06-9.39,22.3-10.21.16-.01.31-.02.47-.02h2.5c21.16,0,39.26,17.28,48.4,46.22,5.49,17.48,6.83,37.1,3.67,53.83-3.65,19.33-13.05,33.32-26.48,39.39-5.63,2.4-11.04,3.59-16.2,3.59-18.98,0-33.03-15.34-41.84-29.16.8,10.83-1.39,19.62-6.56,25.34-4.43,4.75-10.28,7.13-18.47,7.56-.37.01-.61.02-.84.02Z"/>
          <path class="cls-1" d="M587.01,209.93c18.57,0,34.43,15.68,42.77,42.09,10.22,32.55,5.63,74.64-19.61,86.05-4.8,2.04-9.39,3.07-13.77,3.07-23.16,0-39.85-28.29-46.74-45.67-3.55-8.52-5.63-14.83-5.84-15-.52-.99-1.74-1.62-2.98-1.62-.26,0-.52.03-.78.09-1.46.34-2.5,1.7-2.09,3.07.21.17,2.71,6.3,5.84,15,7.09,19.94,6.26,35.1-.21,42.26-3.34,3.58-7.93,5.28-14.4,5.62-.18,0-.36,0-.53,0-17.18,0-26.41-24.44-29.3-47.21-4.17-33.57,3.96-67.31,16.9-69.52.83-.17,1.88-.17,2.92-.17,13.35,0,30.67,14.83,45.27,43.11,7.3,14.48,13.14,26.58,13.35,27.09.46.88,1.61,1.39,2.76,1.39.41,0,.82-.06,1.2-.2,1.46-.51,2.09-1.87,1.67-3.07,0-.17-6.26-12.27-13.35-27.09-8.14-16.7-13.14-39.53-3.76-51.29,3.76-4.77,9.6-7.33,18.15-8.01h2.5M587.01,198.12h-2.5c-.31,0-.63.01-.94.04-11.95.95-20.61,5.02-26.47,12.45-4.18,5.26-6.68,12.01-7.41,19.9-9.97-9.32-20.39-14.32-30.49-14.32-1.41,0-3.16,0-5.08.37-24.78,4.45-30.4,50.93-26.46,82.59,4.58,36.06,19.91,57.56,41.02,57.56.29,0,.59,0,.88-.01.09,0,.19,0,.28-.01,9.68-.51,17.01-3.57,22.41-9.36.04-.04.08-.09.12-.14,3.23-3.58,5.51-8.07,6.84-13.31,10.14,11.23,22.73,19.08,37.19,19.08,5.96,0,12.15-1.35,18.4-4.01.08-.03.16-.07.24-.1,31.53-14.26,37.99-62.22,26.01-100.35-9.97-31.54-30.17-50.36-54.04-50.36h0Z"/>
        </g>
        <g>
          <path class="cls-2" d="M646.96,374.07c-16.2,0-35.11-15.62-35.11-59.63,0-27.49,10.67-64.02,27.85-95.33,18.07-32.82,37.68-51.64,53.79-51.64,32.56,0,63.45,38.99,70.32,88.76,5.17,36.24,1.19,67.66-10.67,84.01-6.24,8.8-14.9,13.48-25.02,13.48-21.02,0-30.12-22.49-33.19-41.98-5.31,16.72-14.07,39.33-25.49,51.62-6.38,6.91-14.37,10.72-22.48,10.72Z"/>
          <path class="cls-1" d="M693.48,173.37c29.63,0,58,36.8,64.47,83.66,5.01,35.08,1.25,64.77-9.6,79.73-5.22,7.36-12.1,11.04-20.24,11.04-28.17,0-28.58-51.52-28.58-52.01,0-1.72-1.04-3.19-2.5-3.43-.17-.03-.34-.04-.5-.04-1.42,0-2.46.95-2.84,2.49-.21.49-11.27,45.88-28.58,64.52-5.22,5.64-11.68,8.83-18.15,8.83-13.56,0-29.21-14.23-29.21-53.73,0-26.74,10.43-62.07,27.12-92.49,16.48-29.93,35.05-48.58,48.61-48.58M698.7,271.99h.42c1.46,0,2.71-1.47,2.92-3.19l4.17-40.73c.21-1.96-1.04-3.68-2.71-3.93-.12-.02-.24-.03-.36-.03-1.51,0-2.78,1.4-2.97,3.22l-4.17,40.48c-.21,1.96,1.04,3.93,2.71,4.17M693.48,161.56c-9.99,0-20.61,5.56-31.56,16.53-9.29,9.3-18.76,22.49-27.39,38.16-17.64,32.14-28.59,69.76-28.59,98.19,0,48.37,22.1,65.54,41.02,65.54,9.77,0,19.3-4.48,26.82-12.63,4.64-5,12.27-15.39,20.3-35.46,9.02,23.94,24.91,27.73,34.04,27.73,12.1,0,22.41-5.52,29.84-15.97,12.89-17.83,17.15-50.01,11.69-88.28-3.4-24.61-12.59-47.69-25.89-64.94-14.34-18.61-32.2-28.86-50.27-28.86h0Z"/>
        </g>
        <g>
          <path class="cls-2" d="M511.72,253.97c-13.25,0-24.81-1.89-34.36-5.63-42.56-16.35-62.42-60.05-68.97-78.08v-.04c-.16-.33-.29-.65-.39-.95-.02,0-.04,0-.07-.01-.1.03-.21.06-.31.09,2.59,8.6,12.19,46.23-9.68,66.51-8.01,7.2-18.22,11.01-31.25,11.7-1.75.32-3.59.32-4.97.32-14.76,0-27.52-4.93-37.93-14.65-29.96-27.67-33.65-90.84-8.56-146.91C338.7,33.53,426.3,5.9,500.71,5.9c30.3,0,55.28,4.82,70.34,13.57,22.67,12.94,31.65,34.99,22.82,56.14-10.73,26.79-46.54,47.56-98.06,57.71.78,0,1.56,0,2.35,0,62.44,0,100.7,14.81,110.65,42.82,6.52,18.67,1.26,36.23-15.21,50.81-19.01,16.43-51.13,27.02-81.88,27.02ZM422.74,113c.14,0,.26,0,.37-.02l7.83-44.5s-.02,0-.04,0c-.16,0-.3.02-.42.04l-7.87,44.49h.14Z"/>
          <path class="cls-1" d="M500.71,11.81c29.66,0,53.39,4.64,67.37,12.77,20.34,11.61,27.97,30.47,20.34,48.76-11.86,29.6-58.05,51.66-123.31,58.63-7.2.58-11.44,1.16-11.44,1.16-3.39.58-5.51,2.61-5.08,4.93.39,2.12,2.9,3.52,5.93,3.52.28,0,.57-.01.86-.04,3.81-.29,7.63-.58,11.44-.87,7.2-.58,18.22-1.45,31.36-1.45,41.53,0,93.65,6.68,105.09,38.89,7.2,20.61-3.39,35.41-13.56,44.41-17.8,15.38-48.31,25.54-77.97,25.54-12.29,0-23.3-1.74-32.2-5.22-45.34-17.41-63.56-69.08-65.68-74.88-.42-.87-.42-1.45-.42-1.45-.43-1.74-2.97-3.19-5.93-3.19-.42,0-.85,0-1.27.29-3.39.29-5.51,2.61-4.66,4.93v1.16c1.69,4.35,12.71,42.95-7.63,61.82-6.78,6.09-15.68,9.58-27.97,10.16-1.27.29-2.97.29-4.24.29-13.14,0-24.58-4.35-33.9-13.06-27.97-25.83-31.36-86.2-7.2-140.18,22.46-50.5,107.63-76.91,180.09-76.91M421.89,118.91h.85c2.97,0,5.51-1.45,5.93-3.48l8.47-48.18c.42-2.32-2.12-4.35-5.51-4.64-.25-.02-.5-.03-.74-.03-3.07,0-5.65,1.65-6.04,3.8l-8.47,47.89c-.42,2.32,2.12,4.35,5.51,4.64M500.71,0c-39.28,0-79.43,7.22-113.08,20.32-39.18,15.26-66.08,37.25-77.8,63.6-12.39,27.7-18.41,58.27-16.95,86.07,1.53,28.96,11.09,52.96,26.93,67.59,11.49,10.73,25.61,16.19,41.91,16.19,1.44,0,3.49,0,5.63-.35,14.27-.82,25.55-5.11,34.47-13.13.05-.04.09-.08.14-.12,9.43-8.75,14.8-21.5,15.75-37.19,1.21,1.97,2.36,3.74,3.42,5.32,14.84,22.12,33.06,37.44,54.14,45.55,10.23,3.99,22.5,6.02,36.47,6.02,32.08,0,65.72-11.15,85.69-28.42.03-.03.07-.06.1-.09,18.15-16.06,24.15-36.36,16.88-57.15-3.55-9.99-10.15-18.49-19.64-25.35-7.81-5.63-17.72-10.22-29.48-13.63-9.29-2.69-19.83-4.7-31.54-6.01,6.44-2.27,12.49-4.75,18.12-7.43,24.1-11.47,40.52-26.69,47.49-44,9.98-24.04.03-48.94-25.38-63.46-16.18-9.38-41.51-14.34-73.26-14.34h0Z"/>
        </g>
        <g>
          <path class="cls-2" d="M680.2,204.77c-6.59-.29-11.92-2.38-16.39-6.4-.09-.08-.17-.16-.25-.24-7.13-7.21-8.71-18.03-8.87-25.21-.04.05-.08.09-.11.14-1.85,2.28-4.89,5.78-8.9,9.52-7.1,6.61-18.57,15.15-32.92,18.33-5.99,1.42-11.88,2.15-17.44,2.15-27.37,0-46.92-18.04-51.02-47.09-4.65-34.26,7.9-104.22,37.39-131.64,8.18-7.49,16.98-11.28,26.19-11.28,1.21,0,2.44.07,3.66.2,7.65.96,13.94,4.77,18.81,11.32,8.11,10.91,12.14,29.68,11.99,55.78-.03,5.61-.26,11.16-.6,16.43,4.91-18.1,11.5-37.06,19.74-49.13,9.46-14.14,28.6-24.44,45.48-24.44,11.83,0,39.95,5.45,45.63,55.93,5.28,50.44-16.03,89.47-37.74,109.2-11.16,10.27-23.88,16.42-33.98,16.42-.23,0-.45,0-.68,0Z"/>
          <path class="cls-1" d="M607.88,18.96c1.01,0,2.02.05,3.03.16,35,4.42,25.2,86.73,21,111.61-1.68,9.3-2.8,15.35-2.8,15.35-.28,1.86,1.12,3.49,3.36,3.95.17.02.33.03.49.03,2.03,0,3.75-1.31,4.27-2.82,0-.23.84-6.28,2.52-15.35,4.2-21.86,13.44-61.62,26.6-80.92,8.4-12.56,25.48-21.86,40.6-21.86,21.56,0,36.12,18.37,39.76,50.69,5.04,48.13-15.12,85.34-35.84,104.17-10.15,9.34-21.65,14.89-30.01,14.89-.17,0-.34,0-.51,0-5.32-.23-9.24-1.86-12.6-4.88-8.96-9.07-7-26.51-7-26.74,0-1.63-1.12-3.02-2.8-3.49-.56-.23-.84-.23-1.4-.23-1.4,0-2.8.7-3.64,1.86,0,.23-16.24,24.18-41.44,29.76-5.75,1.36-11.14,2.01-16.16,2.01-25.78,0-41.65-17.09-45.17-42.01-4.48-33.02,7.56-100.45,35.56-126.49,7.17-6.57,14.56-9.7,22.17-9.7M607.88,7.15c-10.74,0-20.88,4.31-30.15,12.8-.02.02-.04.04-.06.06-31.32,29.12-44.15,100.43-39.22,136.73,4.55,32.24,26.34,52.23,56.87,52.23,5.99,0,12.31-.78,18.8-2.31,12.36-2.76,24.66-9.59,35.58-19.75.3-.28.59-.55.87-.82,1.5,5.67,4.16,11.52,8.79,16.21.16.16.33.32.5.48,5.53,4.97,12.06,7.56,19.98,7.9.06,0,.12,0,.19,0,.28,0,.56.01.84.01,11.55,0,25.76-6.73,38.01-18.01,22.72-20.65,45.1-61.51,39.59-114.09,0-.03,0-.06-.01-.09-4.31-38.31-23.57-61.18-51.5-61.18-18.99,0-39.71,11.12-50.39,27.06-3.28,4.81-6.3,10.63-9.06,17.01-1.42-15.65-5.02-30.36-12.43-40.32-5.78-7.78-13.63-12.5-22.7-13.65-.07,0-.15-.02-.22-.03-1.43-.15-2.87-.23-4.29-.23h0Z"/>
        </g>
      </g>
    </g>
  </g>
</svg>