<?xml version="1.0" encoding="UTF-8"?>
<svg id="Layer_2" data-name="Layer 2" xmlns="http://www.w3.org/2000/svg" viewBox="0 0 555.83 627.25">
  <defs>
    <style>
      .cls-1 {
        fill: #f15b2d;
      }

      .cls-2 {
        fill: #0388b6;
      }

      .cls-3 {
        fill: #0573b5;
      }

      .cls-4 {
        fill: #ce1e4d;
      }

      .cls-5 {
        fill: #f37c4b;
      }

      .cls-6 {
        fill: #fff;
      }

      .cls-7 {
        stroke: #231f20;
        stroke-linecap: round;
        stroke-linejoin: round;
        stroke-width: 2px;
      }

      .cls-8 {
        fill: #efe0d3;
      }

      .cls-9 {
        fill: #f6bc80;
      }
    </style>
  </defs>
  <g id="Layer_1-2" data-name="Layer 1">
    <g>
      <g>
        <g>
          <path class="cls-6" d="M359.81,204.97c2.8-1.83,5.36-3.85,7.6-6.11,8.63-8.69,13.93-21.32,14.89-35.51,2.44-35.67-16.93-66.79-50.53-81.22-51.63-22.17-75.96,3.93-84.04,16.18-7.09,10.76-10.66,23.98-10.36,38.23.1,4.31.56,8.59,1.31,12.84,3.04,16.73,11.12,32.43,22.81,43.63,10.08,9.65,24.29,16.49,39.7,19.77,11.49,2.44,23.66,2.9,35.29,1.01,2.58-.42,5.1-.99,7.52-1.69l15.82-7.13ZM285.43,132.28c-1.81,5.72-4.84,9.63-9.07,11.61-2.06.95-4.25,1.39-6.45,1.39-6.55,0-13.2-3.81-16.79-8.67-3.85-5.18-5.18-12.66-3.47-19.53,1.39-5.6,4.54-9.83,8.89-11.91,7.88-3.77,17.59.38,22.69,6.21,7.84,8.91,4.35,20.4,4.21,20.9Z"/>
          <path class="cls-6" d="M294.56,73.49c10.42,0,22.74,2.42,37.21,8.63,33.6,14.43,52.98,45.55,50.53,81.22-.95,14.19-6.25,26.82-14.89,35.51-2.24,2.26-4.8,4.29-7.6,6.11l-15.82,7.13c-2.42.69-4.94,1.27-7.52,1.69-4.84.78-9.76,1.16-14.7,1.16-6.93,0-13.88-.75-20.59-2.18-15.4-3.28-29.61-10.12-39.7-19.77-11.69-11.19-19.77-26.89-22.81-43.63-.75-4.25-1.21-8.53-1.31-12.84-.3-14.25,3.28-27.47,10.36-38.23,5.82-8.82,20.05-24.81,46.83-24.81M269.91,145.29c2.2,0,4.39-.44,6.45-1.39,4.23-1.98,7.26-5.9,9.07-11.61.14-.5,3.63-11.99-4.21-20.9-3.74-4.28-9.97-7.66-16.13-7.66-2.23,0-4.46.44-6.55,1.45-4.35,2.08-7.5,6.31-8.89,11.91-1.71,6.87-.38,14.35,3.47,19.53,3.59,4.86,10.24,8.67,16.79,8.67M294.56,72.49c-26.98,0-41.44,15.83-47.67,25.26-7.19,10.91-10.83,24.33-10.53,38.8.1,4.22.54,8.59,1.32,13,3.13,17.22,11.33,32.9,23.1,44.17,9.95,9.52,24.22,16.63,40.18,20.03,6.86,1.46,13.86,2.2,20.8,2.2,5.05,0,10.04-.4,14.86-1.18,2.53-.41,5.1-.99,7.64-1.71l.07-.02.07-.03,15.82-7.13.07-.03.07-.04c2.96-1.93,5.57-4.03,7.77-6.25,8.82-8.88,14.21-21.71,15.17-36.15,2.47-36.1-17.12-67.6-51.14-82.21-13.47-5.78-26.12-8.71-37.6-8.71h0ZM269.91,144.29c-5.91,0-12.33-3.32-15.99-8.27-3.68-4.95-4.94-12.11-3.31-18.7,1.32-5.3,4.28-9.3,8.35-11.25,1.87-.89,3.93-1.35,6.12-1.35,5.46,0,11.5,2.87,15.38,7.32,6.98,7.94,4.57,17.99,4.01,19.93-1.73,5.46-4.6,9.17-8.55,11.02-1.86.86-3.89,1.29-6.03,1.29h0Z"/>
        </g>
        <path class="cls-6" d="M112.45,191.35c9.49,3.2,20.75,2.15,29.38-2.73h0c5.96-3.36,11.96-9.01,11.05-11.75-.79-2.4-7.46-3.54-13.45-3.27-6.39.3-10.3,2.4-14.08,4.44-3.88,2.09-7.91,4.26-14.12,4.1-3.81-.08-7.57-.99-11.17-2.69-3.64-1.72-6.02-3.74-6.81-4.41-.12-.1-.43-.36-.87-.76,1.93,3.28,4.43,6.64,7.63,9.61,3.64,3.41,7.83,5.92,12.44,7.47Z"/>
        <g>
          <path class="cls-6" d="M201.36,67.02c-14.89,6.65-37.83,19.33-58.79,41.03-8.26,8.51-16.22,18.44-23.24,29.95-.87,1.41-1.75,2.9-2.6,4.41-10.82-.95-20.94,5.02-21.38,5.26-1.83,1.07-3.75,2.2-5.44,3.65-1.01.87-1.91,1.83-2.66,2.96-.32-.75-.6-1.51-.87-2.28-3.37-8.79-4.96-18-4.64-27.09.02-.73.04-1.47.1-2.2.34-5.02,1.31-9.98,2.8-14.81.08,0,.14.02.2.02,2.18,0,4.72-1.51,6.83-3.12,2.1-1.63,3.77-3.33,4.15-3.73,6.41-6.79,9.61-16.85,8.91-22.29-.14-1.01-.42-1.83-.81-2.5,8.97-9.61,17.94-14.87,21.48-16.71,19.39-10.2,37.51-12.46,53.89-6.73,8.22,2.88,15.62,7.66,22.09,14.19Z"/>
          <path class="cls-6" d="M160.97,49.74c6.31,0,12.41,1.03,18.29,3.09,8.22,2.88,15.62,7.66,22.09,14.19-14.89,6.65-37.83,19.33-58.79,41.03-8.26,8.51-16.22,18.44-23.24,29.95-.87,1.41-1.75,2.9-2.6,4.41-.8-.07-1.59-.1-2.38-.1-9.88,0-18.59,5.14-19,5.36-1.83,1.07-3.75,2.2-5.44,3.65-1.01.87-1.91,1.83-2.66,2.96-.32-.75-.6-1.51-.87-2.28-3.37-8.79-4.96-18-4.64-27.09.02-.73.04-1.47.1-2.2.34-5.02,1.31-9.98,2.8-14.81.08,0,.14.02.2.02,2.18,0,4.72-1.51,6.83-3.12,2.1-1.63,3.77-3.33,4.15-3.73,6.41-6.79,9.61-16.85,8.91-22.29-.14-1.01-.42-1.83-.81-2.5,8.97-9.61,17.94-14.87,21.48-16.71,12.43-6.54,24.34-9.82,35.6-9.82M160.98,48.74v1-1h0c-11.4,0-23.54,3.34-36.06,9.93-3.49,1.82-12.6,7.12-21.74,16.91l-.51.55.38.64c.34.59.57,1.28.69,2.13.67,5.21-2.45,14.91-8.65,21.47-.18.19-1.88,1.96-4.03,3.63-2.46,1.88-4.6,2.89-6.17,2.91-.08-.01-.16-.02-.25-.02h-.74l-.22.71c-1.55,5.03-2.51,10.09-2.84,15.03-.06.75-.08,1.51-.1,2.24-.32,9.24,1.26,18.49,4.71,27.48.3.85.57,1.58.89,2.31l.72,1.71,1.03-1.55c.65-.97,1.46-1.87,2.48-2.76,1.62-1.39,3.49-2.49,5.29-3.55l.06-.04c2.15-1.22,9.84-5.19,18.43-5.19.77,0,1.54.03,2.29.1l.64.06.32-.56c.9-1.6,1.77-3.07,2.58-4.37,6.5-10.65,14.28-20.67,23.11-29.78,20.63-21.36,43.19-33.98,58.48-40.81l1.32-.59-1.02-1.03c-6.61-6.67-14.17-11.52-22.47-14.43-5.96-2.09-12.22-3.14-18.62-3.14h0Z"/>
        </g>
        <path class="cls-6" d="M199.17,178.97c-2,14.87-13.91,25.53-24.14,32.1-5.38,3.45-10.3,5.76-13.06,6.95-8.99,3.85-27.67,11.89-47.14,3.2-6.19-2.78-11.69-6.87-16.32-12.15l-.36-.44c-4.51-5.26-7.07-10.38-8.2-12.98-.22-.54-.4-1.05-.62-1.59-2.34-5.9-3.31-11.57-3.51-16.67-.14-3.26.04-6.27.4-8.95.83,2.04,1.89,4.29,3.2,6.61,2.1,3.71,4.9,7.6,8.57,11,3.95,3.71,8.5,6.43,13.52,8.12,4.01,1.35,8.24,2,12.46,2,6.75,0,13.48-1.69,19.29-4.96,5.1-2.88,14.23-9.75,12.41-15.26-1.87-5.66-13.99-5.4-16.39-5.28-7.05.34-11.45,2.7-15.34,4.78-3.85,2.08-7.19,3.89-12.66,3.75-3.37-.08-6.73-.87-9.96-2.4-3.29-1.57-5.46-3.39-6.17-4.01-.06-.04-.36-.3-.81-.73-1.63-1.49-5.24-5.16-6.99-9.47.44-1.75.89-3.22,1.27-4.33,1.13-3.89,4.74-5.99,8.24-8.04.42-.24,10.3-6.07,20.5-4.78,2.32.3,4.51.95,6.51,1.98.3.16.58.34.87.52,3.49,2.08,4.86,4.62,6.27,7.3.02.04.04.08.06.12,1.53,2.9,3.14,5.89,7.46,7.74,4.9,2.12,8.75.81,14.05-1.01,4.13-1.43,9.27-3.2,16.95-4.21,9.39-1.23,20.03-2.62,25.78,3.16,3.65,3.65,4.94,9.69,3.85,17.94Z"/>
        <g>
          <path class="cls-6" d="M438.53,78.87c-.46-1.55-1.09-3.65-1.89-6.09-3.04-9.33-8.59-24.31-16.79-38.33-10.6-18.1-21.91-28.28-33.58-30.27-4.31-.73-11.21-.34-26.44,9.31-13,8.22-24.79,18.64-35.21,31.06-3.39,4.05-6.63,8.3-9.73,12.76,8.18,2.08,16.18,4.78,23.9,8.12,12.8,5.5,37.67,18.6,60.44,44.48,21.44,24.37,30.31,48.33,35.07,61.21.75,2,1.61,4.43,2.48,7.32,10.62-31.46,11.25-66.73,1.75-99.58ZM355.2,67.26l-2.6-1.37c2.88-5.48,6.31-10.6,10.24-15.34,1.59-1.91,3.26-3.79,5-5.58,7.54-7.64,16.34-13.79,26.16-18.3l1.21,2.68c-9.49,4.35-17.98,10.3-25.27,17.69-1.33,1.35-2.58,2.76-3.81,4.19-4.23,4.9-7.9,10.26-10.94,16.04ZM399.78,81.47c-3.55,2.64-6.79,5.74-9.61,9.17l-2.28-1.87c2.98-3.61,6.39-6.87,10.12-9.67,5.16-3.87,10.94-6.83,17.15-8.79l.89,2.8c-5.89,1.89-11.37,4.68-16.28,8.36ZM425.53,120.02c-2.34,1.85-4.6,3.83-6.75,5.89l-2.04-2.12c2.2-2.12,4.54-4.19,6.97-6.09,3.16-2.52,6.53-4.86,10-6.97l1.53,2.52c-3.37,2.04-6.63,4.33-9.71,6.77Z"/>
          <path class="cls-6" d="M383.45,3.94c1.06,0,1.98.1,2.81.24,11.67,1.98,22.98,12.17,33.58,30.27,8.2,14.01,13.75,29,16.79,38.33.79,2.44,1.43,4.55,1.89,6.09,9.51,32.85,8.87,68.12-1.75,99.58-.87-2.9-1.73-5.32-2.48-7.32-4.76-12.88-13.64-36.84-35.07-61.21-22.77-25.88-47.64-38.98-60.44-44.48-7.72-3.33-15.72-6.03-23.9-8.12,3.1-4.47,6.33-8.71,9.73-12.76,10.42-12.43,22.21-22.85,35.21-31.06,12.3-7.79,19.17-9.55,23.63-9.55M355.2,67.26c3.04-5.78,6.71-11.14,10.94-16.04,1.23-1.43,2.48-2.84,3.81-4.19,7.28-7.38,15.78-13.34,25.27-17.69l-1.21-2.68c-9.83,4.51-18.62,10.66-26.16,18.3-1.75,1.79-3.41,3.67-5,5.58-3.93,4.74-7.36,9.86-10.24,15.34l2.6,1.37M390.18,90.64c2.82-3.43,6.05-6.53,9.61-9.17,4.9-3.67,10.38-6.47,16.28-8.36l-.89-2.8c-6.21,1.96-11.99,4.92-17.15,8.79-3.73,2.8-7.15,6.05-10.12,9.67l2.28,1.87M418.78,125.91c2.14-2.06,4.41-4.05,6.75-5.89,3.08-2.44,6.33-4.72,9.71-6.77l-1.53-2.52c-3.47,2.1-6.85,4.45-10,6.97-2.42,1.91-4.76,3.97-6.97,6.09l2.04,2.12M383.45,2.94c-6.04,0-13.71,3.08-24.16,9.7-13.02,8.23-24.95,18.75-35.44,31.27-3.39,4.04-6.68,8.36-9.78,12.84l-.82,1.18,1.4.36c8.21,2.09,16.2,4.81,23.75,8.07,12.72,5.46,37.43,18.47,60.08,44.22,21.34,24.26,30.15,48.09,34.89,60.9.92,2.44,1.72,4.82,2.46,7.27l.9,3,1-2.97c10.68-31.63,11.3-67.21,1.76-100.18-.63-2.14-1.25-4.14-1.9-6.12-3.24-9.94-8.79-24.7-16.88-38.52-10.75-18.36-22.29-28.71-34.28-30.75-1-.17-1.98-.25-2.98-.25h0ZM353.96,65.47c2.71-5.02,5.96-9.83,9.66-14.29,1.73-2.08,3.35-3.89,4.95-5.52,7.22-7.31,15.61-13.26,24.95-17.67l.39.86c-9.22,4.35-17.51,10.22-24.66,17.47-1.46,1.49-2.83,3.05-3.86,4.24-4.09,4.74-7.65,9.9-10.59,15.34l-.83-.44h0ZM389.31,88.64c2.76-3.24,5.89-6.17,9.31-8.73,4.8-3.6,10.15-6.4,15.9-8.33l.29.9c-5.67,1.92-10.92,4.68-15.62,8.2-3.34,2.48-6.41,5.36-9.14,8.57l-.73-.6h0ZM418.15,123.82c2.04-1.92,4.11-3.72,6.17-5.34,2.84-2.27,5.88-4.41,9.05-6.38l.49.81c-3.05,1.89-6.06,4.01-8.96,6.32-2.06,1.63-4.11,3.4-6.1,5.27l-.66-.68h0Z"/>
        </g>
        <g>
          <path class="cls-6" d="M343.99,212.09c5.8-1.66,11.15-4.07,15.82-7.12-6.19,1.17-12.55,2.24-19.03,3.22,1.09,1.29,2.17,2.59,3.22,3.91Z"/>
          <path class="cls-6" d="M359.81,204.97c-4.66,3.05-10.02,5.46-15.82,7.12-1.05-1.32-2.12-2.62-3.22-3.91,6.49-.98,12.84-2.05,19.03-3.22M364.57,203.05l-4.94.93c-6,1.13-12.39,2.21-19,3.21l-1.77.27,1.16,1.37c1.19,1.4,2.23,2.67,3.2,3.88l.42.52.64-.18c5.92-1.7,11.33-4.13,16.09-7.25l4.21-2.75h0Z"/>
        </g>
        <g>
          <path class="cls-6" d="M112.5,462.35c-2.6,3.2-5.14,6.45-7.62,9.77,2.46-3.29,5-6.57,7.62-9.77Z"/>
          <path class="cls-6" d="M112.49,462.35c-2.6,3.2-5.14,6.45-7.62,9.77,2.46-3.29,5-6.57,7.62-9.77M111.72,461.71c-2.48,3.03-4.99,6.24-7.65,9.8l1.6,1.2c2.46-3.29,5.02-6.56,7.6-9.73l-1.55-1.27h0Z"/>
        </g>
        <g>
          <path class="cls-6" d="M443.96,394.59h0c.06-.37.13-.72.18-1.1-.06.38-.13.73-.19,1.1Z"/>
          <path class="cls-6" d="M444.15,393.49c-.06.38-.12.73-.18,1.1h0c.06-.37.13-.72.19-1.1M443.16,393.33c-.03.22-.07.43-.11.64l-.08.44-.19,1.16h2.03l.14-.84.07-.42c.04-.23.08-.45.11-.69l-1.98-.31h0Z"/>
        </g>
        <g>
          <polygon class="cls-6" points="306.22 418.86 306.22 418.86 306.22 418.86 306.22 418.86"/>
          <path class="cls-6" d="M306.22,418.86h0s0,0,0,0c0,0,0,0,0,0M307.22,416.88l-1.59,1.16-2.58,1.81h3.16s.05,0,.05,0h.06s.89-.1.89-.1v-2.88h0Z"/>
        </g>
        <path class="cls-6" d="M361.36,507.04l.83-.36c-.28.12-.56.26-.83.38-.56.24-1.11.48-1.67.71-.56.24-1.13.5-1.71.73-.58.24-1.15.48-1.73.71.58-.24,1.15-.48,1.73-.73,1.15-.48,2.26-.95,3.37-1.45Z"/>
        <path class="cls-6" d="M362.19,506.69c.83-.36,1.63-.71,2.42-1.07-.6.28-1.19.54-1.81.81-.2.08-.4.18-.61.26Z"/>
        <path class="cls-6" d="M370.8,502.74c.4-.18.79-.38,1.19-.58-.4.2-.79.4-1.19.6-.1.04-.22.1-.32.14.1-.06.22-.1.32-.16Z"/>
        <path class="cls-6" d="M376.57,499.85c.47-.24.95-.48,1.4-.74-.46.26-.91.5-1.39.73-.36.2-.69.38-1.05.56-.6.32-1.19.62-1.79.91-.58.3-1.15.58-1.75.85.6-.3,1.17-.58,1.75-.87.97-.47,1.9-.95,2.83-1.44Z"/>
        <path class="cls-6" d="M427.09,448.33c.4-.77.77-1.57,1.13-2.34-.36.77-.73,1.57-1.11,2.34t-.02.02v-.02Z"/>
        <path class="cls-6" d="M547.49,478.34c-1.73,6.55-3.45,11.43-5.22,15.5-1.83,4.19-3.67,7.54-5.58,10.98-3.12,5.68-6.37,11.53-9.98,21.69-5.76,16.24-6.87,27.95-7.68,36.48-.95,10.14-1.53,16.26-8.26,22.37-11.83,10.72-32.29,12.6-46.56,4.27-9.65-5.62-16.18-15.54-19.37-29.51-1.71-7.4-1.75-15.03-.1-22.69l.1-.44.14-.58c4.86.16,9.75.24,14.61.24h.89v-2.96c-.3,0-.6.02-.89.02-29.55,0-59.17-2.76-87.99-8.16-10.38-1.95-20.8-4.29-31.06-6.93,22.53-8.59,38.82-15.84,51.86-24.79,7.32-5,13.62-10.54,19.41-17.15,20.38-23.24,26.8-47.99,33.01-71.91.42-1.63.87-3.43,1.33-5.72,28.3,14.55,54.8,23.84,78.76,27.59l.77.14c6.19.95,15.54,2.4,21.34,9.73,8.57,10.86,3.89,28.76.48,41.82Z"/>
        <g>
          <path class="cls-6" d="M90.34,322.78c-2,.07-4,.34-5.96.82l-.7-2.87c2.15-.52,4.36-.83,6.56-.9.96-.03,1.92,0,2.87.05-1.87-16.43-3-34.21-2.52-53.45-1.02-.23-2.06-.43-3.09-.57-2.8-.39-5.66-.47-8.5-.23l-.24-2.94c3.05-.25,6.13-.16,9.14.25.94.13,1.87.3,2.8.5.17-5.02.42-10.1.82-15.31.02-.31.06-.62.08-.93-6-2.71-11.03-3.65-14.56-2.68-3.78,1.04-6.2,4.17-6.57,16.51-.33,11.19,1.27,17.48,2.96,24.14,1.39,5.47,2.83,11.12,3.25,19.7.15,3.01.13,5.61.12,8.13-.03,5.72-.06,10.65,1.76,18.6,2.52,11.02,5.68,14.66,10.28,17.23,3.56,1.99,6.74,2.93,8.95,3.39-1.58-9.23-3.1-19.02-4.34-29.35-1.04-.07-2.08-.11-3.11-.08Z"/>
          <path class="cls-6" d="M80.05,244.15c3.17,0,7.09,1.04,11.56,3.05-.02.31-.06.62-.08.93-.4,5.21-.65,10.3-.82,15.31-.93-.19-1.87-.37-2.8-.5-1.89-.26-3.8-.39-5.72-.39-1.14,0-2.28.05-3.42.14l.24,2.94c1.06-.09,2.12-.13,3.18-.13,1.78,0,3.57.12,5.32.36,1.04.14,2.07.34,3.09.57-.48,19.24.65,37.02,2.52,53.45-.66-.04-1.33-.06-1.99-.06-.3,0-.59,0-.89.01-2.2.07-4.4.38-6.56.9l.7,2.87c1.96-.48,3.96-.75,5.96-.82.24,0,.49-.01.73-.01.79,0,1.59.04,2.39.09,1.24,10.33,2.76,20.12,4.34,29.35-2.21-.45-5.39-1.4-8.95-3.39-4.6-2.57-7.75-6.22-10.28-17.23-1.82-7.94-1.79-12.88-1.76-18.6.01-2.52.03-5.12-.12-8.13-.42-8.58-1.86-14.23-3.25-19.7-1.69-6.66-3.29-12.95-2.96-24.14.36-12.34,2.78-15.46,6.57-16.51.9-.25,1.91-.37,3-.37M80.05,243.15s0,0,0,0c-1.18,0-2.28.14-3.27.41-4.99,1.38-6.97,6.1-7.3,17.44-.33,11.33,1.28,17.68,2.99,24.41,1.38,5.43,2.81,11.03,3.22,19.51.15,2.98.13,5.57.12,8.07-.03,5.78-.06,10.77,1.78,18.83,2.61,11.38,5.92,15.17,10.76,17.88,3.74,2.09,7.09,3.05,9.23,3.49l1.43.29-.25-1.44c-1.83-10.67-3.25-20.25-4.33-29.3l-.1-.82-.82-.06c-.89-.06-1.7-.09-2.46-.09-.25,0-.51,0-.76.01-1.74.06-3.48.27-5.19.63l-.22-.92c1.78-.37,3.58-.59,5.38-.65.28,0,.57-.01.85-.01.59,0,1.22.02,1.93.06l1.18.07-.13-1.18c-2.12-18.66-2.94-36.1-2.51-53.31l.02-.82-.8-.18c-1.17-.26-2.21-.45-3.17-.58-1.8-.25-3.64-.37-5.46-.37-.75,0-1.51.02-2.26.06l-.08-.95c.78-.04,1.56-.07,2.34-.07,1.87,0,3.75.13,5.58.38.82.11,1.69.27,2.74.48l1.16.24.04-1.19c.18-5.53.45-10.52.82-15.27.01-.16.03-.31.04-.47.01-.15.03-.31.04-.46l.05-.7-.64-.29c-4.61-2.08-8.64-3.14-11.97-3.14h0Z"/>
        </g>
        <g>
          <path class="cls-6" d="M276.74,352.23c-1.25,21.52-3.81,43.15-7.76,64.69-6.09-.04-12.19-.18-18.3-.46-48.57-2.16-96.64-11.39-142.89-27.39-1.27-5.99-2.5-12.01-3.61-18.02-1.11-5.99-2.26-12.27-3.39-18.82-5-29.1-9.43-63.59-6.31-103.87.16-2.22.36-4.45.58-6.71l.12-1.27c.16-1.63.32-3.2.46-4.78.1-.85.18-1.67.26-2.52.69-6.93,1.39-13.66,2.22-20.13,4.53,4.66,9.73,8.36,15.52,10.94,6.81,3.06,13.5,4.17,19.73,4.17,12.68,0,23.52-4.64,29.81-7.34,3.33-1.45,9.73-4.49,16.41-9.17,9.53-6.69,19.63-16.75,22.19-30.33,5.99,2.32,12.56,5.36,19.29,9.23,4.03,2.3,8.12,4.94,12.15,7.9l18.2,16.59c4.05,4.6,7.84,9.69,11.19,15.34,5.56,9.39,13.16,27.55,14.75,76.67.48,14.99.26,30.11-.62,45.27Z"/>
          <path class="cls-6" d="M201.77,181.21c5.99,2.32,12.56,5.36,19.29,9.23,4.03,2.3,8.12,4.94,12.15,7.9l18.2,16.59c4.05,4.6,7.84,9.69,11.19,15.34,5.56,9.39,13.16,27.55,14.75,76.67.48,14.99.26,30.11-.62,45.27-1.25,21.52-3.81,43.15-7.76,64.69-6.09-.04-12.19-.18-18.3-.46-48.57-2.16-96.64-11.39-142.89-27.39-1.27-5.99-2.5-12.01-3.61-18.02-1.11-5.99-2.26-12.27-3.39-18.82-5-29.1-9.43-63.59-6.31-103.87.16-2.22.36-4.45.58-6.71l.12-1.27c.16-1.63.32-3.2.46-4.78.1-.85.18-1.67.26-2.52.69-6.93,1.39-13.66,2.22-20.13,4.53,4.66,9.73,8.36,15.52,10.94,6.81,3.06,13.5,4.17,19.73,4.17,12.68,0,23.52-4.64,29.81-7.34,3.33-1.45,9.73-4.49,16.41-9.17,9.53-6.69,19.63-16.75,22.19-30.33M201.01,179.84l-.22,1.18c-1.43,7.57-6.37,18.87-21.78,29.7-6.6,4.62-13.01,7.67-16.24,9.07-6.33,2.71-16.93,7.26-29.41,7.26-6.79,0-13.29-1.37-19.32-4.08-5.62-2.5-10.74-6.11-15.21-10.72l-1.44-1.49-.27,2.06c-.85,6.63-1.57,13.59-2.23,20.15-.08.85-.16,1.66-.26,2.5-.11,1.29-.24,2.54-.36,3.82l-.1.98-.12,1.27c-.25,2.64-.44,4.78-.58,6.73-3.16,40.91,1.42,75.58,6.32,104.11,1.13,6.57,2.3,12.93,3.4,18.83.97,5.27,2.09,10.84,3.62,18.05l.12.55.53.18c46.38,16.05,94.55,25.28,143.17,27.44,5.84.27,11.84.42,18.34.46h.84s.15-.82.15-.82c3.89-21.23,6.51-43.03,7.78-64.81.88-15.28,1.09-30.55.62-45.36-1.59-49.31-9.26-67.65-14.89-77.15-3.19-5.38-6.99-10.59-11.3-15.49l-.04-.04-.04-.04-18.2-16.59-.04-.04-.04-.03c-3.94-2.89-8.06-5.57-12.24-7.96-6.24-3.59-12.78-6.72-19.43-9.29l-1.12-.43h0Z"/>
        </g>
        <path class="cls-6" d="M443.96,394.58c-.12.69-.22,1.37-.34,2.02-.14.75-.28,1.47-.42,2.14-.44,2.1-.85,3.77-1.25,5.28-.48,1.85-.95,3.69-1.45,5.56v.02c-.5,1.85-.99,3.71-1.51,5.58-1.73,6.31-3.61,12.66-5.91,18.98-.58,1.59-1.17,3.16-1.81,4.74-.95,2.36-1.96,4.72-3.06,7.09-.36.77-.73,1.57-1.13,2.34v.02c-.18.4-.38.79-.58,1.17-.24.48-.48.95-.71,1.41-.36.69-.73,1.41-1.11,2.1-3.97,7.36-8.87,14.63-15.1,21.71-5.12,5.86-10.68,10.86-17.03,15.4-1.77,1.27-3.59,2.5-5.5,3.69-.71.46-1.45.91-2.18,1.35-.73.44-1.47.87-2.22,1.31l-1.13.65c-.38.22-.77.44-1.17.66-.79.44-1.57.87-2.38,1.29-.46.26-.91.5-1.39.73-.93.5-1.87.97-2.84,1.45-.58.3-1.15.58-1.75.87-.4.2-.79.4-1.19.58-.1.06-.22.1-.32.16-1.91.91-3.85,1.83-5.88,2.72-.79.36-1.59.71-2.42,1.07l-.83.36c-1.11.5-2.22.97-3.37,1.45-.58.26-1.15.5-1.73.73-.79.34-1.61.67-2.42,1.01-.97.4-1.95.79-2.96,1.19-3.67,1.47-7.52,2.98-11.59,4.53-1.35.52-2.74,1.05-4.13,1.57-.81.3-1.67.62-2.5.93-6.83,2.54-14.23,5.26-22.05,8.12-.4.14-.79.3-1.19.44l-.1.04-.18.06c-.99.36-1.96.71-2.92,1.05-4.17,1.51-7.94,2.8-11.43,3.97-4.88,1.65-9.15,3-13.1,4.21-.58.18-1.13.34-1.67.52-1.09.34-2.18.66-3.24.97-.54.16-1.05.32-1.57.48-1.15.34-2.26.67-3.39,1.03-2.24.67-4.47,1.37-6.75,2.08-1.13.36-2.28.73-3.43,1.11-1.17.38-2.34.77-3.55,1.19-3.63,1.23-7.5,2.64-11.85,4.31-4.29,1.65-9.03,3.55-14.45,5.86l-.36.16c-10.84,4.6-19.67,8.36-27.59,12.03-11.49,5.32-21.02,10.44-31.76,17.67-1.65,1.11-3.24,2.2-4.72,3.28-2.26,1.59-4.35,3.14-6.31,4.64-1.95,1.49-3.77,2.94-5.46,4.33-2.12,1.75-4.05,3.41-5.84,5-2.98,2.66-5.56,5.1-7.94,7.36-2.2,2.08-4.19,3.95-6.11,5.62-3.67,3.2-7.11,5.6-11.39,7.17-2.16.81-4.57,1.39-7.32,1.77-8.46,1.13-17.03-.14-25.09-2.94-6.71-2.32-13.06-5.72-18.7-9.65-.69-.5-1.39-.99-2.08-1.51-.67-.52-1.35-1.03-1.98-1.55h-.02c-.65-.54-1.29-1.05-1.91-1.59h-.02c-.63-.54-1.23-1.07-1.83-1.61h-.02c-.6-.56-1.17-1.09-1.75-1.65-.58-.54-1.13-1.09-1.67-1.65-1.09-1.13-2.1-2.24-3.06-3.37-.32-.38-.62-.73-.89-1.09-.3-.36-.56-.71-.81-1.05-.52-.67-.99-1.33-1.41-1.95-.83-1.25-1.51-2.4-2.08-3.51-.2-.4-.4-.79-.58-1.19-.36-.79-.69-1.57-1.01-2.34-.16-.4-.32-.79-.46-1.19-.1-.24-.18-.48-.28-.71-1.43-3.71-3.02-7.88-7.28-14.19-.68-.99-1.41-2.04-2.22-3.16-8.52-11.59-16.2-17.27-22.35-21.81-6.51-4.82-11.23-8.3-13.85-16.41-3.65-11.27-1.23-24.79,5.8-34.93,1.27-1.85,2.68-3.59,4.27-5.18,1.85-1.87,3.87-3.49,6.05-4.9,9.43-6.09,21.85-7.86,36.44-5.1,5.64,1.07,11,3.06,16.06,5.88,4.39,2.46,8.53,5.58,12.45,9.31.3.28.6.54.89.83.34.34.66.66.99.99.32.34.64.67.95,1.01,3.37,3.65,6.13,7.36,8.3,10.68,2.16,3.35,3.75,6.29,4.78,8.4.67,1.37,1.11,2.38,1.33,2.9l.95-.4,1.77-.73c-.06-.14-.14-.32-.22-.52-.1-.22-.2-.46-.32-.71-.12-.28-.26-.58-.42-.89-.14-.32-.32-.67-.52-1.05-.28-.58-.6-1.21-.95-1.87-.36-.67-.75-1.41-1.19-2.16-2.6-4.6-6.61-10.66-12.17-16.47-.14-.14-.26-.28-.4-.42.16-.26.34-.54.5-.81,4.33-7.03,8.97-13.87,13.89-20.5,2.48-3.31,5.02-6.57,7.62-9.77,2.6-3.2,5.28-6.33,8.02-9.41,3.57-4.01,7.34-7.9,11.15-11.71,6.63-6.61,13.56-12.94,20.78-18.84l-1.85-2.28c-7.7,6.27-15.07,12.98-22.07,20.05-.79.81-1.57,1.63-2.36,2.44-1.13,1.17-2.28,2.32-3.39,3.51-.97-3.1-1.89-6.13-2.78-9.15-1.81-6.09-3.51-12.09-5.1-18.08-2.3-8.71-4.43-17.57-6.37-26.46,45.99,15.74,93.74,24.83,142.02,26.99,7.66.34,15.28.52,22.93.52,10.94,0,21.85-.36,32.75-1.07h.02c28.15-1.83,56.07-6.01,83.64-12.52,14.05-3.31,28.01-7.22,41.86-11.75h12.23Z"/>
        <path class="cls-6" d="M112.5,462.35c-2.6,3.2-5.14,6.45-7.62,9.77,2.46-3.29,5-6.57,7.62-9.77Z"/>
        <path class="cls-6" d="M444.62,390.22c-.14,1.13-.3,2.22-.48,3.28-.06.38-.12.73-.18,1.09h-12.23c4.31-1.41,8.59-2.84,12.88-4.37Z"/>
        <path class="cls-6" d="M356.25,509.23c.58-.24,1.15-.48,1.73-.73v.02c-.58.24-1.15.48-1.73.71Z"/>
        <path class="cls-6" d="M357.98,508.49c1.15-.48,2.26-.95,3.37-1.45v.02c-.56.24-1.11.48-1.67.71-.58.24-1.13.48-1.71.71Z"/>
        <path class="cls-6" d="M362.19,506.69c.83-.36,1.63-.71,2.42-1.07-.6.28-1.19.54-1.81.81-.2.08-.4.18-.61.26Z"/>
        <path class="cls-6" d="M370.49,502.9c.1-.06.22-.1.32-.16v.02c-.1.04-.22.1-.32.14Z"/>
        <path class="cls-6" d="M371.99,502.16c.6-.3,1.17-.58,1.75-.87v.02c-.58.3-1.15.58-1.75.85Z"/>
        <path class="cls-6" d="M376.58,499.84c-.36.2-.69.38-1.05.56-.6.3-1.19.6-1.79.89.97-.48,1.91-.95,2.84-1.45Z"/>
        <path class="cls-6" d="M427.09,448.33c.4-.77.77-1.57,1.13-2.34-.36.77-.73,1.57-1.11,2.34h-.02Z"/>
        <g>
          <path class="cls-6" d="M483.09,287.48c-.08-2-.1-4.15-.14-6.37-.18-12.68-.4-27.07-10.08-34.4-12.62-9.59-32.77-.08-46.11,6.21l-.85.4c-15.86,7.48-29.24,17.61-39.74,30.07.91,9.23,1.25,21.02-.42,34.52-1.71,13.81-5.02,25.39-8.3,34.32-.18.5-.38,1.03-.56,1.53,8.02,8.75,17.51,15.36,28.18,19.63,10.3,4.11,45.39,15.6,63.55-8.61,2.68-3.57,4.92-7.72,6.81-12.54,1.53-3.87,2.82-8.16,3.95-13.04,3.37-14.83,4.56-31.26,3.69-51.71ZM462.64,327.83c-7.26-.44-14.63-.46-21.87-.06-9.63.54-19.29,1.83-28.76,3.81l-.6-2.88c9.59-2.02,19.41-3.33,29.18-3.87,7.36-.42,14.85-.4,22.23.04l-.18,2.96ZM446.45,282.44c-12.7,4.23-24.79,10.28-35.93,17.96l-1.67-2.42c11.35-7.86,23.7-14.01,36.66-18.34,7.4-2.44,15.06-4.33,22.79-5.56l.46,2.92c-7.56,1.21-15.07,3.04-22.31,5.44Z"/>
          <path class="cls-6" d="M459.59,242.63c4.85,0,9.41,1.15,13.27,4.08,9.69,7.32,9.9,21.71,10.08,34.4.04,2.22.06,4.37.14,6.37.87,20.44-.32,36.88-3.69,51.71-1.13,4.88-2.42,9.17-3.95,13.04-1.89,4.82-4.13,8.97-6.81,12.54-8.64,11.51-21.1,14.96-32.91,14.96-13.02,0-25.25-4.19-30.65-6.34-10.68-4.27-20.17-10.88-28.18-19.63.18-.5.38-1.03.56-1.53,3.27-8.93,6.59-20.5,8.3-34.32,1.67-13.5,1.33-25.29.42-34.52,10.5-12.46,23.88-22.59,39.74-30.07l.85-.4c9.26-4.37,21.81-10.29,32.84-10.29M410.52,300.4c11.14-7.68,23.22-13.74,35.93-17.96,7.24-2.4,14.75-4.23,22.31-5.44l-.46-2.92c-7.72,1.23-15.38,3.12-22.79,5.56-12.96,4.33-25.31,10.48-36.66,18.34l1.67,2.42M412.01,331.58c9.47-1.98,19.13-3.28,28.76-3.81,3.45-.19,6.93-.28,10.41-.28,3.83,0,7.66.11,11.47.34l.18-2.96c-3.82-.23-7.67-.34-11.51-.34-3.58,0-7.17.1-10.72.3-9.77.54-19.59,1.85-29.18,3.87l.59,2.88M459.59,241.63c-11.25,0-23.97,6-33.25,10.38l-.86.4c-16,7.55-29.48,17.75-40.08,30.33l-.27.32.04.42c1.13,11.4.99,22.94-.41,34.3-1.44,11.62-4.21,23.09-8.24,34.1l-.28.76-.28.77-.2.57.41.45c8.13,8.87,17.73,15.56,28.55,19.88,4.83,1.93,17.53,6.41,31.02,6.41,14.72,0,26.06-5.17,33.71-15.36,2.73-3.64,5-7.82,6.94-12.78,1.53-3.87,2.84-8.18,3.99-13.18,3.41-14.99,4.59-31.5,3.72-51.97-.06-1.53-.09-3.12-.11-4.81l-.03-1.53c-.18-12.91-.39-27.55-10.48-35.18-3.74-2.84-8.41-4.28-13.88-4.28h0ZM410.24,298.24c10.99-7.5,22.96-13.43,35.59-17.65,7.12-2.35,14.4-4.15,21.64-5.36l.15.94c-7.3,1.22-14.52,3.01-21.48,5.32-12.45,4.15-24.34,10.04-35.35,17.52l-.53-.78h0ZM412.59,329.48c9.27-1.91,18.7-3.13,28.05-3.65,3.51-.2,7.09-.3,10.67-.3s6.98.09,10.45.28l-.06.96c-3.49-.19-7.02-.29-10.53-.29s-7.01.1-10.46.28c-9.28.52-18.67,1.74-27.93,3.63l-.19-.92h0Z"/>
        </g>
        <path class="cls-6" d="M443.69,382.12c-.63.1-1.27.18-1.93.24-2,.2-4.01.32-5.97.32-5.48,0-10.78-.69-15.54-1.69-1.79-.36-3.49-.77-5.1-1.19-2.68-.71-5.1-1.47-7.15-2.18-1.57-.54-2.92-1.05-4.01-1.49-11.09-4.43-20.94-11.29-29.28-20.38l1.63-1.47.56-.52c.18-.5.38-1.03.56-1.53,3.27-8.93,6.59-20.5,8.3-34.32,1.67-13.5,1.33-25.29.42-34.52l-2.26-1.89c10.78-12.82,24.49-23.18,40.75-30.84l.85-.42c5.16-2.44,11.31-5.34,17.72-7.48-2.66-35.39-5.89-51.15-8.24-59.86-.14-.5-.26-.97-.4-1.45-1.07-3.83-2.14-6.85-3.06-9.31-4.7-12.68-13.46-36.32-34.54-60.28-22.37-25.47-46.82-38.33-59.39-43.73-14.27-6.15-29.45-10.18-45.14-11.97-30.51-3.47-56.57,1.93-73.06,7.09-4.62,1.45-9.81,3.37-14.93,5.62-14.15,6.11-36.96,18.24-58.02,39.42-8.75,8.77-17.23,19.11-24.63,31.24-.66,1.09-1.33,2.2-1.98,3.35,1.89.42,3.67,1.05,5.36,1.91,1.79.93,3.18,1.98,4.29,3.08,1.98,1.95,3.1,4.05,4.13,5.99.1.2.18.38.28.56,1.31,2.48,2.6,4.6,5.8,5.97,3.85,1.67,6.89.62,11.93-1.11,4.25-1.47,9.55-3.29,17.51-4.33,4.49-.6,9.25-1.21,13.73-1.11,4.88.1,9.47,1.05,13.06,3.81.52.4,1.01.81,1.47,1.29,4.15,4.15,5.74,10.64,4.8,19.25,6.03,2.34,12.72,5.36,19.55,9.23,4.07,2.28,8.18,4.9,12.27,7.84,7.44,5.36,14.73,11.81,21.26,19.63,3.53,4.23,6.87,8.83,9.86,13.87,5.74,9.67,13.54,28.28,15.14,78.08.5,15.03.26,30.17-.62,45.37-1.23,21.54-3.79,43.17-7.72,64.73,11.45.02,22.89-.38,34.26-1.11,1.61-.12,3.2-.2,4.8-.32,17.05-1.27,34-3.41,50.85-6.41,20.25-3.59,40.27-8.44,60.12-14.53h.02c3.85-1.19,7.7-2.4,11.53-3.67,3.83-1.29,7.68-2.6,11.49-3.97.12-1.05.24-2.18.36-3.31.06-.6.12-1.17.18-1.79-.64.12-1.27.2-1.89.28ZM366.56,203.64c-6.55,5.62-13.93,8.97-20.6,10.98-3.22.97-6.29,1.65-9.01,2.08-4.98.81-10.08,1.19-15.16,1.19-10.12,0-20.25-1.55-29.71-4.45-12.62-3.87-24.06-10.12-32.63-18.32-12.39-11.87-20.9-28.62-23.88-46.39-.66-4.01-1.05-8.08-1.15-12.15-.32-14.85,3.43-28.66,10.86-39.92,9.65-14.63,23.1-23.18,40.01-25.43,14.31-1.91,30.8.93,47.66,8.16,34.79,14.95,54.84,47.18,52.32,84.14-1.03,14.91-6.61,28.18-15.74,37.39-.95.95-1.95,1.85-2.96,2.7Z"/>
        <path class="cls-6" d="M441.86,536.78h.02c.02-.14.04-.28.08-.42l-.1.42Z"/>
        <g>
          <path class="cls-6" d="M336.94,216.7c2.72-.44,5.8-1.11,9.01-2.08,6.67-2,14.05-5.36,20.6-10.98,1.01-.85,2-1.75,2.96-2.7,9.13-9.21,14.71-22.49,15.74-37.39,2.52-36.96-17.53-69.19-52.32-84.14-16.85-7.22-33.35-10.06-47.66-8.16-16.91,2.24-30.37,10.8-40.02,25.43-7.42,11.25-11.18,25.07-10.86,39.92.1,4.07.5,8.14,1.15,12.15,2.98,17.76,11.49,34.52,23.88,46.39,8.57,8.2,20.01,14.45,32.63,18.32,9.47,2.9,19.59,4.45,29.71,4.45,5.08,0,10.18-.38,15.16-1.19ZM261.48,193c-11.69-11.19-19.77-26.89-22.81-43.63-.76-4.25-1.21-8.53-1.31-12.84-.3-14.25,3.27-27.47,10.36-38.23,8.08-12.25,32.41-38.35,84.04-16.18,33.6,14.43,52.98,45.55,50.53,81.22-.95,14.19-6.25,26.82-14.89,35.51-2.24,2.26-4.8,4.29-7.6,6.11-4.66,3.06-10.02,5.46-15.82,7.13-2.42.69-4.94,1.27-7.52,1.69-11.63,1.89-23.8,1.43-35.29-1.01-15.4-3.28-29.61-10.12-39.7-19.77Z"/>
          <path class="cls-6" d="M258.53,105.17c-4.34,2.08-7.5,6.31-8.89,11.91-1.7,6.86-.37,14.35,3.47,19.53,3.6,4.86,10.25,8.67,16.8,8.67,2.2,0,4.39-.43,6.45-1.4,4.22-1.98,7.27-5.89,9.06-11.61.15-.49,3.63-11.98-4.2-20.9-5.11-5.83-14.81-9.98-22.7-6.2Z"/>
          <path class="cls-6" d="M366.14,51.22c1.23-1.43,2.48-2.84,3.81-4.19,7.28-7.38,15.78-13.34,25.27-17.69l-1.21-2.68c-9.83,4.51-18.62,10.66-26.16,18.3-1.75,1.79-3.41,3.67-5,5.58-3.93,4.74-7.36,9.86-10.24,15.34l2.6,1.37c3.04-5.78,6.71-11.13,10.94-16.04Z"/>
          <path class="cls-6" d="M387.89,88.78l2.28,1.87c2.82-3.43,6.05-6.53,9.61-9.17,4.9-3.67,10.38-6.47,16.28-8.36l-.89-2.8c-6.21,1.96-11.99,4.92-17.15,8.79-3.73,2.8-7.15,6.05-10.12,9.67Z"/>
          <path class="cls-6" d="M425.53,120.02c3.08-2.44,6.33-4.72,9.71-6.77l-1.53-2.52c-3.47,2.1-6.85,4.45-10,6.97-2.42,1.91-4.76,3.97-6.97,6.09l2.04,2.12c2.14-2.06,4.41-4.05,6.75-5.89Z"/>
          <path class="cls-6" d="M549.31,434.7c-6.5-8.26-16.94-9.87-23.18-10.83l-.76-.11c-23.86-3.76-50.32-13.09-78.65-27.71.08-.48.14-.96.23-1.47.65-3.9,1.19-8.31,1.64-13.37,8.31-2.04,16.26-6.45,22.42-14.67,3.03-4.07,5.54-8.76,7.63-14.31,1.38-3.7,2.6-7.8,3.65-12.38,3.42-15.1,4.64-31.78,3.76-52.47-.09-2.01-.11-4.13-.14-6.33-.2-12.67-.42-28.5-11.25-36.7-8.06-6.11-18.46-5.4-28.53-2.46-2.71-35.79-6.02-51.51-8.4-60.19.31-.14.59-.28.9-.42l.31.11c.03-.08.06-.2.08-.28,6.11-17.42,9.16-36.05,9.16-54.82,0-16.17-2.26-32.49-6.84-48.23-.28-.99-.65-2.21-1.07-3.59-2.83-9.1-8.74-25.9-17.87-41.48-11.06-18.91-23.04-29.57-35.65-31.69-4.83-.82-12.41-.45-28.5,9.7-13.77,8.74-26.18,19.85-37.09,33.19-3.25,3.93-6.36,8.06-9.33,12.38-6.25-1.47-12.58-2.57-19.03-3.31-30.99-3.56-57.51,1.95-74.24,7.18-5.51,1.72-10.66,3.79-14.31,5.32-6.95-7.27-15.01-12.55-24-15.69-17.16-6.02-36.08-3.7-56.23,6.9-3.7,1.92-13.15,7.46-22.53,17.59-.62-.08-1.33-.08-2.09.11-4.13.99-10.38,6.67-13.97,12.64-3.53,5.91-6.28,15.66-3.45,19.25-1.64,5.17-2.69,10.55-3.08,15.95-.11,1.55-.17,3.08-.17,4.67,0,8.54,1.61,17.19,4.72,25.47.68,1.78,1.39,3.53,2.21,5.29-1.39,4.1-3.37,11.9-2.66,21.43.31,4.24,1.13,8.82,2.77,13.6.45,1.27.93,2.57,1.53,3.87,1.13,2.66,3.73,7.86,8.23,13.23-.99,7.24-1.78,14.76-2.54,22.59-.06.54-.11,1.05-.17,1.58-.17,1.95-.37,3.9-.56,5.88l-.11,1.27c-.09.9-.17,1.81-.23,2.71-4.72-2.01-10.74-3.76-15.64-2.4-6.84,1.89-8.4,8.76-8.71,19.25-.34,11.62,1.3,18.09,3.05,24.96,1.36,5.32,2.74,10.83,3.17,19.11.14,2.94.11,5.48.11,7.97-.06,5.65-.09,11,1.81,19.28,2.43,10.52,5.6,15.72,11.73,19.14.51.28,1.02.57,1.53.82,3.87,1.92,7.24,2.74,9.39,3.08.99,5.63,1.98,11.05,2.94,16.26,3,16.2,6.62,32.34,10.77,48.06,1.41,5.29,2.88,10.55,4.44,15.89,1.16,3.87,2.32,7.8,3.56,11.82l2.2-.71c-1.33,1.44-2.66,2.88-3.93,4.35-11.17,12.5-21.23,26.04-30,40.35-8.74-8.23-18.69-13.49-29.57-15.58-18.97-3.59-34.58.17-45.15,10.86-2.18,2.18-4.07,4.61-5.71,7.24-6.67,10.66-8.79,24.34-5.06,35.85,2.91,9.02,8.2,12.92,14.9,17.87,5.99,4.44,13.46,9.95,21.71,21.18,5.77,7.86,7.58,12.52,9.13,16.68,1.58,4.13,3.08,8.03,8.03,13.88,11.51,13.6,32.65,26.94,54.14,26.94,2.23,0,4.44-.14,6.64-.42,11.96-1.61,17.73-7.07,26.44-15.32,6.79-6.45,15.21-14.42,29.91-24.31,17.9-12.04,32.43-18.24,58.84-29.43l.37-.14c19.93-8.45,30.68-11.7,43.12-15.49,8.14-2.46,17.25-5.2,30.17-9.81,1.27-.45,2.57-.93,3.93-1.41l.28-.11c9.05-3.31,17.59-6.45,25.33-9.33,11.62,3.08,23.49,5.8,35.28,8,23.27,4.38,47.05,7.01,70.91,7.86v.06c-.03.14-.06.28-.08.4-1.75,8.09-1.7,16.17.08,24,3.39,14.81,10.38,25.36,20.75,31.44,6.42,3.7,14.02,5.54,21.6,5.54,10.52,0,21.03-3.48,28.41-10.21,7.61-6.87,8.31-14.16,9.25-24.26.82-8.85,1.89-19.9,7.52-35.76,3.53-9.95,6.7-15.72,9.78-21.26,2.12-3.85,4.18-7.55,6.19-12.41,1.64-3.96,3.25-8.62,4.86-14.76,3.59-13.66,8.48-32.37-1.02-44.39ZM324.63,44.57c10.4-12.44,22.19-22.84,35.2-31.07,15.21-9.64,22.14-10.04,26.44-9.3,11.68,1.98,22.99,12.16,33.59,30.25,8.2,14.02,13.74,29.01,16.79,38.34.79,2.43,1.41,4.55,1.89,6.08,9.5,32.85,8.85,68.14-1.75,99.6-.88-2.91-1.72-5.34-2.49-7.35-4.78-12.86-13.63-36.84-35.09-61.21-22.76-25.87-47.61-38.96-60.42-44.47-7.72-3.34-15.72-6.02-23.89-8.11,3.08-4.47,6.3-8.71,9.73-12.75ZM204.5,68.88c5.12-2.26,10.29-4.18,14.93-5.63,16.48-5.17,42.55-10.57,73.06-7.1,15.69,1.78,30.87,5.82,45.12,11.99,12.58,5.4,37.04,18.24,59.4,43.71,21.06,23.98,29.83,47.61,34.52,60.28.93,2.46,2.01,5.48,3.05,9.33.14.45.28.93.42,1.44,2.32,8.71,5.57,24.46,8.23,59.85-6.42,2.15-12.55,5.03-17.73,7.49l-.85.42c-16.26,7.66-29.97,18.01-40.74,30.85l2.26,1.87c10.49-12.47,23.86-22.59,39.72-30.05l.85-.4c13.35-6.3,33.5-15.8,46.11-6.22,9.7,7.32,9.9,21.71,10.09,34.38.03,2.23.06,4.38.14,6.39.85,20.44-.34,36.87-3.7,51.71-1.13,4.86-2.43,9.16-3.96,13.03-1.87,4.81-4.13,8.96-6.79,12.55-18.18,24.2-53.27,12.72-63.56,8.59-10.69-4.27-20.19-10.86-28.19-19.62l-.57.51-1.64,1.47c8.34,9.1,18.21,15.97,29.29,20.38,1.1.45,2.43.96,4.02,1.5,2.03.71,4.47,1.47,7.15,2.18,1.58.42,3.31.82,5.09,1.19,4.75.99,10.07,1.7,15.55,1.7,1.95,0,3.96-.11,5.97-.31.65-.08,1.3-.14,1.92-.25.62-.08,1.25-.14,1.89-.28-.06.62-.11,1.19-.2,1.78-.11,1.16-.23,2.29-.34,3.34-3.82,1.36-7.66,2.69-11.51,3.96-3.82,1.27-7.66,2.49-11.54,3.68-19.85,6.11-39.89,10.94-60.14,14.53-16.85,3-33.79,5.15-50.83,6.42-1.61.11-3.19.2-4.81.31-11.39.74-22.82,1.13-34.27,1.1,3.93-21.54,6.5-43.17,7.72-64.72.88-15.21,1.1-30.36.62-45.38-1.61-49.79-9.41-68.42-15.15-78.09-3-5.03-6.33-9.64-9.87-13.88-6.53-7.8-13.8-14.25-21.26-19.62-4.07-2.94-8.17-5.54-12.24-7.83-6.84-3.87-13.54-6.9-19.56-9.25.93-8.6-.65-15.1-4.81-19.25-.45-.45-.96-.88-1.47-1.27-3.59-2.77-8.17-3.7-13.06-3.82-4.47-.11-9.24.51-13.74,1.1-7.94,1.05-13.26,2.86-17.5,4.33-5.03,1.72-8.06,2.8-11.93,1.13-3.2-1.39-4.47-3.51-5.8-5.99-.08-.17-.17-.34-.25-.54-1.05-1.95-2.15-4.07-4.16-5.99-1.1-1.1-2.49-2.15-4.27-3.08-1.7-.85-3.48-1.5-5.37-1.92.65-1.13,1.33-2.26,1.98-3.34,7.41-12.13,15.89-22.48,24.65-31.24,21.06-21.18,43.85-33.31,58.02-39.41ZM81.74,124.92c-.34.23-.71.48-1.05.76.34-.28.71-.54,1.05-.79,0-.73.03-1.47.08-2.18.34-5.03,1.33-10.01,2.8-14.81h.2c4.35,0,10.24-6.05,10.97-6.84,5.85-6.16,9.02-15.07,9.02-20.72,0-.54-.03-1.07-.08-1.56-.14-1.02-.43-1.84-.82-2.52,8.96-9.58,17.92-14.84,21.46-16.71,19.39-10.21,37.52-12.47,53.89-6.73,8.23,2.88,15.63,7.66,22.11,14.19-14.9,6.64-37.83,19.34-58.81,41.02-8.26,8.54-16.2,18.46-23.24,29.97-.88,1.41-1.72,2.88-2.6,4.41-10.8-.96-20.92,5-21.37,5.26-1.81,1.07-3.73,2.21-5.43,3.65-1.02.85-1.92,1.84-2.66,2.94-.31-.74-.59-1.5-.88-2.26-3.36-8.79-4.98-18.01-4.64-27.09ZM89.97,195.63c-.23-.51-.4-1.05-.62-1.58-2.35-5.88-3.31-11.56-3.51-16.65-.14-3.25.03-6.28.4-8.96.82,2.04,1.89,4.3,3.19,6.62,2.12,3.7,4.89,7.58,8.57,11,3.96,3.7,8.51,6.42,13.51,8.11,4.01,1.36,8.26,2.01,12.5,2.01,6.73,0,13.46-1.7,19.28-4.98,5.09-2.86,14.22-9.75,12.38-15.24-1.87-5.68-13.97-5.4-16.37-5.29-7.07.31-11.48,2.69-15.35,4.78s-7.18,3.9-12.67,3.76c-3.39-.08-6.73-.9-9.95-2.43-3.31-1.55-5.46-3.39-6.19-3.99-.06-.06-.37-.31-.82-.74-1.61-1.5-5.23-5.17-6.98-9.47.45-1.75.91-3.22,1.27-4.33,1.16-3.9,4.75-5.99,8.26-8.03.37-.23,8.43-4.98,17.47-4.98.99,0,2.01.06,3.02.17,2.32.31,4.49.96,6.5,2.01.31.14.56.31.88.51,3.51,2.09,4.86,4.61,6.28,7.29.03.06.03.08.06.11,1.53,2.91,3.14,5.91,7.46,7.75,4.89,2.12,8.76.82,14.05-1.02,4.13-1.41,9.27-3.19,16.94-4.18,9.42-1.24,20.04-2.63,25.79,3.14,3.67,3.65,4.95,9.7,3.87,17.95-2.01,14.84-13.91,25.5-24.14,32.09-5.4,3.45-10.32,5.77-13.06,6.95-8.99,3.85-27.68,11.87-47.13,3.19-6.22-2.8-11.71-6.87-16.31-12.16l-.37-.42c-4.49-5.26-7.07-10.4-8.2-13.01ZM92.4,174.28c.43.4.74.65.85.76.79.65,3.17,2.69,6.81,4.41,3.59,1.7,7.35,2.6,11.17,2.69,6.22.17,10.24-2.01,14.14-4.1,3.76-2.04,7.69-4.16,14.08-4.44,5.99-.28,12.64.88,13.43,3.25.93,2.74-5.09,8.4-11.03,11.76-8.65,4.89-19.9,5.94-29.4,2.74-4.61-1.55-8.79-4.07-12.44-7.46-3.2-2.97-5.68-6.33-7.61-9.61ZM88.86,348.84c-4.61-2.57-7.77-6.22-10.29-17.25-1.81-7.94-1.78-12.86-1.75-18.58,0-2.52.03-5.12-.11-8.14-.42-8.57-1.87-14.22-3.25-19.71-1.7-6.64-3.31-12.95-2.97-24.14.37-12.33,2.77-15.47,6.56-16.51,3.53-.96,8.57-.03,14.56,2.69-.03.31-.06.62-.08.93-.4,5.2-.65,10.29-.82,15.32-.93-.2-1.87-.37-2.8-.51-3-.42-6.08-.51-9.13-.25l.23,2.94c2.85-.23,5.71-.14,8.51.23,1.05.14,2.06.34,3.08.57-.48,19.25.65,37.04,2.52,53.46-.93-.06-1.89-.08-2.85-.06-2.21.08-4.41.4-6.56.9l.68,2.86c1.98-.45,3.99-.74,5.97-.79,1.05-.06,2.09,0,3.11.06,1.24,10.35,2.77,20.13,4.35,29.38-2.2-.45-5.4-1.41-8.93-3.39ZM104.19,371.03c-1.13-5.99-2.26-12.24-3.39-18.8-5-29.09-9.44-63.59-6.33-103.87.17-2.21.37-4.44.59-6.7l.11-1.27c.14-1.61.31-3.19.45-4.81.08-.82.17-1.67.26-2.49.71-6.96,1.41-13.66,2.23-20.13,4.52,4.67,9.73,8.34,15.52,10.94,6.81,3.03,13.49,4.16,19.73,4.16,12.67,0,23.49-4.64,29.8-7.35,3.34-1.44,9.73-4.47,16.43-9.16,9.53-6.7,19.62-16.77,22.19-30.34,5.99,2.32,12.55,5.37,19.28,9.25,4.01,2.29,8.11,4.92,12.16,7.89l18.18,16.6c4.07,4.61,7.86,9.67,11.2,15.35,5.57,9.39,13.18,27.54,14.76,76.68.48,14.98.26,30.11-.62,45.26-1.24,21.52-3.82,43.14-7.75,64.69-6.11-.06-12.18-.2-18.32-.45-48.55-2.18-96.64-11.39-142.89-27.4-1.25-5.99-2.49-12.02-3.59-18.04ZM335.15,517.51c-.79.31-1.67.62-2.49.93-6.84,2.54-14.22,5.26-22.05,8.14-.4.11-.79.28-1.19.42l-.11.03-.17.08c-.99.34-1.98.71-2.91,1.05-4.18,1.5-7.94,2.8-11.45,3.96-4.86,1.64-9.13,3-13.09,4.21-.57.17-1.13.34-1.67.51-1.1.34-2.18.65-3.22.99-.54.14-1.07.31-1.58.45-1.16.34-2.26.68-3.39,1.05-2.23.68-4.47,1.36-6.76,2.09-1.13.34-2.26.74-3.42,1.1-1.16.37-2.35.76-3.56,1.19-3.62,1.24-7.49,2.66-11.85,4.3-4.27,1.67-9.02,3.56-14.45,5.88l-.37.14c-10.83,4.61-19.65,8.37-27.57,12.04-11.51,5.32-21.03,10.43-31.78,17.64-1.64,1.13-3.22,2.21-4.72,3.28-2.26,1.58-4.33,3.14-6.3,4.67-1.95,1.47-3.76,2.91-5.46,4.33-2.12,1.72-4.04,3.39-5.82,5-3,2.66-5.57,5.09-7.94,7.35-2.21,2.09-4.19,3.96-6.11,5.63-3.68,3.19-7.12,5.6-11.39,7.15-2.18.82-4.58,1.39-7.32,1.78-8.48,1.13-17.05-.14-25.11-2.94-6.7-2.32-13.06-5.74-18.69-9.67-.71-.48-1.38-.99-2.09-1.5-.68-.51-1.36-1.02-1.98-1.55h-.03c-.65-.54-1.27-1.05-1.89-1.58h-.03c-.62-.54-1.21-1.07-1.84-1.61-.59-.54-1.19-1.07-1.75-1.64-.56-.54-1.13-1.1-1.67-1.64-1.1-1.13-2.09-2.26-3.05-3.39-.31-.37-.62-.73-.9-1.07-.28-.37-.54-.71-.79-1.05-.54-.68-1.02-1.33-1.41-1.95-.85-1.24-1.53-2.4-2.09-3.51-.2-.4-.4-.82-.57-1.22-.4-.79-.71-1.55-1.02-2.32-.17-.4-.31-.79-.45-1.22-.11-.23-.2-.45-.28-.71-1.44-3.7-3.03-7.89-7.29-14.19-.68-.99-1.41-2.04-2.21-3.14-8.54-11.59-16.2-17.27-22.36-21.83-6.5-4.83-11.22-8.28-13.85-16.43-3.65-11.25-1.21-24.77,5.8-34.92,1.27-1.84,2.69-3.59,4.27-5.17,1.84-1.87,3.87-3.51,6.05-4.92,9.44-6.08,21.85-7.86,36.44-5.09,5.63,1.07,11,3.05,16.06,5.88,4.38,2.46,8.54,5.57,12.44,9.3.31.28.59.54.9.82.34.34.65.68.99.99.31.34.62.68.96,1.02,3.36,3.65,6.13,7.38,8.28,10.69,2.18,3.36,3.76,6.3,4.78,8.4.68,1.36,1.13,2.37,1.33,2.88l.96-.4,1.75-.74c-.06-.11-.11-.31-.2-.51-.11-.23-.2-.45-.34-.71-.11-.28-.25-.57-.4-.9-.17-.31-.34-.68-.54-1.05-.25-.57-.59-1.22-.93-1.87-.37-.68-.76-1.41-1.19-2.15-2.6-4.61-6.62-10.66-12.19-16.48-.14-.14-.25-.28-.39-.42.17-.25.34-.54.51-.82,4.33-7.01,8.96-13.85,13.88-20.5,2.49-3.31,5.03-6.56,7.63-9.75s5.29-6.33,8-9.41c3.59-4.01,7.35-7.89,11.17-11.7,6.64-6.62,13.54-12.95,20.78-18.83l-1.84-2.29c-7.72,6.28-15.07,12.98-22.08,20.05-.79.82-1.55,1.64-2.35,2.43-1.13,1.19-2.29,2.32-3.42,3.53-.96-3.11-1.87-6.14-2.77-9.16-1.81-6.11-3.51-12.1-5.09-18.09-2.32-8.71-4.44-17.56-6.39-26.46,46,15.75,93.75,24.85,142.04,27,7.63.34,15.27.54,22.9.54,10.94,0,21.85-.37,32.77-1.07,28.16-1.84,56.09-6.02,83.66-12.52,14.05-3.34,27.99-7.24,41.84-11.76,1.58-.51,3.14-1.05,4.72-1.58,2.74-.9,5.46-1.81,8.17-2.77-.14,1.13-.31,2.21-.48,3.25-.06.4-.11.74-.17,1.1-.11.71-.23,1.36-.34,2.04-.14.73-.28,1.47-.43,2.12-.42,2.12-.85,3.79-1.24,5.29-.48,1.84-.96,3.7-1.44,5.57-.51,1.87-.99,3.73-1.53,5.6-1.72,6.3-3.59,12.67-5.91,18.97-.56,1.58-1.16,3.17-1.81,4.75-.93,2.35-1.95,4.72-3.05,7.07-.34.79-.74,1.58-1.1,2.35t-.03.03c-.17.4-.37.79-.57,1.16-.23.48-.48.93-.71,1.41-.37.71-.74,1.41-1.13,2.12-3.96,7.35-8.88,14.62-15.1,21.71-5.12,5.85-10.69,10.86-17.02,15.38-1.78,1.27-3.59,2.52-5.51,3.7-.71.45-1.44.9-2.18,1.36-.73.45-1.47.88-2.23,1.3-.37.23-.73.42-1.13.65-.37.23-.76.45-1.16.65-.79.45-1.58.88-2.37,1.3-.79.45-1.61.88-2.46,1.3-.59.31-1.19.59-1.78.9-.57.28-1.16.57-1.75.85-.4.2-.79.4-1.19.59-.08.06-.23.11-.31.14-1.89.9-3.85,1.84-5.88,2.71-.59.28-1.19.54-1.81.82-.2.08-.4.17-.62.25-.25.11-.54.25-.82.37-.57.25-1.1.48-1.67.73-.56.23-1.13.48-1.7.74-.59.23-1.16.48-1.73.71-.82.34-1.61.68-2.43,1.02-.96.4-1.95.79-2.97,1.19-3.67,1.47-7.52,2.97-11.59,4.52-1.33.51-2.74,1.05-4.13,1.55ZM547.5,478.35c-1.72,6.53-3.45,11.42-5.23,15.49-1.84,4.18-3.67,7.55-5.57,10.97-3.11,5.68-6.39,11.54-9.98,21.69-5.77,16.26-6.87,27.96-7.69,36.5-.96,10.15-1.53,16.26-8.26,22.36-11.82,10.72-32.29,12.61-46.57,4.27-9.64-5.63-16.17-15.55-19.37-29.52-1.72-7.41-1.75-15.01-.11-22.67l.11-.45.14-.57c4.86.14,9.73.23,14.59.23h.91v-2.94h-.91c-29.55,0-59.15-2.74-87.98-8.14-10.38-1.95-20.78-4.3-31.04-6.93,22.51-8.59,38.82-15.83,51.85-24.8,7.32-5,13.63-10.55,19.42-17.16,20.38-23.24,26.77-47.98,32.99-71.9.42-1.64.88-3.45,1.33-5.71,28.3,14.53,54.79,23.83,78.77,27.59l.76.11c6.19.96,15.55,2.4,21.35,9.73,8.57,10.86,3.87,28.78.48,41.84Z"/>
          <path class="cls-6" d="M446.44,282.45c7.24-2.41,14.75-4.24,22.31-5.44l-.46-2.91c-7.72,1.23-15.38,3.1-22.78,5.55-12.97,4.31-25.3,10.48-36.66,18.33l1.68,2.42c11.13-7.69,23.21-13.74,35.92-17.96Z"/>
          <path class="cls-6" d="M440.6,324.84c-9.77.54-19.59,1.84-29.2,3.86l.61,2.89c9.46-1.99,19.13-3.27,28.75-3.8,7.25-.4,14.62-.38,21.89.05l.18-2.94c-7.38-.44-14.86-.46-22.22-.05Z"/>
        </g>
      </g>
      <g>
        <path class="cls-8" d="M359.81,204.97c2.8-1.83,5.36-3.85,7.6-6.11,8.63-8.69,13.93-21.32,14.89-35.51,2.44-35.67-16.93-66.79-50.53-81.22-51.63-22.17-75.96,3.93-84.04,16.18-7.09,10.76-10.66,23.98-10.36,38.23.1,4.31.56,8.59,1.31,12.84,3.04,16.73,11.12,32.43,22.81,43.63,10.08,9.65,24.29,16.49,39.7,19.77,11.49,2.44,23.66,2.9,35.29,1.01,2.58-.42,5.1-.99,7.52-1.69l15.82-7.13ZM285.43,132.28c-1.81,5.72-4.84,9.63-9.07,11.61-2.06.95-4.25,1.39-6.45,1.39-6.55,0-13.2-3.81-16.79-8.67-3.85-5.18-5.18-12.66-3.47-19.53,1.39-5.6,4.54-9.83,8.89-11.91,7.88-3.77,17.59.38,22.69,6.21,7.84,8.91,4.35,20.4,4.21,20.9Z"/>
        <path class="cls-1" d="M112.45,191.35c9.49,3.2,20.75,2.15,29.38-2.73h0c5.96-3.36,11.96-9.01,11.05-11.75-.79-2.4-7.46-3.54-13.45-3.27-6.39.3-10.3,2.4-14.08,4.44-3.88,2.09-7.91,4.26-14.12,4.1-3.81-.08-7.57-.99-11.17-2.69-3.64-1.72-6.02-3.74-6.81-4.41-.12-.1-.43-.36-.87-.76,1.93,3.28,4.43,6.64,7.63,9.61,3.64,3.41,7.83,5.92,12.44,7.47Z"/>
        <path class="cls-8" d="M201.36,67.02c-14.89,6.65-37.83,19.33-58.79,41.03-8.26,8.51-16.22,18.44-23.24,29.95-.87,1.41-1.75,2.9-2.6,4.41-10.82-.95-20.94,5.02-21.38,5.26-1.83,1.07-3.75,2.2-5.44,3.65-1.01.87-1.91,1.83-2.66,2.96-.32-.75-.6-1.51-.87-2.28-3.37-8.79-4.96-18-4.64-27.09.02-.73.04-1.47.1-2.2.34-5.02,1.31-9.98,2.8-14.81.08,0,.14.02.2.02,2.18,0,4.72-1.51,6.83-3.12,2.1-1.63,3.77-3.33,4.15-3.73,6.41-6.79,9.61-16.85,8.91-22.29-.14-1.01-.42-1.83-.81-2.5,8.97-9.61,17.94-14.87,21.48-16.71,19.39-10.2,37.51-12.46,53.89-6.73,8.22,2.88,15.62,7.66,22.09,14.19Z"/>
        <path class="cls-5" d="M199.17,178.97c-2,14.87-13.91,25.53-24.14,32.1-5.38,3.45-10.3,5.76-13.06,6.95-8.99,3.85-27.67,11.89-47.14,3.2-6.19-2.78-11.69-6.87-16.32-12.15l-.36-.44c-4.51-5.26-7.07-10.38-8.2-12.98-.22-.54-.4-1.05-.62-1.59-2.34-5.9-3.31-11.57-3.51-16.67-.14-3.26.04-6.27.4-8.95.83,2.04,1.89,4.29,3.2,6.61,2.1,3.71,4.9,7.6,8.57,11,3.95,3.71,8.5,6.43,13.52,8.12,4.01,1.35,8.24,2,12.46,2,6.75,0,13.48-1.69,19.29-4.96,5.1-2.88,14.23-9.75,12.41-15.26-1.87-5.66-13.99-5.4-16.39-5.28-7.05.34-11.45,2.7-15.34,4.78-3.85,2.08-7.19,3.89-12.66,3.75-3.37-.08-6.73-.87-9.96-2.4-3.29-1.57-5.46-3.39-6.17-4.01-.06-.04-.36-.3-.81-.73-1.63-1.49-5.24-5.16-6.99-9.47.44-1.75.89-3.22,1.27-4.33,1.13-3.89,4.74-5.99,8.24-8.04.42-.24,10.3-6.07,20.5-4.78,2.32.3,4.51.95,6.51,1.98.3.16.58.34.87.52,3.49,2.08,4.86,4.62,6.27,7.3.02.04.04.08.06.12,1.53,2.9,3.14,5.89,7.46,7.74,4.9,2.12,8.75.81,14.05-1.01,4.13-1.43,9.27-3.2,16.95-4.21,9.39-1.23,20.03-2.62,25.78,3.16,3.65,3.65,4.94,9.69,3.85,17.94Z"/>
        <path class="cls-8" d="M438.53,78.87c-.46-1.55-1.09-3.65-1.89-6.09-3.04-9.33-8.59-24.31-16.79-38.33-10.6-18.1-21.91-28.28-33.58-30.27-4.31-.73-11.21-.34-26.44,9.31-13,8.22-24.79,18.64-35.21,31.06-3.39,4.05-6.63,8.3-9.73,12.76,8.18,2.08,16.18,4.78,23.9,8.12,12.8,5.5,37.67,18.6,60.44,44.48,21.44,24.37,30.31,48.33,35.07,61.21.75,2,1.61,4.43,2.48,7.32,10.62-31.46,11.25-66.73,1.75-99.58ZM355.2,67.26l-2.6-1.37c2.88-5.48,6.31-10.6,10.24-15.34,1.59-1.91,3.26-3.79,5-5.58,7.54-7.64,16.34-13.79,26.16-18.3l1.21,2.68c-9.49,4.35-17.98,10.3-25.27,17.69-1.33,1.35-2.58,2.76-3.81,4.19-4.23,4.9-7.9,10.26-10.94,16.04ZM399.78,81.47c-3.55,2.64-6.79,5.74-9.61,9.17l-2.28-1.87c2.98-3.61,6.39-6.87,10.12-9.67,5.16-3.87,10.94-6.83,17.15-8.79l.89,2.8c-5.89,1.89-11.37,4.68-16.28,8.36ZM425.53,120.02c-2.34,1.85-4.6,3.83-6.75,5.89l-2.04-2.12c2.2-2.12,4.54-4.19,6.97-6.09,3.16-2.52,6.53-4.86,10-6.97l1.53,2.52c-3.37,2.04-6.63,4.33-9.71,6.77Z"/>
        <path class="cls-8" d="M343.99,212.09c5.8-1.66,11.15-4.07,15.82-7.12-6.19,1.17-12.55,2.24-19.03,3.22,1.09,1.29,2.17,2.59,3.22,3.91Z"/>
        <path class="cls-8" d="M112.5,462.35c-2.6,3.2-5.14,6.45-7.62,9.77,2.46-3.29,5-6.57,7.62-9.77Z"/>
        <path class="cls-8" d="M443.96,394.59h0c.06-.37.13-.72.18-1.1-.06.38-.13.73-.19,1.1Z"/>
        <polygon class="cls-8" points="306.22 418.86 306.22 418.86 306.22 418.86 306.22 418.86"/>
        <path class="cls-3" d="M361.36,507.04l.83-.36c-.28.12-.56.26-.83.38-.56.24-1.11.48-1.67.71-.56.24-1.13.5-1.71.73-.58.24-1.15.48-1.73.71.58-.24,1.15-.48,1.73-.73,1.15-.48,2.26-.95,3.37-1.45Z"/>
        <path class="cls-3" d="M362.19,506.69c.83-.36,1.63-.71,2.42-1.07-.6.28-1.19.54-1.81.81-.2.08-.4.18-.61.26Z"/>
        <path class="cls-3" d="M370.8,502.74c.4-.18.79-.38,1.19-.58-.4.2-.79.4-1.19.6-.1.04-.22.1-.32.14.1-.06.22-.1.32-.16Z"/>
        <path class="cls-3" d="M376.57,499.85c.47-.24.95-.48,1.4-.74-.46.26-.91.5-1.39.73-.36.2-.69.38-1.05.56-.6.32-1.19.62-1.79.91-.58.3-1.15.58-1.75.85.6-.3,1.17-.58,1.75-.87.97-.47,1.9-.95,2.83-1.44Z"/>
        <path class="cls-3" d="M427.09,448.33c.4-.77.77-1.57,1.13-2.34-.36.77-.73,1.57-1.11,2.34t-.02.02v-.02Z"/>
        <path class="cls-2" d="M547.49,478.34c-1.73,6.55-3.45,11.43-5.22,15.5-1.83,4.19-3.67,7.54-5.58,10.98-3.12,5.68-6.37,11.53-9.98,21.69-5.76,16.24-6.87,27.95-7.68,36.48-.95,10.14-1.53,16.26-8.26,22.37-11.83,10.72-32.29,12.6-46.56,4.27-9.65-5.62-16.18-15.54-19.37-29.51-1.71-7.4-1.75-15.03-.1-22.69l.1-.44.14-.58c4.86.16,9.75.24,14.61.24h.89v-2.96c-.3,0-.6.02-.89.02-29.55,0-59.17-2.76-87.99-8.16-10.38-1.95-20.8-4.29-31.06-6.93,22.53-8.59,38.82-15.84,51.86-24.79,7.32-5,13.62-10.54,19.41-17.15,20.38-23.24,26.8-47.99,33.01-71.91.42-1.63.87-3.43,1.33-5.72,28.3,14.55,54.8,23.84,78.76,27.59l.77.14c6.19.95,15.54,2.4,21.34,9.73,8.57,10.86,3.89,28.76.48,41.82Z"/>
        <path class="cls-8" d="M90.34,322.78c-2,.07-4,.34-5.96.82l-.7-2.87c2.15-.52,4.36-.83,6.56-.9.96-.03,1.92,0,2.87.05-1.87-16.43-3-34.21-2.52-53.45-1.02-.23-2.06-.43-3.09-.57-2.8-.39-5.66-.47-8.5-.23l-.24-2.94c3.05-.25,6.13-.16,9.14.25.94.13,1.87.3,2.8.5.17-5.02.42-10.1.82-15.31.02-.31.06-.62.08-.93-6-2.71-11.03-3.65-14.56-2.68-3.78,1.04-6.2,4.17-6.57,16.51-.33,11.19,1.27,17.48,2.96,24.14,1.39,5.47,2.83,11.12,3.25,19.7.15,3.01.13,5.61.12,8.13-.03,5.72-.06,10.65,1.76,18.6,2.52,11.02,5.68,14.66,10.28,17.23,3.56,1.99,6.74,2.93,8.95,3.39-1.58-9.23-3.1-19.02-4.34-29.35-1.04-.07-2.08-.11-3.11-.08Z"/>
        <path class="cls-9" d="M276.74,352.23c-1.25,21.52-3.81,43.15-7.76,64.69-6.09-.04-12.19-.18-18.3-.46-48.57-2.16-96.64-11.39-142.89-27.39-1.27-5.99-2.5-12.01-3.61-18.02-1.11-5.99-2.26-12.27-3.39-18.82-5-29.1-9.43-63.59-6.31-103.87.16-2.22.36-4.45.58-6.71l.12-1.27c.16-1.63.32-3.2.46-4.78.1-.85.18-1.67.26-2.52.69-6.93,1.39-13.66,2.22-20.13,4.53,4.66,9.73,8.36,15.52,10.94,6.81,3.06,13.5,4.17,19.73,4.17,12.68,0,23.52-4.64,29.81-7.34,3.33-1.45,9.73-4.49,16.41-9.17,9.53-6.69,19.63-16.75,22.19-30.33,5.99,2.32,12.56,5.36,19.29,9.23,4.03,2.3,8.12,4.94,12.15,7.9l18.2,16.59c4.05,4.6,7.84,9.69,11.19,15.34,5.56,9.39,13.16,27.55,14.75,76.67.48,14.99.26,30.11-.62,45.27Z"/>
        <path class="cls-2" d="M443.96,394.58c-.12.69-.22,1.37-.34,2.02-.14.75-.28,1.47-.42,2.14-.44,2.1-.85,3.77-1.25,5.28-.48,1.85-.95,3.69-1.45,5.56v.02c-.5,1.85-.99,3.71-1.51,5.58-1.73,6.31-3.61,12.66-5.91,18.98-.58,1.59-1.17,3.16-1.81,4.74-.95,2.36-1.96,4.72-3.06,7.09-.36.77-.73,1.57-1.13,2.34v.02c-.18.4-.38.79-.58,1.17-.24.48-.48.95-.71,1.41-.36.69-.73,1.41-1.11,2.1-3.97,7.36-8.87,14.63-15.1,21.71-5.12,5.86-10.68,10.86-17.03,15.4-1.77,1.27-3.59,2.5-5.5,3.69-.71.46-1.45.91-2.18,1.35-.73.44-1.47.87-2.22,1.31l-1.13.65c-.38.22-.77.44-1.17.66-.79.44-1.57.87-2.38,1.29-.46.26-.91.5-1.39.73-.93.5-1.87.97-2.84,1.45-.58.3-1.15.58-1.75.87-.4.2-.79.4-1.19.58-.1.06-.22.1-.32.16-1.91.91-3.85,1.83-5.88,2.72-.79.36-1.59.71-2.42,1.07l-.83.36c-1.11.5-2.22.97-3.37,1.45-.58.26-1.15.5-1.73.73-.79.34-1.61.67-2.42,1.01-.97.4-1.95.79-2.96,1.19-3.67,1.47-7.52,2.98-11.59,4.53-1.35.52-2.74,1.05-4.13,1.57-.81.3-1.67.62-2.5.93-6.83,2.54-14.23,5.26-22.05,8.12-.4.14-.79.3-1.19.44l-.1.04-.18.06c-.99.36-1.96.71-2.92,1.05-4.17,1.51-7.94,2.8-11.43,3.97-4.88,1.65-9.15,3-13.1,4.21-.58.18-1.13.34-1.67.52-1.09.34-2.18.66-3.24.97-.54.16-1.05.32-1.57.48-1.15.34-2.26.67-3.39,1.03-2.24.67-4.47,1.37-6.75,2.08-1.13.36-2.28.73-3.43,1.11-1.17.38-2.34.77-3.55,1.19-3.63,1.23-7.5,2.64-11.85,4.31-4.29,1.65-9.03,3.55-14.45,5.86l-.36.16c-10.84,4.6-19.67,8.36-27.59,12.03-11.49,5.32-21.02,10.44-31.76,17.67-1.65,1.11-3.24,2.2-4.72,3.28-2.26,1.59-4.35,3.14-6.31,4.64-1.95,1.49-3.77,2.94-5.46,4.33-2.12,1.75-4.05,3.41-5.84,5-2.98,2.66-5.56,5.1-7.94,7.36-2.2,2.08-4.19,3.95-6.11,5.62-3.67,3.2-7.11,5.6-11.39,7.17-2.16.81-4.57,1.39-7.32,1.77-8.46,1.13-17.03-.14-25.09-2.94-6.71-2.32-13.06-5.72-18.7-9.65-.69-.5-1.39-.99-2.08-1.51-.67-.52-1.35-1.03-1.98-1.55h-.02c-.65-.54-1.29-1.05-1.91-1.59h-.02c-.63-.54-1.23-1.07-1.83-1.61h-.02c-.6-.56-1.17-1.09-1.75-1.65-.58-.54-1.13-1.09-1.67-1.65-1.09-1.13-2.1-2.24-3.06-3.37-.32-.38-.62-.73-.89-1.09-.3-.36-.56-.71-.81-1.05-.52-.67-.99-1.33-1.41-1.95-.83-1.25-1.51-2.4-2.08-3.51-.2-.4-.4-.79-.58-1.19-.36-.79-.69-1.57-1.01-2.34-.16-.4-.32-.79-.46-1.19-.1-.24-.18-.48-.28-.71-1.43-3.71-3.02-7.88-7.28-14.19-.68-.99-1.41-2.04-2.22-3.16-8.52-11.59-16.2-17.27-22.35-21.81-6.51-4.82-11.23-8.3-13.85-16.41-3.65-11.27-1.23-24.79,5.8-34.93,1.27-1.85,2.68-3.59,4.27-5.18,1.85-1.87,3.87-3.49,6.05-4.9,9.43-6.09,21.85-7.86,36.44-5.1,5.64,1.07,11,3.06,16.06,5.88,4.39,2.46,8.53,5.58,12.45,9.31.3.28.6.54.89.83.34.34.66.66.99.99.32.34.64.67.95,1.01,3.37,3.65,6.13,7.36,8.3,10.68,2.16,3.35,3.75,6.29,4.78,8.4.67,1.37,1.11,2.38,1.33,2.9l.95-.4,1.77-.73c-.06-.14-.14-.32-.22-.52-.1-.22-.2-.46-.32-.71-.12-.28-.26-.58-.42-.89-.14-.32-.32-.67-.52-1.05-.28-.58-.6-1.21-.95-1.87-.36-.67-.75-1.41-1.19-2.16-2.6-4.6-6.61-10.66-12.17-16.47-.14-.14-.26-.28-.4-.42.16-.26.34-.54.5-.81,4.33-7.03,8.97-13.87,13.89-20.5,2.48-3.31,5.02-6.57,7.62-9.77,2.6-3.2,5.28-6.33,8.02-9.41,3.57-4.01,7.34-7.9,11.15-11.71,6.63-6.61,13.56-12.94,20.78-18.84l-1.85-2.28c-7.7,6.27-15.07,12.98-22.07,20.05-.79.81-1.57,1.63-2.36,2.44-1.13,1.17-2.28,2.32-3.39,3.51-.97-3.1-1.89-6.13-2.78-9.15-1.81-6.09-3.51-12.09-5.1-18.08-2.3-8.71-4.43-17.57-6.37-26.46,45.99,15.74,93.74,24.83,142.02,26.99,7.66.34,15.28.52,22.93.52,10.94,0,21.85-.36,32.75-1.07h.02c28.15-1.83,56.07-6.01,83.64-12.52,14.05-3.31,28.01-7.22,41.86-11.75h12.23Z"/>
        <path class="cls-3" d="M112.5,462.35c-2.6,3.2-5.14,6.45-7.62,9.77,2.46-3.29,5-6.57,7.62-9.77Z"/>
        <path class="cls-3" d="M444.62,390.22c-.14,1.13-.3,2.22-.48,3.28-.06.38-.12.73-.18,1.09h-12.23c4.31-1.41,8.59-2.84,12.88-4.37Z"/>
        <path class="cls-3" d="M356.25,509.23c.58-.24,1.15-.48,1.73-.73v.02c-.58.24-1.15.48-1.73.71Z"/>
        <path class="cls-3" d="M357.98,508.49c1.15-.48,2.26-.95,3.37-1.45v.02c-.56.24-1.11.48-1.67.71-.58.24-1.13.48-1.71.71Z"/>
        <path class="cls-3" d="M362.19,506.69c.83-.36,1.63-.71,2.42-1.07-.6.28-1.19.54-1.81.81-.2.08-.4.18-.61.26Z"/>
        <path class="cls-3" d="M370.49,502.9c.1-.06.22-.1.32-.16v.02c-.1.04-.22.1-.32.14Z"/>
        <path class="cls-3" d="M371.99,502.16c.6-.3,1.17-.58,1.75-.87v.02c-.58.3-1.15.58-1.75.85Z"/>
        <path class="cls-3" d="M376.58,499.84c-.36.2-.69.38-1.05.56-.6.3-1.19.6-1.79.89.97-.48,1.91-.95,2.84-1.45Z"/>
        <path class="cls-3" d="M427.09,448.33c.4-.77.77-1.57,1.13-2.34-.36.77-.73,1.57-1.11,2.34h-.02Z"/>
        <path class="cls-8" d="M483.09,287.48c-.08-2-.1-4.15-.14-6.37-.18-12.68-.4-27.07-10.08-34.4-12.62-9.59-32.77-.08-46.11,6.21l-.85.4c-15.86,7.48-29.24,17.61-39.74,30.07.91,9.23,1.25,21.02-.42,34.52-1.71,13.81-5.02,25.39-8.3,34.32-.18.5-.38,1.03-.56,1.53,8.02,8.75,17.51,15.36,28.18,19.63,10.3,4.11,45.39,15.6,63.55-8.61,2.68-3.57,4.92-7.72,6.81-12.54,1.53-3.87,2.82-8.16,3.95-13.04,3.37-14.83,4.56-31.26,3.69-51.71ZM462.64,327.83c-7.26-.44-14.63-.46-21.87-.06-9.63.54-19.29,1.83-28.76,3.81l-.6-2.88c9.59-2.02,19.41-3.33,29.18-3.87,7.36-.42,14.85-.4,22.23.04l-.18,2.96ZM446.45,282.44c-12.7,4.23-24.79,10.28-35.93,17.96l-1.67-2.42c11.35-7.86,23.7-14.01,36.66-18.34,7.4-2.44,15.06-4.33,22.79-5.56l.46,2.92c-7.56,1.21-15.07,3.04-22.31,5.44Z"/>
        <path class="cls-2" d="M443.69,382.12c-.63.1-1.27.18-1.93.24-2,.2-4.01.32-5.97.32-5.48,0-10.78-.69-15.54-1.69-1.79-.36-3.49-.77-5.1-1.19-2.68-.71-5.1-1.47-7.15-2.18-1.57-.54-2.92-1.05-4.01-1.49-11.09-4.43-20.94-11.29-29.28-20.38l1.63-1.47.56-.52c.18-.5.38-1.03.56-1.53,3.27-8.93,6.59-20.5,8.3-34.32,1.67-13.5,1.33-25.29.42-34.52l-2.26-1.89c10.78-12.82,24.49-23.18,40.75-30.84l.85-.42c5.16-2.44,11.31-5.34,17.72-7.48-2.66-35.39-5.89-51.15-8.24-59.86-.14-.5-.26-.97-.4-1.45-1.07-3.83-2.14-6.85-3.06-9.31-4.7-12.68-13.46-36.32-34.54-60.28-22.37-25.47-46.82-38.33-59.39-43.73-14.27-6.15-29.45-10.18-45.14-11.97-30.51-3.47-56.57,1.93-73.06,7.09-4.62,1.45-9.81,3.37-14.93,5.62-14.15,6.11-36.96,18.24-58.02,39.42-8.75,8.77-17.23,19.11-24.63,31.24-.66,1.09-1.33,2.2-1.98,3.35,1.89.42,3.67,1.05,5.36,1.91,1.79.93,3.18,1.98,4.29,3.08,1.98,1.95,3.1,4.05,4.13,5.99.1.2.18.38.28.56,1.31,2.48,2.6,4.6,5.8,5.97,3.85,1.67,6.89.62,11.93-1.11,4.25-1.47,9.55-3.29,17.51-4.33,4.49-.6,9.25-1.21,13.73-1.11,4.88.1,9.47,1.05,13.06,3.81.52.4,1.01.81,1.47,1.29,4.15,4.15,5.74,10.64,4.8,19.25,6.03,2.34,12.72,5.36,19.55,9.23,4.07,2.28,8.18,4.9,12.27,7.84,7.44,5.36,14.73,11.81,21.26,19.63,3.53,4.23,6.87,8.83,9.86,13.87,5.74,9.67,13.54,28.28,15.14,78.08.5,15.03.26,30.17-.62,45.37-1.23,21.54-3.79,43.17-7.72,64.73,11.45.02,22.89-.38,34.26-1.11,1.61-.12,3.2-.2,4.8-.32,17.05-1.27,34-3.41,50.85-6.41,20.25-3.59,40.27-8.44,60.12-14.53h.02c3.85-1.19,7.7-2.4,11.53-3.67,3.83-1.29,7.68-2.6,11.49-3.97.12-1.05.24-2.18.36-3.31.06-.6.12-1.17.18-1.79-.64.12-1.27.2-1.89.28ZM366.56,203.64c-6.55,5.62-13.93,8.97-20.6,10.98-3.22.97-6.29,1.65-9.01,2.08-4.98.81-10.08,1.19-15.16,1.19-10.12,0-20.25-1.55-29.71-4.45-12.62-3.87-24.06-10.12-32.63-18.32-12.39-11.87-20.9-28.62-23.88-46.39-.66-4.01-1.05-8.08-1.15-12.15-.32-14.85,3.43-28.66,10.86-39.92,9.65-14.63,23.1-23.18,40.01-25.43,14.31-1.91,30.8.93,47.66,8.16,34.79,14.95,54.84,47.18,52.32,84.14-1.03,14.91-6.61,28.18-15.74,37.39-.95.95-1.95,1.85-2.96,2.7Z"/>
        <path class="cls-4" d="M441.86,536.78h.02c.02-.14.04-.28.08-.42l-.1.42Z"/>
        <g>
          <path class="cls-7" d="M336.94,216.7c2.72-.44,5.8-1.11,9.01-2.08,6.67-2,14.05-5.36,20.6-10.98,1.01-.85,2-1.75,2.96-2.7,9.13-9.21,14.71-22.49,15.74-37.39,2.52-36.96-17.53-69.19-52.32-84.14-16.85-7.22-33.35-10.06-47.66-8.16-16.91,2.24-30.37,10.8-40.02,25.43-7.42,11.25-11.18,25.07-10.86,39.92.1,4.07.5,8.14,1.15,12.15,2.98,17.76,11.49,34.52,23.88,46.39,8.57,8.2,20.01,14.45,32.63,18.32,9.47,2.9,19.59,4.45,29.71,4.45,5.08,0,10.18-.38,15.16-1.19ZM261.48,193c-11.69-11.19-19.77-26.89-22.81-43.63-.76-4.25-1.21-8.53-1.31-12.84-.3-14.25,3.27-27.47,10.36-38.23,8.08-12.25,32.41-38.35,84.04-16.18,33.6,14.43,52.98,45.55,50.53,81.22-.95,14.19-6.25,26.82-14.89,35.51-2.24,2.26-4.8,4.29-7.6,6.11-4.66,3.06-10.02,5.46-15.82,7.13-2.42.69-4.94,1.27-7.52,1.69-11.63,1.89-23.8,1.43-35.29-1.01-15.4-3.28-29.61-10.12-39.7-19.77Z"/>
          <path class="cls-7" d="M258.53,105.17c-4.34,2.08-7.5,6.31-8.89,11.91-1.7,6.86-.37,14.35,3.47,19.53,3.6,4.86,10.25,8.67,16.8,8.67,2.2,0,4.39-.43,6.45-1.4,4.22-1.98,7.27-5.89,9.06-11.61.15-.49,3.63-11.98-4.2-20.9-5.11-5.83-14.81-9.98-22.7-6.2Z"/>
          <path class="cls-7" d="M366.14,51.22c1.23-1.43,2.48-2.84,3.81-4.19,7.28-7.38,15.78-13.34,25.27-17.69l-1.21-2.68c-9.83,4.51-18.62,10.66-26.16,18.3-1.75,1.79-3.41,3.67-5,5.58-3.93,4.74-7.36,9.86-10.24,15.34l2.6,1.37c3.04-5.78,6.71-11.13,10.94-16.04Z"/>
          <path class="cls-7" d="M387.89,88.78l2.28,1.87c2.82-3.43,6.05-6.53,9.61-9.17,4.9-3.67,10.38-6.47,16.28-8.36l-.89-2.8c-6.21,1.96-11.99,4.92-17.15,8.79-3.73,2.8-7.15,6.05-10.12,9.67Z"/>
          <path class="cls-7" d="M425.53,120.02c3.08-2.44,6.33-4.72,9.71-6.77l-1.53-2.52c-3.47,2.1-6.85,4.45-10,6.97-2.42,1.91-4.76,3.97-6.97,6.09l2.04,2.12c2.14-2.06,4.41-4.05,6.75-5.89Z"/>
          <path class="cls-7" d="M549.31,434.7c-6.5-8.26-16.94-9.87-23.18-10.83l-.76-.11c-23.86-3.76-50.32-13.09-78.65-27.71.08-.48.14-.96.23-1.47.65-3.9,1.19-8.31,1.64-13.37,8.31-2.04,16.26-6.45,22.42-14.67,3.03-4.07,5.54-8.76,7.63-14.31,1.38-3.7,2.6-7.8,3.65-12.38,3.42-15.1,4.64-31.78,3.76-52.47-.09-2.01-.11-4.13-.14-6.33-.2-12.67-.42-28.5-11.25-36.7-8.06-6.11-18.46-5.4-28.53-2.46-2.71-35.79-6.02-51.51-8.4-60.19.31-.14.59-.28.9-.42l.31.11c.03-.08.06-.2.08-.28,6.11-17.42,9.16-36.05,9.16-54.82,0-16.17-2.26-32.49-6.84-48.23-.28-.99-.65-2.21-1.07-3.59-2.83-9.1-8.74-25.9-17.87-41.48-11.06-18.91-23.04-29.57-35.65-31.69-4.83-.82-12.41-.45-28.5,9.7-13.77,8.74-26.18,19.85-37.09,33.19-3.25,3.93-6.36,8.06-9.33,12.38-6.25-1.47-12.58-2.57-19.03-3.31-30.99-3.56-57.51,1.95-74.24,7.18-5.51,1.72-10.66,3.79-14.31,5.32-6.95-7.27-15.01-12.55-24-15.69-17.16-6.02-36.08-3.7-56.23,6.9-3.7,1.92-13.15,7.46-22.53,17.59-.62-.08-1.33-.08-2.09.11-4.13.99-10.38,6.67-13.97,12.64-3.53,5.91-6.28,15.66-3.45,19.25-1.64,5.17-2.69,10.55-3.08,15.95-.11,1.55-.17,3.08-.17,4.67,0,8.54,1.61,17.19,4.72,25.47.68,1.78,1.39,3.53,2.21,5.29-1.39,4.1-3.37,11.9-2.66,21.43.31,4.24,1.13,8.82,2.77,13.6.45,1.27.93,2.57,1.53,3.87,1.13,2.66,3.73,7.86,8.23,13.23-.99,7.24-1.78,14.76-2.54,22.59-.06.54-.11,1.05-.17,1.58-.17,1.95-.37,3.9-.56,5.88l-.11,1.27c-.09.9-.17,1.81-.23,2.71-4.72-2.01-10.74-3.76-15.64-2.4-6.84,1.89-8.4,8.76-8.71,19.25-.34,11.62,1.3,18.09,3.05,24.96,1.36,5.32,2.74,10.83,3.17,19.11.14,2.94.11,5.48.11,7.97-.06,5.65-.09,11,1.81,19.28,2.43,10.52,5.6,15.72,11.73,19.14.51.28,1.02.57,1.53.82,3.87,1.92,7.24,2.74,9.39,3.08.99,5.63,1.98,11.05,2.94,16.26,3,16.2,6.62,32.34,10.77,48.06,1.41,5.29,2.88,10.55,4.44,15.89,1.16,3.87,2.32,7.8,3.56,11.82l2.2-.71c-1.33,1.44-2.66,2.88-3.93,4.35-11.17,12.5-21.23,26.04-30,40.35-8.74-8.23-18.69-13.49-29.57-15.58-18.97-3.59-34.58.17-45.15,10.86-2.18,2.18-4.07,4.61-5.71,7.24-6.67,10.66-8.79,24.34-5.06,35.85,2.91,9.02,8.2,12.92,14.9,17.87,5.99,4.44,13.46,9.95,21.71,21.18,5.77,7.86,7.58,12.52,9.13,16.68,1.58,4.13,3.08,8.03,8.03,13.88,11.51,13.6,32.65,26.94,54.14,26.94,2.23,0,4.44-.14,6.64-.42,11.96-1.61,17.73-7.07,26.44-15.32,6.79-6.45,15.21-14.42,29.91-24.31,17.9-12.04,32.43-18.24,58.84-29.43l.37-.14c19.93-8.45,30.68-11.7,43.12-15.49,8.14-2.46,17.25-5.2,30.17-9.81,1.27-.45,2.57-.93,3.93-1.41l.28-.11c9.05-3.31,17.59-6.45,25.33-9.33,11.62,3.08,23.49,5.8,35.28,8,23.27,4.38,47.05,7.01,70.91,7.86v.06c-.03.14-.06.28-.08.4-1.75,8.09-1.7,16.17.08,24,3.39,14.81,10.38,25.36,20.75,31.44,6.42,3.7,14.02,5.54,21.6,5.54,10.52,0,21.03-3.48,28.41-10.21,7.61-6.87,8.31-14.16,9.25-24.26.82-8.85,1.89-19.9,7.52-35.76,3.53-9.95,6.7-15.72,9.78-21.26,2.12-3.85,4.18-7.55,6.19-12.41,1.64-3.96,3.25-8.62,4.86-14.76,3.59-13.66,8.48-32.37-1.02-44.39ZM324.63,44.57c10.4-12.44,22.19-22.84,35.2-31.07,15.21-9.64,22.14-10.04,26.44-9.3,11.68,1.98,22.99,12.16,33.59,30.25,8.2,14.02,13.74,29.01,16.79,38.34.79,2.43,1.41,4.55,1.89,6.08,9.5,32.85,8.85,68.14-1.75,99.6-.88-2.91-1.72-5.34-2.49-7.35-4.78-12.86-13.63-36.84-35.09-61.21-22.76-25.87-47.61-38.96-60.42-44.47-7.72-3.34-15.72-6.02-23.89-8.11,3.08-4.47,6.3-8.71,9.73-12.75ZM204.5,68.88c5.12-2.26,10.29-4.18,14.93-5.63,16.48-5.17,42.55-10.57,73.06-7.1,15.69,1.78,30.87,5.82,45.12,11.99,12.58,5.4,37.04,18.24,59.4,43.71,21.06,23.98,29.83,47.61,34.52,60.28.93,2.46,2.01,5.48,3.05,9.33.14.45.28.93.42,1.44,2.32,8.71,5.57,24.46,8.23,59.85-6.42,2.15-12.55,5.03-17.73,7.49l-.85.42c-16.26,7.66-29.97,18.01-40.74,30.85l2.26,1.87c10.49-12.47,23.86-22.59,39.72-30.05l.85-.4c13.35-6.3,33.5-15.8,46.11-6.22,9.7,7.32,9.9,21.71,10.09,34.38.03,2.23.06,4.38.14,6.39.85,20.44-.34,36.87-3.7,51.71-1.13,4.86-2.43,9.16-3.96,13.03-1.87,4.81-4.13,8.96-6.79,12.55-18.18,24.2-53.27,12.72-63.56,8.59-10.69-4.27-20.19-10.86-28.19-19.62l-.57.51-1.64,1.47c8.34,9.1,18.21,15.97,29.29,20.38,1.1.45,2.43.96,4.02,1.5,2.03.71,4.47,1.47,7.15,2.18,1.58.42,3.31.82,5.09,1.19,4.75.99,10.07,1.7,15.55,1.7,1.95,0,3.96-.11,5.97-.31.65-.08,1.3-.14,1.92-.25.62-.08,1.25-.14,1.89-.28-.06.62-.11,1.19-.2,1.78-.11,1.16-.23,2.29-.34,3.34-3.82,1.36-7.66,2.69-11.51,3.96-3.82,1.27-7.66,2.49-11.54,3.68-19.85,6.11-39.89,10.94-60.14,14.53-16.85,3-33.79,5.15-50.83,6.42-1.61.11-3.19.2-4.81.31-11.39.74-22.82,1.13-34.27,1.1,3.93-21.54,6.5-43.17,7.72-64.72.88-15.21,1.1-30.36.62-45.38-1.61-49.79-9.41-68.42-15.15-78.09-3-5.03-6.33-9.64-9.87-13.88-6.53-7.8-13.8-14.25-21.26-19.62-4.07-2.94-8.17-5.54-12.24-7.83-6.84-3.87-13.54-6.9-19.56-9.25.93-8.6-.65-15.1-4.81-19.25-.45-.45-.96-.88-1.47-1.27-3.59-2.77-8.17-3.7-13.06-3.82-4.47-.11-9.24.51-13.74,1.1-7.94,1.05-13.26,2.86-17.5,4.33-5.03,1.72-8.06,2.8-11.93,1.13-3.2-1.39-4.47-3.51-5.8-5.99-.08-.17-.17-.34-.25-.54-1.05-1.95-2.15-4.07-4.16-5.99-1.1-1.1-2.49-2.15-4.27-3.08-1.7-.85-3.48-1.5-5.37-1.92.65-1.13,1.33-2.26,1.98-3.34,7.41-12.13,15.89-22.48,24.65-31.24,21.06-21.18,43.85-33.31,58.02-39.41ZM81.74,124.92c-.34.23-.71.48-1.05.76.34-.28.71-.54,1.05-.79,0-.73.03-1.47.08-2.18.34-5.03,1.33-10.01,2.8-14.81h.2c4.35,0,10.24-6.05,10.97-6.84,5.85-6.16,9.02-15.07,9.02-20.72,0-.54-.03-1.07-.08-1.56-.14-1.02-.43-1.84-.82-2.52,8.96-9.58,17.92-14.84,21.46-16.71,19.39-10.21,37.52-12.47,53.89-6.73,8.23,2.88,15.63,7.66,22.11,14.19-14.9,6.64-37.83,19.34-58.81,41.02-8.26,8.54-16.2,18.46-23.24,29.97-.88,1.41-1.72,2.88-2.6,4.41-10.8-.96-20.92,5-21.37,5.26-1.81,1.07-3.73,2.21-5.43,3.65-1.02.85-1.92,1.84-2.66,2.94-.31-.74-.59-1.5-.88-2.26-3.36-8.79-4.98-18.01-4.64-27.09ZM89.97,195.63c-.23-.51-.4-1.05-.62-1.58-2.35-5.88-3.31-11.56-3.51-16.65-.14-3.25.03-6.28.4-8.96.82,2.04,1.89,4.3,3.19,6.62,2.12,3.7,4.89,7.58,8.57,11,3.96,3.7,8.51,6.42,13.51,8.11,4.01,1.36,8.26,2.01,12.5,2.01,6.73,0,13.46-1.7,19.28-4.98,5.09-2.86,14.22-9.75,12.38-15.24-1.87-5.68-13.97-5.4-16.37-5.29-7.07.31-11.48,2.69-15.35,4.78s-7.18,3.9-12.67,3.76c-3.39-.08-6.73-.9-9.95-2.43-3.31-1.55-5.46-3.39-6.19-3.99-.06-.06-.37-.31-.82-.74-1.61-1.5-5.23-5.17-6.98-9.47.45-1.75.91-3.22,1.27-4.33,1.16-3.9,4.75-5.99,8.26-8.03.37-.23,8.43-4.98,17.47-4.98.99,0,2.01.06,3.02.17,2.32.31,4.49.96,6.5,2.01.31.14.56.31.88.51,3.51,2.09,4.86,4.61,6.28,7.29.03.06.03.08.06.11,1.53,2.91,3.14,5.91,7.46,7.75,4.89,2.12,8.76.82,14.05-1.02,4.13-1.41,9.27-3.19,16.94-4.18,9.42-1.24,20.04-2.63,25.79,3.14,3.67,3.65,4.95,9.7,3.87,17.95-2.01,14.84-13.91,25.5-24.14,32.09-5.4,3.45-10.32,5.77-13.06,6.95-8.99,3.85-27.68,11.87-47.13,3.19-6.22-2.8-11.71-6.87-16.31-12.16l-.37-.42c-4.49-5.26-7.07-10.4-8.2-13.01ZM92.4,174.28c.43.4.74.65.85.76.79.65,3.17,2.69,6.81,4.41,3.59,1.7,7.35,2.6,11.17,2.69,6.22.17,10.24-2.01,14.14-4.1,3.76-2.04,7.69-4.16,14.08-4.44,5.99-.28,12.64.88,13.43,3.25.93,2.74-5.09,8.4-11.03,11.76-8.65,4.89-19.9,5.94-29.4,2.74-4.61-1.55-8.79-4.07-12.44-7.46-3.2-2.97-5.68-6.33-7.61-9.61ZM88.86,348.84c-4.61-2.57-7.77-6.22-10.29-17.25-1.81-7.94-1.78-12.86-1.75-18.58,0-2.52.03-5.12-.11-8.14-.42-8.57-1.87-14.22-3.25-19.71-1.7-6.64-3.31-12.95-2.97-24.14.37-12.33,2.77-15.47,6.56-16.51,3.53-.96,8.57-.03,14.56,2.69-.03.31-.06.62-.08.93-.4,5.2-.65,10.29-.82,15.32-.93-.2-1.87-.37-2.8-.51-3-.42-6.08-.51-9.13-.25l.23,2.94c2.85-.23,5.71-.14,8.51.23,1.05.14,2.06.34,3.08.57-.48,19.25.65,37.04,2.52,53.46-.93-.06-1.89-.08-2.85-.06-2.21.08-4.41.4-6.56.9l.68,2.86c1.98-.45,3.99-.74,5.97-.79,1.05-.06,2.09,0,3.11.06,1.24,10.35,2.77,20.13,4.35,29.38-2.2-.45-5.4-1.41-8.93-3.39ZM104.19,371.03c-1.13-5.99-2.26-12.24-3.39-18.8-5-29.09-9.44-63.59-6.33-103.87.17-2.21.37-4.44.59-6.7l.11-1.27c.14-1.61.31-3.19.45-4.81.08-.82.17-1.67.26-2.49.71-6.96,1.41-13.66,2.23-20.13,4.52,4.67,9.73,8.34,15.52,10.94,6.81,3.03,13.49,4.16,19.73,4.16,12.67,0,23.49-4.64,29.8-7.35,3.34-1.44,9.73-4.47,16.43-9.16,9.53-6.7,19.62-16.77,22.19-30.34,5.99,2.32,12.55,5.37,19.28,9.25,4.01,2.29,8.11,4.92,12.16,7.89l18.18,16.6c4.07,4.61,7.86,9.67,11.2,15.35,5.57,9.39,13.18,27.54,14.76,76.68.48,14.98.26,30.11-.62,45.26-1.24,21.52-3.82,43.14-7.75,64.69-6.11-.06-12.18-.2-18.32-.45-48.55-2.18-96.64-11.39-142.89-27.4-1.25-5.99-2.49-12.02-3.59-18.04ZM335.15,517.51c-.79.31-1.67.62-2.49.93-6.84,2.54-14.22,5.26-22.05,8.14-.4.11-.79.28-1.19.42l-.11.03-.17.08c-.99.34-1.98.71-2.91,1.05-4.18,1.5-7.94,2.8-11.45,3.96-4.86,1.64-9.13,3-13.09,4.21-.57.17-1.13.34-1.67.51-1.1.34-2.18.65-3.22.99-.54.14-1.07.31-1.58.45-1.16.34-2.26.68-3.39,1.05-2.23.68-4.47,1.36-6.76,2.09-1.13.34-2.26.74-3.42,1.1-1.16.37-2.35.76-3.56,1.19-3.62,1.24-7.49,2.66-11.85,4.3-4.27,1.67-9.02,3.56-14.45,5.88l-.37.14c-10.83,4.61-19.65,8.37-27.57,12.04-11.51,5.32-21.03,10.43-31.78,17.64-1.64,1.13-3.22,2.21-4.72,3.28-2.26,1.58-4.33,3.14-6.3,4.67-1.95,1.47-3.76,2.91-5.46,4.33-2.12,1.72-4.04,3.39-5.82,5-3,2.66-5.57,5.09-7.94,7.35-2.21,2.09-4.19,3.96-6.11,5.63-3.68,3.19-7.12,5.6-11.39,7.15-2.18.82-4.58,1.39-7.32,1.78-8.48,1.13-17.05-.14-25.11-2.94-6.7-2.32-13.06-5.74-18.69-9.67-.71-.48-1.38-.99-2.09-1.5-.68-.51-1.36-1.02-1.98-1.55h-.03c-.65-.54-1.27-1.05-1.89-1.58h-.03c-.62-.54-1.21-1.07-1.84-1.61-.59-.54-1.19-1.07-1.75-1.64-.56-.54-1.13-1.1-1.67-1.64-1.1-1.13-2.09-2.26-3.05-3.39-.31-.37-.62-.73-.9-1.07-.28-.37-.54-.71-.79-1.05-.54-.68-1.02-1.33-1.41-1.95-.85-1.24-1.53-2.4-2.09-3.51-.2-.4-.4-.82-.57-1.22-.4-.79-.71-1.55-1.02-2.32-.17-.4-.31-.79-.45-1.22-.11-.23-.2-.45-.28-.71-1.44-3.7-3.03-7.89-7.29-14.19-.68-.99-1.41-2.04-2.21-3.14-8.54-11.59-16.2-17.27-22.36-21.83-6.5-4.83-11.22-8.28-13.85-16.43-3.65-11.25-1.21-24.77,5.8-34.92,1.27-1.84,2.69-3.59,4.27-5.17,1.84-1.87,3.87-3.51,6.05-4.92,9.44-6.08,21.85-7.86,36.44-5.09,5.63,1.07,11,3.05,16.06,5.88,4.38,2.46,8.54,5.57,12.44,9.3.31.28.59.54.9.82.34.34.65.68.99.99.31.34.62.68.96,1.02,3.36,3.65,6.13,7.38,8.28,10.69,2.18,3.36,3.76,6.3,4.78,8.4.68,1.36,1.13,2.37,1.33,2.88l.96-.4,1.75-.74c-.06-.11-.11-.31-.2-.51-.11-.23-.2-.45-.34-.71-.11-.28-.25-.57-.4-.9-.17-.31-.34-.68-.54-1.05-.25-.57-.59-1.22-.93-1.87-.37-.68-.76-1.41-1.19-2.15-2.6-4.61-6.62-10.66-12.19-16.48-.14-.14-.25-.28-.39-.42.17-.25.34-.54.51-.82,4.33-7.01,8.96-13.85,13.88-20.5,2.49-3.31,5.03-6.56,7.63-9.75s5.29-6.33,8-9.41c3.59-4.01,7.35-7.89,11.17-11.7,6.64-6.62,13.54-12.95,20.78-18.83l-1.84-2.29c-7.72,6.28-15.07,12.98-22.08,20.05-.79.82-1.55,1.64-2.35,2.43-1.13,1.19-2.29,2.32-3.42,3.53-.96-3.11-1.87-6.14-2.77-9.16-1.81-6.11-3.51-12.1-5.09-18.09-2.32-8.71-4.44-17.56-6.39-26.46,46,15.75,93.75,24.85,142.04,27,7.63.34,15.27.54,22.9.54,10.94,0,21.85-.37,32.77-1.07,28.16-1.84,56.09-6.02,83.66-12.52,14.05-3.34,27.99-7.24,41.84-11.76,1.58-.51,3.14-1.05,4.72-1.58,2.74-.9,5.46-1.81,8.17-2.77-.14,1.13-.31,2.21-.48,3.25-.06.4-.11.74-.17,1.1-.11.71-.23,1.36-.34,2.04-.14.73-.28,1.47-.43,2.12-.42,2.12-.85,3.79-1.24,5.29-.48,1.84-.96,3.7-1.44,5.57-.51,1.87-.99,3.73-1.53,5.6-1.72,6.3-3.59,12.67-5.91,18.97-.56,1.58-1.16,3.17-1.81,4.75-.93,2.35-1.95,4.72-3.05,7.07-.34.79-.74,1.58-1.1,2.35t-.03.03c-.17.4-.37.79-.57,1.16-.23.48-.48.93-.71,1.41-.37.71-.74,1.41-1.13,2.12-3.96,7.35-8.88,14.62-15.1,21.71-5.12,5.85-10.69,10.86-17.02,15.38-1.78,1.27-3.59,2.52-5.51,3.7-.71.45-1.44.9-2.18,1.36-.73.45-1.47.88-2.23,1.3-.37.23-.73.42-1.13.65-.37.23-.76.45-1.16.65-.79.45-1.58.88-2.37,1.3-.79.45-1.61.88-2.46,1.3-.59.31-1.19.59-1.78.9-.57.28-1.16.57-1.75.85-.4.2-.79.4-1.19.59-.08.06-.23.11-.31.14-1.89.9-3.85,1.84-5.88,2.71-.59.28-1.19.54-1.81.82-.2.08-.4.17-.62.25-.25.11-.54.25-.82.37-.57.25-1.1.48-1.67.73-.56.23-1.13.48-1.7.74-.59.23-1.16.48-1.73.71-.82.34-1.61.68-2.43,1.02-.96.4-1.95.79-2.97,1.19-3.67,1.47-7.52,2.97-11.59,4.52-1.33.51-2.74,1.05-4.13,1.55ZM547.5,478.35c-1.72,6.53-3.45,11.42-5.23,15.49-1.84,4.18-3.67,7.55-5.57,10.97-3.11,5.68-6.39,11.54-9.98,21.69-5.77,16.26-6.87,27.96-7.69,36.5-.96,10.15-1.53,16.26-8.26,22.36-11.82,10.72-32.29,12.61-46.57,4.27-9.64-5.63-16.17-15.55-19.37-29.52-1.72-7.41-1.75-15.01-.11-22.67l.11-.45.14-.57c4.86.14,9.73.23,14.59.23h.91v-2.94h-.91c-29.55,0-59.15-2.74-87.98-8.14-10.38-1.95-20.78-4.3-31.04-6.93,22.51-8.59,38.82-15.83,51.85-24.8,7.32-5,13.63-10.55,19.42-17.16,20.38-23.24,26.77-47.98,32.99-71.9.42-1.64.88-3.45,1.33-5.71,28.3,14.53,54.79,23.83,78.77,27.59l.76.11c6.19.96,15.55,2.4,21.35,9.73,8.57,10.86,3.87,28.78.48,41.84Z"/>
          <path class="cls-7" d="M446.44,282.45c7.24-2.41,14.75-4.24,22.31-5.44l-.46-2.91c-7.72,1.23-15.38,3.1-22.78,5.55-12.97,4.31-25.3,10.48-36.66,18.33l1.68,2.42c11.13-7.69,23.21-13.74,35.92-17.96Z"/>
          <path class="cls-7" d="M440.6,324.84c-9.77.54-19.59,1.84-29.2,3.86l.61,2.89c9.46-1.99,19.13-3.27,28.75-3.8,7.25-.4,14.62-.38,21.89.05l.18-2.94c-7.38-.44-14.86-.46-22.22-.05Z"/>
        </g>
      </g>
    </g>
  </g>
</svg>