<?xml version="1.0" encoding="UTF-8"?>
<svg id="Layer_2" data-name="Layer 2" xmlns="http://www.w3.org/2000/svg" viewBox="0 0 767.57 199.61">
  <defs>
    <style>
      .cls-1 {
        fill: #231f20;
      }

      .cls-2 {
        fill: #e05b34;
      }

      .cls-3 {
        fill: #fff;
      }
    </style>
  </defs>
  <g id="Layer_1-2" data-name="Layer 1">
    <g>
      <g>
        <path class="cls-3" d="M110.27,6.21c-.82,9.03-1.44,24.01-1.44,39v2.87c24.01,0,46.8-2.26,59.94-5.95l2.26,34.07c-4.1.21-5.95.41-14.37,1.23-20.73,2.05-28.74,2.46-47.21,2.87q.41,9.65,2.05,37.56c20.94,7.18,34.89,14.57,58.29,31.2,3.7,2.46,4.31,2.87,6.57,4.31l-22.17,32.23c-9.24-11.29-24.43-22.99-42.28-32.23.21,1.44.21,2.67.21,3.49,0,9.65-2.87,17.45-8.62,23.19-8.62,8.62-24.22,13.55-42.9,13.55-16.62,0-31.2-3.9-40.44-10.67-8.83-6.57-14.16-18.06-14.16-30.58s5.54-22.99,16.01-30.79c10.47-7.39,22.99-10.88,40.03-10.88,5.34,0,8.41.21,14.37,1.03-.82-16.42-2.05-58.5-2.46-86.41-.21-10.06-.21-12.73-1.03-19.29l37.36.21ZM62.65,141.47c-12.31,0-20.11,4.1-20.11,10.47,0,6.77,6.36,10.88,16.62,10.88,8.42,0,14.98-3.08,17.04-7.8.82-2.26,1.03-3.28,1.03-8.83v-2.67c-5.95-1.64-9.03-2.05-14.57-2.05Z"/>
        <path class="cls-3" d="M219.48,14.21c8.62,1.03,16.22,1.44,29.56,1.44,18.27,0,41.05-.82,61.78-2.46,9.03-.62,11.7-1.23,15.6-2.87l16.83,24.84q-5.34,3.08-33.05,26.89c-10.88,9.24-14.57,12.31-28.32,22.37,11.49-2.87,17.45-3.69,28.12-3.69,19.3,0,33.05,4.52,43.93,13.96,9.85,8.83,14.98,20.73,14.98,35.51,0,20.73-9.65,37.15-28.32,48.23-14.16,8.21-33.87,12.93-54.39,12.93-34.69,0-55.83-13.75-55.83-36.53,0-19.09,17.04-32.84,40.85-32.84,14.78,0,27.92,5.75,36.74,15.8,4.1,4.52,6.36,8.62,9.44,16.22,11.08-4.93,16.22-11.91,16.22-22.37,0-14.37-13.96-23.19-36.74-23.19s-44.75,6.77-63.22,18.88c-6.36,4.11-12.93,9.24-19.7,15.39l-19.09-31.2c18.88-8.83,62.19-42.49,87.65-67.74-10.88,1.23-19.09,1.64-48.03,3.08-5.54.21-9.44.62-13.55,1.03l-1.44-33.66ZM270.38,148.04c-4.72,0-8,2.67-8,6.77,0,5.54,6.57,9.03,17.65,9.03,2.46,0,2.87,0,6.77-.62-2.67-9.85-8.41-15.19-16.42-15.19Z"/>
        <path class="cls-3" d="M420.43,24.47c10.67,19.91,16.22,34.28,24.63,63.84l-35.51,10.88c-5.95-25.86-13.55-47.83-22.99-65.48l33.87-9.24ZM567.81,28.78c-1.64,4.72-2.46,7.8-4.72,19.5-7.39,35.51-19.5,63.43-37.15,86.41-18.06,23.19-40.64,40.44-74.92,57.06-7.8-14.57-12.52-20.94-25.25-32.84,24.63-8.83,42.49-19.5,59.32-35.51,21.96-20.73,34.07-44.54,41.05-80.67,1.85-9.44,2.46-14.78,2.67-23.19l39,9.24ZM475.44,14.83c9.85,17.45,16.83,35.3,24.43,61.37l-35.3,10.88c-6.16-24.22-12.11-41.26-22.79-63.22l33.66-9.03Z"/>
        <path class="cls-3" d="M730.79,54.85c16.22,0,21.35-.21,30.79-1.64v36.13c-10.06-.82-14.98-1.03-30.17-1.03h-36.33c-2.05,26.89-5.54,40.44-14.37,56.04-8,13.96-19.09,26.07-32.84,35.92-5.95,4.31-10.47,7.18-20.94,13.14-7.59-13.34-13.55-20.12-27.09-31.4,24.01-10.06,39-21.96,48.44-37.97,4.72-8.21,7.59-16.42,8.62-25.86q.41-3.08,1.03-9.85h-43.93c-14.78,0-19.5.21-29.76,1.03v-36.13c9.24,1.44,13.34,1.64,30.38,1.64h45.16q0-2.87.21-8.21v-15.6c0-8.21-.41-15.81-1.23-21.76h39.41c-.82,5.95-.82,6.57-1.23,22.37q-.21,7.8-.21,16.01c0,2.67-.21,5.13-.21,7.18h34.28Z"/>
      </g>
      <g>
        <path class="cls-2" d="M110.27,6.21c-.82,9.03-1.44,24.01-1.44,39v2.87c24.01,0,46.8-2.26,59.94-5.95l2.26,34.07c-4.1.21-5.95.41-14.37,1.23-20.73,2.05-28.74,2.46-47.21,2.87q.41,9.65,2.05,37.56c20.94,7.18,34.89,14.57,58.29,31.2,3.7,2.46,4.31,2.87,6.57,4.31l-22.17,32.23c-9.24-11.29-24.43-22.99-42.28-32.23.21,1.44.21,2.67.21,3.49,0,9.65-2.87,17.45-8.62,23.19-8.62,8.62-24.22,13.55-42.9,13.55-16.62,0-31.2-3.9-40.44-10.67-8.83-6.57-14.16-18.06-14.16-30.58s5.54-22.99,16.01-30.79c10.47-7.39,22.99-10.88,40.03-10.88,5.34,0,8.41.21,14.37,1.03-.82-16.42-2.05-58.5-2.46-86.41-.21-10.06-.21-12.73-1.03-19.29l37.36.21ZM62.65,141.47c-12.31,0-20.11,4.1-20.11,10.47,0,6.77,6.36,10.88,16.62,10.88,8.42,0,14.98-3.08,17.04-7.8.82-2.26,1.03-3.28,1.03-8.83v-2.67c-5.95-1.64-9.03-2.05-14.57-2.05Z"/>
        <path class="cls-2" d="M219.48,14.21c8.62,1.03,16.22,1.44,29.56,1.44,18.27,0,41.05-.82,61.78-2.46,9.03-.62,11.7-1.23,15.6-2.87l16.83,24.84q-5.34,3.08-33.05,26.89c-10.88,9.24-14.57,12.31-28.32,22.37,11.49-2.87,17.45-3.69,28.12-3.69,19.3,0,33.05,4.52,43.93,13.96,9.85,8.83,14.98,20.73,14.98,35.51,0,20.73-9.65,37.15-28.32,48.23-14.16,8.21-33.87,12.93-54.39,12.93-34.69,0-55.83-13.75-55.83-36.53,0-19.09,17.04-32.84,40.85-32.84,14.78,0,27.92,5.75,36.74,15.8,4.1,4.52,6.36,8.62,9.44,16.22,11.08-4.93,16.22-11.91,16.22-22.37,0-14.37-13.96-23.19-36.74-23.19s-44.75,6.77-63.22,18.88c-6.36,4.11-12.93,9.24-19.7,15.39l-19.09-31.2c18.88-8.83,62.19-42.49,87.65-67.74-10.88,1.23-19.09,1.64-48.03,3.08-5.54.21-9.44.62-13.55,1.03l-1.44-33.66ZM270.38,148.04c-4.72,0-8,2.67-8,6.77,0,5.54,6.57,9.03,17.65,9.03,2.46,0,2.87,0,6.77-.62-2.67-9.85-8.41-15.19-16.42-15.19Z"/>
        <path class="cls-2" d="M420.43,24.47c10.67,19.91,16.22,34.28,24.63,63.84l-35.51,10.88c-5.95-25.86-13.55-47.83-22.99-65.48l33.87-9.24ZM567.81,28.78c-1.64,4.72-2.46,7.8-4.72,19.5-7.39,35.51-19.5,63.43-37.15,86.41-18.06,23.19-40.64,40.44-74.92,57.06-7.8-14.57-12.52-20.94-25.25-32.84,24.63-8.83,42.49-19.5,59.32-35.51,21.96-20.73,34.07-44.54,41.05-80.67,1.85-9.44,2.46-14.78,2.67-23.19l39,9.24ZM475.44,14.83c9.85,17.45,16.83,35.3,24.43,61.37l-35.3,10.88c-6.16-24.22-12.11-41.26-22.79-63.22l33.66-9.03Z"/>
        <path class="cls-2" d="M730.79,54.85c16.22,0,21.35-.21,30.79-1.64v36.13c-10.06-.82-14.98-1.03-30.17-1.03h-36.33c-2.05,26.89-5.54,40.44-14.37,56.04-8,13.96-19.09,26.07-32.84,35.92-5.95,4.31-10.47,7.18-20.94,13.14-7.59-13.34-13.55-20.12-27.09-31.4,24.01-10.06,39-21.96,48.44-37.97,4.72-8.21,7.59-16.42,8.62-25.86q.41-3.08,1.03-9.85h-43.93c-14.78,0-19.5.21-29.76,1.03v-36.13c9.24,1.44,13.34,1.64,30.38,1.64h45.16q0-2.87.21-8.21v-15.6c0-8.21-.41-15.81-1.23-21.76h39.41c-.82,5.95-.82,6.57-1.23,22.37q-.21,7.8-.21,16.01c0,2.67-.21,5.13-.21,7.18h34.28Z"/>
      </g>
      <g>
        <path class="cls-1" d="M60.6,199.61c-17.96,0-33.57-4.2-43.98-11.84C6.2,180.02,0,166.79,0,152.35s6.37-26.62,18.42-35.6c.04-.03.08-.06.12-.09,11.58-8.17,25.39-11.98,43.49-11.98,3.1,0,5.52.07,8.06.27-.82-19.93-1.81-56.08-2.15-79.57l-.04-2.03c-.17-8.31-.22-10.82-.94-16.6-.21-1.71.32-3.44,1.47-4.73,1.14-1.28,2.77-2.02,4.49-2.02h.03l37.36.21c1.68,0,3.28.72,4.41,1.97,1.13,1.24,1.69,2.9,1.53,4.58-.79,8.73-1.33,22.29-1.4,35.28,21.17-.34,40.82-2.45,52.3-5.68,1.74-.49,3.61-.17,5.09.88,1.48,1.04,2.4,2.7,2.52,4.5l2.26,34.07c.11,1.6-.44,3.18-1.51,4.39s-2.58,1.92-4.18,2c-3.51.17-5.2.34-11.51.96l-2.57.25c-18.54,1.84-26.98,2.37-41.53,2.75.23,4.96.52,9.9,1.55,27.37,19.62,7.05,33.79,14.86,55.94,30.59,3.6,2.4,4.18,2.78,6.39,4.19,1.38.87,2.33,2.27,2.66,3.87.33,1.6-.01,3.26-.94,4.6l-22.17,32.23c-1.07,1.55-2.81,2.52-4.69,2.59-1.88.08-3.7-.73-4.89-2.19-7.31-8.93-18.64-18.12-31.86-25.96-1.12,8.37-4.45,15.36-9.96,20.86-9.72,9.73-26.91,15.3-47.14,15.3ZM25.53,126.42c-8.98,6.71-13.53,15.44-13.53,25.93s4.39,20.3,11.75,25.77c8.21,6.02,21.65,9.49,36.85,9.49,17.08,0,31.17-4.3,38.66-11.79,4.55-4.55,6.86-10.93,6.86-18.95,0-.72,0-1.63-.14-2.64-.32-2.22.63-4.44,2.46-5.74,1.83-1.3,4.24-1.47,6.23-.44,15.27,7.9,29.05,17.81,38.9,27.89l14.37-20.89c-.43-.29-.92-.61-1.47-.98-.05-.03-.1-.07-.15-.1-22.81-16.21-36.08-23.32-56.76-30.42-2.3-.79-3.9-2.89-4.04-5.32q-1.65-27.96-2.06-37.66c-.07-1.61.51-3.18,1.62-4.36s2.63-1.86,4.24-1.9c18.27-.41,26.15-.81,46.75-2.85l2.57-.25c2.6-.25,4.46-.44,6-.58l-1.39-21.02c-13.89,2.83-33.52,4.47-54.42,4.47-3.31,0-6-2.69-6-6v-2.87c0-11.4.37-23.6.97-33.03l-24.26-.13c.2,2.97.26,6.04.36,11.07l.04,2.06c.39,26.56,1.61,69.26,2.46,86.24.09,1.78-.62,3.52-1.94,4.72s-3.11,1.76-4.87,1.52c-5.59-.77-8.37-.97-13.55-.97-15.67,0-26.93,3-36.5,9.74ZM59.16,168.82c-16.7,0-22.62-9.09-22.62-16.88s6.86-16.47,26.11-16.47c6.16,0,9.79.51,16.17,2.27,2.6.72,4.41,3.08,4.41,5.78v2.67c0,5.87-.23,7.7-1.39,10.88-.04.12-.09.23-.14.34-3.06,7.04-11.7,11.41-22.54,11.41ZM62.65,147.47c-9.97,0-14.11,2.91-14.11,4.47,0,4.64,8.85,4.88,10.62,4.88,6.18,0,10.48-2.08,11.48-4.07.38-1.06.53-1.65.57-4.53-2.81-.58-5.09-.74-8.56-.74Z"/>
        <path class="cls-1" d="M286.18,197.35c-38.14,0-61.83-16.3-61.83-42.54,0-5.92,1.37-11.42,3.87-16.31-3.37,2.6-6.79,5.49-10.26,8.64-1.32,1.2-3.11,1.75-4.88,1.5-1.77-.25-3.34-1.28-4.27-2.81l-19.09-31.2c-.89-1.46-1.12-3.22-.63-4.86.49-1.64,1.66-2.98,3.21-3.71,15.31-7.16,48.41-32.08,73.58-54.87-7.18.45-16.57.92-31.13,1.64-5.14.19-8.77.56-12.61.94l-.63.06c-1.65.17-3.28-.36-4.53-1.44-1.25-1.08-1.99-2.63-2.06-4.28l-1.44-33.66c-.08-1.76.62-3.46,1.92-4.66,1.29-1.2,3.04-1.77,4.79-1.56,8.66,1.03,16.2,1.39,28.85,1.39,19.35,0,41.7-.89,61.31-2.44,8.72-.6,10.69-1.14,13.74-2.42,2.63-1.11,5.69-.21,7.3,2.16l16.83,24.84c.94,1.38,1.25,3.09.88,4.71-.37,1.62-1.41,3.02-2.85,3.85q-4.85,2.8-32.13,26.24c-3.92,3.33-6.93,5.87-9.79,8.22,1.78-.06,3.65-.09,5.68-.09,20.52,0,35.73,4.9,47.86,15.43,11.34,10.16,17.05,23.61,17.05,40.04,0,22.79-10.81,41.26-31.26,53.39-15.12,8.76-36.04,13.77-57.46,13.77ZM271.2,127.97c-20.52,0-34.85,11.04-34.85,26.84,0,19.12,18.63,30.54,49.83,30.54,19.37,0,38.09-4.42,51.38-12.12,16.79-9.96,25.33-24.46,25.33-43.04,0-12.88-4.37-23.32-12.99-31.04-9.88-8.57-22.22-12.43-39.92-12.43-10.01,0-15.5.72-26.66,3.51-2.78.7-5.67-.68-6.89-3.27-1.22-2.6-.43-5.69,1.89-7.39,13.51-9.88,16.95-12.74,27.98-22.1,18.28-15.71,24.67-21.2,28.51-24.05l-10.79-15.93c-3.13.84-6.7,1.27-12.81,1.68-19.84,1.57-42.53,2.48-62.19,2.48-9.75,0-16.63-.21-23.27-.77l.87,20.42c2.26-.19,4.72-.35,7.6-.45,28.28-1.4,36.83-1.83,47.58-3.04,2.54-.29,4.98,1.06,6.08,3.37,1.1,2.3.63,5.05-1.18,6.85-24.16,23.96-62.16,53.77-83.41,65.82l12.03,19.66c5.12-4.31,10.16-8.08,15.05-11.23,19.22-12.6,43.46-19.84,66.47-19.84,26.36,0,42.74,11.19,42.74,29.19,0,12.83-6.47,21.94-19.78,27.86-1.49.66-3.18.69-4.68.08-1.51-.61-2.7-1.8-3.31-3.31-2.96-7.3-4.91-10.68-8.32-14.43l-.07-.08c-7.79-8.88-19.24-13.76-32.23-13.76ZM312.42,133.78c3.46,3.81,5.75,7.44,7.86,11.83,5.14-3.49,7.32-7.82,7.32-14,0-4.03-2.22-17.19-30.74-17.19-6.45,0-13.01.63-19.52,1.85,13.96,1.38,26.25,7.47,35.08,17.51ZM280.03,169.84c-11.43,0-23.65-3.95-23.65-15.03,0-7.4,5.89-12.77,14-12.77,10.74,0,18.84,7.15,22.21,19.62.45,1.64.17,3.4-.75,4.83-.93,1.43-2.42,2.4-4.1,2.66-4.07.64-4.83.69-7.71.69ZM270.38,154.04c-1.35,0-1.92.42-1.97.49,0,.01-.04.1-.04.28,0,.58,2.42,2.62,9.46,2.98-2.84-3.75-6.11-3.75-7.46-3.75Z"/>
        <path class="cls-1" d="M451.02,197.76c-2.15,0-4.22-1.16-5.29-3.17-7.66-14.31-12.15-20.16-24.06-31.29-1.53-1.43-2.2-3.55-1.78-5.6.42-2.05,1.88-3.73,3.85-4.43,23.89-8.56,41-18.79,57.21-34.21,21.14-19.96,32.52-42.39,39.3-77.46,1.79-9.15,2.36-14.13,2.56-22.2.04-1.81.9-3.5,2.33-4.6s3.29-1.5,5.05-1.09l39,9.24c1.65.39,3.06,1.46,3.88,2.95.82,1.49.96,3.25.41,4.86-1.46,4.19-2.22,6.89-4.5,18.66-7.51,36.09-20.03,65.16-38.29,88.93-18.8,24.15-41.84,41.72-77.06,58.81-.84.41-1.73.6-2.61.6ZM436.7,161.18c7.07,7.23,11.5,13.26,16.81,22.65,30.59-15.43,51.03-31.42,67.69-52.82,17.11-22.28,28.9-49.75,36.01-83.95,1.31-6.81,2.16-10.79,2.98-13.92l-25.72-6.09c-.39,5.23-1.11,10.04-2.44,16.84-7.2,37.25-20,62.34-42.82,83.88-15.38,14.63-31.45,24.91-52.51,33.41ZM409.55,105.19c-1.04,0-2.08-.27-3-.8-1.44-.83-2.47-2.23-2.85-3.85-5.91-25.68-13.46-47.21-22.43-63.99-.86-1.61-.94-3.53-.22-5.2s2.17-2.93,3.93-3.42l33.87-9.24c2.7-.73,5.54.49,6.87,2.95,10.92,20.37,16.55,34.96,25.11,65.03.89,3.14-.89,6.42-4.01,7.38l-35.51,10.88c-.58.18-1.17.26-1.76.26ZM395.24,37.56c7.27,15.09,13.52,33.2,18.66,54.02l23.76-7.28c-6.82-23.36-11.91-36.62-20.29-52.77l-22.12,6.03ZM464.56,93.08c-1.02,0-2.03-.26-2.94-.77-1.43-.8-2.47-2.16-2.88-3.75-6.32-24.86-12.17-41.1-22.37-62.08-.78-1.61-.8-3.49-.06-5.11s2.17-2.84,3.9-3.3l33.66-9.03c2.64-.71,5.43.46,6.78,2.84,9.85,17.44,17.08,35.58,24.96,62.64.92,3.15-.86,6.45-3.99,7.41l-35.3,10.88c-.58.18-1.17.27-1.77.27ZM450.29,27.79c7.85,16.94,13.24,32.01,18.5,51.71l23.64-7.28c-6.35-21-12.38-36.21-19.97-50.37l-22.17,5.95Z"/>
        <path class="cls-1" d="M626.93,199.4c-2.09,0-4.11-1.09-5.22-3.03-7.17-12.59-12.45-18.71-25.72-29.76-1.61-1.34-2.4-3.43-2.09-5.5.31-2.07,1.68-3.83,3.62-4.64,22.65-9.49,36.71-20.43,45.59-35.49,4.43-7.7,6.92-15.17,7.82-23.46,0-.05.01-.1.02-.15.18-1.32.27-2.06.38-3.06h-37.33c-14.73,0-19.23.2-29.29,1.01-1.68.13-3.32-.44-4.55-1.57-1.23-1.14-1.93-2.73-1.93-4.41v-36.13c0-1.75.77-3.42,2.1-4.56s3.09-1.64,4.83-1.37c8.78,1.37,12.63,1.57,29.46,1.57h39.27c.02-.65.05-1.41.09-2.33v-15.48c0-8.13-.41-15.37-1.17-20.94-.24-1.72.28-3.46,1.42-4.76,1.14-1.31,2.79-2.06,4.52-2.06h39.41c1.73,0,3.38.75,4.52,2.06,1.14,1.31,1.66,3.04,1.42,4.76-.75,5.48-.77,6.05-1.15,20.62l-.03,1.09q-.2,7.72-.2,15.85c0,.4,0,.79-.01,1.18h28.08c16.62,0,21.09-.24,29.89-1.57,1.73-.26,3.49.24,4.81,1.38,1.33,1.14,2.09,2.8,2.09,4.55v36.13c0,1.68-.7,3.28-1.93,4.41-1.23,1.14-2.88,1.71-4.55,1.57-9.7-.79-14.49-1.01-29.68-1.01h-30.81c-2.19,24.24-5.98,37.64-14.67,52.99-8.45,14.74-20.08,27.46-34.57,37.84-6.33,4.58-11.15,7.61-21.47,13.48-.94.53-1.96.79-2.96.79ZM610.86,163.61c7.93,7.21,13.02,13.29,18.21,21.64,6.6-3.84,10.4-6.32,15.28-9.85,13.11-9.39,23.58-20.84,31.16-34.05,8.31-14.69,11.62-27.7,13.59-53.51.24-3.13,2.85-5.54,5.98-5.54h36.33c11.94,0,17.65.13,24.17.56v-22.82c-6.45.69-12.58.8-24.79.8h-34.28c-3.31,0-6-2.69-6-6,0-1.09.05-2.2.1-3.38.05-1.23.11-2.51.11-3.8q0-8.29.21-16.17l.03-1.09c.21-8.24.32-12.2.51-15.13h-26.05c.37,4.72.56,10.05.56,15.76v15.6c0,.08,0,.15,0,.23q-.2,5.22-.2,7.98c0,3.31-2.69,6-6,6h-45.16c-12.73,0-18.5-.13-24.38-.77v22.79c6.63-.43,12.21-.56,23.76-.56h43.93c1.69,0,3.29.71,4.43,1.95,1.14,1.25,1.7,2.91,1.54,4.59-.61,6.72-.63,6.9-1.05,10.03-1.09,9.97-4.07,18.91-9.38,28.13-8.93,15.15-22.59,26.91-42.62,36.6Z"/>
      </g>
    </g>
  </g>
</svg>