<?xml version="1.0" encoding="UTF-8"?>
<svg id="Layer_2" data-name="Layer 2" xmlns="http://www.w3.org/2000/svg" viewBox="0 0 709.05 495.1">
  <defs>
    <style>
      .cls-1 {
        fill: #231f20;
      }

      .cls-2 {
        fill: #fff;
      }
    </style>
  </defs>
  <g id="Layer_1-2" data-name="Layer 1">
    <g>
      <path class="cls-1" d="M705.65,216.07c-.99-.25-2.03-.37-3.05-.4-10.61-.3-20.75,1.85-30.09,6.75-24.41,12.81-48.76,25.75-73.01,38.86-17.19,9.3-34.21,18.93-51.24,28.52-3.12,1.76-5.71,1.2-8.22-.85-1.12-.9-2.03-2.04-3.05-3.05-3.37-3.3-6.34-7.23-10.22-9.74-4.91-3.18-8.8-7.06-11.95-11.82-3.55-5.42-7.08-10.87-10.39-16.44-4.56-7.64-10.22-14.13-18.06-18.59-2.14-1.2-4.32-2.59-5.93-4.39-1.64-1.84-3.24-4.14-3.73-6.49-.74-3.48-2.34-5.82-5.5-7.25-3.28-1.47-4.94-4.23-5.79-7.55-.56-2.19-1-4.42-1.41-6.64-1.14-6.27-4.08-11.07-10.24-13.69-1.27-.53-2.58-2.48-2.69-3.85-.27-3.25-1.47-5.8-4.01-7.65-2.41-1.75-4.89-3.43-7.51-4.83-5.64-3-5.97-3.31-5.29-9.58.36-3.34-.64-5.86-3.68-7.45-4.39-2.3-7.31-5.93-9.24-10.4-2.86-6.6-4.14-13.53-4.58-20.68-.3-4.79,1.15-8.83,4.61-11.93,5.26-4.72,10.51-9.56,16.31-13.57,7.09-4.91,14.75-8.98,22.09-13.53,1.02-.63,2.48-2.19,2.26-2.85-.37-1.13-1.73-2.35-2.95-2.74-9.36-2.98-18.85-5.14-28.82-3.8-17.58,2.36-34.2,8.06-50.67,14.32-4.06,1.55-8.07,3.21-12.25,4.87-1.25-13.55-7.11-21.81-16.55-29.31-6.52-5.17-12.47-11.03-18.85-16.37-4.92-4.12-5.35-9.24-3.15-14.52,2.39-5.75,5.34-11.31,8.53-16.68,2.53-4.28,5.78-8.13,8.96-12.5-1.23-.15-1.92-.33-2.61-.29-19.57,1.1-39.03,3.25-57.61,9.85-8.2,2.9-15.85,7.36-23.98,10.52-9,3.5-18.03,4.93-27.96,2.11-14.01-3.99-28.38-6.88-42.72-9.52-22.62-4.14-45.45-6.34-68.48-5.78-37.23.93-74.1,5.2-110.79,11.27-1.12.18-2.21.64-4.14,1.22,1.93,1.76,3.08,3.27,4.61,4.12,3.04,1.7,6.2,3.27,9.47,4.45,5.9,2.14,11.95,3.87,17.87,5.9,2,.68,3.84,1.82,5.77,2.76-.08.32-.17.63-.27.94-.55.09-1.11.17-1.7.25-.4.05-.8.09-1.21.14-12.33,1.28-28.18-1.15-39.94-1.9-3.93,3.81-2.65,8.11-1.07,11.89,4.86,11.67,9.71,23.36,15.39,34.64,14.86,29.45,31.94,57.57,51.97,83.86,17.35,22.79,35.9,44.54,56.41,64.55,2.59,2.52,3.77,5.17,4.18,8.8,2.76,24.43,5.72,48.83,8.84,73.22.41,3.28,1.71,6.59,3.23,9.56,1.79,3.5,4.84,3.41,6.83-.05,1.42-2.47,2.74-5.14,3.4-7.9,3.02-12.81,9.3-24.12,15.85-35.32,1.87-3.2,3.93-6.28,5.77-9.48,1.06-1.85,2.23-2.04,4.05-1.07,11.12,5.83,22.23,11.64,33.43,17.34,20.86,10.61,43.09,17.37,65.76,22.72,8.02,1.89,16.14,3.25,24.16,5.12,1.29.29,2.69,1.77,3.3,3.05,6.59,13.62,12.89,27.37,19.54,40.95,5.91,12.04,12.54,23.67,22.18,33.23,2.99,2.96,6.24,5.66,9.55,8.26.88.69,2.41.54,3.64.77-.11-1.17.08-2.48-.38-3.48-9.52-20.8-11.68-42.89-11.66-65.38,0-2.05.42-4.09.6-6.14.61-6.71,4.05-11.35,10.32-13.72,9.26-3.51,18.64-4.06,28.48-2.14,4.63.91,9.7-.51,14.57-.94.91-.08,1.84-.39,2.67-.77,7.01-3.25,13.28-1.11,19.19,2.77,1.98,1.3,3.26,1.04,5.21-.09,5.25-3.02,10.6-5.92,16.11-8.39,4.19-1.87,8.3-1.67,12.6,1.03,2.15,1.35,5.68.76,8.55.62,2.96-.16,5.86-1.07,8.83-1.25,4.45-.28,7.34,2.04,8.93,6.15,1.32,3.39,2.42,3.85,5.9,2.65.87-.29,1.7-.73,2.55-1.09,3.05-1.28,5.38-3.53,9.63-2.03,3.58,1.26,8.11-.2,12.21-.41,4.42-.22,8.85-.58,13.25-.52,4.17.07,5.15.85,5.66,4.98.96,7.65,1.86,15.33,2.22,23.02,1.11,24.56,1.85,49.14,2.97,73.71.85,18.6,1.58,37.23,6.37,55.39,2.33,8.79,5.25,17.38,11.14,24.54,1.49,1.81,3.25,3.47,5.18,4.78,3.38,2.29,4.63,1.68,4.63-2.37,0-6.99-.21-14-.56-20.97-1.49-29.38-3.94-58.73-2.56-88.19,1.09-23.43,8.07-44.74,22.77-63.29,0-.01.03-.03.03-.04l-.07.02s.03-.03.03-.04c1.32-1.68,2.55-3.44,3.99-5.02,7.73-8.55,15.65-16.93,23.23-25.61,15.7-17.95,34.25-32.28,55.29-43.37,10.92-5.76,22.15-10.93,33.09-16.62,2.87-1.49,5.48-3.67,7.76-5.99,2.44-2.5,1.33-5.36-2.09-6.22ZM110.41,28.28c10.68,5.12,15.2,17.63,10.17,28.15-5.08,10.62-17.57,14.98-28.23,9.85-10.56-5.1-15.06-17.75-10.03-28.21,4.95-10.28,17.74-14.75,28.09-9.79Z"/>
      <path class="cls-2" d="M110.41,28.28c-10.35-4.96-23.14-.49-28.09,9.79-5.03,10.46-.53,23.11,10.03,28.21,10.66,5.14,23.15.77,28.23-9.85,5.03-10.52.51-23.03-10.17-28.15ZM113.63,57.24c-.34.39-.68.75-1.06,1.11-.37.34-.76.68-1.15.98-.6.47-1.23.89-1.89,1.25-4.41,2.48-9.96,2.86-14.82.49-.72-.35-1.41-.75-2.05-1.2-.43-.3-.84-.63-1.23-.95-1.78-1.52-3.16-3.4-4.12-5.47-1.92-4.15-2.06-9.08.05-13.36.5-1,1.08-1.91,1.74-2.74.28-.36.59-.7.9-1.03.34-.36.7-.7,1.09-1.02,1.52-1.29,3.27-2.27,5.15-2.88,1.95-.65,4.04-.9,6.13-.73.44.02.87.07,1.31.14.3.05.61.1.9.18,1.22.26,2.42.67,3.61,1.23,1.01.49,1.96,1.06,2.82,1.73,1.05.78,1.98,1.69,2.8,2.68.32.39.62.79.89,1.2v.02c.86,1.27,1.5,2.64,1.94,4.06.14.47.27.95.36,1.43.16.72.25,1.46.29,2.2,0,0,0,.01,0,.03.04.49.03.98.01,1.48h0c-.01.51-.07,1.02-.14,1.52-.22,1.5-.67,3-1.38,4.44-.35.71-.75,1.4-1.19,2.03-.3.42-.61.83-.95,1.22Z"/>
      <path d="M108.18,33.21c7.99,3.85,11.35,13.05,7.59,20.77-3.72,7.65-13.3,10.87-21.06,7.08-7.73-3.77-11.1-13.39-7.35-20.99,3.73-7.57,13-10.62,20.82-6.86Z"/>
      <path class="cls-2" d="M164.04,64.36c60.01-27.46,193.66,95.41,193.66,95.41,19.51,17.93,44.85,41.9,73.93,71.31-160.45-100.71-225.21-134.69-249-141.82-4.87-1.46-30.24-8.46-27.94-17.19,1.03-3.89,7.17-6.7,9.34-7.7Z"/>
    </g>
  </g>
</svg>