<?xml version="1.0" encoding="UTF-8"?>
<svg id="Layer_2" data-name="Layer 2" xmlns="http://www.w3.org/2000/svg" viewBox="0 0 966.33 611.25">
  <defs>
    <style>
      .cls-1 {
        fill: #f15b2d;
      }

      .cls-2 {
        fill: #0388b6;
      }

      .cls-3 {
        fill: #231f20;
      }

      .cls-4 {
        fill: #0573b5;
      }

      .cls-5 {
        fill: #ce1e4d;
      }

      .cls-6 {
        fill: #f37c4b;
      }

      .cls-7 {
        fill: #fff;
      }

      .cls-8 {
        stroke: #231f20;
        stroke-linecap: round;
        stroke-linejoin: round;
        stroke-width: 2px;
      }

      .cls-9 {
        fill: #efe0d3;
      }

      .cls-10 {
        fill: #f9cd3b;
      }

      .cls-11 {
        fill: #f6bc80;
      }
    </style>
  </defs>
  <g id="Layer_1-2" data-name="Layer 1">
    <g>
      <g>
        <rect class="cls-3" x="637.11" y="263.94" width="44.13" height="68.89"/>
        <rect class="cls-3" x="709.75" y="359.39" width="143.31" height="82.46"/>
        <rect class="cls-3" x="451.15" y="353.26" width="114.49" height="100.89"/>
        <rect class="cls-3" x="146.51" y="475.18" width="114.49" height="74.75"/>
        <g>
          <g>
            <path class="cls-10" d="M132.1,422.16c-29.41,0-54.87-5.76-71.7-16.22-13.03-8.1-20.73-19.16-22.28-31.98-1.86-15.38,5.37-32.86,19.86-48.14-.18-.07-.36-.15-.54-.23-6.98-3.37-13.87-7.72-20.48-12.94-.05-.04-.11-.09-.16-.13-41.26-34.49-34.58-88.65-7.36-122.1,17.37-20.66,41.29-32.63,65.71-32.93h1c24.12,0,42.65,7.1,55.06,21.1,14.57,16.42,18.17,39.18,18.14,59.67,1.95-10.31,4.81-21.36,9.15-31.74,12.37-29.56,33.61-45.19,61.44-45.19h3.18c.16,0,.31,0,.47.01,10.59.67,18.52,3.68,24.24,9.2,28.56,28.5-17.17,105.53-32.36,129.19,6.75,0,23.48.95,34.83,9.43,9.27,7.05,18.29,21,8.92,47.64-6.88,19.76-26.74,36.65-57.43,48.84-26.44,10.5-59.13,16.52-89.7,16.52ZM174.81,322.92c.53.69.95,1.49,1.22,2.37,4.24,13.93,1.62,29.12-.28,37.33l20.85-46.49c-.15.06-.3.13-.47.2-3.06,1.3-8.74,3.73-16.46,6.53-.82.3-1.67.44-2.51.44s-1.59-.13-2.34-.38Z"/>
            <path class="cls-3" d="M96.15,164.87c80.09,0,65.98,82.38,62.8,110.67,0,2.2,2.73,3.84,6.37,4.12,3.64,0,6.37-1.37,6.82-3.57,2.28-22.52,5.46-107.37,67.81-107.37h3.19c8.65.55,15.02,2.75,19.57,7.14,23.66,23.62-19.11,98.86-37.32,125.77-.91,1.37-.91,2.75.46,3.84,1.58.95,3.5,1.7,5.47,1.7.3,0,.6-.02.9-.05h3.19c5.92,0,20.93.82,30.49,7.96,10.47,7.96,12.74,21.14,6.37,39.27-13.2,37.9-81.91,60.41-140.16,60.41-28.21,0-52.33-5.49-67.8-15.1-29.58-18.4-20.93-48.33,0-69.75,13.2,4.39,28.21,6.59,44.14,6.59,22.75,0,44.14-4.39,60.52-9.06,4.1,13.46.91,28.56-1.36,37.35-.46,2.75-.91,4.94-.91,6.32-.45,2.2,2.28,3.84,5.46,4.12.33.03.65.04.97.04,2.84,0,5.49-1.06,6.31-2.79l26.85-59.86c.45-1.65-.45-3.3-2.73-4.39-1.27-.38-2.53-.59-3.76-.59-1.41,0-2.76.27-3.98.86-.45,0-7.28,3.3-18.66,7.41-7.74-11.26-21.39-18.4-40.5-21.14-3.64-.55-7.28-.82-11.38-.82-22.3,0-45.96,9.34-64.62,24.99-6.82-3.3-13.2-7.41-19.11-12.08-37.77-31.58-31.4-81.01-6.37-111.76,15.93-18.95,37.77-29.93,60.07-30.21h.91M125.78,301.93c2.62,0,5.19.17,7.69.52,15.47,2.2,25.94,7.96,31.85,17.3-15.02,4.12-35.5,8.79-56.88,8.79-13.65,0-25.94-1.65-36.86-5.22,16.27-13.41,36.35-21.39,54.2-21.39M96.15,150.09h-.91c-.06,0-.12,0-.18,0-26.57.33-52.52,13.26-71.2,35.48-.05.06-.1.12-.15.18-29.45,36.19-36.54,94.9,8.35,132.44.11.09.21.18.32.26,4.53,3.58,9.2,6.78,13.95,9.57-11.77,15.09-17.38,31.72-15.55,46.83,1.27,10.55,6.77,25.59,25.71,37.37,17.99,11.18,44.84,17.33,75.61,17.33s65.16-6.21,92.43-17.04c32.74-13,54.08-31.43,61.69-53.3,11.4-32.42-2.24-48.94-11.38-55.89-.03-.03-.07-.05-.1-.08-8.05-6.01-17.99-8.78-26.54-10.01,8.78-14.7,18.29-32.71,25.28-50.25,6.06-15.21,9.65-28.66,10.66-39.97,1.45-16.23-2.24-28.88-10.99-37.61-.06-.06-.12-.12-.18-.17-7.03-6.79-16.48-10.47-28.9-11.26-.31-.02-.62-.03-.94-.03h-3.19c-21.43,0-50.48,8.45-67.74,48.5-3.05-10.36-7.92-20.26-15.47-28.76-13.88-15.65-34.26-23.58-60.59-23.58h0Z"/>
          </g>
          <g>
            <path class="cls-10" d="M147.08,588.58c-28.05,0-51.17-6.24-61.83-16.7-21.59-20.57-12.51-55.44,4.55-83.78-8.02,1.36-15.27,2.02-22.03,2.02-11.65,0-20.24-2.04-27.04-6.42-17.08-11.14-16.96-33.75-14.29-56.53,3.98-32.42,75.08-36.16,128.21-36.16,31.23,0,61.06,1.62,80.59,2.98,23,1.83,38.5,8.8,46.12,20.71,6.51,9.82,7.36,22.51,2.33,35.66-4.26,11.15-12.52,21.87-22.65,29.41-10.59,7.92-25.42,11.95-44.07,11.95-7.4,0-18.67-.67-32.78-3.6,11.92,13.98,24.38,32.12,35.81,52.28,6.4,11.91,4.27,22.96-5.91,31.26-12.33,10.26-38.65,16.93-66.99,16.93Z"/>
            <path class="cls-3" d="M154.64,398.4c30.59,0,60.43,1.6,80.07,2.96,20.02,1.6,33.99,7.29,40.41,17.32,11.33,17.09-.75,41.94-18.51,55.16-9.44,7.07-23.04,10.48-39.66,10.48-20.77,0-39.66-5.47-40.04-5.47-.85-.26-1.75-.38-2.63-.38-1.46,0-2.85.36-3.79,1.07-1.89,1.14-1.89,2.73-.38,4.1,0,.23,19.64,18.46,43.43,60.4,4.53,8.43,3.4,15.73-4.16,21.88-10.95,9.12-35.5,15.27-62.32,15.27s-47.59-5.7-56.66-14.59c-28.71-27.35,10.2-81.6,10.58-82.28.76-1.14.38-2.51-1.13-3.42-.76-.68-2.27-1.14-3.78-1.14h-1.89c-10.2,2.05-18.89,2.96-26.44,2.96-9.82,0-17.37-1.6-23.04-5.24-13.97-9.12-13.22-30.09-10.95-49.46,3.02-24.62,67.23-29.63,120.86-29.63M154.64,383.61c-33.81,0-61.44,1.96-82.13,5.84-12.38,2.32-50.04,9.37-53.4,36.78-1.85,15.79-5.68,48.49,17.55,63.64.03.02.05.03.08.05,7.94,5.11,18.09,7.59,31.04,7.59,2.84,0,5.75-.11,8.76-.33-2.32,4.81-4.57,10.09-6.46,15.67-11.56,34.15-.91,53.85,10.09,64.38,12.04,11.74,37.05,18.74,66.93,18.74s57.84-7.14,71.71-18.64c12.81-10.47,15.72-25.53,7.78-40.29-.05-.1-.11-.2-.16-.3-7.93-13.97-16.35-27.02-24.78-38.45,6.11.62,11.27.81,15.33.81,20.28,0,36.61-4.52,48.52-13.43,23.58-17.56,38.26-50.43,22.04-75.06-8.96-13.9-26.33-21.97-51.63-23.99-.05,0-.1,0-.15-.01-19.65-1.37-49.67-3-81.1-3h0Z"/>
          </g>
          <g>
            <path class="cls-10" d="M297.69,408.12c-13.13,0-26.81-3.31-40.66-9.82-37.99-18.21-50.79-53.35-36.1-98.98,20.79-66.13,92.8-136.44,142.66-139.27.14,0,.28-.01.42-.01h1.52c10.97,0,47.77,3.44,60.53,47.71,11.42,41.81-11.64,122.98-59.57,169.18-21.41,20.7-44.55,31.2-68.79,31.2Z"/>
            <path class="cls-3" d="M365.52,167.43c9.47,0,42.06,2.94,53.43,42.37,10.61,38.83-12.13,117.97-57.6,161.81-20.08,19.42-41.31,29.13-63.66,29.13-12.5,0-25.01-3.24-37.52-9.12-43.58-20.89-41.68-60.6-32.21-90.02,19.7-62.66,89.43-131.51,136.04-134.16h1.52M321.94,320.71h.76c2.65,0,5.3-1.47,5.68-3.82l7.2-48.54c.38-2.35-1.89-4.71-4.93-5-.22-.02-.44-.03-.66-.03-2.75,0-5.05,1.68-5.4,3.86l-7.2,48.84c-.38,2.35,1.52,4.41,4.55,4.71M365.52,152.65h-1.52c-.28,0-.56,0-.84.02-25.75,1.46-57.7,19.25-87.65,48.81-29.07,28.68-51.53,63.53-61.64,95.63-6.61,20.55-7.99,39.4-4.1,56.05,5.28,22.61,20.5,40.51,44.01,51.78.03.02.06.03.1.05,14.85,6.99,29.59,10.53,43.81,10.53,26.22,0,51.1-11.2,73.94-33.28,49.72-47.93,73.53-132.63,61.58-176.33-.02-.07-.04-.13-.06-.2-11.28-39.12-42.33-53.05-67.64-53.05h0Z"/>
          </g>
          <g>
            <path class="cls-10" d="M317.99,591.99c-29.73,0-56.52-4.51-75.45-12.69-16.05-6.85-25.84-15.98-29.08-27.11-2.85-9.79-.42-20.4,7.23-31.54,5.68-8.32,13.13-15.43,22.28-21.27-5.17.46-10.71.75-16.28.75-13.02,0-24.12-1.53-33-4.55-16.49-5.81-26.03-17.39-27.67-33.5-2.41-24.86,17.77-42.87,35.12-53.6,19.16-11.85,46.5-22.17,76.97-29.06,25.82-5.9,51.94-9.02,75.52-9.02,18.69,0,44.27,2.02,59.94,11.64,14.62,8.72,19.04,18.8,20.17,25.71,1.09,6.72.19,17.3-10.31,29.57-2.78,3.52-6.31,6.97-10.42,10.21,39.28,3.84,64.06,16.45,71.7,36.48,3.92,10.27,3.12,21.95-2.33,33.78-11.14,24.18-40.93,47.36-77.75,60.49-24.63,8.85-55.4,13.73-86.63,13.73ZM261.61,462.05c5.34-2.29,12.44-4.9,21.52-7.38.64-.18,1.3-.26,1.95-.26.54,0,1.08.06,1.6.18-.17-.42-.3-.86-.39-1.32-1.37-6.89.47-14.13,3.23-20.41l-27.91,29.19Z"/>
            <path class="cls-3" d="M353.62,377.78c24.45,0,44.65,3.54,56.07,10.54,19.58,11.68,22.25,27.74,8.01,44.28-4.01,5.11-9.79,9.98-16.47,14.11-13.3-.95-25.62-1.37-37.03-1.37-29.43,0-52.71,2.8-70.68,6.48-2.23-11.19,7.57-25.79,12.46-31.39,1.33-1.95,0-3.89-3.12-4.87-.93-.22-1.91-.33-2.86-.33-2.23,0-4.34.6-5.59,1.79l-51.18,53.53c-1.78,1.46-.44,3.65,2.23,4.62,1.03.37,2.06.57,3.11.57,1.68,0,3.43-.5,5.34-1.54.45-.24,9.79-6.57,31.15-12.41.45.49.89.97,1.34,1.46,7.57,6.81,20.92,10.46,39.61,10.95,1.21.03,2.43.05,3.65.05,26.96,0,55.18-7.66,76.47-20,1.78.24,3.56.24,4.9.49,36.94,3.41,60.08,14.36,66.76,31.87,10.68,27.98-23.14,65.94-75.66,84.67-24.64,8.85-55.13,13.3-84.14,13.3s-53.86-4.02-72.52-12.08c-18.25-7.79-36.05-22.39-18.69-47.69,9.79-14.36,24.92-23.85,42.72-29.68l5.79-1.7c20.11-5.84,42.44-7.63,62.22-7.63,29.66,0,53.59,4.03,55.72,4.47.61.08,1.22.12,1.82.12,2.88,0,5.45-.94,6.19-2.56,1.34-1.95-.44-3.89-4-4.38-.52-.14-26.06-4.18-58.55-4.18-23.19,0-49.91,2.05-73.63,9.05-5.48,1.65-21.42,4.4-38.37,4.4-10.58,0-21.55-1.07-30.62-4.16-13.8-4.87-21.36-14.11-22.7-27.25-3.56-36.74,52.52-62.53,106.37-74.7,25.87-5.91,51.64-8.84,73.89-8.84M365.06,452.36c7.76,0,15.96.21,24.61.68-17.91,8.86-39.9,14.14-60.5,14.14-.9,0-1.8-.01-2.7-.03-14.24-.24-23.59-2.68-28.48-7.54-.44-.24-.89-.49-.89-.73,16.8-3.64,39.39-6.52,67.97-6.52M353.62,362.99c-24.12,0-50.81,3.19-77.18,9.21-22.07,4.99-53.77,14.24-79.2,29.97-34.67,21.45-40.12,44.77-38.59,60.56,1.93,18.96,13.47,33.06,32.5,39.77.05.02.1.04.15.05,8.48,2.89,18.71,4.52,30.46,4.88-2.63,2.85-5.03,5.87-7.2,9.05-8.94,13.03-11.7,25.74-8.21,37.76,3.89,13.37,15.1,24.09,33.31,31.86,19.77,8.55,47.61,13.27,78.32,13.27s63.72-5.03,89.14-14.17c39.18-13.98,69.83-38.04,81.95-64.35,6.3-13.67,7.17-27.33,2.52-39.51-7.72-20.26-28.76-33.41-62.61-39.18.05-.06.09-.12.14-.17,12.25-14.37,13.24-27.2,11.9-35.45-1.37-8.45-6.6-20.67-23.68-30.88-17.15-10.47-44.11-12.68-63.72-12.68h0Z"/>
          </g>
          <g>
            <path class="cls-10" d="M554.15,589.68c-6.74-.32-12.16-2.61-16.69-7.02-.1-.1-.2-.21-.3-.31-5.56-6.09-7.64-14.54-8.33-21.48-2.67,3.15-5.1,5.61-5.32,5.83-9.74,9.82-20.69,16.39-31.66,19.02-5.73,1.47-11.42,2.23-16.79,2.23h0c-26.57,0-45.52-18.71-49.45-48.83-2.27-18.09-.22-44.54,5.35-69.06,3.81-16.78,12.75-47.5,29.91-64.76,8.02-7.95,16.73-11.97,25.92-11.97,1.22,0,2.46.07,3.68.21,7.35,1,13.4,4.72,18.14,11.08,8.16,10.95,12.26,30.21,12.2,57.23,0,.52,0,1.04,0,1.56,3.95-13.09,8.71-25.5,14.27-34.32,9.27-15,27.43-25.51,44.12-25.51,11.55,0,39.01,5.63,44.44,57.78,4.96,51.29-15.14,91.04-35.6,111.16-10.77,10.73-23.18,17.15-33.18,17.15-.23,0-.47,0-.7-.01Z"/>
            <path class="cls-3" d="M486.78,400.73c.94,0,1.88.06,2.83.17,32.65,4.46,23.51,87.53,19.59,112.64-1.57,9.39-2.61,15.49-2.61,15.49-.26,1.88,1.04,3.52,3.13,3.99.15.02.31.03.46.03,1.89,0,3.5-1.32,3.98-2.84,0-.23.78-6.34,2.35-15.49,3.92-22.06,12.54-62.19,24.81-81.66,7.83-12.67,23.76-22.06,37.87-22.06,20.11,0,33.69,18.54,37.08,51.16,4.7,48.58-14.1,86.12-33.43,105.13-9.47,9.43-20.19,15.03-27.99,15.03-.16,0-.32,0-.48,0-4.96-.23-8.62-1.88-11.75-4.93-8.36-9.15-6.53-26.75-6.53-26.99,0-1.64-1.04-3.05-2.61-3.52-.52-.24-.78-.24-1.31-.24-1.31,0-2.61.7-3.4,1.88,0,.23-15.15,24.4-38.65,30.04-5.36,1.38-10.39,2.03-15.07,2.03-24.04,0-38.84-17.25-42.12-42.39-4.18-33.32,7.05-101.37,33.17-127.66,6.69-6.63,13.58-9.79,20.68-9.79M486.78,385.95c-11.21,0-21.67,4.73-31.09,14.07-.03.03-.05.05-.08.08-17.53,17.65-27.01,46.9-31.87,68.34-5.74,25.3-7.84,52.73-5.48,71.58,2.07,15.88,8.03,29.34,17.25,38.99,10.21,10.69,23.88,16.34,39.54,16.34,5.96,0,12.23-.83,18.64-2.47,10.73-2.6,21.36-8.47,31-17.11,1.59,4.09,3.84,8.08,7.02,11.56.19.21.4.42.6.62,5.8,5.64,12.99,8.71,21.37,9.1.08,0,.17,0,.25,0,.3,0,.61.01.92.01,12.08,0,26.08-7.05,38.42-19.33,21.61-21.26,42.92-63.21,37.71-117.03,0-.04,0-.07-.01-.11-4.2-40.33-23.56-64.41-51.79-64.41-19.1,0-39.82,11.93-50.41,29.01-.98,1.56-1.94,3.22-2.87,4.97-2.19-12.78-5.97-22.7-11.38-29.97-5.88-7.9-13.81-12.73-22.92-13.97-.1-.01-.2-.03-.3-.04-1.51-.17-3.03-.26-4.53-.26h0Z"/>
          </g>
          <g>
            <path class="cls-10" d="M661.79,574.73c-22.35,0-38.8-24.5-44.01-65.55-5.32-42.77,4.32-91.17,27.13-95.23,1.73-.34,3.47-.34,5.01-.34,15.09,0,31.65,11.35,46.74,31.37-2.82-15.33-1.88-30.67,6.51-41.18,5.96-7.56,15.1-11.76,27.91-12.78.2-.02.39-.02.59-.02h3.13c26.49,0,49.14,21.63,60.59,57.85,6.87,21.88,8.54,46.43,4.59,67.38-4.57,24.19-16.34,41.7-33.14,49.3-7.05,3.01-13.82,4.5-20.28,4.5-23.76,0-41.35-19.2-52.38-36.5,1.01,13.56-1.75,24.56-8.21,31.72-5.54,5.94-12.86,8.93-23.12,9.46-.47.02-.76.02-1.06.02Z"/>
            <path class="cls-3" d="M734.8,398.4c23.24,0,43.09,19.62,53.54,52.69,12.8,40.74,7.05,93.43-24.55,107.72-6.01,2.56-11.75,3.84-17.24,3.84-28.99,0-49.88-35.41-58.5-57.17-4.44-10.67-7.05-18.56-7.31-18.77-.65-1.23-2.18-2.03-3.73-2.03-.33,0-.65.04-.97.11-1.83.43-3.13,2.13-2.61,3.84.26.21,3.4,7.89,7.31,18.77,8.88,24.96,7.84,43.94-.26,52.9-4.18,4.48-9.92,6.61-18.02,7.04-.22,0-.45,0-.67,0-21.51,0-33.06-30.59-36.68-59.1-5.22-42.02,4.96-84.25,21.15-87.03,1.04-.21,2.35-.21,3.66-.21,16.71,0,38.39,18.56,56.67,53.97,9.14,18.13,16.45,33.28,16.71,33.91.58,1.1,2.01,1.74,3.46,1.74.51,0,1.03-.08,1.5-.25,1.83-.64,2.61-2.35,2.09-3.84,0-.21-7.83-15.36-16.71-33.92-10.19-20.9-16.45-49.49-4.7-64.2,4.7-5.97,12.01-9.17,22.72-10.03h3.13M734.8,383.61h-3.13c-.39,0-.78.02-1.17.05-14.96,1.19-25.8,6.29-33.13,15.58-5.24,6.58-8.36,15.03-9.27,24.9-12.48-11.67-25.52-17.92-38.16-17.92-1.77,0-3.95,0-6.36.46-31.01,5.57-38.05,63.75-33.12,103.39,5.73,45.13,24.92,72.05,51.35,72.05.36,0,.73,0,1.1-.02.12,0,.23,0,.35-.01,12.12-.64,21.3-4.47,28.05-11.72.05-.06.1-.11.16-.17,4.05-4.48,6.9-10.1,8.56-16.66,12.69,14.06,28.45,23.88,46.55,23.88,7.46,0,15.21-1.69,23.03-5.02.1-.04.2-.09.3-.13,39.47-17.85,47.56-77.89,32.56-125.62-12.48-39.48-37.76-63.04-67.64-63.04h0Z"/>
          </g>
          <g>
            <path class="cls-10" d="M809.84,603.86c-20.28,0-43.96-19.55-43.96-74.65,0-34.42,13.36-80.14,34.86-119.33,22.62-41.08,47.16-64.64,67.33-64.64,40.76,0,79.42,48.8,88.02,111.1,6.47,45.37,1.49,84.69-13.35,105.16-7.8,11.02-18.65,16.87-31.32,16.87-26.31,0-37.71-28.15-41.55-52.55-6.65,20.93-17.61,49.23-31.91,64.62-7.99,8.65-17.99,13.42-28.14,13.42Z"/>
            <path class="cls-3" d="M868.08,352.63c37.09,0,72.6,46.07,80.7,104.72,6.27,43.92,1.57,81.07-12.01,99.81-6.53,9.21-15.15,13.82-25.33,13.82-35.26,0-35.78-64.49-35.78-65.1,0-2.15-1.31-3.99-3.13-4.3-.21-.03-.42-.05-.62-.05-1.77,0-3.08,1.19-3.56,3.12-.26.61-14.1,57.43-35.78,80.77-6.53,7.06-14.63,11.06-22.72,11.06-16.98,0-36.56-17.81-36.56-67.25,0-33.47,13.06-77.7,33.95-115.78,20.63-37.47,43.88-60.81,60.85-60.81M874.61,476.08h.52c1.83,0,3.39-1.84,3.66-3.99l5.22-50.98c.26-2.46-1.31-4.61-3.4-4.91-.15-.02-.3-.03-.45-.03-1.89,0-3.48,1.75-3.72,4.03l-5.22,50.67c-.26,2.46,1.31,4.91,3.4,5.22M868.08,337.85c-12.5,0-25.79,6.96-39.51,20.69-11.63,11.64-23.49,28.16-34.29,47.77-22.08,40.24-35.78,87.33-35.78,122.91,0,60.55,27.66,82.04,51.35,82.04,12.23,0,24.16-5.61,33.58-15.8,5.81-6.25,15.36-19.27,25.41-44.39,11.29,29.96,31.18,34.71,42.61,34.71,15.14,0,28.06-6.91,37.35-19.99,16.14-22.33,21.47-62.6,14.63-110.51-4.25-30.81-15.76-59.7-32.4-81.29-17.95-23.29-40.3-36.12-62.93-36.12h0Z"/>
          </g>
          <g>
            <path class="cls-10" d="M640.55,453.52c-16.59,0-31.06-2.37-43.01-7.05-53.28-20.46-78.13-75.17-86.34-97.74l-.02-.05c-.19-.42-.34-.81-.47-1.19-.03,0-.06,0-.08-.01-.13.04-.26.08-.39.11,3.24,10.77,15.26,57.86-12.12,83.26-10.03,9.01-22.8,13.79-39.12,14.65-2.19.4-4.5.4-6.22.4-18.47,0-34.45-6.17-47.48-18.34-37.5-34.64-42.12-113.71-10.72-183.9,29.38-66.07,139.04-100.65,232.18-100.65,37.93,0,69.2,6.03,88.05,16.99,28.38,16.2,39.61,43.79,28.57,70.27-13.44,33.53-58.26,59.53-122.74,72.24.97,0,1.95-.01,2.94-.01,78.16,0,126.06,18.54,138.51,53.6,8.17,23.37,1.58,45.35-19.04,63.6-23.8,20.57-64.01,33.83-102.5,33.83ZM529.17,277.06c.17,0,.32-.01.46-.03l9.8-55.71s-.03,0-.05,0c-.2,0-.38.02-.53.05l-9.86,55.69h.17Z"/>
            <path class="cls-3" d="M626.77,150.4c37.13,0,66.83,5.81,84.34,15.99,25.46,14.53,35.01,38.15,25.46,61.03-14.85,37.06-72.67,64.67-154.35,73.39-9.01.73-14.32,1.45-14.32,1.45-4.25.73-6.89,3.27-6.36,6.18.49,2.66,3.63,4.41,7.42,4.41.35,0,.71-.02,1.07-.05,4.77-.36,9.55-.73,14.32-1.09,9.02-.73,22.81-1.82,39.25-1.82,51.98,0,117.22,8.36,131.55,48.68,9.01,25.8-4.25,44.32-16.98,55.59-22.28,19.25-60.47,31.97-97.6,31.97-15.38,0-29.17-2.18-40.31-6.54-56.75-21.8-79.56-86.47-82.21-93.73-.53-1.09-.53-1.82-.53-1.82-.53-2.18-3.72-4-7.43-4-.53,0-1.06,0-1.59.36-4.25.36-6.9,3.27-5.84,6.18v1.45c2.12,5.45,15.91,53.77-9.55,77.38-8.49,7.63-19.63,11.99-35.01,12.72-1.59.36-3.71.36-5.3.36-16.45,0-30.76-5.45-42.43-16.35-35.01-32.33-39.25-107.9-9.02-175.48,28.11-63.21,134.73-96.28,225.43-96.28M528.11,284.46h1.06c3.71,0,6.9-1.82,7.43-4.36l10.61-60.31c.53-2.91-2.65-5.45-6.89-5.81-.31-.03-.62-.04-.93-.04-3.85,0-7.07,2.07-7.56,4.76l-10.61,59.95c-.53,2.91,2.65,5.45,6.89,5.81M626.77,135.61c-49.16,0-99.43,9.04-141.55,25.44-49.04,19.1-82.72,46.63-97.39,79.61-15.51,34.67-23.05,72.94-21.21,107.74,1.91,36.25,13.89,66.3,33.71,84.6,14.38,13.43,32.05,20.27,52.46,20.27,1.8,0,4.37,0,7.05-.43,17.86-1.02,31.99-6.4,43.15-16.43.06-.05.11-.1.17-.16,11.8-10.95,18.53-26.91,19.71-46.55,1.51,2.46,2.95,4.69,4.28,6.66,18.58,27.69,41.38,46.87,67.77,57.01,12.8,5,28.16,7.54,45.65,7.54,40.16,0,82.27-13.96,107.27-35.57.04-.04.09-.07.13-.11,22.72-20.1,30.23-45.51,21.13-71.53-4.44-12.5-12.7-23.15-24.59-31.73-9.77-7.05-22.19-12.79-36.9-17.06-11.63-3.37-24.83-5.88-39.48-7.52,8.06-2.84,15.64-5.95,22.69-9.3,30.17-14.36,50.72-33.41,59.44-55.08,12.5-30.09.04-61.26-31.77-79.44-20.25-11.75-51.96-17.96-91.71-17.96h0Z"/>
          </g>
          <g>
            <path class="cls-10" d="M851.45,391.94c-8.25-.36-14.92-2.98-20.51-8.01-.11-.1-.21-.2-.31-.3-8.92-9.03-10.9-22.57-11.11-31.56-.05.06-.1.12-.14.18-2.31,2.85-6.12,7.23-11.15,11.91-8.88,8.27-23.25,18.97-41.21,22.95-7.49,1.78-14.87,2.69-21.83,2.69-34.26,0-58.73-22.58-63.86-58.94-5.82-42.89,9.89-130.45,46.8-164.79,10.24-9.38,21.25-14.12,32.79-14.12,1.51,0,3.06.08,4.58.25,9.57,1.21,17.45,5.97,23.54,14.17,10.15,13.66,15.2,37.15,15.01,69.83-.04,7.03-.32,13.97-.75,20.57,6.14-22.66,14.4-46.39,24.71-61.5,11.84-17.7,35.8-30.59,56.93-30.59,14.8,0,50,6.82,57.12,70.02,6.61,63.14-20.07,112-47.24,136.7-13.97,12.86-29.89,20.56-42.54,20.56-.29,0-.56,0-.85-.01Z"/>
            <path class="cls-3" d="M760.93,159.35c1.26,0,2.53.07,3.8.2,43.82,5.53,31.55,108.57,26.29,139.71-2.1,11.64-3.51,19.21-3.51,19.21-.35,2.33,1.4,4.37,4.21,4.95.21.02.41.03.62.03,2.54,0,4.69-1.64,5.34-3.52,0-.29,1.05-7.86,3.15-19.21,5.26-27.36,16.83-77.13,33.3-101.29,10.52-15.72,31.9-27.36,50.83-27.36,26.99,0,45.22,22.99,49.77,63.45,6.31,60.25-18.93,106.82-44.87,130.4-12.71,11.69-27.1,18.64-37.57,18.64-.21,0-.43,0-.64,0-6.66-.29-11.57-2.33-15.77-6.11-11.22-11.35-8.76-33.18-8.76-33.47,0-2.04-1.4-3.78-3.5-4.37-.7-.29-1.05-.29-1.75-.29-1.75,0-3.51.87-4.56,2.33,0,.29-20.33,30.27-51.88,37.26-7.2,1.71-13.95,2.52-20.23,2.52-32.27,0-52.14-21.39-56.54-52.58-5.61-41.33,9.47-125.74,44.52-158.34,8.98-8.23,18.23-12.14,27.75-12.14M760.93,144.57c-13.44,0-26.14,5.39-37.74,16.02-.03.02-.05.05-.08.07-39.2,36.46-55.26,125.72-49.1,171.15,5.7,40.36,32.97,65.38,71.19,65.38,7.5,0,15.41-.97,23.54-2.89,15.47-3.45,30.86-12,44.53-24.73.37-.35.74-.69,1.09-1.03,1.87,7.1,5.2,14.42,11,20.29.2.21.41.41.63.6,6.92,6.22,15.1,9.46,25.01,9.89.08,0,.16,0,.23,0,.35,0,.7.01,1.05.01,14.45,0,32.24-8.43,47.58-22.54,28.44-25.85,56.45-76.99,49.56-142.82,0-.04,0-.08-.01-.11-5.4-47.95-29.5-76.58-64.46-76.58-23.78,0-49.7,13.92-63.08,33.87-4.1,6.02-7.88,13.3-11.34,21.29-1.78-19.59-6.29-38-15.56-50.47-7.24-9.74-17.06-15.65-28.41-17.08-.09-.01-.18-.02-.28-.03-1.79-.19-3.6-.29-5.37-.29h0Z"/>
          </g>
        </g>
      </g>
      <g>
        <g>
          <g>
            <path class="cls-7" d="M545.39,176.85c2.41-1.57,4.62-3.32,6.55-5.27,7.44-7.49,12.01-18.38,12.83-30.61,2.1-30.75-14.6-57.58-43.57-70.02-44.51-19.11-65.49,3.39-72.45,13.95-6.11,9.27-9.19,20.67-8.93,32.96.09,3.71.48,7.41,1.13,11.07,2.62,14.43,9.58,27.96,19.66,37.61,8.69,8.32,20.94,14.22,34.22,17.04,9.91,2.1,20.4,2.5,30.42.87,2.22-.36,4.4-.86,6.49-1.45l13.64-6.14ZM481.27,114.18c-1.56,4.93-4.18,8.3-7.82,10.01-1.78.82-3.66,1.2-5.56,1.2-5.65,0-11.38-3.29-14.48-7.48-3.32-4.47-4.47-10.92-2.99-16.84,1.2-4.83,3.92-8.47,7.67-10.27,6.79-3.25,15.16.33,19.56,5.36,6.76,7.68,3.75,17.59,3.63,18.02Z"/>
            <path class="cls-7" d="M489.14,63.5c8.98,0,19.61,2.09,32.08,7.44,28.97,12.44,45.67,39.27,43.57,70.02-.82,12.23-5.39,23.12-12.83,30.61-1.93,1.95-4.14,3.7-6.55,5.27l-13.64,6.14c-2.09.6-4.26,1.1-6.49,1.45-4.17.68-8.42,1-12.67,1-5.98,0-11.96-.65-17.75-1.88-13.28-2.82-25.53-8.73-34.22-17.04-10.08-9.65-17.04-23.19-19.66-37.61-.65-3.66-1.04-7.36-1.13-11.07-.26-12.29,2.82-23.68,8.93-32.96,5.01-7.6,17.29-21.39,40.38-21.39M467.89,125.39c1.9,0,3.78-.38,5.56-1.2,3.64-1.71,6.26-5.08,7.82-10.01.12-.43,3.13-10.34-3.63-18.02-3.23-3.69-8.6-6.6-13.91-6.6-1.92,0-3.84.38-5.65,1.25-3.75,1.8-6.47,5.44-7.67,10.27-1.47,5.92-.33,12.37,2.99,16.84,3.1,4.19,8.83,7.48,14.48,7.48M489.14,62.5c-23.32,0-35.83,13.68-41.21,21.84-6.21,9.43-9.36,21.03-9.1,33.53.08,3.64.47,7.42,1.14,11.23,2.7,14.87,9.79,28.42,19.96,38.16,8.6,8.22,20.92,14.37,34.71,17.3,5.93,1.26,11.97,1.9,17.96,1.9,4.36,0,8.67-.34,12.83-1.02,2.19-.35,4.41-.85,6.6-1.48l.07-.02.07-.03,13.64-6.14.07-.03.06-.04c2.56-1.67,4.82-3.49,6.72-5.4,7.62-7.68,12.28-18.77,13.12-31.25,2.13-31.18-14.79-58.39-44.17-71.01-11.63-4.99-22.55-7.52-32.47-7.52h0ZM467.89,124.39c-5.05,0-10.55-2.84-13.67-7.07-3.15-4.23-4.23-10.36-2.83-16,1.12-4.53,3.66-7.94,7.13-9.61,1.59-.76,3.35-1.15,5.22-1.15,4.67,0,9.83,2.46,13.16,6.26,5.97,6.79,3.9,15.4,3.43,17.05-1.47,4.67-3.93,7.83-7.29,9.41-1.58.73-3.31,1.1-5.14,1.1h0Z"/>
          </g>
          <path class="cls-7" d="M332.14,165.11c8.18,2.76,17.88,1.85,25.33-2.36h0c5.13-2.89,10.31-7.77,9.52-10.13-.68-2.07-6.43-3.05-11.6-2.82-5.51.26-8.88,2.07-12.14,3.83-3.34,1.8-6.82,3.67-12.17,3.54-3.28-.07-6.52-.85-9.63-2.32-3.14-1.48-5.19-3.23-5.87-3.8-.11-.09-.37-.31-.75-.66,1.67,2.83,3.82,5.72,6.58,8.29,3.14,2.94,6.75,5.1,10.72,6.44Z"/>
          <g>
            <path class="cls-7" d="M408.79,57.92c-12.83,5.73-32.61,16.67-50.68,35.37-7.12,7.34-13.98,15.9-20.04,25.82-.75,1.21-1.51,2.5-2.24,3.8-9.33-.82-18.05,4.33-18.43,4.53-1.57.92-3.23,1.9-4.69,3.15-.87.75-1.64,1.57-2.29,2.55-.27-.65-.51-1.3-.75-1.97-2.91-7.58-4.28-15.52-4-23.36.02-.63.03-1.27.09-1.9.29-4.33,1.13-8.61,2.41-12.77.07,0,.12.02.17.02,1.88,0,4.07-1.3,5.89-2.69,1.81-1.4,3.25-2.87,3.58-3.22,5.53-5.85,8.28-14.53,7.68-19.22-.12-.87-.36-1.57-.7-2.16,7.73-8.28,15.47-12.82,18.51-14.41,16.72-8.8,32.34-10.75,46.46-5.8,7.08,2.48,13.47,6.61,19.05,12.23Z"/>
            <path class="cls-7" d="M373.97,43.02c5.44,0,10.7.89,15.77,2.66,7.08,2.48,13.47,6.6,19.05,12.23-12.83,5.73-32.61,16.67-50.69,35.37-7.12,7.34-13.98,15.9-20.04,25.82-.75,1.21-1.51,2.5-2.24,3.8-.69-.06-1.37-.09-2.05-.09-8.52,0-16.03,4.43-16.38,4.62-1.57.92-3.23,1.9-4.69,3.15-.87.75-1.64,1.57-2.29,2.55-.27-.65-.51-1.3-.75-1.97-2.91-7.58-4.28-15.52-4-23.36.02-.63.03-1.27.09-1.9.29-4.33,1.13-8.61,2.41-12.77.07,0,.12.02.17.02,1.88,0,4.07-1.3,5.89-2.69,1.81-1.4,3.25-2.87,3.58-3.22,5.53-5.85,8.28-14.53,7.68-19.22-.12-.87-.36-1.57-.7-2.16,7.73-8.28,15.47-12.82,18.52-14.41,10.71-5.64,20.98-8.46,30.69-8.46M373.97,42.02h0c-9.85,0-20.34,2.89-31.15,8.58-3.01,1.57-10.88,6.15-18.78,14.61l-.51.55.38.64c.29.49.48,1.07.57,1.79.57,4.46-2.1,12.77-7.42,18.39-.16.17-1.61,1.68-3.46,3.11-2.09,1.6-3.9,2.46-5.23,2.48-.07-.01-.14-.02-.22-.02h-.74l-.22.71c-1.34,4.35-2.17,8.72-2.45,12.99-.05.65-.07,1.3-.09,1.94-.28,7.99,1.09,15.98,4.07,23.74.21.59.47,1.3.77,2l.72,1.71,1.03-1.55c.55-.83,1.24-1.6,2.11-2.35,1.39-1.19,2.99-2.13,4.54-3.04l.05-.03c1.85-1.05,8.45-4.46,15.82-4.46.66,0,1.32.03,1.96.08l.64.06.32-.56c.78-1.37,1.52-2.64,2.22-3.76,5.6-9.18,12.3-17.81,19.91-25.65,17.77-18.4,37.21-29.27,50.38-35.15l1.32-.59-1.02-1.03c-5.71-5.76-12.25-9.96-19.43-12.47-5.15-1.8-10.57-2.72-16.1-2.72h0Z"/>
          </g>
          <path class="cls-7" d="M406.91,154.43c-1.73,12.82-12,22.01-20.81,27.67-4.64,2.98-8.88,4.96-11.26,5.99-7.75,3.32-23.85,10.25-40.64,2.75-5.34-2.4-10.08-5.92-14.07-10.47l-.31-.38c-3.88-4.53-6.09-8.95-7.07-11.19-.19-.46-.34-.91-.53-1.37-2.02-5.08-2.86-9.98-3.03-14.37-.12-2.81.03-5.41.34-7.72.72,1.76,1.63,3.7,2.75,5.7,1.81,3.2,4.23,6.55,7.39,9.48,3.41,3.2,7.32,5.54,11.65,7,3.46,1.16,7.1,1.73,10.75,1.73,5.82,0,11.62-1.45,16.63-4.28,4.4-2.48,12.27-8.4,10.69-13.16-1.61-4.88-12.06-4.65-14.13-4.55-6.07.29-9.87,2.33-13.23,4.12-3.32,1.8-6.19,3.35-10.92,3.23-2.91-.07-5.8-.75-8.59-2.07-2.84-1.35-4.71-2.93-5.32-3.46-.05-.03-.31-.26-.7-.63-1.4-1.28-4.52-4.45-6.02-8.16.38-1.51.77-2.77,1.09-3.73.98-3.35,4.09-5.17,7.1-6.93.36-.21,8.88-5.24,17.68-4.12,2,.26,3.88.82,5.61,1.71.26.14.5.29.75.44,3.01,1.8,4.19,3.99,5.41,6.3.02.03.03.07.05.1,1.32,2.5,2.7,5.08,6.43,6.67,4.23,1.83,7.55.7,12.12-.87,3.56-1.23,7.99-2.75,14.61-3.63,8.09-1.06,17.27-2.26,22.23,2.72,3.15,3.15,4.26,8.35,3.32,15.47Z"/>
          <g>
            <path class="cls-7" d="M613.26,68.13c-.39-1.33-.94-3.15-1.63-5.25-2.62-8.04-7.41-20.96-14.48-33.04-9.14-15.61-18.89-24.38-28.95-26.1-3.71-.63-9.67-.29-22.79,8.03-11.21,7.08-21.37,16.07-30.36,26.78-2.93,3.49-5.72,7.15-8.38,11,7.05,1.8,13.95,4.12,20.6,7,11.04,4.74,32.48,16.03,52.1,38.35,18.48,21.01,26.13,41.67,30.24,52.77.65,1.73,1.39,3.82,2.14,6.31,9.15-27.12,9.7-57.53,1.51-85.85ZM541.42,58.12l-2.24-1.18c2.48-4.72,5.44-9.14,8.83-13.23,1.37-1.64,2.81-3.27,4.31-4.81,6.5-6.59,14.08-11.89,22.55-15.78l1.04,2.31c-8.18,3.75-15.5,8.88-21.78,15.25-1.15,1.16-2.22,2.38-3.29,3.61-3.64,4.23-6.81,8.85-9.43,13.83ZM579.85,70.38c-3.06,2.28-5.85,4.95-8.28,7.91l-1.97-1.61c2.57-3.11,5.51-5.92,8.73-8.33,4.45-3.34,9.43-5.89,14.78-7.58l.77,2.41c-5.08,1.63-9.8,4.04-14.03,7.2ZM602.05,103.61c-2.02,1.59-3.97,3.3-5.82,5.08l-1.76-1.83c1.9-1.83,3.92-3.61,6.01-5.25,2.72-2.17,5.63-4.19,8.62-6.01l1.32,2.17c-2.91,1.76-5.72,3.73-8.37,5.84Z"/>
            <path class="cls-7" d="M565.78,3.54c.91,0,1.71.09,2.42.21,10.06,1.71,19.82,10.49,28.95,26.1,7.07,12.08,11.86,25,14.48,33.04.68,2.1,1.23,3.92,1.63,5.25,8.2,28.32,7.65,58.73-1.51,85.85-.75-2.5-1.49-4.59-2.14-6.31-4.11-11.11-11.76-31.76-30.24-52.77-19.63-22.31-41.07-33.61-52.1-38.35-6.66-2.88-13.55-5.2-20.6-7,2.67-3.85,5.46-7.51,8.38-11,8.98-10.71,19.15-19.7,30.36-26.78,10.6-6.72,16.53-8.23,20.37-8.23M541.42,58.12c2.62-4.98,5.78-9.6,9.43-13.83,1.06-1.23,2.14-2.45,3.29-3.61,6.28-6.37,13.6-11.5,21.78-15.25l-1.04-2.31c-8.47,3.88-16.05,9.19-22.55,15.78-1.51,1.54-2.94,3.17-4.31,4.81-3.39,4.09-6.35,8.5-8.83,13.23l2.24,1.18M571.57,78.28c2.43-2.96,5.22-5.63,8.28-7.91,4.23-3.17,8.95-5.58,14.03-7.2l-.77-2.41c-5.36,1.69-10.34,4.24-14.78,7.58-3.22,2.41-6.16,5.22-8.73,8.33l1.97,1.61M596.23,108.69c1.85-1.78,3.8-3.49,5.82-5.08,2.65-2.1,5.46-4.07,8.37-5.83l-1.32-2.17c-2.99,1.81-5.9,3.83-8.62,6.01-2.09,1.64-4.11,3.42-6.01,5.25l1.76,1.83M565.78,2.54c-5.23,0-11.87,2.67-20.9,8.39-11.24,7.1-21.53,16.18-30.59,26.98-2.92,3.48-5.76,7.21-8.44,11.08l-.82,1.18,1.4.36c7.07,1.8,13.95,4.14,20.45,6.95,10.95,4.7,32.24,15.91,51.75,38.09,18.38,20.9,25.97,41.43,30.05,52.46.79,2.1,1.48,4.15,2.12,6.26l.9,3,1-2.97c9.21-27.3,9.75-58,1.52-86.45-.54-1.84-1.08-3.57-1.63-5.28-2.79-8.58-7.59-21.31-14.56-33.24-9.29-15.87-19.27-24.81-29.65-26.58-.87-.15-1.72-.22-2.59-.22h0ZM540.53,56.53c2.32-4.28,5.09-8.37,8.24-12.17,1.49-1.79,2.89-3.34,4.26-4.75,6.18-6.26,13.36-11.35,21.34-15.14l.22.49c-7.91,3.75-15.03,8.81-21.18,15.03-1.26,1.28-2.44,2.63-3.33,3.66-3.5,4.06-6.55,8.47-9.08,13.13l-.47-.25h0ZM571.02,76.54c2.35-2.74,5.01-5.23,7.91-7.4,4.09-3.07,8.64-5.46,13.54-7.12l.16.51c-4.85,1.66-9.35,4.03-13.38,7.04-2.85,2.12-5.48,4.57-7.81,7.31l-.42-.34h0ZM595.88,106.89c1.72-1.62,3.47-3.13,5.21-4.5,2.41-1.92,4.98-3.74,7.67-5.41l.28.46c-2.59,1.62-5.15,3.42-7.62,5.38-1.75,1.38-3.48,2.87-5.17,4.46l-.38-.39h0Z"/>
          </g>
          <g>
            <path class="cls-7" d="M531.76,182.98c5-1.43,9.61-3.51,13.63-6.14-5.33,1.01-10.82,1.93-16.41,2.77.94,1.11,1.87,2.23,2.77,3.37Z"/>
            <path class="cls-7" d="M545.39,176.84c-4.02,2.63-8.64,4.71-13.63,6.14-.9-1.14-1.83-2.26-2.77-3.37,5.59-.84,11.07-1.76,16.41-2.77M550.15,174.93l-4.94.93c-5.17.98-10.68,1.91-16.37,2.77l-1.77.27,1.16,1.37c1.03,1.21,1.93,2.3,2.75,3.34l.42.52.64-.18c5.11-1.47,9.79-3.57,13.91-6.26l4.21-2.75h0Z"/>
          </g>
          <g>
            <path class="cls-7" d="M332.18,398.73c-2.24,2.75-4.43,5.56-6.57,8.42,2.12-2.84,4.31-5.66,6.57-8.42Z"/>
            <path class="cls-7" d="M332.18,398.73c-2.24,2.75-4.43,5.56-6.57,8.42,2.12-2.84,4.31-5.66,6.57-8.42M331.41,398.1c-2.14,2.61-4.3,5.38-6.6,8.45l1.6,1.2c2.12-2.83,4.32-5.66,6.55-8.39l-1.55-1.27h0Z"/>
          </g>
          <g>
            <path class="cls-7" d="M617.94,340.32h0c.05-.32.11-.62.16-.95-.05.33-.11.63-.16.95Z"/>
            <path class="cls-7" d="M618.1,339.37c-.05.33-.11.63-.16.95h0c.05-.32.11-.62.16-.95M617.12,339.22c-.03.19-.06.38-.1.57l-.06.37-.19,1.16h2.03l.14-.84.06-.35c.03-.2.07-.4.1-.6l-1.98-.31h0Z"/>
          </g>
          <g>
            <polygon class="cls-7" points="499.2 361.24 499.19 361.25 499.2 361.25 499.2 361.24"/>
            <path class="cls-7" d="M499.2,361.24h0s0,0,0,0c0,0,0,0,0,0M500.2,359.25l-1.58,1.18h0s-.03.02-.03.02l-2.39,1.8h3.12s.88-.12.88-.12v-2.89h0Z"/>
          </g>
          <path class="cls-7" d="M546.72,437.27l.72-.31c-.24.1-.48.22-.72.33-.48.21-.96.41-1.44.62-.48.21-.98.43-1.47.63-.5.21-.99.41-1.49.62.5-.21.99-.41,1.49-.63.99-.41,1.95-.82,2.91-1.25Z"/>
          <path class="cls-7" d="M547.44,436.96c.72-.31,1.4-.62,2.09-.92-.51.24-1.03.46-1.56.7-.17.07-.34.15-.53.22Z"/>
          <path class="cls-7" d="M554.87,433.55c.34-.15.68-.33,1.03-.5-.34.17-.68.34-1.03.51-.09.03-.19.09-.27.12.09-.05.19-.09.27-.14Z"/>
          <path class="cls-7" d="M559.84,431.06c.4-.21.82-.41,1.21-.64-.39.22-.79.43-1.2.63-.31.17-.6.33-.91.48-.51.27-1.03.53-1.54.79-.5.26-.99.5-1.51.74.51-.26,1.01-.5,1.51-.75.83-.41,1.64-.82,2.44-1.24Z"/>
          <path class="cls-7" d="M603.4,386.65c.34-.67.67-1.35.98-2.02-.31.67-.63,1.35-.96,2.02t-.02.02v-.02Z"/>
          <path class="cls-7" d="M707.2,412.52c-1.49,5.65-2.98,9.86-4.5,13.36-1.57,3.61-3.17,6.5-4.81,9.46-2.69,4.89-5.49,9.94-8.61,18.7-4.96,14-5.92,24.09-6.62,31.45-.82,8.74-1.32,14.01-7.12,19.28-10.2,9.24-27.84,10.87-40.14,3.68-8.32-4.84-13.95-13.4-16.7-25.45-1.47-6.38-1.51-12.95-.09-19.56l.09-.38.12-.5c4.19.14,8.4.21,12.59.21h.77v-2.55c-.26,0-.51.02-.77.02-25.48,0-51.01-2.38-75.86-7.03-8.95-1.68-17.93-3.7-26.78-5.97,19.42-7.41,33.47-13.66,44.71-21.37,6.31-4.31,11.74-9.09,16.74-14.78,17.57-20.04,23.1-41.38,28.46-62,.36-1.4.75-2.96,1.15-4.93,24.4,12.54,47.25,20.55,67.9,23.79l.67.12c5.34.82,13.4,2.07,18.4,8.38,7.39,9.36,3.35,24.79.41,36.05Z"/>
          <g>
            <path class="cls-7" d="M313.08,278.41c-1.72.06-3.45.3-5.14.71l-.6-2.47c1.86-.45,3.76-.71,5.65-.78.83-.03,1.65,0,2.48.04-1.61-14.16-2.58-29.49-2.17-46.08-.88-.2-1.77-.37-2.67-.49-2.42-.33-4.88-.4-7.33-.2l-.21-2.53c2.63-.21,5.28-.14,7.88.22.81.11,1.62.26,2.42.43.14-4.32.36-8.71.71-13.2.02-.26.05-.53.07-.8-5.18-2.34-9.51-3.15-12.55-2.31-3.26.9-5.35,3.59-5.66,14.23-.28,9.65,1.1,15.07,2.56,20.81,1.2,4.71,2.44,9.59,2.8,16.98.13,2.6.11,4.84.1,7.01-.03,4.93-.05,9.18,1.52,16.03,2.17,9.5,4.9,12.64,8.86,14.86,3.07,1.71,5.81,2.53,7.71,2.92-1.37-7.96-2.67-16.4-3.74-25.31-.89-.06-1.79-.1-2.69-.07Z"/>
            <path class="cls-7" d="M304.21,210.62c2.73,0,6.12.89,9.96,2.63-.02.26-.05.54-.07.8-.35,4.49-.56,8.88-.71,13.2-.8-.17-1.61-.32-2.42-.43-1.63-.23-3.28-.34-4.93-.34-.98,0-1.97.04-2.95.12l.21,2.53c.91-.07,1.83-.11,2.74-.11,1.54,0,3.07.11,4.59.31.89.12,1.78.29,2.67.49-.41,16.59.56,31.92,2.17,46.08-.57-.03-1.14-.05-1.71-.05-.25,0-.51,0-.77.01-1.9.06-3.8.33-5.65.78l.6,2.47c1.69-.41,3.42-.65,5.14-.71.21,0,.42,0,.63,0,.68,0,1.37.03,2.05.08,1.07,8.91,2.38,17.34,3.74,25.31-1.9-.39-4.65-1.2-7.71-2.92-3.96-2.22-6.69-5.36-8.86-14.86-1.57-6.85-1.54-11.1-1.52-16.03.01-2.17.03-4.41-.1-7.01-.36-7.4-1.6-12.27-2.8-16.98-1.46-5.74-2.84-11.17-2.56-20.81.31-10.64,2.4-13.33,5.66-14.23.78-.21,1.65-.32,2.59-.32M304.21,209.62c-1.03,0-1.99.12-2.85.36-4.37,1.21-6.11,5.32-6.4,15.17-.29,9.78,1.11,15.27,2.58,21.08,1.19,4.67,2.42,9.5,2.77,16.8.13,2.58.11,4.8.1,6.95-.03,4.99-.05,9.3,1.54,16.26,2.26,9.86,5.14,13.15,9.35,15.51,3.24,1.81,6.14,2.65,8,3.03l1.43.29-.25-1.44c-1.58-9.19-2.8-17.45-3.74-25.26l-.1-.82-.82-.06c-.77-.05-1.47-.08-2.12-.08-.22,0-.44,0-.66,0-1.46.05-2.93.22-4.37.52l-.13-.53c1.48-.3,2.98-.48,4.47-.53.25,0,.49-.01.73-.01.51,0,1.05.02,1.66.05l1.18.07-.13-1.18c-1.83-16.08-2.53-31.11-2.17-45.94l.02-.82-.8-.18c-1.01-.22-1.91-.39-2.75-.51-1.56-.21-3.15-.32-4.73-.32-.61,0-1.22.02-1.82.05l-.04-.54c.62-.03,1.25-.05,1.87-.05,1.61,0,3.22.11,4.8.33.7.1,1.45.23,2.35.42l1.16.24.04-1.19c.16-4.77.39-9.07.71-13.16,0-.14.02-.27.03-.41.01-.13.02-.26.03-.4l.05-.7-.64-.29c-4-1.81-7.49-2.72-10.38-2.72h0Z"/>
          </g>
          <g>
            <path class="cls-7" d="M473.78,303.8c-1.08,18.55-3.29,37.2-6.69,55.77-5.25-.03-10.51-.15-15.78-.39-41.87-1.87-83.32-9.82-123.19-23.61-1.09-5.17-2.16-10.35-3.11-15.54-.96-5.17-1.95-10.57-2.93-16.22-4.31-25.09-8.13-54.83-5.44-89.55.14-1.92.31-3.83.5-5.78l.1-1.1c.14-1.4.27-2.75.39-4.12.09-.74.15-1.44.22-2.17.6-5.97,1.2-11.77,1.92-17.35,3.9,4.02,8.38,7.2,13.38,9.43,5.87,2.64,11.64,3.59,17.01,3.59,10.93,0,20.28-4,25.7-6.33,2.87-1.25,8.38-3.87,14.15-7.91,8.21-5.77,16.92-14.44,19.13-26.15,5.17,2,10.83,4.62,16.63,7.96,3.47,1.98,7,4.26,10.47,6.81l15.69,14.31c3.49,3.97,6.76,8.35,9.65,13.23,4.79,8.09,11.35,23.75,12.71,66.1.41,12.92.22,25.96-.53,39.03Z"/>
            <path class="cls-7" d="M409.15,156.36c5.17,2,10.83,4.62,16.63,7.96,3.47,1.98,7,4.26,10.47,6.81l15.69,14.31c3.49,3.97,6.76,8.35,9.65,13.23,4.79,8.09,11.35,23.75,12.71,66.1.41,12.92.22,25.96-.53,39.03-1.08,18.55-3.29,37.2-6.69,55.77-5.25-.03-10.51-.15-15.78-.39-41.87-1.87-83.32-9.82-123.19-23.61-1.1-5.17-2.16-10.35-3.11-15.54-.96-5.17-1.95-10.57-2.93-16.22-4.31-25.09-8.13-54.83-5.44-89.55.14-1.92.31-3.83.5-5.78l.1-1.1c.14-1.4.27-2.76.39-4.12.09-.74.15-1.44.22-2.17.6-5.97,1.2-11.77,1.92-17.35,3.9,4.02,8.38,7.2,13.38,9.43,5.87,2.64,11.64,3.59,17.01,3.59,10.93,0,20.28-4,25.7-6.33,2.87-1.25,8.38-3.87,14.15-7.91,8.21-5.77,16.92-14.44,19.13-26.15M408.39,155l-.22,1.18c-1.23,6.5-5.47,16.21-18.72,25.51-5.68,3.98-11.19,6.6-13.98,7.81-5.45,2.34-14.57,6.25-25.3,6.25-5.83,0-11.42-1.18-16.6-3.51-4.83-2.15-9.23-5.25-13.07-9.21l-1.44-1.49-.26,2.06c-.74,5.72-1.35,11.72-1.92,17.38-.07.74-.14,1.43-.22,2.16-.1,1.14-.21,2.24-.32,3.36l-.08.78-.1,1.1c-.22,2.26-.38,4.11-.5,5.81-2.73,35.28,1.23,65.19,5.45,89.79.97,5.64,1.98,11.14,2.93,16.23.83,4.5,1.82,9.44,3.12,15.56l.12.55.53.18c40,13.84,81.54,21.8,123.47,23.67,5.03.23,10.21.36,15.81.39h.84s.15-.82.15-.82c3.36-18.31,5.61-37.11,6.71-55.89.76-13.18.94-26.34.53-39.12-1.38-42.54-7.99-58.37-12.85-66.58-2.75-4.64-6.04-9.14-9.76-13.38l-.04-.04-.04-.04-15.69-14.31-.04-.04-.04-.03c-3.4-2.5-6.96-4.81-10.57-6.87-5.39-3.1-11.03-5.8-16.77-8.02l-1.12-.43h0Z"/>
          </g>
          <path class="cls-7" d="M617.94,340.31c-.1.6-.19,1.18-.29,1.75-.12.65-.24,1.27-.36,1.85-.38,1.81-.74,3.25-1.08,4.55-.41,1.59-.82,3.18-1.25,4.79v.02c-.43,1.59-.86,3.2-1.3,4.81-1.49,5.44-3.11,10.92-5.1,16.36-.5,1.37-1.01,2.72-1.56,4.09-.82,2.04-1.69,4.07-2.64,6.11-.31.67-.63,1.35-.98,2.02v.02c-.15.34-.33.68-.5,1.01-.21.41-.41.82-.62,1.21-.31.6-.63,1.21-.96,1.81-3.42,6.35-7.65,12.61-13.02,18.72-4.41,5.05-9.21,9.36-14.68,13.28-1.52,1.1-3.1,2.16-4.74,3.18-.62.39-1.25.79-1.88,1.16-.63.38-1.27.75-1.92,1.13l-.98.56c-.33.19-.67.38-1.01.56-.68.38-1.35.75-2.05,1.11-.39.22-.79.43-1.2.63-.8.43-1.61.84-2.45,1.25-.5.26-.99.5-1.51.75-.34.17-.68.34-1.03.5-.09.05-.19.09-.27.14-1.64.79-3.32,1.57-5.06,2.34-.68.31-1.37.62-2.09.92l-.72.31c-.96.43-1.92.84-2.91,1.25-.5.22-.99.43-1.49.63-.68.29-1.39.58-2.09.87-.84.34-1.68.68-2.55,1.03-3.17,1.27-6.49,2.57-9.99,3.9-1.16.44-2.36.91-3.56,1.35-.7.26-1.44.53-2.16.8-5.89,2.19-12.27,4.53-19.01,7-.34.12-.68.26-1.03.38l-.09.03-.15.05c-.86.31-1.69.62-2.51.91-3.59,1.3-6.84,2.41-9.86,3.42-4.21,1.42-7.89,2.58-11.29,3.63-.5.15-.98.29-1.44.44-.94.29-1.88.56-2.79.84-.46.14-.91.27-1.35.41-.99.29-1.95.58-2.93.89-1.93.58-3.85,1.18-5.82,1.8-.98.31-1.97.63-2.96.96-1.01.33-2.02.67-3.06,1.03-3.13,1.06-6.47,2.28-10.22,3.71-3.7,1.42-7.79,3.06-12.46,5.05l-.31.14c-9.34,3.97-16.96,7.2-23.79,10.37-9.91,4.59-18.12,9-27.38,15.23-1.42.96-2.79,1.9-4.07,2.82-1.95,1.37-3.75,2.7-5.44,4-1.68,1.28-3.25,2.53-4.71,3.73-1.83,1.51-3.49,2.94-5.03,4.31-2.57,2.29-4.79,4.4-6.84,6.35-1.9,1.8-3.61,3.41-5.27,4.84-3.17,2.75-6.13,4.83-9.82,6.18-1.87.7-3.94,1.2-6.31,1.52-7.29.98-14.68-.12-21.63-2.53-5.78-2-11.26-4.93-16.12-8.32-.6-.43-1.2-.86-1.8-1.3-.58-.44-1.16-.89-1.71-1.33h-.02c-.56-.46-1.11-.91-1.64-1.37h-.02c-.55-.46-1.06-.92-1.57-1.39h-.02c-.51-.48-1.01-.94-1.51-1.42-.5-.46-.98-.94-1.44-1.42-.94-.98-1.81-1.93-2.64-2.91-.27-.33-.53-.63-.77-.94-.26-.31-.48-.62-.7-.91-.44-.58-.86-1.15-1.21-1.68-.72-1.08-1.3-2.07-1.8-3.03-.17-.34-.34-.68-.5-1.03-.31-.68-.6-1.35-.87-2.02-.14-.34-.27-.68-.39-1.03-.09-.21-.15-.41-.24-.62-1.23-3.2-2.6-6.79-6.28-12.23-.58-.86-1.21-1.76-1.92-2.72-7.34-9.99-13.96-14.89-19.27-18.81-5.61-4.16-9.69-7.15-11.94-14.15-3.15-9.72-1.06-21.37,5-30.12,1.09-1.59,2.31-3.1,3.68-4.47,1.59-1.61,3.34-3.01,5.22-4.23,8.13-5.25,18.84-6.78,31.42-4.4,4.86.92,9.48,2.64,13.84,5.07,3.78,2.12,7.36,4.81,10.73,8.03.26.24.51.46.77.72.29.29.56.56.86.86.27.29.55.58.82.87,2.91,3.15,5.29,6.35,7.15,9.21,1.87,2.89,3.23,5.42,4.12,7.24.58,1.18.96,2.05,1.15,2.5l.82-.34,1.52-.63c-.05-.12-.12-.27-.19-.44-.09-.19-.17-.39-.27-.62-.1-.24-.22-.5-.36-.77-.12-.27-.27-.58-.45-.91-.24-.5-.51-1.04-.82-1.61-.31-.58-.65-1.21-1.03-1.87-2.24-3.97-5.7-9.19-10.49-14.2-.12-.12-.22-.24-.34-.36.14-.22.29-.46.43-.7,3.73-6.06,7.73-11.96,11.98-17.68,2.14-2.86,4.33-5.66,6.57-8.42s4.55-5.46,6.91-8.11c3.08-3.46,6.33-6.81,9.62-10.1,5.72-5.7,11.69-11.16,17.92-16.24l-1.59-1.97c-6.64,5.41-12.99,11.19-19.03,17.28-.68.7-1.35,1.4-2.04,2.1-.98,1.01-1.97,2-2.93,3.03-.84-2.67-1.63-5.29-2.4-7.89-1.56-5.25-3.03-10.42-4.4-15.59-1.98-7.51-3.82-15.14-5.49-22.81,39.65,13.57,80.82,21.41,122.43,23.27,6.6.29,13.18.44,19.76.44,9.43,0,18.84-.31,28.23-.92h.02c24.26-1.57,48.34-5.18,72.11-10.8,12.12-2.86,24.14-6.23,36.09-10.13h10.54Z"/>
          <path class="cls-7" d="M332.18,398.73c-2.24,2.75-4.43,5.56-6.57,8.42,2.12-2.84,4.31-5.66,6.57-8.42Z"/>
          <path class="cls-7" d="M618.51,336.55c-.12.98-.26,1.92-.41,2.82-.05.33-.1.63-.15.94h-10.54c3.71-1.21,7.41-2.45,11.11-3.76Z"/>
          <path class="cls-7" d="M542.33,439.15c.5-.21.99-.41,1.49-.63v.02c-.5.21-.99.41-1.49.62Z"/>
          <path class="cls-7" d="M543.82,438.52c.99-.41,1.95-.82,2.91-1.25v.02c-.48.21-.96.41-1.44.62-.5.21-.98.41-1.47.62Z"/>
          <path class="cls-7" d="M547.44,436.96c.72-.31,1.4-.62,2.09-.92-.51.24-1.03.46-1.56.7-.17.07-.34.15-.53.22Z"/>
          <path class="cls-7" d="M554.6,433.69c.09-.05.19-.09.27-.14v.02c-.09.03-.19.09-.27.12Z"/>
          <path class="cls-7" d="M555.9,433.06c.51-.26,1.01-.5,1.51-.75v.02c-.5.26-.99.5-1.51.74Z"/>
          <path class="cls-7" d="M559.85,431.06c-.31.17-.6.33-.91.48-.51.26-1.03.51-1.54.77.84-.41,1.64-.82,2.45-1.25Z"/>
          <path class="cls-7" d="M603.4,386.65c.34-.67.67-1.35.98-2.02-.31.67-.63,1.35-.96,2.02h-.02Z"/>
          <g>
            <path class="cls-7" d="M651.67,247.98c-.07-1.73-.09-3.58-.12-5.49-.15-10.93-.34-23.34-8.69-29.65-10.88-8.26-28.25-.07-39.75,5.36l-.74.34c-13.67,6.45-25.21,15.18-34.26,25.92.79,7.96,1.08,18.12-.36,29.76-1.47,11.91-4.33,21.89-7.15,29.59-.15.43-.33.89-.48,1.32,6.91,7.55,15.09,13.24,24.3,16.92,8.88,3.54,39.13,13.45,54.79-7.43,2.31-3.08,4.24-6.66,5.87-10.81,1.32-3.34,2.43-7.03,3.41-11.24,2.91-12.78,3.94-26.95,3.18-44.58ZM634.05,282.77c-6.26-.38-12.61-.39-18.86-.05-8.3.46-16.63,1.57-24.79,3.29l-.51-2.48c8.26-1.75,16.73-2.87,25.15-3.34,6.35-.36,12.8-.34,19.16.03l-.15,2.55ZM620.08,243.63c-10.95,3.64-21.37,8.86-30.97,15.49l-1.44-2.09c9.79-6.78,20.43-12.08,31.61-15.81,6.38-2.1,12.99-3.73,19.64-4.79l.39,2.52c-6.52,1.04-12.99,2.62-19.23,4.69Z"/>
            <path class="cls-7" d="M631.42,209.32c4.18,0,8.12.99,11.44,3.51,8.35,6.31,8.54,18.72,8.69,29.65.03,1.92.05,3.76.12,5.49.75,17.62-.27,31.79-3.18,44.58-.98,4.21-2.09,7.91-3.41,11.24-1.63,4.16-3.56,7.73-5.87,10.81-7.45,9.93-18.19,12.89-28.37,12.89-11.23,0-21.76-3.61-26.42-5.47-9.21-3.68-17.39-9.38-24.3-16.92.15-.43.32-.89.48-1.32,2.82-7.7,5.68-17.68,7.15-29.59,1.44-11.64,1.15-21.8.36-29.76,9.05-10.75,20.59-19.47,34.26-25.92l.74-.34c7.99-3.77,18.8-8.87,28.31-8.87M589.11,259.12c9.6-6.62,20.02-11.84,30.97-15.49,6.25-2.07,12.71-3.64,19.23-4.69l-.39-2.52c-6.66,1.06-13.26,2.69-19.64,4.79-11.17,3.73-21.82,9.03-31.6,15.81l1.44,2.09M590.39,286c8.16-1.71,16.5-2.82,24.79-3.29,2.97-.16,5.97-.24,8.97-.24,3.3,0,6.6.1,9.89.3l.15-2.55c-3.29-.19-6.61-.29-9.92-.29-3.09,0-6.18.09-9.24.26-8.42.46-16.89,1.59-25.15,3.34l.51,2.48M631.42,208.32c-9.73,0-20.71,5.18-28.72,8.96l-.74.34c-13.81,6.52-25.45,15.33-34.6,26.19l-.27.32.04.42c.97,9.82.85,19.76-.36,29.54-1.24,10.01-3.63,19.89-7.1,29.36l-.23.63-.25.69-.2.57.41.45c7.02,7.66,15.32,13.44,24.66,17.18,4.18,1.67,15.14,5.54,26.79,5.54,12.74,0,22.55-4.47,29.17-13.29,2.36-3.15,4.33-6.76,6-11.05,1.32-3.34,2.45-7.07,3.45-11.38,2.94-12.93,3.96-27.18,3.21-44.84-.05-1.32-.07-2.7-.1-4.16l-.02-1.31c-.16-11.16-.33-23.81-9.09-30.43-3.25-2.47-7.3-3.72-12.04-3.72h0ZM589.06,257.29c9.43-6.42,19.7-11.51,30.53-15.12,6.09-2.01,12.31-3.55,18.5-4.59l.08.54c-6.25,1.05-12.44,2.59-18.41,4.57-10.71,3.56-20.93,8.62-30.4,15.05l-.3-.44h0ZM591.06,284.29c7.94-1.63,16.02-2.67,24.03-3.11,3.02-.17,6.11-.26,9.19-.26s5.92.08,8.86.24l-.03.55c-2.96-.16-5.97-.24-8.95-.24s-6.05.08-9.03.25c-7.96.44-16.02,1.49-23.96,3.1l-.11-.52h0Z"/>
          </g>
          <path class="cls-7" d="M617.7,329.57c-.55.09-1.09.15-1.66.21-1.73.17-3.46.27-5.15.27-4.72,0-9.29-.6-13.4-1.45-1.54-.31-3.01-.67-4.4-1.03-2.31-.62-4.4-1.27-6.16-1.88-1.35-.46-2.52-.91-3.46-1.28-9.57-3.82-18.05-9.74-25.24-17.57l1.4-1.27.48-.44c.15-.43.33-.89.48-1.32,2.82-7.7,5.68-17.68,7.15-29.59,1.44-11.64,1.15-21.8.36-29.76l-1.95-1.63c9.29-11.05,21.12-19.99,35.13-26.59l.74-.36c4.45-2.1,9.75-4.6,15.28-6.45-2.29-30.51-5.08-44.1-7.1-51.61-.12-.43-.22-.84-.34-1.25-.92-3.3-1.85-5.9-2.64-8.03-4.06-10.93-11.6-31.31-29.77-51.97-19.28-21.95-40.37-33.04-51.2-37.7-12.3-5.3-25.39-8.78-38.91-10.32-26.3-2.99-48.77,1.66-62.99,6.11-3.99,1.25-8.45,2.91-12.87,4.84-12.2,5.27-31.86,15.73-50.02,33.98-7.55,7.56-14.85,16.48-21.24,26.93-.56.94-1.15,1.9-1.71,2.89,1.63.36,3.17.91,4.62,1.64,1.54.8,2.74,1.71,3.7,2.65,1.71,1.68,2.67,3.49,3.56,5.17.09.17.15.33.24.48,1.13,2.14,2.24,3.97,5,5.15,3.32,1.44,5.94.53,10.28-.96,3.66-1.27,8.23-2.84,15.09-3.73,3.87-.51,7.97-1.04,11.84-.96,4.21.09,8.16.91,11.26,3.29.44.34.87.7,1.27,1.11,3.58,3.58,4.95,9.17,4.14,16.6,5.2,2.02,10.97,4.62,16.86,7.96,3.51,1.97,7.05,4.23,10.57,6.76,6.42,4.62,12.7,10.18,18.33,16.92,3.05,3.64,5.92,7.61,8.5,11.96,4.95,8.33,11.67,24.38,13.06,67.32.43,12.95.22,26.01-.53,39.12-1.06,18.57-3.27,37.22-6.66,55.8,9.87.02,19.73-.33,29.54-.96,1.39-.1,2.75-.17,4.14-.27,14.7-1.1,29.31-2.94,43.84-5.53,17.45-3.1,34.72-7.27,51.83-12.53h.02c3.32-1.03,6.64-2.07,9.94-3.17,3.3-1.11,6.62-2.24,9.91-3.42.1-.91.21-1.88.31-2.86.05-.51.1-1.01.15-1.54-.55.1-1.1.17-1.63.24ZM551.21,175.7c-5.65,4.84-12.01,7.73-17.76,9.46-2.77.84-5.42,1.42-7.77,1.8-4.3.7-8.69,1.03-13.07,1.03-8.73,0-17.45-1.33-25.62-3.83-10.88-3.34-20.74-8.73-28.13-15.79-10.68-10.23-18.02-24.67-20.59-39.99-.56-3.46-.91-6.96-.99-10.47-.27-12.8,2.96-24.71,9.36-34.41,8.32-12.61,19.92-19.99,34.5-21.92,12.34-1.64,26.56.8,41.09,7.03,30,12.89,47.28,40.67,45.11,72.54-.89,12.85-5.7,24.3-13.57,32.24-.82.82-1.68,1.59-2.55,2.33Z"/>
          <path class="cls-7" d="M616.13,462.9h.02c.02-.12.03-.24.07-.36l-.09.36Z"/>
          <g>
            <path class="cls-7" d="M525.68,186.96c2.34-.38,5-.96,7.77-1.8,5.75-1.73,12.12-4.62,17.76-9.46.87-.74,1.73-1.51,2.55-2.33,7.87-7.94,12.68-19.39,13.57-32.24,2.17-31.86-15.11-59.65-45.11-72.54-14.53-6.23-28.75-8.68-41.09-7.03-14.58,1.93-26.18,9.31-34.5,21.92-6.4,9.7-9.63,21.61-9.36,34.41.09,3.51.43,7.02.99,10.47,2.57,15.31,9.91,29.76,20.59,39.99,7.39,7.07,17.25,12.46,28.13,15.79,8.16,2.5,16.89,3.83,25.62,3.83,4.38,0,8.78-.33,13.07-1.03ZM460.62,166.53c-10.08-9.65-17.04-23.19-19.66-37.61-.65-3.66-1.04-7.36-1.13-11.07-.26-12.29,2.82-23.68,8.93-32.96,6.96-10.56,27.94-33.06,72.45-13.95,28.97,12.44,45.67,39.27,43.57,70.02-.82,12.23-5.39,23.12-12.83,30.61-1.93,1.95-4.14,3.7-6.55,5.27-4.02,2.64-8.64,4.71-13.64,6.14-2.09.6-4.26,1.1-6.49,1.45-10.03,1.63-20.52,1.23-30.42-.87-13.28-2.82-25.53-8.73-34.22-17.04Z"/>
            <path class="cls-7" d="M458.08,90.81c-3.75,1.79-6.47,5.44-7.66,10.27-1.47,5.92-.32,12.37,2.99,16.84,3.1,4.19,8.84,7.48,14.49,7.48,1.9,0,3.78-.37,5.56-1.2,3.64-1.71,6.27-5.08,7.81-10.01.13-.42,3.13-10.33-3.62-18.02-4.41-5.03-12.77-8.61-19.57-5.35Z"/>
            <path class="cls-7" d="M550.85,44.3c1.06-1.23,2.14-2.45,3.28-3.61,6.28-6.37,13.6-11.5,21.78-15.25l-1.04-2.31c-8.47,3.88-16.05,9.19-22.55,15.78-1.51,1.54-2.94,3.17-4.31,4.81-3.39,4.09-6.35,8.5-8.83,13.23l2.24,1.18c2.62-4.98,5.78-9.6,9.43-13.83Z"/>
            <path class="cls-7" d="M569.6,76.67l1.97,1.61c2.43-2.96,5.22-5.63,8.28-7.91,4.23-3.17,8.95-5.58,14.03-7.2l-.77-2.41c-5.36,1.69-10.34,4.24-14.79,7.58-3.22,2.41-6.16,5.22-8.73,8.33Z"/>
            <path class="cls-7" d="M602.05,103.61c2.65-2.1,5.46-4.07,8.37-5.84l-1.32-2.17c-3,1.81-5.9,3.83-8.63,6.01-2.09,1.64-4.11,3.42-6.01,5.25l1.76,1.83c1.85-1.78,3.8-3.49,5.82-5.08Z"/>
            <path class="cls-7" d="M708.77,374.9c-5.61-7.12-14.6-8.51-19.99-9.34l-.66-.1c-20.57-3.24-43.39-11.29-67.81-23.89.07-.41.12-.83.2-1.27.56-3.36,1.02-7.17,1.41-11.53,7.16-1.76,14.02-5.56,19.33-12.65,2.61-3.51,4.78-7.56,6.58-12.33,1.19-3.19,2.24-6.73,3.14-10.68,2.95-13.02,4-27.4,3.24-45.24-.07-1.73-.1-3.56-.12-5.46-.17-10.92-.37-24.57-9.7-31.64-6.95-5.26-15.92-4.66-24.59-2.12-2.34-30.86-5.19-44.41-7.24-51.89.27-.12.51-.24.78-.37l.27.1c.02-.07.05-.17.07-.24,5.27-15.01,7.9-31.08,7.9-47.26,0-13.94-1.95-28.01-5.9-41.58-.24-.85-.56-1.9-.93-3.1-2.44-7.85-7.53-22.33-15.4-35.76-9.53-16.31-19.86-25.5-30.74-27.32-4.17-.71-10.7-.39-24.57,8.36-11.87,7.53-22.57,17.11-31.98,28.62-2.8,3.39-5.48,6.95-8.04,10.68-5.39-1.27-10.85-2.22-16.4-2.85-26.72-3.07-49.58,1.68-64.01,6.19-4.75,1.49-9.19,3.27-12.33,4.58-6-6.26-12.94-10.82-20.69-13.53-14.8-5.19-31.1-3.19-48.48,5.95-3.19,1.66-11.33,6.43-19.43,15.16-.54-.07-1.14-.07-1.8.1-3.56.85-8.95,5.75-12.04,10.9-3.05,5.09-5.41,13.5-2.97,16.6-1.41,4.46-2.31,9.09-2.66,13.75-.1,1.34-.15,2.66-.15,4.02,0,7.36,1.39,14.82,4.07,21.96.59,1.54,1.19,3.05,1.9,4.56-1.19,3.53-2.9,10.26-2.29,18.48.27,3.66.98,7.6,2.39,11.72.39,1.1.8,2.22,1.32,3.34.97,2.29,3.22,6.78,7.09,11.41-.85,6.24-1.54,12.72-2.19,19.48-.05.46-.1.9-.15,1.36-.15,1.68-.32,3.36-.49,5.07l-.1,1.1c-.07.78-.15,1.56-.2,2.34-4.07-1.73-9.26-3.24-13.48-2.07-5.9,1.63-7.24,7.56-7.51,16.6-.29,10.02,1.12,15.6,2.63,21.52,1.17,4.58,2.36,9.34,2.73,16.48.12,2.53.1,4.73.1,6.87-.05,4.87-.07,9.48,1.56,16.62,2.1,9.07,4.83,13.55,10.12,16.5.44.24.88.49,1.32.71,3.34,1.66,6.24,2.36,8.09,2.66.85,4.85,1.71,9.53,2.54,14.02,2.58,13.97,5.7,27.88,9.29,41.44,1.22,4.56,2.49,9.09,3.83,13.7,1,3.34,2,6.73,3.07,10.19l1.9-.61c-1.14,1.24-2.29,2.49-3.39,3.75-9.63,10.77-18.3,22.45-25.86,34.78-7.53-7.09-16.11-11.63-25.5-13.43-16.36-3.1-29.81.15-38.93,9.36-1.88,1.88-3.51,3.97-4.92,6.24-5.75,9.19-7.58,20.99-4.36,30.91,2.51,7.78,7.07,11.14,12.85,15.4,5.17,3.83,11.6,8.58,18.72,18.26,4.97,6.78,6.53,10.8,7.87,14.38,1.37,3.56,2.66,6.92,6.92,11.97,9.92,11.72,28.15,23.23,46.68,23.23,1.93,0,3.83-.12,5.73-.37,10.31-1.39,15.28-6.09,22.79-13.21,5.85-5.56,13.11-12.43,25.79-20.96,15.43-10.38,27.96-15.72,50.72-25.37l.32-.12c17.18-7.29,26.45-10.09,37.17-13.36,7.02-2.12,14.87-4.48,26.01-8.46,1.1-.39,2.22-.8,3.39-1.22l.24-.1c7.8-2.85,15.16-5.56,21.84-8.04,10.02,2.66,20.26,5,30.42,6.9,20.06,3.78,40.56,6.04,61.13,6.78v.05c-.02.12-.05.24-.07.34-1.51,6.97-1.46,13.94.07,20.69,2.93,12.77,8.95,21.86,17.89,27.1,5.53,3.19,12.09,4.78,18.62,4.78,9.07,0,18.13-3,24.5-8.8,6.56-5.92,7.17-12.21,7.97-20.91.71-7.63,1.63-17.16,6.48-30.83,3.05-8.58,5.78-13.55,8.43-18.33,1.83-3.31,3.61-6.51,5.34-10.7,1.41-3.41,2.8-7.43,4.19-12.72,3.1-11.77,7.31-27.91-.88-38.27ZM515.06,38.56c8.97-10.72,19.13-19.69,30.35-26.79,13.11-8.31,19.08-8.65,22.79-8.02,10.07,1.71,19.82,10.48,28.96,26.08,7.07,12.09,11.85,25.01,14.48,33.05.68,2.1,1.22,3.92,1.63,5.24,8.19,28.32,7.63,58.74-1.51,85.87-.76-2.51-1.49-4.61-2.14-6.34-4.12-11.09-11.75-31.76-30.25-52.77-19.62-22.3-41.05-33.59-52.09-38.34-6.66-2.88-13.55-5.19-20.6-7,2.66-3.85,5.44-7.51,8.38-10.99ZM411.5,59.52c4.41-1.95,8.87-3.61,12.87-4.85,14.21-4.46,36.68-9.12,62.98-6.12,13.53,1.54,26.62,5.02,38.9,10.33,10.85,4.66,31.93,15.72,51.21,37.68,18.16,20.67,25.71,41.05,29.76,51.97.8,2.12,1.73,4.73,2.63,8.04.12.39.24.8.37,1.24,2,7.51,4.8,21.08,7.09,51.6-5.53,1.85-10.82,4.34-15.28,6.46l-.73.37c-14.02,6.61-25.84,15.53-35.12,26.59l1.95,1.61c9.04-10.75,20.57-19.48,34.25-25.91l.73-.34c11.51-5.44,28.88-13.63,39.75-5.36,8.36,6.31,8.53,18.72,8.7,29.64.02,1.93.05,3.78.12,5.51.73,17.62-.29,31.78-3.19,44.58-.97,4.19-2.1,7.9-3.41,11.24-1.61,4.14-3.56,7.73-5.85,10.82-15.67,20.86-45.92,10.97-54.79,7.41-9.21-3.68-17.4-9.36-24.3-16.92l-.49.44-1.41,1.27c7.19,7.85,15.7,13.77,25.25,17.57.95.39,2.1.83,3.46,1.29,1.75.61,3.85,1.27,6.17,1.88,1.37.37,2.85.71,4.39,1.02,4.1.85,8.68,1.46,13.41,1.46,1.68,0,3.41-.1,5.14-.27.56-.07,1.12-.12,1.66-.22.54-.07,1.07-.12,1.63-.24-.05.54-.1,1.02-.17,1.54-.1,1-.2,1.97-.29,2.88-3.29,1.17-6.61,2.32-9.92,3.41-3.29,1.1-6.61,2.14-9.94,3.17-17.11,5.26-34.39,9.43-51.84,12.53-14.53,2.58-29.13,4.44-43.82,5.53-1.39.1-2.75.17-4.14.27-9.82.63-19.67.97-29.54.95,3.39-18.57,5.61-37.22,6.65-55.79.76-13.11.95-26.18.54-39.12-1.39-42.92-8.12-58.99-13.06-67.32-2.58-4.34-5.46-8.31-8.51-11.97-5.63-6.73-11.89-12.28-18.33-16.92-3.51-2.53-7.04-4.78-10.55-6.75-5.9-3.34-11.68-5.95-16.87-7.97.8-7.41-.56-13.02-4.14-16.6-.39-.39-.83-.76-1.27-1.1-3.1-2.39-7.04-3.19-11.26-3.29-3.85-.1-7.97.44-11.85.95-6.85.9-11.43,2.46-15.09,3.73-4.34,1.49-6.95,2.41-10.29.97-2.76-1.19-3.85-3.02-5-5.17-.07-.15-.15-.29-.22-.46-.9-1.68-1.85-3.51-3.58-5.17-.95-.95-2.14-1.85-3.68-2.66-1.46-.73-3-1.29-4.63-1.66.56-.98,1.15-1.95,1.71-2.88,6.39-10.46,13.7-19.38,21.25-26.93,18.16-18.26,37.8-28.71,50.02-33.98ZM305.66,107.83c-.29.2-.61.41-.9.66.29-.24.61-.46.9-.68,0-.63.02-1.27.07-1.88.29-4.34,1.15-8.63,2.41-12.77h.17c3.75,0,8.82-5.22,9.46-5.9,5.05-5.31,7.78-12.99,7.78-17.87,0-.46-.02-.93-.07-1.34-.12-.88-.37-1.58-.71-2.17,7.73-8.26,15.45-12.8,18.5-14.41,16.72-8.8,32.34-10.75,46.46-5.8,7.09,2.49,13.48,6.61,19.06,12.24-12.85,5.73-32.61,16.67-50.7,35.37-7.12,7.36-13.97,15.92-20.04,25.84-.76,1.22-1.49,2.49-2.24,3.8-9.31-.83-18.04,4.31-18.43,4.53-1.56.93-3.22,1.9-4.68,3.14-.88.73-1.66,1.58-2.29,2.53-.27-.63-.51-1.29-.76-1.95-2.9-7.58-4.29-15.53-4-23.35ZM312.76,168.79c-.2-.44-.34-.9-.54-1.36-2.02-5.07-2.85-9.97-3.02-14.36-.12-2.8.02-5.41.34-7.73.71,1.75,1.63,3.7,2.75,5.7,1.83,3.19,4.22,6.53,7.39,9.48,3.41,3.19,7.34,5.53,11.65,7,3.46,1.17,7.12,1.73,10.77,1.73,5.8,0,11.6-1.46,16.62-4.29,4.39-2.46,12.26-8.41,10.68-13.14-1.61-4.9-12.04-4.66-14.11-4.56-6.09.27-9.9,2.32-13.24,4.12s-6.19,3.36-10.92,3.24c-2.92-.07-5.8-.78-8.58-2.1-2.85-1.34-4.7-2.92-5.34-3.44-.05-.05-.32-.27-.71-.63-1.39-1.29-4.51-4.46-6.02-8.17.39-1.51.78-2.78,1.1-3.73,1-3.36,4.1-5.17,7.12-6.92.32-.2,7.26-4.29,15.06-4.29.85,0,1.73.05,2.61.15,2,.27,3.88.83,5.61,1.73.27.12.49.27.76.44,3.02,1.8,4.19,3.97,5.41,6.29.02.05.02.07.05.1,1.32,2.51,2.71,5.09,6.44,6.68,4.22,1.83,7.56.71,12.11-.88,3.56-1.22,8-2.75,14.6-3.61,8.12-1.07,17.28-2.27,22.23,2.71,3.17,3.14,4.27,8.36,3.34,15.48-1.73,12.8-11.99,21.99-20.81,27.66-4.66,2.97-8.9,4.97-11.26,6-7.75,3.32-23.86,10.24-40.63,2.75-5.36-2.41-10.09-5.92-14.07-10.48l-.32-.37c-3.88-4.53-6.09-8.97-7.07-11.21ZM314.85,150.39c.37.34.63.56.73.66.68.56,2.73,2.32,5.87,3.8,3.1,1.46,6.34,2.24,9.63,2.32,5.36.15,8.82-1.73,12.19-3.53,3.24-1.76,6.63-3.58,12.14-3.83,5.17-.24,10.9.76,11.58,2.8.8,2.36-4.39,7.24-9.51,10.14-7.46,4.22-17.16,5.12-25.35,2.36-3.97-1.34-7.58-3.51-10.72-6.43-2.76-2.56-4.9-5.46-6.56-8.29ZM311.81,300.87c-3.97-2.22-6.7-5.36-8.87-14.87-1.56-6.85-1.54-11.09-1.51-16.01,0-2.17.02-4.41-.1-7.02-.37-7.39-1.61-12.26-2.8-16.99-1.46-5.73-2.85-11.16-2.56-20.82.32-10.63,2.39-13.33,5.66-14.23,3.05-.83,7.38-.02,12.55,2.32-.02.27-.05.54-.07.8-.34,4.48-.56,8.87-.71,13.21-.8-.17-1.61-.32-2.41-.44-2.58-.37-5.24-.44-7.87-.22l.2,2.53c2.46-.2,4.92-.12,7.34.2.9.12,1.78.29,2.66.49-.41,16.6.56,31.93,2.17,46.09-.8-.05-1.63-.07-2.46-.05-1.9.07-3.8.34-5.66.78l.59,2.46c1.71-.39,3.44-.63,5.14-.68.9-.05,1.8,0,2.68.05,1.07,8.92,2.39,17.35,3.75,25.32-1.9-.39-4.66-1.22-7.7-2.92ZM325.02,320.01c-.97-5.17-1.95-10.55-2.92-16.21-4.31-25.08-8.14-54.82-5.46-89.55.15-1.9.32-3.83.51-5.78l.1-1.1c.12-1.39.27-2.75.39-4.14.07-.71.15-1.44.22-2.14.61-6,1.22-11.77,1.92-17.35,3.9,4.02,8.38,7.19,13.38,9.43,5.87,2.61,11.63,3.58,17.01,3.58,10.92,0,20.26-4,25.69-6.34,2.88-1.24,8.38-3.85,14.16-7.9,8.21-5.78,16.92-14.45,19.13-26.15,5.17,2,10.82,4.63,16.62,7.97,3.46,1.97,7,4.24,10.48,6.8l15.67,14.31c3.51,3.97,6.78,8.34,9.65,13.24,4.8,8.09,11.36,23.74,12.72,66.1.42,12.92.22,25.96-.54,39.02-1.07,18.55-3.29,37.2-6.68,55.77-5.26-.05-10.5-.17-15.79-.39-41.85-1.88-83.31-9.82-123.19-23.62-1.07-5.17-2.15-10.36-3.1-15.55ZM524.13,446.29c-.68.27-1.44.54-2.14.8-5.9,2.19-12.26,4.53-19.01,7.02-.34.1-.68.24-1.02.37l-.1.02-.15.07c-.85.29-1.71.61-2.51.9-3.61,1.29-6.85,2.41-9.87,3.41-4.19,1.41-7.87,2.58-11.28,3.63-.49.15-.97.29-1.44.44-.95.29-1.88.56-2.78.85-.46.12-.93.27-1.37.39-1,.29-1.95.58-2.93.9-1.93.58-3.85,1.17-5.82,1.8-.98.29-1.95.63-2.95.95-1,.32-2.02.66-3.07,1.02-3.12,1.07-6.46,2.29-10.21,3.7-3.68,1.44-7.78,3.07-12.45,5.07l-.32.12c-9.33,3.97-16.94,7.21-23.76,10.38-9.92,4.58-18.13,8.99-27.4,15.21-1.41.97-2.78,1.9-4.07,2.83-1.95,1.36-3.73,2.71-5.44,4.02-1.68,1.27-3.24,2.51-4.7,3.73-1.83,1.49-3.49,2.92-5.02,4.31-2.58,2.29-4.8,4.39-6.85,6.34-1.9,1.8-3.61,3.41-5.27,4.85-3.17,2.75-6.14,4.83-9.82,6.17-1.88.71-3.95,1.19-6.31,1.54-7.31.98-14.7-.12-21.64-2.53-5.78-2-11.26-4.95-16.11-8.34-.61-.41-1.19-.85-1.8-1.29-.58-.44-1.17-.88-1.71-1.34h-.02c-.56-.46-1.1-.9-1.63-1.36h-.02c-.54-.46-1.05-.93-1.58-1.39-.51-.46-1.02-.93-1.51-1.41-.49-.46-.97-.95-1.44-1.41-.95-.97-1.8-1.95-2.63-2.92-.27-.32-.54-.63-.78-.93-.24-.32-.46-.61-.68-.9-.46-.58-.88-1.15-1.22-1.68-.73-1.07-1.32-2.07-1.8-3.02-.17-.34-.34-.71-.49-1.05-.34-.68-.61-1.34-.88-2-.15-.34-.27-.68-.39-1.05-.1-.2-.17-.39-.24-.61-1.24-3.19-2.61-6.8-6.29-12.24-.59-.85-1.22-1.76-1.9-2.71-7.36-9.99-13.97-14.89-19.28-18.82-5.61-4.17-9.68-7.14-11.94-14.16-3.14-9.7-1.05-21.35,5-30.1,1.1-1.58,2.31-3.1,3.68-4.46,1.58-1.61,3.34-3.02,5.22-4.24,8.14-5.24,18.84-6.78,31.42-4.39,4.85.93,9.48,2.63,13.84,5.07,3.78,2.12,7.36,4.8,10.73,8.02.27.24.51.46.78.71.29.29.56.58.85.85.27.29.54.58.83.88,2.9,3.14,5.29,6.36,7.14,9.21,1.88,2.9,3.24,5.44,4.12,7.24.58,1.17.97,2.05,1.14,2.49l.83-.34,1.51-.63c-.05-.1-.1-.27-.17-.44-.1-.19-.17-.39-.29-.61-.1-.24-.22-.49-.34-.78-.15-.27-.29-.58-.46-.9-.22-.49-.51-1.05-.8-1.61-.32-.58-.66-1.22-1.02-1.85-2.24-3.97-5.7-9.19-10.51-14.21-.12-.12-.22-.24-.34-.37.15-.22.29-.46.44-.71,3.73-6.04,7.73-11.94,11.97-17.67,2.14-2.85,4.34-5.65,6.58-8.41,2.24-2.75,4.56-5.46,6.9-8.12,3.09-3.46,6.34-6.8,9.63-10.09,5.73-5.7,11.68-11.16,17.92-16.23l-1.58-1.97c-6.65,5.41-12.99,11.19-19.04,17.28-.68.71-1.34,1.41-2.02,2.1-.97,1.02-1.97,2-2.95,3.05-.83-2.68-1.61-5.29-2.39-7.9-1.56-5.26-3.02-10.43-4.39-15.6-2-7.51-3.83-15.14-5.51-22.81,39.66,13.58,80.83,21.43,122.46,23.28,6.58.29,13.16.46,19.74.46,9.43,0,18.84-.32,28.25-.93,24.28-1.58,48.36-5.19,72.12-10.8,12.11-2.88,24.13-6.24,36.07-10.14,1.37-.44,2.71-.9,4.07-1.36,2.36-.78,4.7-1.56,7.04-2.39-.12.97-.27,1.9-.41,2.8-.05.34-.1.63-.15.95-.1.61-.2,1.17-.29,1.76-.12.63-.24,1.27-.37,1.83-.37,1.83-.73,3.27-1.07,4.56-.41,1.58-.83,3.19-1.24,4.8-.44,1.61-.85,3.22-1.32,4.83-1.49,5.44-3.1,10.92-5.1,16.36-.49,1.36-1,2.73-1.56,4.09-.8,2.02-1.68,4.07-2.63,6.09-.29.68-.63,1.36-.95,2.02t-.02.02c-.15.34-.32.68-.49,1-.2.41-.41.8-.61,1.22-.32.61-.63,1.22-.97,1.83-3.41,6.34-7.65,12.6-13.02,18.72-4.41,5.05-9.21,9.36-14.67,13.26-1.54,1.1-3.09,2.17-4.75,3.19-.61.39-1.24.78-1.88,1.17-.63.39-1.27.76-1.93,1.12-.32.2-.63.37-.97.56-.32.19-.66.39-1,.56-.68.39-1.37.76-2.05,1.12-.68.39-1.39.76-2.12,1.12-.51.27-1.02.51-1.54.78-.49.24-1,.49-1.51.73-.34.17-.68.34-1.02.51-.07.05-.2.1-.27.12-1.63.78-3.32,1.58-5.07,2.34-.51.24-1.02.46-1.56.71-.17.07-.34.15-.54.22-.22.1-.46.22-.71.32-.49.22-.95.41-1.44.63-.49.2-.97.41-1.46.63-.51.2-1,.41-1.49.61-.71.29-1.39.58-2.1.88-.83.34-1.68.68-2.56,1.02-3.17,1.27-6.48,2.56-9.99,3.9-1.15.44-2.36.9-3.56,1.34ZM707.21,412.53c-1.49,5.63-2.97,9.85-4.51,13.36-1.58,3.61-3.17,6.51-4.8,9.46-2.68,4.9-5.51,9.94-8.6,18.7-4.97,14.02-5.92,24.11-6.63,31.47-.83,8.75-1.32,14.02-7.12,19.28-10.19,9.24-27.84,10.87-40.14,3.68-8.31-4.85-13.94-13.41-16.7-25.45-1.49-6.39-1.51-12.94-.1-19.55l.1-.39.12-.49c4.19.12,8.39.2,12.58.2h.78v-2.53h-.78c-25.47,0-50.99-2.36-75.85-7.02-8.95-1.68-17.91-3.7-26.76-5.97,19.4-7.41,33.47-13.65,44.7-21.38,6.31-4.31,11.75-9.09,16.75-14.8,17.57-20.04,23.08-41.36,28.44-61.98.37-1.41.75-2.97,1.14-4.92,24.4,12.53,47.24,20.55,67.91,23.79l.66.1c5.34.83,13.41,2.07,18.4,8.38,7.38,9.36,3.34,24.81.41,36.07Z"/>
            <path class="cls-7" d="M620.08,243.64c6.25-2.08,12.72-3.65,19.24-4.69l-.4-2.51c-6.65,1.06-13.26,2.67-19.64,4.79-11.18,3.72-21.81,9.04-31.61,15.8l1.44,2.09c9.59-6.63,20.01-11.84,30.97-15.48Z"/>
            <path class="cls-7" d="M615.04,280.18c-8.42.47-16.89,1.59-25.17,3.33l.52,2.49c8.15-1.72,16.49-2.82,24.79-3.28,6.25-.35,12.6-.33,18.87.04l.15-2.54c-6.36-.38-12.81-.39-19.16-.04Z"/>
          </g>
        </g>
        <g>
          <path class="cls-9" d="M545.39,176.85c2.41-1.57,4.62-3.32,6.55-5.27,7.44-7.49,12.01-18.38,12.83-30.61,2.1-30.75-14.6-57.58-43.57-70.02-44.51-19.11-65.49,3.39-72.45,13.95-6.11,9.27-9.19,20.67-8.93,32.96.09,3.71.48,7.41,1.13,11.07,2.62,14.43,9.58,27.96,19.66,37.61,8.69,8.32,20.94,14.22,34.22,17.04,9.91,2.1,20.4,2.5,30.42.87,2.22-.36,4.4-.86,6.49-1.45l13.64-6.14ZM481.27,114.18c-1.56,4.93-4.18,8.3-7.82,10.01-1.78.82-3.66,1.2-5.56,1.2-5.65,0-11.38-3.29-14.48-7.48-3.32-4.47-4.47-10.92-2.99-16.84,1.2-4.83,3.92-8.47,7.67-10.27,6.79-3.25,15.16.33,19.56,5.36,6.76,7.68,3.75,17.59,3.63,18.02Z"/>
          <path class="cls-1" d="M332.14,165.11c8.18,2.76,17.88,1.85,25.33-2.36h0c5.13-2.89,10.31-7.77,9.52-10.13-.68-2.07-6.43-3.05-11.6-2.82-5.51.26-8.88,2.07-12.14,3.83-3.34,1.8-6.82,3.67-12.17,3.54-3.28-.07-6.52-.85-9.63-2.32-3.14-1.48-5.19-3.23-5.87-3.8-.11-.09-.37-.31-.75-.66,1.67,2.83,3.82,5.72,6.58,8.29,3.14,2.94,6.75,5.1,10.72,6.44Z"/>
          <path class="cls-9" d="M408.79,57.92c-12.83,5.73-32.61,16.67-50.68,35.37-7.12,7.34-13.98,15.9-20.04,25.82-.75,1.21-1.51,2.5-2.24,3.8-9.33-.82-18.05,4.33-18.43,4.53-1.57.92-3.23,1.9-4.69,3.15-.87.75-1.64,1.57-2.29,2.55-.27-.65-.51-1.3-.75-1.97-2.91-7.58-4.28-15.52-4-23.36.02-.63.03-1.27.09-1.9.29-4.33,1.13-8.61,2.41-12.77.07,0,.12.02.17.02,1.88,0,4.07-1.3,5.89-2.69,1.81-1.4,3.25-2.87,3.58-3.22,5.53-5.85,8.28-14.53,7.68-19.22-.12-.87-.36-1.57-.7-2.16,7.73-8.28,15.47-12.82,18.51-14.41,16.72-8.8,32.34-10.75,46.46-5.8,7.08,2.48,13.47,6.61,19.05,12.23Z"/>
          <path class="cls-6" d="M406.91,154.43c-1.73,12.82-12,22.01-20.81,27.67-4.64,2.98-8.88,4.96-11.26,5.99-7.75,3.32-23.85,10.25-40.64,2.75-5.34-2.4-10.08-5.92-14.07-10.47l-.31-.38c-3.88-4.53-6.09-8.95-7.07-11.19-.19-.46-.34-.91-.53-1.37-2.02-5.08-2.86-9.98-3.03-14.37-.12-2.81.03-5.41.34-7.72.72,1.76,1.63,3.7,2.75,5.7,1.81,3.2,4.23,6.55,7.39,9.48,3.41,3.2,7.32,5.54,11.65,7,3.46,1.16,7.1,1.73,10.75,1.73,5.82,0,11.62-1.45,16.63-4.28,4.4-2.48,12.27-8.4,10.69-13.16-1.61-4.88-12.06-4.65-14.13-4.55-6.07.29-9.87,2.33-13.23,4.12-3.32,1.8-6.19,3.35-10.92,3.23-2.91-.07-5.8-.75-8.59-2.07-2.84-1.35-4.71-2.93-5.32-3.46-.05-.03-.31-.26-.7-.63-1.4-1.28-4.52-4.45-6.02-8.16.38-1.51.77-2.77,1.09-3.73.98-3.35,4.09-5.17,7.1-6.93.36-.21,8.88-5.24,17.68-4.12,2,.26,3.88.82,5.61,1.71.26.14.5.29.75.44,3.01,1.8,4.19,3.99,5.41,6.3.02.03.03.07.05.1,1.32,2.5,2.7,5.08,6.43,6.67,4.23,1.83,7.55.7,12.12-.87,3.56-1.23,7.99-2.75,14.61-3.63,8.09-1.06,17.27-2.26,22.23,2.72,3.15,3.15,4.26,8.35,3.32,15.47Z"/>
          <path class="cls-9" d="M613.26,68.13c-.39-1.33-.94-3.15-1.63-5.25-2.62-8.04-7.41-20.96-14.48-33.04-9.14-15.61-18.89-24.38-28.95-26.1-3.71-.63-9.67-.29-22.79,8.03-11.21,7.08-21.37,16.07-30.36,26.78-2.93,3.49-5.72,7.15-8.38,11,7.05,1.8,13.95,4.12,20.6,7,11.04,4.74,32.48,16.03,52.1,38.35,18.48,21.01,26.13,41.67,30.24,52.77.65,1.73,1.39,3.82,2.14,6.31,9.15-27.12,9.7-57.53,1.51-85.85ZM541.42,58.12l-2.24-1.18c2.48-4.72,5.44-9.14,8.83-13.23,1.37-1.64,2.81-3.27,4.31-4.81,6.5-6.59,14.08-11.89,22.55-15.78l1.04,2.31c-8.18,3.75-15.5,8.88-21.78,15.25-1.15,1.16-2.22,2.38-3.29,3.61-3.64,4.23-6.81,8.85-9.43,13.83ZM579.85,70.38c-3.06,2.28-5.85,4.95-8.28,7.91l-1.97-1.61c2.57-3.11,5.51-5.92,8.73-8.33,4.45-3.34,9.43-5.89,14.78-7.58l.77,2.41c-5.08,1.63-9.8,4.04-14.03,7.2ZM602.05,103.61c-2.02,1.59-3.97,3.3-5.82,5.08l-1.76-1.83c1.9-1.83,3.92-3.61,6.01-5.25,2.72-2.17,5.63-4.19,8.62-6.01l1.32,2.17c-2.91,1.76-5.72,3.73-8.37,5.84Z"/>
          <path class="cls-9" d="M531.76,182.98c5-1.43,9.61-3.51,13.63-6.14-5.33,1.01-10.82,1.93-16.41,2.77.94,1.11,1.87,2.23,2.77,3.37Z"/>
          <path class="cls-9" d="M332.18,398.73c-2.24,2.75-4.43,5.56-6.57,8.42,2.12-2.84,4.31-5.66,6.57-8.42Z"/>
          <path class="cls-9" d="M617.94,340.32h0c.05-.32.11-.62.16-.95-.05.33-.11.63-.16.95Z"/>
          <polygon class="cls-9" points="499.2 361.24 499.19 361.25 499.2 361.25 499.2 361.24"/>
          <path class="cls-4" d="M546.72,437.27l.72-.31c-.24.1-.48.22-.72.33-.48.21-.96.41-1.44.62-.48.21-.98.43-1.47.63-.5.21-.99.41-1.49.62.5-.21.99-.41,1.49-.63.99-.41,1.95-.82,2.91-1.25Z"/>
          <path class="cls-4" d="M547.44,436.96c.72-.31,1.4-.62,2.09-.92-.51.24-1.03.46-1.56.7-.17.07-.34.15-.53.22Z"/>
          <path class="cls-4" d="M554.87,433.55c.34-.15.68-.33,1.03-.5-.34.17-.68.34-1.03.51-.09.03-.19.09-.27.12.09-.05.19-.09.27-.14Z"/>
          <path class="cls-4" d="M559.84,431.06c.4-.21.82-.41,1.21-.64-.39.22-.79.43-1.2.63-.31.17-.6.33-.91.48-.51.27-1.03.53-1.54.79-.5.26-.99.5-1.51.74.51-.26,1.01-.5,1.51-.75.83-.41,1.64-.82,2.44-1.24Z"/>
          <path class="cls-4" d="M603.4,386.65c.34-.67.67-1.35.98-2.02-.31.67-.63,1.35-.96,2.02t-.02.02v-.02Z"/>
          <path class="cls-2" d="M707.2,412.52c-1.49,5.65-2.98,9.86-4.5,13.36-1.57,3.61-3.17,6.5-4.81,9.46-2.69,4.89-5.49,9.94-8.61,18.7-4.96,14-5.92,24.09-6.62,31.45-.82,8.74-1.32,14.01-7.12,19.28-10.2,9.24-27.84,10.87-40.14,3.68-8.32-4.84-13.95-13.4-16.7-25.45-1.47-6.38-1.51-12.95-.09-19.56l.09-.38.12-.5c4.19.14,8.4.21,12.59.21h.77v-2.55c-.26,0-.51.02-.77.02-25.48,0-51.01-2.38-75.86-7.03-8.95-1.68-17.93-3.7-26.78-5.97,19.42-7.41,33.47-13.66,44.71-21.37,6.31-4.31,11.74-9.09,16.74-14.78,17.57-20.04,23.1-41.38,28.46-62,.36-1.4.75-2.96,1.15-4.93,24.4,12.54,47.25,20.55,67.9,23.79l.67.12c5.34.82,13.4,2.07,18.4,8.38,7.39,9.36,3.35,24.79.41,36.05Z"/>
          <path class="cls-9" d="M313.08,278.41c-1.72.06-3.45.3-5.14.71l-.6-2.47c1.86-.45,3.76-.71,5.65-.78.83-.03,1.65,0,2.48.04-1.61-14.16-2.58-29.49-2.17-46.08-.88-.2-1.77-.37-2.67-.49-2.42-.33-4.88-.4-7.33-.2l-.21-2.53c2.63-.21,5.28-.14,7.88.22.81.11,1.62.26,2.42.43.14-4.32.36-8.71.71-13.2.02-.26.05-.53.07-.8-5.18-2.34-9.51-3.15-12.55-2.31-3.26.9-5.35,3.59-5.66,14.23-.28,9.65,1.1,15.07,2.56,20.81,1.2,4.71,2.44,9.59,2.8,16.98.13,2.6.11,4.84.1,7.01-.03,4.93-.05,9.18,1.52,16.03,2.17,9.5,4.9,12.64,8.86,14.86,3.07,1.71,5.81,2.53,7.71,2.92-1.37-7.96-2.67-16.4-3.74-25.31-.89-.06-1.79-.1-2.69-.07Z"/>
          <path class="cls-11" d="M473.78,303.8c-1.08,18.55-3.29,37.2-6.69,55.77-5.25-.03-10.51-.15-15.78-.39-41.87-1.87-83.32-9.82-123.19-23.61-1.09-5.17-2.16-10.35-3.11-15.54-.96-5.17-1.95-10.57-2.93-16.22-4.31-25.09-8.13-54.83-5.44-89.55.14-1.92.31-3.83.5-5.78l.1-1.1c.14-1.4.27-2.75.39-4.12.09-.74.15-1.44.22-2.17.6-5.97,1.2-11.77,1.92-17.35,3.9,4.02,8.38,7.2,13.38,9.43,5.87,2.64,11.64,3.59,17.01,3.59,10.93,0,20.28-4,25.7-6.33,2.87-1.25,8.38-3.87,14.15-7.91,8.21-5.77,16.92-14.44,19.13-26.15,5.17,2,10.83,4.62,16.63,7.96,3.47,1.98,7,4.26,10.47,6.81l15.69,14.31c3.49,3.97,6.76,8.35,9.65,13.23,4.79,8.09,11.35,23.75,12.71,66.1.41,12.92.22,25.96-.53,39.03Z"/>
          <path class="cls-2" d="M617.94,340.31c-.1.6-.19,1.18-.29,1.75-.12.65-.24,1.27-.36,1.85-.38,1.81-.74,3.25-1.08,4.55-.41,1.59-.82,3.18-1.25,4.79v.02c-.43,1.59-.86,3.2-1.3,4.81-1.49,5.44-3.11,10.92-5.1,16.36-.5,1.37-1.01,2.72-1.56,4.09-.82,2.04-1.69,4.07-2.64,6.11-.31.67-.63,1.35-.98,2.02v.02c-.15.34-.33.68-.5,1.01-.21.41-.41.82-.62,1.21-.31.6-.63,1.21-.96,1.81-3.42,6.35-7.65,12.61-13.02,18.72-4.41,5.05-9.21,9.36-14.68,13.28-1.52,1.1-3.1,2.16-4.74,3.18-.62.39-1.25.79-1.88,1.16-.63.38-1.27.75-1.92,1.13l-.98.56c-.33.19-.67.38-1.01.56-.68.38-1.35.75-2.05,1.11-.39.22-.79.43-1.2.63-.8.43-1.61.84-2.45,1.25-.5.26-.99.5-1.51.75-.34.17-.68.34-1.03.5-.09.05-.19.09-.27.14-1.64.79-3.32,1.57-5.06,2.34-.68.31-1.37.62-2.09.92l-.72.31c-.96.43-1.92.84-2.91,1.25-.5.22-.99.43-1.49.63-.68.29-1.39.58-2.09.87-.84.34-1.68.68-2.55,1.03-3.17,1.27-6.49,2.57-9.99,3.9-1.16.44-2.36.91-3.56,1.35-.7.26-1.44.53-2.16.8-5.89,2.19-12.27,4.53-19.01,7-.34.12-.68.26-1.03.38l-.09.03-.15.05c-.86.31-1.69.62-2.51.91-3.59,1.3-6.84,2.41-9.86,3.42-4.21,1.42-7.89,2.58-11.29,3.63-.5.15-.98.29-1.44.44-.94.29-1.88.56-2.79.84-.46.14-.91.27-1.35.41-.99.29-1.95.58-2.93.89-1.93.58-3.85,1.18-5.82,1.8-.98.31-1.97.63-2.96.96-1.01.33-2.02.67-3.06,1.03-3.13,1.06-6.47,2.28-10.22,3.71-3.7,1.42-7.79,3.06-12.46,5.05l-.31.14c-9.34,3.97-16.96,7.2-23.79,10.37-9.91,4.59-18.12,9-27.38,15.23-1.42.96-2.79,1.9-4.07,2.82-1.95,1.37-3.75,2.7-5.44,4-1.68,1.28-3.25,2.53-4.71,3.73-1.83,1.51-3.49,2.94-5.03,4.31-2.57,2.29-4.79,4.4-6.84,6.35-1.9,1.8-3.61,3.41-5.27,4.84-3.17,2.75-6.13,4.83-9.82,6.18-1.87.7-3.94,1.2-6.31,1.52-7.29.98-14.68-.12-21.63-2.53-5.78-2-11.26-4.93-16.12-8.32-.6-.43-1.2-.86-1.8-1.3-.58-.44-1.16-.89-1.71-1.33h-.02c-.56-.46-1.11-.91-1.64-1.37h-.02c-.55-.46-1.06-.92-1.57-1.39h-.02c-.51-.48-1.01-.94-1.51-1.42-.5-.46-.98-.94-1.44-1.42-.94-.98-1.81-1.93-2.64-2.91-.27-.33-.53-.63-.77-.94-.26-.31-.48-.62-.7-.91-.44-.58-.86-1.15-1.21-1.68-.72-1.08-1.3-2.07-1.8-3.03-.17-.34-.34-.68-.5-1.03-.31-.68-.6-1.35-.87-2.02-.14-.34-.27-.68-.39-1.03-.09-.21-.15-.41-.24-.62-1.23-3.2-2.6-6.79-6.28-12.23-.58-.86-1.21-1.76-1.92-2.72-7.34-9.99-13.96-14.89-19.27-18.81-5.61-4.16-9.69-7.15-11.94-14.15-3.15-9.72-1.06-21.37,5-30.12,1.09-1.59,2.31-3.1,3.68-4.47,1.59-1.61,3.34-3.01,5.22-4.23,8.13-5.25,18.84-6.78,31.42-4.4,4.86.92,9.48,2.64,13.84,5.07,3.78,2.12,7.36,4.81,10.73,8.03.26.24.51.46.77.72.29.29.56.56.86.86.27.29.55.58.82.87,2.91,3.15,5.29,6.35,7.15,9.21,1.87,2.89,3.23,5.42,4.12,7.24.58,1.18.96,2.05,1.15,2.5l.82-.34,1.52-.63c-.05-.12-.12-.27-.19-.44-.09-.19-.17-.39-.27-.62-.1-.24-.22-.5-.36-.77-.12-.27-.27-.58-.45-.91-.24-.5-.51-1.04-.82-1.61-.31-.58-.65-1.21-1.03-1.87-2.24-3.97-5.7-9.19-10.49-14.2-.12-.12-.22-.24-.34-.36.14-.22.29-.46.43-.7,3.73-6.06,7.73-11.96,11.98-17.68,2.14-2.86,4.33-5.66,6.57-8.42s4.55-5.46,6.91-8.11c3.08-3.46,6.33-6.81,9.62-10.1,5.72-5.7,11.69-11.16,17.92-16.24l-1.59-1.97c-6.64,5.41-12.99,11.19-19.03,17.28-.68.7-1.35,1.4-2.04,2.1-.98,1.01-1.97,2-2.93,3.03-.84-2.67-1.63-5.29-2.4-7.89-1.56-5.25-3.03-10.42-4.4-15.59-1.98-7.51-3.82-15.14-5.49-22.81,39.65,13.57,80.82,21.41,122.43,23.27,6.6.29,13.18.44,19.76.44,9.43,0,18.84-.31,28.23-.92h.02c24.26-1.57,48.34-5.18,72.11-10.8,12.12-2.86,24.14-6.23,36.09-10.13h10.54Z"/>
          <path class="cls-4" d="M332.18,398.73c-2.24,2.75-4.43,5.56-6.57,8.42,2.12-2.84,4.31-5.66,6.57-8.42Z"/>
          <path class="cls-4" d="M618.51,336.55c-.12.98-.26,1.92-.41,2.82-.05.33-.1.63-.15.94h-10.54c3.71-1.21,7.41-2.45,11.11-3.76Z"/>
          <path class="cls-4" d="M542.33,439.15c.5-.21.99-.41,1.49-.63v.02c-.5.21-.99.41-1.49.62Z"/>
          <path class="cls-4" d="M543.82,438.52c.99-.41,1.95-.82,2.91-1.25v.02c-.48.21-.96.41-1.44.62-.5.21-.98.41-1.47.62Z"/>
          <path class="cls-4" d="M547.44,436.96c.72-.31,1.4-.62,2.09-.92-.51.24-1.03.46-1.56.7-.17.07-.34.15-.53.22Z"/>
          <path class="cls-4" d="M554.6,433.69c.09-.05.19-.09.27-.14v.02c-.09.03-.19.09-.27.12Z"/>
          <path class="cls-4" d="M555.9,433.06c.51-.26,1.01-.5,1.51-.75v.02c-.5.26-.99.5-1.51.74Z"/>
          <path class="cls-4" d="M559.85,431.06c-.31.17-.6.33-.91.48-.51.26-1.03.51-1.54.77.84-.41,1.64-.82,2.45-1.25Z"/>
          <path class="cls-4" d="M603.4,386.65c.34-.67.67-1.35.98-2.02-.31.67-.63,1.35-.96,2.02h-.02Z"/>
          <path class="cls-9" d="M651.67,247.98c-.07-1.73-.09-3.58-.12-5.49-.15-10.93-.34-23.34-8.69-29.65-10.88-8.26-28.25-.07-39.75,5.36l-.74.34c-13.67,6.45-25.21,15.18-34.26,25.92.79,7.96,1.08,18.12-.36,29.76-1.47,11.91-4.33,21.89-7.15,29.59-.15.43-.33.89-.48,1.32,6.91,7.55,15.09,13.24,24.3,16.92,8.88,3.54,39.13,13.45,54.79-7.43,2.31-3.08,4.24-6.66,5.87-10.81,1.32-3.34,2.43-7.03,3.41-11.24,2.91-12.78,3.94-26.95,3.18-44.58ZM634.05,282.77c-6.26-.38-12.61-.39-18.86-.05-8.3.46-16.63,1.57-24.79,3.29l-.51-2.48c8.26-1.75,16.73-2.87,25.15-3.34,6.35-.36,12.8-.34,19.16.03l-.15,2.55ZM620.08,243.63c-10.95,3.64-21.37,8.86-30.97,15.49l-1.44-2.09c9.79-6.78,20.43-12.08,31.61-15.81,6.38-2.1,12.99-3.73,19.64-4.79l.39,2.52c-6.52,1.04-12.99,2.62-19.23,4.69Z"/>
          <path class="cls-2" d="M617.7,329.57c-.55.09-1.09.15-1.66.21-1.73.17-3.46.27-5.15.27-4.72,0-9.29-.6-13.4-1.45-1.54-.31-3.01-.67-4.4-1.03-2.31-.62-4.4-1.27-6.16-1.88-1.35-.46-2.52-.91-3.46-1.28-9.57-3.82-18.05-9.74-25.24-17.57l1.4-1.27.48-.44c.15-.43.33-.89.48-1.32,2.82-7.7,5.68-17.68,7.15-29.59,1.44-11.64,1.15-21.8.36-29.76l-1.95-1.63c9.29-11.05,21.12-19.99,35.13-26.59l.74-.36c4.45-2.1,9.75-4.6,15.28-6.45-2.29-30.51-5.08-44.1-7.1-51.61-.12-.43-.22-.84-.34-1.25-.92-3.3-1.85-5.9-2.64-8.03-4.06-10.93-11.6-31.31-29.77-51.97-19.28-21.95-40.37-33.04-51.2-37.7-12.3-5.3-25.39-8.78-38.91-10.32-26.3-2.99-48.77,1.66-62.99,6.11-3.99,1.25-8.45,2.91-12.87,4.84-12.2,5.27-31.86,15.73-50.02,33.98-7.55,7.56-14.85,16.48-21.24,26.93-.56.94-1.15,1.9-1.71,2.89,1.63.36,3.17.91,4.62,1.64,1.54.8,2.74,1.71,3.7,2.65,1.71,1.68,2.67,3.49,3.56,5.17.09.17.15.33.24.48,1.13,2.14,2.24,3.97,5,5.15,3.32,1.44,5.94.53,10.28-.96,3.66-1.27,8.23-2.84,15.09-3.73,3.87-.51,7.97-1.04,11.84-.96,4.21.09,8.16.91,11.26,3.29.44.34.87.7,1.27,1.11,3.58,3.58,4.95,9.17,4.14,16.6,5.2,2.02,10.97,4.62,16.86,7.96,3.51,1.97,7.05,4.23,10.57,6.76,6.42,4.62,12.7,10.18,18.33,16.92,3.05,3.64,5.92,7.61,8.5,11.96,4.95,8.33,11.67,24.38,13.06,67.32.43,12.95.22,26.01-.53,39.12-1.06,18.57-3.27,37.22-6.66,55.8,9.87.02,19.73-.33,29.54-.96,1.39-.1,2.75-.17,4.14-.27,14.7-1.1,29.31-2.94,43.84-5.53,17.45-3.1,34.72-7.27,51.83-12.53h.02c3.32-1.03,6.64-2.07,9.94-3.17,3.3-1.11,6.62-2.24,9.91-3.42.1-.91.21-1.88.31-2.86.05-.51.1-1.01.15-1.54-.55.1-1.1.17-1.63.24ZM551.21,175.7c-5.65,4.84-12.01,7.73-17.76,9.46-2.77.84-5.42,1.42-7.77,1.8-4.3.7-8.69,1.03-13.07,1.03-8.73,0-17.45-1.33-25.62-3.83-10.88-3.34-20.74-8.73-28.13-15.79-10.68-10.23-18.02-24.67-20.59-39.99-.56-3.46-.91-6.96-.99-10.47-.27-12.8,2.96-24.71,9.36-34.41,8.32-12.61,19.92-19.99,34.5-21.92,12.34-1.64,26.56.8,41.09,7.03,30,12.89,47.28,40.67,45.11,72.54-.89,12.85-5.7,24.3-13.57,32.24-.82.82-1.68,1.59-2.55,2.33Z"/>
          <path class="cls-5" d="M616.13,462.9h.02c.02-.12.03-.24.07-.36l-.09.36Z"/>
          <g>
            <path class="cls-8" d="M525.68,186.96c2.34-.38,5-.96,7.77-1.8,5.75-1.73,12.12-4.62,17.76-9.46.87-.74,1.73-1.51,2.55-2.33,7.87-7.94,12.68-19.39,13.57-32.24,2.17-31.86-15.11-59.65-45.11-72.54-14.53-6.23-28.75-8.68-41.09-7.03-14.58,1.93-26.18,9.31-34.5,21.92-6.4,9.7-9.63,21.61-9.36,34.41.09,3.51.43,7.02.99,10.47,2.57,15.31,9.91,29.76,20.59,39.99,7.39,7.07,17.25,12.46,28.13,15.79,8.16,2.5,16.89,3.83,25.62,3.83,4.38,0,8.78-.33,13.07-1.03ZM460.62,166.53c-10.08-9.65-17.04-23.19-19.66-37.61-.65-3.66-1.04-7.36-1.13-11.07-.26-12.29,2.82-23.68,8.93-32.96,6.96-10.56,27.94-33.06,72.45-13.95,28.97,12.44,45.67,39.27,43.57,70.02-.82,12.23-5.39,23.12-12.83,30.61-1.93,1.95-4.14,3.7-6.55,5.27-4.02,2.64-8.64,4.71-13.64,6.14-2.09.6-4.26,1.1-6.49,1.45-10.03,1.63-20.52,1.23-30.42-.87-13.28-2.82-25.53-8.73-34.22-17.04Z"/>
            <path class="cls-8" d="M458.08,90.81c-3.75,1.79-6.47,5.44-7.66,10.27-1.47,5.92-.32,12.37,2.99,16.84,3.1,4.19,8.84,7.48,14.49,7.48,1.9,0,3.78-.37,5.56-1.2,3.64-1.71,6.27-5.08,7.81-10.01.13-.42,3.13-10.33-3.62-18.02-4.41-5.03-12.77-8.61-19.57-5.35Z"/>
            <path class="cls-8" d="M550.85,44.3c1.06-1.23,2.14-2.45,3.28-3.61,6.28-6.37,13.6-11.5,21.78-15.25l-1.04-2.31c-8.47,3.88-16.05,9.19-22.55,15.78-1.51,1.54-2.94,3.17-4.31,4.81-3.39,4.09-6.35,8.5-8.83,13.23l2.24,1.18c2.62-4.98,5.78-9.6,9.43-13.83Z"/>
            <path class="cls-8" d="M569.6,76.67l1.97,1.61c2.43-2.96,5.22-5.63,8.28-7.91,4.23-3.17,8.95-5.58,14.03-7.2l-.77-2.41c-5.36,1.69-10.34,4.24-14.79,7.58-3.22,2.41-6.16,5.22-8.73,8.33Z"/>
            <path class="cls-8" d="M602.05,103.61c2.65-2.1,5.46-4.07,8.37-5.84l-1.32-2.17c-3,1.81-5.9,3.83-8.63,6.01-2.09,1.64-4.11,3.42-6.01,5.25l1.76,1.83c1.85-1.78,3.8-3.49,5.82-5.08Z"/>
            <path class="cls-8" d="M708.77,374.9c-5.61-7.12-14.6-8.51-19.99-9.34l-.66-.1c-20.57-3.24-43.39-11.29-67.81-23.89.07-.41.12-.83.2-1.27.56-3.36,1.02-7.17,1.41-11.53,7.16-1.76,14.02-5.56,19.33-12.65,2.61-3.51,4.78-7.56,6.58-12.33,1.19-3.19,2.24-6.73,3.14-10.68,2.95-13.02,4-27.4,3.24-45.24-.07-1.73-.1-3.56-.12-5.46-.17-10.92-.37-24.57-9.7-31.64-6.95-5.26-15.92-4.66-24.59-2.12-2.34-30.86-5.19-44.41-7.24-51.89.27-.12.51-.24.78-.37l.27.1c.02-.07.05-.17.07-.24,5.27-15.01,7.9-31.08,7.9-47.26,0-13.94-1.95-28.01-5.9-41.58-.24-.85-.56-1.9-.93-3.1-2.44-7.85-7.53-22.33-15.4-35.76-9.53-16.31-19.86-25.5-30.74-27.32-4.17-.71-10.7-.39-24.57,8.36-11.87,7.53-22.57,17.11-31.98,28.62-2.8,3.39-5.48,6.95-8.04,10.68-5.39-1.27-10.85-2.22-16.4-2.85-26.72-3.07-49.58,1.68-64.01,6.19-4.75,1.49-9.19,3.27-12.33,4.58-6-6.26-12.94-10.82-20.69-13.53-14.8-5.19-31.1-3.19-48.48,5.95-3.19,1.66-11.33,6.43-19.43,15.16-.54-.07-1.14-.07-1.8.1-3.56.85-8.95,5.75-12.04,10.9-3.05,5.09-5.41,13.5-2.97,16.6-1.41,4.46-2.31,9.09-2.66,13.75-.1,1.34-.15,2.66-.15,4.02,0,7.36,1.39,14.82,4.07,21.96.59,1.54,1.19,3.05,1.9,4.56-1.19,3.53-2.9,10.26-2.29,18.48.27,3.66.98,7.6,2.39,11.72.39,1.1.8,2.22,1.32,3.34.97,2.29,3.22,6.78,7.09,11.41-.85,6.24-1.54,12.72-2.19,19.48-.05.46-.1.9-.15,1.36-.15,1.68-.32,3.36-.49,5.07l-.1,1.1c-.07.78-.15,1.56-.2,2.34-4.07-1.73-9.26-3.24-13.48-2.07-5.9,1.63-7.24,7.56-7.51,16.6-.29,10.02,1.12,15.6,2.63,21.52,1.17,4.58,2.36,9.34,2.73,16.48.12,2.53.1,4.73.1,6.87-.05,4.87-.07,9.48,1.56,16.62,2.1,9.07,4.83,13.55,10.12,16.5.44.24.88.49,1.32.71,3.34,1.66,6.24,2.36,8.09,2.66.85,4.85,1.71,9.53,2.54,14.02,2.58,13.97,5.7,27.88,9.29,41.44,1.22,4.56,2.49,9.09,3.83,13.7,1,3.34,2,6.73,3.07,10.19l1.9-.61c-1.14,1.24-2.29,2.49-3.39,3.75-9.63,10.77-18.3,22.45-25.86,34.78-7.53-7.09-16.11-11.63-25.5-13.43-16.36-3.1-29.81.15-38.93,9.36-1.88,1.88-3.51,3.97-4.92,6.24-5.75,9.19-7.58,20.99-4.36,30.91,2.51,7.78,7.07,11.14,12.85,15.4,5.17,3.83,11.6,8.58,18.72,18.26,4.97,6.78,6.53,10.8,7.87,14.38,1.37,3.56,2.66,6.92,6.92,11.97,9.92,11.72,28.15,23.23,46.68,23.23,1.93,0,3.83-.12,5.73-.37,10.31-1.39,15.28-6.09,22.79-13.21,5.85-5.56,13.11-12.43,25.79-20.96,15.43-10.38,27.96-15.72,50.72-25.37l.32-.12c17.18-7.29,26.45-10.09,37.17-13.36,7.02-2.12,14.87-4.48,26.01-8.46,1.1-.39,2.22-.8,3.39-1.22l.24-.1c7.8-2.85,15.16-5.56,21.84-8.04,10.02,2.66,20.26,5,30.42,6.9,20.06,3.78,40.56,6.04,61.13,6.78v.05c-.02.12-.05.24-.07.34-1.51,6.97-1.46,13.94.07,20.69,2.93,12.77,8.95,21.86,17.89,27.1,5.53,3.19,12.09,4.78,18.62,4.78,9.07,0,18.13-3,24.5-8.8,6.56-5.92,7.17-12.21,7.97-20.91.71-7.63,1.63-17.16,6.48-30.83,3.05-8.58,5.78-13.55,8.43-18.33,1.83-3.31,3.61-6.51,5.34-10.7,1.41-3.41,2.8-7.43,4.19-12.72,3.1-11.77,7.31-27.91-.88-38.27ZM515.06,38.56c8.97-10.72,19.13-19.69,30.35-26.79,13.11-8.31,19.08-8.65,22.79-8.02,10.07,1.71,19.82,10.48,28.96,26.08,7.07,12.09,11.85,25.01,14.48,33.05.68,2.1,1.22,3.92,1.63,5.24,8.19,28.32,7.63,58.74-1.51,85.87-.76-2.51-1.49-4.61-2.14-6.34-4.12-11.09-11.75-31.76-30.25-52.77-19.62-22.3-41.05-33.59-52.09-38.34-6.66-2.88-13.55-5.19-20.6-7,2.66-3.85,5.44-7.51,8.38-10.99ZM411.5,59.52c4.41-1.95,8.87-3.61,12.87-4.85,14.21-4.46,36.68-9.12,62.98-6.12,13.53,1.54,26.62,5.02,38.9,10.33,10.85,4.66,31.93,15.72,51.21,37.68,18.16,20.67,25.71,41.05,29.76,51.97.8,2.12,1.73,4.73,2.63,8.04.12.39.24.8.37,1.24,2,7.51,4.8,21.08,7.09,51.6-5.53,1.85-10.82,4.34-15.28,6.46l-.73.37c-14.02,6.61-25.84,15.53-35.12,26.59l1.95,1.61c9.04-10.75,20.57-19.48,34.25-25.91l.73-.34c11.51-5.44,28.88-13.63,39.75-5.36,8.36,6.31,8.53,18.72,8.7,29.64.02,1.93.05,3.78.12,5.51.73,17.62-.29,31.78-3.19,44.58-.97,4.19-2.1,7.9-3.41,11.24-1.61,4.14-3.56,7.73-5.85,10.82-15.67,20.86-45.92,10.97-54.79,7.41-9.21-3.68-17.4-9.36-24.3-16.92l-.49.44-1.41,1.27c7.19,7.85,15.7,13.77,25.25,17.57.95.39,2.1.83,3.46,1.29,1.75.61,3.85,1.27,6.17,1.88,1.37.37,2.85.71,4.39,1.02,4.1.85,8.68,1.46,13.41,1.46,1.68,0,3.41-.1,5.14-.27.56-.07,1.12-.12,1.66-.22.54-.07,1.07-.12,1.63-.24-.05.54-.1,1.02-.17,1.54-.1,1-.2,1.97-.29,2.88-3.29,1.17-6.61,2.32-9.92,3.41-3.29,1.1-6.61,2.14-9.94,3.17-17.11,5.26-34.39,9.43-51.84,12.53-14.53,2.58-29.13,4.44-43.82,5.53-1.39.1-2.75.17-4.14.27-9.82.63-19.67.97-29.54.95,3.39-18.57,5.61-37.22,6.65-55.79.76-13.11.95-26.18.54-39.12-1.39-42.92-8.12-58.99-13.06-67.32-2.58-4.34-5.46-8.31-8.51-11.97-5.63-6.73-11.89-12.28-18.33-16.92-3.51-2.53-7.04-4.78-10.55-6.75-5.9-3.34-11.68-5.95-16.87-7.97.8-7.41-.56-13.02-4.14-16.6-.39-.39-.83-.76-1.27-1.1-3.1-2.39-7.04-3.19-11.26-3.29-3.85-.1-7.97.44-11.85.95-6.85.9-11.43,2.46-15.09,3.73-4.34,1.49-6.95,2.41-10.29.97-2.76-1.19-3.85-3.02-5-5.17-.07-.15-.15-.29-.22-.46-.9-1.68-1.85-3.51-3.58-5.17-.95-.95-2.14-1.85-3.68-2.66-1.46-.73-3-1.29-4.63-1.66.56-.98,1.15-1.95,1.71-2.88,6.39-10.46,13.7-19.38,21.25-26.93,18.16-18.26,37.8-28.71,50.02-33.98ZM305.66,107.83c-.29.2-.61.41-.9.66.29-.24.61-.46.9-.68,0-.63.02-1.27.07-1.88.29-4.34,1.15-8.63,2.41-12.77h.17c3.75,0,8.82-5.22,9.46-5.9,5.05-5.31,7.78-12.99,7.78-17.87,0-.46-.02-.93-.07-1.34-.12-.88-.37-1.58-.71-2.17,7.73-8.26,15.45-12.8,18.5-14.41,16.72-8.8,32.34-10.75,46.46-5.8,7.09,2.49,13.48,6.61,19.06,12.24-12.85,5.73-32.61,16.67-50.7,35.37-7.12,7.36-13.97,15.92-20.04,25.84-.76,1.22-1.49,2.49-2.24,3.8-9.31-.83-18.04,4.31-18.43,4.53-1.56.93-3.22,1.9-4.68,3.14-.88.73-1.66,1.58-2.29,2.53-.27-.63-.51-1.29-.76-1.95-2.9-7.58-4.29-15.53-4-23.35ZM312.76,168.79c-.2-.44-.34-.9-.54-1.36-2.02-5.07-2.85-9.97-3.02-14.36-.12-2.8.02-5.41.34-7.73.71,1.75,1.63,3.7,2.75,5.7,1.83,3.19,4.22,6.53,7.39,9.48,3.41,3.19,7.34,5.53,11.65,7,3.46,1.17,7.12,1.73,10.77,1.73,5.8,0,11.6-1.46,16.62-4.29,4.39-2.46,12.26-8.41,10.68-13.14-1.61-4.9-12.04-4.66-14.11-4.56-6.09.27-9.9,2.32-13.24,4.12s-6.19,3.36-10.92,3.24c-2.92-.07-5.8-.78-8.58-2.1-2.85-1.34-4.7-2.92-5.34-3.44-.05-.05-.32-.27-.71-.63-1.39-1.29-4.51-4.46-6.02-8.17.39-1.51.78-2.78,1.1-3.73,1-3.36,4.1-5.17,7.12-6.92.32-.2,7.26-4.29,15.06-4.29.85,0,1.73.05,2.61.15,2,.27,3.88.83,5.61,1.73.27.12.49.27.76.44,3.02,1.8,4.19,3.97,5.41,6.29.02.05.02.07.05.1,1.32,2.51,2.71,5.09,6.44,6.68,4.22,1.83,7.56.71,12.11-.88,3.56-1.22,8-2.75,14.6-3.61,8.12-1.07,17.28-2.27,22.23,2.71,3.17,3.14,4.27,8.36,3.34,15.48-1.73,12.8-11.99,21.99-20.81,27.66-4.66,2.97-8.9,4.97-11.26,6-7.75,3.32-23.86,10.24-40.63,2.75-5.36-2.41-10.09-5.92-14.07-10.48l-.32-.37c-3.88-4.53-6.09-8.97-7.07-11.21ZM314.85,150.39c.37.34.63.56.73.66.68.56,2.73,2.32,5.87,3.8,3.1,1.46,6.34,2.24,9.63,2.32,5.36.15,8.82-1.73,12.19-3.53,3.24-1.76,6.63-3.58,12.14-3.83,5.17-.24,10.9.76,11.58,2.8.8,2.36-4.39,7.24-9.51,10.14-7.46,4.22-17.16,5.12-25.35,2.36-3.97-1.34-7.58-3.51-10.72-6.43-2.76-2.56-4.9-5.46-6.56-8.29ZM311.81,300.87c-3.97-2.22-6.7-5.36-8.87-14.87-1.56-6.85-1.54-11.09-1.51-16.01,0-2.17.02-4.41-.1-7.02-.37-7.39-1.61-12.26-2.8-16.99-1.46-5.73-2.85-11.16-2.56-20.82.32-10.63,2.39-13.33,5.66-14.23,3.05-.83,7.38-.02,12.55,2.32-.02.27-.05.54-.07.8-.34,4.48-.56,8.87-.71,13.21-.8-.17-1.61-.32-2.41-.44-2.58-.37-5.24-.44-7.87-.22l.2,2.53c2.46-.2,4.92-.12,7.34.2.9.12,1.78.29,2.66.49-.41,16.6.56,31.93,2.17,46.09-.8-.05-1.63-.07-2.46-.05-1.9.07-3.8.34-5.66.78l.59,2.46c1.71-.39,3.44-.63,5.14-.68.9-.05,1.8,0,2.68.05,1.07,8.92,2.39,17.35,3.75,25.32-1.9-.39-4.66-1.22-7.7-2.92ZM325.02,320.01c-.97-5.17-1.95-10.55-2.92-16.21-4.31-25.08-8.14-54.82-5.46-89.55.15-1.9.32-3.83.51-5.78l.1-1.1c.12-1.39.27-2.75.39-4.14.07-.71.15-1.44.22-2.14.61-6,1.22-11.77,1.92-17.35,3.9,4.02,8.38,7.19,13.38,9.43,5.87,2.61,11.63,3.58,17.01,3.58,10.92,0,20.26-4,25.69-6.34,2.88-1.24,8.38-3.85,14.16-7.9,8.21-5.78,16.92-14.45,19.13-26.15,5.17,2,10.82,4.63,16.62,7.97,3.46,1.97,7,4.24,10.48,6.8l15.67,14.31c3.51,3.97,6.78,8.34,9.65,13.24,4.8,8.09,11.36,23.74,12.72,66.1.42,12.92.22,25.96-.54,39.02-1.07,18.55-3.29,37.2-6.68,55.77-5.26-.05-10.5-.17-15.79-.39-41.85-1.88-83.31-9.82-123.19-23.62-1.07-5.17-2.15-10.36-3.1-15.55ZM524.13,446.29c-.68.27-1.44.54-2.14.8-5.9,2.19-12.26,4.53-19.01,7.02-.34.1-.68.24-1.02.37l-.1.02-.15.07c-.85.29-1.71.61-2.51.9-3.61,1.29-6.85,2.41-9.87,3.41-4.19,1.41-7.87,2.58-11.28,3.63-.49.15-.97.29-1.44.44-.95.29-1.88.56-2.78.85-.46.12-.93.27-1.37.39-1,.29-1.95.58-2.93.9-1.93.58-3.85,1.17-5.82,1.8-.98.29-1.95.63-2.95.95-1,.32-2.02.66-3.07,1.02-3.12,1.07-6.46,2.29-10.21,3.7-3.68,1.44-7.78,3.07-12.45,5.07l-.32.12c-9.33,3.97-16.94,7.21-23.76,10.38-9.92,4.58-18.13,8.99-27.4,15.21-1.41.97-2.78,1.9-4.07,2.83-1.95,1.36-3.73,2.71-5.44,4.02-1.68,1.27-3.24,2.51-4.7,3.73-1.83,1.49-3.49,2.92-5.02,4.31-2.58,2.29-4.8,4.39-6.85,6.34-1.9,1.8-3.61,3.41-5.27,4.85-3.17,2.75-6.14,4.83-9.82,6.17-1.88.71-3.95,1.19-6.31,1.54-7.31.98-14.7-.12-21.64-2.53-5.78-2-11.26-4.95-16.11-8.34-.61-.41-1.19-.85-1.8-1.29-.58-.44-1.17-.88-1.71-1.34h-.02c-.56-.46-1.1-.9-1.63-1.36h-.02c-.54-.46-1.05-.93-1.58-1.39-.51-.46-1.02-.93-1.51-1.41-.49-.46-.97-.95-1.44-1.41-.95-.97-1.8-1.95-2.63-2.92-.27-.32-.54-.63-.78-.93-.24-.32-.46-.61-.68-.9-.46-.58-.88-1.15-1.22-1.68-.73-1.07-1.32-2.07-1.8-3.02-.17-.34-.34-.71-.49-1.05-.34-.68-.61-1.34-.88-2-.15-.34-.27-.68-.39-1.05-.1-.2-.17-.39-.24-.61-1.24-3.19-2.61-6.8-6.29-12.24-.59-.85-1.22-1.76-1.9-2.71-7.36-9.99-13.97-14.89-19.28-18.82-5.61-4.17-9.68-7.14-11.94-14.16-3.14-9.7-1.05-21.35,5-30.1,1.1-1.58,2.31-3.1,3.68-4.46,1.58-1.61,3.34-3.02,5.22-4.24,8.14-5.24,18.84-6.78,31.42-4.39,4.85.93,9.48,2.63,13.84,5.07,3.78,2.12,7.36,4.8,10.73,8.02.27.24.51.46.78.71.29.29.56.58.85.85.27.29.54.58.83.88,2.9,3.14,5.29,6.36,7.14,9.21,1.88,2.9,3.24,5.44,4.12,7.24.58,1.17.97,2.05,1.14,2.49l.83-.34,1.51-.63c-.05-.1-.1-.27-.17-.44-.1-.19-.17-.39-.29-.61-.1-.24-.22-.49-.34-.78-.15-.27-.29-.58-.46-.9-.22-.49-.51-1.05-.8-1.61-.32-.58-.66-1.22-1.02-1.85-2.24-3.97-5.7-9.19-10.51-14.21-.12-.12-.22-.24-.34-.37.15-.22.29-.46.44-.71,3.73-6.04,7.73-11.94,11.97-17.67,2.14-2.85,4.34-5.65,6.58-8.41,2.24-2.75,4.56-5.46,6.9-8.12,3.09-3.46,6.34-6.8,9.63-10.09,5.73-5.7,11.68-11.16,17.92-16.23l-1.58-1.97c-6.65,5.41-12.99,11.19-19.04,17.28-.68.71-1.34,1.41-2.02,2.1-.97,1.02-1.97,2-2.95,3.05-.83-2.68-1.61-5.29-2.39-7.9-1.56-5.26-3.02-10.43-4.39-15.6-2-7.51-3.83-15.14-5.51-22.81,39.66,13.58,80.83,21.43,122.46,23.28,6.58.29,13.16.46,19.74.46,9.43,0,18.84-.32,28.25-.93,24.28-1.58,48.36-5.19,72.12-10.8,12.11-2.88,24.13-6.24,36.07-10.14,1.37-.44,2.71-.9,4.07-1.36,2.36-.78,4.7-1.56,7.04-2.39-.12.97-.27,1.9-.41,2.8-.05.34-.1.63-.15.95-.1.61-.2,1.17-.29,1.76-.12.63-.24,1.27-.37,1.83-.37,1.83-.73,3.27-1.07,4.56-.41,1.58-.83,3.19-1.24,4.8-.44,1.61-.85,3.22-1.32,4.83-1.49,5.44-3.1,10.92-5.1,16.36-.49,1.36-1,2.73-1.56,4.09-.8,2.02-1.68,4.07-2.63,6.09-.29.68-.63,1.36-.95,2.02t-.02.02c-.15.34-.32.68-.49,1-.2.41-.41.8-.61,1.22-.32.61-.63,1.22-.97,1.83-3.41,6.34-7.65,12.6-13.02,18.72-4.41,5.05-9.21,9.36-14.67,13.26-1.54,1.1-3.09,2.17-4.75,3.19-.61.39-1.24.78-1.88,1.17-.63.39-1.27.76-1.93,1.12-.32.2-.63.37-.97.56-.32.19-.66.39-1,.56-.68.39-1.37.76-2.05,1.12-.68.39-1.39.76-2.12,1.12-.51.27-1.02.51-1.54.78-.49.24-1,.49-1.51.73-.34.17-.68.34-1.02.51-.07.05-.2.1-.27.12-1.63.78-3.32,1.58-5.07,2.34-.51.24-1.02.46-1.56.71-.17.07-.34.15-.54.22-.22.1-.46.22-.71.32-.49.22-.95.41-1.44.63-.49.2-.97.41-1.46.63-.51.2-1,.41-1.49.61-.71.29-1.39.58-2.1.88-.83.34-1.68.68-2.56,1.02-3.17,1.27-6.48,2.56-9.99,3.9-1.15.44-2.36.9-3.56,1.34ZM707.21,412.53c-1.49,5.63-2.97,9.85-4.51,13.36-1.58,3.61-3.17,6.51-4.8,9.46-2.68,4.9-5.51,9.94-8.6,18.7-4.97,14.02-5.92,24.11-6.63,31.47-.83,8.75-1.32,14.02-7.12,19.28-10.19,9.24-27.84,10.87-40.14,3.68-8.31-4.85-13.94-13.41-16.7-25.45-1.49-6.39-1.51-12.94-.1-19.55l.1-.39.12-.49c4.19.12,8.39.2,12.58.2h.78v-2.53h-.78c-25.47,0-50.99-2.36-75.85-7.02-8.95-1.68-17.91-3.7-26.76-5.97,19.4-7.41,33.47-13.65,44.7-21.38,6.31-4.31,11.75-9.09,16.75-14.8,17.57-20.04,23.08-41.36,28.44-61.98.37-1.41.75-2.97,1.14-4.92,24.4,12.53,47.24,20.55,67.91,23.79l.66.1c5.34.83,13.41,2.07,18.4,8.38,7.38,9.36,3.34,24.81.41,36.07Z"/>
            <path class="cls-8" d="M620.08,243.64c6.25-2.08,12.72-3.65,19.24-4.69l-.4-2.51c-6.65,1.06-13.26,2.67-19.64,4.79-11.18,3.72-21.81,9.04-31.61,15.8l1.44,2.09c9.59-6.63,20.01-11.84,30.97-15.48Z"/>
            <path class="cls-8" d="M615.04,280.18c-8.42.47-16.89,1.59-25.17,3.33l.52,2.49c8.15-1.72,16.49-2.82,24.79-3.28,6.25-.35,12.6-.33,18.87.04l.15-2.54c-6.36-.38-12.81-.39-19.16-.04Z"/>
          </g>
        </g>
      </g>
    </g>
  </g>
</svg>