<?xml version="1.0" encoding="UTF-8" standalone="no"?>
<!DOCTYPE svg PUBLIC "-//W3C//DTD SVG 1.1//EN" "http://www.w3.org/Graphics/SVG/1.1/DTD/svg11.dtd">
<svg width="100%" height="100%" viewBox="0 0 306 124" version="1.1" xmlns="http://www.w3.org/2000/svg" xmlns:xlink="http://www.w3.org/1999/xlink" xml:space="preserve" xmlns:serif="http://www.serif.com/" style="fill-rule:evenodd;clip-rule:evenodd;stroke-linejoin:round;stroke-miterlimit:2;">
    <g transform="matrix(1,0,0,1,-9297.474776,-10828.798291)">
        <g transform="matrix(1,0,0,1,-425,-280)">
            <path d="M9804.209,11108.798C9819.245,11108.798 9832.174,11110.087 9842.995,11112.65C9853.991,11115.254 9862.662,11119.041 9869.028,11123.96C9875.476,11128.942 9880.154,11134.725 9883.085,11141.29C9885.996,11147.809 9887.465,11155.373 9887.465,11163.988C9887.465,11164.96 9886.677,11165.749 9885.704,11165.749L9845.295,11165.749C9844.455,11165.749 9843.732,11165.156 9843.568,11164.333C9843.464,11163.815 9843.281,11163.143 9843.022,11162.315C9842.772,11161.514 9841.85,11160.166 9840.348,11158.214C9838.772,11156.164 9836.717,11154.331 9834.195,11152.702C9831.605,11151.03 9827.685,11149.542 9822.452,11148.194C9817.112,11146.817 9810.918,11146.136 9803.871,11146.136C9797.586,11146.136 9792.099,11146.627 9787.413,11147.619C9782.84,11148.588 9779.23,11149.808 9776.594,11151.314C9774.08,11152.751 9772.074,11154.566 9770.586,11156.772C9769.081,11159.004 9768.059,11161.178 9767.54,11163.306C9767.007,11165.491 9766.745,11167.917 9766.745,11170.582C9766.745,11174.276 9767.313,11177.55 9768.474,11180.4C9769.62,11183.212 9771.505,11185.781 9774.108,11188.125C9776.75,11190.502 9780.517,11192.294 9785.379,11193.563C9790.442,11194.883 9796.607,11195.534 9803.871,11195.534C9811.403,11195.534 9817.938,11194.986 9823.477,11193.878C9828.847,11192.804 9832.778,11191.546 9835.249,11190.043C9837.682,11188.562 9839.619,11187.062 9841.047,11185.528C9842.272,11184.212 9843.048,11183.148 9843.229,11182.241L9843.568,11180.55C9843.732,11179.727 9844.455,11179.134 9845.295,11179.134L9885.704,11179.134C9886.677,11179.134 9887.465,11179.923 9887.465,11180.895C9887.465,11186.838 9886.701,11192.226 9885.187,11197.061C9883.656,11201.947 9880.958,11206.692 9877.073,11211.283C9873.207,11215.852 9868.205,11219.668 9862.054,11222.714C9856.017,11225.703 9848.172,11228.102 9838.513,11229.884C9828.953,11231.648 9817.857,11232.534 9805.224,11232.534C9789.741,11232.534 9776.764,11231.359 9766.291,11229.026C9755.618,11226.648 9747.072,11222.853 9740.634,11217.691C9734.122,11212.47 9729.464,11206.16 9726.648,11198.768C9723.878,11191.496 9722.475,11182.553 9722.475,11171.934C9722.475,11160.502 9724.254,11150.718 9727.776,11142.576C9731.349,11134.319 9736.711,11127.703 9743.856,11122.725C9750.907,11117.813 9759.398,11114.248 9769.338,11112.052C9779.138,11109.887 9790.762,11108.798 9804.209,11108.798ZM10028.475,11111.574L10028.475,11149.785C10028.475,11150.394 10028.16,11150.96 10027.643,11151.281L9956.126,11195.704L10026.714,11195.704C10027.686,11195.704 10028.475,11196.492 10028.475,11197.465L10028.475,11230.266C10028.475,11231.238 10027.686,11232.027 10026.714,11232.027L9892.298,11232.027C9891.325,11232.027 9890.537,11231.238 9890.537,11230.266L9890.537,11192.392C9890.537,11191.78 9890.855,11191.211 9891.378,11190.891L9964.164,11146.305L9892.298,11146.305C9891.325,11146.305 9890.537,11145.517 9890.537,11144.544L9890.537,11111.574C9890.537,11110.601 9891.325,11109.813 9892.298,11109.813L10026.714,11109.813C10027.686,11109.813 10028.475,11110.601 10028.475,11111.574Z" style="fill:rgb(108,10,0);"/>
        </g>
    </g>
</svg>
