<?xml version="1.0" encoding="UTF-8" standalone="no"?>
<!DOCTYPE svg PUBLIC "-//W3C//DTD SVG 1.1//EN" "http://www.w3.org/Graphics/SVG/1.1/DTD/svg11.dtd">
<svg width="100%" height="100%" viewBox="0 0 306 124" version="1.1" xmlns="http://www.w3.org/2000/svg" xmlns:xlink="http://www.w3.org/1999/xlink" xml:space="preserve" xmlns:serif="http://www.serif.com/" style="fill-rule:evenodd;clip-rule:evenodd;stroke-linejoin:round;stroke-miterlimit:2;">
    <g transform="matrix(1,0,0,1,-8712.474776,-10641.798291)">
        <g transform="matrix(1,0,0,1,1177.183007,7891)">
            <g transform="matrix(0.140897,0,0,0.140897,9107.895417,1969.992278)">
                <path d="M-10581.275,5541.681C-10474.556,5541.681 -10382.799,5550.827 -10305.994,5569.018C-10227.951,5587.502 -10166.414,5614.376 -10121.231,5649.29C-10075.469,5684.652 -10042.261,5725.691 -10021.46,5772.286C-10000.804,5818.555 -9990.375,5872.24 -9990.375,5933.381C-9990.375,5940.285 -9995.971,5945.881 -10002.875,5945.881L-10289.675,5945.881C-10295.633,5945.881 -10300.763,5941.676 -10301.932,5935.833C-10302.667,5932.159 -10303.969,5927.388 -10305.806,5921.51C-10307.582,5915.825 -10314.122,5906.261 -10324.782,5892.403C-10335.971,5877.857 -10350.554,5864.844 -10368.456,5853.282C-10386.834,5841.413 -10414.656,5830.858 -10451.794,5821.286C-10489.696,5811.517 -10533.66,5806.681 -10583.675,5806.681C-10628.284,5806.681 -10667.223,5810.167 -10700.485,5817.21C-10732.94,5824.083 -10758.563,5832.743 -10777.273,5843.434C-10795.114,5853.629 -10809.352,5866.514 -10819.911,5882.171C-10830.592,5898.008 -10837.847,5913.443 -10841.531,5928.543C-10845.313,5944.053 -10847.175,5961.268 -10847.175,5980.181C-10847.175,6006.401 -10843.139,6029.639 -10834.898,6049.865C-10826.768,6069.821 -10813.39,6088.06 -10794.912,6104.69C-10776.16,6121.567 -10749.424,6134.285 -10714.919,6143.286C-10678.985,6152.66 -10635.232,6157.281 -10583.675,6157.281C-10530.217,6157.281 -10483.833,6153.385 -10444.526,6145.524C-10406.408,6137.9 -10378.508,6128.977 -10360.974,6118.304C-10343.705,6107.793 -10329.959,6097.15 -10319.823,6086.264C-10311.128,6076.925 -10305.62,6069.37 -10304.332,6062.93L-10301.932,6050.93C-10300.763,6045.087 -10295.633,6040.881 -10289.675,6040.881L-10002.875,6040.881C-9995.971,6040.881 -9990.375,6046.478 -9990.375,6053.381C-9990.375,6095.557 -9995.795,6133.798 -10006.546,6168.118C-10017.409,6202.795 -10036.558,6236.468 -10064.132,6269.056C-10091.571,6301.484 -10127.074,6328.564 -10170.727,6350.183C-10213.575,6371.403 -10269.25,6388.424 -10337.806,6401.074C-10405.658,6413.594 -10484.413,6419.881 -10574.075,6419.881C-10683.958,6419.881 -10776.061,6411.545 -10850.393,6394.982C-10926.145,6378.103 -10986.796,6351.174 -11032.494,6314.534C-11078.709,6277.478 -11111.771,6232.692 -11131.756,6180.231C-11151.417,6128.62 -11161.375,6065.15 -11161.375,5989.781C-11161.375,5908.64 -11148.745,5839.201 -11123.747,5781.418C-11098.391,5722.808 -11060.332,5675.857 -11009.62,5640.525C-10959.581,5605.662 -10899.319,5580.362 -10828.771,5564.776C-10759.212,5549.408 -10676.716,5541.681 -10581.275,5541.681ZM-10581.275,5566.681C-10674.633,5566.681 -10755.337,5574.155 -10823.378,5589.187C-10890.43,5604.001 -10947.768,5627.901 -10995.329,5661.038C-11042.217,5693.705 -11077.358,5737.154 -11100.802,5791.345C-11124.604,5846.362 -11136.375,5912.523 -11136.375,5989.781C-11136.375,6061.613 -11127.132,6122.143 -11108.393,6171.331C-11089.978,6219.671 -11059.44,6260.885 -11016.855,6295.029C-10973.753,6329.588 -10916.404,6354.66 -10844.956,6370.581C-10772.089,6386.817 -10681.791,6394.881 -10574.075,6394.881C-10486.136,6394.881 -10408.891,6388.769 -10342.343,6376.489C-10276.499,6364.339 -10222.974,6348.16 -10181.822,6327.78C-10141.475,6307.798 -10108.578,6282.879 -10083.217,6252.907C-10057.991,6223.095 -10040.34,6192.368 -10030.403,6160.645C-10021.426,6131.989 -10016.495,6100.398 -10015.545,6065.881L-10279.427,6065.881L-10279.817,6067.833C-10281.73,6077.395 -10288.617,6089.434 -10301.526,6103.299C-10312.99,6115.612 -10328.444,6127.77 -10347.975,6139.659C-10367.241,6151.386 -10397.741,6161.662 -10439.623,6170.039C-10480.316,6178.177 -10528.332,6182.281 -10583.675,6182.281C-10637.717,6182.281 -10683.564,6177.302 -10721.23,6167.477C-10760.325,6157.278 -10790.389,6142.395 -10811.637,6123.273C-10833.159,6103.902 -10848.581,6082.542 -10858.051,6059.298C-10867.41,6036.324 -10872.175,6009.962 -10872.175,5980.181C-10872.175,5959.095 -10870.036,5939.91 -10865.819,5922.619C-10861.502,5904.92 -10853.157,5886.755 -10840.638,5868.192C-10827.997,5849.449 -10811.035,5833.933 -10789.676,5821.728C-10769.185,5810.019 -10741.209,5800.28 -10705.664,5792.753C-10670.926,5785.396 -10630.265,5781.681 -10583.675,5781.681C-10531.289,5781.681 -10485.253,5786.845 -10445.555,5797.077C-10405.093,5807.505 -10374.915,5819.35 -10354.893,5832.281C-10334.395,5845.519 -10317.778,5860.506 -10304.967,5877.16C-10291.625,5894.504 -10284.167,5906.938 -10281.944,5914.053C-10281.182,5916.489 -10280.503,5918.766 -10279.905,5920.881L-10015.529,5920.881C-10016.833,5868.772 -10026.365,5822.627 -10044.289,5782.477C-10063.488,5739.472 -10094.28,5701.71 -10136.518,5669.072C-10179.335,5635.986 -10237.798,5610.861 -10311.755,5593.345C-10386.95,5575.536 -10476.793,5566.681 -10581.275,5566.681ZM-8989.575,5561.381L-8989.575,5832.581C-8989.575,5836.904 -8991.807,5840.919 -8995.479,5843.2L-9503.06,6158.481L-9002.075,6158.481C-8995.171,6158.481 -8989.575,6164.078 -8989.575,6170.981L-8989.575,6403.781C-8989.575,6410.685 -8995.171,6416.281 -9002.075,6416.281L-9956.075,6416.281C-9962.978,6416.281 -9968.575,6410.685 -9968.575,6403.781L-9968.575,6134.981C-9968.575,6130.631 -9966.313,6126.594 -9962.604,6124.322L-9446.011,5807.881L-9956.075,5807.881C-9962.978,5807.881 -9968.575,5802.285 -9968.575,5795.381L-9968.575,5561.381C-9968.575,5554.478 -9962.978,5548.881 -9956.075,5548.881L-9002.075,5548.881C-8995.171,5548.881 -8989.575,5554.478 -8989.575,5561.381ZM-9014.575,5573.881L-9943.575,5573.881L-9943.575,5782.881L-9401.675,5782.881C-9396.077,5782.881 -9391.162,5786.602 -9389.644,5791.989C-9388.125,5797.377 -9390.372,5803.117 -9395.145,5806.041L-9943.575,6141.983L-9943.575,6391.281L-9014.575,6391.281L-9014.575,6183.481L-9546.875,6183.481C-9552.457,6183.481 -9557.363,6179.779 -9558.895,6174.411C-9560.427,6169.042 -9558.212,6163.309 -9553.47,6160.363L-9014.575,5825.631L-9014.575,5573.881Z" style="fill:white;"/>
            </g>
        </g>
    </g>
</svg>
