<?xml version="1.0" encoding="UTF-8"?>
<svg id="Layer_2" data-name="Layer 2" xmlns="http://www.w3.org/2000/svg" viewBox="0 0 657.08 622.93">
  <defs>
    <style>
      .cls-1 {
        fill: #f499bd;
      }

      .cls-2 {
        fill: #e51e26;
      }
    </style>
  </defs>
  <g id="Layer_1-2" data-name="Layer 1">
    <g>
      <g>
        <polygon class="cls-1" points="0 171.36 0 567.43 657.08 451.57 657.08 55.5 0 171.36"/>
        <g>
          <g>
            <g>
              <path class="cls-2" d="M438.09,498.47c-1.05,35.72,26.3,83.76,61.61,108.94v-134.97c-33.61-19.11-60.6-8.37-61.61,26.02Z"/>
              <path class="cls-2" d="M570.85,587.52c1.05-35.72-26.3-83.76-61.61-108.94v134.97c33.61,19.11,60.6,8.37,61.61-26.02Z"/>
            </g>
            <g>
              <path class="cls-2" d="M453.56,587.52c1.05-35.72-26.3-83.76-61.61-108.94v134.97c33.61,19.11,60.6,8.37,61.61-26.02Z"/>
              <path class="cls-2" d="M320.81,498.47c-1.05,35.72,26.3,83.76,61.61,108.94v-134.97c-33.61-19.11-60.6-8.37-61.61,26.02Z"/>
            </g>
            <g>
              <path class="cls-2" d="M336.28,587.52c1.05-35.72-26.3-83.76-61.61-108.94v134.97c33.61,19.11,60.6,8.37,61.61-26.02Z"/>
              <path class="cls-2" d="M203.52,498.47c-1.05,35.72,26.3,83.76,61.61,108.94v-134.97c-33.61-19.11-60.6-8.37-61.61,26.02Z"/>
            </g>
            <g>
              <path class="cls-2" d="M218.99,587.52c1.05-35.72-26.3-83.76-61.61-108.94v134.97c33.61,19.11,60.6,8.37,61.61-26.02Z"/>
              <path class="cls-2" d="M86.23,498.47c-1.05,35.72,26.3,83.76,61.61,108.94v-134.97c-33.61-19.11-60.6-8.37-61.61,26.02Z"/>
            </g>
          </g>
          <g>
            <path class="cls-2" d="M218.99,124.46c1.05-35.72-26.3-83.76-61.61-108.94v134.97c33.61,19.11,60.6,8.37,61.61-26.02Z"/>
            <path class="cls-2" d="M86.24,35.41c-1.05,35.72,26.3,83.76,61.61,108.94V9.39c-33.61-19.11-60.6-8.37-61.61,26.02Z"/>
          </g>
        </g>
      </g>
      <g>
        <path class="cls-2" d="M66.77,257.56l85.93-15.15v39.05l-35.19,6.21v37l31.34-5.53v37.12l-31.34,5.53v81.96l-50.74,8.95v-195.13Z"/>
        <path class="cls-2" d="M283.47,304.32l-50.74,8.95v-33.91c0-9.86-.54-15.92-1.63-18.17-1.08-2.25-3.48-3.06-7.17-2.4-4.18.74-6.83,2.69-7.95,5.86-1.13,3.17-1.69,9.7-1.69,19.58v90.63c0,9.48.56,15.57,1.69,18.26,1.12,2.69,3.66,3.69,7.59,3,3.78-.67,6.25-2.55,7.41-5.66,1.16-3.11,1.75-10.01,1.75-20.73v-24.53l50.74-8.95v7.6c0,20.2-1.43,34.77-4.28,43.72-2.85,8.95-9.16,17.47-18.92,25.55-9.76,8.08-21.8,13.38-36.1,15.9-14.87,2.62-27.12,2.09-36.76-1.59-9.64-3.68-16.03-10.01-19.16-18.98-3.13-8.97-4.7-23.01-4.7-42.14v-57.01c0-14.06.48-24.69,1.45-31.89.96-7.2,3.84-14.48,8.62-21.83,4.78-7.35,11.41-13.64,19.89-18.87,8.48-5.23,18.22-8.82,29.23-10.76,14.95-2.64,27.28-1.92,37,2.14,9.72,4.06,16.11,10.14,19.16,18.23,3.05,8.09,4.58,21.24,4.58,39.45v18.54Z"/>
        <path class="cls-2" d="M458.23,188.54v195.13l-44.35,7.82-.06-131.72-17.66,134.85-31.46,5.55-18.62-125.44-.06,128.73-44.35,7.82v-195.13l65.65-11.58c1.95,11.39,3.96,24.86,6.02,40.42l7.21,48.36,11.66-93.17,66.02-11.64Z"/>
        <path class="cls-2" d="M586.1,225.05l-47.12,8.31v-14.46c0-6.75-.6-10.94-1.81-12.58-1.21-1.63-3.21-2.21-6.03-1.71-3.05.54-5.36,2.19-6.93,4.96-1.57,2.77-2.35,6.69-2.35,11.75,0,6.51.88,11.26,2.64,14.25,1.68,3,6.46,6.14,14.34,9.4,22.59,9.42,36.81,17.92,42.68,25.48,5.86,7.56,8.8,20.91,8.8,40.03,0,13.9-1.63,24.43-4.88,31.59-3.25,7.16-9.54,13.8-18.86,19.9-9.32,6.1-20.17,10.25-32.54,12.43-13.58,2.39-25.17,1.87-34.77-1.58-9.6-3.45-15.89-8.89-18.86-16.32-2.97-7.43-4.46-18.46-4.46-33.08v-12.78l47.12-8.31v23.74c0,7.31.66,11.9,1.99,13.75,1.33,1.86,3.68,2.49,7.05,1.89,3.37-.59,5.88-2.36,7.53-5.31,1.65-2.94,2.47-7.02,2.47-12.25,0-11.49-1.57-18.73-4.7-21.71-3.21-2.97-11.13-7.48-23.74-13.53-12.62-6.13-20.97-10.72-25.07-13.78-4.1-3.05-7.49-7.68-10.18-13.87-2.69-6.19-4.04-14.47-4.04-24.84,0-14.94,1.91-26.21,5.72-33.79,3.82-7.58,9.98-14.07,18.5-19.47,8.52-5.4,18.8-9.16,30.85-11.29,13.18-2.32,24.41-2.17,33.69.45,9.28,2.62,15.43,6.9,18.44,12.84,3.01,5.94,4.52,16.66,4.52,32.17v7.71Z"/>
      </g>
    </g>
  </g>
</svg>