<?xml version="1.0" encoding="UTF-8"?>
<svg id="Layer_2" data-name="Layer 2" xmlns="http://www.w3.org/2000/svg" viewBox="0 0 767.55 462.66">
  <defs>
    <style>
      .cls-1 {
        fill: #231f20;
      }

      .cls-2 {
        fill: #fff;
      }
    </style>
  </defs>
  <g id="Layer_1-2" data-name="Layer 1">
    <g>
      <rect class="cls-1" width="767.55" height="462.66"/>
      <g>
        <path class="cls-2" d="M153.46,183.85v94.97h-24.7v-94.97h24.7Z"/>
        <path class="cls-2" d="M218.51,183.85v94.97h-21.64l-12.85-43.17v43.17h-20.65v-94.97h20.65l13.84,42.76v-42.76h20.65Z"/>
        <path class="cls-2" d="M278.16,183.85v19.01h-14.66v75.96h-24.7v-75.96h-14.61v-19.01h53.97Z"/>
        <path class="cls-2" d="M283.79,183.85h41.18v19.01h-16.48v18.01h15.43v18.07h-15.43v20.88h18.13v19.01h-42.82v-94.97Z"/>
        <path class="cls-2" d="M333.71,183.85h17.48c11.65,0,19.54.45,23.67,1.35,4.13.9,7.49,3.2,10.09,6.89,2.6,3.7,3.9,9.59,3.9,17.69,0,7.39-.92,12.36-2.76,14.9-1.84,2.54-5.46,4.07-10.85,4.58,4.89,1.21,8.17,2.84,9.85,4.87s2.73,3.9,3.14,5.6c.41,1.7.62,6.38.62,14.05v25.05h-22.94v-31.56c0-5.08-.4-8.23-1.2-9.44s-2.9-1.82-6.31-1.82v42.82h-24.7v-94.97ZM358.41,200.1v21.12c2.78,0,4.72-.38,5.84-1.14s1.67-3.24,1.67-7.42v-5.22c0-3.01-.54-4.99-1.61-5.92s-3.04-1.41-5.9-1.41Z"/>
        <path class="cls-2" d="M457.13,183.85l-12.57,94.97h-37.51l-14.27-94.97h26.04c3.03,26.16,5.19,48.29,6.48,66.4,1.28-18.3,2.63-34.55,4.06-48.74l1.71-17.66h26.04Z"/>
        <path class="cls-2" d="M485.99,183.85v94.97h-24.7v-94.97h24.7Z"/>
        <path class="cls-2" d="M495.9,183.85h41.18v19.01h-16.48v18.01h15.43v18.07h-15.43v20.88h18.13v19.01h-42.82v-94.97Z"/>
        <path class="cls-2" d="M638.79,183.85l-11,94.97h-30.83c-2.82-14.59-5.31-31.19-7.47-49.8-.99,7.98-3.28,24.58-6.89,49.8h-30.66l-11.05-94.97h23.99l2.61,33.14,2.52,32.03c.91-16.58,3.19-38.3,6.83-65.17h25.64c.34,2.78,1.24,13.22,2.69,31.32l2.73,36.13c1.4-22.99,3.7-45.47,6.89-67.46h23.99Z"/>
      </g>
    </g>
  </g>
</svg>