<?xml version="1.0" encoding="UTF-8"?>
<svg id="Layer_2" data-name="Layer 2" xmlns="http://www.w3.org/2000/svg" viewBox="0 0 729.66 393.64">
  <defs>
    <style>
      .cls-1 {
        fill: #e51e26;
      }
    </style>
  </defs>
  <g id="Layer_1-2" data-name="Layer 1">
    <g>
      <path class="cls-1" d="M0,121.7l119.76-21.12v54.42l-49.05,8.65v51.57l43.67-7.7v51.73l-43.67,7.7v114.22L0,393.64V121.7Z"/>
      <path class="cls-1" d="M302.01,186.86l-70.71,12.47v-47.26c0-13.74-.76-22.19-2.27-25.33-1.51-3.14-4.85-4.26-9.99-3.35-5.82,1.03-9.52,3.75-11.09,8.17-1.57,4.42-2.35,13.52-2.35,27.29v126.31c0,13.21.78,21.7,2.35,25.45,1.57,3.75,5.09,5.15,10.58,4.18,5.26-.93,8.71-3.55,10.33-7.88,1.62-4.33,2.44-13.96,2.44-28.89v-34.18l70.71-12.47v10.6c0,28.15-1.99,48.46-5.96,60.94-3.98,12.48-12.77,24.34-26.37,35.6-13.61,11.26-30.38,18.65-50.31,22.16-20.72,3.65-37.79,2.91-51.23-2.22-13.44-5.13-22.34-13.95-26.71-26.45-4.37-12.5-6.55-32.07-6.55-58.73v-79.45c0-19.59.67-34.41,2.02-44.45,1.34-10.03,5.35-20.18,12.01-30.42,6.66-10.25,15.9-19.01,27.72-26.3,11.81-7.29,25.39-12.29,40.73-14.99,20.83-3.67,38.02-2.68,51.57,2.99,13.55,5.66,22.45,14.13,26.71,25.4,4.26,11.27,6.38,29.6,6.38,54.98v25.83Z"/>
      <path class="cls-1" d="M545.57,25.5v271.94l-61.81,10.9-.08-183.58-24.61,187.93-43.84,7.73-25.95-174.82-.08,179.41-61.81,10.9V63.97l91.5-16.13c2.71,15.87,5.51,34.65,8.39,56.33l10.04,67.4,16.25-129.85,92.01-16.22Z"/>
      <path class="cls-1" d="M723.78,76.38l-65.68,11.58v-20.16c0-9.41-.84-15.25-2.52-17.53-1.68-2.28-4.48-3.07-8.4-2.38-4.26.75-7.47,3.06-9.66,6.91-2.18,3.86-3.28,9.32-3.28,16.38,0,9.08,1.23,15.7,3.68,19.86,2.34,4.18,9,8.55,19.98,13.1,31.48,13.13,51.3,24.97,59.48,35.51,8.17,10.54,12.26,29.14,12.26,55.79,0,19.37-2.27,34.05-6.8,44.03-4.54,9.98-13.3,19.23-26.29,27.73-12.99,8.51-28.11,14.28-45.35,17.32-18.93,3.34-35.08,2.6-48.46-2.21-13.38-4.81-22.15-12.39-26.29-22.74-4.14-10.36-6.22-25.72-6.22-46.1v-17.8l65.68-11.58v33.09c0,10.19.92,16.58,2.77,19.16,1.85,2.59,5.12,3.46,9.83,2.63,4.7-.83,8.2-3.29,10.5-7.39,2.29-4.1,3.44-9.79,3.44-17.07,0-16.01-2.18-26.1-6.55-30.25-4.48-4.14-15.51-10.42-33.09-18.86-17.58-8.54-29.23-14.95-34.94-19.2-5.71-4.26-10.44-10.7-14.19-19.33-3.75-8.63-5.63-20.17-5.63-34.62,0-20.83,2.66-36.52,7.98-47.09,5.32-10.57,13.91-19.61,25.78-27.14,11.87-7.52,26.2-12.77,43-15.73,18.36-3.24,34.01-3.03,46.95.62,12.93,3.66,21.5,9.62,25.7,17.89,4.2,8.28,6.3,23.22,6.3,44.83v10.75Z"/>
    </g>
  </g>
</svg>