<?xml version="1.0" encoding="UTF-8"?>
<svg id="Layer_2" data-name="Layer 2" xmlns="http://www.w3.org/2000/svg" viewBox="0 0 517.77 546.15">
  <defs>
    <style>
      .cls-1 {
        fill: #f499bd;
      }

      .cls-2 {
        fill: #e51e26;
      }
    </style>
  </defs>
  <g id="Layer_1-2" data-name="Layer 1">
    <g>
      <g>
        <polygon class="cls-1" points="142.43 546.15 471.64 546.15 375.34 0 46.13 0 142.43 546.15"/>
        <g>
          <g>
            <path class="cls-2" d="M254.75,166.75h27.1v12.32h-11.1v11.67h9.88v11.71h-9.88v25.85h-16v-61.54Z"/>
            <path class="cls-2" d="M320.44,177.85v50.44h-15.62l.27-4.19c-1.06,1.7-2.38,2.98-3.93,3.83s-3.35,1.28-5.38,1.28c-2.31,0-4.22-.41-5.74-1.22-1.52-.81-2.64-1.89-3.36-3.23-.72-1.34-1.17-2.74-1.35-4.2-.18-1.46-.27-4.35-.27-8.69v-34.02h15.36v34.33c0,3.93.12,6.26.36,6.99.24.74.89,1.1,1.96,1.1,1.14,0,1.82-.38,2.03-1.14.21-.76.32-3.21.32-7.34v-33.95h15.36Z"/>
            <path class="cls-2" d="M349.86,177.85v11.18l-11.33,29.16h11.33v10.11h-26.19v-10.57l11.57-29.76h-10.39v-10.11h25.01Z"/>
            <path class="cls-2" d="M378.59,177.85v11.18l-11.33,29.16h11.33v10.11h-26.19v-10.57l11.56-29.76h-10.39v-10.11h25.01Z"/>
            <path class="cls-2" d="M190.97,256.69h-16v-10.7c0-3.11-.17-5.05-.51-5.82-.34-.77-1.1-1.16-2.26-1.16-1.32,0-2.15.47-2.51,1.41-.36.94-.53,2.97-.53,6.08v28.59c0,2.99.18,4.94.53,5.85.35.91,1.15,1.37,2.39,1.37s1.97-.46,2.34-1.37c.37-.91.55-3.06.55-6.44v-7.74h16v2.4c0,6.37-.45,10.89-1.35,13.55-.9,2.67-2.89,5-5.97,7.01-3.08,2-6.87,3.01-11.39,3.01s-8.55-.85-11.59-2.55c-3.04-1.7-5.06-4.05-6.04-7.05-.99-3-1.48-7.52-1.48-13.55v-17.98c0-4.43.15-7.76.46-9.98.3-2.22,1.21-4.35,2.72-6.4,1.51-2.05,3.6-3.67,6.27-4.85,2.67-1.18,5.75-1.77,9.22-1.77,4.71,0,8.6.91,11.67,2.73,3.07,1.82,5.08,4.09,6.04,6.81.96,2.72,1.44,6.95,1.44,12.7v5.85Z"/>
            <path class="cls-2" d="M211.61,229.89v13.85c1.32-1.22,2.74-2.13,4.28-2.74,1.53-.61,3.17-.91,4.92-.91,2.69,0,4.97.68,6.86,2.05,1.89,1.37,3.04,2.95,3.46,4.73s.63,5.05.63,9.79v34.78h-15.36v-35.5c0-2.94-.15-4.83-.44-5.66s-.94-1.25-1.96-1.25c-.94,0-1.57.43-1.9,1.29-.33.86-.49,2.57-.49,5.13v36h-15.36v-61.54h15.36Z"/>
            <path class="cls-2" d="M271.78,258.7v12.35c0,4.54-.23,7.86-.68,9.98-.46,2.12-1.43,4.09-2.93,5.93-1.5,1.84-3.42,3.19-5.76,4.07-2.34.87-5.04,1.31-8.08,1.31-3.4,0-6.27-.37-8.63-1.12-2.36-.75-4.19-1.88-5.49-3.38-1.31-1.51-2.24-3.33-2.79-5.47-.56-2.14-.84-5.35-.84-9.64v-12.92c0-4.69.51-8.35,1.52-10.99,1.01-2.64,2.84-4.75,5.47-6.35,2.64-1.6,6.01-2.39,10.11-2.39,3.45,0,6.4.51,8.88,1.54,2.47,1.03,4.38,2.36,5.72,4.01,1.34,1.65,2.26,3.35,2.76,5.09.49,1.75.74,4.41.74,7.98ZM256.42,254.9c0-2.58-.14-4.21-.42-4.88-.28-.67-.87-1.01-1.79-1.01s-1.52.34-1.82,1.01c-.3.67-.46,2.3-.46,4.88v22.77c0,2.38.15,3.93.46,4.66.3.72.9,1.08,1.79,1.08s1.51-.33,1.81-.99c.29-.66.44-2.08.44-4.26v-23.26Z"/>
            <path class="cls-2" d="M292.19,240.99l-.61,6.63c2.23-4.75,5.46-7.27,9.69-7.55v17.75c-2.81,0-4.88.38-6.2,1.14-1.32.76-2.13,1.82-2.43,3.17-.3,1.36-.46,4.48-.46,9.37v19.92h-15.36v-50.44h15.36Z"/>
            <path class="cls-2" d="M339.86,240.99v50.44h-15.62l.27-4.19c-1.06,1.7-2.38,2.98-3.93,3.83s-3.35,1.28-5.38,1.28c-2.31,0-4.22-.41-5.74-1.22-1.52-.81-2.64-1.89-3.36-3.23-.72-1.34-1.17-2.74-1.35-4.2-.18-1.46-.27-4.35-.27-8.69v-34.02h15.36v34.33c0,3.93.12,6.26.36,6.99.24.73.89,1.1,1.96,1.1,1.14,0,1.82-.38,2.03-1.14.21-.76.32-3.21.32-7.34v-33.95h15.36Z"/>
            <path class="cls-2" d="M376.73,257.11h-13.61v-2.74c0-2.33-.13-3.81-.4-4.43-.27-.62-.93-.93-2-.93-.86,0-1.51.29-1.94.86-.43.57-.65,1.43-.65,2.57,0,1.55.11,2.68.32,3.4.21.72.86,1.51,1.94,2.38,1.08.86,3.29,2.12,6.63,3.76,4.46,2.18,7.39,4.23,8.78,6.16,1.39,1.93,2.09,4.73,2.09,8.4,0,4.1-.53,7.2-1.6,9.29-1.06,2.09-2.84,3.7-5.34,4.83-2.5,1.13-5.51,1.69-9.03,1.69-3.9,0-7.24-.61-10.02-1.82s-4.68-2.86-5.72-4.94c-1.04-2.08-1.56-5.22-1.56-9.43v-2.43h13.61v3.19c0,2.71.17,4.47.51,5.28.34.81,1.02,1.22,2.03,1.22,1.09,0,1.85-.27,2.28-.82.43-.54.65-1.69.65-3.44,0-2.41-.28-3.92-.84-4.52-.58-.61-3.56-2.41-8.93-5.4-4.51-2.53-7.26-4.83-8.25-6.9-.99-2.06-1.48-4.52-1.48-7.36,0-4.03.53-7,1.6-8.91,1.06-1.91,2.87-3.39,5.42-4.43,2.55-1.04,5.51-1.56,8.88-1.56s6.19.42,8.53,1.27c2.34.85,4.14,1.97,5.4,3.36,1.25,1.39,2.01,2.69,2.28,3.88.27,1.19.4,3.05.4,5.59v2.93Z"/>
            <path class="cls-2" d="M100.99,293.02v61.54h-13.99l-.02-41.55-5.57,41.55h-9.92l-5.87-40.6-.02,40.6h-13.99v-61.54h20.71c.61,3.7,1.25,8.06,1.9,13.08l2.27,15.65,3.68-28.74h20.82Z"/>
            <path class="cls-2" d="M142.12,304.12v50.44h-15.62l.27-4.19c-1.06,1.7-2.38,2.98-3.93,3.83s-3.35,1.28-5.38,1.28c-2.31,0-4.22-.41-5.74-1.22-1.52-.81-2.64-1.89-3.36-3.23-.72-1.34-1.17-2.74-1.35-4.2-.18-1.46-.27-4.35-.27-8.69v-34.02h15.36v34.33c0,3.93.12,6.26.36,6.99.24.73.89,1.1,1.96,1.1,1.14,0,1.82-.38,2.03-1.14.21-.76.32-3.21.32-7.34v-33.95h15.36Z"/>
            <path class="cls-2" d="M178.99,320.24h-13.61v-2.74c0-2.33-.13-3.81-.4-4.43s-.93-.93-2-.93c-.86,0-1.51.29-1.94.85-.43.57-.65,1.43-.65,2.57,0,1.55.11,2.68.32,3.4.22.72.86,1.51,1.94,2.38,1.08.86,3.29,2.12,6.63,3.76,4.46,2.18,7.39,4.23,8.78,6.16,1.39,1.93,2.09,4.73,2.09,8.4,0,4.1-.53,7.2-1.6,9.29s-2.85,3.7-5.34,4.83c-2.5,1.13-5.51,1.69-9.03,1.69-3.9,0-7.24-.61-10.02-1.82-2.77-1.22-4.68-2.86-5.72-4.94-1.04-2.08-1.56-5.22-1.56-9.43v-2.43h13.61v3.19c0,2.71.17,4.47.51,5.28.34.81,1.02,1.22,2.03,1.22,1.09,0,1.85-.27,2.28-.82.43-.54.65-1.69.65-3.44,0-2.41-.28-3.92-.84-4.52-.58-.61-3.56-2.41-8.93-5.4-4.51-2.53-7.26-4.83-8.25-6.9-.99-2.07-1.48-4.52-1.48-7.36,0-4.03.53-7,1.6-8.91,1.06-1.91,2.87-3.39,5.42-4.43,2.55-1.04,5.5-1.56,8.88-1.56s6.19.42,8.53,1.27c2.34.85,4.14,1.97,5.4,3.36,1.25,1.39,2.01,2.69,2.28,3.88.27,1.19.4,3.05.4,5.59v2.93Z"/>
            <path class="cls-2" d="M200.09,293.02v8.02h-15.81v-8.02h15.81ZM200.09,304.12v50.44h-15.81v-50.44h15.81Z"/>
            <path class="cls-2" d="M239.55,323.17h-14.48v-5.82c0-2.03-.16-3.4-.49-4.12-.33-.72-.94-1.08-1.82-1.08s-1.48.32-1.79.95c-.3.63-.46,2.05-.46,4.26v23.8c0,1.8.23,3.15.68,4.05.46.9,1.13,1.35,2.01,1.35,1.04,0,1.74-.47,2.11-1.41s.55-2.71.55-5.32v-6.01h13.68c-.03,4.03-.17,7.05-.44,9.07-.27,2.01-1.12,4.08-2.55,6.2-1.43,2.12-3.3,3.71-5.61,4.79-2.31,1.08-5.16,1.62-8.55,1.62-4.33,0-7.77-.74-10.3-2.22-2.53-1.48-4.33-3.56-5.38-6.23-1.05-2.67-1.58-6.47-1.58-11.39v-14.33c0-4.28.43-7.51,1.29-9.69.86-2.18,2.7-4.12,5.51-5.84s6.23-2.57,10.26-2.57,7.42.85,10.26,2.55c2.84,1.7,4.73,3.84,5.66,6.42.94,2.59,1.41,6.25,1.41,10.99Z"/>
            <path class="cls-2" d="M259.92,293.02v8.02h-15.81v-8.02h15.81ZM259.92,304.12v50.44h-15.81v-50.44h15.81Z"/>
            <path class="cls-2" d="M279.15,323.66h-14.41v-3.38c0-3.9.45-6.91,1.35-9.03.9-2.11,2.71-3.98,5.42-5.61,2.71-1.62,6.23-2.43,10.57-2.43,5.19,0,9.11.92,11.75,2.76,2.64,1.84,4.22,4.09,4.75,6.77.53,2.67.8,8.18.8,16.52v25.32h-14.94v-4.5c-.94,1.8-2.15,3.16-3.63,4.06-1.48.9-3.25,1.35-5.3,1.35-2.69,0-5.15-.75-7.39-2.26-2.24-1.51-3.36-4.81-3.36-9.9v-4.14c0-3.78.59-6.35,1.79-7.72,1.19-1.37,4.14-2.96,8.86-4.79,5.04-1.98,7.74-3.31,8.1-3.99.35-.68.53-2.08.53-4.18,0-2.64-.2-4.35-.59-5.15-.39-.8-1.05-1.2-1.96-1.2-1.04,0-1.69.34-1.94,1.01-.25.67-.38,2.41-.38,5.23v5.28ZM284.02,330.58c-2.46,1.8-3.88,3.31-4.28,4.52-.39,1.22-.59,2.97-.59,5.25,0,2.61.17,4.3.51,5.06.34.76,1.02,1.14,2.03,1.14s1.59-.3,1.88-.89c.29-.59.44-2.16.44-4.69v-10.38Z"/>
            <path class="cls-2" d="M320.28,304.12l-.27,4.65c1.11-1.85,2.48-3.24,4.09-4.17,1.61-.93,3.46-1.39,5.57-1.39,2.64,0,4.79.62,6.46,1.86,1.67,1.24,2.75,2.81,3.23,4.69s.72,5.04.72,9.45v35.35h-15.36v-34.93c0-3.47-.11-5.59-.34-6.35-.23-.76-.86-1.14-1.9-1.14-1.09,0-1.77.44-2.05,1.31-.28.87-.42,3.21-.42,7.01v34.1h-15.36v-50.44h15.62Z"/>
            <path class="cls-2" d="M376.73,320.24h-13.61v-2.74c0-2.33-.13-3.81-.4-4.43s-.93-.93-2-.93c-.86,0-1.51.29-1.94.85-.43.57-.65,1.43-.65,2.57,0,1.55.11,2.68.32,3.4.21.72.86,1.51,1.94,2.38,1.08.86,3.29,2.12,6.63,3.76,4.46,2.18,7.39,4.23,8.78,6.16,1.39,1.93,2.09,4.73,2.09,8.4,0,4.1-.53,7.2-1.6,9.29s-2.84,3.7-5.34,4.83c-2.5,1.13-5.51,1.69-9.03,1.69-3.9,0-7.24-.61-10.02-1.82-2.78-1.22-4.68-2.86-5.72-4.94-1.04-2.08-1.56-5.22-1.56-9.43v-2.43h13.61v3.19c0,2.71.17,4.47.51,5.28.34.81,1.02,1.22,2.03,1.22,1.09,0,1.85-.27,2.28-.82.43-.54.65-1.69.65-3.44,0-2.41-.28-3.92-.84-4.52-.58-.61-3.56-2.41-8.93-5.4-4.51-2.53-7.26-4.83-8.25-6.9-.99-2.07-1.48-4.52-1.48-7.36,0-4.03.53-7,1.6-8.91,1.06-1.91,2.87-3.39,5.42-4.43,2.55-1.04,5.51-1.56,8.88-1.56s6.19.42,8.53,1.27c2.34.85,4.14,1.97,5.4,3.36,1.25,1.39,2.01,2.69,2.28,3.88.27,1.19.4,3.05.4,5.59v2.93Z"/>
            <path class="cls-2" d="M176.52,374.78h-14.86v-4.56c0-2.13-.19-3.48-.57-4.07-.38-.58-1.01-.87-1.9-.87-.96,0-1.69.39-2.19,1.18-.49.79-.74,1.98-.74,3.58,0,2.05.28,3.6.83,4.64.53,1.04,2.04,2.29,4.52,3.76,7.12,4.23,11.61,7.7,13.46,10.41,1.85,2.71,2.78,7.08,2.78,13.11,0,4.38-.51,7.62-1.54,9.69-1.03,2.08-3.01,3.82-5.95,5.23-2.94,1.41-6.36,2.11-10.26,2.11-4.28,0-7.94-.81-10.97-2.43-3.03-1.62-5.01-3.69-5.95-6.2-.94-2.51-1.41-6.07-1.41-10.68v-4.03h14.86v7.49c0,2.31.21,3.79.63,4.45.42.66,1.16.99,2.22.99s1.86-.42,2.38-1.25c.52-.84.78-2.08.78-3.72,0-3.62-.49-5.99-1.48-7.11-1.01-1.11-3.51-2.98-7.49-5.59-3.98-2.64-6.61-4.55-7.91-5.74-1.29-1.19-2.36-2.84-3.21-4.94-.85-2.1-1.27-4.79-1.27-8.06,0-4.71.6-8.16,1.81-10.34,1.2-2.18,3.15-3.88,5.83-5.11,2.69-1.23,5.93-1.84,9.73-1.84,4.16,0,7.7.67,10.62,2.01,2.93,1.34,4.87,3.04,5.82,5.07.95,2.04,1.43,5.51,1.43,10.4v2.43Z"/>
            <path class="cls-2" d="M217.16,384.97v12.35c0,4.54-.23,7.86-.68,9.98-.46,2.12-1.43,4.09-2.93,5.93-1.5,1.84-3.42,3.19-5.76,4.07-2.34.87-5.04,1.31-8.08,1.31-3.4,0-6.27-.37-8.63-1.12-2.36-.75-4.19-1.88-5.49-3.38-1.31-1.51-2.24-3.33-2.79-5.47-.56-2.14-.84-5.35-.84-9.64v-12.92c0-4.69.51-8.35,1.52-10.99,1.01-2.64,2.84-4.75,5.47-6.35,2.64-1.6,6.01-2.4,10.11-2.4,3.45,0,6.4.51,8.88,1.54,2.47,1.03,4.38,2.36,5.72,4.01,1.34,1.65,2.26,3.35,2.76,5.09.49,1.75.74,4.41.74,7.98ZM201.8,381.17c0-2.59-.14-4.21-.42-4.88-.28-.67-.87-1.01-1.79-1.01s-1.52.34-1.82,1.01-.46,2.3-.46,4.88v22.77c0,2.38.15,3.93.46,4.66.3.72.9,1.08,1.79,1.08s1.51-.33,1.81-.99c.29-.66.44-2.08.44-4.26v-23.26Z"/>
            <path class="cls-2" d="M256.16,386.3h-14.48v-5.82c0-2.03-.16-3.4-.49-4.12-.33-.72-.94-1.08-1.82-1.08s-1.48.32-1.79.95c-.3.63-.46,2.05-.46,4.26v23.8c0,1.8.23,3.15.68,4.05.46.9,1.13,1.35,2.01,1.35,1.04,0,1.74-.47,2.11-1.41.37-.94.55-2.71.55-5.32v-6.01h13.68c-.03,4.03-.17,7.05-.44,9.07-.27,2.01-1.12,4.08-2.55,6.2-1.43,2.12-3.3,3.71-5.61,4.79-2.31,1.08-5.16,1.62-8.55,1.62-4.33,0-7.77-.74-10.3-2.22-2.53-1.48-4.33-3.56-5.38-6.23-1.05-2.67-1.58-6.47-1.58-11.39v-14.33c0-4.28.43-7.51,1.29-9.69.86-2.18,2.7-4.12,5.51-5.84,2.81-1.71,6.23-2.57,10.26-2.57s7.42.85,10.26,2.55c2.84,1.7,4.73,3.84,5.66,6.42.94,2.59,1.41,6.25,1.41,10.99Z"/>
            <path class="cls-2" d="M276.53,356.16v8.02h-15.81v-8.02h15.81ZM276.53,367.26v50.44h-15.81v-50.44h15.81Z"/>
            <path class="cls-2" d="M316.82,393.37h-19.88v10.91c0,2.28.16,3.75.49,4.41.33.66.96.99,1.9.99,1.17,0,1.94-.44,2.34-1.31.39-.87.59-2.57.59-5.07v-6.65h14.56v3.72c0,3.12-.2,5.51-.59,7.18-.39,1.67-1.31,3.46-2.76,5.36-1.44,1.9-3.28,3.33-5.49,4.28-2.22.95-5,1.43-8.34,1.43s-6.11-.47-8.59-1.41c-2.48-.94-4.42-2.22-5.8-3.86-1.38-1.63-2.34-3.43-2.87-5.4-.53-1.96-.8-4.82-.8-8.57v-14.71c0-4.41.6-7.89,1.79-10.43,1.19-2.55,3.14-4.5,5.85-5.85,2.71-1.35,5.83-2.03,9.35-2.03,4.31,0,7.86.82,10.66,2.45,2.8,1.63,4.76,3.8,5.89,6.5,1.13,2.7,1.69,6.49,1.69,11.38v6.69ZM301.43,385.16v-3.69c0-2.61-.14-4.3-.42-5.06-.28-.76-.85-1.14-1.71-1.14-1.06,0-1.72.32-1.98.97-.25.65-.38,2.39-.38,5.23v3.69h4.49Z"/>
            <path class="cls-2" d="M338.04,360.53v7.95h4.14v7.98h-4.14v26.99c0,3.32.17,5.17.51,5.55.34.38,1.77.57,4.28.57v8.13h-6.2c-3.5,0-5.99-.15-7.49-.44-1.49-.29-2.81-.96-3.95-2.01-1.14-1.05-1.85-2.26-2.13-3.61-.28-1.35-.42-4.54-.42-9.56v-25.62h-3.31v-7.98h3.31v-7.95h15.39Z"/>
            <path class="cls-2" d="M379.27,367.26l-4.39,36.49c-.69,5.78-1.28,9.72-1.74,11.82-.47,2.1-1.25,3.84-2.34,5.21-1.09,1.37-2.6,2.38-4.54,3.02-1.94.65-5.04.97-9.29.97h-9.31v-8.06c2.39,0,3.92-.12,4.61-.36.69-.24,1.03-.78,1.03-1.61,0-.41-.32-2.17-.95-5.28l-8.41-42.19h13.94l5.05,34.06,2.46-34.06h13.89Z"/>
          </g>
          <g>
            <g>
              <path class="cls-2" d="M414.32,182.02c29.69.87,69.62-21.86,90.55-51.21h-112.18c-15.88,27.93-6.96,50.37,21.63,51.21Z"/>
              <path class="cls-2" d="M488.33,71.68c-29.69-.87-69.62,21.86-90.55,51.21h112.18c15.88-27.93,6.96-50.37-21.63-51.21Z"/>
            </g>
            <g>
              <path class="cls-2" d="M488.33,169.16c-29.69-.87-69.62,21.86-90.55,51.21h112.18c15.88-27.93,6.96-50.37-21.63-51.21Z"/>
              <path class="cls-2" d="M414.32,279.51c29.69.87,69.62-21.86,90.55-51.21h-112.18c-15.88,27.93-6.96,50.37,21.63,51.21Z"/>
            </g>
            <g>
              <path class="cls-2" d="M488.33,266.65c-29.69-.87-69.62,21.86-90.55,51.21h112.18c15.88-27.93,6.96-50.37-21.63-51.21Z"/>
              <path class="cls-2" d="M414.32,376.99c29.69.87,69.62-21.86,90.55-51.21h-112.18c-15.88,27.93-6.96,50.37,21.63,51.21Z"/>
            </g>
            <g>
              <path class="cls-2" d="M488.33,364.13c-29.69-.87-69.62,21.86-90.55,51.21h112.18c15.88-27.93,6.96-50.37-21.63-51.21Z"/>
              <path class="cls-2" d="M414.32,474.48c29.69.87,69.62-21.86,90.55-51.21h-112.18c-15.88,27.93-6.96,50.37,21.63,51.21Z"/>
            </g>
          </g>
          <g>
            <path class="cls-2" d="M103.45,364.13c-29.69-.87-69.62,21.86-90.55,51.21h112.18c15.88-27.93,6.96-50.37-21.63-51.21Z"/>
            <path class="cls-2" d="M29.43,474.48c29.69.87,69.62-21.86,90.55-51.21H7.8c-15.88,27.93-6.96,50.37,21.63,51.21Z"/>
          </g>
        </g>
      </g>
      <g>
        <path class="cls-2" d="M147.06,445.64l-2.67-1.85c-.32-.22-.89-.58-1.7-1.06-.22-.12-.53-.3-.91-.55l1.79-2.34,2.58,1.34c.69.39,1.59.96,2.7,1.73l-1.79,2.73ZM149.76,449.28c-.34.75-.62,1.36-.82,1.82-1.56,3.36-3.12,6.03-4.67,8.01l-2.31-2.49c1.58-1.96,3.12-4.52,4.61-7.68.2-.45.48-1.01.82-1.7l2.37,2.03ZM148.49,437.57l-2.67-1.88c-.69-.47-1.57-1.01-2.64-1.64l1.76-2.4,2.67,1.43c.42.22,1.13.66,2.12,1.31.14.1.34.23.61.39l-1.85,2.79ZM149.67,446.16v-2.73h7.83v-5.25h-6.25v-2.67h6.25v-4.13h2.94v4.13h7.86v2.67h-7.86v5.25h8.95v2.73h-9.29c-1.23,3.26-2.59,6.08-4.07,8.47.59-.06,1.07-.1,1.46-.12,2.93-.24,5.2-.54,6.8-.88l-1.24-2.19-1.52-2.52,2.52-1.03c1.62,2.19,3.35,5.15,5.19,8.89.12.26.28.59.49.97l-2.91,1.4-.64-1.46c-.24-.61-.49-1.11-.73-1.52-4.15.77-9.34,1.36-15.57,1.76l-.73-3.19,1.97.03,1.24-.06c1.84-2.87,3.35-5.73,4.52-8.56h-7.22Z"/>
        <path class="cls-2" d="M200.78,448.98c-.14.4-.25.74-.33,1-1.23,3.7-2.49,6.74-3.76,9.11l-2.37-2.22c1.4-2.29,2.69-5.44,3.88-9.47l2.58,1.58ZM199.6,444.73c-1.11-.85-2.52-1.79-4.22-2.82-.22-.12-.52-.3-.88-.55l1.67-2.28c1.64.77,3.34,1.77,5.1,3.01l-1.67,2.64ZM200.02,437.08c-.3-.22-.55-.4-.73-.55-1.72-1.27-3.13-2.19-4.22-2.73l1.7-2.34,2.64,1.49c.61.3,1.4.79,2.37,1.46l-1.76,2.67ZM211.71,457.66l.18.91-2.79.55-.18-1.15-.18-1.09c-.91.22-2.23.43-3.95.64l-4.58.52-.46-2.73,1.06.03.88-.06c1.01-1.25,1.83-2.38,2.46-3.37l1.88-3.01-2.34.24-2.22.21-.61-2.58h.88l.36-.73c1.34-2.53,2.34-5.01,3.01-7.43l2.76.61c-.57,1.92-1.53,4.21-2.88,6.86l-.3.61,1.46-.09,1-.12c.36-.63.67-1.27.91-1.94l.7-1.88,2.79.94c-1.82,4.13-4.06,7.98-6.71,11.56.26-.02.66-.04,1.2-.06.54-.02,1.28-.16,2.23-.43-.06-.32-.14-.66-.24-1l-.43-1.24,2.55-.52c.22.44.43,1.03.61,1.76l.39,1.58.61-.03c.32-.4.59-.73.79-.97,1.34-1.62,2.55-3.32,3.64-5.1l-2.88.27-2.34.15-.42-2.61h.94c1.5-2.19,2.73-4.96,3.7-8.32l2.82.73c-.2.51-.36.92-.49,1.24-.83,2.06-1.82,4.15-2.97,6.25l1.55-.06,1.27-.09c.12-.24.22-.43.3-.58.3-.59.5-.98.58-1.18l.91-2.22,2.64,1.12c-2.31,5.1-4.59,8.85-6.86,11.26.91-.06,1.61-.12,2.09-.18l1.61-.24-.24-.97c-.1-.44-.2-.78-.3-1l-.09-.18,2.55-.58c.63,1.54,1.13,3.39,1.52,5.55.06.28.13.65.21,1.09l-2.76.55-.18-1.09-.18-1.12-3.46.4-4.01.33ZM206.76,435.83l-.82-1.76c-.2-.42-.55-1-1.03-1.73l2.79-.94c.81,1.32,1.44,2.67,1.88,4.07.04.1.09.22.15.36h3.76c.51-1.01.97-2.3,1.4-3.85.04-.18.1-.42.18-.7l2.97.79-.67,1.94c-.2.55-.4,1.05-.61,1.52l-.15.3h5.61v2.61h-20.85v-2.61h5.37Z"/>
        <path class="cls-2" d="M256.56,439.2h5.04v2.52h-5.04v.64l2.79,2.52,2.58,2.43-1.61,2.7-1.91-2.28c-.45-.51-1.06-1.12-1.85-1.85v13.26h-2.73v-12.5c-1.44,2.65-3.22,4.99-5.34,7.01l-1.61-2.76c2.83-2.43,5.09-5.48,6.77-9.17h-6.28v-2.52h6.47v-3.88c-.79.14-1.53.24-2.22.3l-2.79.21-.64-2.49c5.16-.32,9.11-1.02,11.87-2.09l1.15,2.34c-1.27.55-2.82,1-4.64,1.37v4.25ZM262.78,458.39v-25.22h11.47v24.86h-2.76v-2.4h-5.95v2.76h-2.76ZM271.5,435.77h-5.95v17.33h5.95v-17.33Z"/>
        <path class="cls-2" d="M312.83,443.49c.26-.02.75-.05,1.47-.09s1.59-.21,2.63-.52l-1.37-.88c-.42-.26-.81-.54-1.15-.82-.06-.06-.15-.14-.27-.24l1.64-1.09c.67.53,1.3.94,1.91,1.24l1.67.82c.89-.45,1.67-1.05,2.34-1.82.04-.06.11-.14.21-.24h-8.68v-1.79h11.87v1.4c-.87,1.3-1.95,2.4-3.25,3.31.3.06.55.11.73.15,1.21.26,2.37.43,3.46.52.18,0,.42.02.7.06l-.88,2.06c-2.61-.3-4.73-.77-6.37-1.4-1.4.61-3.03,1.01-4.89,1.21-.28.02-.66.06-1.12.12l-.76-1.67h-9.8l-.18.97c-.04.28-.09.52-.15.7,0,.04-.03.1-.09.18h23.55v2.12h-3.73v7.19l1.79-.06,2.49-.09v2.09l-2.09.09-2.19.09v2.03h-2.73v-1.97c-4.25.14-7.3.21-9.17.21l-10.9.12-.39-2.25,2.43.03h2.31v-7.5h-2.34l-.21.3-.49.58-1.97-1.52c1.17-1.56,1.76-3.67,1.76-6.34v-2.25h12.23v4.92ZM308.01,431.22v1.4h5.46v1.82h-5.46v1.24h4.64v1.73h-12.41v-1.73h5.31v-1.24h-6.28v-1.82h6.28v-1.4h2.46ZM305.49,440.3h-2.46v1.79h2.46v-1.79ZM319.57,447.8h-12.99v1.27h12.99v-1.27ZM306.58,452.08h12.99v-1.34h-12.99v1.34ZM313.1,455.23c2.43,0,4.58-.06,6.47-.18v-1.28h-12.99v1.52l6.53-.06ZM310.4,440.3h-2.61v1.79h2.61v-1.79ZM323.3,434.47c0,.51.25.76.76.76h2.25v1.85h-3.31c-1.38,0-2.06-.64-2.06-1.91v-1.22h-3.79c0,1.17-.21,2.04-.64,2.61-.43.57-1.12,1.06-2.09,1.49l-1.4-1.58c.73-.3,1.24-.65,1.53-1.05.29-.39.44-1.24.44-2.53v-.67c0-.06,0-.14-.03-.24h8.35v2.49Z"/>
        <path class="cls-2" d="M356.75,435.84l-.82-2-1-2.16,2.76-.42c.34.63.67,1.39.97,2.28l.82,2.31h3.95v2.64c-.18.34-.33.63-.46.85-.71,1.38-1.5,2.66-2.37,3.86-.18.24-.42.56-.7.94.34.28.62.51.82.67,1.38,1.13,2.56,2.16,3.55,3.07.2.2.48.45.82.76l-1.76,2.16-.3-.3c-.55-.55-1.09-1.06-1.64-1.55l-2.06-1.82v12.05h-2.88v-11.02l-.55.55c-.91.87-1.83,1.64-2.76,2.31-.18.12-.42.29-.73.52l-1.09-2.82c1.78-1.3,3.29-2.6,4.54-3.9,1.25-1.3,2.74-3.38,4.48-6.24h-8.77v-2.7h5.19ZM362.33,458.14v-2.79h7.62v-13.96h-5.74v-2.79h5.74v-6.98h2.94v6.98h5.86v2.79h-5.86v13.96h6.37v2.79h-16.94Z"/>
      </g>
    </g>
  </g>
</svg>