<?xml version="1.0" encoding="UTF-8"?>
<svg id="Layer_2" data-name="Layer 2" xmlns="http://www.w3.org/2000/svg" viewBox="0 0 765.24 800.29">
  <defs>
    <style>
      .cls-1 {
        fill: #90caee;
      }

      .cls-2 {
        fill: #2d54a5;
      }
    </style>
  </defs>
  <g id="Layer_1-2" data-name="Layer 1">
    <g>
      <polygon class="cls-1" points="211.98 800.29 694.37 800.29 553.26 0 70.87 0 211.98 800.29"/>
      <g>
        <path class="cls-2" d="M748.17,430.08c-30.95,46.15-93.46,82.46-139.61,81.1-46.15-1.36-58.47-39.87-27.51-86.03,30.95-46.15,93.46-82.46,139.61-81.1,46.15,1.36,58.47,39.87,27.51,86.03Z"/>
        <path class="cls-2" d="M748.17,285.01c-30.95,46.15-93.46,82.46-139.61,81.1-46.15-1.36-58.47-39.87-27.51-86.03,30.95-46.15,93.46-82.46,139.61-81.1,46.15,1.36,58.47,39.87,27.51,86.03Z"/>
        <path class="cls-2" d="M748.17,571.02c-30.95,46.15-93.46,82.46-139.61,81.1-46.15-1.36-58.47-39.87-27.51-86.03,30.95-46.15,93.46-82.46,139.61-81.1,46.15,1.36,58.47,39.87,27.51,86.03Z"/>
        <path class="cls-2" d="M184.19,571.02c-30.95,46.15-93.46,82.46-139.61,81.1s-58.47-39.87-27.51-86.03c30.95-46.15,93.46-82.46,139.61-81.1,46.15,1.36,58.47,39.87,27.51,86.03Z"/>
        <path class="cls-2" d="M748.17,142.88c-30.95,46.15-93.46,82.46-139.61,81.1-46.15-1.36-58.47-39.87-27.51-86.03s93.46-82.46,139.61-81.1c46.15,1.36,58.47,39.87,27.51,86.03Z"/>
      </g>
    </g>
  </g>
</svg>