<?xml version="1.0" encoding="UTF-8"?>
<svg id="Layer_2" data-name="Layer 2" xmlns="http://www.w3.org/2000/svg" viewBox="0 0 571.69 444.8">
  <defs>
    <style>
      .cls-1 {
        fill: #fff;
      }
    </style>
  </defs>
  <g id="Layer_1-2" data-name="Layer 1">
    <g>
      <g>
        <g>
          <path class="cls-1" d="M281.28,105.01h29.93v13.6h-12.26v12.89h10.91v12.93h-10.91v28.54h-17.67v-67.95Z"/>
          <path class="cls-1" d="M353.81,117.26v55.7h-17.25l.29-4.63c-1.18,1.88-2.62,3.29-4.34,4.23-1.72.94-3.7,1.41-5.94,1.41-2.55,0-4.66-.45-6.34-1.34-1.68-.9-2.92-2.08-3.71-3.57-.8-1.48-1.29-3.03-1.49-4.64-.2-1.61-.29-4.81-.29-9.59v-37.56h16.96v37.9c0,4.34.13,6.91.4,7.72.27.81.99,1.22,2.16,1.22,1.26,0,2.01-.42,2.25-1.26.24-.84.36-3.54.36-8.1v-37.48h16.96Z"/>
          <path class="cls-1" d="M386.29,117.26v12.34l-12.51,32.19h12.51v11.16h-28.92v-11.67l12.77-32.86h-11.47v-11.16h27.62Z"/>
          <path class="cls-1" d="M418.02,117.26v12.34l-12.51,32.19h12.51v11.16h-28.92v-11.67l12.77-32.86h-11.47v-11.16h27.62Z"/>
          <path class="cls-1" d="M210.85,204.31h-17.67v-11.81c0-3.43-.19-5.58-.57-6.43-.38-.85-1.21-1.28-2.5-1.28-1.46,0-2.38.52-2.77,1.55-.39,1.04-.59,3.27-.59,6.72v31.56c0,3.3.2,5.46.59,6.46.39,1.01,1.27,1.51,2.64,1.51s2.18-.51,2.58-1.51c.41-1.01.61-3.38.61-7.11v-8.54h17.67v2.65c0,7.03-.5,12.02-1.49,14.96-.99,2.94-3.19,5.52-6.59,7.73-3.4,2.21-7.59,3.32-12.57,3.32s-9.44-.94-12.8-2.81c-3.36-1.87-5.58-4.47-6.67-7.79-1.09-3.32-1.64-8.3-1.64-14.96v-19.85c0-4.9.17-8.57.5-11.02.34-2.45,1.34-4.81,3-7.07,1.66-2.27,3.97-4.05,6.93-5.35,2.95-1.3,6.34-1.95,10.18-1.95,5.2,0,9.5,1.01,12.89,3.02,3.39,2.01,5.61,4.52,6.67,7.52,1.06,3,1.59,7.68,1.59,14.02v6.46Z"/>
          <path class="cls-1" d="M233.64,174.72v15.29c1.45-1.35,3.03-2.36,4.72-3.03,1.69-.67,3.5-1.01,5.44-1.01,2.97,0,5.49.76,7.58,2.27,2.08,1.51,3.36,3.25,3.82,5.23.46,1.97.69,5.58.69,10.81v38.4h-16.96v-39.2c0-3.25-.16-5.33-.48-6.25-.32-.92-1.04-1.39-2.16-1.39-1.04,0-1.74.48-2.1,1.43-.36.95-.55,2.84-.55,5.67v39.75h-16.96v-67.95h16.96Z"/>
          <path class="cls-1" d="M300.09,206.53v13.64c0,5.01-.25,8.68-.76,11.02-.5,2.34-1.58,4.52-3.23,6.55-1.65,2.03-3.77,3.53-6.36,4.49-2.59.97-5.56,1.45-8.92,1.45-3.75,0-6.93-.41-9.53-1.24-2.6-.83-4.62-2.07-6.06-3.74-1.44-1.66-2.47-3.68-3.09-6.04-.62-2.36-.92-5.91-.92-10.64v-14.27c0-5.18.56-9.22,1.68-12.13,1.12-2.91,3.13-5.25,6.04-7.01,2.91-1.76,6.63-2.64,11.16-2.64,3.8,0,7.07.57,9.8,1.7,2.73,1.13,4.83,2.61,6.32,4.43,1.48,1.82,2.5,3.69,3.04,5.62.55,1.93.82,4.87.82,8.81ZM283.13,202.33c0-2.85-.15-4.65-.46-5.39-.31-.74-.97-1.11-1.97-1.11s-1.68.37-2.01,1.11c-.34.74-.5,2.54-.5,5.39v25.14c0,2.63.17,4.34.5,5.14.34.8.99,1.2,1.97,1.2s1.67-.36,1.99-1.09c.32-.73.48-2.29.48-4.7v-25.69Z"/>
          <path class="cls-1" d="M322.62,186.97l-.67,7.32c2.46-5.25,6.03-8.02,10.7-8.33v19.6c-3.11,0-5.39.42-6.84,1.26-1.46.84-2.35,2.01-2.69,3.5-.34,1.5-.5,4.95-.5,10.35v21.99h-16.96v-55.7h16.96Z"/>
          <path class="cls-1" d="M375.26,186.97v55.7h-17.25l.29-4.63c-1.18,1.88-2.62,3.29-4.34,4.23-1.72.94-3.7,1.41-5.94,1.41-2.55,0-4.66-.45-6.34-1.34-1.68-.89-2.92-2.08-3.71-3.57-.8-1.48-1.29-3.03-1.49-4.64-.2-1.61-.29-4.81-.29-9.59v-37.56h16.96v37.9c0,4.34.13,6.91.4,7.72.27.81.99,1.22,2.16,1.22,1.26,0,2.01-.42,2.25-1.26.24-.84.36-3.54.36-8.1v-37.48h16.96Z"/>
          <path class="cls-1" d="M415.97,204.77h-15.03v-3.02c0-2.57-.15-4.2-.44-4.89-.29-.69-1.03-1.03-2.2-1.03-.95,0-1.67.31-2.14.94-.48.63-.71,1.57-.71,2.83,0,1.71.12,2.96.36,3.76.24.8.95,1.67,2.14,2.62,1.19.95,3.63,2.34,7.32,4.16,4.92,2.41,8.16,4.67,9.7,6.8,1.54,2.13,2.31,5.22,2.31,9.28,0,4.53-.59,7.95-1.76,10.26-1.18,2.31-3.14,4.09-5.9,5.33-2.76,1.24-6.08,1.87-9.97,1.87-4.31,0-8-.67-11.06-2.01s-5.17-3.16-6.32-5.46c-1.15-2.29-1.72-5.76-1.72-10.41v-2.69h15.03v3.53c0,2.99.19,4.94.57,5.83.38.9,1.13,1.34,2.24,1.34,1.2,0,2.04-.3,2.52-.9.48-.6.71-1.87.71-3.8,0-2.66-.31-4.32-.92-5-.64-.67-3.93-2.66-9.86-5.96-4.98-2.8-8.02-5.34-9.11-7.62-1.09-2.28-1.64-4.99-1.64-8.12,0-4.45.59-7.73,1.76-9.84,1.18-2.11,3.17-3.74,5.98-4.89,2.81-1.15,6.08-1.72,9.8-1.72s6.83.47,9.42,1.41c2.59.94,4.58,2.18,5.96,3.71,1.39,1.54,2.22,2.97,2.52,4.28.29,1.32.44,3.37.44,6.17v3.23Z"/>
          <path class="cls-1" d="M111.51,244.42v67.95h-15.45l-.02-45.87-6.15,45.87h-10.95l-6.48-44.82-.02,44.82h-15.45v-67.95h22.86c.68,4.08,1.38,8.9,2.1,14.45l2.51,17.28,4.06-31.73h22.99Z"/>
          <path class="cls-1" d="M156.92,256.68v55.7h-17.25l.29-4.63c-1.18,1.88-2.62,3.29-4.34,4.23-1.72.94-3.7,1.41-5.94,1.41-2.55,0-4.66-.45-6.34-1.34-1.68-.89-2.92-2.08-3.71-3.57-.8-1.48-1.29-3.03-1.49-4.64-.2-1.61-.29-4.81-.29-9.59v-37.56h16.96v37.9c0,4.34.13,6.91.4,7.72.27.81.99,1.22,2.16,1.22,1.26,0,2.01-.42,2.25-1.26.24-.84.36-3.54.36-8.1v-37.48h16.96Z"/>
          <path class="cls-1" d="M197.63,274.48h-15.03v-3.02c0-2.57-.15-4.2-.44-4.89-.29-.69-1.03-1.03-2.2-1.03-.95,0-1.67.31-2.14.94-.48.63-.71,1.57-.71,2.83,0,1.71.12,2.96.36,3.76.24.8.95,1.67,2.14,2.62,1.19.95,3.63,2.34,7.32,4.16,4.92,2.41,8.16,4.67,9.7,6.8,1.54,2.13,2.31,5.22,2.31,9.28,0,4.53-.59,7.95-1.76,10.26-1.18,2.31-3.14,4.09-5.9,5.33-2.76,1.24-6.08,1.87-9.97,1.87-4.31,0-8-.67-11.06-2.01-3.06-1.34-5.17-3.16-6.32-5.46-1.15-2.29-1.72-5.76-1.72-10.41v-2.69h15.03v3.53c0,2.99.19,4.94.57,5.83.38.9,1.13,1.34,2.25,1.34,1.2,0,2.04-.3,2.52-.9.48-.6.71-1.87.71-3.8,0-2.66-.31-4.32-.92-5-.64-.67-3.93-2.66-9.86-5.96-4.98-2.8-8.02-5.34-9.11-7.62-1.09-2.28-1.64-4.99-1.64-8.12,0-4.45.59-7.73,1.76-9.84,1.18-2.11,3.17-3.74,5.98-4.89,2.81-1.15,6.08-1.72,9.8-1.72s6.83.47,9.42,1.41c2.59.94,4.57,2.18,5.96,3.71,1.38,1.54,2.22,2.97,2.52,4.28.29,1.32.44,3.37.44,6.17v3.23Z"/>
          <path class="cls-1" d="M220.93,244.42v8.86h-17.46v-8.86h17.46ZM220.93,256.68v55.7h-17.46v-55.7h17.46Z"/>
          <path class="cls-1" d="M264.49,277.71h-15.99v-6.42c0-2.24-.18-3.76-.55-4.55-.36-.8-1.04-1.2-2.01-1.2s-1.64.35-1.97,1.05c-.34.7-.5,2.27-.5,4.7v26.27c0,1.99.25,3.48.76,4.47.5.99,1.24,1.49,2.22,1.49,1.15,0,1.92-.52,2.33-1.55.41-1.04.61-2.99.61-5.88v-6.63h15.11c-.03,4.45-.19,7.79-.48,10.01-.29,2.22-1.23,4.51-2.81,6.84-1.58,2.34-3.64,4.1-6.19,5.29-2.55,1.19-5.69,1.78-9.44,1.78-4.78,0-8.58-.82-11.37-2.46-2.8-1.64-4.78-3.93-5.94-6.88-1.16-2.95-1.74-7.14-1.74-12.57v-15.82c0-4.73.48-8.3,1.43-10.7.95-2.41,2.98-4.55,6.09-6.44,3.11-1.89,6.88-2.83,11.33-2.83s8.2.94,11.33,2.81c3.13,1.88,5.22,4.24,6.25,7.09,1.03,2.85,1.55,6.9,1.55,12.13Z"/>
          <path class="cls-1" d="M286.99,244.42v8.86h-17.46v-8.86h17.46ZM286.99,256.68v55.7h-17.46v-55.7h17.46Z"/>
          <path class="cls-1" d="M308.23,278.25h-15.91v-3.74c0-4.31.5-7.63,1.49-9.97.99-2.34,2.99-4.4,5.98-6.19,2.99-1.79,6.88-2.69,11.67-2.69,5.74,0,10.06,1.01,12.97,3.04,2.91,2.03,4.66,4.52,5.25,7.47.59,2.95.88,9.03.88,18.24v27.95h-16.49v-4.96c-1.04,1.99-2.37,3.48-4.01,4.48-1.64.99-3.59,1.49-5.85,1.49-2.97,0-5.69-.83-8.16-2.5-2.48-1.66-3.71-5.31-3.71-10.93v-4.58c0-4.17.66-7.01,1.97-8.52,1.32-1.51,4.57-3.27,9.78-5.29,5.57-2.18,8.55-3.65,8.94-4.41.39-.75.59-2.29.59-4.62,0-2.91-.22-4.81-.65-5.69-.43-.88-1.15-1.32-2.16-1.32-1.15,0-1.86.37-2.14,1.11-.28.74-.42,2.67-.42,5.77v5.83ZM313.6,285.89c-2.71,1.99-4.29,3.65-4.72,4.99-.43,1.34-.65,3.27-.65,5.79,0,2.88.19,4.74.57,5.58.38.84,1.13,1.26,2.25,1.26s1.76-.33,2.08-.99c.32-.66.48-2.39.48-5.18v-11.46Z"/>
          <path class="cls-1" d="M353.64,256.68l-.29,5.13c1.23-2.05,2.73-3.58,4.51-4.6,1.78-1.02,3.83-1.53,6.15-1.53,2.91,0,5.29.69,7.14,2.06,1.85,1.37,3.03,3.1,3.57,5.18.53,2.08.8,5.56.8,10.43v39.03h-16.96v-38.57c0-3.83-.13-6.17-.38-7.01-.25-.84-.95-1.26-2.1-1.26-1.2,0-1.96.48-2.27,1.45-.31.97-.46,3.55-.46,7.74v37.65h-16.96v-55.7h17.25Z"/>
          <path class="cls-1" d="M415.97,274.48h-15.03v-3.02c0-2.57-.15-4.2-.44-4.89s-1.03-1.03-2.2-1.03c-.95,0-1.67.31-2.14.94-.48.63-.71,1.57-.71,2.83,0,1.71.12,2.96.36,3.76.24.8.95,1.67,2.14,2.62,1.19.95,3.63,2.34,7.32,4.16,4.92,2.41,8.16,4.67,9.7,6.8,1.54,2.13,2.31,5.22,2.31,9.28,0,4.53-.59,7.95-1.76,10.26-1.18,2.31-3.14,4.09-5.9,5.33-2.76,1.24-6.08,1.87-9.97,1.87-4.31,0-8-.67-11.06-2.01-3.06-1.34-5.17-3.16-6.32-5.46-1.15-2.29-1.72-5.76-1.72-10.41v-2.69h15.03v3.53c0,2.99.19,4.94.57,5.83.38.9,1.13,1.34,2.24,1.34,1.2,0,2.04-.3,2.52-.9.48-.6.71-1.87.71-3.8,0-2.66-.31-4.32-.92-5-.64-.67-3.93-2.66-9.86-5.96-4.98-2.8-8.02-5.34-9.11-7.62-1.09-2.28-1.64-4.99-1.64-8.12,0-4.45.59-7.73,1.76-9.84,1.18-2.11,3.17-3.74,5.98-4.89,2.81-1.15,6.08-1.72,9.8-1.72s6.83.47,9.42,1.41c2.59.94,4.58,2.18,5.96,3.71,1.39,1.54,2.22,2.97,2.52,4.28.29,1.32.44,3.37.44,6.17v3.23Z"/>
          <path class="cls-1" d="M194.91,334.7h-16.41v-5.04c0-2.35-.21-3.85-.63-4.49-.42-.64-1.12-.97-2.1-.97-1.06,0-1.87.43-2.41,1.3-.55.87-.82,2.18-.82,3.95,0,2.27.31,3.98.92,5.12.59,1.15,2.25,2.53,4.99,4.15,7.87,4.67,12.82,8.5,14.86,11.49,2.04,2.99,3.06,7.82,3.06,14.48,0,4.84-.57,8.41-1.7,10.7-1.13,2.29-3.32,4.22-6.57,5.77-3.25,1.55-7.02,2.33-11.33,2.33-4.73,0-8.77-.9-12.11-2.69-3.34-1.79-5.53-4.07-6.57-6.84-1.04-2.77-1.55-6.7-1.55-11.79v-4.45h16.41v8.27c0,2.55.23,4.18.69,4.91.46.73,1.28,1.09,2.46,1.09s2.05-.46,2.62-1.39c.57-.92.86-2.29.86-4.11,0-4-.55-6.62-1.64-7.85-1.12-1.23-3.88-3.29-8.27-6.17-4.39-2.91-7.3-5.02-8.73-6.34-1.43-1.31-2.61-3.13-3.55-5.46-.94-2.32-1.41-5.29-1.41-8.9,0-5.2.66-9.01,1.99-11.42,1.33-2.41,3.48-4.29,6.44-5.65,2.97-1.36,6.55-2.04,10.74-2.04,4.59,0,8.5.74,11.73,2.22,3.23,1.48,5.37,3.35,6.42,5.6,1.05,2.25,1.57,6.08,1.57,11.48v2.69Z"/>
          <path class="cls-1" d="M239.77,345.95v13.64c0,5.01-.25,8.68-.76,11.02-.5,2.34-1.58,4.52-3.23,6.55-1.65,2.03-3.77,3.53-6.36,4.49-2.59.97-5.56,1.45-8.92,1.45-3.75,0-6.93-.41-9.53-1.24-2.6-.83-4.62-2.07-6.06-3.74-1.44-1.66-2.47-3.68-3.09-6.04-.62-2.36-.92-5.91-.92-10.64v-14.27c0-5.18.56-9.22,1.68-12.13,1.12-2.91,3.13-5.25,6.04-7.01,2.91-1.76,6.63-2.64,11.16-2.64,3.8,0,7.07.57,9.8,1.7,2.73,1.13,4.83,2.61,6.32,4.43,1.48,1.82,2.5,3.69,3.04,5.62.55,1.93.82,4.87.82,8.81ZM222.82,341.75c0-2.85-.15-4.65-.46-5.39-.31-.74-.97-1.11-1.97-1.11s-1.68.37-2.01,1.11-.5,2.54-.5,5.39v25.14c0,2.63.17,4.34.5,5.14.34.8.99,1.2,1.97,1.2s1.67-.36,1.99-1.09c.32-.73.48-2.29.48-4.7v-25.69Z"/>
          <path class="cls-1" d="M282.83,347.42h-15.99v-6.42c0-2.24-.18-3.76-.55-4.55-.36-.8-1.04-1.2-2.01-1.2s-1.64.35-1.97,1.05c-.34.7-.5,2.27-.5,4.7v26.27c0,1.99.25,3.48.76,4.47.5.99,1.24,1.49,2.22,1.49,1.15,0,1.92-.52,2.33-1.55.41-1.04.61-2.99.61-5.88v-6.63h15.11c-.03,4.45-.19,7.79-.48,10.01-.29,2.22-1.23,4.51-2.81,6.84-1.58,2.34-3.64,4.1-6.19,5.29-2.55,1.19-5.69,1.78-9.44,1.78-4.78,0-8.58-.82-11.37-2.46-2.8-1.64-4.78-3.93-5.94-6.88-1.16-2.95-1.74-7.14-1.74-12.57v-15.82c0-4.73.48-8.3,1.43-10.7.95-2.41,2.98-4.55,6.09-6.44,3.11-1.89,6.88-2.83,11.33-2.83s8.2.94,11.33,2.81c3.13,1.88,5.22,4.24,6.25,7.09,1.03,2.85,1.55,6.9,1.55,12.13Z"/>
          <path class="cls-1" d="M305.33,314.13v8.86h-17.46v-8.86h17.46ZM305.33,326.39v55.7h-17.46v-55.7h17.46Z"/>
          <path class="cls-1" d="M349.82,355.22h-21.95v12.04c0,2.52.18,4.14.55,4.87.36.73,1.06,1.09,2.1,1.09,1.29,0,2.15-.48,2.58-1.45.43-.97.65-2.83.65-5.6v-7.34h16.07v4.11c0,3.44-.22,6.09-.65,7.93-.43,1.85-1.45,3.82-3.04,5.92-1.59,2.1-3.62,3.67-6.07,4.72-2.45,1.05-5.52,1.57-9.21,1.57s-6.74-.52-9.49-1.55c-2.74-1.04-4.88-2.46-6.4-4.26-1.53-1.8-2.58-3.79-3.17-5.96-.59-2.17-.88-5.32-.88-9.46v-16.24c0-4.87.66-8.71,1.97-11.52,1.32-2.81,3.47-4.97,6.46-6.46,2.99-1.5,6.44-2.24,10.32-2.24,4.76,0,8.68.9,11.77,2.71,3.09,1.81,5.26,4.2,6.51,7.18,1.24,2.98,1.87,7.17,1.87,12.57v7.39ZM332.82,346.16v-4.07c0-2.88-.15-4.74-.46-5.58-.31-.84-.94-1.26-1.89-1.26-1.18,0-1.9.36-2.18,1.07-.28.71-.42,2.64-.42,5.77v4.07h4.95Z"/>
          <path class="cls-1" d="M373.24,318.96v8.77h4.57v8.81h-4.57v29.8c0,3.67.19,5.71.57,6.13.38.42,1.95.63,4.72.63v8.98h-6.84c-3.86,0-6.62-.16-8.27-.48-1.65-.32-3.11-1.06-4.37-2.22-1.26-1.16-2.04-2.49-2.35-3.99-.31-1.5-.46-5.02-.46-10.56v-28.29h-3.65v-8.81h3.65v-8.77h17Z"/>
          <path class="cls-1" d="M418.77,326.39l-4.85,40.29c-.77,6.38-1.41,10.73-1.93,13.05-.52,2.32-1.38,4.24-2.58,5.75-1.2,1.51-2.87,2.62-5.02,3.34-2.14.71-5.56,1.07-10.26,1.07h-10.28v-8.9c2.63,0,4.33-.13,5.09-.4.76-.27,1.13-.86,1.13-1.78,0-.45-.35-2.39-1.05-5.83l-9.29-46.59h15.39l5.57,37.61,2.72-37.61h15.34Z"/>
        </g>
        <g>
          <g>
            <path class="cls-1" d="M457.47,121.86c32.78.97,76.87-24.14,99.98-56.54h-123.87c-17.54,30.84-7.68,55.61,23.88,56.54Z"/>
            <path class="cls-1" d="M539.19.03c-32.78-.97-76.87,24.14-99.98,56.54h123.87c17.54-30.84,7.68-55.61-23.88-56.54Z"/>
          </g>
          <g>
            <path class="cls-1" d="M539.19,107.66c-32.78-.97-76.87,24.14-99.98,56.54h123.87c17.54-30.84,7.68-55.61-23.88-56.54Z"/>
            <path class="cls-1" d="M457.47,229.5c32.78.97,76.87-24.14,99.98-56.54h-123.87c-17.54,30.84-7.68,55.61,23.88,56.54Z"/>
          </g>
          <g>
            <path class="cls-1" d="M539.19,215.3c-32.78-.97-76.87,24.14-99.98,56.54h123.87c17.54-30.84,7.68-55.61-23.88-56.54Z"/>
            <path class="cls-1" d="M457.47,337.14c32.78.97,76.87-24.14,99.98-56.54h-123.87c-17.54,30.84-7.68,55.61,23.88,56.54Z"/>
          </g>
          <g>
            <path class="cls-1" d="M539.19,322.94c-32.78-.97-76.87,24.14-99.98,56.54h123.87c17.54-30.84,7.68-55.61-23.88-56.54Z"/>
            <path class="cls-1" d="M457.47,444.78c32.78.97,76.87-24.14,99.98-56.54h-123.87c-17.54,30.84-7.68,55.61,23.88,56.54Z"/>
          </g>
        </g>
        <g>
          <path class="cls-1" d="M114.22,322.94c-32.78-.97-76.87,24.14-99.98,56.55h123.87c17.54-30.84,7.68-55.61-23.88-56.55Z"/>
          <path class="cls-1" d="M32.5,444.78c32.78.97,76.87-24.14,99.98-56.54H8.62c-17.54,30.84-7.68,55.61,23.88,56.54Z"/>
        </g>
      </g>
      <g>
        <path class="cls-1" d="M163.03,415.65l-2.9-2.01c-.35-.24-.97-.63-1.85-1.15-.24-.13-.57-.33-.99-.59l1.95-2.54,2.8,1.45c.75.42,1.73,1.04,2.94,1.88l-1.95,2.97ZM165.96,419.6c-.37.81-.67,1.47-.89,1.98-1.69,3.65-3.39,6.55-5.08,8.71l-2.51-2.7c1.72-2.13,3.39-4.91,5.01-8.34.22-.48.52-1.1.89-1.85l2.57,2.21ZM164.57,406.87l-2.9-2.05c-.75-.51-1.7-1.1-2.87-1.78l1.91-2.6,2.9,1.55c.46.24,1.23.72,2.31,1.42.15.11.37.25.66.43l-2.01,3.03ZM165.86,416.2v-2.97h8.51v-5.71h-6.79v-2.9h6.79v-4.49h3.2v4.49h8.54v2.9h-8.54v5.71h9.73v2.97h-10.09c-1.34,3.54-2.81,6.61-4.42,9.2.64-.07,1.16-.11,1.58-.13,3.19-.26,5.65-.58,7.39-.96l-1.35-2.37-1.65-2.74,2.74-1.12c1.76,2.37,3.64,5.6,5.64,9.66.13.28.31.64.53,1.06l-3.17,1.52-.69-1.58c-.26-.66-.53-1.21-.79-1.65-4.51.84-10.15,1.47-16.92,1.91l-.79-3.46,2.14.03,1.35-.07c2-3.12,3.64-6.22,4.91-9.3h-7.85Z"/>
        <path class="cls-1" d="M221.39,419.27c-.15.44-.28.8-.36,1.09-1.34,4.02-2.7,7.32-4.09,9.89l-2.57-2.41c1.52-2.48,2.92-5.91,4.22-10.29l2.8,1.71ZM220.11,414.65c-1.21-.92-2.74-1.94-4.58-3.07-.24-.13-.56-.33-.96-.59l1.81-2.47c1.78.84,3.63,1.92,5.54,3.27l-1.81,2.87ZM220.57,406.34c-.33-.24-.59-.44-.79-.59-1.87-1.38-3.4-2.37-4.58-2.97l1.85-2.54,2.87,1.62c.66.33,1.52.86,2.57,1.58l-1.91,2.9ZM233.27,428.7l.2.99-3.03.59-.2-1.25-.2-1.19c-.99.24-2.42.47-4.29.69l-4.98.56-.49-2.97,1.15.03.96-.07c1.1-1.36,1.99-2.58,2.67-3.66l2.04-3.27-2.54.26-2.41.23-.66-2.8h.96l.4-.79c1.45-2.75,2.54-5.44,3.27-8.08l3,.66c-.62,2.09-1.66,4.57-3.13,7.45l-.33.66,1.58-.1,1.09-.13c.4-.68.73-1.38.99-2.11l.76-2.05,3.03,1.02c-1.98,4.49-4.41,8.67-7.29,12.57.29-.02.72-.04,1.3-.07.58-.02,1.39-.18,2.42-.46-.07-.35-.15-.71-.26-1.09l-.46-1.35,2.77-.56c.24.48.46,1.12.66,1.91l.43,1.72.66-.03c.35-.44.64-.79.86-1.06,1.45-1.76,2.77-3.61,3.96-5.54l-3.13.3-2.54.17-.46-2.84h1.02c1.63-2.37,2.97-5.39,4.02-9.04l3.07.79c-.22.55-.4,1-.53,1.35-.9,2.24-1.98,4.51-3.23,6.79l1.68-.07,1.38-.1c.13-.26.24-.47.33-.63.33-.64.54-1.07.63-1.29l.99-2.41,2.87,1.22c-2.51,5.54-4.99,9.62-7.45,12.24.99-.07,1.75-.13,2.27-.2l1.75-.26-.26-1.06c-.11-.48-.22-.85-.33-1.09l-.1-.2,2.77-.63c.68,1.67,1.23,3.68,1.65,6.03.07.31.14.7.23,1.19l-3,.59-.2-1.19-.2-1.22-3.76.43-4.35.36ZM227.89,404.99l-.89-1.91c-.22-.46-.59-1.09-1.12-1.88l3.03-1.02c.88,1.43,1.56,2.9,2.05,4.42.04.11.1.24.16.4h4.09c.55-1.1,1.06-2.49,1.52-4.19.04-.2.11-.45.2-.76l3.23.86-.73,2.11c-.22.59-.44,1.14-.66,1.65l-.16.33h6.1v2.84h-22.66v-2.84h5.84Z"/>
        <path class="cls-1" d="M282,408.65h5.47v2.74h-5.47v.69l3.03,2.74,2.8,2.64-1.75,2.93-2.08-2.47c-.48-.55-1.15-1.22-2.01-2.01v14.41h-2.97v-13.59c-1.56,2.88-3.5,5.42-5.8,7.62l-1.75-3c3.08-2.64,5.53-5.96,7.35-9.96h-6.83v-2.74h7.02v-4.22c-.86.15-1.66.26-2.41.33l-3.03.23-.69-2.7c5.61-.35,9.9-1.11,12.89-2.28l1.25,2.54c-1.38.59-3.07,1.09-5.05,1.48v4.62ZM288.76,429.5v-27.41h12.47v27.01h-3v-2.6h-6.46v3h-3ZM298.23,404.93h-6.46v18.83h6.46v-18.83Z"/>
        <path class="cls-1" d="M343.14,413.3c.28-.02.82-.05,1.6-.1s1.73-.23,2.85-.56l-1.48-.96c-.46-.29-.88-.58-1.25-.89-.07-.07-.16-.15-.3-.26l1.78-1.19c.73.57,1.42,1.02,2.08,1.35l1.81.89c.97-.48,1.81-1.14,2.54-1.98.04-.07.12-.15.23-.26h-9.43v-1.95h12.9v1.52c-.95,1.41-2.12,2.61-3.53,3.59.33.07.59.12.79.17,1.32.28,2.57.47,3.76.56.2,0,.45.02.76.07l-.96,2.24c-2.84-.33-5.14-.83-6.92-1.52-1.52.66-3.29,1.1-5.31,1.32-.31.02-.71.07-1.22.13l-.83-1.81h-10.65l-.2,1.06c-.04.31-.1.56-.16.76,0,.04-.03.11-.1.2h25.59v2.31h-4.06v7.81l1.95-.07,2.7-.1v2.28l-2.27.1-2.37.1v2.21h-2.97v-2.14c-4.62.15-7.94.23-9.96.23l-11.84.13-.43-2.44,2.64.03h2.51v-8.15h-2.54l-.23.33-.53.63-2.14-1.65c1.28-1.69,1.91-3.99,1.91-6.89v-2.44h13.29v5.34ZM337.9,399.98v1.52h5.94v1.98h-5.94v1.35h5.05v1.88h-13.49v-1.88h5.77v-1.35h-6.83v-1.98h6.83v-1.52h2.67ZM335.16,409.84h-2.67v1.95h2.67v-1.95ZM350.46,417.99h-14.12v1.38h14.12v-1.38ZM336.35,422.64h14.12v-1.45h-14.12v1.45ZM343.44,426.07c2.64,0,4.98-.07,7.02-.2v-1.39h-14.12v1.65l7.09-.07ZM340.5,409.84h-2.84v1.95h2.84v-1.95ZM354.52,403.51c0,.55.27.83.82.83h2.44v2.01h-3.59c-1.5,0-2.24-.69-2.24-2.08v-1.32h-4.12c0,1.28-.23,2.22-.69,2.84-.46.62-1.22,1.15-2.28,1.62l-1.52-1.71c.79-.33,1.35-.71,1.67-1.14.32-.43.48-1.35.48-2.75v-.72c0-.07-.01-.15-.03-.26h9.07v2.7Z"/>
        <path class="cls-1" d="M390.86,404.99l-.89-2.18-1.09-2.34,3-.46c.37.68.73,1.51,1.05,2.47l.89,2.51h4.29v2.87c-.2.37-.36.68-.49.92-.77,1.5-1.63,2.89-2.57,4.19-.2.26-.45.6-.76,1.02.37.31.67.55.89.72,1.5,1.23,2.78,2.34,3.86,3.33.22.22.52.49.89.83l-1.91,2.34-.33-.33c-.59-.59-1.19-1.15-1.78-1.68l-2.24-1.98v13.09h-3.13v-11.97l-.59.59c-.99.95-1.99,1.78-3,2.51-.2.13-.46.32-.79.56l-1.19-3.07c1.93-1.41,3.58-2.82,4.93-4.24,1.35-1.42,2.97-3.68,4.86-6.78h-9.53v-2.94h5.64ZM396.93,429.23v-3.03h8.28v-15.17h-6.23v-3.03h6.23v-7.59h3.2v7.59h6.37v3.03h-6.37v15.17h6.93v3.03h-18.4Z"/>
      </g>
    </g>
  </g>
</svg>