<?xml version="1.0" encoding="UTF-8"?>
<svg id="Layer_2" data-name="Layer 2" xmlns="http://www.w3.org/2000/svg" viewBox="0 0 767.55 598">
  <defs>
    <style>
      .cls-1 {
        fill: #f499bd;
      }

      .cls-2 {
        fill: #e51e26;
      }
    </style>
  </defs>
  <g id="Layer_1-2" data-name="Layer 1">
    <g>
      <polygon class="cls-1" points="0 135.34 0 598 767.55 462.66 767.55 0 0 135.34"/>
      <g>
        <path class="cls-2" d="M77.99,236.04l100.38-17.7v45.61l-41.11,7.25v43.22l36.6-6.45v43.36l-36.6,6.45v95.73l-59.27,10.45v-227.93Z"/>
        <path class="cls-2" d="M331.12,290.65l-59.27,10.45v-39.62c0-11.52-.63-18.6-1.9-21.23-1.27-2.63-4.06-3.57-8.38-2.81-4.88.86-7.98,3.14-9.29,6.85-1.32,3.71-1.97,11.33-1.97,22.87v105.87c0,11.08.66,18.19,1.97,21.33,1.31,3.15,4.27,4.32,8.87,3.5,4.41-.78,7.3-2.98,8.66-6.61,1.36-3.63,2.04-11.7,2.04-24.21v-28.65l59.27-10.45v8.88c0,23.59-1.67,40.62-5,51.07-3.33,10.46-10.7,20.4-22.1,29.84-11.4,9.44-25.46,15.63-42.17,18.57-17.36,3.06-31.68,2.44-42.94-1.86-11.26-4.3-18.72-11.69-22.38-22.17-3.66-10.48-5.49-26.88-5.49-49.22v-66.59c0-16.42.56-28.84,1.69-37.25,1.13-8.41,4.48-16.91,10.07-25.5,5.58-8.59,13.33-15.94,23.23-22.05,9.9-6.11,21.28-10.3,34.14-12.57,17.46-3.08,31.86-2.24,43.22,2.5,11.35,4.75,18.82,11.85,22.38,21.29,3.57,9.45,5.35,24.81,5.35,46.08v21.65Z"/>
        <path class="cls-2" d="M535.26,155.41v227.93l-51.81,9.14-.07-153.87-20.63,157.52-36.75,6.48-21.75-146.52-.07,150.37-51.81,9.14v-227.93l76.69-13.52c2.28,13.3,4.62,29.04,7.04,47.22l8.42,56.49,13.62-108.84,77.12-13.6Z"/>
        <path class="cls-2" d="M684.64,198.05l-55.05,9.71v-16.89c0-7.88-.7-12.78-2.11-14.69-1.41-1.91-3.75-2.58-7.04-2-3.57.63-6.27,2.56-8.1,5.8-1.83,3.24-2.75,7.81-2.75,13.73,0,7.61,1.03,13.16,3.09,16.64,1.97,3.5,7.55,7.17,16.75,10.98,26.38,11.01,43,20.93,49.85,29.76,6.85,8.84,10.28,24.42,10.28,46.76,0,16.24-1.9,28.54-5.7,36.9-3.8,8.37-11.15,16.11-22.03,23.24-10.89,7.13-23.56,11.97-38.01,14.52-15.86,2.8-29.4,2.18-40.62-1.85-11.22-4.03-18.56-10.38-22.03-19.06-3.47-8.68-5.21-21.56-5.21-38.64v-14.92l55.05-9.71v27.73c0,8.54.77,13.9,2.32,16.06,1.55,2.17,4.29,2.9,8.24,2.21,3.94-.69,6.87-2.76,8.8-6.2,1.92-3.44,2.89-8.2,2.89-14.31,0-13.42-1.83-21.87-5.49-25.36-3.75-3.47-13-8.74-27.73-15.81-14.74-7.16-24.5-12.53-29.28-16.1-4.79-3.57-8.75-8.97-11.9-16.2-3.15-7.24-4.72-16.91-4.72-29.02,0-17.46,2.23-30.61,6.69-39.47,4.46-8.86,11.66-16.44,21.61-22.75,9.95-6.3,21.96-10.7,36.04-13.18,15.39-2.71,28.51-2.54,39.35.52,10.84,3.06,18.02,8.06,21.54,15,3.52,6.94,5.28,19.46,5.28,37.57v9.01Z"/>
      </g>
    </g>
  </g>
</svg>