<?xml version="1.0" encoding="UTF-8"?>
<svg id="Layer_2" data-name="Layer 2" xmlns="http://www.w3.org/2000/svg" viewBox="0 0 767.55 462.66">
  <defs>
    <style>
      .cls-1 {
        fill: #90caee;
      }

      .cls-2 {
        fill: #2d54a5;
      }
    </style>
  </defs>
  <g id="Layer_1-2" data-name="Layer 1">
    <g>
      <rect class="cls-1" width="767.55" height="462.66"/>
      <g>
        <path class="cls-2" d="M107.91,212.59h-22.94v-7.04c0-3.28-.29-5.38-.88-6.28s-1.56-1.35-2.93-1.35c-1.49,0-2.61.61-3.37,1.82s-1.14,3.05-1.14,5.52c0,3.17.43,5.56,1.29,7.16.82,1.6,3.14,3.54,6.98,5.81,10.99,6.52,17.92,11.88,20.77,16.06s4.28,10.93,4.28,20.24c0,6.77-.79,11.75-2.38,14.96-1.58,3.21-4.64,5.9-9.18,8.07-4.54,2.17-9.82,3.26-15.84,3.26-6.61,0-12.25-1.25-16.92-3.75-4.67-2.5-7.73-5.69-9.18-9.56s-2.17-9.37-2.17-16.48v-6.22h22.94v11.56c0,3.56.32,5.85.97,6.86.65,1.02,1.79,1.53,3.43,1.53s2.86-.65,3.67-1.94c.8-1.29,1.2-3.21,1.2-5.75,0-5.59-.76-9.25-2.29-10.97-1.56-1.72-5.42-4.59-11.56-8.62-6.14-4.07-10.21-7.02-12.2-8.86-1.99-1.84-3.65-4.38-4.96-7.63-1.31-3.25-1.97-7.39-1.97-12.44,0-7.27.93-12.59,2.79-15.95s4.86-5.99,9-7.89c4.15-1.9,9.15-2.84,15.02-2.84,6.41,0,11.88,1.04,16.39,3.11,4.52,2.07,7.51,4.68,8.97,7.83,1.47,3.15,2.2,8.5,2.2,16.04v3.75Z"/>
        <path class="cls-2" d="M167.44,183.85v19.01h-14.66v75.96h-24.7v-75.96h-14.61v-19.01h53.97Z"/>
        <path class="cls-2" d="M229.21,183.85v63.47c0,7.2-.23,12.25-.7,15.16-.47,2.91-1.86,5.9-4.16,8.97-2.31,3.07-5.35,5.4-9.12,6.98-3.77,1.58-8.22,2.38-13.34,2.38-5.67,0-10.68-.94-15.02-2.82-4.34-1.88-7.59-4.32-9.74-7.33-2.15-3.01-3.42-6.19-3.81-9.53s-.59-10.37-.59-21.09v-56.19h24.7v71.21c0,4.15.22,6.79.67,7.95s1.36,1.73,2.73,1.73c1.56,0,2.57-.64,3.02-1.91.45-1.27.67-4.27.67-9v-69.98h24.7Z"/>
        <path class="cls-2" d="M238.77,183.85h18.48c11.93,0,19.99.55,24.2,1.64s7.4,2.89,9.59,5.4c2.19,2.5,3.56,5.29,4.11,8.36.55,3.07.82,9.1.82,18.1v33.26c0,8.52-.4,14.22-1.2,17.1-.8,2.87-2.2,5.12-4.19,6.75-1.99,1.62-4.46,2.76-7.39,3.4-2.93.65-7.35.97-13.26.97h-31.15v-94.97ZM263.47,200.1v62.47c3.56,0,5.75-.71,6.57-2.14.82-1.43,1.23-5.31,1.23-11.64v-36.9c0-4.3-.14-7.06-.41-8.27s-.9-2.1-1.88-2.67-2.82-.85-5.51-.85Z"/>
        <path class="cls-2" d="M329.87,183.85v94.97h-24.7v-94.97h24.7Z"/>
        <path class="cls-2" d="M396.21,239.46c0,9.54-.22,16.3-.67,20.27-.45,3.97-1.86,7.6-4.22,10.88s-5.56,5.81-9.59,7.57c-4.03,1.76-8.72,2.64-14.08,2.64s-9.65-.83-13.7-2.49c-4.05-1.66-7.3-4.15-9.77-7.48-2.46-3.32-3.93-6.94-4.4-10.85s-.7-10.75-.7-20.53v-16.25c0-9.54.22-16.3.67-20.27s1.86-7.6,4.22-10.88c2.37-3.28,5.56-5.81,9.59-7.57s8.72-2.64,14.08-2.64,9.65.83,13.7,2.49c4.05,1.66,7.3,4.15,9.77,7.48,2.46,3.32,3.93,6.94,4.4,10.85.47,3.91.7,10.75.7,20.53v16.25ZM371.52,208.25c0-4.42-.24-7.24-.73-8.48s-1.5-1.85-3.02-1.85c-1.29,0-2.28.5-2.96,1.5s-1.03,3.94-1.03,8.83v44.35c0,5.51.22,8.92.67,10.21.45,1.29,1.5,1.94,3.14,1.94s2.76-.74,3.23-2.23c.47-1.49.7-5.03.7-10.62v-43.64Z"/>
        <path class="cls-2" d="M478.92,212.59h-22.94v-7.04c0-3.28-.29-5.38-.88-6.28s-1.56-1.35-2.93-1.35c-1.49,0-2.61.61-3.37,1.82s-1.14,3.05-1.14,5.52c0,3.17.43,5.56,1.29,7.16.82,1.6,3.14,3.54,6.98,5.81,10.99,6.52,17.92,11.88,20.77,16.06,2.85,4.18,4.28,10.93,4.28,20.24,0,6.77-.79,11.75-2.38,14.96-1.58,3.21-4.64,5.9-9.18,8.07s-9.82,3.26-15.84,3.26c-6.61,0-12.25-1.25-16.92-3.75-4.67-2.5-7.73-5.69-9.18-9.56s-2.17-9.37-2.17-16.48v-6.22h22.94v11.56c0,3.56.32,5.85.97,6.86s1.79,1.53,3.43,1.53,2.86-.65,3.67-1.94,1.2-3.21,1.2-5.75c0-5.59-.76-9.25-2.29-10.97-1.56-1.72-5.42-4.59-11.56-8.62-6.14-4.07-10.21-7.02-12.2-8.86s-3.65-4.38-4.96-7.63c-1.31-3.25-1.97-7.39-1.97-12.44,0-7.27.93-12.59,2.79-15.95,1.86-3.36,4.86-5.99,9-7.89s9.15-2.84,15.02-2.84c6.41,0,11.88,1.04,16.39,3.11,4.52,2.07,7.51,4.68,8.97,7.83,1.47,3.15,2.2,8.5,2.2,16.04v3.75Z"/>
        <path class="cls-2" d="M545.5,183.85v94.97h-24.7v-39.89h-7.39v39.89h-24.7v-94.97h24.7v33.96h7.39v-33.96h24.7Z"/>
        <path class="cls-2" d="M611.84,239.46c0,9.54-.22,16.3-.67,20.27s-1.86,7.6-4.22,10.88-5.56,5.81-9.59,7.57c-4.03,1.76-8.72,2.64-14.08,2.64s-9.65-.83-13.7-2.49c-4.05-1.66-7.3-4.15-9.77-7.48-2.46-3.32-3.93-6.94-4.4-10.85-.47-3.91-.7-10.75-.7-20.53v-16.25c0-9.54.22-16.3.67-20.27s1.86-7.6,4.22-10.88c2.37-3.28,5.56-5.81,9.59-7.57,4.03-1.76,8.72-2.64,14.08-2.64s9.65.83,13.7,2.49c4.05,1.66,7.3,4.15,9.77,7.48,2.46,3.32,3.93,6.94,4.4,10.85.47,3.91.7,10.75.7,20.53v16.25ZM587.14,208.25c0-4.42-.24-7.24-.73-8.48s-1.5-1.85-3.02-1.85c-1.29,0-2.28.5-2.96,1.5s-1.03,3.94-1.03,8.83v44.35c0,5.51.22,8.92.67,10.21s1.5,1.94,3.14,1.94,2.76-.74,3.23-2.23.7-5.03.7-10.62v-43.64Z"/>
        <path class="cls-2" d="M714.02,183.85l-11,94.97h-30.83c-2.82-14.59-5.31-31.19-7.47-49.8-.99,7.98-3.28,24.58-6.89,49.8h-30.66l-11.05-94.97h23.99l2.61,33.14,2.52,32.03c.91-16.58,3.19-38.3,6.83-65.17h25.64c.34,2.78,1.24,13.22,2.69,31.32l2.73,36.13c1.4-22.99,3.7-45.47,6.89-67.46h23.99Z"/>
      </g>
    </g>
  </g>
</svg>