<?xml version="1.0" encoding="UTF-8"?>
<svg id="Layer_2" data-name="Layer 2" xmlns="http://www.w3.org/2000/svg" viewBox="0 0 852.92 499.77">
  <defs>
    <style>
      .cls-1 {
        fill: none;
        stroke: #231f20;
        stroke-miterlimit: 10;
        stroke-width: 12px;
      }

      .cls-2 {
        fill: #2d54a5;
      }
    </style>
  </defs>
  <g id="Layer_1-2" data-name="Layer 1">
    <g>
      <g>
        <path class="cls-2" d="M510.02,418.63c-30.95,46.15-93.46,82.46-139.61,81.1-46.15-1.36-58.47-39.87-27.51-86.03,30.95-46.15,93.46-82.46,139.61-81.1,46.15,1.36,58.47,39.87,27.51,86.03Z"/>
        <path class="cls-2" d="M510.02,252.35c-30.95,46.15-93.46,82.46-139.61,81.1-46.15-1.36-58.47-39.87-27.51-86.03,30.95-46.15,93.46-82.46,139.61-81.1,46.15,1.36,58.47,39.87,27.51,86.03Z"/>
        <path class="cls-2" d="M510.02,86.06c-30.95,46.15-93.46,82.46-139.61,81.1-46.15-1.36-58.47-39.87-27.51-86.03C373.85,34.99,436.36-1.32,482.51.04c46.15,1.36,58.47,39.87,27.51,86.03Z"/>
      </g>
      <g>
        <line class="cls-1" y1="83.6" x2="852.92" y2="83.6"/>
        <line class="cls-1" y1="249.88" x2="852.92" y2="249.88"/>
        <line class="cls-1" y1="416.17" x2="852.92" y2="416.17"/>
      </g>
    </g>
  </g>
</svg>