<?xml version="1.0" encoding="UTF-8"?>
<svg id="Layer_2" data-name="Layer 2" xmlns="http://www.w3.org/2000/svg" viewBox="0 0 517.77 546.15">
  <defs>
    <style>
      .cls-1 {
        fill: #90caee;
      }

      .cls-2 {
        fill: #2d54a5;
      }
    </style>
  </defs>
  <g id="Layer_1-2" data-name="Layer 1">
    <g>
      <polygon class="cls-1" points="142.43 546.15 471.64 546.15 375.34 0 46.13 0 142.43 546.15"/>
      <g>
        <g>
          <path class="cls-2" d="M254.75,166.75h27.1v12.32h-11.1v11.67h9.88v11.71h-9.88v25.85h-16v-61.54Z"/>
          <path class="cls-2" d="M320.44,177.85v50.44h-15.62l.27-4.19c-1.06,1.7-2.38,2.98-3.93,3.83-1.56.85-3.35,1.28-5.38,1.28-2.31,0-4.22-.41-5.74-1.22-1.52-.81-2.64-1.89-3.36-3.23-.72-1.34-1.17-2.74-1.35-4.2-.18-1.46-.27-4.35-.27-8.69v-34.02h15.36v34.33c0,3.93.12,6.26.36,6.99.24.74.89,1.1,1.96,1.1,1.14,0,1.82-.38,2.03-1.14.21-.76.32-3.21.32-7.34v-33.95h15.36Z"/>
          <path class="cls-2" d="M349.86,177.85v11.18l-11.33,29.16h11.33v10.11h-26.19v-10.57l11.57-29.76h-10.39v-10.11h25.01Z"/>
          <path class="cls-2" d="M378.59,177.85v11.18l-11.33,29.16h11.33v10.11h-26.19v-10.57l11.56-29.76h-10.39v-10.11h25.01Z"/>
          <path class="cls-2" d="M190.97,256.69h-16v-10.7c0-3.11-.17-5.05-.51-5.82-.34-.77-1.1-1.16-2.26-1.16-1.32,0-2.15.47-2.51,1.41-.36.94-.53,2.97-.53,6.08v28.59c0,2.99.18,4.94.53,5.85.35.91,1.15,1.37,2.39,1.37s1.97-.46,2.34-1.37c.37-.91.55-3.06.55-6.44v-7.74h16v2.4c0,6.37-.45,10.89-1.35,13.55-.9,2.67-2.89,5-5.97,7.01-3.08,2-6.87,3.01-11.39,3.01s-8.55-.85-11.59-2.55c-3.04-1.7-5.06-4.05-6.04-7.05-.99-3-1.48-7.52-1.48-13.55v-17.98c0-4.43.15-7.76.46-9.98.3-2.22,1.21-4.35,2.72-6.4,1.51-2.05,3.6-3.67,6.27-4.85,2.67-1.18,5.75-1.77,9.22-1.77,4.71,0,8.6.91,11.67,2.73,3.07,1.82,5.08,4.09,6.04,6.81.96,2.72,1.44,6.95,1.44,12.7v5.85Z"/>
          <path class="cls-2" d="M211.61,229.89v13.85c1.32-1.22,2.74-2.13,4.28-2.74,1.53-.61,3.17-.91,4.92-.91,2.69,0,4.97.68,6.86,2.05,1.89,1.37,3.04,2.95,3.46,4.73s.63,5.05.63,9.79v34.78h-15.36v-35.5c0-2.94-.15-4.83-.44-5.66s-.94-1.25-1.96-1.25c-.94,0-1.57.43-1.9,1.29-.33.86-.49,2.57-.49,5.13v36h-15.36v-61.54h15.36Z"/>
          <path class="cls-2" d="M271.78,258.7v12.35c0,4.54-.23,7.86-.68,9.98-.46,2.12-1.43,4.09-2.93,5.93-1.5,1.84-3.42,3.19-5.76,4.07-2.34.87-5.04,1.31-8.08,1.31-3.4,0-6.27-.37-8.63-1.12-2.36-.75-4.19-1.88-5.49-3.38-1.31-1.51-2.24-3.33-2.79-5.47-.56-2.14-.84-5.35-.84-9.64v-12.92c0-4.69.51-8.35,1.52-10.99,1.01-2.64,2.84-4.75,5.47-6.35,2.64-1.6,6.01-2.39,10.11-2.39,3.45,0,6.4.51,8.88,1.54,2.47,1.03,4.38,2.36,5.72,4.01,1.34,1.65,2.26,3.35,2.76,5.09.49,1.75.74,4.41.74,7.98ZM256.42,254.9c0-2.58-.14-4.21-.42-4.88-.28-.67-.87-1.01-1.79-1.01s-1.52.34-1.82,1.01c-.3.67-.46,2.3-.46,4.88v22.77c0,2.38.15,3.93.46,4.66.3.72.9,1.08,1.79,1.08s1.51-.33,1.81-.99c.29-.66.44-2.08.44-4.26v-23.26Z"/>
          <path class="cls-2" d="M292.19,240.99l-.61,6.63c2.23-4.75,5.46-7.27,9.69-7.55v17.75c-2.81,0-4.88.38-6.2,1.14-1.32.76-2.13,1.82-2.43,3.17-.3,1.36-.46,4.48-.46,9.37v19.92h-15.36v-50.44h15.36Z"/>
          <path class="cls-2" d="M339.86,240.99v50.44h-15.62l.27-4.19c-1.06,1.7-2.38,2.98-3.93,3.83-1.56.85-3.35,1.28-5.38,1.28-2.31,0-4.22-.41-5.74-1.22-1.52-.81-2.64-1.89-3.36-3.23-.72-1.34-1.17-2.74-1.35-4.2-.18-1.46-.27-4.35-.27-8.69v-34.02h15.36v34.33c0,3.93.12,6.26.36,6.99.24.73.89,1.1,1.96,1.1,1.14,0,1.82-.38,2.03-1.14.21-.76.32-3.21.32-7.34v-33.95h15.36Z"/>
          <path class="cls-2" d="M376.73,257.11h-13.61v-2.74c0-2.33-.13-3.81-.4-4.43-.27-.62-.93-.93-2-.93-.86,0-1.51.29-1.94.86-.43.57-.65,1.43-.65,2.57,0,1.55.11,2.68.32,3.4.21.72.86,1.51,1.94,2.38,1.08.86,3.29,2.12,6.63,3.76,4.46,2.18,7.39,4.23,8.78,6.16,1.39,1.93,2.09,4.73,2.09,8.4,0,4.1-.53,7.2-1.6,9.29s-2.84,3.7-5.34,4.83c-2.5,1.13-5.51,1.69-9.03,1.69-3.9,0-7.24-.61-10.02-1.82-2.78-1.22-4.68-2.86-5.72-4.94-1.04-2.08-1.56-5.22-1.56-9.43v-2.43h13.61v3.19c0,2.71.17,4.47.51,5.28.34.81,1.02,1.22,2.03,1.22,1.09,0,1.85-.27,2.28-.82.43-.54.65-1.69.65-3.44,0-2.41-.28-3.92-.84-4.52-.58-.61-3.56-2.41-8.93-5.4-4.51-2.53-7.26-4.83-8.25-6.9-.99-2.06-1.48-4.52-1.48-7.36,0-4.03.53-7,1.6-8.91,1.06-1.91,2.87-3.39,5.42-4.43,2.55-1.04,5.51-1.56,8.88-1.56s6.19.42,8.53,1.27c2.34.85,4.14,1.97,5.4,3.36,1.25,1.39,2.01,2.69,2.28,3.88.27,1.19.4,3.05.4,5.59v2.93Z"/>
          <path class="cls-2" d="M100.99,293.02v61.54h-13.99l-.02-41.55-5.57,41.55h-9.92l-5.87-40.6-.02,40.6h-13.99v-61.54h20.71c.61,3.7,1.25,8.06,1.9,13.08l2.27,15.65,3.68-28.74h20.82Z"/>
          <path class="cls-2" d="M142.12,304.12v50.44h-15.62l.27-4.19c-1.06,1.7-2.38,2.98-3.93,3.83s-3.35,1.28-5.38,1.28c-2.31,0-4.22-.41-5.74-1.22-1.52-.81-2.64-1.89-3.36-3.23-.72-1.34-1.17-2.74-1.35-4.2-.18-1.46-.27-4.35-.27-8.69v-34.02h15.36v34.33c0,3.93.12,6.26.36,6.99.24.73.89,1.1,1.96,1.1,1.14,0,1.82-.38,2.03-1.14.21-.76.32-3.21.32-7.34v-33.95h15.36Z"/>
          <path class="cls-2" d="M178.99,320.24h-13.61v-2.74c0-2.33-.13-3.81-.4-4.43-.27-.62-.93-.93-2-.93-.86,0-1.51.29-1.94.85-.43.57-.65,1.43-.65,2.57,0,1.55.11,2.68.32,3.4.22.72.86,1.51,1.94,2.38,1.08.86,3.29,2.12,6.63,3.76,4.46,2.18,7.39,4.23,8.78,6.16,1.39,1.93,2.09,4.73,2.09,8.4,0,4.1-.53,7.2-1.6,9.29-1.06,2.09-2.85,3.7-5.34,4.83-2.5,1.13-5.51,1.69-9.03,1.69-3.9,0-7.24-.61-10.02-1.82-2.77-1.22-4.68-2.86-5.72-4.94-1.04-2.08-1.56-5.22-1.56-9.43v-2.43h13.61v3.19c0,2.71.17,4.47.51,5.28.34.81,1.02,1.22,2.03,1.22,1.09,0,1.85-.27,2.28-.82.43-.54.65-1.69.65-3.44,0-2.41-.28-3.92-.84-4.52-.58-.61-3.56-2.41-8.93-5.4-4.51-2.53-7.26-4.83-8.25-6.9s-1.48-4.52-1.48-7.36c0-4.03.53-7,1.6-8.91,1.06-1.91,2.87-3.39,5.42-4.43,2.55-1.04,5.5-1.56,8.88-1.56s6.19.42,8.53,1.27c2.34.85,4.14,1.97,5.4,3.36,1.25,1.39,2.01,2.69,2.28,3.88.27,1.19.4,3.05.4,5.59v2.93Z"/>
          <path class="cls-2" d="M200.09,293.02v8.02h-15.81v-8.02h15.81ZM200.09,304.12v50.44h-15.81v-50.44h15.81Z"/>
          <path class="cls-2" d="M239.55,323.17h-14.48v-5.82c0-2.03-.16-3.4-.49-4.12-.33-.72-.94-1.08-1.82-1.08s-1.48.32-1.79.95c-.3.63-.46,2.05-.46,4.26v23.8c0,1.8.23,3.15.68,4.05.46.9,1.13,1.35,2.01,1.35,1.04,0,1.74-.47,2.11-1.41s.55-2.71.55-5.32v-6.01h13.68c-.03,4.03-.17,7.05-.44,9.07-.27,2.01-1.12,4.08-2.55,6.2-1.43,2.12-3.3,3.71-5.61,4.79-2.31,1.08-5.16,1.62-8.55,1.62-4.33,0-7.77-.74-10.3-2.22-2.53-1.48-4.33-3.56-5.38-6.23-1.05-2.67-1.58-6.47-1.58-11.39v-14.33c0-4.28.43-7.51,1.29-9.69.86-2.18,2.7-4.12,5.51-5.84,2.81-1.71,6.23-2.57,10.26-2.57s7.42.85,10.26,2.55c2.84,1.7,4.73,3.84,5.66,6.42.94,2.59,1.41,6.25,1.41,10.99Z"/>
          <path class="cls-2" d="M259.92,293.02v8.02h-15.81v-8.02h15.81ZM259.92,304.12v50.44h-15.81v-50.44h15.81Z"/>
          <path class="cls-2" d="M279.15,323.66h-14.41v-3.38c0-3.9.45-6.91,1.35-9.03.9-2.11,2.71-3.98,5.42-5.61,2.71-1.62,6.23-2.43,10.57-2.43,5.19,0,9.11.92,11.75,2.76,2.64,1.84,4.22,4.09,4.75,6.77.53,2.67.8,8.18.8,16.52v25.32h-14.94v-4.5c-.94,1.8-2.15,3.16-3.63,4.06-1.48.9-3.25,1.35-5.3,1.35-2.69,0-5.15-.75-7.39-2.26-2.24-1.51-3.36-4.81-3.36-9.9v-4.14c0-3.78.59-6.35,1.79-7.72,1.19-1.37,4.14-2.96,8.86-4.79,5.04-1.98,7.74-3.31,8.1-3.99.35-.68.53-2.08.53-4.18,0-2.64-.2-4.35-.59-5.15-.39-.8-1.05-1.2-1.96-1.2-1.04,0-1.69.34-1.94,1.01-.25.67-.38,2.41-.38,5.23v5.28ZM284.02,330.58c-2.46,1.8-3.88,3.31-4.28,4.52-.39,1.22-.59,2.97-.59,5.25,0,2.61.17,4.3.51,5.06.34.76,1.02,1.14,2.03,1.14s1.59-.3,1.88-.89c.29-.59.44-2.16.44-4.69v-10.38Z"/>
          <path class="cls-2" d="M320.28,304.12l-.27,4.65c1.11-1.85,2.48-3.24,4.09-4.17,1.61-.93,3.46-1.39,5.57-1.39,2.64,0,4.79.62,6.46,1.86,1.67,1.24,2.75,2.81,3.23,4.69.48,1.89.72,5.04.72,9.45v35.35h-15.36v-34.93c0-3.47-.11-5.59-.34-6.35-.23-.76-.86-1.14-1.9-1.14-1.09,0-1.77.44-2.05,1.31-.28.87-.42,3.21-.42,7.01v34.1h-15.36v-50.44h15.62Z"/>
          <path class="cls-2" d="M376.73,320.24h-13.61v-2.74c0-2.33-.13-3.81-.4-4.43-.27-.62-.93-.93-2-.93-.86,0-1.51.29-1.94.85-.43.57-.65,1.43-.65,2.57,0,1.55.11,2.68.32,3.4.21.72.86,1.51,1.94,2.38,1.08.86,3.29,2.12,6.63,3.76,4.46,2.18,7.39,4.23,8.78,6.16,1.39,1.93,2.09,4.73,2.09,8.4,0,4.1-.53,7.2-1.6,9.29-1.06,2.09-2.84,3.7-5.34,4.83-2.5,1.13-5.51,1.69-9.03,1.69-3.9,0-7.24-.61-10.02-1.82s-4.68-2.86-5.72-4.94c-1.04-2.08-1.56-5.22-1.56-9.43v-2.43h13.61v3.19c0,2.71.17,4.47.51,5.28.34.81,1.02,1.22,2.03,1.22,1.09,0,1.85-.27,2.28-.82.43-.54.65-1.69.65-3.44,0-2.41-.28-3.92-.84-4.52-.58-.61-3.56-2.41-8.93-5.4-4.51-2.53-7.26-4.83-8.25-6.9-.99-2.07-1.48-4.52-1.48-7.36,0-4.03.53-7,1.6-8.91,1.06-1.91,2.87-3.39,5.42-4.43,2.55-1.04,5.51-1.56,8.88-1.56s6.19.42,8.53,1.27c2.34.85,4.14,1.97,5.4,3.36,1.25,1.39,2.01,2.69,2.28,3.88.27,1.19.4,3.05.4,5.59v2.93Z"/>
          <path class="cls-2" d="M176.52,374.78h-14.86v-4.56c0-2.13-.19-3.48-.57-4.07-.38-.58-1.01-.87-1.9-.87-.96,0-1.69.39-2.19,1.18-.49.79-.74,1.98-.74,3.58,0,2.05.28,3.6.83,4.64.53,1.04,2.04,2.29,4.52,3.76,7.12,4.23,11.61,7.7,13.46,10.41,1.85,2.71,2.78,7.08,2.78,13.11,0,4.38-.51,7.62-1.54,9.69-1.03,2.08-3.01,3.82-5.95,5.23-2.94,1.41-6.36,2.11-10.26,2.11-4.28,0-7.94-.81-10.97-2.43-3.03-1.62-5.01-3.69-5.95-6.2-.94-2.51-1.41-6.07-1.41-10.68v-4.03h14.86v7.49c0,2.31.21,3.79.63,4.45.42.66,1.16.99,2.22.99s1.86-.42,2.38-1.25c.52-.84.78-2.08.78-3.72,0-3.62-.49-5.99-1.48-7.11-1.01-1.11-3.51-2.98-7.49-5.59-3.98-2.64-6.61-4.55-7.91-5.74-1.29-1.19-2.36-2.84-3.21-4.94-.85-2.1-1.27-4.79-1.27-8.06,0-4.71.6-8.16,1.81-10.34,1.2-2.18,3.15-3.88,5.83-5.11,2.69-1.23,5.93-1.84,9.73-1.84,4.16,0,7.7.67,10.62,2.01,2.93,1.34,4.87,3.04,5.82,5.07.95,2.04,1.43,5.51,1.43,10.4v2.43Z"/>
          <path class="cls-2" d="M217.16,384.97v12.35c0,4.54-.23,7.86-.68,9.98-.46,2.12-1.43,4.09-2.93,5.93-1.5,1.84-3.42,3.19-5.76,4.07-2.34.87-5.04,1.31-8.08,1.31-3.4,0-6.27-.37-8.63-1.12-2.36-.75-4.19-1.88-5.49-3.38-1.31-1.51-2.24-3.33-2.79-5.47-.56-2.14-.84-5.35-.84-9.64v-12.92c0-4.69.51-8.35,1.52-10.99,1.01-2.64,2.84-4.75,5.47-6.35,2.64-1.6,6.01-2.4,10.11-2.4,3.45,0,6.4.51,8.88,1.54,2.47,1.03,4.38,2.36,5.72,4.01,1.34,1.65,2.26,3.35,2.76,5.09.49,1.75.74,4.41.74,7.98ZM201.8,381.17c0-2.59-.14-4.21-.42-4.88-.28-.67-.87-1.01-1.79-1.01s-1.52.34-1.82,1.01c-.3.67-.46,2.3-.46,4.88v22.77c0,2.38.15,3.93.46,4.66.3.72.9,1.08,1.79,1.08s1.51-.33,1.81-.99c.29-.66.44-2.08.44-4.26v-23.26Z"/>
          <path class="cls-2" d="M256.16,386.3h-14.48v-5.82c0-2.03-.16-3.4-.49-4.12-.33-.72-.94-1.08-1.82-1.08s-1.48.32-1.79.95c-.3.63-.46,2.05-.46,4.26v23.8c0,1.8.23,3.15.68,4.05.46.9,1.13,1.35,2.01,1.35,1.04,0,1.74-.47,2.11-1.41s.55-2.71.55-5.32v-6.01h13.68c-.03,4.03-.17,7.05-.44,9.07-.27,2.01-1.12,4.08-2.55,6.2-1.43,2.12-3.3,3.71-5.61,4.79-2.31,1.08-5.16,1.62-8.55,1.62-4.33,0-7.77-.74-10.3-2.22-2.53-1.48-4.33-3.56-5.38-6.23-1.05-2.67-1.58-6.47-1.58-11.39v-14.33c0-4.28.43-7.51,1.29-9.69.86-2.18,2.7-4.12,5.51-5.84,2.81-1.71,6.23-2.57,10.26-2.57s7.42.85,10.26,2.55c2.84,1.7,4.73,3.84,5.66,6.42.94,2.59,1.41,6.25,1.41,10.99Z"/>
          <path class="cls-2" d="M276.53,356.16v8.02h-15.81v-8.02h15.81ZM276.53,367.26v50.44h-15.81v-50.44h15.81Z"/>
          <path class="cls-2" d="M316.82,393.37h-19.88v10.91c0,2.28.16,3.75.49,4.41.33.66.96.99,1.9.99,1.17,0,1.94-.44,2.34-1.31.39-.87.59-2.57.59-5.07v-6.65h14.56v3.72c0,3.12-.2,5.51-.59,7.18-.39,1.67-1.31,3.46-2.76,5.36-1.44,1.9-3.28,3.33-5.49,4.28-2.22.95-5,1.43-8.34,1.43s-6.11-.47-8.59-1.41c-2.48-.94-4.42-2.22-5.8-3.86-1.38-1.63-2.34-3.43-2.87-5.4-.53-1.96-.8-4.82-.8-8.57v-14.71c0-4.41.6-7.89,1.79-10.43,1.19-2.55,3.14-4.5,5.85-5.85,2.71-1.35,5.83-2.03,9.35-2.03,4.31,0,7.86.82,10.66,2.45,2.8,1.63,4.76,3.8,5.89,6.5,1.13,2.7,1.69,6.49,1.69,11.38v6.69ZM301.43,385.16v-3.69c0-2.61-.14-4.3-.42-5.06-.28-.76-.85-1.14-1.71-1.14-1.06,0-1.72.32-1.98.97-.25.65-.38,2.39-.38,5.23v3.69h4.49Z"/>
          <path class="cls-2" d="M338.04,360.53v7.95h4.14v7.98h-4.14v26.99c0,3.32.17,5.17.51,5.55.34.38,1.77.57,4.28.57v8.13h-6.2c-3.5,0-5.99-.15-7.49-.44-1.49-.29-2.81-.96-3.95-2.01-1.14-1.05-1.85-2.26-2.13-3.61-.28-1.35-.42-4.54-.42-9.56v-25.62h-3.31v-7.98h3.31v-7.95h15.39Z"/>
          <path class="cls-2" d="M379.27,367.26l-4.39,36.49c-.69,5.78-1.28,9.72-1.74,11.82-.47,2.1-1.25,3.84-2.34,5.21-1.09,1.37-2.6,2.38-4.54,3.02-1.94.65-5.04.97-9.29.97h-9.31v-8.06c2.39,0,3.92-.12,4.61-.36.69-.24,1.03-.78,1.03-1.61,0-.41-.32-2.17-.95-5.28l-8.41-42.19h13.94l5.05,34.06,2.46-34.06h13.89Z"/>
        </g>
        <g>
          <g>
            <path class="cls-2" d="M414.32,182.02c29.69.87,69.62-21.86,90.55-51.21h-112.18c-15.88,27.93-6.96,50.37,21.63,51.21Z"/>
            <path class="cls-2" d="M488.33,71.68c-29.69-.87-69.62,21.86-90.55,51.21h112.18c15.88-27.93,6.96-50.37-21.63-51.21Z"/>
          </g>
          <g>
            <path class="cls-2" d="M488.33,169.16c-29.69-.87-69.62,21.86-90.55,51.21h112.18c15.88-27.93,6.96-50.37-21.63-51.21Z"/>
            <path class="cls-2" d="M414.32,279.51c29.69.87,69.62-21.86,90.55-51.21h-112.18c-15.88,27.93-6.96,50.37,21.63,51.21Z"/>
          </g>
          <g>
            <path class="cls-2" d="M488.33,266.65c-29.69-.87-69.62,21.86-90.55,51.21h112.18c15.88-27.93,6.96-50.37-21.63-51.21Z"/>
            <path class="cls-2" d="M414.32,376.99c29.69.87,69.62-21.86,90.55-51.21h-112.18c-15.88,27.93-6.96,50.37,21.63,51.21Z"/>
          </g>
          <g>
            <path class="cls-2" d="M488.33,364.13c-29.69-.87-69.62,21.86-90.55,51.21h112.18c15.88-27.93,6.96-50.37-21.63-51.21Z"/>
            <path class="cls-2" d="M414.32,474.48c29.69.87,69.62-21.86,90.55-51.21h-112.18c-15.88,27.93-6.96,50.37,21.63,51.21Z"/>
          </g>
        </g>
        <g>
          <path class="cls-2" d="M103.45,364.13c-29.69-.87-69.62,21.86-90.55,51.21h112.18c15.88-27.93,6.96-50.37-21.63-51.21Z"/>
          <path class="cls-2" d="M29.43,474.48c29.69.87,69.62-21.86,90.55-51.21H7.8c-15.88,27.93-6.96,50.37,21.63,51.21Z"/>
        </g>
      </g>
    </g>
  </g>
</svg>