<?xml version="1.0" encoding="UTF-8" standalone="no"?>
<!DOCTYPE svg PUBLIC "-//W3C//DTD SVG 1.1//EN" "http://www.w3.org/Graphics/SVG/1.1/DTD/svg11.dtd">
<svg width="100%" height="100%" viewBox="0 0 214 214" version="1.1" xmlns="http://www.w3.org/2000/svg" xmlns:xlink="http://www.w3.org/1999/xlink" xml:space="preserve" xmlns:serif="http://www.serif.com/" style="fill-rule:evenodd;clip-rule:evenodd;stroke-linejoin:round;stroke-miterlimit:2;">
    <g transform="matrix(1,0,0,1,-7941.90229,-14036.710547)">
        <g transform="matrix(1,0,0,1,1383.982879,5024.924224)">
            <g transform="matrix(1.856742,0,0,1.856742,4561.931914,7446.526884)">
                <g transform="matrix(1.182231,0,0,1.182231,-206.466377,-165.188595)">
                    <g transform="matrix(0.122612,0,0,0.122612,-850.667144,697.734616)">
                        <g transform="matrix(1.512883,0.873464,-0.873464,1.512883,-350.37869,-10137.085392)">
                            <path d="M11584.11,1243.778L11584.11,1257.333C11584.11,1261.073 11581.073,1264.11 11577.333,1264.11L11563.778,1264.11C11560.037,1264.11 11557,1261.073 11557,1257.333L11557,1243.778C11557,1240.037 11560.037,1237 11563.778,1237L11577.333,1237C11581.073,1237 11584.11,1240.037 11584.11,1243.778Z" style="fill:white;"/>
                        </g>
                        <g transform="matrix(-1.132226,-0,0,-0.867242,29107.479254,2964.645899)">
                            <path d="M11421.634,1218.601L11439.236,1253.806C11440.196,1255.726 11440.27,1258.173 11439.429,1260.184C11438.588,1262.195 11436.967,1263.447 11435.205,1263.447L11400,1263.447C11398.238,1263.447 11396.617,1262.195 11395.776,1260.184C11394.935,1258.173 11395.009,1255.726 11395.969,1253.806L11413.572,1218.601C11414.458,1216.828 11415.975,1215.759 11417.603,1215.759C11419.23,1215.759 11420.747,1216.828 11421.634,1218.601Z" style="fill:white;"/>
                        </g>
                        <g transform="matrix(1.861476,-1.074724,1.074724,1.861476,-6808.207184,12098.983488)">
                            <path d="M11693.417,1240.127L11699.696,1244.689C11701.374,1245.908 11702.076,1248.069 11701.435,1250.042L11699.037,1257.424C11698.396,1259.396 11696.558,1260.732 11694.484,1260.732L11686.722,1260.732C11684.648,1260.732 11682.809,1259.396 11682.169,1257.424L11679.77,1250.042C11679.129,1248.069 11679.831,1245.908 11681.509,1244.689L11687.789,1240.127C11689.467,1238.908 11691.739,1238.908 11693.417,1240.127Z" style="fill:white;"/>
                        </g>
                    </g>
                    <g transform="matrix(0.329545,0,0,0.329545,645.009255,839.568263)">
                        <g transform="matrix(1,0,0,1,-10454.930598,-1062.8631)">
                            <path d="M11883.028,1299.019L11882.716,1298.069C11882.63,1297.806 11882.773,1297.524 11883.035,1297.438L11884.936,1296.814C11885.198,1296.728 11885.48,1296.871 11885.567,1297.133L11885.878,1298.084C11885.947,1298.294 11886.559,1300.589 11887.536,1302.398C11887.807,1302.9 11888.102,1303.364 11888.433,1303.698C11888.503,1303.768 11888.571,1303.835 11888.641,1303.89C11888.68,1303.92 11888.713,1303.955 11888.757,1303.956C11888.859,1303.958 11888.937,1303.895 11889.017,1303.82C11889.175,1303.669 11889.317,1303.457 11889.469,1303.224C11890.279,1301.987 11890.915,1300.031 11891.572,1298.084C11892.318,1295.87 11893.087,1293.663 11894.01,1292.251C11894.927,1290.849 11896.063,1290.131 11897.29,1290.147C11898.498,1290.162 11899.619,1290.89 11900.526,1292.279C11901.448,1293.691 11902.219,1295.88 11902.968,1298.076C11903.629,1300.012 11904.269,1301.954 11905.079,1303.195C11905.235,1303.433 11905.381,1303.65 11905.543,1303.805C11905.63,1303.888 11905.715,1303.955 11905.826,1303.956C11905.931,1303.956 11906.012,1303.891 11906.094,1303.812C11906.254,1303.659 11906.398,1303.444 11906.552,1303.208C11907.362,1301.969 11908.002,1300.021 11908.664,1298.08C11909.415,1295.877 11910.187,1293.681 11911.109,1292.269C11912.02,1290.873 11913.147,1290.15 11914.359,1290.147C11915.586,1290.144 11916.717,1290.866 11917.629,1292.262C11918.553,1293.674 11919.318,1295.875 11920.062,1298.082C11920.716,1300.024 11921.348,1301.973 11922.158,1303.211C11922.312,1303.446 11922.456,1303.66 11922.617,1303.812C11922.702,1303.892 11922.785,1303.957 11922.894,1303.956C11923.011,1303.955 11923.103,1303.886 11923.195,1303.8C11923.36,1303.645 11923.508,1303.428 11923.664,1303.19C11924.475,1301.95 11925.105,1300.01 11925.756,1298.079C11926.497,1295.882 11927.259,1293.693 11928.183,1292.28C11929.088,1290.895 11930.21,1290.164 11931.433,1290.147C11932.865,1290.127 11934.06,1290.968 11934.962,1292.437C11935.893,1293.954 11936.537,1296.222 11937.151,1298.081C11937.694,1299.727 11938.193,1301.724 11939.012,1303.062C11939.174,1303.328 11939.341,1303.569 11939.538,1303.743C11939.68,1303.867 11939.837,1303.952 11940.03,1303.956C11940.133,1303.958 11940.211,1303.895 11940.29,1303.82C11940.449,1303.669 11940.59,1303.457 11940.743,1303.224C11941.553,1301.987 11942.188,1300.031 11942.845,1298.084C11943.592,1295.87 11944.36,1293.663 11945.284,1292.251C11946.2,1290.849 11947.337,1290.131 11948.564,1290.147C11949.772,1290.162 11950.892,1290.89 11951.8,1292.279C11952.722,1293.691 11953.492,1295.88 11954.242,1298.076C11954.902,1300.012 11955.542,1301.954 11956.353,1303.195C11956.509,1303.433 11956.654,1303.65 11956.817,1303.805C11956.903,1303.888 11956.989,1303.955 11957.099,1303.956C11957.205,1303.956 11957.285,1303.891 11957.368,1303.812C11957.527,1303.659 11957.671,1303.444 11957.825,1303.208C11958.635,1301.969 11959.276,1300.021 11959.938,1298.08C11960.688,1295.877 11961.46,1293.681 11962.383,1292.269C11963.294,1290.873 11964.421,1290.15 11965.632,1290.147C11966.859,1290.144 11967.99,1290.866 11968.902,1292.262C11969.826,1293.674 11970.591,1295.875 11971.335,1298.082C11971.989,1300.024 11972.622,1301.973 11973.432,1303.211C11973.586,1303.446 11973.73,1303.66 11973.89,1303.812C11973.975,1303.892 11974.059,1303.957 11974.167,1303.956C11974.285,1303.955 11974.377,1303.886 11974.469,1303.8C11974.634,1303.645 11974.781,1303.428 11974.937,1303.19C11975.748,1301.95 11976.378,1300.01 11977.03,1298.079C11977.771,1295.882 11978.533,1293.693 11979.457,1292.28C11980.362,1290.895 11981.483,1290.164 11982.706,1290.147C11983.832,1290.131 11984.897,1290.748 11985.762,1291.864C11987.125,1293.622 11988.045,1296.761 11988.441,1298.136L11988.718,1299.097C11988.795,1299.362 11988.642,1299.639 11988.376,1299.715L11986.455,1300.27C11986.189,1300.346 11985.912,1300.193 11985.836,1299.928L11985.559,1298.967C11985.269,1297.961 11984.688,1295.833 11983.791,1294.302C11983.561,1293.909 11983.316,1293.558 11983.034,1293.315C11982.941,1293.234 11982.859,1293.145 11982.748,1293.147C11982.628,1293.148 11982.534,1293.218 11982.44,1293.306C11982.274,1293.462 11982.125,1293.681 11981.968,1293.921C11981.155,1295.164 11980.524,1297.105 11979.873,1299.037C11979.132,1301.234 11978.37,1303.422 11977.448,1304.832C11976.542,1306.217 11975.419,1306.944 11974.196,1306.956C11972.968,1306.967 11971.835,1306.25 11970.922,1304.854C11970,1303.446 11969.236,1301.248 11968.492,1299.04C11967.838,1297.098 11967.204,1295.146 11966.391,1293.903C11966.236,1293.666 11966.09,1293.45 11965.927,1293.296C11965.84,1293.213 11965.752,1293.146 11965.64,1293.147C11965.53,1293.147 11965.445,1293.214 11965.359,1293.297C11965.196,1293.452 11965.05,1293.67 11964.894,1293.909C11964.081,1295.154 11963.439,1297.106 11962.777,1299.047C11962.026,1301.251 11961.256,1303.444 11960.336,1304.85C11959.423,1306.246 11958.294,1306.963 11957.081,1306.956C11955.873,1306.948 11954.75,1306.226 11953.842,1304.836C11952.922,1303.429 11952.152,1301.242 11951.403,1299.045C11950.742,1297.109 11950.101,1295.164 11949.288,1293.919C11949.131,1293.679 11948.983,1293.46 11948.819,1293.303C11948.729,1293.217 11948.64,1293.148 11948.526,1293.147C11948.419,1293.145 11948.337,1293.21 11948.254,1293.289C11948.093,1293.442 11947.949,1293.657 11947.795,1293.893C11946.982,1295.136 11946.345,1297.094 11945.688,1299.043C11944.941,1301.257 11944.173,1303.461 11943.253,1304.867C11942.335,1306.27 11941.196,1306.981 11939.968,1306.955C11938.507,1306.925 11937.334,1306.067 11936.453,1304.628C11935.528,1303.118 11934.916,1300.881 11934.302,1299.022C11933.759,1297.375 11933.23,1295.35 11932.405,1294.007C11932.244,1293.745 11932.084,1293.504 11931.896,1293.334C11931.774,1293.223 11931.641,1293.144 11931.475,1293.147C11931.355,1293.148 11931.26,1293.218 11931.167,1293.306C11931,1293.462 11930.851,1293.681 11930.694,1293.921C11929.882,1295.164 11929.251,1297.105 11928.599,1299.037C11927.858,1301.234 11927.097,1303.422 11926.174,1304.832C11925.268,1306.217 11924.146,1306.944 11922.922,1306.956C11921.695,1306.967 11920.562,1306.25 11919.648,1304.854C11918.727,1303.446 11917.962,1301.248 11917.219,1299.04C11916.564,1297.098 11915.931,1295.146 11915.118,1293.903C11914.963,1293.666 11914.817,1293.45 11914.654,1293.296C11914.566,1293.213 11914.479,1293.146 11914.366,1293.147C11914.256,1293.147 11914.171,1293.214 11914.085,1293.297C11913.923,1293.452 11913.777,1293.67 11913.621,1293.909C11912.808,1295.154 11912.165,1297.106 11911.504,1299.047C11910.753,1301.251 11909.982,1303.444 11909.062,1304.85C11908.149,1306.246 11907.02,1306.963 11905.808,1306.956C11904.599,1306.948 11903.477,1306.226 11902.568,1304.836C11901.648,1303.429 11900.879,1301.242 11900.129,1299.045C11899.468,1297.109 11898.827,1295.164 11898.014,1293.919C11897.857,1293.679 11897.709,1293.46 11897.545,1293.303C11897.456,1293.217 11897.367,1293.148 11897.253,1293.147C11897.146,1293.145 11897.063,1293.21 11896.98,1293.289C11896.819,1293.442 11896.675,1293.657 11896.521,1293.893C11895.708,1295.136 11895.072,1297.094 11894.414,1299.043C11893.667,1301.257 11892.9,1303.461 11891.979,1304.867C11891.061,1306.27 11889.923,1306.981 11888.695,1306.955C11887.569,1306.932 11886.428,1306.165 11885.53,1304.866C11884.086,1302.778 11883.119,1299.298 11883.028,1299.019Z" style="fill:white;"/>
                        </g>
                    </g>
                </g>
                <g transform="matrix(0.446011,0,0,0.446011,622.516594,820.885627)">
                    <g transform="matrix(0.368208,0,0,0.368208,-4817.173732,-437.52463)">
                        <path d="M16247.88,1723.845L16128.209,1724.42C16149.262,1705.732 16157.628,1685.141 16152.696,1677.536C16144.522,1664.931 16093.061,1683.701 16082.587,1660.767C16078.854,1652.593 16085.303,1643.983 16088.465,1642.197C16096.776,1637.501 16149.412,1632.301 16157.986,1621.115C16166.561,1609.928 16085.975,1604.735 16070.989,1602.07C16056.003,1599.404 15982.915,1582.672 15989.369,1556.422C15995.452,1531.685 16042.128,1554.466 16044.741,1555.703C16048.35,1557.411 16069.376,1570.701 16101.372,1569.18C16117.716,1568.403 16114.361,1562.299 16106.319,1547.993C16088.852,1516.921 16087.42,1515.74 16086.634,1510.232C16084.418,1494.715 16110.241,1470.28 16129.387,1503.774C16134.999,1513.59 16154.066,1554.972 16163.87,1553.975C16171.524,1553.196 16169.145,1547.525 16176.42,1516.572C16180.949,1497.304 16218.163,1496.25 16212.33,1529.771C16212.136,1530.888 16199.077,1570.607 16214.37,1585.188C16232.611,1602.581 16317.658,1590.643 16332.041,1608.469C16340.338,1618.753 16339.285,1644.258 16321.29,1651.783C16294.911,1662.814 16289.97,1660.804 16276.293,1672.525C16254.667,1691.059 16248.832,1719.25 16247.88,1723.845Z" style="fill:white;"/>
                    </g>
                    <g transform="matrix(0.368208,0,0,0.368208,-4817.173732,-437.52463)">
                        <path d="M16108.487,1563.335C16108.482,1563.172 16108.468,1562.896 16108.433,1562.705C16108.306,1562.013 16108.049,1561.253 16107.711,1560.411C16106.603,1557.657 16104.692,1554.283 16102.396,1550.198C16084.258,1517.931 16082.996,1516.588 16082.179,1510.868C16081.232,1504.238 16084.27,1496.194 16089.893,1490.395C16095.567,1484.543 16103.693,1481.037 16112.329,1483.087C16119.218,1484.722 16126.709,1490.021 16133.294,1501.541C16137.176,1508.333 16147.546,1530.43 16156.76,1542.728C16158.514,1545.07 16160.199,1547.03 16161.789,1548.354C16162.405,1548.867 16163.399,1549.393 16163.574,1549.484C16163.997,1549.451 16164.345,1549.451 16164.601,1549.247C16164.864,1549.036 16164.961,1548.67 16165.131,1548.228C16165.414,1547.497 16165.658,1546.613 16165.908,1545.554C16167.179,1540.171 16168.403,1531.017 16172.039,1515.542C16174.023,1507.103 16180.912,1501.346 16188.853,1499.369C16196.755,1497.402 16205.561,1499.23 16211.305,1505.44C16215.983,1510.497 16218.834,1518.643 16216.764,1530.542C16216.65,1531.198 16211.954,1545.457 16211.487,1559.85C16211.213,1568.298 16212.2,1576.902 16217.475,1581.931C16221.372,1585.647 16228.794,1587.58 16237.851,1589.015C16252.999,1591.415 16272.498,1591.854 16289.979,1593.094C16302.085,1593.952 16313.255,1595.21 16321.539,1597.638C16327.963,1599.522 16332.783,1602.223 16335.543,1605.644C16340.355,1611.608 16342.672,1621.943 16340.96,1631.922C16339.235,1641.977 16333.544,1651.537 16323.026,1655.935C16297.387,1666.656 16292.514,1664.549 16279.222,1675.941C16258.667,1693.558 16253.191,1720.39 16252.287,1724.757C16251.856,1726.839 16250.028,1728.335 16247.902,1728.345L16128.231,1728.92C16126.358,1728.929 16124.676,1727.777 16124.006,1726.028C16123.337,1724.278 16123.821,1722.298 16125.222,1721.054C16137.158,1710.459 16144.855,1699.272 16148.036,1690.421C16148.973,1687.811 16149.506,1685.444 16149.567,1683.404C16149.608,1682.024 16149.478,1680.844 16148.921,1679.984C16148.552,1679.415 16147.934,1679.058 16147.212,1678.739C16145.953,1678.183 16144.412,1677.848 16142.671,1677.613C16136.217,1676.744 16127.448,1677.378 16118.578,1677.524C16108.841,1677.685 16099.007,1677.239 16091.479,1674.299C16085.651,1672.024 16081.092,1668.324 16078.494,1662.636C16076.032,1657.246 16076.81,1651.709 16078.842,1647.228C16080.869,1642.758 16084.172,1639.453 16086.252,1638.278C16087.965,1637.31 16091.298,1636.243 16095.712,1635.201C16104.692,1633.08 16118.68,1630.697 16131.133,1627.645C16137.944,1625.976 16144.281,1624.12 16148.965,1621.96C16150.45,1621.275 16151.756,1620.6 16152.784,1619.876C16150.899,1619.031 16147.688,1617.695 16144.697,1616.932C16123.096,1611.424 16080.645,1608.358 16070.201,1606.5C16059.437,1604.586 16019.493,1595.505 15998.747,1581.046C15988.27,1573.744 15982.658,1564.87 15985,1555.348C15988.019,1543.07 15998.721,1539.539 16011.135,1540.644C16026.808,1542.04 16045.029,1550.86 16046.666,1551.635C16050.14,1553.279 16070.36,1566.149 16101.158,1564.685C16103.422,1564.578 16105.251,1564.37 16106.694,1564.016C16107.184,1563.896 16107.618,1563.762 16107.994,1563.602C16108.153,1563.534 16108.361,1563.412 16108.487,1563.335Z" style="fill:white;"/>
                    </g>
                    <g transform="matrix(1.494205,0,0,1.494205,-23325.600235,-65.275586)">
                        <circle cx="16403" cy="125" r="5" style="fill:white;"/>
                    </g>
                    <g transform="matrix(0.95389,0,0,0.95389,-14433.401788,-713.22662)">
                        <path d="M16372.154,867.244L16373.728,867.403L16375.205,867.862L16376.536,868.585L16377.692,869.538L16378.645,870.694L16379.368,872.025L16379.827,873.502L16379.986,875.076L16379.827,876.65L16379.368,878.127L16378.645,879.458L16377.692,880.614L16376.536,881.567L16375.205,882.29L16373.728,882.749L16372.154,882.908L16370.58,882.749L16369.104,882.29L16367.772,881.567L16366.616,880.614L16365.663,879.458L16364.94,878.127L16364.481,876.65L16364.322,875.076L16364.481,873.502L16364.94,872.025L16365.663,870.694L16366.616,869.538L16367.772,868.585L16369.104,867.862L16370.58,867.403L16372.154,867.244Z" style="fill:white;"/>
                    </g>
                </g>
                <g transform="matrix(0.165686,0,0,0.165686,-1577.60787,620.53383)">
                    <g transform="matrix(0.821426,0.132926,-0.132926,0.821426,3270.405105,-1795.997577)">
                        <path d="M16009.231,1306.132C16011.099,1305.249 16012.78,1304.907 16014.273,1305.107C16016.263,1305.375 16017.986,1306.516 16019.442,1308.532L16026.755,1318.349L16016.119,1324.991L16010.223,1316.734C16009.312,1315.433 16008.321,1314.674 16007.249,1314.456C16006.177,1314.239 16004.79,1314.662 16003.088,1315.724L15996.972,1319.544L16004.792,1332.065L15994.368,1338.575L15971.426,1301.838L15989.454,1290.58C15992.291,1288.808 15995.044,1287.712 15997.713,1287.292C16000.383,1286.871 16002.8,1287.112 16004.965,1288.013C16007.13,1288.915 16008.901,1290.47 16010.28,1292.677C16011.357,1294.402 16011.973,1296.139 16012.129,1297.887C16012.285,1299.636 16011.994,1301.34 16011.256,1303C16010.771,1304.091 16010.096,1305.136 16009.231,1306.132ZM15991.899,1311.42L15997.589,1307.867C15999.326,1306.782 16000.426,1305.604 16000.889,1304.332C16001.351,1303.06 16001.184,1301.786 16000.387,1300.51C15999.568,1299.199 15998.502,1298.498 15997.189,1298.407C15995.876,1298.317 15994.35,1298.814 15992.613,1299.899L15986.923,1303.452L15991.899,1311.42ZM16291.293,1269.267C16293.231,1269.986 16294.649,1270.95 16295.549,1272.157C16296.749,1273.768 16297.136,1275.798 16296.712,1278.248L16294.801,1290.34L16282.617,1287.373L16284.403,1277.386C16284.697,1275.825 16284.547,1274.585 16283.953,1273.666C16283.36,1272.748 16282.088,1272.051 16280.138,1271.576L16273.133,1269.871L16269.641,1284.214L16257.7,1281.307L16267.945,1239.225L16288.597,1244.253C16291.846,1245.044 16294.554,1246.247 16296.721,1247.863C16298.887,1249.478 16300.404,1251.376 16301.272,1253.554C16302.14,1255.733 16302.266,1258.086 16301.65,1260.615C16301.169,1262.591 16300.358,1264.245 16299.216,1265.579C16298.074,1266.912 16296.651,1267.895 16294.949,1268.527C16293.829,1268.942 16292.61,1269.189 16291.293,1269.267ZM16275.398,1260.565L16281.917,1262.152C16283.907,1262.637 16285.518,1262.6 16286.751,1262.042C16287.984,1261.484 16288.778,1260.474 16289.134,1259.012C16289.5,1257.511 16289.256,1256.258 16288.403,1255.255C16287.55,1254.253 16286.129,1253.509 16284.139,1253.024L16277.62,1251.437L16275.398,1260.565ZM16272.294,1988.421L16276.077,2004.702L16264.106,2007.483L16254.305,1965.294L16266.276,1962.514L16270.127,1979.092L16283.013,1976.098L16279.162,1959.52L16291.132,1956.739L16300.933,1998.927L16288.963,2001.708L16285.181,1985.427L16272.294,1988.421ZM16135.647,1974.834L16116.564,1971.491L16118.216,1962.057L16149.405,1967.521L16141.931,2010.183L16129.826,2008.062L16135.647,1974.834ZM16032.099,1940.753L16014.935,1931.767L16019.377,1923.282L16047.428,1937.969L16027.339,1976.339L16016.451,1970.639L16032.099,1940.753ZM15913.851,1859.676C15912.659,1857.987 15912.034,1856.39 15911.975,1854.885C15911.896,1852.879 15912.724,1850.985 15914.459,1849.204L15922.873,1840.312L15931.245,1849.647L15924.125,1856.875C15923,1857.996 15922.422,1859.103 15922.392,1860.197C15922.362,1861.291 15923.017,1862.584 15924.357,1864.078L15929.171,1869.446L15940.161,1859.59L15948.366,1868.739L15916.122,1897.656L15901.931,1881.832C15899.698,1879.342 15898.145,1876.819 15897.272,1874.261C15896.398,1871.704 15896.22,1869.281 15896.736,1866.994C15897.252,1864.706 15898.479,1862.693 15900.416,1860.956C15901.93,1859.598 15903.535,1858.692 15905.231,1858.238C15906.927,1857.784 15908.656,1857.778 15910.417,1858.219C15911.576,1858.51 15912.721,1858.995 15913.851,1859.676ZM15922.041,1875.84L15917.562,1870.846C15916.194,1869.321 15914.844,1868.44 15913.512,1868.203C15912.18,1867.966 15910.953,1868.35 15909.833,1869.355C15908.683,1870.386 15908.176,1871.557 15908.312,1872.866C15908.448,1874.176 15909.2,1875.593 15910.568,1877.118L15915.047,1882.112L15922.041,1875.84ZM15851.152,1706.366C15851.938,1706.57 15852.707,1706.878 15853.459,1707.288C15855.211,1708.245 15856.764,1709.651 15858.116,1711.504C15859.468,1713.357 15860.505,1715.55 15861.226,1718.083C15862.416,1722.264 15862.531,1726.121 15861.571,1729.654C15860.61,1733.187 15858.739,1736.23 15855.956,1738.782C15853.173,1741.334 15849.61,1743.229 15845.269,1744.465C15841.084,1745.656 15837.111,1745.886 15833.35,1745.153C15829.59,1744.42 15826.315,1742.755 15823.525,1740.159C15820.735,1737.564 15818.711,1734.055 15817.452,1729.633C15816.341,1725.733 15816.002,1722.277 15816.434,1719.263C15816.866,1716.25 15817.984,1713.607 15819.789,1711.333C15821.594,1709.059 15824.003,1707.123 15827.016,1705.527L15830.971,1717.635C15829.001,1718.587 15827.624,1719.804 15826.841,1721.288C15826.059,1722.771 15825.988,1724.638 15826.629,1726.889C15827.178,1728.819 15828.172,1730.307 15829.612,1731.353C15831.051,1732.399 15832.81,1733.007 15834.888,1733.176C15836.966,1733.345 15839.276,1733.068 15841.818,1732.344C15844.321,1731.631 15846.417,1730.676 15848.106,1729.478C15849.794,1728.28 15850.962,1726.85 15851.61,1725.188C15852.257,1723.526 15852.278,1721.63 15851.671,1719.499C15851.247,1718.012 15850.64,1716.805 15849.847,1715.879C15849.055,1714.953 15848.105,1714.289 15846.997,1713.887C15845.889,1713.485 15844.661,1713.368 15843.313,1713.534L15845.596,1721.555L15837.969,1723.726L15832.321,1703.886L15854.381,1697.606L15856.338,1704.48L15851.152,1706.366ZM15911.249,1389.435C15912.701,1387.963 15914.162,1387.065 15915.633,1386.741C15917.594,1386.309 15919.604,1386.789 15921.664,1388.182L15931.903,1394.891L15924.194,1404.782L15915.822,1399.051C15914.52,1398.142 15913.328,1397.77 15912.246,1397.933C15911.164,1398.097 15910.007,1398.971 15908.773,1400.553L15904.341,1406.24L15915.984,1415.315L15908.43,1425.008L15874.269,1398.383L15887.335,1381.618C15889.391,1378.981 15891.6,1377.006 15893.963,1375.694C15896.326,1374.383 15898.679,1373.779 15901.021,1373.882C15903.364,1373.986 15905.562,1374.838 15907.615,1376.438C15909.219,1377.688 15910.394,1379.107 15911.141,1380.696C15911.887,1382.285 15912.199,1383.985 15912.076,1385.797C15911.995,1386.989 15911.719,1388.202 15911.249,1389.435ZM15896.787,1400.353L15900.911,1395.061C15902.17,1393.446 15902.799,1391.961 15902.796,1390.608C15902.794,1389.255 15902.199,1388.116 15901.013,1387.191C15899.794,1386.241 15898.552,1385.949 15897.287,1386.314C15896.023,1386.68 15894.761,1387.67 15893.502,1389.286L15889.377,1394.577L15896.787,1400.353ZM15957.27,1354.593C15955.276,1356.353 15953.113,1357.499 15950.782,1358.031C15948.45,1358.563 15946.171,1358.477 15943.943,1357.773C15941.716,1357.069 15939.764,1355.767 15938.087,1353.868C15936.378,1351.932 15935.32,1349.824 15934.914,1347.545C15934.508,1345.266 15934.713,1343.003 15935.53,1340.755C15936.348,1338.508 15937.753,1336.504 15939.747,1334.744C15941.741,1332.983 15943.904,1331.837 15946.235,1331.305C15948.566,1330.773 15950.838,1330.85 15953.05,1331.537C15955.262,1332.223 15957.222,1333.535 15958.932,1335.472C15960.589,1337.348 15961.633,1339.441 15962.065,1341.749C15962.496,1344.057 15962.303,1346.334 15961.486,1348.582C15960.669,1350.829 15959.264,1352.833 15957.27,1354.593ZM16032.605,1315.336L16014.316,1276.075L16044.212,1262.149L16048.256,1270.83L16029.5,1279.567L16032.565,1286.148L16050.639,1277.729L16054.657,1286.355L16036.584,1294.774L16039.701,1301.465L16058.911,1292.516L16062.955,1301.198L16032.605,1315.336ZM16069.095,1299.137L16054.209,1258.464L16065.749,1254.24L16080.636,1294.913L16069.095,1299.137ZM16087.142,1292.195L16076.21,1250.286L16088.222,1247.152L16108.76,1267.012L16102.601,1243.401L16114.492,1240.299L16125.425,1282.208L16113.412,1285.342L16093.182,1266.663L16099.034,1289.093L16087.142,1292.195ZM16132.332,1280.898L16127.135,1237.899L16143.382,1235.936C16150.81,1235.038 16156.741,1236.216 16161.177,1239.469C16165.612,1242.722 16168.247,1247.8 16169.081,1254.704C16169.911,1261.568 16168.589,1267.094 16165.117,1271.282C16161.644,1275.471 16156.256,1278.006 16148.952,1278.889L16132.332,1280.898ZM16143.384,1269.915L16147.43,1269.426C16151.123,1268.98 16153.693,1267.686 16155.139,1265.545C16156.586,1263.404 16157.06,1260.274 16156.562,1256.156C16156.064,1252.038 16154.858,1249.111 16152.943,1247.377C16151.028,1245.642 16148.224,1244.998 16144.531,1245.444L16140.485,1245.933L16143.384,1269.915ZM16178.101,1275.961L16178.204,1232.65L16211.184,1232.728L16211.161,1242.306L16190.47,1242.256L16190.453,1249.516L16210.391,1249.563L16210.368,1259.079L16190.43,1259.032L16190.413,1266.413L16211.605,1266.464L16211.582,1276.041L16178.101,1275.961ZM16218.011,1276.416L16223.038,1233.397L16255.795,1237.225L16254.683,1246.738L16234.132,1244.336L16233.29,1251.546L16253.093,1253.861L16251.989,1263.313L16232.185,1260.998L16231.328,1268.33L16252.378,1270.79L16251.266,1280.302L16218.011,1276.416ZM16334.035,1293.522C16331.588,1292.48 16329.622,1291.021 16328.139,1289.145C16326.655,1287.27 16325.752,1285.175 16325.429,1282.861C16325.106,1280.548 16325.441,1278.225 16326.434,1275.895C16327.446,1273.519 16328.893,1271.657 16330.776,1270.309C16332.659,1268.962 16334.79,1268.173 16337.17,1267.944C16339.55,1267.714 16341.964,1268.121 16344.411,1269.163C16346.858,1270.205 16348.823,1271.664 16350.307,1273.54C16351.79,1275.415 16352.698,1277.499 16353.031,1279.791C16353.363,1282.083 16353.023,1284.417 16352.01,1286.794C16351.029,1289.097 16349.59,1290.94 16347.692,1292.323C16345.795,1293.706 16343.656,1294.512 16341.276,1294.741C16338.895,1294.971 16336.482,1294.565 16334.035,1293.522ZM16364.38,1320.235L16387.46,1283.586L16415.367,1301.16L16410.264,1309.265L16392.755,1298.239L16388.887,1304.381L16405.759,1315.006L16400.688,1323.059L16383.816,1312.434L16379.883,1318.68L16397.815,1329.973L16392.712,1338.077L16364.38,1320.235ZM16398.127,1341.743L16425.548,1308.218L16438.215,1318.578C16444.007,1323.315 16447.265,1328.41 16447.99,1333.863C16448.714,1339.315 16446.875,1344.733 16442.472,1350.116C16438.095,1355.467 16433.193,1358.341 16427.767,1358.736C16422.34,1359.131 16416.78,1357 16411.085,1352.342L16398.127,1341.743ZM16413.703,1342.11L16416.858,1344.691C16419.737,1347.046 16422.45,1348.004 16424.997,1347.565C16427.543,1347.125 16430.129,1345.3 16432.755,1342.09C16435.382,1338.879 16436.658,1335.982 16436.583,1333.399C16436.509,1330.816 16435.031,1328.347 16432.152,1325.992L16428.997,1323.412L16413.703,1342.11ZM16445.212,1385.138C16442.507,1382.281 16440.658,1379.324 16439.666,1376.265C16438.674,1373.207 16438.555,1370.228 16439.307,1367.328C16440.06,1364.427 16441.692,1361.788 16444.203,1359.41L16464.045,1340.617L16472.496,1349.54L16452.653,1368.332C16450.946,1369.949 16450.043,1371.639 16449.944,1373.403C16449.844,1375.166 16450.585,1376.883 16452.166,1378.552C16453.776,1380.251 16455.464,1381.1 16457.23,1381.096C16458.997,1381.093 16460.733,1380.283 16462.44,1378.666L16482.283,1359.874L16490.733,1368.796L16470.891,1387.589C16468.38,1389.967 16465.655,1391.453 16462.718,1392.047C16459.781,1392.641 16456.812,1392.358 16453.81,1391.2C16450.808,1390.041 16447.943,1388.02 16445.212,1385.138ZM16474.744,1420.786C16472.32,1417.432 16470.884,1413.918 16470.437,1410.244C16469.99,1406.571 16470.581,1402.997 16472.211,1399.525C16473.841,1396.052 16476.584,1392.922 16480.44,1390.135C16484.132,1387.467 16487.868,1385.85 16491.649,1385.284C16495.429,1384.717 16499.041,1385.202 16502.483,1386.737C16505.926,1388.271 16508.957,1390.851 16511.576,1394.476C16515.151,1399.423 16516.766,1404.122 16516.421,1408.574C16516.076,1413.027 16513.944,1417.262 16510.024,1421.281L16502.223,1411.215C16503.989,1409.424 16505.008,1407.553 16505.279,1405.603C16505.551,1403.653 16505.063,1401.814 16503.814,1400.086C16502.614,1398.426 16501.163,1397.373 16499.461,1396.927C16497.759,1396.481 16495.913,1396.565 16493.922,1397.178C16491.932,1397.791 16489.899,1398.848 16487.822,1400.349C16485.68,1401.897 16484.025,1403.531 16482.859,1405.251C16481.693,1406.97 16481.08,1408.69 16481.019,1410.41C16480.957,1412.131 16481.478,1413.753 16482.579,1415.278C16483.999,1417.243 16485.686,1418.344 16487.64,1418.583C16489.593,1418.821 16491.752,1418.319 16494.115,1417.075L16501.261,1427.692C16497.828,1429.4 16494.539,1430.281 16491.393,1430.337C16488.247,1430.393 16485.279,1429.636 16482.49,1428.068C16479.701,1426.499 16477.118,1424.072 16474.744,1420.786ZM16488.37,1437.856L16534.099,1431.344L16540.758,1443.639L16510.316,1478.379L16504.345,1467.352L16509.426,1461.748L16501.783,1447.634L16494.312,1448.827L16488.37,1437.856ZM16511.489,1446.085L16516.057,1454.52L16525.857,1443.794L16511.489,1446.085ZM16512.158,1484.233L16543.304,1471.274L16538.319,1459.291L16547.161,1455.612L16561.877,1490.982L16553.035,1494.661L16548.049,1482.678L16516.903,1495.637L16512.158,1484.233ZM16522.672,1511.34L16563.92,1498.13L16567.668,1509.834L16526.42,1523.044L16522.672,1511.34ZM16532.27,1549.878C16531.283,1545.3 16531.328,1541.164 16532.404,1537.468C16533.479,1533.773 16535.478,1530.691 16538.399,1528.223C16541.32,1525.755 16545.047,1524.033 16549.579,1523.056C16554.111,1522.08 16558.226,1522.112 16561.924,1523.154C16565.623,1524.196 16568.732,1526.171 16571.251,1529.081C16573.771,1531.991 16575.527,1535.744 16576.517,1540.341C16577.513,1544.965 16577.461,1549.115 16576.36,1552.791C16575.26,1556.467 16573.239,1559.541 16570.298,1562.014C16567.357,1564.486 16563.62,1566.21 16559.088,1567.187C16554.556,1568.164 16550.451,1568.129 16546.773,1567.083C16543.094,1566.037 16540.006,1564.064 16537.509,1561.163C16535.012,1558.263 16533.266,1554.501 16532.27,1549.878ZM16541.629,1547.845C16542.071,1549.897 16542.949,1551.542 16544.262,1552.779C16545.575,1554.016 16547.256,1554.819 16549.305,1555.188C16551.354,1555.557 16553.73,1555.45 16556.433,1554.867C16559.137,1554.285 16561.357,1553.4 16563.093,1552.214C16564.829,1551.027 16566.05,1549.596 16566.755,1547.921C16567.459,1546.246 16567.591,1544.382 16567.148,1542.33C16566.712,1540.306 16565.829,1538.678 16564.497,1537.445C16563.166,1536.212 16561.465,1535.413 16559.394,1535.049C16557.324,1534.684 16554.937,1534.794 16552.234,1535.376C16549.53,1535.959 16547.321,1536.841 16545.606,1538.023C16543.891,1539.205 16542.691,1540.631 16542.004,1542.303C16541.318,1543.974 16541.193,1545.821 16541.629,1547.845ZM16538.735,1578.513L16581.939,1575.462L16582.814,1587.846L16559.52,1604.388L16583.861,1602.669L16584.726,1614.927L16541.522,1617.979L16540.648,1605.595L16562.724,1589.139L16539.601,1590.772L16538.735,1578.513ZM16550.31,1657.45C16550.564,1654.802 16551.36,1652.487 16552.699,1650.506C16554.038,1648.525 16555.761,1647.03 16557.869,1646.023C16559.976,1645.015 16562.291,1644.632 16564.813,1644.873C16567.384,1645.119 16569.596,1645.936 16571.45,1647.322C16573.304,1648.709 16574.7,1650.502 16575.639,1652.702C16576.578,1654.901 16576.92,1657.324 16576.667,1659.972C16576.414,1662.62 16575.617,1664.934 16574.278,1666.916C16572.94,1668.897 16571.228,1670.393 16569.144,1671.403C16567.06,1672.412 16564.732,1672.794 16562.16,1672.548C16559.668,1672.31 16557.476,1671.495 16555.584,1670.105C16553.692,1668.714 16552.277,1666.919 16551.338,1664.72C16550.399,1662.521 16550.057,1660.097 16550.31,1657.45ZM16534.549,1694.656L16576.164,1706.661L16571.68,1722.204L16542.639,1723.615L16566.467,1740.277L16561.983,1755.819L16520.368,1743.814L16523.775,1732.007L16547.219,1738.77L16526.436,1723.443L16528.851,1715.069L16554.588,1713.227L16531.143,1706.464L16534.549,1694.656ZM16508.028,1768.422C16509.685,1764.854 16511.752,1762.045 16514.229,1759.995C16516.705,1757.945 16519.43,1756.735 16522.404,1756.364C16525.377,1755.994 16528.432,1756.537 16531.569,1757.994L16556.356,1769.505L16551.179,1780.651L16526.393,1769.14C16524.261,1768.149 16522.356,1767.933 16520.68,1768.492C16519.005,1769.05 16517.682,1770.371 16516.714,1772.456C16515.728,1774.579 16515.562,1776.461 16516.217,1778.102C16516.872,1779.742 16518.265,1781.058 16520.398,1782.048L16545.184,1793.56L16540.008,1804.706L16515.221,1793.194C16512.084,1791.737 16509.698,1789.753 16508.063,1787.242C16506.428,1784.732 16505.595,1781.867 16505.565,1778.65C16505.534,1775.432 16506.355,1772.023 16508.028,1768.422ZM16486.321,1808.129C16488.509,1804.666 16490.906,1802.052 16493.513,1800.288C16496.119,1798.523 16498.826,1797.588 16501.635,1797.483C16504.443,1797.379 16507.243,1798.085 16510.037,1799.603L16503.97,1810.232C16502.655,1809.649 16501.409,1809.356 16500.232,1809.354C16499.054,1809.352 16497.966,1809.665 16496.967,1810.295C16495.968,1810.924 16495.044,1811.911 16494.196,1813.253C16493.526,1814.313 16493.068,1815.285 16492.823,1816.168C16492.578,1817.052 16492.573,1817.84 16492.808,1818.533C16493.044,1819.225 16493.523,1819.8 16494.245,1820.256C16494.898,1820.669 16495.58,1820.865 16496.291,1820.844C16497.001,1820.823 16497.861,1820.452 16498.871,1819.73C16499.88,1819.008 16501.177,1817.813 16502.761,1816.143C16505.614,1813.15 16508.166,1810.881 16510.417,1809.337C16512.668,1807.792 16514.822,1806.99 16516.88,1806.931C16518.938,1806.872 16521.084,1807.548 16523.319,1808.96C16525.588,1810.394 16527.203,1812.254 16528.162,1814.542C16529.122,1816.829 16529.369,1819.408 16528.903,1822.278C16528.436,1825.148 16527.198,1828.173 16525.189,1831.353C16523.068,1834.71 16520.743,1837.172 16518.214,1838.738C16515.684,1840.305 16513.061,1841.107 16510.343,1841.145C16507.625,1841.183 16504.916,1840.522 16502.215,1839.162L16508.267,1828.671C16509.446,1829.317 16510.587,1829.643 16511.691,1829.648C16512.794,1829.652 16513.823,1829.375 16514.777,1828.817C16515.732,1828.258 16516.577,1827.395 16517.314,1826.229C16518.252,1824.745 16518.685,1823.412 16518.614,1822.23C16518.543,1821.048 16518.027,1820.153 16517.064,1819.544C16516.308,1819.066 16515.543,1818.868 16514.771,1818.948C16513.998,1819.029 16513.144,1819.429 16512.209,1820.148C16511.273,1820.867 16510.155,1821.953 16508.852,1823.404C16505.889,1826.724 16503.194,1829.124 16500.766,1830.606C16498.338,1832.089 16496.1,1832.813 16494.053,1832.78C16492.005,1832.747 16490.018,1832.122 16488.093,1830.906C16485.721,1829.407 16484.052,1827.499 16483.086,1825.183C16482.12,1822.867 16481.904,1820.259 16482.438,1817.357C16482.973,1814.456 16484.267,1811.38 16486.321,1808.129ZM16472.703,1829.743L16507.003,1856.189L16499.499,1865.921L16465.199,1839.475L16472.703,1829.743ZM16447.149,1858.802C16449.969,1855.773 16453.137,1853.682 16456.654,1852.531C16460.171,1851.379 16463.791,1851.265 16467.514,1852.19C16471.237,1853.115 16474.84,1855.198 16478.323,1858.44C16481.657,1861.544 16483.968,1864.895 16485.257,1868.494C16486.546,1872.093 16486.772,1875.73 16485.935,1879.405C16485.097,1883.08 16483.155,1886.554 16480.107,1889.827C16475.949,1894.294 16471.652,1896.79 16467.218,1897.316C16462.783,1897.842 16458.214,1896.573 16453.511,1893.508L16461.871,1883.901C16463.972,1885.285 16466.005,1885.922 16467.97,1885.81C16469.936,1885.698 16471.645,1884.862 16473.097,1883.301C16474.493,1881.802 16475.244,1880.175 16475.351,1878.418C16475.459,1876.662 16475.018,1874.867 16474.03,1873.033C16473.042,1871.2 16471.611,1869.41 16469.735,1867.665C16467.801,1865.863 16465.877,1864.558 16463.964,1863.748C16462.051,1862.938 16460.245,1862.67 16458.545,1862.943C16456.846,1863.217 16455.355,1864.043 16454.073,1865.419C16452.421,1867.194 16451.668,1869.062 16451.813,1871.025C16451.958,1872.988 16452.87,1875.007 16454.549,1877.084L16445.521,1886.155C16443.18,1883.119 16441.676,1880.063 16441.011,1876.988C16440.346,1873.913 16440.512,1870.855 16441.509,1867.814C16442.506,1864.773 16444.386,1861.769 16447.149,1858.802ZM16411.762,1907.033C16413.872,1905.413 16416.108,1904.417 16418.47,1904.045C16420.832,1903.674 16423.1,1903.915 16425.275,1904.769C16427.449,1905.624 16429.308,1907.056 16430.851,1909.065C16432.424,1911.113 16433.336,1913.288 16433.585,1915.59C16433.835,1917.891 16433.476,1920.135 16432.507,1922.322C16431.539,1924.508 16430,1926.411 16427.89,1928.031C16425.781,1929.652 16423.545,1930.648 16421.183,1931.019C16418.821,1931.391 16416.56,1931.159 16414.4,1930.324C16412.24,1929.488 16410.373,1928.046 16408.8,1925.997C16407.275,1924.011 16406.376,1921.853 16406.103,1919.521C16405.83,1917.189 16406.177,1914.929 16407.146,1912.743C16408.114,1910.557 16409.653,1908.653 16411.762,1907.033ZM16356.23,1928.661C16359.841,1926.728 16363.216,1925.637 16366.354,1925.387C16369.492,1925.138 16372.308,1925.66 16374.802,1926.955C16377.296,1928.249 16379.384,1930.245 16381.065,1932.943L16370.544,1939.197C16369.688,1938.04 16368.749,1937.171 16367.726,1936.588C16366.703,1936.006 16365.602,1935.742 16364.422,1935.796C16363.243,1935.851 16361.952,1936.253 16360.552,1937.003C16359.446,1937.595 16358.569,1938.214 16357.92,1938.861C16357.271,1939.509 16356.878,1940.192 16356.741,1940.911C16356.604,1941.63 16356.737,1942.366 16357.14,1943.119C16357.505,1943.8 16358.002,1944.307 16358.63,1944.639C16359.258,1944.972 16360.19,1945.073 16361.424,1944.943C16362.658,1944.813 16364.376,1944.412 16366.577,1943.742C16370.535,1942.546 16373.874,1941.831 16376.594,1941.598C16379.314,1941.364 16381.584,1941.729 16383.403,1942.693C16385.222,1943.656 16386.756,1945.304 16388.003,1947.634C16389.27,1950.001 16389.756,1952.416 16389.463,1954.879C16389.169,1957.342 16388.112,1959.707 16386.291,1961.974C16384.469,1964.24 16381.9,1966.261 16378.584,1968.036C16375.082,1969.91 16371.846,1970.904 16368.873,1971.019C16365.9,1971.134 16363.222,1970.538 16360.839,1969.23C16358.456,1967.922 16356.426,1966.011 16354.748,1963.495L16365.187,1957.355C16365.894,1958.499 16366.726,1959.345 16367.683,1959.893C16368.64,1960.442 16369.672,1960.709 16370.778,1960.693C16371.884,1960.678 16373.045,1960.345 16374.261,1959.694C16375.809,1958.866 16376.844,1957.92 16377.365,1956.857C16377.886,1955.793 16377.878,1954.76 16377.341,1953.756C16376.919,1952.967 16376.352,1952.417 16375.64,1952.106C16374.929,1951.795 16373.989,1951.722 16372.82,1951.886C16371.651,1952.05 16370.143,1952.442 16368.294,1953.063C16364.079,1954.488 16360.55,1955.247 16357.707,1955.339C16354.864,1955.43 16352.56,1954.957 16350.795,1953.918C16349.03,1952.879 16347.61,1951.356 16346.536,1949.348C16345.212,1946.874 16344.701,1944.391 16345.003,1941.9C16345.305,1939.409 16346.404,1937.033 16348.3,1934.773C16350.196,1932.513 16352.839,1930.476 16356.23,1928.661ZM16314.979,1947.253C16318.854,1945.802 16322.623,1945.347 16326.284,1945.887C16329.945,1946.427 16333.235,1947.942 16336.153,1950.432C16339.071,1952.922 16341.364,1956.395 16343.032,1960.852C16344.629,1965.117 16345.201,1969.148 16344.747,1972.944C16344.293,1976.74 16342.871,1980.095 16340.481,1983.009C16338.09,1985.923 16334.8,1988.164 16330.612,1989.732C16324.896,1991.871 16319.937,1992.186 16315.734,1990.676C16311.532,1989.166 16308.011,1985.99 16305.171,1981.147L16316.942,1976.285C16318.203,1978.462 16319.738,1979.939 16321.547,1980.717C16323.355,1981.494 16325.258,1981.509 16327.254,1980.762C16329.172,1980.044 16330.572,1978.923 16331.452,1977.4C16332.332,1975.876 16332.74,1974.073 16332.674,1971.992C16332.609,1969.91 16332.128,1967.669 16331.23,1965.27C16330.303,1962.794 16329.165,1960.767 16327.815,1959.188C16326.465,1957.609 16324.968,1956.562 16323.326,1956.048C16321.683,1955.534 16319.98,1955.607 16318.219,1956.266C16315.948,1957.116 16314.44,1958.452 16313.693,1960.273C16312.946,1962.094 16312.86,1964.308 16313.435,1966.915L16301.306,1971C16300.567,1967.238 16300.587,1963.832 16301.365,1960.784C16302.143,1957.735 16303.657,1955.073 16305.907,1952.798C16308.158,1950.522 16311.181,1948.674 16314.979,1947.253ZM16226.902,1967.477C16231.564,1967.036 16235.667,1967.568 16239.21,1969.071C16242.753,1970.575 16245.577,1972.922 16247.684,1976.113C16249.791,1979.305 16251.063,1983.208 16251.499,1987.824C16251.936,1992.439 16251.419,1996.522 16249.949,2000.072C16248.479,2003.622 16246.151,2006.477 16242.965,2008.636C16239.778,2010.796 16235.844,2012.097 16231.163,2012.54C16226.454,2012.985 16222.339,2012.444 16218.818,2010.918C16215.297,2009.392 16212.482,2007.024 16210.374,2003.812C16208.265,2000.6 16206.992,1996.687 16206.556,1992.071C16206.12,1987.456 16206.637,1983.383 16208.109,1979.853C16209.581,1976.324 16211.904,1973.49 16215.078,1971.352C16218.252,1969.214 16222.194,1967.922 16226.902,1967.477ZM16227.819,1977.01C16225.729,1977.208 16223.992,1977.886 16222.609,1979.044C16221.226,1980.202 16220.231,1981.777 16219.624,1983.769C16219.016,1985.76 16218.842,1988.132 16219.103,1990.886C16219.363,1993.639 16219.98,1995.947 16220.954,1997.811C16221.928,1999.675 16223.205,2001.056 16224.785,2001.953C16226.366,2002.85 16228.201,2003.2 16230.291,2003.002C16232.352,2002.807 16234.073,2002.121 16235.455,2000.944C16236.836,1999.767 16237.829,1998.172 16238.435,1996.159C16239.04,1994.146 16239.213,1991.763 16238.953,1989.01C16238.692,1986.256 16238.076,1983.959 16237.105,1982.117C16236.133,1980.275 16234.857,1978.914 16233.279,1978.036C16231.7,1977.157 16229.88,1976.816 16227.819,1977.01ZM16176.893,1968.608C16181.57,1968.836 16185.555,1969.946 16188.848,1971.939C16192.141,1973.932 16194.602,1976.658 16196.233,1980.117C16197.864,1983.576 16198.566,1987.621 16198.341,1992.251C16198.115,1996.882 16197.021,2000.849 16195.061,2004.154C16193.1,2007.458 16190.389,2009.952 16186.927,2011.636C16183.466,2013.319 16179.387,2014.047 16174.69,2013.818C16169.966,2013.587 16165.97,2012.466 16162.702,2010.454C16159.435,2008.442 16156.986,2005.696 16155.356,2002.217C16153.727,1998.738 16153.025,1994.683 16153.25,1990.052C16153.476,1985.421 16154.569,1981.464 16156.529,1978.18C16158.488,1974.896 16161.192,1972.422 16164.638,1970.758C16168.084,1969.094 16172.17,1968.377 16176.893,1968.608ZM16176.442,1978.174C16174.346,1978.072 16172.53,1978.496 16170.996,1979.445C16169.462,1980.395 16168.253,1981.812 16167.368,1983.696C16166.483,1985.581 16165.973,1987.904 16165.838,1990.666C16165.703,1993.428 16165.985,1995.801 16166.684,1997.785C16167.382,1999.768 16168.449,2001.317 16169.886,2002.43C16171.323,2003.543 16173.089,2004.151 16175.186,2004.253C16177.254,2004.354 16179.055,2003.92 16180.59,2002.952C16182.125,2001.984 16183.335,2000.547 16184.222,1998.64C16185.108,1996.734 16185.618,1994.4 16185.753,1991.637C16185.888,1988.875 16185.605,1986.513 16184.906,1984.552C16184.206,1982.59 16183.138,1981.062 16181.7,1979.967C16180.263,1978.873 16178.51,1978.275 16176.442,1978.174ZM16079.764,1962.303C16082.284,1963.152 16084.357,1964.454 16085.982,1966.209C16087.606,1967.963 16088.669,1969.982 16089.171,1972.263C16089.672,1974.545 16089.519,1976.886 16088.71,1979.287C16087.885,1981.735 16086.586,1983.703 16084.814,1985.193C16083.042,1986.682 16080.978,1987.634 16078.623,1988.047C16076.267,1988.461 16073.83,1988.243 16071.309,1987.394C16068.788,1986.544 16066.716,1985.242 16065.091,1983.488C16063.467,1981.733 16062.4,1979.726 16061.891,1977.467C16061.382,1975.208 16061.539,1972.854 16062.364,1970.406C16063.164,1968.033 16064.456,1966.084 16066.24,1964.558C16068.025,1963.032 16070.095,1962.063 16072.45,1961.649C16074.805,1961.235 16077.243,1961.453 16079.764,1962.303ZM16015.93,1921.294L15991.921,1957.341L15964.472,1939.06L15969.781,1931.088L15987.002,1942.558L15991.026,1936.516L15974.432,1925.464L15979.707,1917.543L15996.302,1928.596L16000.393,1922.452L15982.755,1910.705L15988.064,1902.734L16015.93,1921.294ZM15985.007,1900.9L15944.565,1923.215L15933.977,1914.083L15950.108,1870.802L15959.604,1878.992L15956.842,1886.035L15968.997,1896.518L15975.558,1892.751L15985.007,1900.9ZM15960.473,1901.41L15953.208,1895.145L15947.852,1908.651L15960.473,1901.41ZM15918.725,1835.108L15882.996,1859.589L15875.979,1849.347L15887.709,1823.297L15867.58,1837.089L15860.634,1826.951L15896.364,1802.471L15903.38,1812.712L15892.657,1838.073L15911.779,1824.97L15918.725,1835.108ZM15893.274,1796.247L15855.394,1817.246L15849.435,1806.498L15887.316,1785.499L15893.274,1796.247ZM15883.651,1779.543L15843.949,1796.852L15838.987,1785.472L15855.417,1762.099L15833.049,1771.85L15828.138,1760.585L15867.84,1743.276L15872.802,1754.656L15857.491,1777.542L15878.74,1768.278L15883.651,1779.543ZM15838.135,1661.818C15838.421,1664.463 15838.108,1666.89 15837.196,1669.101C15836.284,1671.311 15834.898,1673.123 15833.036,1674.535C15831.175,1675.947 15828.985,1676.789 15826.467,1677.061C15823.899,1677.339 15821.567,1676.985 15819.472,1676.001C15817.377,1675.016 15815.647,1673.542 15814.284,1671.577C15812.921,1669.612 15812.097,1667.308 15811.811,1664.663C15811.525,1662.019 15811.838,1659.591 15812.75,1657.381C15813.662,1655.17 15815.037,1653.36 15816.874,1651.95C15818.712,1650.541 15820.915,1649.697 15823.483,1649.42C15825.972,1649.151 15828.283,1649.506 15830.417,1650.487C15832.55,1651.467 15834.299,1652.94 15835.662,1654.905C15837.025,1656.869 15837.849,1659.174 15838.135,1661.818ZM15848.597,1602.118C15848.353,1606.249 15847.242,1609.879 15845.265,1613.007C15843.287,1616.136 15840.569,1618.529 15837.11,1620.188C15833.651,1621.847 15829.547,1622.536 15824.797,1622.255C15820.25,1621.987 15816.333,1620.876 15813.047,1618.923C15809.761,1616.97 15807.27,1614.311 15805.574,1610.944C15803.879,1607.578 15803.163,1603.662 15803.427,1599.198C15803.787,1593.106 15805.509,1588.444 15808.592,1585.214C15811.676,1581.984 15816.006,1580.052 15821.584,1579.418L15821.259,1592.149C15818.758,1592.42 15816.786,1593.225 15815.342,1594.563C15813.898,1595.901 15813.113,1597.635 15812.988,1599.763C15812.867,1601.807 15813.325,1603.541 15814.361,1604.963C15815.397,1606.385 15816.88,1607.488 15818.809,1608.272C15820.739,1609.056 15822.983,1609.524 15825.54,1609.675C15828.179,1609.831 15830.494,1609.612 15832.484,1609.017C15834.475,1608.423 15836.038,1607.479 15837.174,1606.185C15838.309,1604.892 15838.933,1603.306 15839.044,1601.428C15839.187,1599.008 15838.577,1597.088 15837.215,1595.667C15835.853,1594.247 15833.863,1593.271 15831.246,1592.739L15832.427,1579.996C15836.166,1580.845 15839.271,1582.243 15841.743,1584.19C15844.215,1586.136 15846.035,1588.599 15847.203,1591.578C15848.372,1594.558 15848.836,1598.071 15848.597,1602.118ZM15849.671,1576.608L15807.07,1568.8L15813.015,1536.36L15822.436,1538.087L15818.705,1558.439L15825.846,1559.747L15829.44,1540.136L15838.801,1541.851L15835.206,1561.463L15842.466,1562.794L15846.287,1541.949L15855.708,1543.675L15849.671,1576.608ZM15856.992,1537.712L15815.678,1524.71L15819.405,1512.868L15847.141,1506.019L15823.865,1498.694L15827.555,1486.971L15868.868,1499.973L15865.142,1511.815L15838.569,1519.031L15860.681,1525.99L15856.992,1537.712ZM15875.336,1485.395L15844.622,1471.443L15839.255,1483.259L15830.535,1479.298L15846.379,1444.419L15855.099,1448.38L15849.731,1460.197L15880.445,1474.149L15875.336,1485.395ZM15887.637,1459.159L15850.5,1436.871L15867.472,1408.593L15875.684,1413.521L15865.036,1431.262L15871.26,1434.998L15881.521,1417.902L15889.68,1422.799L15879.42,1439.895L15885.749,1443.693L15896.654,1425.522L15904.866,1430.451L15887.637,1459.159Z" style="fill:white;"/>
                    </g>
                    <g transform="matrix(0.772334,0,0,0.772334,3849.6489,436.284653)">
                        <path d="M16194,1264.347C16391.946,1264.347 16552.653,1425.054 16552.653,1623C16552.653,1820.946 16391.946,1981.653 16194,1981.653C15996.054,1981.653 15835.347,1820.946 15835.347,1623C15835.347,1425.054 15996.054,1264.347 16194,1264.347ZM16194,1276C16002.485,1276 15847,1431.485 15847,1623C15847,1814.515 16002.485,1970 16194,1970C16385.515,1970 16541,1814.515 16541,1623C16541,1431.485 16385.515,1276 16194,1276Z" style="fill:white;"/>
                    </g>
                    <g transform="matrix(0.974063,0,0,0.974063,582.847747,108.878313)">
                        <path d="M16194,1266.76C16390.614,1266.76 16550.24,1426.386 16550.24,1623C16550.24,1819.614 16390.614,1979.24 16194,1979.24C15997.386,1979.24 15837.76,1819.614 15837.76,1623C15837.76,1426.386 15997.386,1266.76 16194,1266.76ZM16194,1276C16002.485,1276 15847,1431.485 15847,1623C15847,1814.515 16002.485,1970 16194,1970C16385.515,1970 16541,1814.515 16541,1623C16541,1431.485 16385.515,1276 16194,1276Z" style="fill:white;"/>
                    </g>
                </g>
            </g>
        </g>
    </g>
</svg>
